%FSLAX25Y25*%
%MOIN*%
G70*
G01*
G75*
G04 Layer_Physical_Order=1*
G04 Layer_Color=255*
%ADD10O,0.06102X0.02165*%
%ADD11R,0.04921X0.01378*%
%ADD12O,0.07087X0.01181*%
%ADD13O,0.01181X0.07087*%
%ADD14R,0.02362X0.03937*%
%ADD15R,0.01772X0.03937*%
%ADD16R,0.07480X0.02835*%
%ADD17R,0.04921X0.07284*%
%ADD18R,0.09843X0.03543*%
%ADD19R,0.00984X0.03150*%
%ADD20R,0.07087X0.11811*%
%ADD21R,0.05118X0.09055*%
%ADD22R,0.07087X0.07480*%
%ADD23R,0.05512X0.06299*%
%ADD24R,0.05315X0.01575*%
%ADD25R,0.07874X0.04724*%
%ADD26R,0.04331X0.12598*%
%ADD27R,0.02953X0.02559*%
%ADD28R,0.02756X0.01969*%
%ADD29R,0.01969X0.02756*%
%ADD30R,0.05906X0.05118*%
%ADD31R,0.02362X0.01969*%
%ADD32R,0.02559X0.02953*%
%ADD33R,0.01969X0.02362*%
%ADD34C,0.00600*%
%ADD35C,0.01000*%
%ADD36C,0.01500*%
%ADD37C,0.02000*%
%ADD38C,0.03000*%
%ADD39C,0.00400*%
%ADD40C,0.00200*%
%ADD41C,0.01400*%
%ADD42C,0.05906*%
%ADD43C,0.03937*%
%ADD44C,0.06000*%
%ADD45C,0.02400*%
G36*
X108400Y110768D02*
Y107168D01*
X106000D01*
Y109169D01*
X104500Y110669D01*
X101500D01*
Y111669D01*
X107500D01*
X108400Y110768D01*
D02*
G37*
G36*
X355209Y110146D02*
Y105000D01*
X348009D01*
Y110246D01*
X348710Y110946D01*
X354410D01*
X355209Y110146D01*
D02*
G37*
G36*
X288000Y110246D02*
Y105000D01*
X280800D01*
Y110146D01*
X281600Y110946D01*
X287300D01*
X288000Y110246D01*
D02*
G37*
G36*
X254200Y109807D02*
X252252Y107859D01*
X240835D01*
Y108859D01*
X245985D01*
X247485Y110359D01*
Y112359D01*
X254200D01*
Y109807D01*
D02*
G37*
G36*
X82511Y126900D02*
X80511D01*
X79011Y125400D01*
Y122400D01*
X78011D01*
Y128400D01*
X78911Y129300D01*
X82511D01*
Y126900D01*
D02*
G37*
G36*
X92800Y136400D02*
Y126800D01*
X90900Y124900D01*
Y120200D01*
X89800D01*
Y125600D01*
X90800Y126600D01*
Y136400D01*
X91300Y136900D01*
X92300D01*
X92800Y136400D01*
D02*
G37*
G36*
X254200Y116700D02*
Y114148D01*
X247485D01*
Y116148D01*
X245985Y117648D01*
X240835D01*
Y118648D01*
X252252D01*
X254200Y116700D01*
D02*
G37*
G36*
X63300Y123400D02*
Y116400D01*
X64300Y115400D01*
X90700D01*
X91800Y116500D01*
Y117300D01*
Y123400D01*
X97900D01*
X98800Y122500D01*
Y119900D01*
X96200Y117300D01*
X94700D01*
X87100Y109700D01*
Y100000D01*
X95000Y92100D01*
X97800D01*
Y90900D01*
X91300D01*
X88300Y93900D01*
X82300D01*
X79900Y91500D01*
X62300D01*
X61800Y91000D01*
X60768D01*
Y92768D01*
X65300Y97300D01*
Y110300D01*
X58500Y117100D01*
Y119200D01*
Y123900D01*
X62800D01*
X63300Y123400D01*
D02*
G37*
G36*
X78957Y68400D02*
X78057Y67500D01*
X74458D01*
Y69900D01*
X76458D01*
X77957Y71400D01*
Y74400D01*
X78957D01*
Y68400D01*
D02*
G37*
G36*
X69169Y71400D02*
X70669Y69900D01*
X72668D01*
Y67500D01*
X69068D01*
X68168Y68400D01*
Y74400D01*
X69169D01*
Y71400D01*
D02*
G37*
G36*
X58500Y92900D02*
X50200D01*
X49300Y92000D01*
X40700D01*
X39800Y92900D01*
Y93700D01*
X40500Y94400D01*
X49700D01*
X51300Y96000D01*
X58500D01*
Y92900D01*
D02*
G37*
G36*
X108400Y101779D02*
X107500Y100880D01*
X101500D01*
Y101880D01*
X104500D01*
X106000Y103379D01*
Y105379D01*
X108400D01*
Y101779D01*
D02*
G37*
G36*
X355209Y97900D02*
X354410Y97100D01*
X348710D01*
X348009Y97800D01*
Y103046D01*
X355209D01*
Y97900D01*
D02*
G37*
G36*
X288000Y97800D02*
X287300Y97100D01*
X281600D01*
X280800Y97900D01*
Y103046D01*
X288000D01*
Y97800D01*
D02*
G37*
G36*
X85800Y169900D02*
X86900Y168800D01*
Y162800D01*
X85900D01*
Y165900D01*
X81500Y170300D01*
Y182200D01*
X85800D01*
Y169900D01*
D02*
G37*
G36*
X77600Y167900D02*
X82900D01*
X84900Y165900D01*
Y162800D01*
X66500D01*
X65800Y163500D01*
Y168500D01*
X67300Y170000D01*
X75500D01*
X77600Y167900D01*
D02*
G37*
G36*
X96200Y160600D02*
X102200D01*
Y155500D01*
X96400D01*
X93700Y158200D01*
X88800D01*
Y154100D01*
X85900D01*
Y158200D01*
X82600D01*
X82500Y158300D01*
X79000Y154800D01*
X69800D01*
X69400Y155200D01*
Y161000D01*
X70200Y161800D01*
X95000D01*
X96200Y160600D01*
D02*
G37*
G36*
X103000Y174300D02*
Y162800D01*
X89900D01*
Y168800D01*
X91000Y169900D01*
Y182000D01*
X95300D01*
X103000Y174300D01*
D02*
G37*
G36*
X253600Y186400D02*
X248100D01*
Y189200D01*
X249800Y190900D01*
X253600D01*
Y186400D01*
D02*
G37*
G36*
X257500Y177200D02*
X260800D01*
X260900Y177100D01*
X264400Y180600D01*
X273600D01*
X274000Y180200D01*
Y174400D01*
X273200Y173600D01*
X248400D01*
X247200Y174800D01*
X241200D01*
Y179900D01*
X247000D01*
X249700Y177200D01*
X254600D01*
Y181300D01*
X257500D01*
Y177200D01*
D02*
G37*
G36*
X278500Y172000D02*
Y166000D01*
X277900Y165400D01*
X265300D01*
X263200Y167500D01*
X260500D01*
X258500Y169500D01*
Y172600D01*
X277900D01*
X278500Y172000D01*
D02*
G37*
G36*
X289600Y127700D02*
X290200Y127100D01*
X296000D01*
Y125000D01*
X290300D01*
X289600Y124300D01*
Y122600D01*
X287300D01*
Y129600D01*
X289600D01*
Y127700D01*
D02*
G37*
G36*
X205300Y140000D02*
X202700Y137400D01*
Y126000D01*
X201000Y124300D01*
Y122200D01*
X236000Y87200D01*
X248900D01*
X250600Y85500D01*
X250900D01*
Y83000D01*
X249200D01*
X246100Y86100D01*
X229500D01*
X223100Y79700D01*
X209600D01*
X207300Y77300D01*
Y73900D01*
X219800Y61400D01*
Y55200D01*
X218500Y53900D01*
Y47300D01*
X217500D01*
X217400Y47400D01*
X217500Y47500D01*
Y53800D01*
X214800Y56500D01*
Y61900D01*
X212900Y63800D01*
X207200D01*
X200800Y57400D01*
Y47600D01*
X199700D01*
Y57500D01*
X197300Y59900D01*
Y63400D01*
X190000Y70700D01*
X169300D01*
Y84800D01*
X166027Y88100D01*
X152000D01*
X150000Y90100D01*
X148600D01*
Y92100D01*
X150800D01*
X153700Y89200D01*
X166000D01*
X179300Y102500D01*
Y126900D01*
X179800Y127400D01*
X185700D01*
X186300Y126800D01*
Y125400D01*
X189300Y122400D01*
X197300D01*
X200800Y125900D01*
Y128500D01*
X201700Y129400D01*
Y139800D01*
X203400Y141500D01*
Y143700D01*
X205300D01*
Y140000D01*
D02*
G37*
G36*
X88800Y128400D02*
Y122400D01*
X87800D01*
Y125400D01*
X86300Y126900D01*
X84300D01*
Y129300D01*
X87900D01*
X88800Y128400D01*
D02*
G37*
G36*
X100800Y132900D02*
Y127900D01*
X99300Y126400D01*
X94800D01*
Y133900D01*
X95300Y134400D01*
X99300D01*
X100800Y132900D01*
D02*
G37*
G36*
X253500Y166600D02*
X252400Y165500D01*
Y153400D01*
X248100D01*
X235100Y166500D01*
X226500D01*
Y172600D01*
X253500D01*
Y166600D01*
D02*
G37*
G36*
X257500Y169500D02*
X261900Y165100D01*
Y153200D01*
X257600D01*
Y165500D01*
X256500Y166600D01*
Y172600D01*
X257500D01*
Y169500D01*
D02*
G37*
G36*
X95300Y146200D02*
X93600Y144500D01*
X89800D01*
Y149000D01*
X95300D01*
Y146200D01*
D02*
G37*
D10*
X295957Y141818D02*
D03*
Y138669D02*
D03*
Y135519D02*
D03*
Y132369D02*
D03*
Y129220D02*
D03*
Y126070D02*
D03*
Y122921D02*
D03*
Y119771D02*
D03*
Y116621D02*
D03*
Y113472D02*
D03*
Y110322D02*
D03*
Y107172D02*
D03*
Y104023D02*
D03*
Y100873D02*
D03*
Y97724D02*
D03*
Y94574D02*
D03*
Y91424D02*
D03*
Y88275D02*
D03*
Y85125D02*
D03*
Y81976D02*
D03*
Y78826D02*
D03*
Y75676D02*
D03*
Y72527D02*
D03*
Y69377D02*
D03*
Y66228D02*
D03*
Y63078D02*
D03*
Y59928D02*
D03*
X340052Y141818D02*
D03*
Y138669D02*
D03*
Y135519D02*
D03*
Y132369D02*
D03*
Y129220D02*
D03*
Y126070D02*
D03*
Y122921D02*
D03*
Y119771D02*
D03*
Y116621D02*
D03*
Y113472D02*
D03*
Y110322D02*
D03*
Y107172D02*
D03*
Y104023D02*
D03*
Y100873D02*
D03*
Y97724D02*
D03*
Y94574D02*
D03*
Y91424D02*
D03*
Y88275D02*
D03*
Y85125D02*
D03*
Y81976D02*
D03*
Y78826D02*
D03*
Y75676D02*
D03*
Y72527D02*
D03*
Y69377D02*
D03*
Y66228D02*
D03*
Y63078D02*
D03*
Y59928D02*
D03*
D11*
X15078Y159639D02*
D03*
Y157080D02*
D03*
Y154520D02*
D03*
Y151961D02*
D03*
X37322Y159639D02*
D03*
Y157080D02*
D03*
Y154520D02*
D03*
Y151961D02*
D03*
D12*
X157765Y57151D02*
D03*
Y59120D02*
D03*
Y61088D02*
D03*
Y63057D02*
D03*
Y65025D02*
D03*
Y66994D02*
D03*
Y68962D02*
D03*
Y70931D02*
D03*
Y72899D02*
D03*
Y74868D02*
D03*
Y76836D02*
D03*
Y78805D02*
D03*
Y80773D02*
D03*
Y82742D02*
D03*
Y84710D02*
D03*
Y86679D02*
D03*
Y88647D02*
D03*
Y90616D02*
D03*
Y92584D02*
D03*
Y94553D02*
D03*
Y96521D02*
D03*
Y98490D02*
D03*
Y100458D02*
D03*
Y102427D02*
D03*
Y104395D02*
D03*
Y106364D02*
D03*
Y108332D02*
D03*
Y110301D02*
D03*
Y112269D02*
D03*
Y114238D02*
D03*
Y116206D02*
D03*
Y118175D02*
D03*
Y120143D02*
D03*
Y122112D02*
D03*
Y124080D02*
D03*
Y126049D02*
D03*
X240835D02*
D03*
Y124080D02*
D03*
Y122112D02*
D03*
Y120143D02*
D03*
Y118175D02*
D03*
Y116206D02*
D03*
Y114238D02*
D03*
Y112269D02*
D03*
Y110301D02*
D03*
Y108332D02*
D03*
Y106364D02*
D03*
Y104395D02*
D03*
Y102427D02*
D03*
Y100458D02*
D03*
Y98490D02*
D03*
Y96521D02*
D03*
Y94553D02*
D03*
Y92584D02*
D03*
Y90616D02*
D03*
Y88647D02*
D03*
Y86679D02*
D03*
Y84710D02*
D03*
Y82742D02*
D03*
Y80773D02*
D03*
Y78805D02*
D03*
Y76836D02*
D03*
Y74868D02*
D03*
Y72899D02*
D03*
Y70931D02*
D03*
Y68962D02*
D03*
Y66994D02*
D03*
Y65025D02*
D03*
Y63057D02*
D03*
Y61088D02*
D03*
Y59120D02*
D03*
Y57151D02*
D03*
X99350Y113164D02*
D03*
Y111195D02*
D03*
Y109227D02*
D03*
Y107258D02*
D03*
Y105290D02*
D03*
Y103321D02*
D03*
Y101353D02*
D03*
Y99384D02*
D03*
Y97416D02*
D03*
Y95447D02*
D03*
Y93479D02*
D03*
Y91510D02*
D03*
Y89542D02*
D03*
Y87573D02*
D03*
Y85605D02*
D03*
Y83636D02*
D03*
X55650D02*
D03*
Y85605D02*
D03*
Y87573D02*
D03*
Y89542D02*
D03*
Y91510D02*
D03*
Y93479D02*
D03*
Y95447D02*
D03*
Y97416D02*
D03*
Y99384D02*
D03*
Y101353D02*
D03*
Y103321D02*
D03*
Y105290D02*
D03*
Y107258D02*
D03*
Y109227D02*
D03*
Y111195D02*
D03*
Y113164D02*
D03*
D13*
X164851Y133135D02*
D03*
X166820D02*
D03*
X168788D02*
D03*
X170757D02*
D03*
X172725D02*
D03*
X174694D02*
D03*
X176662D02*
D03*
X178631D02*
D03*
X180599D02*
D03*
X182568D02*
D03*
X184536D02*
D03*
X186505D02*
D03*
X188473D02*
D03*
X190442D02*
D03*
X192410D02*
D03*
X194379D02*
D03*
X196347D02*
D03*
X198316D02*
D03*
X200284D02*
D03*
X202253D02*
D03*
X204221D02*
D03*
X206190D02*
D03*
X208158D02*
D03*
X210127D02*
D03*
X212095D02*
D03*
X214064D02*
D03*
X216032D02*
D03*
X218001D02*
D03*
X219969D02*
D03*
X221938D02*
D03*
X223906D02*
D03*
X225875D02*
D03*
X227843D02*
D03*
X229812D02*
D03*
X231780D02*
D03*
X233749D02*
D03*
Y50065D02*
D03*
X231780D02*
D03*
X229812D02*
D03*
X227843D02*
D03*
X225875D02*
D03*
X223906D02*
D03*
X221938D02*
D03*
X219969D02*
D03*
X218001D02*
D03*
X216032D02*
D03*
X214064D02*
D03*
X212095D02*
D03*
X210127D02*
D03*
X208158D02*
D03*
X206190D02*
D03*
X204221D02*
D03*
X202253D02*
D03*
X200284D02*
D03*
X198316D02*
D03*
X196347D02*
D03*
X194379D02*
D03*
X192410D02*
D03*
X190442D02*
D03*
X188473D02*
D03*
X186505D02*
D03*
X184536D02*
D03*
X182568D02*
D03*
X180599D02*
D03*
X178631D02*
D03*
X176662D02*
D03*
X174694D02*
D03*
X172725D02*
D03*
X170757D02*
D03*
X168788D02*
D03*
X166820D02*
D03*
X164851D02*
D03*
X62736Y120250D02*
D03*
X64705D02*
D03*
X66673D02*
D03*
X68642D02*
D03*
X70610D02*
D03*
X72579D02*
D03*
X74547D02*
D03*
X76516D02*
D03*
X78484D02*
D03*
X80453D02*
D03*
X82421D02*
D03*
X84390D02*
D03*
X86358D02*
D03*
X88327D02*
D03*
X90295D02*
D03*
X92264D02*
D03*
Y76550D02*
D03*
X90295D02*
D03*
X88327D02*
D03*
X86358D02*
D03*
X84390D02*
D03*
X82421D02*
D03*
X80453D02*
D03*
X78484D02*
D03*
X76516D02*
D03*
X74547D02*
D03*
X72579D02*
D03*
X70610D02*
D03*
X68642D02*
D03*
X66673D02*
D03*
X64705D02*
D03*
X62736D02*
D03*
D14*
X114417Y27761D02*
D03*
Y10439D02*
D03*
X128983D02*
D03*
Y27761D02*
D03*
X279416D02*
D03*
Y10439D02*
D03*
X293984D02*
D03*
Y27761D02*
D03*
X319378D02*
D03*
Y10439D02*
D03*
X333945D02*
D03*
Y27761D02*
D03*
X74417D02*
D03*
Y10439D02*
D03*
X88984D02*
D03*
Y27761D02*
D03*
D15*
X111759Y19100D02*
D03*
X131641D02*
D03*
X276759D02*
D03*
X296641D02*
D03*
X316721D02*
D03*
X336602D02*
D03*
X71759D02*
D03*
X91641D02*
D03*
D16*
X113648Y155500D02*
D03*
Y150500D02*
D03*
Y145500D02*
D03*
Y140500D02*
D03*
X132152Y155500D02*
D03*
Y150500D02*
D03*
Y145500D02*
D03*
Y140500D02*
D03*
D17*
X269516Y61983D02*
D03*
X284084D02*
D03*
Y84817D02*
D03*
X269516D02*
D03*
D18*
X256025Y175400D02*
D03*
X87375Y160000D02*
D03*
D19*
X258978Y171069D02*
D03*
X257010D02*
D03*
X255041D02*
D03*
X253072D02*
D03*
Y179731D02*
D03*
X255041D02*
D03*
X257010D02*
D03*
X258978D02*
D03*
X84422Y155669D02*
D03*
X86391D02*
D03*
X88359D02*
D03*
X90328D02*
D03*
Y164331D02*
D03*
X88359D02*
D03*
X86391D02*
D03*
X84422D02*
D03*
D20*
X31116Y24675D02*
D03*
X7100D02*
D03*
Y65620D02*
D03*
X31116D02*
D03*
D21*
X6968Y84436D02*
D03*
Y113964D02*
D03*
D22*
Y103924D02*
D03*
Y94476D02*
D03*
D23*
X17500Y111798D02*
D03*
Y86602D02*
D03*
D24*
Y104318D02*
D03*
Y101759D02*
D03*
Y99200D02*
D03*
Y96641D02*
D03*
Y94082D02*
D03*
D25*
X49183Y132269D02*
D03*
Y140931D02*
D03*
X34617D02*
D03*
Y132269D02*
D03*
D26*
X259724Y159600D02*
D03*
X250276D02*
D03*
X83650Y175700D02*
D03*
X93099D02*
D03*
D27*
X154800Y147400D02*
D03*
X150469D02*
D03*
Y143500D02*
D03*
X154800D02*
D03*
X48835Y175900D02*
D03*
X53165D02*
D03*
X130435Y122100D02*
D03*
X134765D02*
D03*
X147035Y49300D02*
D03*
X151365D02*
D03*
X49487Y157080D02*
D03*
X45157D02*
D03*
X73965Y133800D02*
D03*
X69635D02*
D03*
X49535Y148000D02*
D03*
X53865D02*
D03*
X40969Y73900D02*
D03*
X45300D02*
D03*
X349500Y94000D02*
D03*
X353831D02*
D03*
X151365Y44300D02*
D03*
X147035D02*
D03*
X254765Y56400D02*
D03*
X250435D02*
D03*
X254765Y61100D02*
D03*
X250435D02*
D03*
X69035Y40400D02*
D03*
X73365D02*
D03*
X147065Y125400D02*
D03*
X142735D02*
D03*
D28*
X122065Y40400D02*
D03*
X117735D02*
D03*
X61835Y175900D02*
D03*
X66165D02*
D03*
X82865Y40400D02*
D03*
X78535D02*
D03*
D29*
X265000Y119965D02*
D03*
Y115635D02*
D03*
D30*
X243500Y177340D02*
D03*
Y169860D02*
D03*
X72475Y158460D02*
D03*
Y165940D02*
D03*
X99275Y158000D02*
D03*
Y165480D02*
D03*
X271000Y176940D02*
D03*
Y169460D02*
D03*
D31*
X264700Y175037D02*
D03*
Y171100D02*
D03*
X267077Y18557D02*
D03*
Y22494D02*
D03*
X307000Y23763D02*
D03*
Y27700D02*
D03*
X140700Y151532D02*
D03*
Y155468D02*
D03*
X48200Y104131D02*
D03*
Y108069D02*
D03*
X44100Y104131D02*
D03*
Y108069D02*
D03*
Y93231D02*
D03*
Y97168D02*
D03*
X48300Y93231D02*
D03*
Y97168D02*
D03*
X106200Y87532D02*
D03*
Y91469D02*
D03*
X44300Y85232D02*
D03*
Y89169D02*
D03*
X107200Y108369D02*
D03*
Y104431D02*
D03*
X6900Y157768D02*
D03*
Y153832D02*
D03*
X26200Y138537D02*
D03*
Y134600D02*
D03*
X57600Y135563D02*
D03*
Y139500D02*
D03*
X349507Y102075D02*
D03*
Y106012D02*
D03*
X348000Y119532D02*
D03*
Y123468D02*
D03*
X353731Y102075D02*
D03*
Y106012D02*
D03*
X288440Y123571D02*
D03*
Y119634D02*
D03*
X288454Y128591D02*
D03*
Y132528D02*
D03*
X281976Y105971D02*
D03*
Y102034D02*
D03*
X286789Y105971D02*
D03*
Y102034D02*
D03*
X370800Y112163D02*
D03*
Y116100D02*
D03*
X360800Y112163D02*
D03*
Y116100D02*
D03*
X349800Y27963D02*
D03*
Y31900D02*
D03*
X195800Y36432D02*
D03*
Y40369D02*
D03*
X223906Y36531D02*
D03*
Y40468D02*
D03*
X253000Y115168D02*
D03*
Y111232D02*
D03*
X248700Y115168D02*
D03*
Y111232D02*
D03*
X174694Y146869D02*
D03*
Y142931D02*
D03*
X204300Y146869D02*
D03*
Y142931D02*
D03*
X200300Y36432D02*
D03*
Y40369D02*
D03*
X208158Y146869D02*
D03*
Y142931D02*
D03*
X204800Y36432D02*
D03*
Y40369D02*
D03*
X251500Y93337D02*
D03*
Y89400D02*
D03*
X233749Y36531D02*
D03*
Y40468D02*
D03*
X255100Y93237D02*
D03*
Y89300D02*
D03*
X144500Y83732D02*
D03*
Y87669D02*
D03*
X147900Y83732D02*
D03*
Y87669D02*
D03*
X60700Y14337D02*
D03*
Y10400D02*
D03*
X102035Y23863D02*
D03*
Y27800D02*
D03*
X79175Y160231D02*
D03*
Y164169D02*
D03*
D32*
X118800Y173069D02*
D03*
Y177400D02*
D03*
X262142Y18223D02*
D03*
Y22554D02*
D03*
X55200Y66131D02*
D03*
Y61800D02*
D03*
X61300Y150035D02*
D03*
Y154365D02*
D03*
X41300Y115635D02*
D03*
Y119965D02*
D03*
X259300Y119769D02*
D03*
Y124100D02*
D03*
X65300Y14731D02*
D03*
Y10400D02*
D03*
X97300Y23535D02*
D03*
Y27865D02*
D03*
X127800Y57231D02*
D03*
Y52900D02*
D03*
X94100Y147635D02*
D03*
Y151965D02*
D03*
X86435Y149331D02*
D03*
Y145000D02*
D03*
X249300Y187765D02*
D03*
Y183435D02*
D03*
X257000Y186035D02*
D03*
Y190365D02*
D03*
D33*
X101868Y121300D02*
D03*
X97931D02*
D03*
X55632Y122700D02*
D03*
X59569D02*
D03*
X95768Y132400D02*
D03*
X91831D02*
D03*
X95768Y128000D02*
D03*
X91831D02*
D03*
X85268Y128100D02*
D03*
X81331D02*
D03*
X94269Y68800D02*
D03*
X90332D02*
D03*
X75568Y68700D02*
D03*
X71631D02*
D03*
X305471Y53473D02*
D03*
X301534D02*
D03*
X308789Y148461D02*
D03*
X304852D02*
D03*
X361300Y23400D02*
D03*
X365237D02*
D03*
X101800Y191900D02*
D03*
X97863D02*
D03*
X167832Y40300D02*
D03*
X171768D02*
D03*
X273502Y53466D02*
D03*
X269565D02*
D03*
X254569Y66994D02*
D03*
X250631D02*
D03*
X224832Y141900D02*
D03*
X228768D02*
D03*
X255542Y84332D02*
D03*
X251606D02*
D03*
X144332Y91100D02*
D03*
X148268D02*
D03*
X196335Y146304D02*
D03*
X200272D02*
D03*
X196335Y142804D02*
D03*
X200272D02*
D03*
X143363Y74868D02*
D03*
X147300D02*
D03*
X144332Y94600D02*
D03*
X148268D02*
D03*
X143141Y101091D02*
D03*
X147078D02*
D03*
D34*
X91000Y102000D02*
X92321Y103321D01*
X88400Y108500D02*
X95000Y115100D01*
X88400Y100600D02*
Y108500D01*
Y100600D02*
X89616Y99384D01*
X99350D01*
X134900Y96900D02*
X152900D01*
X125000Y87000D02*
X134900Y96900D01*
X125000Y83100D02*
Y87000D01*
X100400Y58500D02*
X125000Y83100D01*
X121200Y62000D02*
X128162Y68962D01*
X123700Y107258D02*
X126258D01*
X132809Y98309D02*
X157584D01*
X123000Y88500D02*
X132809Y98309D01*
X123000Y84600D02*
Y88500D01*
X114950Y76550D02*
X123000Y84600D01*
X135500Y103900D02*
X152400D01*
X120900Y89300D02*
X135500Y103900D01*
X120900Y85900D02*
Y89300D01*
X113900Y78900D02*
X120900Y85900D01*
X141200Y112300D02*
X149900D01*
X118550Y89650D02*
X141200Y112300D01*
X110100Y78500D02*
X118550Y86950D01*
Y89650D01*
X116000Y89800D02*
X140438Y114238D01*
X116000Y87300D02*
Y89800D01*
X109400Y80700D02*
X116000Y87300D01*
X140438Y114238D02*
X157765D01*
X113500Y90400D02*
X139306Y116206D01*
X113500Y87500D02*
Y90400D01*
X109636Y83636D02*
X113500Y87500D01*
X139306Y116206D02*
X157765D01*
X139143Y120143D02*
X157765D01*
X126258Y107258D02*
X139143Y120143D01*
X134765Y118965D02*
Y122100D01*
X128800Y113000D02*
X134765Y118965D01*
X122300Y113000D02*
X128800D01*
X229000Y41500D02*
Y43500D01*
X227843Y44657D02*
X229000Y43500D01*
X227843Y44657D02*
Y50065D01*
X218500Y42500D02*
X219969Y43969D01*
X246500Y34000D02*
X255400D01*
X236400Y44100D02*
X246500Y34000D01*
X236400Y44100D02*
Y53600D01*
X255400Y34000D02*
X258600Y37200D01*
X253800Y35900D02*
X264200Y46300D01*
X248100Y35900D02*
X253800D01*
X238400Y45600D02*
X248100Y35900D01*
X238400Y45600D02*
Y53600D01*
X264200Y46300D02*
Y64900D01*
X258600Y37200D02*
X268400D01*
X260200Y35400D02*
X271000D01*
X256000Y31200D02*
X260200Y35400D01*
X210300Y31200D02*
X256000D01*
X261300Y33500D02*
X291900D01*
X257200Y29400D02*
X261300Y33500D01*
X193800Y29400D02*
X257200D01*
X260800Y30500D02*
X265500D01*
X257900Y27600D02*
X260800Y30500D01*
X183500Y27600D02*
X257900D01*
X261100Y27500D02*
X269500D01*
X259100Y25500D02*
X261100Y27500D01*
X182000Y25500D02*
X259100D01*
X216032Y40968D02*
X218500Y38500D01*
X207500Y34000D02*
X210300Y31200D01*
X207500Y34000D02*
Y44200D01*
X206190Y45510D02*
X207500Y44200D01*
X231900Y66500D02*
X233375Y65025D01*
X232000Y71000D02*
X234169Y68831D01*
X168500Y97900D02*
Y101400D01*
X163184Y92584D02*
X168500Y97900D01*
X164116Y90616D02*
X173000Y99500D01*
X157765Y90616D02*
X164116D01*
X228500Y118500D02*
X231400D01*
X226294Y116206D02*
X240835D01*
X225300Y117200D02*
X226294Y116206D01*
X225300Y117200D02*
Y119900D01*
X232000Y126600D01*
X224694Y114106D02*
X240704D01*
X223300Y115500D02*
X224694Y114106D01*
X223300Y115500D02*
Y120200D01*
X231100Y128000D01*
X221431Y112269D02*
X240835D01*
X217500Y116200D02*
X221431Y112269D01*
X217500Y110301D02*
X240835D01*
X235600Y78000D02*
X236405Y78805D01*
X229500Y78000D02*
X235600D01*
X225800Y74900D02*
Y78900D01*
X224900Y150400D02*
X233900D01*
X219969Y145469D02*
X224900Y150400D01*
X219969Y133135D02*
Y145469D01*
X224500Y153000D02*
X236000D01*
X218001Y146501D02*
X224500Y153000D01*
X218001Y133135D02*
Y146501D01*
X222600Y158100D02*
X229000D01*
X214064Y149564D02*
X222600Y158100D01*
X214064Y133135D02*
Y149564D01*
X223400Y155500D02*
X233500D01*
X236000Y153000D02*
X238400Y155400D01*
X147065Y125400D02*
X151600D01*
X20906Y101353D02*
X55650D01*
X20500Y101759D02*
X20906Y101353D01*
X17500Y101759D02*
X20500D01*
X20684Y99384D02*
X55650D01*
X20500Y99200D02*
X20684Y99384D01*
X17500Y99200D02*
X20500D01*
X113300Y40400D02*
X117735D01*
X82865D02*
X87300D01*
X73365D02*
X78535D01*
X235500Y83700D02*
X236327Y82873D01*
X230600Y83700D02*
X235500D01*
X225800Y78900D02*
X230600Y83700D01*
X236327Y82873D02*
X240704D01*
X168300Y27900D02*
X174694Y34294D01*
Y50065D01*
X55200Y57400D02*
Y61700D01*
X49300Y75000D02*
Y79000D01*
X48200Y73900D02*
X49300Y75000D01*
X45300Y73900D02*
X48200D01*
X50800Y200400D02*
X55900Y205500D01*
X55650Y78550D02*
X60500Y73700D01*
Y62799D02*
Y73700D01*
Y62799D02*
X76599Y46700D01*
X55650Y78550D02*
Y83636D01*
X197100Y156700D02*
Y166700D01*
X206300Y160000D02*
Y165900D01*
X240800Y200400D01*
X95000Y115100D02*
X103200D01*
X107800Y119700D01*
X84300Y92000D02*
X86758Y89542D01*
X64179Y154520D02*
X66673Y152027D01*
X37322Y154520D02*
X64179D01*
X66673Y120250D02*
Y152027D01*
X64705Y120250D02*
Y128895D01*
X60800Y132800D02*
X64705Y128895D01*
X60800Y132800D02*
Y141100D01*
X53922Y147978D02*
X60800Y141100D01*
X338400Y154200D02*
X346600Y146000D01*
X301700Y154200D02*
X338400D01*
X288100Y140600D02*
X301700Y154200D01*
X134765Y122100D02*
X157765D01*
X118800Y107258D02*
Y118500D01*
X122400Y122100D01*
X130435D01*
X55200Y66131D02*
Y69900D01*
X36131Y132269D02*
X46700Y121700D01*
Y114100D02*
Y121700D01*
Y114100D02*
X51573Y109227D01*
X42500Y129700D02*
Y135900D01*
Y129700D02*
X48700Y123500D01*
Y114600D02*
Y123500D01*
Y114600D02*
X52100Y111200D01*
X42500Y135900D02*
X47531Y140931D01*
X231400Y118500D02*
X233043Y120143D01*
X240835D01*
X60716Y14344D02*
Y19376D01*
X228180Y59120D02*
X240835D01*
X226400Y60900D02*
X228180Y59120D01*
X224200Y60900D02*
X226400D01*
X209300Y75800D02*
X224200Y60900D01*
X187300Y62300D02*
X190900D01*
X187300Y67000D02*
X191900D01*
X170600Y59900D02*
X182800D01*
X163506Y66994D02*
X170600Y59900D01*
X157765Y66994D02*
X163506D01*
X279200Y67000D02*
X291026Y78826D01*
X266300Y67000D02*
X279200D01*
X291026Y78826D02*
X295957D01*
X249820Y96500D02*
X273900D01*
X247732Y94412D02*
X249820Y96500D01*
X240976Y94412D02*
X247732D01*
X236405Y78805D02*
X240835D01*
X273900Y96500D02*
X276800Y99400D01*
X249300Y98700D02*
X269800D01*
X247121Y96521D02*
X249300Y98700D01*
X240835Y96521D02*
X247121D01*
X248800Y101100D02*
X268200D01*
X246190Y98490D02*
X248800Y101100D01*
X241600Y98490D02*
X246190D01*
X248300Y102900D02*
X266500D01*
X245858Y100458D02*
X248300Y102900D01*
X240835Y100458D02*
X245858D01*
X268200Y101100D02*
X274900Y107800D01*
X266500Y102900D02*
X272800Y109200D01*
X240704Y82873D02*
X240835Y82742D01*
X206190Y45510D02*
Y50065D01*
X185300Y29900D02*
Y31900D01*
X184536Y32664D02*
X185300Y31900D01*
X188800Y34400D02*
Y43300D01*
X186505Y32695D02*
X189300Y29900D01*
X184536Y32664D02*
Y50065D01*
X182568Y28532D02*
X183500Y27600D01*
X182568Y28532D02*
Y50065D01*
X180599Y26901D02*
X182000Y25500D01*
X180599Y26901D02*
Y50065D01*
X225400Y102427D02*
X240835D01*
X71759Y19100D02*
X74900D01*
X85843Y27761D02*
X88984D01*
X88500Y19100D02*
X91641D01*
X125300Y27761D02*
X128983D01*
X127800Y57231D02*
Y61665D01*
X64600Y40400D02*
X69035D01*
X49300Y87573D02*
X55650D01*
X51573Y109227D02*
X55650D01*
X62736Y63764D02*
Y76550D01*
X64705Y65295D02*
Y76550D01*
X49183Y140931D02*
X56169D01*
X57600Y139500D01*
X26250Y134650D02*
X28631Y132269D01*
X34617D01*
X37322Y157059D02*
X45322D01*
X37322Y159618D02*
X48983D01*
X49487Y159114D01*
Y157080D02*
Y159114D01*
X68642Y120250D02*
Y125642D01*
X70610Y76550D02*
Y83590D01*
X74547Y76550D02*
Y89400D01*
X80453Y76550D02*
Y81353D01*
X52039Y151961D02*
X53922Y150078D01*
X37322Y151961D02*
X52039D01*
X53922Y147978D02*
Y150078D01*
X49487Y157080D02*
X65455D01*
X307000Y27700D02*
X319378D01*
X333461Y19039D02*
X336602D01*
X330804Y27700D02*
X333945D01*
X316721Y19039D02*
X319861D01*
X267077Y14626D02*
Y18557D01*
X240835Y124100D02*
X263600D01*
X265000Y122700D01*
Y119965D02*
Y122700D01*
X91842Y107258D02*
X99350D01*
X92321Y103321D02*
X99350D01*
X107800Y119700D02*
Y126100D01*
X66673Y66727D02*
Y76550D01*
X68800Y85400D02*
X70610Y83590D01*
X72579Y76550D02*
Y87079D01*
X70279Y89379D02*
X72579Y87079D01*
X88195Y76418D02*
X88327Y76550D01*
X99350Y97416D02*
X106616D01*
X110600Y101400D01*
X99350Y95447D02*
X107347D01*
X125600Y140500D02*
X132152D01*
X99350Y93479D02*
X99482Y93610D01*
X138200Y145500D02*
X139900Y143800D01*
X132152Y145500D02*
X138200D01*
X104700Y129200D02*
X107800Y126100D01*
X106900Y130300D02*
X110600Y126600D01*
Y101400D02*
Y126600D01*
X107347Y95447D02*
X113000Y101100D01*
Y127900D01*
X115700Y126200D02*
X125000Y135500D01*
X134800Y200400D02*
X172294Y162906D01*
X124800Y200400D02*
X170300Y154900D01*
X172725Y125925D02*
Y133135D01*
X176662Y125962D02*
Y133135D01*
X154800Y200400D02*
X180599Y174601D01*
X164800Y200400D02*
X182568Y182632D01*
X190400Y180000D02*
X210800Y200400D01*
X196225Y133013D02*
X196347Y133135D01*
X192400Y172000D02*
X220800Y200400D01*
X197100Y166700D02*
X230800Y200400D01*
X210127Y128073D02*
Y133135D01*
X213800Y163400D02*
X250800Y200400D01*
X157584Y98309D02*
X157765Y98490D01*
X80453Y81353D02*
X82000Y82900D01*
X92100D01*
X96500Y78500D01*
X76516Y76550D02*
Y82916D01*
X78600Y85000D01*
X92600D01*
X96900Y80700D01*
X88195Y63405D02*
Y76418D01*
X86358Y62142D02*
Y76550D01*
X153551Y57151D02*
X157765D01*
X151365Y54965D02*
X153551Y57151D01*
X168788Y133135D02*
X168800Y133147D01*
X151600Y125400D02*
X152920Y124080D01*
X157765D01*
X104700Y129200D02*
Y155500D01*
X113648D01*
X106900Y130300D02*
Y150500D01*
X113648D01*
X125000Y135500D02*
X139900D01*
Y143800D01*
X113000Y127900D02*
X118700Y133600D01*
X125600Y140500D01*
X240835Y57151D02*
X246449D01*
X247200Y56400D01*
X250435D01*
X240847Y61100D02*
X250435D01*
X178631Y30231D02*
Y50065D01*
X212500Y18700D02*
X220800Y10400D01*
X220900Y20300D02*
X230800Y10400D01*
X165800Y21900D02*
X229300D01*
X240800Y10400D01*
X256400Y9600D02*
X258450Y7550D01*
X96900Y80700D02*
X109400D01*
X96500Y78500D02*
X110100D01*
X86758Y89542D02*
X99350D01*
X157765Y108332D02*
X164700D01*
X157765Y112269D02*
X164700D01*
X157765Y104395D02*
X164700D01*
X92264Y76550D02*
X114950D01*
X153279Y96521D02*
X157765D01*
X152900Y96900D02*
X153279Y96521D01*
X88195Y63405D02*
X89100Y62500D01*
X86358Y62142D02*
X88100Y60400D01*
X66673Y66727D02*
X78800Y54600D01*
X105000D01*
X84390Y61110D02*
Y76550D01*
Y61110D02*
X87000Y58500D01*
X100400D01*
X82421Y59779D02*
Y76550D01*
Y59779D02*
X85600Y56600D01*
X101900D01*
X64705Y65295D02*
X77500Y52500D01*
X157765Y76836D02*
X164780D01*
X128873Y80773D02*
X157765D01*
Y70931D02*
X162869D01*
X97300Y27800D02*
X102035D01*
X151365Y44300D02*
Y49300D01*
Y54965D01*
X143425Y65025D02*
X157765D01*
X134400Y56000D02*
X143425Y65025D01*
X144757Y63057D02*
X157765D01*
X145788Y61088D02*
X157765D01*
X147120Y59120D02*
X157765D01*
X136500Y54800D02*
X144757Y63057D01*
X138600Y53900D02*
X145788Y61088D01*
X140600Y52600D02*
X147120Y59120D01*
X155300Y32400D02*
X165800Y21900D01*
X155300Y32400D02*
Y48900D01*
X156900Y33700D02*
Y48500D01*
X164400Y56000D01*
X166000D01*
X166800Y55200D01*
X164851Y44751D02*
Y50065D01*
X159800Y39700D02*
X164851Y44751D01*
X166820Y50065D02*
Y55180D01*
X155300Y48900D02*
X164400Y58000D01*
X170000D01*
X172725Y55275D01*
Y50065D02*
Y55275D01*
X176662Y32162D02*
Y50065D01*
X186505Y32695D02*
Y50065D01*
X178631Y133135D02*
Y166569D01*
X144800Y200400D02*
X178631Y166569D01*
X180599Y133135D02*
Y174601D01*
X182568Y133135D02*
Y182632D01*
X184536Y133135D02*
Y196664D01*
X180800Y200400D02*
X184536Y196664D01*
X186505Y133135D02*
Y196105D01*
X190800Y200400D01*
X212095Y133135D02*
Y152795D01*
X219200Y159900D01*
X221938Y127338D02*
Y133135D01*
X219090Y124490D02*
X221938Y127338D01*
X215600Y124490D02*
X219090D01*
X223906D02*
Y133135D01*
X229812D02*
Y138112D01*
X231780Y133135D02*
Y137680D01*
X238500Y144400D01*
X285500D01*
X229812Y138112D02*
X238200Y146500D01*
X284800D01*
X240704Y114106D02*
X240835Y114238D01*
X273768Y138669D02*
X295957D01*
X333218Y122921D02*
X340052D01*
X353831Y94000D02*
X358493D01*
X340052Y91424D02*
X346924D01*
X233900Y150400D02*
X236000Y148300D01*
X283200D01*
X300600Y165700D01*
X307000Y27700D02*
Y38400D01*
X231780Y50065D02*
Y54380D01*
X232700Y55300D01*
X234700D01*
X236400Y53600D01*
X229812Y50065D02*
Y55112D01*
X231800Y57100D01*
X234900D01*
X238400Y53600D01*
X237400Y23800D02*
X250800Y10400D01*
X156900Y33700D02*
X166800Y23800D01*
X237400D01*
X250435Y38400D02*
Y56400D01*
X251000Y64200D02*
X260300D01*
X250435Y63635D02*
X251000Y64200D01*
X250435Y61100D02*
Y63635D01*
X289825Y85125D02*
X295957D01*
X233375Y65025D02*
X240835D01*
X235957Y63057D02*
X240835D01*
X234757Y61857D02*
X235957Y63057D01*
X230800Y61857D02*
X234757D01*
X216032Y40968D02*
Y50065D01*
X214064Y38500D02*
Y50065D01*
X219969Y43969D02*
Y50065D01*
X204221D02*
Y57238D01*
X208158Y50065D02*
Y61400D01*
X240704Y68831D02*
X240835Y68962D01*
X234169Y68831D02*
X240704D01*
X340052Y138669D02*
X345468D01*
X346600Y139800D01*
Y146000D01*
X286300Y142300D02*
X300900Y156900D01*
X339300D01*
X349200Y147000D01*
X285500Y144400D02*
X300100Y159000D01*
X341000D01*
X284800Y146500D02*
X299700Y161400D01*
X342200D01*
X340052Y129220D02*
X346920D01*
X351800Y134100D01*
Y148200D01*
X341000Y159000D02*
X351800Y148200D01*
X340052Y132369D02*
X345569D01*
X349200Y136000D01*
Y147000D01*
X342200Y161400D02*
X354700Y148900D01*
X340052Y113472D02*
X346572D01*
X354700Y121600D01*
Y148900D01*
X333170Y119791D02*
X340004D01*
X295957Y132369D02*
X302791D01*
X295957Y129220D02*
X302791D01*
X268300Y133200D02*
X273768Y138669D01*
X270500Y124319D02*
X278550Y132369D01*
X295957Y119771D02*
X302791D01*
X295957Y122921D02*
X302791D01*
X295957Y110322D02*
X302791D01*
X295957Y104023D02*
X302791D01*
X280274Y94574D02*
X295957D01*
X291225Y88275D02*
X295957D01*
X295933Y91400D02*
X295957Y91424D01*
X280900Y89900D02*
X289600D01*
X291225Y88275D01*
X280100Y92000D02*
X290700D01*
X291300Y91400D01*
X295933D01*
X264200Y64900D02*
X266300Y67000D01*
X260300Y64200D02*
X265300Y69200D01*
X288100Y83400D02*
X289825Y85125D01*
X287800Y56600D02*
Y70900D01*
X268400Y37200D02*
X287800Y56600D01*
X271000Y35400D02*
X290000Y54400D01*
X291028Y66228D02*
X295957D01*
X290000Y65200D02*
X291028Y66228D01*
X290000Y54400D02*
Y65200D01*
X289427Y72527D02*
X295957D01*
X287800Y70900D02*
X289427Y72527D01*
X265300Y69200D02*
X278300D01*
X288100Y79000D01*
Y83400D01*
X295957Y81976D02*
X302791D01*
X295957Y75676D02*
X302791D01*
X295957Y69377D02*
X302791D01*
X295957Y63078D02*
X302791D01*
X333218Y110322D02*
X340052D01*
X335474Y94574D02*
X340052D01*
X333218Y88275D02*
X340052D01*
X333218Y81976D02*
X340052D01*
X333218Y78826D02*
X340052D01*
X333218Y75676D02*
X340052D01*
X333218Y72527D02*
X340052D01*
X333218Y69377D02*
X340052D01*
X333218Y66228D02*
X340052D01*
X225875Y50065D02*
Y57400D01*
X272800Y123470D02*
X278550Y129220D01*
X274900Y122000D02*
X275820Y122921D01*
X278200D01*
X276800Y99400D02*
Y118371D01*
X278200Y119771D01*
X278800Y97200D02*
Y111000D01*
X280000Y89000D02*
X280900Y89900D01*
X278000D02*
X280100Y92000D01*
X276100Y90400D02*
X280274Y94574D01*
X274400Y92800D02*
X278800Y97200D01*
X240835Y70931D02*
X274131D01*
X280000Y76800D01*
Y89000D01*
X240835Y72899D02*
X272599D01*
X278000Y78300D01*
Y89900D01*
X240835Y74868D02*
X271368D01*
X276100Y79600D01*
Y90400D01*
X240835Y76836D02*
X270136D01*
X274400Y81100D01*
Y92800D01*
X236616Y92584D02*
X240835D01*
X233800Y95400D02*
X236616Y92584D01*
X295957Y97724D02*
X302500D01*
X304800Y90900D02*
Y95424D01*
X302500Y97724D02*
X304800Y95424D01*
X322800Y93900D02*
X332923Y104023D01*
X340052D01*
X334800Y93900D02*
X335474Y94574D01*
X330200Y93900D02*
X334800D01*
X216032Y148132D02*
X223400Y155500D01*
X216032Y133135D02*
Y148132D01*
X330178Y63078D02*
X340052D01*
X316900Y49800D02*
X330178Y63078D01*
X291900Y33500D02*
X308200Y49800D01*
X316900D01*
X140600Y41500D02*
Y52600D01*
Y41500D02*
X161800Y20300D01*
X220900D01*
X138600Y40700D02*
Y53900D01*
Y40700D02*
X160600Y18700D01*
X212500D01*
X136500Y39800D02*
Y54800D01*
Y39800D02*
X159400Y16900D01*
X134400Y38700D02*
Y56000D01*
Y38700D02*
X158100Y15000D01*
X274900Y107800D02*
Y122000D01*
X240835Y104395D02*
X264795D01*
X270500Y110100D01*
Y124319D01*
X240835Y106364D02*
X263864D01*
X268300Y110800D01*
Y133200D01*
X127957Y19100D02*
X131641D01*
X111759D02*
X115443D01*
X99350Y83636D02*
X109636D01*
X99482Y93610D02*
X108410D01*
X115700Y100900D01*
Y126200D01*
X276759Y19100D02*
X279900D01*
X290843Y27761D02*
X293984D01*
X293500Y19100D02*
X296641D01*
X272800Y109200D02*
Y123470D01*
X278800Y111000D02*
X281272Y113472D01*
X295957D01*
X157765Y82742D02*
X162458D01*
X164800Y80400D01*
X167300D01*
X191900Y67000D02*
X196347Y62553D01*
Y50065D02*
Y62553D01*
X190900Y62300D02*
X194379Y58821D01*
Y50065D02*
Y58821D01*
X210127Y128073D02*
X211100Y127100D01*
Y123400D02*
Y127100D01*
X206190Y127510D02*
Y133135D01*
Y127510D02*
X206700Y127000D01*
X193800Y124400D02*
Y126500D01*
X196225Y128925D01*
Y133013D01*
X206700Y123400D02*
Y127000D01*
X68642Y125642D02*
X69800Y126800D01*
Y152735D01*
X65455Y157080D02*
X69800Y152735D01*
X157765Y126049D02*
Y139400D01*
X151600Y125400D02*
Y139400D01*
X234100Y128000D02*
X248400Y142300D01*
X286300D01*
X235600Y126600D02*
X249600Y140600D01*
X288100D01*
X88100Y60400D02*
X98300D01*
X103300Y65400D01*
Y73900D01*
X89100Y62500D02*
X97100D01*
X101300Y66700D01*
Y72000D01*
X99300Y74000D02*
X101300Y72000D01*
X101900Y56600D02*
X107250Y61950D01*
X157549Y90400D02*
X157765Y90616D01*
X297400Y4900D02*
X300000Y7500D01*
X240835Y94553D02*
X240976Y94412D01*
X152400Y103900D02*
X153873Y102427D01*
X157765D01*
X231112Y122112D02*
X240835D01*
X232000Y126600D02*
X235600D01*
X231100Y128000D02*
X234100D01*
X97300Y19400D02*
Y23535D01*
X256400Y9600D02*
Y19600D01*
X259295Y22494D02*
X267077D01*
X256400Y19600D02*
X259295Y22494D01*
X262142Y14700D02*
Y18223D01*
X300000Y7500D02*
Y22900D01*
X304800Y27700D01*
X307000D01*
Y19200D02*
Y23763D01*
X267077Y22526D02*
X270726D01*
X275961Y27761D01*
X279416D01*
X52100Y111200D02*
X54200D01*
X54205Y111195D01*
X55650D01*
X204221Y124821D02*
Y133135D01*
X213800Y159900D02*
Y163400D01*
X202800Y123400D02*
X204221Y124821D01*
X190400Y138400D02*
Y180000D01*
Y138400D02*
X192410Y136390D01*
Y133135D02*
Y136390D01*
X190442Y133135D02*
Y136458D01*
X192400Y138500D02*
Y172000D01*
Y138500D02*
X194379Y136521D01*
Y133135D02*
Y136521D01*
X188400Y188000D02*
X200800Y200400D01*
X188400Y138500D02*
X190442Y136458D01*
X188400Y138500D02*
Y188000D01*
X128162Y68962D02*
X157765D01*
X162869Y70931D02*
X164800Y69000D01*
X77500Y52500D02*
X107300D01*
X157765Y92584D02*
X163184D01*
X76599Y46700D02*
X108900D01*
X62736Y63764D02*
X78000Y48500D01*
X107900D01*
X105000Y54600D02*
X107300Y56900D01*
X149900Y112300D02*
X151899Y110301D01*
X157765D01*
X149400Y106364D02*
X157765D01*
X146332Y109432D02*
X149400Y106364D01*
X190442Y44942D02*
Y50065D01*
X191400Y41300D02*
Y43600D01*
X192410Y44610D01*
Y50065D01*
X188800Y43300D02*
X190442Y44942D01*
X158100Y15000D02*
X189100D01*
X193700Y10400D01*
X200800D01*
X159400Y16900D02*
X191800D01*
X193000Y15700D01*
X205500D01*
X210800Y10400D01*
X188800Y34400D02*
X193800Y29400D01*
X172400Y27900D02*
X176662Y32162D01*
X176300Y27900D02*
X178631Y30231D01*
X115968Y56568D02*
Y67868D01*
X107900Y48500D02*
X115968Y56568D01*
Y67868D02*
X128873Y80773D01*
X108900Y46700D02*
X118700Y56500D01*
Y66700D01*
X130805Y78805D01*
X157765D01*
X221938Y50065D02*
Y57343D01*
X221900Y57381D02*
X221938Y57343D01*
X221900Y57381D02*
Y57400D01*
X209995Y58995D02*
X212300Y61300D01*
X209995Y50196D02*
X210127Y50065D01*
X209995Y50196D02*
Y58995D01*
X365300Y150900D02*
X370800Y145400D01*
X300600Y165700D02*
X342600D01*
X357400Y150900D01*
X365300D01*
X346924Y91424D02*
X349500Y94000D01*
X102035Y18866D02*
Y23863D01*
X102000Y18866D02*
X102035D01*
X60700Y10439D02*
X74417D01*
X51800Y4900D02*
X297400D01*
X46900Y9800D02*
X51800Y4900D01*
X46900Y9800D02*
Y49100D01*
X55200Y57400D01*
X114417Y27761D02*
X118439D01*
X122800Y23400D01*
X134300D01*
X102035Y27761D02*
X114417D01*
X122065Y40400D02*
X125900D01*
X127800Y42300D01*
Y52900D01*
X74417Y27761D02*
X80361D01*
X85700Y33100D01*
X98800D01*
X121200Y55500D01*
Y62000D01*
X162800Y139400D02*
X165400D01*
X166820Y133135D02*
Y137980D01*
X154800Y147400D02*
X159500D01*
X162800Y144100D01*
Y140400D02*
Y144100D01*
X87400Y191900D02*
X91500Y187800D01*
X55900Y205500D02*
X84700D01*
X87400Y202800D01*
Y191900D02*
Y202800D01*
X170757Y133135D02*
Y149543D01*
X154800Y143500D02*
X157200D01*
X157765Y142935D01*
Y139400D02*
Y142935D01*
X165400Y139400D02*
X166820Y137980D01*
X168800Y133147D02*
Y146400D01*
X114800Y200400D02*
X122800Y192400D01*
X127900D01*
X170757Y149543D01*
X134300Y180900D02*
X168800Y146400D01*
X130800Y180900D02*
X134300D01*
X91500Y187800D02*
X127600D01*
X130800Y184600D01*
Y180900D02*
Y184600D01*
X119300Y180900D02*
X130800D01*
X118800Y180400D02*
X119300Y180900D01*
X118800Y177400D02*
Y180400D01*
X610000Y-160000D02*
G03*
X610000Y-160000I-10000J0D01*
G01*
X620000D02*
G03*
X620000Y-160000I-20000J0D01*
G01*
X630000D02*
G03*
X630000Y-160000I-30000J0D01*
G01*
X610000Y320000D02*
G03*
X610000Y320000I-10000J0D01*
G01*
X620000D02*
G03*
X620000Y320000I-20000J0D01*
G01*
X630000D02*
G03*
X630000Y320000I-30000J0D01*
G01*
X-290000D02*
G03*
X-290000Y320000I-10000J0D01*
G01*
X-280000D02*
G03*
X-280000Y320000I-20000J0D01*
G01*
X-270000D02*
G03*
X-270000Y320000I-30000J0D01*
G01*
X800Y10400D02*
G03*
X10800Y400I10000J0D01*
G01*
Y210400D02*
G03*
X800Y200400I0J-10000D01*
G01*
X410800D02*
G03*
X400800Y210400I-10000J0D01*
G01*
Y400D02*
G03*
X410800Y10400I0J10000D01*
G01*
X800D02*
Y200400D01*
X10800Y400D02*
X400800D01*
X410800Y10400D02*
Y200400D01*
X10800Y210400D02*
X400800D01*
D35*
X40868Y97168D02*
X44100D01*
X40400Y96700D02*
X40868Y97168D01*
X38500Y96700D02*
X40400D01*
X20098Y89200D02*
X22800D01*
X17500Y86602D02*
X20098Y89200D01*
X146735Y147400D02*
X150469D01*
X138800Y125400D02*
X142735D01*
X6968Y103924D02*
Y111798D01*
X7670D02*
X17500D01*
X6968Y84436D02*
Y94476D01*
X7170Y86602D02*
X17500D01*
X6968Y94476D02*
Y103924D01*
X349800Y31900D02*
Y34400D01*
X350800Y35400D01*
X365237Y23400D02*
X368000D01*
X370800Y26200D01*
X37135Y73900D02*
X40969D01*
X350800Y35400D02*
X360800D01*
X86391Y149375D02*
Y155669D01*
X84422Y153422D02*
Y155669D01*
X83200Y152200D02*
X84422Y153422D01*
X90328Y145000D02*
Y155669D01*
X86435Y145000D02*
X90328D01*
X94100Y151965D02*
Y155000D01*
X249300Y180400D02*
Y183435D01*
X253072Y190400D02*
X256965D01*
X253072Y179731D02*
Y190400D01*
X258978Y181978D02*
X260200Y183200D01*
X258978Y179731D02*
Y181978D01*
X257010Y179731D02*
Y186025D01*
X99350Y91510D02*
X106200D01*
X55650D02*
X61310D01*
X96000Y191900D02*
X97863D01*
X94800Y193100D02*
X96000Y191900D01*
X94800Y193100D02*
Y200400D01*
X308789Y148461D02*
X312069D01*
X65300Y14731D02*
Y19400D01*
X248647Y88647D02*
X249269Y89268D01*
X255542Y84332D02*
X258674D01*
X249269Y89268D02*
X258800D01*
X265400Y79500D02*
X269409Y83509D01*
X250800Y79500D02*
X265400D01*
X245590Y84710D02*
X250800Y79500D01*
X248500Y93200D02*
X258800D01*
X245916Y90616D02*
X248500Y93200D01*
X240835Y90616D02*
X245916D01*
X240835Y84710D02*
X245590D01*
X269409Y83509D02*
Y84710D01*
X240835Y88647D02*
X248647D01*
X195800Y40369D02*
Y43400D01*
X204800Y40369D02*
Y43400D01*
X200300Y40369D02*
Y43384D01*
X55650Y89542D02*
X62758D01*
X51390Y105290D02*
X55650D01*
X50200Y104100D02*
X51390Y105290D01*
X51342Y107258D02*
X55650D01*
X50532Y108069D02*
X51342Y107258D01*
X40832Y108069D02*
X44100D01*
X48200D01*
X50532D01*
X55650Y113164D02*
Y117950D01*
Y103321D02*
X62779D01*
X40800Y104100D02*
X50200D01*
X57600Y132300D02*
Y135600D01*
X49183Y132269D02*
X57569D01*
X26231Y140931D02*
X34617D01*
X26200Y138568D02*
Y140900D01*
X8770Y151961D02*
X15078D01*
X6900Y153832D02*
X8770Y151961D01*
X8770Y159639D02*
X15078D01*
X6900Y157768D02*
X8770Y159639D01*
X15078Y157080D02*
X19320D01*
X20700Y155700D01*
Y153400D02*
Y155700D01*
X19261Y151961D02*
X20700Y153400D01*
X15078Y151961D02*
X19261D01*
X55600Y118600D02*
Y122669D01*
X99350Y87573D02*
X109900D01*
X90295Y65405D02*
Y76550D01*
X45400Y148000D02*
X49535D01*
X61300Y145900D02*
Y150035D01*
X73965Y133800D02*
X78100D01*
X269516Y53515D02*
Y61983D01*
Y53515D02*
X269534Y53498D01*
Y50000D02*
Y53498D01*
X269516Y61983D02*
X284084D01*
X132152Y150500D02*
Y155500D01*
X132184Y155468D02*
X140700D01*
X113648Y145500D02*
X120600D01*
X370800Y26200D02*
Y35400D01*
X360800Y116131D02*
Y125400D01*
X370800Y116131D02*
Y125400D01*
X170757Y44743D02*
Y50065D01*
Y44743D02*
X171768Y43731D01*
Y40300D02*
Y43731D01*
Y36931D02*
Y40300D01*
X167776Y36931D02*
Y43731D01*
X168788Y44743D01*
Y50065D01*
X224863Y139469D02*
Y146268D01*
X225875Y133135D02*
Y138457D01*
X224863Y139469D02*
X225875Y138457D01*
X228855Y139469D02*
Y146268D01*
X227843Y133135D02*
Y138457D01*
X228855Y139469D01*
X147300Y74868D02*
X157765D01*
X150916Y84710D02*
X157765D01*
X149904Y83698D02*
X150916Y84710D01*
X149904Y87691D02*
X150916Y86679D01*
X157765D01*
X141902Y83698D02*
X149904D01*
X141900Y83700D02*
X141902Y83698D01*
X141300Y83700D02*
X141900D01*
X138491Y87691D02*
X149904D01*
X200300Y149594D02*
X200309Y149604D01*
X196309Y149004D02*
Y149604D01*
X196308Y149002D02*
X196309Y149004D01*
X200284Y133135D02*
Y149604D01*
X148000Y94553D02*
X157765D01*
Y84710D02*
X164790D01*
X198316Y126110D02*
Y133135D01*
Y45916D02*
Y50065D01*
X218001D02*
Y56899D01*
X223906Y40468D02*
Y50065D01*
X233749Y40468D02*
Y50065D01*
X240835Y66994D02*
X250600D01*
X208158Y133135D02*
Y142900D01*
X174694Y133135D02*
Y142900D01*
X138491Y94600D02*
X144332D01*
X140209Y101091D02*
X143141D01*
X174694Y146869D02*
Y149800D01*
X208158Y146869D02*
Y149800D01*
X233749Y33400D02*
Y36531D01*
X157765Y118175D02*
X164700D01*
X164851Y126200D02*
Y133135D01*
X188473Y126200D02*
Y133135D01*
X234001Y80773D02*
X240835D01*
X254765Y56400D02*
X258300D01*
X265000Y111200D02*
Y115635D01*
X143400Y44300D02*
X147035D01*
X143400Y49300D02*
X147035D01*
X333945Y10377D02*
Y13345D01*
X336602Y16002D01*
Y19039D01*
X293984Y10439D02*
Y12983D01*
X296641Y15641D01*
Y19100D01*
X233749Y133135D02*
Y136349D01*
X238300Y140900D01*
X223906Y33400D02*
Y36531D01*
X66165Y175900D02*
X70500D01*
X44535D02*
X48869D01*
X53165D02*
X61835D01*
X258294Y66994D02*
X258300Y67000D01*
X254569Y66994D02*
X258294D01*
X254765Y61100D02*
X258300D01*
X258670Y89304D02*
X258674Y89300D01*
X132152Y155500D02*
Y160048D01*
X188473Y50065D02*
Y57400D01*
X49800Y90500D02*
X50810Y91510D01*
X55650D01*
X43400Y97400D02*
X43416Y97416D01*
X55650D01*
X94269Y68800D02*
X97637D01*
X49900Y83900D02*
X51605Y85605D01*
X55650D01*
X40800Y83900D02*
X49900D01*
X46000Y90500D02*
X49800D01*
X45200Y89700D02*
X46000Y90500D01*
X147009Y101049D02*
X152651D01*
X153242Y100458D01*
X157765D01*
X259300Y116300D02*
Y119769D01*
X200284Y149604D02*
X200309D01*
X196335Y140365D02*
X198316Y138384D01*
Y133135D02*
Y138384D01*
X196335Y140365D02*
Y149604D01*
X204300Y146869D02*
Y149800D01*
X157765Y72899D02*
X164700D01*
X141300Y91100D02*
X144332D01*
X195800Y43400D02*
X198316Y45916D01*
X202253Y45947D02*
Y50065D01*
Y45947D02*
X204800Y43400D01*
X200284D02*
Y50065D01*
X195800Y33500D02*
Y36432D01*
X200300Y33432D02*
Y36500D01*
X204800Y33500D02*
Y36432D01*
X41300Y115635D02*
X43431Y113504D01*
Y111831D02*
Y113504D01*
X41300Y119965D02*
Y123900D01*
X140332Y74868D02*
X143363D01*
X212095Y57395D02*
X212100Y57400D01*
X212095Y50065D02*
Y57395D01*
X133300Y11600D02*
Y14400D01*
X132139Y10439D02*
X133300Y11600D01*
X128983Y10439D02*
X132139D01*
X88984D02*
X92139D01*
X93300Y11600D01*
Y14400D01*
X104863Y193100D02*
Y200400D01*
X103663Y191900D02*
X104863Y193100D01*
X101800Y191900D02*
X103663D01*
X146735Y143500D02*
X150469D01*
X118800Y169335D02*
Y173069D01*
X-38940Y-326906D02*
X-39226Y-326335D01*
X-39797Y-325764D01*
X-40369Y-325478D01*
X-41511D01*
X-42083Y-325764D01*
X-42654Y-326335D01*
X-42940Y-326906D01*
X-43225Y-327763D01*
Y-329191D01*
X-42940Y-330048D01*
X-42654Y-330620D01*
X-42083Y-331191D01*
X-41511Y-331476D01*
X-40369D01*
X-39797Y-331191D01*
X-39226Y-330620D01*
X-38940Y-330048D01*
Y-329191D01*
X-40369D02*
X-38940D01*
X-35570Y-325478D02*
Y-331476D01*
X-37569Y-325478D02*
X-33570D01*
X-32856D02*
Y-331476D01*
X-29428D01*
X-24058Y-328906D02*
X-18916D01*
X-10432Y-325478D02*
Y-331476D01*
X-12432Y-325478D02*
X-8433D01*
X-6005D02*
X-6576Y-325764D01*
X-7147Y-326335D01*
X-7433Y-326906D01*
X-7718Y-327763D01*
Y-329191D01*
X-7433Y-330048D01*
X-7147Y-330620D01*
X-6576Y-331191D01*
X-6005Y-331476D01*
X-4862D01*
X-4291Y-331191D01*
X-3719Y-330620D01*
X-3434Y-330048D01*
X-3148Y-329191D01*
Y-327763D01*
X-3434Y-326906D01*
X-3719Y-326335D01*
X-4291Y-325764D01*
X-4862Y-325478D01*
X-6005D01*
X-1748Y-328620D02*
X823D01*
X1680Y-328334D01*
X1965Y-328049D01*
X2251Y-327477D01*
Y-326620D01*
X1965Y-326049D01*
X1680Y-325764D01*
X823Y-325478D01*
X-1748D01*
Y-331476D01*
X8307Y-325478D02*
Y-331476D01*
X11734D01*
X16962D02*
X14677Y-325478D01*
X12392Y-331476D01*
X13248Y-329477D02*
X16105D01*
X18362Y-325478D02*
X20647Y-328334D01*
Y-331476D01*
X22932Y-325478D02*
X20647Y-328334D01*
X27417Y-325478D02*
X23703D01*
Y-331476D01*
X27417D01*
X23703Y-328334D02*
X25989D01*
X28417Y-325478D02*
Y-331476D01*
Y-325478D02*
X30988D01*
X31844Y-325764D01*
X32130Y-326049D01*
X32416Y-326620D01*
Y-327192D01*
X32130Y-327763D01*
X31844Y-328049D01*
X30988Y-328334D01*
X28417D01*
X30416D02*
X32416Y-331476D01*
X255214Y-310501D02*
X254357Y-310787D01*
X253786Y-311644D01*
X253500Y-313072D01*
Y-313929D01*
X253786Y-315357D01*
X254357Y-316214D01*
X255214Y-316500D01*
X255785D01*
X256642Y-316214D01*
X257213Y-315357D01*
X257499Y-313929D01*
Y-313072D01*
X257213Y-311644D01*
X256642Y-310787D01*
X255785Y-310501D01*
X255214D01*
X259127Y-311930D02*
Y-311644D01*
X259413Y-311073D01*
X259699Y-310787D01*
X260270Y-310501D01*
X261413D01*
X261984Y-310787D01*
X262269Y-311073D01*
X262555Y-311644D01*
Y-312215D01*
X262269Y-312787D01*
X261698Y-313644D01*
X258842Y-316500D01*
X262841D01*
X268897Y-313644D02*
X271468D01*
X272324Y-313358D01*
X272610Y-313072D01*
X272896Y-312501D01*
Y-311644D01*
X272610Y-311073D01*
X272324Y-310787D01*
X271468Y-310501D01*
X268897D01*
Y-316500D01*
X278523Y-311930D02*
X278238Y-311358D01*
X277666Y-310787D01*
X277095Y-310501D01*
X275952D01*
X275381Y-310787D01*
X274810Y-311358D01*
X274524Y-311930D01*
X274238Y-312787D01*
Y-314215D01*
X274524Y-315072D01*
X274810Y-315643D01*
X275381Y-316214D01*
X275952Y-316500D01*
X277095D01*
X277666Y-316214D01*
X278238Y-315643D01*
X278523Y-315072D01*
X280209Y-310501D02*
Y-316500D01*
Y-310501D02*
X282779D01*
X283636Y-310787D01*
X283922Y-311073D01*
X284208Y-311644D01*
Y-312215D01*
X283922Y-312787D01*
X283636Y-313072D01*
X282779Y-313358D01*
X280209D02*
X282779D01*
X283636Y-313644D01*
X283922Y-313929D01*
X284208Y-314500D01*
Y-315357D01*
X283922Y-315929D01*
X283636Y-316214D01*
X282779Y-316500D01*
X280209D01*
X290264Y-310501D02*
Y-316500D01*
Y-310501D02*
X292834D01*
X293691Y-310787D01*
X293977Y-311073D01*
X294263Y-311644D01*
Y-312215D01*
X293977Y-312787D01*
X293691Y-313072D01*
X292834Y-313358D01*
X290264D02*
X292834D01*
X293691Y-313644D01*
X293977Y-313929D01*
X294263Y-314500D01*
Y-315357D01*
X293977Y-315929D01*
X293691Y-316214D01*
X292834Y-316500D01*
X290264D01*
X297034Y-312501D02*
X296462Y-312787D01*
X295891Y-313358D01*
X295605Y-314215D01*
Y-314786D01*
X295891Y-315643D01*
X296462Y-316214D01*
X297034Y-316500D01*
X297890D01*
X298462Y-316214D01*
X299033Y-315643D01*
X299319Y-314786D01*
Y-314215D01*
X299033Y-313358D01*
X298462Y-312787D01*
X297890Y-312501D01*
X297034D01*
X300633D02*
Y-315357D01*
X300918Y-316214D01*
X301490Y-316500D01*
X302347D01*
X302918Y-316214D01*
X303775Y-315357D01*
Y-312501D02*
Y-316500D01*
X305346Y-312501D02*
Y-316500D01*
Y-313644D02*
X306203Y-312787D01*
X306774Y-312501D01*
X307631D01*
X308203Y-312787D01*
X308488Y-313644D01*
Y-316500D01*
X313487Y-310501D02*
Y-316500D01*
Y-313358D02*
X312916Y-312787D01*
X312345Y-312501D01*
X311488D01*
X310916Y-312787D01*
X310345Y-313358D01*
X310059Y-314215D01*
Y-314786D01*
X310345Y-315643D01*
X310916Y-316214D01*
X311488Y-316500D01*
X312345D01*
X312916Y-316214D01*
X313487Y-315643D01*
X318515Y-312501D02*
Y-316500D01*
Y-313358D02*
X317943Y-312787D01*
X317372Y-312501D01*
X316515D01*
X315944Y-312787D01*
X315372Y-313358D01*
X315087Y-314215D01*
Y-314786D01*
X315372Y-315643D01*
X315944Y-316214D01*
X316515Y-316500D01*
X317372D01*
X317943Y-316214D01*
X318515Y-315643D01*
X320114Y-312501D02*
Y-316500D01*
Y-314215D02*
X320400Y-313358D01*
X320971Y-312787D01*
X321543Y-312501D01*
X322399D01*
X323228D02*
X324942Y-316500D01*
X326656Y-312501D02*
X324942Y-316500D01*
X324371Y-317643D01*
X323799Y-318214D01*
X323228Y-318500D01*
X322942D01*
X924500Y-142002D02*
Y-151000D01*
Y-142002D02*
X928356D01*
X929642Y-142430D01*
X930070Y-142859D01*
X930499Y-143716D01*
Y-144573D01*
X930070Y-145430D01*
X929642Y-145858D01*
X928356Y-146287D01*
X924500D02*
X928356D01*
X929642Y-146715D01*
X930070Y-147144D01*
X930499Y-148001D01*
Y-149286D01*
X930070Y-150143D01*
X929642Y-150572D01*
X928356Y-151000D01*
X924500D01*
X-638144Y-408500D02*
X-641572Y-399502D01*
X-645000Y-408500D01*
X-643715Y-405501D02*
X-639430D01*
X-645500Y-144502D02*
Y-153500D01*
Y-144502D02*
X-641644D01*
X-640358Y-144930D01*
X-639930Y-145359D01*
X-639501Y-146216D01*
Y-147073D01*
X-639930Y-147930D01*
X-640358Y-148358D01*
X-641644Y-148787D01*
X-645500D02*
X-641644D01*
X-640358Y-149215D01*
X-639930Y-149644D01*
X-639501Y-150501D01*
Y-151786D01*
X-639930Y-152643D01*
X-640358Y-153071D01*
X-641644Y-153500D01*
X-645500D01*
X-639073Y103356D02*
X-639501Y104213D01*
X-640358Y105070D01*
X-641215Y105498D01*
X-642929D01*
X-643786Y105070D01*
X-644643Y104213D01*
X-645072Y103356D01*
X-645500Y102070D01*
Y99928D01*
X-645072Y98642D01*
X-644643Y97785D01*
X-643786Y96929D01*
X-642929Y96500D01*
X-641215D01*
X-640358Y96929D01*
X-639501Y97785D01*
X-639073Y98642D01*
X-645000Y355498D02*
Y346500D01*
Y355498D02*
X-642001D01*
X-640715Y355070D01*
X-639858Y354213D01*
X-639430Y353356D01*
X-639001Y352070D01*
Y349928D01*
X-639430Y348642D01*
X-639858Y347785D01*
X-640715Y346929D01*
X-642001Y346500D01*
X-645000D01*
X812142Y-508287D02*
X811713Y-507430D01*
X810428Y-507002D01*
X809571D01*
X808285Y-507430D01*
X807428Y-508716D01*
X807000Y-510858D01*
Y-513001D01*
X807428Y-514715D01*
X808285Y-515571D01*
X809571Y-516000D01*
X809999D01*
X811285Y-515571D01*
X812142Y-514715D01*
X812570Y-513429D01*
Y-513001D01*
X812142Y-511715D01*
X811285Y-510858D01*
X809999Y-510430D01*
X809571D01*
X808285Y-510858D01*
X807428Y-511715D01*
X807000Y-513001D01*
X524000Y-474502D02*
Y-483500D01*
Y-474502D02*
X526999D01*
X528285Y-474930D01*
X529142Y-475787D01*
X529570Y-476644D01*
X529999Y-477930D01*
Y-480072D01*
X529570Y-481358D01*
X529142Y-482215D01*
X528285Y-483072D01*
X526999Y-483500D01*
X524000D01*
X532869Y-474502D02*
X533298Y-474930D01*
X533727Y-474502D01*
X533298Y-474073D01*
X532869Y-474502D01*
X533298Y-477501D02*
Y-483500D01*
X537454Y-477501D02*
X536597Y-477930D01*
X535740Y-478787D01*
X535312Y-480072D01*
Y-480929D01*
X535740Y-482215D01*
X536597Y-483072D01*
X537454Y-483500D01*
X538740D01*
X539597Y-483072D01*
X540454Y-482215D01*
X540882Y-480929D01*
Y-480072D01*
X540454Y-478787D01*
X539597Y-477930D01*
X538740Y-477501D01*
X537454D01*
X542853D02*
Y-483500D01*
Y-479215D02*
X544138Y-477930D01*
X544995Y-477501D01*
X546281D01*
X547138Y-477930D01*
X547566Y-479215D01*
Y-483500D01*
X550351Y-477501D02*
X552922Y-483500D01*
X555493Y-477501D02*
X552922Y-483500D01*
X552065Y-485214D01*
X551208Y-486071D01*
X550351Y-486499D01*
X549923D01*
X561706Y-478787D02*
X561278Y-477930D01*
X559992Y-477501D01*
X558707D01*
X557421Y-477930D01*
X556993Y-478787D01*
X557421Y-479644D01*
X558278Y-480072D01*
X560421Y-480501D01*
X561278Y-480929D01*
X561706Y-481786D01*
Y-482215D01*
X561278Y-483072D01*
X559992Y-483500D01*
X558707D01*
X557421Y-483072D01*
X556993Y-482215D01*
X563591Y-477501D02*
Y-481786D01*
X564020Y-483072D01*
X564877Y-483500D01*
X566162D01*
X567019Y-483072D01*
X568305Y-481786D01*
Y-477501D02*
Y-483500D01*
X575375Y-478787D02*
X574946Y-477930D01*
X573661Y-477501D01*
X572375D01*
X571090Y-477930D01*
X570661Y-478787D01*
X571090Y-479644D01*
X571947Y-480072D01*
X574089Y-480501D01*
X574946Y-480929D01*
X575375Y-481786D01*
Y-482215D01*
X574946Y-483072D01*
X573661Y-483500D01*
X572375D01*
X571090Y-483072D01*
X570661Y-482215D01*
X577689Y-482643D02*
X577260Y-483072D01*
X577689Y-483500D01*
X578117Y-483072D01*
X577689Y-482643D01*
X580088Y-479215D02*
X583944D01*
X585230Y-478787D01*
X585658Y-478358D01*
X586087Y-477501D01*
Y-476216D01*
X585658Y-475359D01*
X585230Y-474930D01*
X583944Y-474502D01*
X580088D01*
Y-483500D01*
X593242Y-478787D02*
X592385Y-477930D01*
X591528Y-477501D01*
X590243D01*
X589386Y-477930D01*
X588529Y-478787D01*
X588101Y-480072D01*
Y-480929D01*
X588529Y-482215D01*
X589386Y-483072D01*
X590243Y-483500D01*
X591528D01*
X592385Y-483072D01*
X593242Y-482215D01*
X595170Y-474502D02*
Y-483500D01*
Y-478787D02*
X596027Y-477930D01*
X596884Y-477501D01*
X598170D01*
X599027Y-477930D01*
X599884Y-478787D01*
X600312Y-480072D01*
Y-480929D01*
X599884Y-482215D01*
X599027Y-483072D01*
X598170Y-483500D01*
X596884D01*
X596027Y-483072D01*
X595170Y-482215D01*
X602240Y-474502D02*
Y-483500D01*
Y-474502D02*
X605240D01*
X606525Y-474930D01*
X607382Y-475787D01*
X607811Y-476644D01*
X608239Y-477930D01*
Y-480072D01*
X607811Y-481358D01*
X607382Y-482215D01*
X606525Y-483072D01*
X605240Y-483500D01*
X602240D01*
X612395Y-477501D02*
X611538Y-477930D01*
X610681Y-478787D01*
X610253Y-480072D01*
Y-480929D01*
X610681Y-482215D01*
X611538Y-483072D01*
X612395Y-483500D01*
X613681D01*
X614538Y-483072D01*
X615395Y-482215D01*
X615823Y-480929D01*
Y-480072D01*
X615395Y-478787D01*
X614538Y-477930D01*
X613681Y-477501D01*
X612395D01*
X622936Y-478787D02*
X622079Y-477930D01*
X621222Y-477501D01*
X619937D01*
X619080Y-477930D01*
X618223Y-478787D01*
X617794Y-480072D01*
Y-480929D01*
X618223Y-482215D01*
X619080Y-483072D01*
X619937Y-483500D01*
X621222D01*
X622079Y-483072D01*
X622936Y-482215D01*
X435000Y-476216D02*
X435857Y-475787D01*
X437142Y-474502D01*
Y-483500D01*
X442027Y-477501D02*
X441599Y-477930D01*
X442027Y-478358D01*
X442456Y-477930D01*
X442027Y-477501D01*
Y-482643D02*
X441599Y-483072D01*
X442027Y-483500D01*
X442456Y-483072D01*
X442027Y-482643D01*
X444427Y-476216D02*
X445284Y-475787D01*
X446569Y-474502D01*
Y-483500D01*
X402999Y-483287D02*
X402142Y-482430D01*
X400856Y-482002D01*
X399142D01*
X397857Y-482430D01*
X397000Y-483287D01*
Y-484144D01*
X397428Y-485001D01*
X397857Y-485430D01*
X398714Y-485858D01*
X401285Y-486715D01*
X402142Y-487144D01*
X402570Y-487572D01*
X402999Y-488429D01*
Y-489715D01*
X402142Y-490571D01*
X400856Y-491000D01*
X399142D01*
X397857Y-490571D01*
X397000Y-489715D01*
X405869Y-482002D02*
X406298Y-482430D01*
X406727Y-482002D01*
X406298Y-481573D01*
X405869Y-482002D01*
X406298Y-485001D02*
Y-491000D01*
X413025Y-485001D02*
X408312Y-491000D01*
Y-485001D02*
X413025D01*
X408312Y-491000D02*
X413025D01*
X414911Y-487572D02*
X420052D01*
Y-486715D01*
X419624Y-485858D01*
X419195Y-485430D01*
X418338Y-485001D01*
X417053D01*
X416196Y-485430D01*
X415339Y-486287D01*
X414911Y-487572D01*
Y-488429D01*
X415339Y-489715D01*
X416196Y-490571D01*
X417053Y-491000D01*
X418338D01*
X419195Y-490571D01*
X420052Y-489715D01*
X436642Y-444502D02*
X435357Y-444930D01*
X434929Y-445787D01*
Y-446644D01*
X435357Y-447501D01*
X436214Y-447930D01*
X437928Y-448358D01*
X439213Y-448787D01*
X440070Y-449644D01*
X440499Y-450501D01*
Y-451786D01*
X440070Y-452643D01*
X439642Y-453071D01*
X438356Y-453500D01*
X436642D01*
X435357Y-453071D01*
X434929Y-452643D01*
X434500Y-451786D01*
Y-450501D01*
X434929Y-449644D01*
X435785Y-448787D01*
X437071Y-448358D01*
X438785Y-447930D01*
X439642Y-447501D01*
X440070Y-446644D01*
Y-445787D01*
X439642Y-444930D01*
X438356Y-444502D01*
X436642D01*
X442513Y-454785D02*
X448511Y-444502D01*
X449540Y-446644D02*
Y-446216D01*
X449968Y-445359D01*
X450397Y-444930D01*
X451254Y-444502D01*
X452968D01*
X453824Y-444930D01*
X454253Y-445359D01*
X454681Y-446216D01*
Y-447073D01*
X454253Y-447930D01*
X453396Y-449215D01*
X449111Y-453500D01*
X455110D01*
X462694Y-447501D02*
X462265Y-448787D01*
X461409Y-449644D01*
X460123Y-450072D01*
X459695D01*
X458409Y-449644D01*
X457552Y-448787D01*
X457124Y-447501D01*
Y-447073D01*
X457552Y-445787D01*
X458409Y-444930D01*
X459695Y-444502D01*
X460123D01*
X461409Y-444930D01*
X462265Y-445787D01*
X462694Y-447501D01*
Y-449644D01*
X462265Y-451786D01*
X461409Y-453071D01*
X460123Y-453500D01*
X459266D01*
X457981Y-453071D01*
X457552Y-452215D01*
X465136Y-454785D02*
X471135Y-444502D01*
X472163Y-446644D02*
Y-446216D01*
X472592Y-445359D01*
X473020Y-444930D01*
X473877Y-444502D01*
X475591D01*
X476448Y-444930D01*
X476877Y-445359D01*
X477305Y-446216D01*
Y-447073D01*
X476877Y-447930D01*
X476020Y-449215D01*
X471735Y-453500D01*
X477734D01*
X482318Y-444502D02*
X481033Y-444930D01*
X480176Y-446216D01*
X479747Y-448358D01*
Y-449644D01*
X480176Y-451786D01*
X481033Y-453071D01*
X482318Y-453500D01*
X483175D01*
X484461Y-453071D01*
X485318Y-451786D01*
X485746Y-449644D01*
Y-448358D01*
X485318Y-446216D01*
X484461Y-444930D01*
X483175Y-444502D01*
X482318D01*
X487760Y-446216D02*
X488617Y-445787D01*
X489902Y-444502D01*
Y-453500D01*
X494787Y-446644D02*
Y-446216D01*
X495216Y-445359D01*
X495644Y-444930D01*
X496501Y-444502D01*
X498215D01*
X499072Y-444930D01*
X499500Y-445359D01*
X499929Y-446216D01*
Y-447073D01*
X499500Y-447930D01*
X498643Y-449215D01*
X494359Y-453500D01*
X500357D01*
X434500Y-414502D02*
Y-423500D01*
Y-414502D02*
X437499D01*
X438785Y-414930D01*
X439642Y-415787D01*
X440070Y-416644D01*
X440499Y-417930D01*
Y-420072D01*
X440070Y-421358D01*
X439642Y-422215D01*
X438785Y-423071D01*
X437499Y-423500D01*
X434500D01*
X447654Y-417501D02*
Y-423500D01*
Y-418787D02*
X446797Y-417930D01*
X445940Y-417501D01*
X444655D01*
X443798Y-417930D01*
X442941Y-418787D01*
X442513Y-420072D01*
Y-420929D01*
X442941Y-422215D01*
X443798Y-423071D01*
X444655Y-423500D01*
X445940D01*
X446797Y-423071D01*
X447654Y-422215D01*
X450054Y-417501D02*
X452625Y-423500D01*
X455196Y-417501D02*
X452625Y-423500D01*
X456652Y-420072D02*
X461794D01*
Y-419215D01*
X461366Y-418358D01*
X460937Y-417930D01*
X460080Y-417501D01*
X458795D01*
X457938Y-417930D01*
X457081Y-418787D01*
X456652Y-420072D01*
Y-420929D01*
X457081Y-422215D01*
X457938Y-423071D01*
X458795Y-423500D01*
X460080D01*
X460937Y-423071D01*
X461794Y-422215D01*
X470792Y-414502D02*
Y-423500D01*
Y-414502D02*
X474220Y-423500D01*
X477648Y-414502D02*
X474220Y-423500D01*
X477648Y-414502D02*
Y-423500D01*
X485360Y-418787D02*
X484504Y-417930D01*
X483647Y-417501D01*
X482361D01*
X481504Y-417930D01*
X480647Y-418787D01*
X480219Y-420072D01*
Y-420929D01*
X480647Y-422215D01*
X481504Y-423071D01*
X482361Y-423500D01*
X483647D01*
X484504Y-423071D01*
X485360Y-422215D01*
X493716Y-416644D02*
X493287Y-415787D01*
X492430Y-414930D01*
X491573Y-414502D01*
X489860D01*
X489003Y-414930D01*
X488146Y-415787D01*
X487717Y-416644D01*
X487289Y-417930D01*
Y-420072D01*
X487717Y-421358D01*
X488146Y-422215D01*
X489003Y-423071D01*
X489860Y-423500D01*
X491573D01*
X492430Y-423071D01*
X493287Y-422215D01*
X493716Y-421358D01*
X498386Y-417501D02*
X497529Y-417930D01*
X496672Y-418787D01*
X496244Y-420072D01*
Y-420929D01*
X496672Y-422215D01*
X497529Y-423071D01*
X498386Y-423500D01*
X499672D01*
X500529Y-423071D01*
X501386Y-422215D01*
X501814Y-420929D01*
Y-420072D01*
X501386Y-418787D01*
X500529Y-417930D01*
X499672Y-417501D01*
X498386D01*
X504214D02*
X506784Y-423500D01*
X509355Y-417501D02*
X506784Y-423500D01*
X505928Y-425214D01*
X505071Y-426071D01*
X504214Y-426499D01*
X503785D01*
X434500Y-384502D02*
Y-393500D01*
Y-384502D02*
X437499D01*
X438785Y-384930D01*
X439642Y-385787D01*
X440070Y-386644D01*
X440499Y-387930D01*
Y-390072D01*
X440070Y-391358D01*
X439642Y-392215D01*
X438785Y-393072D01*
X437499Y-393500D01*
X434500D01*
X447654Y-387501D02*
Y-393500D01*
Y-388787D02*
X446797Y-387930D01*
X445940Y-387501D01*
X444655D01*
X443798Y-387930D01*
X442941Y-388787D01*
X442513Y-390072D01*
Y-390929D01*
X442941Y-392215D01*
X443798Y-393072D01*
X444655Y-393500D01*
X445940D01*
X446797Y-393072D01*
X447654Y-392215D01*
X450054Y-387501D02*
X452625Y-393500D01*
X455196Y-387501D02*
X452625Y-393500D01*
X456652Y-390072D02*
X461794D01*
Y-389215D01*
X461366Y-388358D01*
X460937Y-387930D01*
X460080Y-387501D01*
X458795D01*
X457938Y-387930D01*
X457081Y-388787D01*
X456652Y-390072D01*
Y-390929D01*
X457081Y-392215D01*
X457938Y-393072D01*
X458795Y-393500D01*
X460080D01*
X460937Y-393072D01*
X461794Y-392215D01*
X470792Y-384502D02*
Y-393500D01*
Y-384502D02*
X474220Y-393500D01*
X477648Y-384502D02*
X474220Y-393500D01*
X477648Y-384502D02*
Y-393500D01*
X485360Y-388787D02*
X484504Y-387930D01*
X483647Y-387501D01*
X482361D01*
X481504Y-387930D01*
X480647Y-388787D01*
X480219Y-390072D01*
Y-390929D01*
X480647Y-392215D01*
X481504Y-393072D01*
X482361Y-393500D01*
X483647D01*
X484504Y-393072D01*
X485360Y-392215D01*
X493716Y-386644D02*
X493287Y-385787D01*
X492430Y-384930D01*
X491573Y-384502D01*
X489860D01*
X489003Y-384930D01*
X488146Y-385787D01*
X487717Y-386644D01*
X487289Y-387930D01*
Y-390072D01*
X487717Y-391358D01*
X488146Y-392215D01*
X489003Y-393072D01*
X489860Y-393500D01*
X491573D01*
X492430Y-393072D01*
X493287Y-392215D01*
X493716Y-391358D01*
X498386Y-387501D02*
X497529Y-387930D01*
X496672Y-388787D01*
X496244Y-390072D01*
Y-390929D01*
X496672Y-392215D01*
X497529Y-393072D01*
X498386Y-393500D01*
X499672D01*
X500529Y-393072D01*
X501386Y-392215D01*
X501814Y-390929D01*
Y-390072D01*
X501386Y-388787D01*
X500529Y-387930D01*
X499672Y-387501D01*
X498386D01*
X504214D02*
X506784Y-393500D01*
X509355Y-387501D02*
X506784Y-393500D01*
X505928Y-395214D01*
X505071Y-396071D01*
X504214Y-396499D01*
X503785D01*
X866642Y-482501D02*
X865785Y-482930D01*
X864929Y-483787D01*
X864500Y-485072D01*
Y-485929D01*
X864929Y-487215D01*
X865785Y-488071D01*
X866642Y-488500D01*
X867928D01*
X868785Y-488071D01*
X869642Y-487215D01*
X870070Y-485929D01*
Y-485072D01*
X869642Y-483787D01*
X868785Y-482930D01*
X867928Y-482501D01*
X866642D01*
X875469Y-479502D02*
X874612D01*
X873755Y-479930D01*
X873327Y-481216D01*
Y-488500D01*
X872041Y-482501D02*
X875041D01*
X800499Y-481287D02*
X799642Y-480430D01*
X798356Y-480002D01*
X796642D01*
X795357Y-480430D01*
X794500Y-481287D01*
Y-482144D01*
X794929Y-483001D01*
X795357Y-483430D01*
X796214Y-483858D01*
X798785Y-484715D01*
X799642Y-485144D01*
X800070Y-485572D01*
X800499Y-486429D01*
Y-487715D01*
X799642Y-488572D01*
X798356Y-489000D01*
X796642D01*
X795357Y-488572D01*
X794500Y-487715D01*
X802513Y-480002D02*
Y-489000D01*
Y-484715D02*
X803798Y-483430D01*
X804655Y-483001D01*
X805940D01*
X806797Y-483430D01*
X807226Y-484715D01*
Y-489000D01*
X809583Y-485572D02*
X814724D01*
Y-484715D01*
X814296Y-483858D01*
X813867Y-483430D01*
X813010Y-483001D01*
X811725D01*
X810868Y-483430D01*
X810011Y-484287D01*
X809583Y-485572D01*
Y-486429D01*
X810011Y-487715D01*
X810868Y-488572D01*
X811725Y-489000D01*
X813010D01*
X813867Y-488572D01*
X814724Y-487715D01*
X816652Y-485572D02*
X821794D01*
Y-484715D01*
X821366Y-483858D01*
X820937Y-483430D01*
X820080Y-483001D01*
X818795D01*
X817938Y-483430D01*
X817081Y-484287D01*
X816652Y-485572D01*
Y-486429D01*
X817081Y-487715D01*
X817938Y-488572D01*
X818795Y-489000D01*
X820080D01*
X820937Y-488572D01*
X821794Y-487715D01*
X825008Y-480002D02*
Y-487286D01*
X825436Y-488572D01*
X826293Y-489000D01*
X827150D01*
X823722Y-483001D02*
X826722D01*
X530927Y-446144D02*
X530499Y-445287D01*
X529642Y-444430D01*
X528785Y-444002D01*
X527071D01*
X526214Y-444430D01*
X525357Y-445287D01*
X524929Y-446144D01*
X524500Y-447430D01*
Y-449572D01*
X524929Y-450858D01*
X525357Y-451715D01*
X526214Y-452571D01*
X527071Y-453000D01*
X528785D01*
X529642Y-452571D01*
X530499Y-451715D01*
X530927Y-450858D01*
X728000Y-445502D02*
X729499Y-444003D01*
X732499D01*
X733998Y-445502D01*
Y-447002D01*
X732499Y-448501D01*
X733998Y-450001D01*
Y-451501D01*
X732499Y-453000D01*
X729499D01*
X728000Y-451501D01*
Y-450001D01*
X729499Y-448501D01*
X728000Y-447002D01*
Y-445502D01*
X729499Y-448501D02*
X732499D01*
X736997Y-453000D02*
X742995Y-447002D01*
X751992Y-453000D02*
X745994D01*
X751992Y-447002D01*
Y-445502D01*
X750493Y-444003D01*
X747494D01*
X745994Y-445502D01*
X754991Y-451501D02*
X756491Y-453000D01*
X759490D01*
X760989Y-451501D01*
Y-445502D01*
X759490Y-444003D01*
X756491D01*
X754991Y-445502D01*
Y-447002D01*
X756491Y-448501D01*
X760989D01*
X763988Y-453000D02*
X769986Y-447002D01*
X778983Y-453000D02*
X772986D01*
X778983Y-447002D01*
Y-445502D01*
X777484Y-444003D01*
X774485D01*
X772986Y-445502D01*
X781983D02*
X783482Y-444003D01*
X786481D01*
X787981Y-445502D01*
Y-451501D01*
X786481Y-453000D01*
X783482D01*
X781983Y-451501D01*
Y-445502D01*
X790980Y-453000D02*
X793979D01*
X792479D01*
Y-444003D01*
X790980Y-445502D01*
X804475Y-453000D02*
X798477D01*
X804475Y-447002D01*
Y-445502D01*
X802976Y-444003D01*
X799977D01*
X798477Y-445502D01*
X544642Y-507002D02*
X540357D01*
X539928Y-510858D01*
X540357Y-510430D01*
X541642Y-510001D01*
X542928D01*
X544213Y-510430D01*
X545070Y-511287D01*
X545499Y-512572D01*
Y-513429D01*
X545070Y-514715D01*
X544213Y-515571D01*
X542928Y-516000D01*
X541642D01*
X540357Y-515571D01*
X539928Y-515143D01*
X539500Y-514286D01*
X276285Y-507002D02*
X272000Y-513001D01*
X278427D01*
X276285Y-507002D02*
Y-516000D01*
X7857Y-507002D02*
X12570D01*
X9999Y-510430D01*
X11285D01*
X12142Y-510858D01*
X12570Y-511287D01*
X12999Y-512572D01*
Y-513429D01*
X12570Y-514715D01*
X11713Y-515571D01*
X10428Y-516000D01*
X9142D01*
X7857Y-515571D01*
X7429Y-515143D01*
X7000Y-514286D01*
X-262572Y-509144D02*
Y-508716D01*
X-262143Y-507859D01*
X-261715Y-507430D01*
X-260858Y-507002D01*
X-259144D01*
X-258287Y-507430D01*
X-257858Y-507859D01*
X-257430Y-508716D01*
Y-509573D01*
X-257858Y-510430D01*
X-258715Y-511715D01*
X-263000Y-516000D01*
X-257001D01*
X-530500Y-508716D02*
X-529643Y-508287D01*
X-528358Y-507002D01*
Y-516000D01*
X545142Y462998D02*
X540857D01*
X540428Y459142D01*
X540857Y459570D01*
X542142Y459999D01*
X543428D01*
X544713Y459570D01*
X545570Y458713D01*
X545999Y457428D01*
Y456571D01*
X545570Y455285D01*
X544713Y454428D01*
X543428Y454000D01*
X542142D01*
X540857Y454428D01*
X540428Y454857D01*
X540000Y455714D01*
X276285Y462998D02*
X272000Y456999D01*
X278427D01*
X276285Y462998D02*
Y454000D01*
X7857Y462998D02*
X12570D01*
X9999Y459570D01*
X11285D01*
X12142Y459142D01*
X12570Y458713D01*
X12999Y457428D01*
Y456571D01*
X12570Y455285D01*
X11713Y454428D01*
X10428Y454000D01*
X9142D01*
X7857Y454428D01*
X7429Y454857D01*
X7000Y455714D01*
X-262572Y460856D02*
Y461284D01*
X-262143Y462141D01*
X-261715Y462570D01*
X-260858Y462998D01*
X-259144D01*
X-258287Y462570D01*
X-257858Y462141D01*
X-257430Y461284D01*
Y460427D01*
X-257858Y459570D01*
X-258715Y458285D01*
X-263000Y454000D01*
X-257001D01*
X931356Y-401000D02*
X927928Y-392002D01*
X924500Y-401000D01*
X925785Y-398001D02*
X930070D01*
X529549Y-387581D02*
X529121Y-386724D01*
X528264Y-385867D01*
X527407Y-385439D01*
X525693D01*
X524836Y-385867D01*
X523979Y-386724D01*
X523551Y-387581D01*
X523122Y-388867D01*
Y-391009D01*
X523551Y-392295D01*
X523979Y-393152D01*
X524836Y-394008D01*
X525693Y-394437D01*
X527407D01*
X528264Y-394008D01*
X529121Y-393152D01*
X529549Y-392295D01*
X534220Y-388438D02*
X533363Y-388867D01*
X532506Y-389724D01*
X532077Y-391009D01*
Y-391866D01*
X532506Y-393152D01*
X533363Y-394008D01*
X534220Y-394437D01*
X535505D01*
X536362Y-394008D01*
X537219Y-393152D01*
X537647Y-391866D01*
Y-391009D01*
X537219Y-389724D01*
X536362Y-388867D01*
X535505Y-388438D01*
X534220D01*
X544332Y-389724D02*
X543903Y-388867D01*
X542618Y-388438D01*
X541332D01*
X540047Y-388867D01*
X539618Y-389724D01*
X540047Y-390581D01*
X540904Y-391009D01*
X543046Y-391438D01*
X543903Y-391866D01*
X544332Y-392723D01*
Y-393152D01*
X543903Y-394008D01*
X542618Y-394437D01*
X541332D01*
X540047Y-394008D01*
X539618Y-393152D01*
X546217Y-388438D02*
Y-397436D01*
Y-389724D02*
X547074Y-388867D01*
X547931Y-388438D01*
X549217D01*
X550073Y-388867D01*
X550930Y-389724D01*
X551359Y-391009D01*
Y-391866D01*
X550930Y-393152D01*
X550073Y-394008D01*
X549217Y-394437D01*
X547931D01*
X547074Y-394008D01*
X546217Y-393152D01*
X558429Y-388438D02*
Y-394437D01*
Y-389724D02*
X557572Y-388867D01*
X556715Y-388438D01*
X555429D01*
X554572Y-388867D01*
X553716Y-389724D01*
X553287Y-391009D01*
Y-391866D01*
X553716Y-393152D01*
X554572Y-394008D01*
X555429Y-394437D01*
X556715D01*
X557572Y-394008D01*
X558429Y-393152D01*
X560828Y-388438D02*
Y-394437D01*
Y-390152D02*
X562114Y-388867D01*
X562971Y-388438D01*
X564256D01*
X565113Y-388867D01*
X565542Y-390152D01*
Y-394437D01*
X574968Y-385439D02*
Y-394437D01*
Y-385439D02*
X577967D01*
X579253Y-385867D01*
X580110Y-386724D01*
X580538Y-387581D01*
X580967Y-388867D01*
Y-391009D01*
X580538Y-392295D01*
X580110Y-393152D01*
X579253Y-394008D01*
X577967Y-394437D01*
X574968D01*
X582981Y-391009D02*
X588122D01*
Y-390152D01*
X587694Y-389295D01*
X587265Y-388867D01*
X586409Y-388438D01*
X585123D01*
X584266Y-388867D01*
X583409Y-389724D01*
X582981Y-391009D01*
Y-391866D01*
X583409Y-393152D01*
X584266Y-394008D01*
X585123Y-394437D01*
X586409D01*
X587265Y-394008D01*
X588122Y-393152D01*
X594764Y-389724D02*
X594335Y-388867D01*
X593050Y-388438D01*
X591764D01*
X590479Y-388867D01*
X590051Y-389724D01*
X590479Y-390581D01*
X591336Y-391009D01*
X593478Y-391438D01*
X594335Y-391866D01*
X594764Y-392723D01*
Y-393152D01*
X594335Y-394008D01*
X593050Y-394437D01*
X591764D01*
X590479Y-394008D01*
X590051Y-393152D01*
X597506Y-385439D02*
X597935Y-385867D01*
X598363Y-385439D01*
X597935Y-385011D01*
X597506Y-385439D01*
X597935Y-388438D02*
Y-394437D01*
X605090Y-388438D02*
Y-395294D01*
X604662Y-396579D01*
X604233Y-397008D01*
X603376Y-397436D01*
X602091D01*
X601234Y-397008D01*
X605090Y-389724D02*
X604233Y-388867D01*
X603376Y-388438D01*
X602091D01*
X601234Y-388867D01*
X600377Y-389724D01*
X599948Y-391009D01*
Y-391866D01*
X600377Y-393152D01*
X601234Y-394008D01*
X602091Y-394437D01*
X603376D01*
X604233Y-394008D01*
X605090Y-393152D01*
X607490Y-388438D02*
Y-394437D01*
Y-390152D02*
X608775Y-388867D01*
X609632Y-388438D01*
X610918D01*
X611774Y-388867D01*
X612203Y-390152D01*
Y-394437D01*
X924500Y357998D02*
Y349000D01*
Y357998D02*
X927499D01*
X928785Y357570D01*
X929642Y356713D01*
X930070Y355856D01*
X930499Y354570D01*
Y352428D01*
X930070Y351142D01*
X929642Y350285D01*
X928785Y349429D01*
X927499Y349000D01*
X924500D01*
X-530500Y461284D02*
X-529643Y461713D01*
X-528358Y462998D01*
Y454000D01*
X833142Y-481708D02*
X833999Y-481280D01*
X835284Y-479994D01*
Y-488992D01*
X832498Y-446002D02*
X830999Y-444503D01*
X827999D01*
X826500Y-446002D01*
Y-452001D01*
X827999Y-453500D01*
X830999D01*
X832498Y-452001D01*
X880091Y-480724D02*
X880947Y-480295D01*
X882233Y-479010D01*
Y-488008D01*
X253500Y-451644D02*
X254071Y-451358D01*
X254928Y-450501D01*
Y-456500D01*
X261327Y-451358D02*
X261041Y-450787D01*
X260184Y-450501D01*
X259613D01*
X258756Y-450787D01*
X258185Y-451644D01*
X257899Y-453072D01*
Y-454500D01*
X258185Y-455643D01*
X258756Y-456214D01*
X259613Y-456500D01*
X259899D01*
X260756Y-456214D01*
X261327Y-455643D01*
X261613Y-454786D01*
Y-454500D01*
X261327Y-453644D01*
X260756Y-453072D01*
X259899Y-452786D01*
X259613D01*
X258756Y-453072D01*
X258185Y-453644D01*
X257899Y-454500D01*
X271639Y-451358D02*
X271068Y-450787D01*
X270211Y-450501D01*
X269068D01*
X268211Y-450787D01*
X267640Y-451358D01*
Y-451930D01*
X267926Y-452501D01*
X268211Y-452786D01*
X268782Y-453072D01*
X270496Y-453644D01*
X271068Y-453929D01*
X271353Y-454215D01*
X271639Y-454786D01*
Y-455643D01*
X271068Y-456214D01*
X270211Y-456500D01*
X269068D01*
X268211Y-456214D01*
X267640Y-455643D01*
X272982Y-450501D02*
Y-456500D01*
Y-453644D02*
X273838Y-452786D01*
X274410Y-452501D01*
X275267D01*
X275838Y-452786D01*
X276124Y-453644D01*
Y-456500D01*
X277695Y-454215D02*
X281123D01*
Y-453644D01*
X280837Y-453072D01*
X280551Y-452786D01*
X279980Y-452501D01*
X279123D01*
X278552Y-452786D01*
X277980Y-453358D01*
X277695Y-454215D01*
Y-454786D01*
X277980Y-455643D01*
X278552Y-456214D01*
X279123Y-456500D01*
X279980D01*
X280551Y-456214D01*
X281123Y-455643D01*
X282408Y-454215D02*
X285836D01*
Y-453644D01*
X285550Y-453072D01*
X285265Y-452786D01*
X284693Y-452501D01*
X283836D01*
X283265Y-452786D01*
X282694Y-453358D01*
X282408Y-454215D01*
Y-454786D01*
X282694Y-455643D01*
X283265Y-456214D01*
X283836Y-456500D01*
X284693D01*
X285265Y-456214D01*
X285836Y-455643D01*
X287978Y-450501D02*
Y-455357D01*
X288264Y-456214D01*
X288835Y-456500D01*
X289407D01*
X287121Y-452501D02*
X289121D01*
X253500Y-480401D02*
Y-486400D01*
Y-480401D02*
X255785Y-486400D01*
X258070Y-480401D02*
X255785Y-486400D01*
X258070Y-480401D02*
Y-486400D01*
X259784Y-482401D02*
Y-485257D01*
X260070Y-486114D01*
X260641Y-486400D01*
X261498D01*
X262070Y-486114D01*
X262927Y-485257D01*
Y-482401D02*
Y-486400D01*
X264498Y-480401D02*
Y-486400D01*
X266612Y-480401D02*
Y-485257D01*
X266897Y-486114D01*
X267468Y-486400D01*
X268040D01*
X265755Y-482401D02*
X267754D01*
X269468Y-480401D02*
X269754Y-480687D01*
X270039Y-480401D01*
X269754Y-480116D01*
X269468Y-480401D01*
X269754Y-482401D02*
Y-486400D01*
X271096Y-483829D02*
X276238D01*
X278009Y-480401D02*
Y-486400D01*
X281437D01*
X285522Y-482401D02*
Y-486400D01*
Y-483258D02*
X284950Y-482687D01*
X284379Y-482401D01*
X283522D01*
X282951Y-482687D01*
X282380Y-483258D01*
X282094Y-484115D01*
Y-484686D01*
X282380Y-485543D01*
X282951Y-486114D01*
X283522Y-486400D01*
X284379D01*
X284950Y-486114D01*
X285522Y-485543D01*
X287407Y-482401D02*
X289121Y-486400D01*
X290835Y-482401D02*
X289121Y-486400D01*
X288550Y-487543D01*
X287978Y-488114D01*
X287407Y-488400D01*
X287121D01*
X291835Y-484115D02*
X295263D01*
Y-483543D01*
X294977Y-482972D01*
X294691Y-482687D01*
X294120Y-482401D01*
X293263D01*
X292692Y-482687D01*
X292120Y-483258D01*
X291835Y-484115D01*
Y-484686D01*
X292120Y-485543D01*
X292692Y-486114D01*
X293263Y-486400D01*
X294120D01*
X294691Y-486114D01*
X295263Y-485543D01*
X296548Y-482401D02*
Y-486400D01*
Y-484115D02*
X296834Y-483258D01*
X297405Y-482687D01*
X297976Y-482401D01*
X298833D01*
D36*
X26418Y104318D02*
X31300Y109200D01*
X17500Y104318D02*
X26418D01*
X17500Y94082D02*
X22782D01*
X22800Y94100D01*
X299367Y148461D02*
X304852D01*
X101868Y121300D02*
X105500D01*
X273502Y50000D02*
Y53466D01*
X284084Y78900D02*
Y84817D01*
X140700Y148600D02*
Y151532D01*
X113648Y140500D02*
X120500D01*
X358169Y23400D02*
X361300D01*
X349832Y24763D02*
Y27894D01*
X360831Y109031D02*
Y112163D01*
X370831Y109031D02*
Y112163D01*
X288440Y135519D02*
X295957D01*
X288440Y116621D02*
X295957D01*
X286500Y107172D02*
X295957D01*
X286500Y100873D02*
X295957D01*
X305471Y53498D02*
X308751D01*
X333218Y135519D02*
X340052D01*
X333218Y141818D02*
X340052D01*
X333218Y59928D02*
X340052D01*
Y107172D02*
X349510D01*
X340052Y100873D02*
X349510D01*
X345230Y126070D02*
X347916Y123384D01*
X340052Y116621D02*
X345221D01*
X348066Y119466D01*
X340052Y126070D02*
X345230D01*
X295957Y53498D02*
Y59928D01*
Y53498D02*
X301534D01*
X288440Y132506D02*
Y135519D01*
Y116621D02*
Y119634D01*
D37*
X7100Y24675D02*
Y34239D01*
Y65620D02*
X31116D01*
X31300Y146900D02*
Y169500D01*
X295957Y141818D02*
Y145051D01*
X299318Y148412D01*
D38*
X7100Y55400D02*
Y65620D01*
D39*
X550000Y-160000D02*
X600000D01*
X650000D01*
X600000Y-210000D02*
Y-160000D01*
Y-110000D01*
Y270000D02*
Y320000D01*
Y370000D01*
X550000Y320000D02*
X600000D01*
X650000D01*
X-300000Y270000D02*
Y320000D01*
Y370000D01*
X-350000Y320000D02*
X-300000D01*
X-250000D01*
D40*
X-658000Y-526000D02*
Y474000D01*
X942000D01*
Y-526000D02*
Y474000D01*
X-658000Y-526000D02*
X942000D01*
X-628000Y-496000D02*
Y444000D01*
Y-496000D02*
X912000D01*
X-658000Y-26000D02*
X-628000D01*
X912000Y-496000D02*
Y444000D01*
X-658000Y-276000D02*
X-628000D01*
X-658000Y224000D02*
X-628000D01*
X-393000Y444000D02*
Y474000D01*
X912000Y-276000D02*
X942000D01*
X912000Y224000D02*
X942000D01*
X142000Y444000D02*
Y474000D01*
X-125500Y444000D02*
Y474000D01*
X409500Y444000D02*
Y474000D01*
X-393000Y-526000D02*
Y-496000D01*
X142000Y-526000D02*
Y-496000D01*
X-125500Y-526000D02*
Y-496000D01*
X409500Y-526000D02*
Y-496000D01*
X674500Y-526000D02*
Y-496000D01*
X427000Y-411000D02*
X517000D01*
X427000Y-471000D02*
X912000D01*
X427000Y-441000D02*
X912000D01*
X427000Y-381000D02*
X517000D01*
X822000Y-471000D02*
Y-441000D01*
X717000Y-471000D02*
Y-441000D01*
X517000Y-496000D02*
Y-381000D01*
X427000Y-496000D02*
Y-381000D01*
X392000Y-451000D02*
X427000D01*
X392000Y-496000D02*
Y-451000D01*
X517000Y-381000D02*
X912000D01*
X-628000Y444000D02*
X912000D01*
D41*
X403000Y-458504D02*
Y-476500D01*
Y-458504D02*
X410713D01*
X413283Y-459361D01*
X414141Y-460218D01*
X414997Y-461932D01*
Y-463646D01*
X414141Y-465359D01*
X413283Y-466217D01*
X410713Y-467073D01*
X403000D02*
X410713D01*
X413283Y-467930D01*
X414141Y-468787D01*
X414997Y-470501D01*
Y-473072D01*
X414141Y-474786D01*
X413283Y-475643D01*
X410713Y-476500D01*
X403000D01*
D42*
X360800Y85400D02*
D03*
Y75400D02*
D03*
Y65400D02*
D03*
Y35400D02*
D03*
Y45400D02*
D03*
Y55400D02*
D03*
X370800D02*
D03*
Y45400D02*
D03*
Y35400D02*
D03*
Y65400D02*
D03*
Y75400D02*
D03*
Y85400D02*
D03*
X180800Y10400D02*
D03*
X150800D02*
D03*
X160800D02*
D03*
X170800D02*
D03*
X360800Y175400D02*
D03*
Y165400D02*
D03*
Y155400D02*
D03*
Y125400D02*
D03*
Y135400D02*
D03*
Y145400D02*
D03*
X370800D02*
D03*
Y135400D02*
D03*
Y125400D02*
D03*
Y155400D02*
D03*
Y165400D02*
D03*
Y175400D02*
D03*
D43*
X7100Y45147D02*
D03*
X24816D02*
D03*
D44*
X180800Y200400D02*
D03*
X190800D02*
D03*
X200800D02*
D03*
X210800D02*
D03*
X220800D02*
D03*
X230800D02*
D03*
X240800D02*
D03*
X250800D02*
D03*
Y10400D02*
D03*
X240800D02*
D03*
X230800D02*
D03*
X220800D02*
D03*
X210800D02*
D03*
X200800D02*
D03*
X30800Y200400D02*
D03*
X40800D02*
D03*
X50800D02*
D03*
X60800D02*
D03*
X70800D02*
D03*
X80800D02*
D03*
X31300Y169500D02*
D03*
X21300D02*
D03*
X11300D02*
D03*
X94800Y200400D02*
D03*
X104800D02*
D03*
X114800D02*
D03*
X124800D02*
D03*
X134800D02*
D03*
X144800D02*
D03*
X154800D02*
D03*
X164800D02*
D03*
D45*
X253500Y175400D02*
D03*
X259000D02*
D03*
X90000Y160000D02*
D03*
X85000D02*
D03*
X94300D02*
D03*
X248900Y175400D02*
D03*
X258800Y89268D02*
D03*
Y93269D02*
D03*
X22800Y89200D02*
D03*
X146735Y147400D02*
D03*
X138800Y125400D02*
D03*
X22800Y94100D02*
D03*
X37135Y73900D02*
D03*
X183400Y125800D02*
D03*
Y121500D02*
D03*
X231700Y167900D02*
D03*
X231800Y171400D02*
D03*
X227800D02*
D03*
Y167900D02*
D03*
X67300Y168500D02*
D03*
Y163900D02*
D03*
X78400Y156700D02*
D03*
X83200Y152200D02*
D03*
X94300Y167500D02*
D03*
X94100Y155000D02*
D03*
X97600Y177600D02*
D03*
Y172400D02*
D03*
X101200Y169800D02*
D03*
Y175000D02*
D03*
X249300Y180400D02*
D03*
X249100Y167900D02*
D03*
X260200Y183200D02*
D03*
X265000Y178700D02*
D03*
X277000Y171000D02*
D03*
Y167000D02*
D03*
X172300Y163300D02*
D03*
X109900Y87532D02*
D03*
X49300Y79000D02*
D03*
X122300Y113000D02*
D03*
X118800Y107258D02*
D03*
X55200Y69900D02*
D03*
X43431Y111831D02*
D03*
X225400Y102400D02*
D03*
X228500Y118500D02*
D03*
X209300Y75800D02*
D03*
X182800Y59900D02*
D03*
X217500Y110301D02*
D03*
X258800Y84300D02*
D03*
X229500Y78000D02*
D03*
X225800Y74900D02*
D03*
X269800Y98700D02*
D03*
X302791Y104023D02*
D03*
X185300Y29900D02*
D03*
X74900Y19100D02*
D03*
X85843Y27761D02*
D03*
X88500Y19100D02*
D03*
X125300Y27800D02*
D03*
X60716Y19376D02*
D03*
X87300Y40400D02*
D03*
X113300D02*
D03*
X127800Y61665D02*
D03*
X64600Y40400D02*
D03*
X286700Y109500D02*
D03*
X282200D02*
D03*
Y98600D02*
D03*
X312069Y148461D02*
D03*
X308751Y53498D02*
D03*
X349309Y98546D02*
D03*
X353809D02*
D03*
Y109500D02*
D03*
X349309D02*
D03*
X345221Y116621D02*
D03*
X345230Y126070D02*
D03*
X333218Y141818D02*
D03*
Y135519D02*
D03*
Y59928D02*
D03*
X40800Y93200D02*
D03*
X49300Y87500D02*
D03*
X63300Y89500D02*
D03*
X40800Y104100D02*
D03*
X40832Y108069D02*
D03*
X55600Y118600D02*
D03*
X63300Y103300D02*
D03*
X57569Y132269D02*
D03*
X26200Y140900D02*
D03*
X8770Y159639D02*
D03*
X8770Y151961D02*
D03*
X90600Y65400D02*
D03*
X88000Y128100D02*
D03*
X78811D02*
D03*
X107200Y101680D02*
D03*
Y110869D02*
D03*
X68968Y68700D02*
D03*
X78158D02*
D03*
X99100Y132400D02*
D03*
Y127900D02*
D03*
X105500Y121300D02*
D03*
X45400Y148000D02*
D03*
X61300Y145900D02*
D03*
X78100Y133800D02*
D03*
X269500Y50000D02*
D03*
X273468Y50068D02*
D03*
X284084Y78900D02*
D03*
X140700Y148600D02*
D03*
X120600Y145500D02*
D03*
X120500Y140500D02*
D03*
X358169Y23400D02*
D03*
X349832Y24763D02*
D03*
X360831Y109031D02*
D03*
X370831D02*
D03*
X171768Y36931D02*
D03*
X167776D02*
D03*
X141300Y83700D02*
D03*
X138491Y87691D02*
D03*
X196309Y149604D02*
D03*
X248685Y117848D02*
D03*
Y108659D02*
D03*
X164780Y84720D02*
D03*
X150500Y101000D02*
D03*
X151691Y94509D02*
D03*
X198325Y126120D02*
D03*
X223950Y43991D02*
D03*
X233792D02*
D03*
X246909Y67037D02*
D03*
X208115Y139209D02*
D03*
X174650D02*
D03*
X138491Y94600D02*
D03*
X140209Y101091D02*
D03*
X174694Y149800D02*
D03*
X208158D02*
D03*
X233749Y33400D02*
D03*
X164700Y118175D02*
D03*
X164851Y126200D02*
D03*
X188473D02*
D03*
X234001Y80773D02*
D03*
X258300Y56400D02*
D03*
X333461Y19039D02*
D03*
X330804Y27700D02*
D03*
X319861Y19039D02*
D03*
X267077Y14626D02*
D03*
X230800Y61857D02*
D03*
X265000Y111200D02*
D03*
X143400Y44300D02*
D03*
X143400Y49300D02*
D03*
X91842Y107258D02*
D03*
X91000Y102000D02*
D03*
X68800Y85400D02*
D03*
X70279Y89379D02*
D03*
X74547Y89400D02*
D03*
X164800Y69000D02*
D03*
X172725Y125925D02*
D03*
X176662Y125962D02*
D03*
X170300Y154900D02*
D03*
X193800Y124400D02*
D03*
X197100Y156700D02*
D03*
X211100Y123400D02*
D03*
X164700Y112269D02*
D03*
X104700Y155500D02*
D03*
X106900Y150500D02*
D03*
X139900Y135500D02*
D03*
X118700Y133600D02*
D03*
X219200Y159900D02*
D03*
X229000Y158100D02*
D03*
X215600Y124490D02*
D03*
X223906D02*
D03*
X358493Y94000D02*
D03*
X224863Y146268D02*
D03*
X258400Y7500D02*
D03*
X265500Y30500D02*
D03*
X269500Y27500D02*
D03*
X123700Y107258D02*
D03*
X84300Y92000D02*
D03*
X164700Y108332D02*
D03*
X146300Y109400D02*
D03*
X99300Y74000D02*
D03*
X164700Y104395D02*
D03*
X113900Y78900D02*
D03*
X103300Y73900D02*
D03*
X167300Y80400D02*
D03*
X164780Y76836D02*
D03*
X159800Y39700D02*
D03*
X168300Y27900D02*
D03*
X172400D02*
D03*
X189300Y29900D02*
D03*
X228855Y146268D02*
D03*
X299318Y148412D02*
D03*
X217500Y116200D02*
D03*
X238300Y140900D02*
D03*
X223906Y33400D02*
D03*
X250435Y38400D02*
D03*
X231900Y66500D02*
D03*
X187300Y62300D02*
D03*
Y67000D02*
D03*
X218500Y42500D02*
D03*
X229000Y41500D02*
D03*
X218500Y38500D02*
D03*
X214064D02*
D03*
X204200Y57400D02*
D03*
X232000Y71000D02*
D03*
X333218Y122921D02*
D03*
X333170Y119791D02*
D03*
X302791Y129220D02*
D03*
X278550D02*
D03*
X302791Y119771D02*
D03*
X278200D02*
D03*
X302791Y110322D02*
D03*
X295957Y53498D02*
D03*
X302791Y81976D02*
D03*
Y75676D02*
D03*
Y69377D02*
D03*
Y63078D02*
D03*
X333218Y110322D02*
D03*
Y88275D02*
D03*
Y81976D02*
D03*
Y78826D02*
D03*
Y75676D02*
D03*
Y72527D02*
D03*
Y69377D02*
D03*
Y66228D02*
D03*
X225900Y57400D02*
D03*
X233800Y95400D02*
D03*
X322800Y93900D02*
D03*
X304800Y90900D02*
D03*
X330200Y93900D02*
D03*
X238400Y155400D02*
D03*
X233500Y155500D02*
D03*
X288440Y135519D02*
D03*
X278550Y132369D02*
D03*
X302791D02*
D03*
X288400Y126200D02*
D03*
X278200Y122921D02*
D03*
X302791D02*
D03*
X288440Y116621D02*
D03*
X307000Y38400D02*
D03*
X70500Y175900D02*
D03*
X44535D02*
D03*
X7100Y34239D02*
D03*
X31300Y109200D02*
D03*
Y147300D02*
D03*
X258300Y67000D02*
D03*
Y61100D02*
D03*
X127957Y19139D02*
D03*
X115443Y19061D02*
D03*
X279900Y19100D02*
D03*
X290843Y27761D02*
D03*
X293500Y19100D02*
D03*
X132152Y160048D02*
D03*
X91800Y135900D02*
D03*
X188500Y57400D02*
D03*
X40800Y83900D02*
D03*
X204800Y43400D02*
D03*
X206700Y123400D02*
D03*
X97637Y68800D02*
D03*
X37500Y96700D02*
D03*
X286700Y98600D02*
D03*
X231300Y122100D02*
D03*
X65300Y19400D02*
D03*
X259300Y116300D02*
D03*
X262142Y14688D02*
D03*
X307000Y19200D02*
D03*
X202800Y123400D02*
D03*
X200284Y149604D02*
D03*
X204300Y149800D02*
D03*
X206300Y160000D02*
D03*
X213800Y159900D02*
D03*
X164700Y72899D02*
D03*
X150916Y74868D02*
D03*
X141300Y91100D02*
D03*
X168500Y101500D02*
D03*
X173000Y99500D02*
D03*
X107300Y52500D02*
D03*
Y56900D02*
D03*
X107250Y61950D02*
D03*
X191400Y41300D02*
D03*
X195800Y43400D02*
D03*
X212300Y61300D02*
D03*
X208158Y61400D02*
D03*
X200284Y43400D02*
D03*
X195800Y33500D02*
D03*
X200300Y33432D02*
D03*
X204800Y33500D02*
D03*
X176300Y27900D02*
D03*
X41300Y123900D02*
D03*
X140300Y74900D02*
D03*
X221900Y57400D02*
D03*
X212100D02*
D03*
X7100Y55400D02*
D03*
X133300Y14400D02*
D03*
X102035Y19400D02*
D03*
X97300D02*
D03*
X134300Y23400D02*
D03*
X93300Y14400D02*
D03*
X146735Y143500D02*
D03*
X151600Y139400D02*
D03*
X157765D02*
D03*
X162800D02*
D03*
X118800Y169335D02*
D03*
X130800Y180900D02*
D03*
M02*
