M48
;Layer_Color=9474304
;FILE_FORMAT=2:4
INCH,LZ
;TYPE=PLATED
T1F00S00C0.0100
T2F00S00C0.0400
T3F00S00C0.1250
%
T01
X01045Y01225
X011
X01155
X0121
X01265
X0132
X01375
X01405Y01255
X01435Y01285
X01465Y01315
X01495Y01345
X01525Y01375
X01555Y01405
X01585Y01435
X01615Y01465
X01645Y01495
X022832Y01478
X023226
X02362
X024013
X024407
X024801
X02785Y01295
X0284Y0133
X0289Y0138
X02935Y01425
X029385Y011055
X03091Y011654
X031999Y01165
X032102Y010551
Y009921
X03176Y00971
X03177Y009291
X031133Y00978
X031007Y010236
X030563Y0093
X030713Y007953
X03013Y007781
X031918Y007612
X03192Y007165
X03184Y008031
X033275Y008189
Y007795
X033873Y007543
X034976
X034913Y006472
X03381
X033354Y005433
X03255Y0062
X0318Y0048
Y00425
Y00365
Y00305
X03013Y005734
X034787Y005276
X036078Y005433
X03653Y005313
X037354Y005433
X038141Y005339
Y00651
X037668Y006402
X037653Y007543
X036393
X036529Y006462
X039196Y007606
X03961Y007387
X03954Y007953
X040141Y008315
X040637Y00962
X0394Y00945
X038062Y00937
Y010787
X039322Y010945
X040537
X040424Y011417
X039243Y012803
X038712Y012752
X039243Y014026
X04015Y014598
X038283Y014724
X036881Y014685
X036487Y014724
X036172Y015039
X035606Y014724
X035621Y013622
X036566
X037117Y013528
X037275Y012362
X036487
X0357
X034755
X034598Y013528
X033417Y013622
X033Y01361
X032613Y013748
X03255Y0146
X033401Y014724
X034361Y014724
X033338Y011732
X033275Y011024
Y010472
Y01
Y00937
X041165Y006656
X041145Y005906
X041684
X042046Y005909
X042275Y005126
X042755Y005576
X041185Y005406
X043955Y006346
Y006746
X0428Y0137
X0425Y01415
X03985Y0154
X0396Y01605
X0387Y01649
Y0172
X03835Y01745
X03795Y0177
X037511Y018
X0368Y01535
X026041Y015749
X021592
X02175Y0174
X018814Y0172
X018514Y01745
X0181
X0178Y0172
X018104Y015662
X017421Y015251
X016437Y015649
X023Y0234
X025Y022425
X026
X027
X02799
X013Y0234
X009407Y02044
X009558Y01958
X008865Y01736
X00792
X007291Y01799
X005558Y020037
Y020509
Y021139
Y021612
X011201Y017191
X01137Y01575
T02
X0015Y0036
Y0046
Y0056
Y0066
Y0076
Y0086
X0025
Y0076
Y0066
Y0056
Y0046
Y0036
Y0126
X0015
Y0136
Y0146
X0025
Y0136
X014Y026
X015
X016
X017
X018
X023
X024
X025
X026
X027
X028
X013
X0025Y0176
X0015
Y0166
Y0156
X0025
Y0166
T03
X00092Y00096
X045Y001
Y026
X001Y02601
M30
