%FSLAX25Y25*%
%MOIN*%
G70*
G01*
G75*
G04 Layer_Color=65535*
%ADD10O,0.06102X0.02165*%
%ADD11R,0.04921X0.01378*%
%ADD12O,0.07087X0.01181*%
%ADD13O,0.01181X0.07087*%
%ADD14R,0.02362X0.03937*%
%ADD15R,0.01772X0.03937*%
%ADD16R,0.07480X0.02835*%
%ADD17R,0.04921X0.07284*%
%ADD18R,0.09843X0.03543*%
%ADD19R,0.00984X0.03150*%
%ADD20R,0.07087X0.11811*%
%ADD21R,0.05118X0.09055*%
%ADD22R,0.07087X0.07480*%
%ADD23R,0.05512X0.06299*%
%ADD24R,0.05315X0.01575*%
%ADD25R,0.07874X0.04724*%
%ADD26R,0.04331X0.12598*%
%ADD27R,0.02953X0.02559*%
%ADD28R,0.02756X0.01969*%
%ADD29R,0.01969X0.02756*%
%ADD30R,0.05906X0.05118*%
%ADD31R,0.02362X0.01969*%
%ADD32R,0.02559X0.02953*%
%ADD33R,0.01969X0.02362*%
%ADD34C,0.00600*%
%ADD35C,0.01000*%
%ADD36C,0.01500*%
%ADD37C,0.02000*%
%ADD38C,0.03000*%
%ADD39C,0.06000*%
%ADD40C,0.05906*%
%ADD41C,0.03937*%
%ADD42C,0.02400*%
%ADD43C,0.04000*%
%ADD44C,0.06400*%
G04:AMPARAMS|DCode=45|XSize=80mil|YSize=80mil|CornerRadius=0mil|HoleSize=0mil|Usage=FLASHONLY|Rotation=0.000|XOffset=0mil|YOffset=0mil|HoleType=Round|Shape=Relief|Width=8mil|Gap=10mil|Entries=4|*
%AMTHD45*
7,0,0,0.08000,0.06000,0.00800,45*
%
%ADD45THD45*%
%ADD46C,0.09400*%
%ADD47C,0.14900*%
G04:AMPARAMS|DCode=48|XSize=50mil|YSize=50mil|CornerRadius=0mil|HoleSize=0mil|Usage=FLASHONLY|Rotation=0.000|XOffset=0mil|YOffset=0mil|HoleType=Round|Shape=Relief|Width=8mil|Gap=10mil|Entries=4|*
%AMTHD48*
7,0,0,0.05000,0.03000,0.00800,45*
%
%ADD48THD48*%
%ADD49C,0.03400*%
%ADD50C,0.00984*%
%ADD51C,0.02362*%
%ADD52C,0.00787*%
%ADD53C,0.00394*%
G36*
X361667Y203541D02*
X361726Y203533D01*
X361785Y203526D01*
X361926Y203496D01*
X362089Y203452D01*
X362252Y203378D01*
X362333Y203333D01*
X362407Y203282D01*
X362481Y203222D01*
X362548Y203148D01*
X362555Y203141D01*
X362562Y203134D01*
X362577Y203104D01*
X362599Y203074D01*
X362629Y203030D01*
X362659Y202986D01*
X362688Y202919D01*
X362718Y202852D01*
X362747Y202778D01*
X362777Y202690D01*
X362807Y202593D01*
X362836Y202490D01*
X362858Y202379D01*
X362873Y202253D01*
X362888Y202127D01*
Y201987D01*
Y199700D01*
X361682D01*
Y200070D01*
Y201446D01*
Y201454D01*
Y201469D01*
Y201491D01*
Y201528D01*
Y201609D01*
Y201713D01*
X361674Y201824D01*
Y201935D01*
X361667Y202038D01*
X361660Y202120D01*
Y202127D01*
X361652Y202149D01*
Y202186D01*
X361645Y202223D01*
X361615Y202312D01*
X361600Y202357D01*
X361578Y202394D01*
Y202401D01*
X361563Y202416D01*
X361526Y202460D01*
X361467Y202519D01*
X361386Y202579D01*
X361378D01*
X361364Y202586D01*
X361341Y202601D01*
X361304Y202616D01*
X361223Y202638D01*
X361112Y202645D01*
X361097D01*
X361053Y202638D01*
X360986Y202630D01*
X360897Y202608D01*
X360809Y202571D01*
X360712Y202519D01*
X360616Y202445D01*
X360527Y202349D01*
X360520Y202334D01*
X360498Y202297D01*
X360461Y202231D01*
X360424Y202142D01*
X360379Y202031D01*
X360350Y201890D01*
X360320Y201728D01*
X360313Y201550D01*
Y199700D01*
X359114D01*
Y203459D01*
X360313D01*
Y202912D01*
X360328Y202919D01*
X360357Y202956D01*
X360416Y203015D01*
X360483Y203089D01*
X360572Y203163D01*
X360668Y203245D01*
X360772Y203319D01*
X360883Y203385D01*
X360897Y203393D01*
X360934Y203407D01*
X361001Y203437D01*
X361082Y203467D01*
X361186Y203496D01*
X361304Y203526D01*
X361430Y203541D01*
X361563Y203548D01*
X361623D01*
X361667Y203541D01*
D02*
G37*
G36*
X309356Y204791D02*
X309467Y204784D01*
X309586Y204776D01*
X309719Y204762D01*
X309860Y204732D01*
X310008Y204702D01*
X310015D01*
X310022Y204695D01*
X310045D01*
X310074Y204688D01*
X310148Y204665D01*
X310252Y204628D01*
X310363Y204591D01*
X310489Y204547D01*
X310622Y204488D01*
X310755Y204421D01*
Y203393D01*
X310748D01*
X310740Y203400D01*
X310696Y203430D01*
X310622Y203474D01*
X310533Y203526D01*
X310422Y203585D01*
X310304Y203644D01*
X310178Y203703D01*
X310045Y203748D01*
X310037D01*
X310030Y203755D01*
X309985Y203770D01*
X309911Y203785D01*
X309823Y203807D01*
X309712Y203829D01*
X309586Y203851D01*
X309453Y203859D01*
X309312Y203866D01*
X309245D01*
X309201Y203859D01*
X309142Y203851D01*
X309068Y203844D01*
X308994Y203829D01*
X308912Y203814D01*
X308742Y203755D01*
X308653Y203726D01*
X308557Y203681D01*
X308468Y203629D01*
X308387Y203570D01*
X308298Y203504D01*
X308224Y203422D01*
X308217Y203415D01*
X308209Y203400D01*
X308187Y203378D01*
X308165Y203341D01*
X308135Y203296D01*
X308098Y203237D01*
X308061Y203178D01*
X308032Y203104D01*
X307995Y203023D01*
X307958Y202926D01*
X307921Y202830D01*
X307891Y202719D01*
X307869Y202601D01*
X307847Y202475D01*
X307839Y202334D01*
X307832Y202194D01*
Y202186D01*
Y202157D01*
Y202120D01*
X307839Y202068D01*
X307847Y202001D01*
X307854Y201927D01*
X307862Y201839D01*
X307884Y201750D01*
X307928Y201557D01*
X307995Y201350D01*
X308039Y201254D01*
X308098Y201150D01*
X308158Y201062D01*
X308224Y200973D01*
X308232Y200965D01*
X308239Y200951D01*
X308269Y200936D01*
X308298Y200906D01*
X308335Y200869D01*
X308387Y200832D01*
X308439Y200795D01*
X308505Y200758D01*
X308579Y200714D01*
X308661Y200677D01*
X308750Y200640D01*
X308846Y200603D01*
X308957Y200573D01*
X309068Y200558D01*
X309186Y200544D01*
X309312Y200536D01*
X309379D01*
X309453Y200544D01*
X309549Y200551D01*
X309660Y200566D01*
X309786Y200581D01*
X309911Y200610D01*
X310045Y200647D01*
X310052D01*
X310059Y200655D01*
X310104Y200669D01*
X310170Y200699D01*
X310267Y200736D01*
X310370Y200788D01*
X310489Y200847D01*
X310622Y200921D01*
X310755Y201010D01*
Y199974D01*
X310748D01*
X310740Y199966D01*
X310696Y199944D01*
X310622Y199907D01*
X310526Y199870D01*
X310415Y199826D01*
X310289Y199781D01*
X310156Y199737D01*
X310008Y199700D01*
X310000D01*
X309993Y199693D01*
X309971D01*
X309941Y199685D01*
X309867Y199670D01*
X309763Y199656D01*
X309645Y199633D01*
X309512Y199619D01*
X309364Y199611D01*
X309208Y199604D01*
X309157D01*
X309090Y199611D01*
X309001Y199619D01*
X308898Y199626D01*
X308772Y199641D01*
X308639Y199663D01*
X308491Y199693D01*
X308335Y199730D01*
X308172Y199774D01*
X308010Y199833D01*
X307847Y199900D01*
X307684Y199974D01*
X307521Y200070D01*
X307366Y200174D01*
X307225Y200299D01*
X307218Y200307D01*
X307196Y200329D01*
X307159Y200373D01*
X307114Y200425D01*
X307055Y200499D01*
X306996Y200581D01*
X306929Y200684D01*
X306863Y200795D01*
X306796Y200928D01*
X306729Y201069D01*
X306670Y201224D01*
X306611Y201395D01*
X306567Y201572D01*
X306530Y201772D01*
X306507Y201972D01*
X306500Y202194D01*
Y202209D01*
Y202246D01*
X306507Y202312D01*
X306515Y202394D01*
X306522Y202497D01*
X306537Y202616D01*
X306559Y202741D01*
X306589Y202882D01*
X306626Y203030D01*
X306678Y203185D01*
X306737Y203348D01*
X306803Y203504D01*
X306892Y203659D01*
X306988Y203814D01*
X307099Y203962D01*
X307225Y204096D01*
X307233Y204103D01*
X307262Y204125D01*
X307299Y204162D01*
X307358Y204207D01*
X307432Y204258D01*
X307521Y204318D01*
X307625Y204384D01*
X307751Y204451D01*
X307884Y204510D01*
X308032Y204577D01*
X308195Y204636D01*
X308372Y204688D01*
X308565Y204732D01*
X308764Y204769D01*
X308979Y204791D01*
X309208Y204799D01*
X309282D01*
X309356Y204791D01*
D02*
G37*
G36*
X332681Y203541D02*
X332740Y203533D01*
X332800Y203526D01*
X332940Y203496D01*
X333103Y203452D01*
X333266Y203378D01*
X333347Y203333D01*
X333421Y203282D01*
X333495Y203222D01*
X333562Y203148D01*
X333569Y203141D01*
X333577Y203134D01*
X333591Y203104D01*
X333614Y203074D01*
X333643Y203030D01*
X333673Y202986D01*
X333702Y202919D01*
X333732Y202852D01*
X333762Y202778D01*
X333791Y202690D01*
X333821Y202593D01*
X333850Y202490D01*
X333873Y202379D01*
X333887Y202253D01*
X333902Y202127D01*
Y201987D01*
Y199700D01*
X332696D01*
Y200070D01*
Y201446D01*
Y201454D01*
Y201469D01*
Y201491D01*
Y201528D01*
Y201609D01*
Y201713D01*
X332689Y201824D01*
Y201935D01*
X332681Y202038D01*
X332674Y202120D01*
Y202127D01*
X332666Y202149D01*
Y202186D01*
X332659Y202223D01*
X332629Y202312D01*
X332615Y202357D01*
X332592Y202394D01*
Y202401D01*
X332578Y202416D01*
X332541Y202460D01*
X332481Y202519D01*
X332400Y202579D01*
X332393D01*
X332378Y202586D01*
X332356Y202601D01*
X332319Y202616D01*
X332237Y202638D01*
X332126Y202645D01*
X332111D01*
X332067Y202638D01*
X332000Y202630D01*
X331912Y202608D01*
X331823Y202571D01*
X331727Y202519D01*
X331630Y202445D01*
X331542Y202349D01*
X331534Y202334D01*
X331512Y202297D01*
X331475Y202231D01*
X331438Y202142D01*
X331394Y202031D01*
X331364Y201890D01*
X331334Y201728D01*
X331327Y201550D01*
Y199700D01*
X330128D01*
Y203459D01*
X331327D01*
Y202912D01*
X331342Y202919D01*
X331371Y202956D01*
X331431Y203015D01*
X331497Y203089D01*
X331586Y203163D01*
X331682Y203245D01*
X331786Y203319D01*
X331897Y203385D01*
X331912Y203393D01*
X331949Y203407D01*
X332015Y203437D01*
X332097Y203467D01*
X332200Y203496D01*
X332319Y203526D01*
X332444Y203541D01*
X332578Y203548D01*
X332637D01*
X332681Y203541D01*
D02*
G37*
G36*
X349413D02*
X349516Y203533D01*
X349635Y203526D01*
X349760Y203511D01*
X349894Y203489D01*
X349908D01*
X349931Y203481D01*
X349960D01*
X350034Y203467D01*
X350130Y203452D01*
X350249Y203430D01*
X350389Y203400D01*
X350537Y203370D01*
X350693Y203333D01*
Y202423D01*
X350685D01*
X350678Y202431D01*
X350656Y202438D01*
X350626Y202453D01*
X350552Y202482D01*
X350456Y202512D01*
X350338Y202556D01*
X350212Y202593D01*
X350079Y202630D01*
X349945Y202667D01*
X349938D01*
X349931Y202675D01*
X349886Y202682D01*
X349820Y202697D01*
X349731Y202712D01*
X349627Y202727D01*
X349509Y202734D01*
X349390Y202749D01*
X349213D01*
X349154Y202741D01*
X349080D01*
X348998Y202727D01*
X348909Y202712D01*
X348828Y202690D01*
X348761Y202660D01*
X348754Y202653D01*
X348739Y202645D01*
X348710Y202623D01*
X348680Y202593D01*
X348650Y202556D01*
X348621Y202512D01*
X348606Y202453D01*
X348599Y202394D01*
Y202386D01*
Y202371D01*
X348606Y202342D01*
X348613Y202312D01*
X348628Y202275D01*
X348650Y202238D01*
X348680Y202201D01*
X348717Y202172D01*
X348724D01*
X348739Y202157D01*
X348776Y202149D01*
X348821Y202127D01*
X348880Y202112D01*
X348961Y202090D01*
X349057Y202075D01*
X349168Y202061D01*
X349383Y202031D01*
X349390D01*
X349420Y202024D01*
X349472Y202016D01*
X349531Y202009D01*
X349605Y201994D01*
X349694Y201979D01*
X349783Y201957D01*
X349879Y201935D01*
X350086Y201883D01*
X350293Y201816D01*
X350389Y201779D01*
X350478Y201735D01*
X350552Y201691D01*
X350619Y201639D01*
X350626D01*
X350634Y201624D01*
X350671Y201587D01*
X350722Y201528D01*
X350782Y201432D01*
X350841Y201321D01*
X350893Y201173D01*
X350930Y201002D01*
X350944Y200906D01*
Y200803D01*
Y200795D01*
Y200773D01*
Y200743D01*
X350937Y200706D01*
X350930Y200655D01*
X350922Y200595D01*
X350893Y200462D01*
X350833Y200322D01*
X350804Y200240D01*
X350759Y200166D01*
X350708Y200100D01*
X350648Y200026D01*
X350582Y199959D01*
X350500Y199900D01*
X350493D01*
X350478Y199885D01*
X350456Y199870D01*
X350419Y199855D01*
X350375Y199833D01*
X350315Y199804D01*
X350249Y199781D01*
X350167Y199752D01*
X350079Y199722D01*
X349982Y199700D01*
X349879Y199670D01*
X349760Y199648D01*
X349627Y199633D01*
X349494Y199619D01*
X349339Y199604D01*
X349043D01*
X348946Y199611D01*
X348828Y199619D01*
X348695Y199626D01*
X348554Y199641D01*
X348406Y199663D01*
X348391D01*
X348369Y199670D01*
X348340Y199678D01*
X348258Y199685D01*
X348162Y199707D01*
X348036Y199730D01*
X347903Y199767D01*
X347755Y199796D01*
X347600Y199841D01*
Y200751D01*
X347607D01*
X347614Y200743D01*
X347659Y200721D01*
X347733Y200692D01*
X347822Y200655D01*
X347933Y200610D01*
X348058Y200566D01*
X348192Y200521D01*
X348332Y200484D01*
X348347D01*
X348369Y200477D01*
X348399Y200470D01*
X348473Y200462D01*
X348569Y200447D01*
X348687Y200433D01*
X348813Y200418D01*
X348954Y200410D01*
X349094Y200403D01*
X349154D01*
X349213Y200410D01*
X349294Y200418D01*
X349383Y200425D01*
X349472Y200447D01*
X349553Y200470D01*
X349627Y200499D01*
X349635Y200507D01*
X349657Y200514D01*
X349686Y200536D01*
X349716Y200573D01*
X349746Y200610D01*
X349775Y200662D01*
X349797Y200714D01*
X349805Y200780D01*
Y200788D01*
Y200810D01*
X349797Y200840D01*
X349790Y200869D01*
X349775Y200914D01*
X349753Y200951D01*
X349723Y200988D01*
X349679Y201017D01*
X349672Y201025D01*
X349657Y201032D01*
X349620Y201047D01*
X349568Y201062D01*
X349501Y201084D01*
X349420Y201106D01*
X349316Y201128D01*
X349191Y201143D01*
X348983Y201173D01*
X348976D01*
X348946Y201180D01*
X348909Y201187D01*
X348850Y201195D01*
X348784Y201202D01*
X348710Y201217D01*
X348628Y201239D01*
X348539Y201261D01*
X348354Y201306D01*
X348169Y201372D01*
X348081Y201409D01*
X347999Y201454D01*
X347925Y201498D01*
X347859Y201543D01*
X347844Y201557D01*
X347807Y201594D01*
X347755Y201661D01*
X347703Y201750D01*
X347644Y201868D01*
X347592Y202009D01*
X347555Y202179D01*
X347548Y202268D01*
X347540Y202371D01*
Y202379D01*
Y202401D01*
Y202431D01*
X347548Y202468D01*
X347555Y202519D01*
X347563Y202579D01*
X347592Y202704D01*
X347637Y202852D01*
X347711Y203000D01*
X347762Y203067D01*
X347814Y203141D01*
X347873Y203200D01*
X347947Y203259D01*
X347955D01*
X347970Y203274D01*
X347992Y203289D01*
X348021Y203304D01*
X348066Y203326D01*
X348118Y203348D01*
X348184Y203378D01*
X348258Y203407D01*
X348340Y203430D01*
X348428Y203459D01*
X348532Y203481D01*
X348650Y203504D01*
X348769Y203518D01*
X348902Y203533D01*
X349043Y203548D01*
X349324D01*
X349413Y203541D01*
D02*
G37*
G36*
X323143D02*
X323202Y203533D01*
X323268Y203518D01*
X323342Y203504D01*
X323431Y203481D01*
X323513Y203452D01*
X323609Y203415D01*
X323705Y203370D01*
X323801Y203311D01*
X323897Y203252D01*
X323986Y203178D01*
X324075Y203089D01*
X324164Y202993D01*
X324171Y202986D01*
X324186Y202971D01*
X324208Y202934D01*
X324238Y202889D01*
X324267Y202838D01*
X324304Y202771D01*
X324349Y202697D01*
X324393Y202608D01*
X324430Y202512D01*
X324475Y202401D01*
X324512Y202283D01*
X324549Y202157D01*
X324571Y202024D01*
X324593Y201883D01*
X324608Y201728D01*
X324615Y201572D01*
Y201565D01*
Y201535D01*
Y201491D01*
X324608Y201432D01*
X324600Y201358D01*
X324593Y201269D01*
X324578Y201173D01*
X324556Y201069D01*
X324504Y200847D01*
X324467Y200729D01*
X324423Y200610D01*
X324371Y200492D01*
X324312Y200373D01*
X324245Y200262D01*
X324164Y200151D01*
X324156Y200144D01*
X324142Y200129D01*
X324119Y200100D01*
X324082Y200063D01*
X324038Y200026D01*
X323986Y199981D01*
X323927Y199929D01*
X323853Y199878D01*
X323779Y199826D01*
X323690Y199774D01*
X323594Y199730D01*
X323498Y199693D01*
X323387Y199656D01*
X323276Y199626D01*
X323150Y199611D01*
X323024Y199604D01*
X322958D01*
X322884Y199611D01*
X322787Y199626D01*
X322684Y199641D01*
X322565Y199670D01*
X322447Y199707D01*
X322329Y199759D01*
X322314Y199767D01*
X322277Y199789D01*
X322218Y199826D01*
X322144Y199878D01*
X322062Y199944D01*
X321973Y200033D01*
X321877Y200129D01*
X321781Y200248D01*
Y198272D01*
X320582D01*
Y203459D01*
X321781D01*
Y202912D01*
X321796Y202919D01*
X321825Y202956D01*
X321877Y203015D01*
X321944Y203089D01*
X322025Y203163D01*
X322114Y203245D01*
X322218Y203319D01*
X322329Y203385D01*
X322343Y203393D01*
X322380Y203407D01*
X322447Y203437D01*
X322528Y203467D01*
X322632Y203496D01*
X322750Y203526D01*
X322884Y203541D01*
X323024Y203548D01*
X323091D01*
X323143Y203541D01*
D02*
G37*
G36*
X313829Y173300D02*
X313025D01*
X311088Y176968D01*
Y173300D01*
X310511D01*
Y177687D01*
X311308D01*
X313252Y174013D01*
Y177687D01*
X313829D01*
Y173300D01*
D02*
G37*
G36*
X315747Y175665D02*
X315125D01*
Y176410D01*
X315747D01*
Y175665D01*
D02*
G37*
G36*
Y173300D02*
X315125D01*
Y174045D01*
X315747D01*
Y173300D01*
D02*
G37*
G36*
X353046Y203940D02*
X351847D01*
Y204917D01*
X353046D01*
Y203940D01*
D02*
G37*
G36*
X340559Y171881D02*
X316389D01*
Y172302D01*
X340559D01*
Y171881D01*
D02*
G37*
G36*
X355658Y203533D02*
X355754Y203518D01*
X355858Y203504D01*
X355976Y203474D01*
X356095Y203437D01*
X356206Y203385D01*
X356221Y203378D01*
X356258Y203356D01*
X356317Y203319D01*
X356391Y203267D01*
X356472Y203200D01*
X356568Y203111D01*
X356665Y203015D01*
X356761Y202897D01*
Y203459D01*
X357967D01*
Y200077D01*
Y200070D01*
Y200040D01*
Y199989D01*
X357960Y199929D01*
X357952Y199855D01*
X357937Y199767D01*
X357915Y199670D01*
X357893Y199567D01*
X357863Y199456D01*
X357826Y199345D01*
X357782Y199234D01*
X357723Y199115D01*
X357656Y199004D01*
X357582Y198893D01*
X357493Y198797D01*
X357390Y198701D01*
X357382Y198694D01*
X357360Y198679D01*
X357331Y198657D01*
X357286Y198627D01*
X357227Y198590D01*
X357153Y198546D01*
X357064Y198509D01*
X356968Y198464D01*
X356857Y198412D01*
X356739Y198375D01*
X356598Y198331D01*
X356450Y198294D01*
X356287Y198264D01*
X356117Y198242D01*
X355932Y198227D01*
X355732Y198220D01*
X355599D01*
X355510Y198227D01*
X355407Y198235D01*
X355296Y198242D01*
X355044Y198279D01*
X355029D01*
X354985Y198287D01*
X354926Y198301D01*
X354844Y198316D01*
X354741Y198338D01*
X354630Y198368D01*
X354511Y198398D01*
X354393Y198435D01*
Y199367D01*
X354408Y199360D01*
X354445Y199337D01*
X354504Y199308D01*
X354585Y199271D01*
X354681Y199226D01*
X354785Y199182D01*
X354896Y199138D01*
X355007Y199101D01*
X355022D01*
X355059Y199086D01*
X355118Y199071D01*
X355199Y199056D01*
X355288Y199041D01*
X355392Y199027D01*
X355503Y199019D01*
X355614Y199012D01*
X355673D01*
X355710Y199019D01*
X355762D01*
X355814Y199027D01*
X355947Y199041D01*
X356087Y199078D01*
X356228Y199123D01*
X356361Y199182D01*
X356428Y199226D01*
X356480Y199271D01*
X356494Y199286D01*
X356524Y199323D01*
X356568Y199382D01*
X356620Y199471D01*
X356672Y199582D01*
X356716Y199722D01*
X356746Y199885D01*
X356761Y200077D01*
Y200336D01*
X356746Y200322D01*
X356716Y200285D01*
X356665Y200225D01*
X356598Y200151D01*
X356517Y200070D01*
X356420Y199989D01*
X356317Y199915D01*
X356206Y199848D01*
X356191Y199841D01*
X356154Y199826D01*
X356095Y199804D01*
X356006Y199774D01*
X355910Y199744D01*
X355791Y199722D01*
X355658Y199707D01*
X355518Y199700D01*
X355488D01*
X355451Y199707D01*
X355407D01*
X355347Y199715D01*
X355273Y199730D01*
X355199Y199744D01*
X355118Y199767D01*
X355029Y199796D01*
X354940Y199833D01*
X354844Y199878D01*
X354748Y199929D01*
X354652Y199989D01*
X354556Y200063D01*
X354467Y200144D01*
X354378Y200240D01*
X354371Y200248D01*
X354356Y200262D01*
X354334Y200299D01*
X354311Y200336D01*
X354274Y200388D01*
X354237Y200455D01*
X354200Y200529D01*
X354156Y200618D01*
X354112Y200706D01*
X354075Y200817D01*
X354038Y200928D01*
X354001Y201047D01*
X353978Y201180D01*
X353956Y201321D01*
X353941Y201461D01*
X353934Y201617D01*
Y201624D01*
Y201654D01*
Y201698D01*
X353941Y201757D01*
X353949Y201831D01*
X353956Y201913D01*
X353971Y202009D01*
X353993Y202105D01*
X354045Y202327D01*
X354082Y202438D01*
X354119Y202556D01*
X354171Y202675D01*
X354230Y202786D01*
X354297Y202897D01*
X354378Y203000D01*
X354385Y203008D01*
X354400Y203023D01*
X354422Y203052D01*
X354459Y203082D01*
X354504Y203126D01*
X354556Y203171D01*
X354622Y203222D01*
X354689Y203274D01*
X354770Y203319D01*
X354852Y203370D01*
X354948Y203415D01*
X355051Y203459D01*
X355155Y203489D01*
X355273Y203518D01*
X355392Y203533D01*
X355518Y203541D01*
X355584D01*
X355658Y203533D01*
D02*
G37*
G36*
X313722Y203541D02*
X313804Y203533D01*
X313893Y203518D01*
X314004Y203504D01*
X314115Y203481D01*
X314233Y203452D01*
X314359Y203422D01*
X314485Y203378D01*
X314610Y203326D01*
X314736Y203267D01*
X314855Y203193D01*
X314973Y203119D01*
X315077Y203023D01*
X315084Y203015D01*
X315099Y203000D01*
X315128Y202971D01*
X315165Y202926D01*
X315202Y202875D01*
X315247Y202808D01*
X315299Y202734D01*
X315350Y202645D01*
X315402Y202549D01*
X315454Y202438D01*
X315498Y202320D01*
X315535Y202186D01*
X315572Y202053D01*
X315602Y201898D01*
X315617Y201742D01*
X315624Y201572D01*
Y201565D01*
Y201535D01*
Y201483D01*
X315617Y201417D01*
X315609Y201343D01*
X315595Y201254D01*
X315580Y201150D01*
X315558Y201047D01*
X315528Y200928D01*
X315491Y200810D01*
X315447Y200692D01*
X315395Y200573D01*
X315328Y200447D01*
X315254Y200336D01*
X315173Y200225D01*
X315077Y200122D01*
X315069Y200114D01*
X315054Y200100D01*
X315017Y200077D01*
X314973Y200040D01*
X314921Y200003D01*
X314855Y199959D01*
X314773Y199915D01*
X314684Y199863D01*
X314581Y199818D01*
X314462Y199767D01*
X314344Y199722D01*
X314203Y199685D01*
X314063Y199648D01*
X313900Y199626D01*
X313737Y199611D01*
X313560Y199604D01*
X313463D01*
X313397Y199611D01*
X313315Y199619D01*
X313227Y199633D01*
X313123Y199648D01*
X313005Y199670D01*
X312886Y199693D01*
X312760Y199730D01*
X312635Y199774D01*
X312509Y199826D01*
X312383Y199885D01*
X312265Y199952D01*
X312154Y200033D01*
X312043Y200122D01*
X312035Y200129D01*
X312020Y200144D01*
X311991Y200174D01*
X311954Y200218D01*
X311917Y200270D01*
X311872Y200336D01*
X311821Y200410D01*
X311769Y200499D01*
X311717Y200595D01*
X311665Y200706D01*
X311621Y200825D01*
X311584Y200958D01*
X311547Y201099D01*
X311517Y201247D01*
X311502Y201402D01*
X311495Y201572D01*
Y201580D01*
Y201617D01*
X311502Y201661D01*
Y201728D01*
X311510Y201802D01*
X311525Y201890D01*
X311539Y201994D01*
X311562Y202098D01*
X311591Y202216D01*
X311628Y202334D01*
X311673Y202453D01*
X311724Y202571D01*
X311791Y202697D01*
X311865Y202808D01*
X311946Y202919D01*
X312043Y203023D01*
X312050Y203030D01*
X312065Y203045D01*
X312102Y203074D01*
X312146Y203104D01*
X312198Y203141D01*
X312265Y203185D01*
X312346Y203237D01*
X312435Y203289D01*
X312538Y203333D01*
X312657Y203385D01*
X312775Y203430D01*
X312916Y203467D01*
X313056Y203496D01*
X313219Y203526D01*
X313382Y203541D01*
X313560Y203548D01*
X313656D01*
X313722Y203541D01*
D02*
G37*
G36*
X382357Y201390D02*
X382440Y201349D01*
X382551Y201266D01*
X382690Y201141D01*
X382815Y200974D01*
X382926Y200752D01*
X382968Y200627D01*
X383009Y200488D01*
X383023Y200322D01*
X383037Y200155D01*
X383023D01*
X383009Y200127D01*
X382926Y200072D01*
X382801Y199989D01*
X382648Y199891D01*
X382468Y199794D01*
X382288Y199711D01*
X382121Y199655D01*
X381968Y199628D01*
X381954D01*
X381941Y199642D01*
X381857Y199669D01*
X381746Y199725D01*
X381607Y199794D01*
X381469Y199878D01*
X381358Y199961D01*
X381274Y200058D01*
X381260Y200100D01*
X381247Y200155D01*
Y200863D01*
Y200877D01*
X381260Y200905D01*
X381274Y200960D01*
X381316Y201030D01*
X381385Y201113D01*
X381469Y201210D01*
X381607Y201307D01*
X381788Y201404D01*
X382343D01*
X382357Y201390D01*
D02*
G37*
G36*
X373057Y193035D02*
Y193021D01*
Y192993D01*
Y192951D01*
X373043Y192896D01*
X373030Y192743D01*
X372988Y192563D01*
X372932Y192368D01*
X372835Y192202D01*
X372710Y192049D01*
X372627Y192008D01*
X372530Y191966D01*
X371975D01*
X371947Y191980D01*
X371878Y192008D01*
X371808Y192063D01*
X371697Y192146D01*
X371586Y192271D01*
X371517Y192355D01*
X371433Y192452D01*
X371364Y192563D01*
X371281Y192688D01*
Y193035D01*
Y193049D01*
X371295Y193062D01*
X371336Y193146D01*
X371420Y193257D01*
X371544Y193396D01*
X371711Y193520D01*
X371933Y193631D01*
X372058Y193673D01*
X372197Y193715D01*
X372363Y193729D01*
X372530Y193743D01*
X373057Y193035D01*
D02*
G37*
G36*
X382732Y205652D02*
X382815Y205610D01*
X382912Y205527D01*
X382982Y205471D01*
X383051Y205402D01*
X383134Y205318D01*
X383231Y205207D01*
X383329Y205083D01*
X383440Y204930D01*
X383564Y204763D01*
X383689Y204583D01*
X383828Y204361D01*
X383967Y204111D01*
X384134Y203847D01*
X384300Y203542D01*
X384467Y203209D01*
X384661Y202834D01*
X384855Y202431D01*
X385064Y201987D01*
X385286Y201515D01*
X385522Y200988D01*
X385758Y200433D01*
X386007Y199822D01*
X386271Y199183D01*
X386549Y198489D01*
X386840Y197740D01*
X387132Y196949D01*
X386951D01*
X386937Y196963D01*
X386910Y197018D01*
X386868Y197088D01*
X386812Y197185D01*
X386743Y197310D01*
X386646Y197462D01*
X386549Y197629D01*
X386438Y197809D01*
X386299Y198018D01*
X386174Y198226D01*
X385869Y198698D01*
X385522Y199197D01*
X385161Y199711D01*
X384786Y200224D01*
X384383Y200724D01*
X383981Y201196D01*
X383787Y201404D01*
X383578Y201612D01*
X383384Y201793D01*
X383190Y201959D01*
X383009Y202112D01*
X382815Y202237D01*
X382635Y202334D01*
X382468Y202418D01*
X382288Y202459D01*
X382135Y202473D01*
X381788D01*
X381760Y202459D01*
X381691Y202431D01*
X381580Y202376D01*
X381427Y202293D01*
X381247Y202168D01*
X381025Y202001D01*
X380761Y201779D01*
X380622Y201654D01*
X380483Y201515D01*
X380330Y201363D01*
X380178Y201182D01*
X380011Y201002D01*
X379845Y200794D01*
X379664Y200571D01*
X379484Y200336D01*
X379303Y200072D01*
X379123Y199794D01*
X378929Y199489D01*
X378734Y199170D01*
X378540Y198837D01*
X378332Y198476D01*
X378137Y198087D01*
X377929Y197671D01*
X377721Y197240D01*
X377513Y196782D01*
X377527Y196768D01*
X377554Y196699D01*
X377596Y196616D01*
X377665Y196491D01*
X377735Y196352D01*
X377818Y196199D01*
X378026Y195852D01*
X378249Y195505D01*
X378360Y195339D01*
X378484Y195186D01*
X378609Y195047D01*
X378720Y194936D01*
X378831Y194853D01*
X378942Y194811D01*
X379317D01*
X379359Y194839D01*
X379400Y194867D01*
X379442Y194895D01*
X379498Y194950D01*
X379567Y195019D01*
X379650Y195103D01*
X379748Y195200D01*
X379872Y195339D01*
X379997Y195491D01*
X380150Y195672D01*
X380317Y195894D01*
X380511Y196144D01*
X380719Y196421D01*
Y196241D01*
Y196227D01*
X380705Y196213D01*
X380691Y196172D01*
X380678Y196116D01*
X380622Y195977D01*
X380553Y195797D01*
X380469Y195575D01*
X380372Y195339D01*
X380261Y195089D01*
X380150Y194825D01*
X380011Y194548D01*
X379886Y194298D01*
X379748Y194062D01*
X379623Y193840D01*
X379484Y193659D01*
X379359Y193520D01*
X379290Y193465D01*
X379234Y193423D01*
X379165Y193409D01*
X379109Y193396D01*
X379081D01*
X379026Y193423D01*
X378970Y193451D01*
X378901Y193493D01*
X378818Y193562D01*
X378720Y193659D01*
X378595Y193798D01*
X378471Y193965D01*
X378346Y194173D01*
X378193Y194437D01*
X378124Y194589D01*
X378040Y194742D01*
X377957Y194922D01*
X377874Y195117D01*
X377790Y195325D01*
X377693Y195547D01*
X377610Y195783D01*
X377513Y196033D01*
X377430Y196310D01*
X377332Y196602D01*
X377152D01*
X377138Y196574D01*
X377110Y196505D01*
X377069Y196394D01*
X376999Y196241D01*
X376916Y196047D01*
X376819Y195811D01*
X376722Y195561D01*
X376597Y195269D01*
X376458Y194950D01*
X376305Y194617D01*
X376153Y194270D01*
X375986Y193895D01*
X375611Y193132D01*
X375223Y192341D01*
X374820Y191536D01*
X374390Y190772D01*
X374182Y190398D01*
X373960Y190050D01*
X373751Y189717D01*
X373529Y189398D01*
X373321Y189107D01*
X373113Y188857D01*
X372905Y188621D01*
X372710Y188426D01*
X372516Y188274D01*
X372336Y188163D01*
X372155Y188093D01*
X371989Y188066D01*
X371975D01*
X371919Y188080D01*
X371822Y188121D01*
X371697Y188204D01*
X371614Y188260D01*
X371531Y188329D01*
X371433Y188426D01*
X371322Y188524D01*
X371211Y188649D01*
X371086Y188801D01*
X370948Y188968D01*
X370809Y189162D01*
X370642Y189370D01*
X370490Y189620D01*
X370309Y189884D01*
X370129Y190189D01*
X369934Y190536D01*
X369740Y190897D01*
X369532Y191300D01*
X369310Y191744D01*
X369074Y192216D01*
X368838Y192743D01*
X368588Y193298D01*
X368324Y193909D01*
X368061Y194548D01*
X367783Y195242D01*
X367492Y195991D01*
X367200Y196782D01*
X367380D01*
X367408Y196768D01*
X367436Y196727D01*
X367492Y196685D01*
X367561Y196602D01*
X367658Y196491D01*
X367755Y196352D01*
X367894Y196172D01*
X368047Y195963D01*
X368227Y195686D01*
X368324Y195533D01*
X368421Y195367D01*
X368532Y195186D01*
X368657Y194992D01*
X368782Y194784D01*
X368921Y194562D01*
X369060Y194325D01*
X369213Y194062D01*
X369365Y193784D01*
X369532Y193493D01*
X369698Y193187D01*
X369879Y192854D01*
X369893Y192840D01*
X369934Y192799D01*
X370004Y192729D01*
X370087Y192632D01*
X370184Y192521D01*
X370309Y192410D01*
X370448Y192285D01*
X370601Y192146D01*
X370934Y191883D01*
X371100Y191772D01*
X371281Y191661D01*
X371461Y191563D01*
X371642Y191494D01*
X371822Y191452D01*
X371989Y191438D01*
X372377D01*
X372447Y191452D01*
X372558Y191480D01*
X372710Y191522D01*
X372905Y191619D01*
X373141Y191744D01*
X373266Y191827D01*
X373404Y191910D01*
X373557Y192021D01*
X373710Y192146D01*
X373862Y192299D01*
X374029Y192452D01*
X374209Y192632D01*
X374390Y192826D01*
X374584Y193049D01*
X374779Y193284D01*
X374973Y193548D01*
X375181Y193840D01*
X375389Y194159D01*
X375611Y194492D01*
X375819Y194853D01*
X376055Y195255D01*
X376277Y195672D01*
X376514Y196130D01*
X376749Y196616D01*
X376985Y197129D01*
X376972Y197143D01*
X376958Y197185D01*
X376916Y197254D01*
X376860Y197351D01*
X376791Y197462D01*
X376722Y197587D01*
X376541Y197851D01*
X376333Y198143D01*
X376125Y198406D01*
X376028Y198517D01*
X375931Y198614D01*
X375833Y198684D01*
X375736Y198739D01*
X375195D01*
X375153Y198712D01*
X375084Y198670D01*
X375028Y198614D01*
X374959Y198559D01*
X374889Y198489D01*
X374806Y198392D01*
X374695Y198281D01*
X374584Y198143D01*
X374445Y197976D01*
X374307Y197782D01*
X374140Y197560D01*
X373960Y197310D01*
Y197490D01*
Y197504D01*
X373973Y197518D01*
X374001Y197601D01*
X374043Y197740D01*
X374098Y197907D01*
X374182Y198115D01*
X374265Y198337D01*
X374362Y198573D01*
X374473Y198823D01*
X374598Y199073D01*
X374723Y199308D01*
X374848Y199544D01*
X374987Y199739D01*
X375126Y199905D01*
X375278Y200044D01*
X375417Y200127D01*
X375486Y200141D01*
X375556Y200155D01*
X375736D01*
X375750Y200141D01*
X375778Y200114D01*
X375819Y200072D01*
X375875Y200016D01*
X375944Y199919D01*
X376028Y199822D01*
X376125Y199683D01*
X376222Y199530D01*
X376333Y199350D01*
X376444Y199142D01*
X376555Y198906D01*
X376680Y198656D01*
X376805Y198365D01*
X376916Y198045D01*
X377041Y197698D01*
X377152Y197310D01*
X377332D01*
X377346Y197324D01*
X377360Y197379D01*
X377402Y197476D01*
X377443Y197601D01*
X377499Y197754D01*
X377582Y197934D01*
X377665Y198129D01*
X377763Y198365D01*
X377860Y198614D01*
X377971Y198892D01*
X378096Y199183D01*
X378235Y199475D01*
X378526Y200127D01*
X378845Y200821D01*
X379192Y201529D01*
X379567Y202237D01*
X379942Y202931D01*
X380344Y203611D01*
X380539Y203930D01*
X380747Y204236D01*
X380955Y204513D01*
X381149Y204791D01*
X381358Y205041D01*
X381566Y205277D01*
X381774Y205485D01*
X381968Y205665D01*
X382690D01*
X382732Y205652D01*
D02*
G37*
G36*
X353046Y199700D02*
X351847D01*
Y203459D01*
X353046D01*
Y199700D01*
D02*
G37*
G36*
X318148Y203541D02*
X318251Y203533D01*
X318370Y203526D01*
X318495Y203511D01*
X318629Y203489D01*
X318643D01*
X318666Y203481D01*
X318695D01*
X318769Y203467D01*
X318865Y203452D01*
X318984Y203430D01*
X319124Y203400D01*
X319272Y203370D01*
X319428Y203333D01*
Y202423D01*
X319420D01*
X319413Y202431D01*
X319391Y202438D01*
X319361Y202453D01*
X319287Y202482D01*
X319191Y202512D01*
X319073Y202556D01*
X318947Y202593D01*
X318814Y202630D01*
X318680Y202667D01*
X318673D01*
X318666Y202675D01*
X318621Y202682D01*
X318555Y202697D01*
X318466Y202712D01*
X318362Y202727D01*
X318244Y202734D01*
X318125Y202749D01*
X317948D01*
X317889Y202741D01*
X317815D01*
X317733Y202727D01*
X317644Y202712D01*
X317563Y202690D01*
X317496Y202660D01*
X317489Y202653D01*
X317474Y202645D01*
X317445Y202623D01*
X317415Y202593D01*
X317385Y202556D01*
X317356Y202512D01*
X317341Y202453D01*
X317334Y202394D01*
Y202386D01*
Y202371D01*
X317341Y202342D01*
X317348Y202312D01*
X317363Y202275D01*
X317385Y202238D01*
X317415Y202201D01*
X317452Y202172D01*
X317459D01*
X317474Y202157D01*
X317511Y202149D01*
X317556Y202127D01*
X317615Y202112D01*
X317696Y202090D01*
X317792Y202075D01*
X317903Y202061D01*
X318118Y202031D01*
X318125D01*
X318155Y202024D01*
X318207Y202016D01*
X318266Y202009D01*
X318340Y201994D01*
X318429Y201979D01*
X318518Y201957D01*
X318614Y201935D01*
X318821Y201883D01*
X319028Y201816D01*
X319124Y201779D01*
X319213Y201735D01*
X319287Y201691D01*
X319354Y201639D01*
X319361D01*
X319369Y201624D01*
X319406Y201587D01*
X319457Y201528D01*
X319517Y201432D01*
X319576Y201321D01*
X319628Y201173D01*
X319665Y201002D01*
X319679Y200906D01*
Y200803D01*
Y200795D01*
Y200773D01*
Y200743D01*
X319672Y200706D01*
X319665Y200655D01*
X319657Y200595D01*
X319628Y200462D01*
X319568Y200322D01*
X319539Y200240D01*
X319494Y200166D01*
X319443Y200100D01*
X319383Y200026D01*
X319317Y199959D01*
X319235Y199900D01*
X319228D01*
X319213Y199885D01*
X319191Y199870D01*
X319154Y199855D01*
X319110Y199833D01*
X319050Y199804D01*
X318984Y199781D01*
X318902Y199752D01*
X318814Y199722D01*
X318717Y199700D01*
X318614Y199670D01*
X318495Y199648D01*
X318362Y199633D01*
X318229Y199619D01*
X318074Y199604D01*
X317778D01*
X317681Y199611D01*
X317563Y199619D01*
X317430Y199626D01*
X317289Y199641D01*
X317141Y199663D01*
X317126D01*
X317104Y199670D01*
X317075Y199678D01*
X316993Y199685D01*
X316897Y199707D01*
X316771Y199730D01*
X316638Y199767D01*
X316490Y199796D01*
X316335Y199841D01*
Y200751D01*
X316342D01*
X316349Y200743D01*
X316394Y200721D01*
X316468Y200692D01*
X316557Y200655D01*
X316668Y200610D01*
X316793Y200566D01*
X316927Y200521D01*
X317067Y200484D01*
X317082D01*
X317104Y200477D01*
X317134Y200470D01*
X317208Y200462D01*
X317304Y200447D01*
X317422Y200433D01*
X317548Y200418D01*
X317689Y200410D01*
X317829Y200403D01*
X317889D01*
X317948Y200410D01*
X318029Y200418D01*
X318118Y200425D01*
X318207Y200447D01*
X318288Y200470D01*
X318362Y200499D01*
X318370Y200507D01*
X318392Y200514D01*
X318421Y200536D01*
X318451Y200573D01*
X318481Y200610D01*
X318510Y200662D01*
X318532Y200714D01*
X318540Y200780D01*
Y200788D01*
Y200810D01*
X318532Y200840D01*
X318525Y200869D01*
X318510Y200914D01*
X318488Y200951D01*
X318458Y200988D01*
X318414Y201017D01*
X318407Y201025D01*
X318392Y201032D01*
X318355Y201047D01*
X318303Y201062D01*
X318236Y201084D01*
X318155Y201106D01*
X318051Y201128D01*
X317926Y201143D01*
X317718Y201173D01*
X317711D01*
X317681Y201180D01*
X317644Y201187D01*
X317585Y201195D01*
X317519Y201202D01*
X317445Y201217D01*
X317363Y201239D01*
X317274Y201261D01*
X317089Y201306D01*
X316904Y201372D01*
X316816Y201409D01*
X316734Y201454D01*
X316660Y201498D01*
X316594Y201543D01*
X316579Y201557D01*
X316542Y201594D01*
X316490Y201661D01*
X316438Y201750D01*
X316379Y201868D01*
X316327Y202009D01*
X316290Y202179D01*
X316283Y202268D01*
X316275Y202371D01*
Y202379D01*
Y202401D01*
Y202431D01*
X316283Y202468D01*
X316290Y202519D01*
X316298Y202579D01*
X316327Y202704D01*
X316372Y202852D01*
X316446Y203000D01*
X316497Y203067D01*
X316549Y203141D01*
X316608Y203200D01*
X316682Y203259D01*
X316690D01*
X316705Y203274D01*
X316727Y203289D01*
X316756Y203304D01*
X316801Y203326D01*
X316853Y203348D01*
X316919Y203378D01*
X316993Y203407D01*
X317075Y203430D01*
X317163Y203459D01*
X317267Y203481D01*
X317385Y203504D01*
X317504Y203518D01*
X317637Y203533D01*
X317778Y203548D01*
X318059D01*
X318148Y203541D01*
D02*
G37*
G36*
X339097Y204702D02*
X339208D01*
X339326Y204695D01*
X339460Y204688D01*
X339733Y204673D01*
X340015Y204643D01*
X340155Y204621D01*
X340281Y204599D01*
X340407Y204577D01*
X340518Y204547D01*
X340525D01*
X340540Y204540D01*
X340570Y204532D01*
X340614Y204517D01*
X340658Y204495D01*
X340718Y204473D01*
X340851Y204414D01*
X340999Y204340D01*
X341162Y204244D01*
X341324Y204125D01*
X341480Y203992D01*
X341487D01*
X341495Y203977D01*
X341539Y203933D01*
X341598Y203859D01*
X341672Y203770D01*
X341761Y203652D01*
X341842Y203518D01*
X341924Y203370D01*
X341998Y203208D01*
Y203200D01*
X342005Y203185D01*
X342013Y203163D01*
X342027Y203126D01*
X342042Y203089D01*
X342057Y203037D01*
X342072Y202978D01*
X342087Y202919D01*
X342116Y202771D01*
X342146Y202601D01*
X342168Y202408D01*
X342175Y202209D01*
Y202201D01*
Y202186D01*
Y202157D01*
Y202112D01*
X342168Y202061D01*
Y202009D01*
X342153Y201868D01*
X342131Y201713D01*
X342101Y201543D01*
X342057Y201365D01*
X341998Y201195D01*
Y201187D01*
X341990Y201173D01*
X341983Y201150D01*
X341968Y201121D01*
X341924Y201039D01*
X341872Y200928D01*
X341798Y200810D01*
X341709Y200677D01*
X341606Y200544D01*
X341480Y200410D01*
X341472Y200403D01*
X341465Y200396D01*
X341435Y200373D01*
X341406Y200344D01*
X341369Y200314D01*
X341324Y200277D01*
X341206Y200196D01*
X341065Y200100D01*
X340903Y200011D01*
X340710Y199929D01*
X340510Y199855D01*
X340503D01*
X340481Y199848D01*
X340451Y199841D01*
X340407Y199833D01*
X340348Y199818D01*
X340274Y199804D01*
X340185Y199789D01*
X340089Y199781D01*
X339978Y199767D01*
X339852Y199752D01*
X339711Y199737D01*
X339556Y199722D01*
X339393Y199715D01*
X339215Y199707D01*
X339023Y199700D01*
X337462D01*
Y204710D01*
X339001D01*
X339097Y204702D01*
D02*
G37*
G36*
X345054Y203541D02*
X345128Y203533D01*
X345217Y203518D01*
X345313Y203504D01*
X345417Y203481D01*
X345528Y203452D01*
X345646Y203415D01*
X345764Y203370D01*
X345883Y203319D01*
X346001Y203259D01*
X346112Y203185D01*
X346223Y203104D01*
X346327Y203008D01*
X346334Y203000D01*
X346349Y202986D01*
X346379Y202956D01*
X346408Y202912D01*
X346453Y202860D01*
X346497Y202793D01*
X346541Y202719D01*
X346593Y202630D01*
X346645Y202534D01*
X346689Y202431D01*
X346734Y202312D01*
X346778Y202186D01*
X346808Y202046D01*
X346837Y201905D01*
X346852Y201750D01*
X346860Y201587D01*
Y201247D01*
X344048D01*
Y201239D01*
Y201232D01*
X344055Y201210D01*
Y201180D01*
X344070Y201099D01*
X344099Y201010D01*
X344136Y200906D01*
X344188Y200803D01*
X344255Y200699D01*
X344344Y200610D01*
X344358Y200603D01*
X344395Y200581D01*
X344455Y200544D01*
X344536Y200507D01*
X344640Y200470D01*
X344765Y200433D01*
X344913Y200410D01*
X345084Y200403D01*
X345150D01*
X345224Y200410D01*
X345320Y200418D01*
X345439Y200433D01*
X345572Y200447D01*
X345713Y200477D01*
X345861Y200514D01*
X345868D01*
X345875Y200521D01*
X345898Y200529D01*
X345927Y200536D01*
X346009Y200558D01*
X346112Y200595D01*
X346238Y200647D01*
X346379Y200706D01*
X346527Y200773D01*
X346682Y200854D01*
Y199929D01*
X346675D01*
X346660Y199922D01*
X346638Y199915D01*
X346608Y199900D01*
X346571Y199892D01*
X346527Y199870D01*
X346416Y199841D01*
X346282Y199796D01*
X346142Y199759D01*
X345986Y199722D01*
X345824Y199685D01*
X345801D01*
X345779Y199678D01*
X345750Y199670D01*
X345713Y199663D01*
X345668D01*
X345557Y199648D01*
X345431Y199633D01*
X345283Y199619D01*
X345135Y199611D01*
X344973Y199604D01*
X344876D01*
X344802Y199611D01*
X344721Y199619D01*
X344617Y199633D01*
X344514Y199648D01*
X344395Y199670D01*
X344270Y199693D01*
X344136Y199730D01*
X344003Y199774D01*
X343877Y199826D01*
X343744Y199885D01*
X343618Y199952D01*
X343500Y200033D01*
X343389Y200122D01*
X343382Y200129D01*
X343367Y200144D01*
X343337Y200174D01*
X343300Y200218D01*
X343256Y200270D01*
X343211Y200336D01*
X343160Y200410D01*
X343108Y200499D01*
X343056Y200595D01*
X343004Y200706D01*
X342960Y200825D01*
X342915Y200951D01*
X342878Y201091D01*
X342849Y201239D01*
X342834Y201402D01*
X342827Y201572D01*
Y201580D01*
Y201609D01*
X342834Y201661D01*
Y201728D01*
X342841Y201802D01*
X342856Y201890D01*
X342871Y201987D01*
X342893Y202098D01*
X342923Y202209D01*
X342960Y202327D01*
X343004Y202445D01*
X343063Y202571D01*
X343123Y202690D01*
X343197Y202801D01*
X343285Y202912D01*
X343382Y203015D01*
X343389Y203023D01*
X343411Y203037D01*
X343441Y203067D01*
X343485Y203097D01*
X343537Y203141D01*
X343611Y203185D01*
X343692Y203230D01*
X343781Y203282D01*
X343885Y203333D01*
X343996Y203378D01*
X344122Y203422D01*
X344262Y203467D01*
X344403Y203496D01*
X344566Y203526D01*
X344728Y203541D01*
X344906Y203548D01*
X344995D01*
X345054Y203541D01*
D02*
G37*
G36*
X327257D02*
X327346Y203533D01*
X327442Y203526D01*
X327546Y203511D01*
X327657Y203496D01*
X327901Y203452D01*
X328138Y203378D01*
X328256Y203333D01*
X328367Y203274D01*
X328471Y203215D01*
X328559Y203141D01*
X328567Y203134D01*
X328582Y203119D01*
X328604Y203097D01*
X328633Y203067D01*
X328663Y203023D01*
X328700Y202971D01*
X328744Y202904D01*
X328789Y202830D01*
X328826Y202741D01*
X328870Y202645D01*
X328907Y202542D01*
X328944Y202423D01*
X328966Y202297D01*
X328989Y202157D01*
X329003Y202001D01*
X329011Y201839D01*
Y199700D01*
X327797D01*
Y200248D01*
X327790Y200240D01*
X327753Y200196D01*
X327701Y200137D01*
X327634Y200063D01*
X327553Y199981D01*
X327464Y199900D01*
X327361Y199818D01*
X327250Y199752D01*
X327235Y199744D01*
X327198Y199730D01*
X327131Y199707D01*
X327050Y199678D01*
X326939Y199648D01*
X326813Y199626D01*
X326672Y199611D01*
X326517Y199604D01*
X326465D01*
X326421Y199611D01*
X326369D01*
X326317Y199619D01*
X326184Y199648D01*
X326036Y199685D01*
X325881Y199744D01*
X325725Y199826D01*
X325651Y199878D01*
X325577Y199937D01*
X325570Y199944D01*
X325562Y199952D01*
X325548Y199974D01*
X325518Y199996D01*
X325466Y200070D01*
X325400Y200174D01*
X325333Y200307D01*
X325274Y200455D01*
X325229Y200632D01*
X325222Y200721D01*
X325215Y200825D01*
Y200832D01*
Y200854D01*
Y200891D01*
X325222Y200936D01*
X325229Y200988D01*
X325237Y201047D01*
X325274Y201195D01*
X325326Y201350D01*
X325363Y201432D01*
X325407Y201513D01*
X325459Y201587D01*
X325518Y201661D01*
X325585Y201735D01*
X325666Y201794D01*
X325673Y201802D01*
X325688Y201809D01*
X325718Y201824D01*
X325755Y201846D01*
X325799Y201868D01*
X325858Y201890D01*
X325932Y201920D01*
X326014Y201950D01*
X326110Y201979D01*
X326214Y202009D01*
X326332Y202031D01*
X326458Y202053D01*
X326598Y202075D01*
X326754Y202090D01*
X326917Y202105D01*
X327797D01*
Y202194D01*
Y202209D01*
Y202238D01*
X327782Y202290D01*
X327768Y202357D01*
X327738Y202423D01*
X327701Y202497D01*
X327642Y202556D01*
X327568Y202616D01*
X327560Y202623D01*
X327523Y202638D01*
X327472Y202660D01*
X327398Y202682D01*
X327301Y202704D01*
X327183Y202727D01*
X327035Y202741D01*
X326872Y202749D01*
X326806D01*
X326732Y202741D01*
X326635D01*
X326524Y202727D01*
X326406Y202712D01*
X326280Y202697D01*
X326154Y202667D01*
X326140D01*
X326095Y202653D01*
X326036Y202638D01*
X325955Y202608D01*
X325858Y202579D01*
X325755Y202542D01*
X325651Y202490D01*
X325540Y202438D01*
Y203356D01*
X325548D01*
X325555Y203363D01*
X325577D01*
X325607Y203370D01*
X325681Y203385D01*
X325784Y203407D01*
X325895Y203430D01*
X326029Y203452D01*
X326169Y203474D01*
X326310Y203496D01*
X326325D01*
X326347Y203504D01*
X326376D01*
X326458Y203511D01*
X326554Y203526D01*
X326672Y203533D01*
X326806Y203541D01*
X326946Y203548D01*
X327190D01*
X327257Y203541D01*
D02*
G37*
G36*
X308230Y177758D02*
X308321Y177752D01*
X308425Y177739D01*
X308541Y177726D01*
X308658Y177706D01*
X308671D01*
X308690Y177700D01*
X308716D01*
X308781Y177687D01*
X308865Y177667D01*
X308962Y177642D01*
X309073Y177616D01*
X309196Y177583D01*
X309319Y177544D01*
Y176968D01*
X309312D01*
X309306Y176974D01*
X309286Y176981D01*
X309261Y176994D01*
X309196Y177020D01*
X309111Y177058D01*
X309014Y177091D01*
X308904Y177130D01*
X308787Y177169D01*
X308677Y177201D01*
X308664Y177207D01*
X308625Y177214D01*
X308567Y177227D01*
X308496Y177246D01*
X308405Y177259D01*
X308308Y177272D01*
X308204Y177279D01*
X308101Y177285D01*
X308023D01*
X307984Y177279D01*
X307932Y177272D01*
X307828Y177259D01*
X307705Y177240D01*
X307582Y177201D01*
X307466Y177156D01*
X307355Y177091D01*
X307342Y177084D01*
X307316Y177058D01*
X307271Y177013D01*
X307226Y176955D01*
X307180Y176877D01*
X307135Y176786D01*
X307109Y176683D01*
X307096Y176559D01*
Y176547D01*
Y176514D01*
X307103Y176462D01*
X307116Y176397D01*
X307135Y176326D01*
X307167Y176248D01*
X307206Y176184D01*
X307265Y176119D01*
X307271Y176112D01*
X307297Y176093D01*
X307349Y176067D01*
X307414Y176035D01*
X307504Y175996D01*
X307556Y175976D01*
X307615Y175957D01*
X307686Y175937D01*
X307757Y175918D01*
X307841Y175899D01*
X307926Y175879D01*
X308289Y175808D01*
X308295D01*
X308321Y175801D01*
X308353Y175795D01*
X308399Y175782D01*
X308451Y175769D01*
X308515Y175749D01*
X308587Y175730D01*
X308658Y175704D01*
X308820Y175639D01*
X308982Y175561D01*
X309131Y175471D01*
X309202Y175419D01*
X309267Y175361D01*
X309273Y175354D01*
X309280Y175348D01*
X309299Y175328D01*
X309319Y175302D01*
X309338Y175270D01*
X309371Y175231D01*
X309397Y175186D01*
X309429Y175134D01*
X309487Y175017D01*
X309533Y174868D01*
X309572Y174700D01*
X309578Y174609D01*
X309584Y174512D01*
Y174505D01*
Y174486D01*
Y174453D01*
X309578Y174408D01*
X309572Y174356D01*
X309565Y174291D01*
X309552Y174220D01*
X309533Y174149D01*
X309481Y173993D01*
X309448Y173909D01*
X309403Y173831D01*
X309358Y173754D01*
X309299Y173676D01*
X309235Y173605D01*
X309157Y173540D01*
X309150Y173533D01*
X309137Y173527D01*
X309111Y173507D01*
X309079Y173488D01*
X309034Y173462D01*
X308975Y173436D01*
X308917Y173410D01*
X308839Y173378D01*
X308755Y173345D01*
X308664Y173319D01*
X308561Y173293D01*
X308451Y173268D01*
X308327Y173248D01*
X308198Y173229D01*
X308055Y173222D01*
X307906Y173216D01*
X307854D01*
X307789Y173222D01*
X307705D01*
X307608Y173235D01*
X307491Y173248D01*
X307368Y173261D01*
X307239Y173287D01*
X307232D01*
X307226Y173293D01*
X307206D01*
X307180Y173300D01*
X307109Y173313D01*
X307018Y173339D01*
X306908Y173365D01*
X306785Y173404D01*
X306656Y173443D01*
X306519Y173494D01*
Y174103D01*
X306526D01*
X306532Y174097D01*
X306552Y174084D01*
X306578Y174071D01*
X306649Y174032D01*
X306740Y173987D01*
X306850Y173935D01*
X306967Y173883D01*
X307090Y173838D01*
X307219Y173793D01*
X307226D01*
X307232Y173786D01*
X307252D01*
X307278Y173779D01*
X307349Y173760D01*
X307433Y173747D01*
X307537Y173728D01*
X307653Y173708D01*
X307777Y173702D01*
X307900Y173695D01*
X307951D01*
X307984Y173702D01*
X308029D01*
X308075Y173708D01*
X308191Y173721D01*
X308314Y173741D01*
X308444Y173779D01*
X308574Y173825D01*
X308684Y173890D01*
X308690D01*
X308697Y173896D01*
X308729Y173929D01*
X308774Y173974D01*
X308826Y174039D01*
X308872Y174117D01*
X308917Y174214D01*
X308949Y174330D01*
X308962Y174395D01*
Y174460D01*
Y174466D01*
Y174473D01*
Y174512D01*
X308949Y174570D01*
X308937Y174648D01*
X308911Y174726D01*
X308878Y174810D01*
X308826Y174894D01*
X308762Y174965D01*
X308755Y174972D01*
X308723Y174998D01*
X308677Y175030D01*
X308606Y175069D01*
X308515Y175114D01*
X308405Y175160D01*
X308269Y175205D01*
X308114Y175244D01*
X307751Y175315D01*
X307744D01*
X307725Y175322D01*
X307686Y175328D01*
X307641Y175341D01*
X307589Y175354D01*
X307524Y175374D01*
X307459Y175393D01*
X307381Y175412D01*
X307226Y175471D01*
X307070Y175542D01*
X306921Y175626D01*
X306850Y175672D01*
X306792Y175724D01*
Y175730D01*
X306779Y175736D01*
X306766Y175756D01*
X306746Y175775D01*
X306701Y175840D01*
X306649Y175931D01*
X306591Y176041D01*
X306545Y176177D01*
X306513Y176333D01*
X306506Y176423D01*
X306500Y176514D01*
Y176521D01*
Y176540D01*
Y176572D01*
X306506Y176611D01*
X306513Y176657D01*
X306519Y176715D01*
X306552Y176845D01*
X306597Y176994D01*
X306636Y177065D01*
X306675Y177143D01*
X306720Y177220D01*
X306772Y177292D01*
X306837Y177363D01*
X306908Y177428D01*
X306915Y177434D01*
X306928Y177441D01*
X306954Y177460D01*
X306986Y177480D01*
X307025Y177506D01*
X307077Y177531D01*
X307135Y177564D01*
X307200Y177596D01*
X307278Y177629D01*
X307362Y177661D01*
X307453Y177687D01*
X307556Y177713D01*
X307666Y177732D01*
X307783Y177752D01*
X307906Y177758D01*
X308036Y177765D01*
X308146D01*
X308230Y177758D01*
D02*
G37*
G36*
X313345Y195160D02*
X312146D01*
Y196137D01*
X313345D01*
Y195160D01*
D02*
G37*
G36*
X322277Y183221D02*
X321063D01*
Y184516D01*
X322277D01*
Y183221D01*
D02*
G37*
G36*
X339215Y194761D02*
X339319Y194754D01*
X339437Y194746D01*
X339563Y194731D01*
X339696Y194709D01*
X339711D01*
X339733Y194702D01*
X339763D01*
X339837Y194687D01*
X339933Y194672D01*
X340052Y194650D01*
X340192Y194620D01*
X340340Y194591D01*
X340496Y194554D01*
Y193643D01*
X340488D01*
X340481Y193651D01*
X340459Y193658D01*
X340429Y193673D01*
X340355Y193703D01*
X340259Y193732D01*
X340140Y193777D01*
X340015Y193814D01*
X339881Y193851D01*
X339748Y193888D01*
X339741D01*
X339733Y193895D01*
X339689Y193903D01*
X339622Y193917D01*
X339534Y193932D01*
X339430Y193947D01*
X339312Y193954D01*
X339193Y193969D01*
X339016D01*
X338956Y193962D01*
X338882D01*
X338801Y193947D01*
X338712Y193932D01*
X338631Y193910D01*
X338564Y193880D01*
X338557Y193873D01*
X338542Y193866D01*
X338512Y193843D01*
X338483Y193814D01*
X338453Y193777D01*
X338424Y193732D01*
X338409Y193673D01*
X338401Y193614D01*
Y193606D01*
Y193592D01*
X338409Y193562D01*
X338416Y193533D01*
X338431Y193496D01*
X338453Y193458D01*
X338483Y193421D01*
X338520Y193392D01*
X338527D01*
X338542Y193377D01*
X338579Y193370D01*
X338623Y193348D01*
X338683Y193333D01*
X338764Y193310D01*
X338860Y193296D01*
X338971Y193281D01*
X339186Y193251D01*
X339193D01*
X339223Y193244D01*
X339275Y193236D01*
X339334Y193229D01*
X339408Y193214D01*
X339497Y193200D01*
X339585Y193177D01*
X339682Y193155D01*
X339889Y193103D01*
X340096Y193037D01*
X340192Y193000D01*
X340281Y192955D01*
X340355Y192911D01*
X340422Y192859D01*
X340429D01*
X340436Y192844D01*
X340473Y192807D01*
X340525Y192748D01*
X340584Y192652D01*
X340644Y192541D01*
X340695Y192393D01*
X340732Y192223D01*
X340747Y192127D01*
Y192023D01*
Y192016D01*
Y191993D01*
Y191964D01*
X340740Y191927D01*
X340732Y191875D01*
X340725Y191816D01*
X340695Y191683D01*
X340636Y191542D01*
X340607Y191461D01*
X340562Y191386D01*
X340510Y191320D01*
X340451Y191246D01*
X340385Y191179D01*
X340303Y191120D01*
X340296D01*
X340281Y191105D01*
X340259Y191091D01*
X340222Y191076D01*
X340177Y191053D01*
X340118Y191024D01*
X340052Y191002D01*
X339970Y190972D01*
X339881Y190943D01*
X339785Y190920D01*
X339682Y190891D01*
X339563Y190868D01*
X339430Y190854D01*
X339297Y190839D01*
X339141Y190824D01*
X338845D01*
X338749Y190831D01*
X338631Y190839D01*
X338498Y190846D01*
X338357Y190861D01*
X338209Y190883D01*
X338194D01*
X338172Y190891D01*
X338142Y190898D01*
X338061Y190905D01*
X337965Y190928D01*
X337839Y190950D01*
X337706Y190987D01*
X337558Y191016D01*
X337402Y191061D01*
Y191971D01*
X337410D01*
X337417Y191964D01*
X337462Y191941D01*
X337536Y191912D01*
X337624Y191875D01*
X337735Y191831D01*
X337861Y191786D01*
X337994Y191742D01*
X338135Y191705D01*
X338150D01*
X338172Y191697D01*
X338202Y191690D01*
X338276Y191683D01*
X338372Y191668D01*
X338490Y191653D01*
X338616Y191638D01*
X338757Y191631D01*
X338897Y191623D01*
X338956D01*
X339016Y191631D01*
X339097Y191638D01*
X339186Y191646D01*
X339275Y191668D01*
X339356Y191690D01*
X339430Y191719D01*
X339437Y191727D01*
X339460Y191734D01*
X339489Y191756D01*
X339519Y191794D01*
X339548Y191831D01*
X339578Y191882D01*
X339600Y191934D01*
X339608Y192001D01*
Y192008D01*
Y192030D01*
X339600Y192060D01*
X339593Y192089D01*
X339578Y192134D01*
X339556Y192171D01*
X339526Y192208D01*
X339482Y192237D01*
X339474Y192245D01*
X339460Y192252D01*
X339423Y192267D01*
X339371Y192282D01*
X339304Y192304D01*
X339223Y192326D01*
X339119Y192349D01*
X338993Y192363D01*
X338786Y192393D01*
X338779D01*
X338749Y192400D01*
X338712Y192408D01*
X338653Y192415D01*
X338586Y192422D01*
X338512Y192437D01*
X338431Y192459D01*
X338342Y192482D01*
X338157Y192526D01*
X337972Y192593D01*
X337883Y192630D01*
X337802Y192674D01*
X337728Y192719D01*
X337661Y192763D01*
X337647Y192778D01*
X337610Y192815D01*
X337558Y192881D01*
X337506Y192970D01*
X337447Y193088D01*
X337395Y193229D01*
X337358Y193399D01*
X337351Y193488D01*
X337343Y193592D01*
Y193599D01*
Y193621D01*
Y193651D01*
X337351Y193688D01*
X337358Y193740D01*
X337365Y193799D01*
X337395Y193925D01*
X337439Y194073D01*
X337513Y194221D01*
X337565Y194287D01*
X337617Y194361D01*
X337676Y194421D01*
X337750Y194480D01*
X337758D01*
X337772Y194494D01*
X337795Y194509D01*
X337824Y194524D01*
X337869Y194546D01*
X337920Y194569D01*
X337987Y194598D01*
X338061Y194628D01*
X338142Y194650D01*
X338231Y194679D01*
X338335Y194702D01*
X338453Y194724D01*
X338572Y194739D01*
X338705Y194754D01*
X338845Y194768D01*
X339127D01*
X339215Y194761D01*
D02*
G37*
G36*
X321774D02*
X321833Y194754D01*
X321892Y194746D01*
X322033Y194717D01*
X322195Y194672D01*
X322358Y194598D01*
X322440Y194554D01*
X322514Y194502D01*
X322588Y194443D01*
X322654Y194369D01*
X322662Y194361D01*
X322669Y194354D01*
X322684Y194324D01*
X322706Y194295D01*
X322736Y194250D01*
X322765Y194206D01*
X322795Y194139D01*
X322824Y194073D01*
X322854Y193999D01*
X322884Y193910D01*
X322913Y193814D01*
X322943Y193710D01*
X322965Y193599D01*
X322980Y193473D01*
X322995Y193348D01*
Y193207D01*
Y190920D01*
X321788D01*
Y191290D01*
Y192667D01*
Y192674D01*
Y192689D01*
Y192711D01*
Y192748D01*
Y192830D01*
Y192933D01*
X321781Y193044D01*
Y193155D01*
X321774Y193259D01*
X321766Y193340D01*
Y193348D01*
X321759Y193370D01*
Y193407D01*
X321751Y193444D01*
X321722Y193533D01*
X321707Y193577D01*
X321685Y193614D01*
Y193621D01*
X321670Y193636D01*
X321633Y193681D01*
X321574Y193740D01*
X321492Y193799D01*
X321485D01*
X321470Y193806D01*
X321448Y193821D01*
X321411Y193836D01*
X321330Y193858D01*
X321219Y193866D01*
X321204D01*
X321159Y193858D01*
X321093Y193851D01*
X321004Y193828D01*
X320915Y193791D01*
X320819Y193740D01*
X320723Y193666D01*
X320634Y193570D01*
X320627Y193555D01*
X320604Y193518D01*
X320567Y193451D01*
X320530Y193362D01*
X320486Y193251D01*
X320456Y193111D01*
X320427Y192948D01*
X320419Y192770D01*
Y190920D01*
X319221D01*
Y194679D01*
X320419D01*
Y194132D01*
X320434Y194139D01*
X320464Y194176D01*
X320523Y194236D01*
X320590Y194309D01*
X320678Y194384D01*
X320775Y194465D01*
X320878Y194539D01*
X320989Y194606D01*
X321004Y194613D01*
X321041Y194628D01*
X321108Y194657D01*
X321189Y194687D01*
X321293Y194717D01*
X321411Y194746D01*
X321537Y194761D01*
X321670Y194768D01*
X321729D01*
X321774Y194761D01*
D02*
G37*
G36*
X308631Y185759D02*
X308713D01*
X308809Y185752D01*
X308912Y185737D01*
X309023Y185722D01*
X309260Y185685D01*
X309497Y185626D01*
X309615Y185589D01*
X309726Y185545D01*
X309830Y185493D01*
X309919Y185434D01*
X309926D01*
X309941Y185419D01*
X309963Y185397D01*
X309993Y185367D01*
X310030Y185337D01*
X310067Y185293D01*
X310111Y185241D01*
X310156Y185175D01*
X310193Y185108D01*
X310237Y185034D01*
X310274Y184945D01*
X310311Y184849D01*
X310341Y184745D01*
X310363Y184634D01*
X310378Y184516D01*
X310385Y184383D01*
Y184375D01*
Y184361D01*
Y184338D01*
Y184301D01*
X310378Y184257D01*
X310370Y184213D01*
X310355Y184094D01*
X310326Y183961D01*
X310281Y183828D01*
X310222Y183687D01*
X310141Y183561D01*
X310133Y183547D01*
X310096Y183510D01*
X310037Y183450D01*
X309963Y183384D01*
X309860Y183310D01*
X309741Y183228D01*
X309593Y183154D01*
X309423Y183095D01*
X309438D01*
X309467Y183080D01*
X309519Y183066D01*
X309586Y183036D01*
X309652Y182999D01*
X309734Y182955D01*
X309815Y182895D01*
X309897Y182821D01*
X309904Y182814D01*
X309934Y182784D01*
X309971Y182733D01*
X310030Y182659D01*
X310089Y182570D01*
X310163Y182459D01*
X310237Y182326D01*
X310318Y182178D01*
X311021Y180757D01*
X309645D01*
X309038Y182000D01*
Y182007D01*
X309031Y182015D01*
X309009Y182059D01*
X308972Y182126D01*
X308920Y182200D01*
X308868Y182289D01*
X308801Y182370D01*
X308735Y182451D01*
X308661Y182511D01*
X308653Y182518D01*
X308624Y182533D01*
X308587Y182555D01*
X308528Y182585D01*
X308454Y182607D01*
X308365Y182629D01*
X308261Y182644D01*
X308150Y182651D01*
X307788D01*
Y180757D01*
X306500D01*
Y185767D01*
X308565D01*
X308631Y185759D01*
D02*
G37*
G36*
X313685Y184597D02*
X313759Y184590D01*
X313848Y184575D01*
X313944Y184560D01*
X314048Y184538D01*
X314159Y184509D01*
X314277Y184472D01*
X314396Y184427D01*
X314514Y184375D01*
X314633Y184316D01*
X314744Y184242D01*
X314855Y184161D01*
X314958Y184065D01*
X314966Y184057D01*
X314980Y184042D01*
X315010Y184013D01*
X315040Y183968D01*
X315084Y183917D01*
X315128Y183850D01*
X315173Y183776D01*
X315225Y183687D01*
X315276Y183591D01*
X315321Y183487D01*
X315365Y183369D01*
X315410Y183243D01*
X315439Y183103D01*
X315469Y182962D01*
X315484Y182807D01*
X315491Y182644D01*
Y182303D01*
X312679D01*
Y182296D01*
Y182289D01*
X312686Y182266D01*
Y182237D01*
X312701Y182155D01*
X312731Y182067D01*
X312768Y181963D01*
X312820Y181859D01*
X312886Y181756D01*
X312975Y181667D01*
X312990Y181660D01*
X313027Y181637D01*
X313086Y181600D01*
X313167Y181563D01*
X313271Y181526D01*
X313397Y181489D01*
X313545Y181467D01*
X313715Y181460D01*
X313782D01*
X313856Y181467D01*
X313952Y181475D01*
X314070Y181489D01*
X314203Y181504D01*
X314344Y181534D01*
X314492Y181571D01*
X314499D01*
X314507Y181578D01*
X314529Y181586D01*
X314559Y181593D01*
X314640Y181615D01*
X314744Y181652D01*
X314869Y181704D01*
X315010Y181763D01*
X315158Y181830D01*
X315313Y181911D01*
Y180986D01*
X315306D01*
X315291Y180979D01*
X315269Y180971D01*
X315239Y180957D01*
X315202Y180949D01*
X315158Y180927D01*
X315047Y180897D01*
X314914Y180853D01*
X314773Y180816D01*
X314618Y180779D01*
X314455Y180742D01*
X314433D01*
X314411Y180735D01*
X314381Y180727D01*
X314344Y180720D01*
X314300D01*
X314189Y180705D01*
X314063Y180690D01*
X313915Y180675D01*
X313767Y180668D01*
X313604Y180661D01*
X313508D01*
X313434Y180668D01*
X313352Y180675D01*
X313249Y180690D01*
X313145Y180705D01*
X313027Y180727D01*
X312901Y180749D01*
X312768Y180786D01*
X312635Y180831D01*
X312509Y180883D01*
X312376Y180942D01*
X312250Y181008D01*
X312131Y181090D01*
X312020Y181179D01*
X312013Y181186D01*
X311998Y181201D01*
X311969Y181230D01*
X311932Y181275D01*
X311887Y181327D01*
X311843Y181393D01*
X311791Y181467D01*
X311739Y181556D01*
X311687Y181652D01*
X311636Y181763D01*
X311591Y181882D01*
X311547Y182007D01*
X311510Y182148D01*
X311480Y182296D01*
X311465Y182459D01*
X311458Y182629D01*
Y182636D01*
Y182666D01*
X311465Y182718D01*
Y182784D01*
X311473Y182858D01*
X311488Y182947D01*
X311502Y183043D01*
X311525Y183154D01*
X311554Y183265D01*
X311591Y183384D01*
X311636Y183502D01*
X311695Y183628D01*
X311754Y183746D01*
X311828Y183857D01*
X311917Y183968D01*
X312013Y184072D01*
X312020Y184079D01*
X312043Y184094D01*
X312072Y184124D01*
X312117Y184153D01*
X312168Y184198D01*
X312242Y184242D01*
X312324Y184287D01*
X312413Y184338D01*
X312516Y184390D01*
X312627Y184435D01*
X312753Y184479D01*
X312894Y184523D01*
X313034Y184553D01*
X313197Y184583D01*
X313360Y184597D01*
X313537Y184605D01*
X313626D01*
X313685Y184597D01*
D02*
G37*
G36*
X318710Y180757D02*
X317393D01*
X315920Y184516D01*
X317119D01*
X318051Y181911D01*
X318984Y184516D01*
X320190D01*
X318710Y180757D01*
D02*
G37*
G36*
X322277D02*
X321063D01*
Y182052D01*
X322277D01*
Y180757D01*
D02*
G37*
G36*
X313345Y190920D02*
X312146D01*
Y194679D01*
X313345D01*
Y190920D01*
D02*
G37*
G36*
X336411D02*
X335212D01*
Y191468D01*
X335197Y191453D01*
X335168Y191416D01*
X335108Y191357D01*
X335034Y191283D01*
X334953Y191201D01*
X334857Y191120D01*
X334746Y191046D01*
X334635Y190980D01*
X334620Y190972D01*
X334583Y190957D01*
X334516Y190928D01*
X334435Y190905D01*
X334339Y190876D01*
X334220Y190846D01*
X334095Y190831D01*
X333961Y190824D01*
X333902D01*
X333858Y190831D01*
X333799Y190839D01*
X333739Y190846D01*
X333591Y190876D01*
X333436Y190920D01*
X333266Y190987D01*
X333184Y191031D01*
X333110Y191091D01*
X333036Y191150D01*
X332970Y191216D01*
Y191224D01*
X332955Y191238D01*
X332940Y191261D01*
X332918Y191290D01*
X332896Y191335D01*
X332866Y191386D01*
X332837Y191446D01*
X332807Y191512D01*
X332770Y191586D01*
X332740Y191675D01*
X332711Y191771D01*
X332689Y191875D01*
X332666Y191986D01*
X332652Y192112D01*
X332644Y192237D01*
X332637Y192378D01*
Y194679D01*
X333843D01*
Y194302D01*
Y194287D01*
Y194250D01*
Y194176D01*
Y194088D01*
Y193976D01*
Y193843D01*
X333836Y193695D01*
Y193533D01*
Y193525D01*
Y193510D01*
Y193488D01*
Y193458D01*
Y193377D01*
Y193281D01*
Y193185D01*
Y193081D01*
Y192992D01*
Y192918D01*
Y192911D01*
Y192896D01*
Y192874D01*
Y192844D01*
Y192763D01*
Y192667D01*
X333843Y192563D01*
Y192452D01*
X333850Y192356D01*
X333858Y192267D01*
Y192260D01*
X333865Y192237D01*
Y192201D01*
X333880Y192156D01*
X333902Y192060D01*
X333917Y192016D01*
X333939Y191979D01*
Y191971D01*
X333954Y191956D01*
X333991Y191912D01*
X334050Y191853D01*
X334132Y191794D01*
X334139D01*
X334154Y191786D01*
X334176Y191779D01*
X334213Y191764D01*
X334294Y191742D01*
X334405Y191734D01*
X334420D01*
X334465Y191742D01*
X334531Y191749D01*
X334620Y191771D01*
X334709Y191801D01*
X334805Y191853D01*
X334901Y191919D01*
X334990Y192016D01*
X334997Y192030D01*
X335027Y192067D01*
X335064Y192134D01*
X335101Y192223D01*
X335145Y192341D01*
X335175Y192474D01*
X335205Y192637D01*
X335212Y192822D01*
Y194679D01*
X336411D01*
Y190920D01*
D02*
G37*
G36*
X316446Y194761D02*
X316527Y194754D01*
X316616Y194739D01*
X316727Y194724D01*
X316838Y194702D01*
X316956Y194672D01*
X317082Y194642D01*
X317208Y194598D01*
X317334Y194546D01*
X317459Y194487D01*
X317578Y194413D01*
X317696Y194339D01*
X317800Y194243D01*
X317807Y194236D01*
X317822Y194221D01*
X317852Y194191D01*
X317889Y194147D01*
X317926Y194095D01*
X317970Y194028D01*
X318022Y193954D01*
X318074Y193866D01*
X318125Y193769D01*
X318177Y193658D01*
X318222Y193540D01*
X318259Y193407D01*
X318296Y193273D01*
X318325Y193118D01*
X318340Y192963D01*
X318347Y192792D01*
Y192785D01*
Y192755D01*
Y192704D01*
X318340Y192637D01*
X318333Y192563D01*
X318318Y192474D01*
X318303Y192371D01*
X318281Y192267D01*
X318251Y192149D01*
X318214Y192030D01*
X318170Y191912D01*
X318118Y191794D01*
X318051Y191668D01*
X317977Y191557D01*
X317896Y191446D01*
X317800Y191342D01*
X317792Y191335D01*
X317778Y191320D01*
X317741Y191298D01*
X317696Y191261D01*
X317644Y191224D01*
X317578Y191179D01*
X317496Y191135D01*
X317408Y191083D01*
X317304Y191039D01*
X317186Y190987D01*
X317067Y190943D01*
X316927Y190905D01*
X316786Y190868D01*
X316623Y190846D01*
X316460Y190831D01*
X316283Y190824D01*
X316187D01*
X316120Y190831D01*
X316039Y190839D01*
X315950Y190854D01*
X315846Y190868D01*
X315728Y190891D01*
X315609Y190913D01*
X315484Y190950D01*
X315358Y190994D01*
X315232Y191046D01*
X315106Y191105D01*
X314988Y191172D01*
X314877Y191253D01*
X314766Y191342D01*
X314758Y191349D01*
X314744Y191364D01*
X314714Y191394D01*
X314677Y191438D01*
X314640Y191490D01*
X314596Y191557D01*
X314544Y191631D01*
X314492Y191719D01*
X314440Y191816D01*
X314388Y191927D01*
X314344Y192045D01*
X314307Y192178D01*
X314270Y192319D01*
X314240Y192467D01*
X314226Y192622D01*
X314218Y192792D01*
Y192800D01*
Y192837D01*
X314226Y192881D01*
Y192948D01*
X314233Y193022D01*
X314248Y193111D01*
X314263Y193214D01*
X314285Y193318D01*
X314314Y193436D01*
X314351Y193555D01*
X314396Y193673D01*
X314448Y193791D01*
X314514Y193917D01*
X314588Y194028D01*
X314670Y194139D01*
X314766Y194243D01*
X314773Y194250D01*
X314788Y194265D01*
X314825Y194295D01*
X314869Y194324D01*
X314921Y194361D01*
X314988Y194406D01*
X315069Y194457D01*
X315158Y194509D01*
X315262Y194554D01*
X315380Y194606D01*
X315498Y194650D01*
X315639Y194687D01*
X315780Y194717D01*
X315942Y194746D01*
X316105Y194761D01*
X316283Y194768D01*
X316379D01*
X316446Y194761D01*
D02*
G37*
G36*
X308135Y195923D02*
X308246D01*
X308365Y195915D01*
X308498Y195908D01*
X308772Y195893D01*
X309053Y195863D01*
X309194Y195841D01*
X309319Y195819D01*
X309445Y195797D01*
X309556Y195767D01*
X309564D01*
X309578Y195760D01*
X309608Y195753D01*
X309652Y195738D01*
X309697Y195715D01*
X309756Y195693D01*
X309889Y195634D01*
X310037Y195560D01*
X310200Y195464D01*
X310363Y195345D01*
X310518Y195212D01*
X310526D01*
X310533Y195197D01*
X310577Y195153D01*
X310637Y195079D01*
X310711Y194990D01*
X310799Y194872D01*
X310881Y194739D01*
X310962Y194591D01*
X311036Y194428D01*
Y194421D01*
X311044Y194406D01*
X311051Y194384D01*
X311066Y194346D01*
X311081Y194309D01*
X311095Y194258D01*
X311110Y194199D01*
X311125Y194139D01*
X311155Y193991D01*
X311184Y193821D01*
X311206Y193629D01*
X311214Y193429D01*
Y193421D01*
Y193407D01*
Y193377D01*
Y193333D01*
X311206Y193281D01*
Y193229D01*
X311192Y193088D01*
X311169Y192933D01*
X311140Y192763D01*
X311095Y192585D01*
X311036Y192415D01*
Y192408D01*
X311029Y192393D01*
X311021Y192371D01*
X311007Y192341D01*
X310962Y192260D01*
X310910Y192149D01*
X310836Y192030D01*
X310748Y191897D01*
X310644Y191764D01*
X310518Y191631D01*
X310511Y191623D01*
X310503Y191616D01*
X310474Y191594D01*
X310444Y191564D01*
X310407Y191534D01*
X310363Y191498D01*
X310244Y191416D01*
X310104Y191320D01*
X309941Y191231D01*
X309749Y191150D01*
X309549Y191076D01*
X309541D01*
X309519Y191068D01*
X309490Y191061D01*
X309445Y191053D01*
X309386Y191039D01*
X309312Y191024D01*
X309223Y191009D01*
X309127Y191002D01*
X309016Y190987D01*
X308890Y190972D01*
X308750Y190957D01*
X308594Y190943D01*
X308431Y190935D01*
X308254Y190928D01*
X308061Y190920D01*
X306500D01*
Y195930D01*
X308039D01*
X308135Y195923D01*
D02*
G37*
G36*
X328635Y185715D02*
X328746D01*
X328865Y185707D01*
X328998Y185700D01*
X329272Y185685D01*
X329553Y185656D01*
X329694Y185633D01*
X329819Y185611D01*
X329945Y185589D01*
X330056Y185559D01*
X330064D01*
X330078Y185552D01*
X330108Y185545D01*
X330152Y185530D01*
X330197Y185508D01*
X330256Y185485D01*
X330389Y185426D01*
X330537Y185352D01*
X330700Y185256D01*
X330863Y185138D01*
X331018Y185004D01*
X331026D01*
X331033Y184990D01*
X331077Y184945D01*
X331137Y184871D01*
X331211Y184782D01*
X331299Y184664D01*
X331381Y184531D01*
X331462Y184383D01*
X331536Y184220D01*
Y184213D01*
X331544Y184198D01*
X331551Y184176D01*
X331566Y184139D01*
X331581Y184102D01*
X331595Y184050D01*
X331610Y183991D01*
X331625Y183931D01*
X331655Y183783D01*
X331684Y183613D01*
X331706Y183421D01*
X331714Y183221D01*
Y183214D01*
Y183199D01*
Y183169D01*
Y183125D01*
X331706Y183073D01*
Y183021D01*
X331692Y182881D01*
X331669Y182725D01*
X331640Y182555D01*
X331595Y182377D01*
X331536Y182207D01*
Y182200D01*
X331529Y182185D01*
X331521Y182163D01*
X331507Y182133D01*
X331462Y182052D01*
X331410Y181941D01*
X331336Y181822D01*
X331248Y181689D01*
X331144Y181556D01*
X331018Y181423D01*
X331011Y181415D01*
X331003Y181408D01*
X330974Y181386D01*
X330944Y181356D01*
X330907Y181327D01*
X330863Y181290D01*
X330744Y181208D01*
X330604Y181112D01*
X330441Y181023D01*
X330249Y180942D01*
X330049Y180868D01*
X330041D01*
X330019Y180860D01*
X329990Y180853D01*
X329945Y180846D01*
X329886Y180831D01*
X329812Y180816D01*
X329723Y180801D01*
X329627Y180794D01*
X329516Y180779D01*
X329390Y180764D01*
X329250Y180749D01*
X329094Y180735D01*
X328931Y180727D01*
X328754Y180720D01*
X328561Y180712D01*
X327000D01*
Y185722D01*
X328539D01*
X328635Y185715D01*
D02*
G37*
G36*
X326302Y190565D02*
Y190558D01*
X326295Y190535D01*
X326280Y190506D01*
X326258Y190462D01*
X326236Y190417D01*
X326214Y190358D01*
X326147Y190225D01*
X326066Y190077D01*
X325969Y189936D01*
X325866Y189803D01*
X325807Y189744D01*
X325747Y189692D01*
X325733Y189684D01*
X325688Y189655D01*
X325622Y189611D01*
X325525Y189566D01*
X325407Y189522D01*
X325259Y189477D01*
X325096Y189448D01*
X324911Y189440D01*
X324216D01*
Y190225D01*
X324645D01*
X324697Y190232D01*
X324763Y190240D01*
X324911Y190269D01*
X324978Y190291D01*
X325037Y190328D01*
X325044Y190336D01*
X325059Y190350D01*
X325089Y190373D01*
X325118Y190410D01*
X325148Y190454D01*
X325185Y190513D01*
X325222Y190587D01*
X325252Y190676D01*
X325289Y190780D01*
X323616Y194679D01*
X324815D01*
X325821Y192127D01*
X326680Y194679D01*
X327886D01*
X326302Y190565D01*
D02*
G37*
G36*
X330239Y194761D02*
X330343Y194754D01*
X330461Y194746D01*
X330587Y194731D01*
X330720Y194709D01*
X330735D01*
X330757Y194702D01*
X330787D01*
X330861Y194687D01*
X330957Y194672D01*
X331075Y194650D01*
X331216Y194620D01*
X331364Y194591D01*
X331519Y194554D01*
Y193643D01*
X331512D01*
X331505Y193651D01*
X331482Y193658D01*
X331453Y193673D01*
X331379Y193703D01*
X331283Y193732D01*
X331164Y193777D01*
X331038Y193814D01*
X330905Y193851D01*
X330772Y193888D01*
X330765D01*
X330757Y193895D01*
X330713Y193903D01*
X330646Y193917D01*
X330557Y193932D01*
X330454Y193947D01*
X330335Y193954D01*
X330217Y193969D01*
X330039D01*
X329980Y193962D01*
X329906D01*
X329825Y193947D01*
X329736Y193932D01*
X329655Y193910D01*
X329588Y193880D01*
X329581Y193873D01*
X329566Y193866D01*
X329536Y193843D01*
X329507Y193814D01*
X329477Y193777D01*
X329447Y193732D01*
X329433Y193673D01*
X329425Y193614D01*
Y193606D01*
Y193592D01*
X329433Y193562D01*
X329440Y193533D01*
X329455Y193496D01*
X329477Y193458D01*
X329507Y193421D01*
X329544Y193392D01*
X329551D01*
X329566Y193377D01*
X329603Y193370D01*
X329647Y193348D01*
X329706Y193333D01*
X329788Y193310D01*
X329884Y193296D01*
X329995Y193281D01*
X330210Y193251D01*
X330217D01*
X330247Y193244D01*
X330298Y193236D01*
X330358Y193229D01*
X330432Y193214D01*
X330520Y193200D01*
X330609Y193177D01*
X330705Y193155D01*
X330913Y193103D01*
X331120Y193037D01*
X331216Y193000D01*
X331305Y192955D01*
X331379Y192911D01*
X331445Y192859D01*
X331453D01*
X331460Y192844D01*
X331497Y192807D01*
X331549Y192748D01*
X331608Y192652D01*
X331667Y192541D01*
X331719Y192393D01*
X331756Y192223D01*
X331771Y192127D01*
Y192023D01*
Y192016D01*
Y191993D01*
Y191964D01*
X331764Y191927D01*
X331756Y191875D01*
X331749Y191816D01*
X331719Y191683D01*
X331660Y191542D01*
X331630Y191461D01*
X331586Y191386D01*
X331534Y191320D01*
X331475Y191246D01*
X331408Y191179D01*
X331327Y191120D01*
X331320D01*
X331305Y191105D01*
X331283Y191091D01*
X331246Y191076D01*
X331201Y191053D01*
X331142Y191024D01*
X331075Y191002D01*
X330994Y190972D01*
X330905Y190943D01*
X330809Y190920D01*
X330705Y190891D01*
X330587Y190868D01*
X330454Y190854D01*
X330321Y190839D01*
X330165Y190824D01*
X329869D01*
X329773Y190831D01*
X329655Y190839D01*
X329521Y190846D01*
X329381Y190861D01*
X329233Y190883D01*
X329218D01*
X329196Y190891D01*
X329166Y190898D01*
X329085Y190905D01*
X328989Y190928D01*
X328863Y190950D01*
X328730Y190987D01*
X328582Y191016D01*
X328426Y191061D01*
Y191971D01*
X328434D01*
X328441Y191964D01*
X328485Y191941D01*
X328559Y191912D01*
X328648Y191875D01*
X328759Y191831D01*
X328885Y191786D01*
X329018Y191742D01*
X329159Y191705D01*
X329174D01*
X329196Y191697D01*
X329225Y191690D01*
X329299Y191683D01*
X329396Y191668D01*
X329514Y191653D01*
X329640Y191638D01*
X329780Y191631D01*
X329921Y191623D01*
X329980D01*
X330039Y191631D01*
X330121Y191638D01*
X330210Y191646D01*
X330298Y191668D01*
X330380Y191690D01*
X330454Y191719D01*
X330461Y191727D01*
X330483Y191734D01*
X330513Y191756D01*
X330543Y191794D01*
X330572Y191831D01*
X330602Y191882D01*
X330624Y191934D01*
X330631Y192001D01*
Y192008D01*
Y192030D01*
X330624Y192060D01*
X330617Y192089D01*
X330602Y192134D01*
X330580Y192171D01*
X330550Y192208D01*
X330506Y192237D01*
X330498Y192245D01*
X330483Y192252D01*
X330446Y192267D01*
X330395Y192282D01*
X330328Y192304D01*
X330247Y192326D01*
X330143Y192349D01*
X330017Y192363D01*
X329810Y192393D01*
X329803D01*
X329773Y192400D01*
X329736Y192408D01*
X329677Y192415D01*
X329610Y192422D01*
X329536Y192437D01*
X329455Y192459D01*
X329366Y192482D01*
X329181Y192526D01*
X328996Y192593D01*
X328907Y192630D01*
X328826Y192674D01*
X328752Y192719D01*
X328685Y192763D01*
X328670Y192778D01*
X328633Y192815D01*
X328582Y192881D01*
X328530Y192970D01*
X328471Y193088D01*
X328419Y193229D01*
X328382Y193399D01*
X328374Y193488D01*
X328367Y193592D01*
Y193599D01*
Y193621D01*
Y193651D01*
X328374Y193688D01*
X328382Y193740D01*
X328389Y193799D01*
X328419Y193925D01*
X328463Y194073D01*
X328537Y194221D01*
X328589Y194287D01*
X328641Y194361D01*
X328700Y194421D01*
X328774Y194480D01*
X328781D01*
X328796Y194494D01*
X328818Y194509D01*
X328848Y194524D01*
X328892Y194546D01*
X328944Y194569D01*
X329011Y194598D01*
X329085Y194628D01*
X329166Y194650D01*
X329255Y194679D01*
X329359Y194702D01*
X329477Y194724D01*
X329595Y194739D01*
X329729Y194754D01*
X329869Y194768D01*
X330150D01*
X330239Y194761D01*
D02*
G37*
%LPC*%
G36*
X308328Y184834D02*
X307788D01*
Y183547D01*
X308394D01*
X308468Y183554D01*
X308557Y183569D01*
X308653Y183584D01*
X308750Y183606D01*
X308846Y183643D01*
X308920Y183695D01*
X308927Y183702D01*
X308949Y183724D01*
X308979Y183761D01*
X309009Y183813D01*
X309038Y183880D01*
X309068Y183968D01*
X309090Y184072D01*
X309097Y184190D01*
Y184198D01*
Y184205D01*
Y184250D01*
X309090Y184309D01*
X309075Y184383D01*
X309053Y184464D01*
X309023Y184546D01*
X308979Y184620D01*
X308920Y184686D01*
X308912Y184694D01*
X308883Y184708D01*
X308838Y184731D01*
X308779Y184760D01*
X308698Y184790D01*
X308594Y184812D01*
X308476Y184827D01*
X308328Y184834D01*
D02*
G37*
G36*
X313530Y183806D02*
X313471D01*
X313412Y183798D01*
X313330Y183783D01*
X313241Y183754D01*
X313145Y183724D01*
X313049Y183672D01*
X312960Y183606D01*
X312953Y183598D01*
X312923Y183569D01*
X312886Y183524D01*
X312849Y183458D01*
X312797Y183384D01*
X312753Y183288D01*
X312716Y183169D01*
X312686Y183043D01*
X314255D01*
Y183051D01*
Y183058D01*
Y183103D01*
X314248Y183162D01*
X314233Y183243D01*
X314203Y183325D01*
X314166Y183421D01*
X314115Y183510D01*
X314048Y183591D01*
X314041Y183598D01*
X314011Y183628D01*
X313967Y183658D01*
X313907Y183702D01*
X313833Y183739D01*
X313745Y183776D01*
X313641Y183798D01*
X313530Y183806D01*
D02*
G37*
G36*
X328746Y184745D02*
X328288D01*
Y181689D01*
X328820D01*
X328880Y181697D01*
X328946Y181704D01*
X329020Y181711D01*
X329102Y181719D01*
X329198Y181741D01*
X329390Y181785D01*
X329590Y181852D01*
X329694Y181896D01*
X329790Y181956D01*
X329879Y182015D01*
X329960Y182081D01*
X329967Y182089D01*
X329975Y182104D01*
X329997Y182126D01*
X330027Y182155D01*
X330056Y182192D01*
X330093Y182244D01*
X330130Y182303D01*
X330175Y182370D01*
X330212Y182444D01*
X330249Y182533D01*
X330286Y182629D01*
X330315Y182725D01*
X330345Y182836D01*
X330367Y182955D01*
X330374Y183088D01*
X330382Y183221D01*
Y183228D01*
Y183251D01*
Y183295D01*
X330374Y183339D01*
X330367Y183406D01*
X330360Y183473D01*
X330345Y183554D01*
X330330Y183643D01*
X330278Y183820D01*
X330249Y183917D01*
X330204Y184013D01*
X330152Y184102D01*
X330101Y184190D01*
X330034Y184279D01*
X329960Y184353D01*
X329953Y184361D01*
X329938Y184368D01*
X329916Y184390D01*
X329886Y184412D01*
X329842Y184442D01*
X329790Y184479D01*
X329723Y184516D01*
X329657Y184553D01*
X329575Y184583D01*
X329479Y184620D01*
X329383Y184657D01*
X329272Y184686D01*
X329153Y184708D01*
X329028Y184731D01*
X328894Y184738D01*
X328746Y184745D01*
D02*
G37*
G36*
X344899Y202749D02*
X344839D01*
X344780Y202741D01*
X344699Y202727D01*
X344610Y202697D01*
X344514Y202667D01*
X344418Y202616D01*
X344329Y202549D01*
X344321Y202542D01*
X344292Y202512D01*
X344255Y202468D01*
X344218Y202401D01*
X344166Y202327D01*
X344122Y202231D01*
X344085Y202112D01*
X344055Y201987D01*
X345624D01*
Y201994D01*
Y202001D01*
Y202046D01*
X345616Y202105D01*
X345602Y202186D01*
X345572Y202268D01*
X345535Y202364D01*
X345483Y202453D01*
X345417Y202534D01*
X345409Y202542D01*
X345380Y202571D01*
X345335Y202601D01*
X345276Y202645D01*
X345202Y202682D01*
X345113Y202719D01*
X345010Y202741D01*
X344899Y202749D01*
D02*
G37*
G36*
X339208Y203733D02*
X338749D01*
Y200677D01*
X339282D01*
X339341Y200684D01*
X339408Y200692D01*
X339482Y200699D01*
X339563Y200706D01*
X339659Y200729D01*
X339852Y200773D01*
X340052Y200840D01*
X340155Y200884D01*
X340251Y200943D01*
X340340Y201002D01*
X340422Y201069D01*
X340429Y201076D01*
X340436Y201091D01*
X340459Y201113D01*
X340488Y201143D01*
X340518Y201180D01*
X340555Y201232D01*
X340592Y201291D01*
X340636Y201358D01*
X340673Y201432D01*
X340710Y201520D01*
X340747Y201617D01*
X340777Y201713D01*
X340806Y201824D01*
X340829Y201942D01*
X340836Y202075D01*
X340843Y202209D01*
Y202216D01*
Y202238D01*
Y202283D01*
X340836Y202327D01*
X340829Y202394D01*
X340821Y202460D01*
X340806Y202542D01*
X340792Y202630D01*
X340740Y202808D01*
X340710Y202904D01*
X340666Y203000D01*
X340614Y203089D01*
X340562Y203178D01*
X340496Y203267D01*
X340422Y203341D01*
X340414Y203348D01*
X340399Y203356D01*
X340377Y203378D01*
X340348Y203400D01*
X340303Y203430D01*
X340251Y203467D01*
X340185Y203504D01*
X340118Y203541D01*
X340037Y203570D01*
X339941Y203607D01*
X339844Y203644D01*
X339733Y203674D01*
X339615Y203696D01*
X339489Y203718D01*
X339356Y203726D01*
X339208Y203733D01*
D02*
G37*
G36*
X316283Y193910D02*
X316246D01*
X316216Y193903D01*
X316142Y193895D01*
X316061Y193873D01*
X315957Y193843D01*
X315861Y193791D01*
X315765Y193718D01*
X315676Y193621D01*
X315669Y193606D01*
X315646Y193570D01*
X315609Y193503D01*
X315572Y193407D01*
X315535Y193296D01*
X315498Y193148D01*
X315476Y192985D01*
X315469Y192792D01*
Y192785D01*
Y192770D01*
Y192741D01*
Y192704D01*
X315476Y192659D01*
X315484Y192607D01*
X315498Y192489D01*
X315521Y192356D01*
X315558Y192215D01*
X315609Y192082D01*
X315676Y191964D01*
X315683Y191949D01*
X315713Y191919D01*
X315765Y191875D01*
X315831Y191823D01*
X315913Y191771D01*
X316016Y191727D01*
X316142Y191697D01*
X316283Y191683D01*
X316320D01*
X316349Y191690D01*
X316416Y191697D01*
X316505Y191719D01*
X316601Y191749D01*
X316705Y191801D01*
X316801Y191867D01*
X316882Y191964D01*
X316890Y191979D01*
X316919Y192016D01*
X316949Y192082D01*
X316993Y192178D01*
X317030Y192297D01*
X317067Y192437D01*
X317089Y192600D01*
X317097Y192792D01*
Y192800D01*
Y192815D01*
Y192844D01*
Y192881D01*
X317089Y192926D01*
Y192977D01*
X317067Y193096D01*
X317045Y193229D01*
X317008Y193370D01*
X316956Y193503D01*
X316882Y193621D01*
X316875Y193636D01*
X316845Y193666D01*
X316793Y193710D01*
X316727Y193769D01*
X316645Y193821D01*
X316542Y193866D01*
X316423Y193895D01*
X316283Y193910D01*
D02*
G37*
G36*
X308246Y194953D02*
X307788D01*
Y191897D01*
X308320D01*
X308380Y191904D01*
X308446Y191912D01*
X308520Y191919D01*
X308602Y191927D01*
X308698Y191949D01*
X308890Y191993D01*
X309090Y192060D01*
X309194Y192104D01*
X309290Y192164D01*
X309379Y192223D01*
X309460Y192289D01*
X309467Y192297D01*
X309475Y192312D01*
X309497Y192334D01*
X309527Y192363D01*
X309556Y192400D01*
X309593Y192452D01*
X309630Y192511D01*
X309675Y192578D01*
X309712Y192652D01*
X309749Y192741D01*
X309786Y192837D01*
X309815Y192933D01*
X309845Y193044D01*
X309867Y193163D01*
X309874Y193296D01*
X309882Y193429D01*
Y193436D01*
Y193458D01*
Y193503D01*
X309874Y193547D01*
X309867Y193614D01*
X309860Y193681D01*
X309845Y193762D01*
X309830Y193851D01*
X309778Y194028D01*
X309749Y194124D01*
X309704Y194221D01*
X309652Y194309D01*
X309601Y194398D01*
X309534Y194487D01*
X309460Y194561D01*
X309453Y194569D01*
X309438Y194576D01*
X309416Y194598D01*
X309386Y194620D01*
X309342Y194650D01*
X309290Y194687D01*
X309223Y194724D01*
X309157Y194761D01*
X309075Y194790D01*
X308979Y194827D01*
X308883Y194864D01*
X308772Y194894D01*
X308653Y194916D01*
X308528Y194939D01*
X308394Y194946D01*
X308246Y194953D01*
D02*
G37*
G36*
X313560Y202690D02*
X313523D01*
X313493Y202682D01*
X313419Y202675D01*
X313338Y202653D01*
X313234Y202623D01*
X313138Y202571D01*
X313042Y202497D01*
X312953Y202401D01*
X312945Y202386D01*
X312923Y202349D01*
X312886Y202283D01*
X312849Y202186D01*
X312812Y202075D01*
X312775Y201927D01*
X312753Y201765D01*
X312746Y201572D01*
Y201565D01*
Y201550D01*
Y201520D01*
Y201483D01*
X312753Y201439D01*
X312760Y201387D01*
X312775Y201269D01*
X312797Y201136D01*
X312834Y200995D01*
X312886Y200862D01*
X312953Y200743D01*
X312960Y200729D01*
X312990Y200699D01*
X313042Y200655D01*
X313108Y200603D01*
X313190Y200551D01*
X313293Y200507D01*
X313419Y200477D01*
X313560Y200462D01*
X313597D01*
X313626Y200470D01*
X313693Y200477D01*
X313782Y200499D01*
X313878Y200529D01*
X313981Y200581D01*
X314078Y200647D01*
X314159Y200743D01*
X314166Y200758D01*
X314196Y200795D01*
X314226Y200862D01*
X314270Y200958D01*
X314307Y201076D01*
X314344Y201217D01*
X314366Y201380D01*
X314374Y201572D01*
Y201580D01*
Y201594D01*
Y201624D01*
Y201661D01*
X314366Y201705D01*
Y201757D01*
X314344Y201876D01*
X314322Y202009D01*
X314285Y202149D01*
X314233Y202283D01*
X314159Y202401D01*
X314152Y202416D01*
X314122Y202445D01*
X314070Y202490D01*
X314004Y202549D01*
X313922Y202601D01*
X313819Y202645D01*
X313700Y202675D01*
X313560Y202690D01*
D02*
G37*
G36*
X327797Y201387D02*
X327116D01*
X327050Y201380D01*
X326961Y201372D01*
X326872Y201358D01*
X326776Y201328D01*
X326687Y201298D01*
X326613Y201254D01*
X326606Y201247D01*
X326584Y201232D01*
X326554Y201202D01*
X326524Y201158D01*
X326487Y201106D01*
X326458Y201047D01*
X326436Y200973D01*
X326428Y200884D01*
Y200877D01*
Y200847D01*
X326436Y200803D01*
X326450Y200751D01*
X326465Y200699D01*
X326487Y200640D01*
X326524Y200581D01*
X326576Y200529D01*
X326584Y200521D01*
X326606Y200507D01*
X326635Y200492D01*
X326687Y200470D01*
X326746Y200440D01*
X326820Y200425D01*
X326902Y200410D01*
X326998Y200403D01*
X327013D01*
X327057Y200410D01*
X327116Y200418D01*
X327190Y200433D01*
X327279Y200462D01*
X327375Y200507D01*
X327472Y200558D01*
X327560Y200640D01*
X327568Y200655D01*
X327597Y200684D01*
X327634Y200736D01*
X327679Y200810D01*
X327723Y200899D01*
X327760Y201002D01*
X327790Y201113D01*
X327797Y201247D01*
Y201387D01*
D02*
G37*
G36*
X355962Y202675D02*
X355947D01*
X355902Y202667D01*
X355836Y202660D01*
X355754Y202638D01*
X355658Y202608D01*
X355562Y202556D01*
X355466Y202490D01*
X355384Y202394D01*
X355377Y202379D01*
X355355Y202342D01*
X355318Y202283D01*
X355281Y202194D01*
X355244Y202083D01*
X355207Y201950D01*
X355185Y201794D01*
X355177Y201617D01*
Y201609D01*
Y201594D01*
Y201565D01*
Y201535D01*
X355185Y201491D01*
Y201439D01*
X355199Y201328D01*
X355229Y201202D01*
X355259Y201076D01*
X355310Y200951D01*
X355377Y200840D01*
X355384Y200825D01*
X355414Y200795D01*
X355458Y200758D01*
X355525Y200706D01*
X355606Y200655D01*
X355710Y200618D01*
X355828Y200588D01*
X355962Y200573D01*
X355976D01*
X356021Y200581D01*
X356095Y200588D01*
X356176Y200610D01*
X356272Y200640D01*
X356369Y200692D01*
X356465Y200758D01*
X356546Y200847D01*
X356554Y200862D01*
X356583Y200899D01*
X356613Y200958D01*
X356657Y201047D01*
X356694Y201158D01*
X356731Y201291D01*
X356753Y201439D01*
X356761Y201617D01*
Y201624D01*
Y201639D01*
Y201668D01*
Y201698D01*
X356753Y201742D01*
Y201787D01*
X356731Y201905D01*
X356709Y202031D01*
X356672Y202157D01*
X356620Y202283D01*
X356546Y202394D01*
X356539Y202408D01*
X356509Y202438D01*
X356457Y202482D01*
X356398Y202534D01*
X356309Y202586D01*
X356213Y202630D01*
X356095Y202660D01*
X355962Y202675D01*
D02*
G37*
G36*
X322573D02*
X322558D01*
X322506Y202667D01*
X322440Y202660D01*
X322358Y202638D01*
X322262Y202608D01*
X322158Y202556D01*
X322070Y202482D01*
X321981Y202386D01*
X321973Y202371D01*
X321951Y202334D01*
X321914Y202268D01*
X321885Y202179D01*
X321848Y202061D01*
X321811Y201927D01*
X321788Y201757D01*
X321781Y201572D01*
Y201565D01*
Y201550D01*
Y201520D01*
Y201483D01*
X321788Y201439D01*
Y201387D01*
X321803Y201269D01*
X321833Y201143D01*
X321862Y201002D01*
X321914Y200877D01*
X321981Y200758D01*
X321988Y200743D01*
X322018Y200714D01*
X322070Y200669D01*
X322136Y200618D01*
X322218Y200566D01*
X322321Y200521D01*
X322440Y200492D01*
X322573Y200477D01*
X322610D01*
X322639Y200484D01*
X322706Y200492D01*
X322795Y200514D01*
X322891Y200544D01*
X322987Y200595D01*
X323083Y200662D01*
X323165Y200758D01*
X323172Y200773D01*
X323194Y200810D01*
X323231Y200877D01*
X323268Y200965D01*
X323305Y201084D01*
X323342Y201217D01*
X323365Y201387D01*
X323372Y201572D01*
Y201580D01*
Y201594D01*
Y201624D01*
Y201661D01*
X323365Y201705D01*
Y201757D01*
X323350Y201876D01*
X323320Y202009D01*
X323283Y202142D01*
X323231Y202268D01*
X323165Y202386D01*
X323157Y202401D01*
X323128Y202431D01*
X323083Y202475D01*
X323017Y202534D01*
X322935Y202586D01*
X322832Y202630D01*
X322713Y202660D01*
X322573Y202675D01*
D02*
G37*
%LPD*%
D34*
X263519Y173068D02*
X265881D01*
X265896Y20526D02*
X268258D01*
X305819Y25732D02*
X308181D01*
X139519Y153500D02*
X141881D01*
X47019Y106100D02*
X49381D01*
X42919D02*
X45281D01*
X42919Y95200D02*
X45281D01*
X47119D02*
X49481D01*
X99900Y120119D02*
Y122481D01*
X57600Y121519D02*
Y123881D01*
X105019Y89500D02*
X107381D01*
X43119Y87200D02*
X45481D01*
X93800Y131219D02*
Y133581D01*
Y126819D02*
Y129181D01*
X83300Y126919D02*
Y129281D01*
X92300Y67619D02*
Y69981D01*
X106019Y106400D02*
X108381D01*
X73600Y67519D02*
Y69881D01*
X5719Y155800D02*
X8081D01*
X25019Y136568D02*
X27381D01*
X56419Y137531D02*
X58781D01*
X348326Y104043D02*
X350688D01*
X346819Y121500D02*
X349181D01*
X352550Y104043D02*
X354913D01*
X287259Y121602D02*
X289621D01*
X287273Y130560D02*
X289635D01*
X280795Y104002D02*
X283157D01*
X303502Y52292D02*
Y54654D01*
X285608Y104002D02*
X287970D01*
X306821Y147280D02*
Y149642D01*
X369619Y114131D02*
X371981D01*
X359619D02*
X361981D01*
X363268Y22219D02*
Y24581D01*
X348619Y29932D02*
X350981D01*
X99831Y190719D02*
Y193081D01*
X194619Y38400D02*
X196981D01*
X169800Y39119D02*
Y41481D01*
X222725Y38500D02*
X225087D01*
X271534Y52285D02*
Y54647D01*
X251819Y113200D02*
X254181D01*
X247519D02*
X249881D01*
X252600Y65813D02*
Y68175D01*
X173513Y144900D02*
X175875D01*
X226800Y140719D02*
Y143081D01*
X203119Y144900D02*
X205481D01*
X253574Y83150D02*
Y85513D01*
X199119Y38400D02*
X201481D01*
X146300Y89919D02*
Y92281D01*
X206977Y144900D02*
X209339D01*
X203619Y38400D02*
X205981D01*
X250319Y91369D02*
X252681D01*
X232568Y38500D02*
X234930D01*
X198304Y145123D02*
Y147485D01*
X253919Y91268D02*
X256281D01*
X143319Y85700D02*
X145681D01*
X146719D02*
X149081D01*
X198304Y141623D02*
Y143985D01*
X145332Y73687D02*
Y76049D01*
X146300Y93419D02*
Y95781D01*
X145109Y99910D02*
Y102272D01*
X48319Y12369D02*
X50681D01*
X89653Y25831D02*
X92016D01*
X77994Y162200D02*
X80356D01*
X159300Y146100D02*
Y149099D01*
X160800D01*
X161299Y148599D01*
Y147599D01*
X160800Y147100D01*
X159300D01*
X160300D02*
X161299Y146100D01*
X164298D02*
X162299D01*
X164298Y148099D01*
Y148599D01*
X163799Y149099D01*
X162799D01*
X162299Y148599D01*
X165298D02*
X165798Y149099D01*
X166798D01*
X167297Y148599D01*
Y148099D01*
X166798Y147599D01*
X166298D01*
X166798D01*
X167297Y147100D01*
Y146600D01*
X166798Y146100D01*
X165798D01*
X165298Y146600D01*
X141550Y129550D02*
Y132549D01*
X143050D01*
X143549Y132049D01*
Y131050D01*
X143050Y130550D01*
X141550D01*
X142550D02*
X143549Y129550D01*
X146548D02*
X144549D01*
X146548Y131549D01*
Y132049D01*
X146049Y132549D01*
X145049D01*
X144549Y132049D01*
X149547Y129550D02*
X147548D01*
X149547Y131549D01*
Y132049D01*
X149048Y132549D01*
X148048D01*
X147548Y132049D01*
X-1051Y126249D02*
X-2050D01*
X-1551D01*
Y123750D01*
X-2050Y123250D01*
X-2550D01*
X-3050Y123750D01*
X-51Y125749D02*
X449Y126249D01*
X1449D01*
X1948Y125749D01*
Y125249D01*
X1449Y124750D01*
X1948Y124250D01*
Y123750D01*
X1449Y123250D01*
X449D01*
X-51Y123750D01*
Y124250D01*
X449Y124750D01*
X-51Y125249D01*
Y125749D01*
X449Y124750D02*
X1449D01*
X233900Y178699D02*
Y176200D01*
X234400Y175700D01*
X235400D01*
X235899Y176200D01*
Y178699D01*
X238399Y175700D02*
Y178699D01*
X236899Y177199D01*
X238898D01*
X73200Y174599D02*
Y172100D01*
X73700Y171600D01*
X74699D01*
X75199Y172100D01*
Y174599D01*
X76199Y174099D02*
X76699Y174599D01*
X77699D01*
X78198Y174099D01*
Y173599D01*
X77699Y173100D01*
X77199D01*
X77699D01*
X78198Y172600D01*
Y172100D01*
X77699Y171600D01*
X76699D01*
X76199Y172100D01*
X262600Y186000D02*
X259601D01*
Y187499D01*
X260101Y187999D01*
X261101D01*
X261600Y187499D01*
Y186000D01*
Y187000D02*
X262600Y187999D01*
Y190998D02*
Y188999D01*
X260601Y190998D01*
X260101D01*
X259601Y190499D01*
Y189499D01*
X260101Y188999D01*
X262600Y191998D02*
Y192998D01*
Y192498D01*
X259601D01*
X260101Y191998D01*
X246600Y182400D02*
X243601D01*
Y183899D01*
X244101Y184399D01*
X245100D01*
X245600Y183899D01*
Y182400D01*
Y183400D02*
X246600Y184399D01*
Y185399D02*
Y186399D01*
Y185899D01*
X243601D01*
X244101Y185399D01*
X246100Y187898D02*
X246600Y188398D01*
Y189398D01*
X246100Y189898D01*
X244101D01*
X243601Y189398D01*
Y188398D01*
X244101Y187898D01*
X244601D01*
X245100Y188398D01*
Y189898D01*
X88100Y136900D02*
X85101D01*
Y138400D01*
X85601Y138899D01*
X86601D01*
X87100Y138400D01*
Y136900D01*
Y137900D02*
X88100Y138899D01*
X85101Y141898D02*
X85601Y140899D01*
X86601Y139899D01*
X87600D01*
X88100Y140399D01*
Y141399D01*
X87600Y141898D01*
X87100D01*
X86601Y141399D01*
Y139899D01*
X101000Y146300D02*
X98001D01*
Y147800D01*
X98501Y148299D01*
X99501D01*
X100000Y147800D01*
Y146300D01*
Y147300D02*
X101000Y148299D01*
X98001Y151298D02*
Y149299D01*
X99501D01*
X99001Y150299D01*
Y150799D01*
X99501Y151298D01*
X100500D01*
X101000Y150799D01*
Y149799D01*
X100500Y149299D01*
X250700D02*
Y146300D01*
X252699D01*
X255698D02*
X253699D01*
X255698Y148299D01*
Y148799D01*
X255199Y149299D01*
X254199D01*
X253699Y148799D01*
X104500Y174799D02*
Y171800D01*
X106499D01*
X107499D02*
X108499D01*
X107999D01*
Y174799D01*
X107499Y174299D01*
X241401Y157899D02*
X240901Y157399D01*
Y156400D01*
X241401Y155900D01*
X243400D01*
X243900Y156400D01*
Y157399D01*
X243400Y157899D01*
X241401Y158899D02*
X240901Y159399D01*
Y160399D01*
X241401Y160898D01*
X241901D01*
X242401Y160399D01*
Y159899D01*
Y160399D01*
X242900Y160898D01*
X243400D01*
X243900Y160399D01*
Y159399D01*
X243400Y158899D01*
X241401Y161898D02*
X240901Y162398D01*
Y163398D01*
X241401Y163897D01*
X241901D01*
X242401Y163398D01*
X242900Y163897D01*
X243400D01*
X243900Y163398D01*
Y162398D01*
X243400Y161898D01*
X242900D01*
X242401Y162398D01*
X241901Y161898D01*
X241401D01*
X242401Y162398D02*
Y163398D01*
X265401Y157899D02*
X264901Y157399D01*
Y156400D01*
X265401Y155900D01*
X267400D01*
X267900Y156400D01*
Y157399D01*
X267400Y157899D01*
X265401Y158899D02*
X264901Y159399D01*
Y160399D01*
X265401Y160898D01*
X265901D01*
X266401Y160399D01*
Y159899D01*
Y160399D01*
X266900Y160898D01*
X267400D01*
X267900Y160399D01*
Y159399D01*
X267400Y158899D01*
X264901Y161898D02*
Y163897D01*
X265401D01*
X267400Y161898D01*
X267900D01*
X270801Y157099D02*
X270301Y156599D01*
Y155600D01*
X270801Y155100D01*
X272800D01*
X273300Y155600D01*
Y156599D01*
X272800Y157099D01*
X270801Y158099D02*
X270301Y158599D01*
Y159599D01*
X270801Y160098D01*
X271301D01*
X271800Y159599D01*
Y159099D01*
Y159599D01*
X272300Y160098D01*
X272800D01*
X273300Y159599D01*
Y158599D01*
X272800Y158099D01*
X270301Y163097D02*
X270801Y162098D01*
X271800Y161098D01*
X272800D01*
X273300Y161598D01*
Y162598D01*
X272800Y163097D01*
X272300D01*
X271800Y162598D01*
Y161098D01*
X77401Y147399D02*
X76901Y146899D01*
Y145900D01*
X77401Y145400D01*
X79400D01*
X79900Y145900D01*
Y146899D01*
X79400Y147399D01*
X77401Y148399D02*
X76901Y148899D01*
Y149899D01*
X77401Y150398D01*
X77901D01*
X78400Y149899D01*
Y149399D01*
Y149899D01*
X78900Y150398D01*
X79400D01*
X79900Y149899D01*
Y148899D01*
X79400Y148399D01*
X76901Y153397D02*
Y151398D01*
X78400D01*
X77901Y152398D01*
Y152898D01*
X78400Y153397D01*
X79400D01*
X79900Y152898D01*
Y151898D01*
X79400Y151398D01*
X105101Y160999D02*
X104601Y160500D01*
Y159500D01*
X105101Y159000D01*
X107100D01*
X107600Y159500D01*
Y160500D01*
X107100Y160999D01*
X105101Y161999D02*
X104601Y162499D01*
Y163499D01*
X105101Y163998D01*
X105601D01*
X106100Y163499D01*
Y162999D01*
Y163499D01*
X106600Y163998D01*
X107100D01*
X107600Y163499D01*
Y162499D01*
X107100Y161999D01*
X107600Y166498D02*
X104601D01*
X106100Y164998D01*
Y166997D01*
X71201Y146599D02*
X70701Y146099D01*
Y145100D01*
X71201Y144600D01*
X73200D01*
X73700Y145100D01*
Y146099D01*
X73200Y146599D01*
X71201Y147599D02*
X70701Y148099D01*
Y149099D01*
X71201Y149598D01*
X71701D01*
X72201Y149099D01*
Y148599D01*
Y149099D01*
X72700Y149598D01*
X73200D01*
X73700Y149099D01*
Y148099D01*
X73200Y147599D01*
X71201Y150598D02*
X70701Y151098D01*
Y152098D01*
X71201Y152597D01*
X71701D01*
X72201Y152098D01*
Y151598D01*
Y152098D01*
X72700Y152597D01*
X73200D01*
X73700Y152098D01*
Y151098D01*
X73200Y150598D01*
X92099Y13401D02*
X92599Y13901D01*
Y14900D01*
X92099Y15400D01*
X90100D01*
X89600Y14900D01*
Y13901D01*
X90100Y13401D01*
X89600Y12401D02*
Y11401D01*
Y11901D01*
X92599D01*
X92099Y12401D01*
X50299Y26969D02*
X50799Y27469D01*
Y28469D01*
X50299Y28969D01*
X48300D01*
X47800Y28469D01*
Y27469D01*
X48300Y26969D01*
X47800Y23970D02*
Y25969D01*
X49799Y23970D01*
X50299D01*
X50799Y24470D01*
Y25470D01*
X50299Y25969D01*
X145610Y115190D02*
X145110Y114690D01*
Y113690D01*
X145610Y113191D01*
X147610D01*
X148109Y113690D01*
Y114690D01*
X147610Y115190D01*
X145610Y116190D02*
X145110Y116689D01*
Y117689D01*
X145610Y118189D01*
X146110D01*
X146610Y117689D01*
Y117189D01*
Y117689D01*
X147110Y118189D01*
X147610D01*
X148109Y117689D01*
Y116689D01*
X147610Y116190D01*
X146801Y106299D02*
X146301Y105799D01*
Y104800D01*
X146801Y104300D01*
X148800D01*
X149300Y104800D01*
Y105799D01*
X148800Y106299D01*
X149300Y108799D02*
X146301D01*
X147801Y107299D01*
Y109298D01*
X134601Y73199D02*
X134101Y72699D01*
Y71700D01*
X134601Y71200D01*
X136600D01*
X137100Y71700D01*
Y72699D01*
X136600Y73199D01*
X134101Y76198D02*
Y74199D01*
X135600D01*
X135101Y75199D01*
Y75699D01*
X135600Y76198D01*
X136600D01*
X137100Y75699D01*
Y74699D01*
X136600Y74199D01*
X190903Y143603D02*
X190403Y144103D01*
X189404D01*
X188904Y143603D01*
Y141604D01*
X189404Y141104D01*
X190403D01*
X190903Y141604D01*
X193902Y144103D02*
X192903Y143603D01*
X191903Y142604D01*
Y141604D01*
X192403Y141104D01*
X193403D01*
X193902Y141604D01*
Y142104D01*
X193403Y142604D01*
X191903D01*
X132101Y87699D02*
X131601Y87199D01*
Y86200D01*
X132101Y85700D01*
X134100D01*
X134600Y86200D01*
Y87199D01*
X134100Y87699D01*
X131601Y88699D02*
Y90698D01*
X132101D01*
X134100Y88699D01*
X134600D01*
X132101Y80599D02*
X131601Y80099D01*
Y79100D01*
X132101Y78600D01*
X134100D01*
X134600Y79100D01*
Y80099D01*
X134100Y80599D01*
X132101Y81599D02*
X131601Y82099D01*
Y83099D01*
X132101Y83598D01*
X132601D01*
X133100Y83099D01*
X133600Y83598D01*
X134100D01*
X134600Y83099D01*
Y82099D01*
X134100Y81599D01*
X133600D01*
X133100Y82099D01*
X132601Y81599D01*
X132101D01*
X133100Y82099D02*
Y83099D01*
X256099Y102201D02*
X256599Y102700D01*
Y103700D01*
X256099Y104200D01*
X254100D01*
X253600Y103700D01*
Y102700D01*
X254100Y102201D01*
Y101201D02*
X253600Y100701D01*
Y99701D01*
X254100Y99202D01*
X256099D01*
X256599Y99701D01*
Y100701D01*
X256099Y101201D01*
X255599D01*
X255100Y100701D01*
Y99202D01*
X188303Y148603D02*
X187803Y149103D01*
X186804D01*
X186304Y148603D01*
Y146604D01*
X186804Y146104D01*
X187803D01*
X188303Y146604D01*
X189303Y146104D02*
X190303D01*
X189803D01*
Y149103D01*
X189303Y148603D01*
X191802D02*
X192302Y149103D01*
X193302D01*
X193801Y148603D01*
Y146604D01*
X193302Y146104D01*
X192302D01*
X191802Y146604D01*
Y148603D01*
X239399Y36901D02*
X239899Y37400D01*
Y38400D01*
X239399Y38900D01*
X237400D01*
X236900Y38400D01*
Y37400D01*
X237400Y36901D01*
X236900Y35901D02*
Y34901D01*
Y35401D01*
X239899D01*
X239399Y35901D01*
X236900Y33402D02*
Y32402D01*
Y32902D01*
X239899D01*
X239399Y33402D01*
X251599Y102501D02*
X252099Y103000D01*
Y104000D01*
X251599Y104500D01*
X249600D01*
X249100Y104000D01*
Y103000D01*
X249600Y102501D01*
X249100Y101501D02*
Y100501D01*
Y101001D01*
X252099D01*
X251599Y101501D01*
X249100Y97002D02*
Y99002D01*
X251099Y97002D01*
X251599D01*
X252099Y97502D01*
Y98502D01*
X251599Y99002D01*
X208448Y36999D02*
X207948Y36500D01*
Y35500D01*
X208448Y35000D01*
X210447D01*
X210947Y35500D01*
Y36500D01*
X210447Y36999D01*
X210947Y37999D02*
Y38999D01*
Y38499D01*
X207948D01*
X208448Y37999D01*
Y40498D02*
X207948Y40998D01*
Y41998D01*
X208448Y42498D01*
X208948D01*
X209448Y41998D01*
Y41498D01*
Y41998D01*
X209948Y42498D01*
X210447D01*
X210947Y41998D01*
Y40998D01*
X210447Y40498D01*
X211259Y144099D02*
X210759Y143599D01*
Y142600D01*
X211259Y142100D01*
X213258D01*
X213758Y142600D01*
Y143599D01*
X213258Y144099D01*
X213758Y145099D02*
Y146099D01*
Y145599D01*
X210759D01*
X211259Y145099D01*
X213758Y149098D02*
X210759D01*
X212259Y147598D01*
Y149598D01*
X132101Y95999D02*
X131601Y95499D01*
Y94500D01*
X132101Y94000D01*
X134100D01*
X134600Y94500D01*
Y95499D01*
X134100Y95999D01*
X134600Y96999D02*
Y97999D01*
Y97499D01*
X131601D01*
X132101Y96999D01*
X131601Y101498D02*
Y99498D01*
X133100D01*
X132601Y100498D01*
Y100998D01*
X133100Y101498D01*
X134100D01*
X134600Y100998D01*
Y99998D01*
X134100Y99498D01*
X200499Y29999D02*
X199999Y30499D01*
X199000D01*
X198500Y29999D01*
Y28000D01*
X199000Y27500D01*
X199999D01*
X200499Y28000D01*
X201499Y27500D02*
X202499D01*
X201999D01*
Y30499D01*
X201499Y29999D01*
X205998Y30499D02*
X204998Y29999D01*
X203998Y29000D01*
Y28000D01*
X204498Y27500D01*
X205498D01*
X205998Y28000D01*
Y28500D01*
X205498Y29000D01*
X203998D01*
X252173Y78431D02*
X251674Y78930D01*
X250674D01*
X250174Y78431D01*
Y76431D01*
X250674Y75932D01*
X251674D01*
X252173Y76431D01*
X253173Y75932D02*
X254173D01*
X253673D01*
Y78930D01*
X253173Y78431D01*
X255672Y78930D02*
X257672D01*
Y78431D01*
X255672Y76431D01*
Y75932D01*
X205399Y154699D02*
X204900Y155199D01*
X203900D01*
X203400Y154699D01*
Y152700D01*
X203900Y152200D01*
X204900D01*
X205399Y152700D01*
X206399Y152200D02*
X207399D01*
X206899D01*
Y155199D01*
X206399Y154699D01*
X208898D02*
X209398Y155199D01*
X210398D01*
X210898Y154699D01*
Y154199D01*
X210398Y153700D01*
X210898Y153200D01*
Y152700D01*
X210398Y152200D01*
X209398D01*
X208898Y152700D01*
Y153200D01*
X209398Y153700D01*
X208898Y154199D01*
Y154699D01*
X209398Y153700D02*
X210398D01*
X229199Y151199D02*
X228699Y151699D01*
X227700D01*
X227200Y151199D01*
Y149200D01*
X227700Y148700D01*
X228699D01*
X229199Y149200D01*
X230199Y148700D02*
X231199D01*
X230699D01*
Y151699D01*
X230199Y151199D01*
X232698Y149200D02*
X233198Y148700D01*
X234198D01*
X234698Y149200D01*
Y151199D01*
X234198Y151699D01*
X233198D01*
X232698Y151199D01*
Y150699D01*
X233198Y150199D01*
X234698D01*
X173701Y154799D02*
X173201Y154299D01*
Y153300D01*
X173701Y152800D01*
X175700D01*
X176200Y153300D01*
Y154299D01*
X175700Y154799D01*
X176200Y157798D02*
Y155799D01*
X174201Y157798D01*
X173701D01*
X173201Y157299D01*
Y156299D01*
X173701Y155799D01*
Y158798D02*
X173201Y159298D01*
Y160298D01*
X173701Y160797D01*
X175700D01*
X176200Y160298D01*
Y159298D01*
X175700Y158798D01*
X173701D01*
X251799Y73093D02*
X251300Y73593D01*
X250300D01*
X249800Y73093D01*
Y71093D01*
X250300Y70594D01*
X251300D01*
X251799Y71093D01*
X254798Y70594D02*
X252799D01*
X254798Y72593D01*
Y73093D01*
X254298Y73593D01*
X253299D01*
X252799Y73093D01*
X255798Y70594D02*
X256798D01*
X256298D01*
Y73593D01*
X255798Y73093D01*
X249799Y126501D02*
X250299Y127000D01*
Y128000D01*
X249799Y128500D01*
X247800D01*
X247300Y128000D01*
Y127000D01*
X247800Y126501D01*
X247300Y123502D02*
Y125501D01*
X249299Y123502D01*
X249799D01*
X250299Y124001D01*
Y125001D01*
X249799Y125501D01*
X247300Y120503D02*
Y122502D01*
X249299Y120503D01*
X249799D01*
X250299Y121002D01*
Y122002D01*
X249799Y122502D01*
X254199Y126501D02*
X254699Y127000D01*
Y128000D01*
X254199Y128500D01*
X252200D01*
X251700Y128000D01*
Y127000D01*
X252200Y126501D01*
X251700Y123502D02*
Y125501D01*
X253699Y123502D01*
X254199D01*
X254699Y124001D01*
Y125001D01*
X254199Y125501D01*
Y122502D02*
X254699Y122002D01*
Y121002D01*
X254199Y120503D01*
X253699D01*
X253200Y121002D01*
Y121502D01*
Y121002D01*
X252700Y120503D01*
X252200D01*
X251700Y121002D01*
Y122002D01*
X252200Y122502D01*
X260533Y54365D02*
X260033Y54865D01*
X259034D01*
X258534Y54365D01*
Y52366D01*
X259034Y51866D01*
X260033D01*
X260533Y52366D01*
X263532Y51866D02*
X261533D01*
X263532Y53865D01*
Y54365D01*
X263032Y54865D01*
X262033D01*
X261533Y54365D01*
X266031Y51866D02*
Y54865D01*
X264532Y53366D01*
X266531D01*
X229999Y36901D02*
X230499Y37400D01*
Y38400D01*
X229999Y38900D01*
X228000D01*
X227500Y38400D01*
Y37400D01*
X228000Y36901D01*
X227500Y33902D02*
Y35901D01*
X229499Y33902D01*
X229999D01*
X230499Y34401D01*
Y35401D01*
X229999Y35901D01*
X230499Y30903D02*
Y32902D01*
X228999D01*
X229499Y31902D01*
Y31402D01*
X228999Y30903D01*
X228000D01*
X227500Y31402D01*
Y32402D01*
X228000Y32902D01*
X167899Y33799D02*
X167400Y34299D01*
X166400D01*
X165900Y33799D01*
Y31800D01*
X166400Y31300D01*
X167400D01*
X167899Y31800D01*
X170898Y31300D02*
X168899D01*
X170898Y33299D01*
Y33799D01*
X170399Y34299D01*
X169399D01*
X168899Y33799D01*
X173897Y34299D02*
X172898Y33799D01*
X171898Y32800D01*
Y31800D01*
X172398Y31300D01*
X173398D01*
X173897Y31800D01*
Y32300D01*
X173398Y32800D01*
X171898D01*
X191001Y32999D02*
X190501Y32500D01*
Y31500D01*
X191001Y31000D01*
X193000D01*
X193500Y31500D01*
Y32500D01*
X193000Y32999D01*
X193500Y35998D02*
Y33999D01*
X191501Y35998D01*
X191001D01*
X190501Y35499D01*
Y34499D01*
X191001Y33999D01*
X190501Y36998D02*
Y38997D01*
X191001D01*
X193000Y36998D01*
X193500D01*
X97799Y186899D02*
X97299Y187399D01*
X96300D01*
X95800Y186899D01*
Y184900D01*
X96300Y184400D01*
X97299D01*
X97799Y184900D01*
X100798Y184400D02*
X98799D01*
X100798Y186399D01*
Y186899D01*
X100299Y187399D01*
X99299D01*
X98799Y186899D01*
X101798D02*
X102298Y187399D01*
X103298D01*
X103797Y186899D01*
Y186399D01*
X103298Y185899D01*
X103797Y185400D01*
Y184900D01*
X103298Y184400D01*
X102298D01*
X101798Y184900D01*
Y185400D01*
X102298Y185899D01*
X101798Y186399D01*
Y186899D01*
X102298Y185899D02*
X103298D01*
X343101Y23799D02*
X342601Y23300D01*
Y22300D01*
X343101Y21800D01*
X345100D01*
X345600Y22300D01*
Y23300D01*
X345100Y23799D01*
X345600Y26798D02*
Y24799D01*
X343601Y26798D01*
X343101D01*
X342601Y26299D01*
Y25299D01*
X343101Y24799D01*
X345100Y27798D02*
X345600Y28298D01*
Y29298D01*
X345100Y29797D01*
X343101D01*
X342601Y29298D01*
Y28298D01*
X343101Y27798D01*
X343601D01*
X344100Y28298D01*
Y29797D01*
X356799Y19799D02*
X356299Y20299D01*
X355300D01*
X354800Y19799D01*
Y17800D01*
X355300Y17300D01*
X356299D01*
X356799Y17800D01*
X357799Y19799D02*
X358299Y20299D01*
X359298D01*
X359798Y19799D01*
Y19299D01*
X359298Y18800D01*
X358799D01*
X359298D01*
X359798Y18300D01*
Y17800D01*
X359298Y17300D01*
X358299D01*
X357799Y17800D01*
X360798Y19799D02*
X361298Y20299D01*
X362298D01*
X362797Y19799D01*
Y17800D01*
X362298Y17300D01*
X361298D01*
X360798Y17800D01*
Y19799D01*
X364401Y111599D02*
X363901Y111100D01*
Y110100D01*
X364401Y109600D01*
X366400D01*
X366900Y110100D01*
Y111100D01*
X366400Y111599D01*
X364401Y112599D02*
X363901Y113099D01*
Y114099D01*
X364401Y114598D01*
X364901D01*
X365401Y114099D01*
Y113599D01*
Y114099D01*
X365900Y114598D01*
X366400D01*
X366900Y114099D01*
Y113099D01*
X366400Y112599D01*
X366900Y115598D02*
Y116598D01*
Y116098D01*
X363901D01*
X364401Y115598D01*
X374401Y110799D02*
X373901Y110300D01*
Y109300D01*
X374401Y108800D01*
X376400D01*
X376900Y109300D01*
Y110300D01*
X376400Y110799D01*
X374401Y111799D02*
X373901Y112299D01*
Y113299D01*
X374401Y113798D01*
X374901D01*
X375400Y113299D01*
Y112799D01*
Y113299D01*
X375900Y113798D01*
X376400D01*
X376900Y113299D01*
Y112299D01*
X376400Y111799D01*
X376900Y116797D02*
Y114798D01*
X374901Y116797D01*
X374401D01*
X373901Y116298D01*
Y115298D01*
X374401Y114798D01*
X306199Y154999D02*
X305699Y155499D01*
X304700D01*
X304200Y154999D01*
Y153000D01*
X304700Y152500D01*
X305699D01*
X306199Y153000D01*
X308699Y152500D02*
Y155499D01*
X307199Y153999D01*
X309198D01*
X310198Y152500D02*
X311198D01*
X310698D01*
Y155499D01*
X310198Y154999D01*
X276501Y100999D02*
X276001Y100499D01*
Y99500D01*
X276501Y99000D01*
X278500D01*
X279000Y99500D01*
Y100499D01*
X278500Y100999D01*
X279000Y103499D02*
X276001D01*
X277501Y101999D01*
Y103998D01*
X279000Y106997D02*
Y104998D01*
X277001Y106997D01*
X276501D01*
X276001Y106498D01*
Y105498D01*
X276501Y104998D01*
X301699Y49548D02*
X301200Y50048D01*
X300200D01*
X299700Y49548D01*
Y47549D01*
X300200Y47049D01*
X301200D01*
X301699Y47549D01*
X304199Y47049D02*
Y50048D01*
X302699Y48548D01*
X304698D01*
X305698Y49548D02*
X306198Y50048D01*
X307198D01*
X307697Y49548D01*
Y49048D01*
X307198Y48548D01*
X306698D01*
X307198D01*
X307697Y48048D01*
Y47549D01*
X307198Y47049D01*
X306198D01*
X305698Y47549D01*
X271601Y100999D02*
X271101Y100499D01*
Y99500D01*
X271601Y99000D01*
X273600D01*
X274100Y99500D01*
Y100499D01*
X273600Y100999D01*
X274100Y103499D02*
X271101D01*
X272601Y101999D01*
Y103998D01*
X274100Y106498D02*
X271101D01*
X272601Y104998D01*
Y106997D01*
X282781Y129462D02*
X282281Y128962D01*
Y127962D01*
X282781Y127462D01*
X284781D01*
X285280Y127962D01*
Y128962D01*
X284781Y129462D01*
X285280Y131961D02*
X282281D01*
X283781Y130461D01*
Y132461D01*
X282281Y135460D02*
Y133460D01*
X283781D01*
X283281Y134460D01*
Y134960D01*
X283781Y135460D01*
X284781D01*
X285280Y134960D01*
Y133960D01*
X284781Y133460D01*
X282781Y119299D02*
X282281Y118799D01*
Y117800D01*
X282781Y117300D01*
X284781D01*
X285280Y117800D01*
Y118799D01*
X284781Y119299D01*
X285280Y121799D02*
X282281D01*
X283781Y120299D01*
Y122298D01*
X282281Y125297D02*
X282781Y124298D01*
X283781Y123298D01*
X284781D01*
X285280Y123798D01*
Y124798D01*
X284781Y125297D01*
X284281D01*
X283781Y124798D01*
Y123298D01*
X364399Y104801D02*
X364899Y105300D01*
Y106300D01*
X364399Y106800D01*
X362400D01*
X361900Y106300D01*
Y105300D01*
X362400Y104801D01*
X361900Y102301D02*
X364899D01*
X363400Y103801D01*
Y101802D01*
X364899Y100802D02*
Y98803D01*
X364399D01*
X362400Y100802D01*
X361900D01*
X350199Y133101D02*
X350699Y133600D01*
Y134600D01*
X350199Y135100D01*
X348200D01*
X347700Y134600D01*
Y133600D01*
X348200Y133101D01*
X347700Y130601D02*
X350699D01*
X349200Y132101D01*
Y130102D01*
X350199Y129102D02*
X350699Y128602D01*
Y127602D01*
X350199Y127103D01*
X349699D01*
X349200Y127602D01*
X348700Y127103D01*
X348200D01*
X347700Y127602D01*
Y128602D01*
X348200Y129102D01*
X348700D01*
X349200Y128602D01*
X349699Y129102D01*
X350199D01*
X349200Y128602D02*
Y127602D01*
X358899Y105001D02*
X359399Y105500D01*
Y106500D01*
X358899Y107000D01*
X356900D01*
X356400Y106500D01*
Y105500D01*
X356900Y105001D01*
X356400Y102501D02*
X359399D01*
X357899Y104001D01*
Y102002D01*
X356900Y101002D02*
X356400Y100502D01*
Y99502D01*
X356900Y99003D01*
X358899D01*
X359399Y99502D01*
Y100502D01*
X358899Y101002D01*
X358399D01*
X357899Y100502D01*
Y99003D01*
X61001Y133099D02*
X60501Y132599D01*
Y131600D01*
X61001Y131100D01*
X63000D01*
X63500Y131600D01*
Y132599D01*
X63000Y133099D01*
X60501Y136098D02*
Y134099D01*
X62001D01*
X61501Y135099D01*
Y135599D01*
X62001Y136098D01*
X63000D01*
X63500Y135599D01*
Y134599D01*
X63000Y134099D01*
X61001Y137098D02*
X60501Y137598D01*
Y138598D01*
X61001Y139097D01*
X63000D01*
X63500Y138598D01*
Y137598D01*
X63000Y137098D01*
X61001D01*
X22868Y138201D02*
X23368Y138700D01*
Y139700D01*
X22868Y140200D01*
X20868D01*
X20369Y139700D01*
Y138700D01*
X20868Y138201D01*
X23368Y135202D02*
Y137201D01*
X21868D01*
X22368Y136201D01*
Y135701D01*
X21868Y135202D01*
X20868D01*
X20369Y135701D01*
Y136701D01*
X20868Y137201D01*
X20369Y134202D02*
Y133202D01*
Y133702D01*
X23368D01*
X22868Y134202D01*
X7399Y147899D02*
X6899Y148399D01*
X5900D01*
X5400Y147899D01*
Y145900D01*
X5900Y145400D01*
X6899D01*
X7399Y145900D01*
X10398Y148399D02*
X8399D01*
Y146899D01*
X9399Y147399D01*
X9899D01*
X10398Y146899D01*
Y145900D01*
X9899Y145400D01*
X8899D01*
X8399Y145900D01*
X13397Y145400D02*
X11398D01*
X13397Y147399D01*
Y147899D01*
X12898Y148399D01*
X11898D01*
X11398Y147899D01*
X71499Y65499D02*
X70999Y65999D01*
X70000D01*
X69500Y65499D01*
Y63500D01*
X70000Y63000D01*
X70999D01*
X71499Y63500D01*
X74498Y65999D02*
X72499D01*
Y64499D01*
X73499Y64999D01*
X73999D01*
X74498Y64499D01*
Y63500D01*
X73999Y63000D01*
X72999D01*
X72499Y63500D01*
X75498Y65499D02*
X75998Y65999D01*
X76998D01*
X77497Y65499D01*
Y64999D01*
X76998Y64499D01*
X76498D01*
X76998D01*
X77497Y64000D01*
Y63500D01*
X76998Y63000D01*
X75998D01*
X75498Y63500D01*
X107199Y115899D02*
X106700Y116399D01*
X105700D01*
X105200Y115899D01*
Y113900D01*
X105700Y113400D01*
X106700D01*
X107199Y113900D01*
X110198Y116399D02*
X108199D01*
Y114900D01*
X109199Y115399D01*
X109699D01*
X110198Y114900D01*
Y113900D01*
X109699Y113400D01*
X108699D01*
X108199Y113900D01*
X112698Y113400D02*
Y116399D01*
X111198Y114900D01*
X113197D01*
X91199Y61499D02*
X90699Y61999D01*
X89700D01*
X89200Y61499D01*
Y59500D01*
X89700Y59000D01*
X90699D01*
X91199Y59500D01*
X94198Y61999D02*
X92199D01*
Y60500D01*
X93199Y60999D01*
X93699D01*
X94198Y60500D01*
Y59500D01*
X93699Y59000D01*
X92699D01*
X92199Y59500D01*
X97197Y61999D02*
X95198D01*
Y60500D01*
X96198Y60999D01*
X96698D01*
X97197Y60500D01*
Y59500D01*
X96698Y59000D01*
X95698D01*
X95198Y59500D01*
X82599Y134699D02*
X82099Y135199D01*
X81100D01*
X80600Y134699D01*
Y132700D01*
X81100Y132200D01*
X82099D01*
X82599Y132700D01*
X85598Y135199D02*
X83599D01*
Y133700D01*
X84599Y134199D01*
X85099D01*
X85598Y133700D01*
Y132700D01*
X85099Y132200D01*
X84099D01*
X83599Y132700D01*
X88597Y135199D02*
X87598Y134699D01*
X86598Y133700D01*
Y132700D01*
X87098Y132200D01*
X88098D01*
X88597Y132700D01*
Y133200D01*
X88098Y133700D01*
X86598D01*
X104999Y128599D02*
X104499Y129099D01*
X103500D01*
X103000Y128599D01*
Y126600D01*
X103500Y126100D01*
X104499D01*
X104999Y126600D01*
X107998Y129099D02*
X105999D01*
Y127600D01*
X106999Y128099D01*
X107499D01*
X107998Y127600D01*
Y126600D01*
X107499Y126100D01*
X106499D01*
X105999Y126600D01*
X108998Y129099D02*
X110997D01*
Y128599D01*
X108998Y126600D01*
Y126100D01*
X105199Y133699D02*
X104700Y134199D01*
X103700D01*
X103200Y133699D01*
Y131700D01*
X103700Y131200D01*
X104700D01*
X105199Y131700D01*
X108198Y134199D02*
X106199D01*
Y132700D01*
X107199Y133199D01*
X107699D01*
X108198Y132700D01*
Y131700D01*
X107699Y131200D01*
X106699D01*
X106199Y131700D01*
X109198Y133699D02*
X109698Y134199D01*
X110698D01*
X111197Y133699D01*
Y133199D01*
X110698Y132700D01*
X111197Y132200D01*
Y131700D01*
X110698Y131200D01*
X109698D01*
X109198Y131700D01*
Y132200D01*
X109698Y132700D01*
X109198Y133199D01*
Y133699D01*
X109698Y132700D02*
X110698D01*
X42901Y50699D02*
X42401Y50200D01*
Y49200D01*
X42901Y48700D01*
X44900D01*
X45400Y49200D01*
Y50200D01*
X44900Y50699D01*
X42401Y53698D02*
Y51699D01*
X43900D01*
X43401Y52699D01*
Y53199D01*
X43900Y53698D01*
X44900D01*
X45400Y53199D01*
Y52199D01*
X44900Y51699D01*
Y54698D02*
X45400Y55198D01*
Y56198D01*
X44900Y56697D01*
X42901D01*
X42401Y56198D01*
Y55198D01*
X42901Y54698D01*
X43401D01*
X43900Y55198D01*
Y56697D01*
X114899Y92201D02*
X115399Y92700D01*
Y93700D01*
X114899Y94200D01*
X112900D01*
X112400Y93700D01*
Y92700D01*
X112900Y92201D01*
X115399Y89202D02*
X114899Y90201D01*
X113900Y91201D01*
X112900D01*
X112400Y90701D01*
Y89701D01*
X112900Y89202D01*
X113400D01*
X113900Y89701D01*
Y91201D01*
X114899Y88202D02*
X115399Y87702D01*
Y86702D01*
X114899Y86203D01*
X112900D01*
X112400Y86702D01*
Y87702D01*
X112900Y88202D01*
X114899D01*
X58799Y128399D02*
X58299Y128899D01*
X57300D01*
X56800Y128399D01*
Y126400D01*
X57300Y125900D01*
X58299D01*
X58799Y126400D01*
X61798Y128899D02*
X60799Y128399D01*
X59799Y127400D01*
Y126400D01*
X60299Y125900D01*
X61299D01*
X61798Y126400D01*
Y126900D01*
X61299Y127400D01*
X59799D01*
X62798Y125900D02*
X63798D01*
X63298D01*
Y128899D01*
X62798Y128399D01*
X111599Y122399D02*
X111100Y122899D01*
X110100D01*
X109600Y122399D01*
Y120400D01*
X110100Y119900D01*
X111100D01*
X111599Y120400D01*
X114598Y122899D02*
X113599Y122399D01*
X112599Y121399D01*
Y120400D01*
X113099Y119900D01*
X114099D01*
X114598Y120400D01*
Y120900D01*
X114099Y121399D01*
X112599D01*
X117597Y119900D02*
X115598D01*
X117597Y121899D01*
Y122399D01*
X117098Y122899D01*
X116098D01*
X115598Y122399D01*
X51701Y74899D02*
X51201Y74400D01*
Y73400D01*
X51701Y72900D01*
X53700D01*
X54200Y73400D01*
Y74400D01*
X53700Y74899D01*
X51201Y77898D02*
X51701Y76899D01*
X52701Y75899D01*
X53700D01*
X54200Y76399D01*
Y77399D01*
X53700Y77898D01*
X53200D01*
X52701Y77399D01*
Y75899D01*
X51701Y78898D02*
X51201Y79398D01*
Y80398D01*
X51701Y80897D01*
X52201D01*
X52701Y80398D01*
Y79898D01*
Y80398D01*
X53200Y80897D01*
X53700D01*
X54200Y80398D01*
Y79398D01*
X53700Y78898D01*
X42701Y60699D02*
X42201Y60199D01*
Y59200D01*
X42701Y58700D01*
X44700D01*
X45200Y59200D01*
Y60199D01*
X44700Y60699D01*
X42201Y63698D02*
X42701Y62699D01*
X43701Y61699D01*
X44700D01*
X45200Y62199D01*
Y63199D01*
X44700Y63698D01*
X44200D01*
X43701Y63199D01*
Y61699D01*
X45200Y66198D02*
X42201D01*
X43701Y64698D01*
Y66697D01*
X44101Y99501D02*
X44600Y99001D01*
X45600D01*
X46100Y99501D01*
Y101500D01*
X45600Y102000D01*
X44600D01*
X44101Y101500D01*
X41102Y99001D02*
X42101Y99501D01*
X43101Y100501D01*
Y101500D01*
X42601Y102000D01*
X41601D01*
X41102Y101500D01*
Y101000D01*
X41601Y100501D01*
X43101D01*
X38103Y99001D02*
X40102D01*
Y100501D01*
X39102Y100001D01*
X38602D01*
X38103Y100501D01*
Y101500D01*
X38602Y102000D01*
X39602D01*
X40102Y101500D01*
X47601Y113599D02*
X47101Y113100D01*
Y112100D01*
X47601Y111600D01*
X49600D01*
X50100Y112100D01*
Y113100D01*
X49600Y113599D01*
X47101Y116598D02*
X47601Y115599D01*
X48601Y114599D01*
X49600D01*
X50100Y115099D01*
Y116099D01*
X49600Y116598D01*
X49100D01*
X48601Y116099D01*
Y114599D01*
X47101Y119597D02*
X47601Y118598D01*
X48601Y117598D01*
X49600D01*
X50100Y118098D01*
Y119098D01*
X49600Y119597D01*
X49100D01*
X48601Y119098D01*
Y117598D01*
X141499Y143601D02*
X141999Y144100D01*
Y145100D01*
X141499Y145600D01*
X139500D01*
X139000Y145100D01*
Y144100D01*
X139500Y143601D01*
X141999Y140602D02*
X141499Y141601D01*
X140499Y142601D01*
X139500D01*
X139000Y142101D01*
Y141101D01*
X139500Y140602D01*
X140000D01*
X140499Y141101D01*
Y142601D01*
X141999Y139602D02*
Y137603D01*
X141499D01*
X139500Y139602D01*
X139000D01*
X64899Y47999D02*
Y45000D01*
X66898D01*
X69897Y47999D02*
X67898D01*
Y45000D01*
X69897D01*
X67898Y46499D02*
X68897D01*
X70897Y47999D02*
Y45000D01*
X72396D01*
X72896Y45500D01*
Y47499D01*
X72396Y47999D01*
X70897D01*
X76895Y47499D02*
X77394Y47999D01*
X78394D01*
X78894Y47499D01*
Y45500D01*
X78394Y45000D01*
X77394D01*
X76895Y45500D01*
Y47499D01*
X105199Y48199D02*
Y45200D01*
X107198D01*
X110197Y48199D02*
X108198D01*
Y45200D01*
X110197D01*
X108198Y46700D02*
X109197D01*
X111197Y48199D02*
Y45200D01*
X112696D01*
X113196Y45700D01*
Y47699D01*
X112696Y48199D01*
X111197D01*
X117195Y45200D02*
X118194D01*
X117694D01*
Y48199D01*
X117195Y47699D01*
X56800Y45000D02*
Y47999D01*
X58299D01*
X58799Y47499D01*
Y46499D01*
X58299Y46000D01*
X56800D01*
X57800D02*
X58799Y45000D01*
X59799D02*
X60799D01*
X60299D01*
Y47999D01*
X59799Y47499D01*
X124400Y52131D02*
X121401D01*
Y53630D01*
X121901Y54130D01*
X122900D01*
X123400Y53630D01*
Y52131D01*
Y53130D02*
X124400Y54130D01*
Y57129D02*
Y55130D01*
X122401Y57129D01*
X121901D01*
X121401Y56629D01*
Y55630D01*
X121901Y55130D01*
X84100Y15400D02*
X87099D01*
Y13901D01*
X86599Y13401D01*
X85599D01*
X85100Y13901D01*
Y15400D01*
Y14400D02*
X84100Y13401D01*
X86599Y12401D02*
X87099Y11901D01*
Y10901D01*
X86599Y10402D01*
X86099D01*
X85599Y10901D01*
Y11401D01*
Y10901D01*
X85100Y10402D01*
X84600D01*
X84100Y10901D01*
Y11901D01*
X84600Y12401D01*
X53500Y28631D02*
X56499D01*
Y27132D01*
X55999Y26632D01*
X55000D01*
X54500Y27132D01*
Y28631D01*
Y27632D02*
X53500Y26632D01*
Y24133D02*
X56499D01*
X55000Y25633D01*
Y23633D01*
X257900Y133000D02*
X260899D01*
Y131500D01*
X260399Y131001D01*
X259400D01*
X258900Y131500D01*
Y133000D01*
Y132000D02*
X257900Y131001D01*
X260899Y130001D02*
Y128002D01*
X260399D01*
X258400Y130001D01*
X257900D01*
X250100Y50300D02*
Y53299D01*
X251600D01*
X252099Y52799D01*
Y51799D01*
X251600Y51300D01*
X250100D01*
X251100D02*
X252099Y50300D01*
X253099Y52799D02*
X253599Y53299D01*
X254598D01*
X255098Y52799D01*
Y52299D01*
X254598Y51799D01*
X255098Y51300D01*
Y50800D01*
X254598Y50300D01*
X253599D01*
X253099Y50800D01*
Y51300D01*
X253599Y51799D01*
X253099Y52299D01*
Y52799D01*
X253599Y51799D02*
X254598D01*
X250100Y45500D02*
Y48499D01*
X251600D01*
X252099Y47999D01*
Y46999D01*
X251600Y46500D01*
X250100D01*
X251100D02*
X252099Y45500D01*
X253099Y46000D02*
X253599Y45500D01*
X254598D01*
X255098Y46000D01*
Y47999D01*
X254598Y48499D01*
X253599D01*
X253099Y47999D01*
Y47499D01*
X253599Y46999D01*
X255098D01*
X361600Y93600D02*
Y96599D01*
X363100D01*
X363599Y96099D01*
Y95100D01*
X363100Y94600D01*
X361600D01*
X362600D02*
X363599Y93600D01*
X364599D02*
X365599D01*
X365099D01*
Y96599D01*
X364599Y96099D01*
X367098Y93600D02*
X368098D01*
X367598D01*
Y96599D01*
X367098Y96099D01*
X29400Y123900D02*
Y126899D01*
X30900D01*
X31399Y126399D01*
Y125399D01*
X30900Y124900D01*
X29400D01*
X30400D02*
X31399Y123900D01*
X32399D02*
X33399D01*
X32899D01*
Y126899D01*
X32399Y126399D01*
X34898D02*
X35398Y126899D01*
X36398D01*
X36898Y126399D01*
Y125899D01*
X36398Y125399D01*
X35898D01*
X36398D01*
X36898Y124900D01*
Y124400D01*
X36398Y123900D01*
X35398D01*
X34898Y124400D01*
X57600Y150500D02*
X54601D01*
Y151999D01*
X55101Y152499D01*
X56100D01*
X56600Y151999D01*
Y150500D01*
Y151500D02*
X57600Y152499D01*
Y153499D02*
Y154499D01*
Y153999D01*
X54601D01*
X55101Y153499D01*
X57600Y157498D02*
X54601D01*
X56100Y155998D01*
Y157998D01*
X42900Y151100D02*
Y154099D01*
X44399D01*
X44899Y153599D01*
Y152600D01*
X44399Y152100D01*
X42900D01*
X43900D02*
X44899Y151100D01*
X45899D02*
X46899D01*
X46399D01*
Y154099D01*
X45899Y153599D01*
X50398Y154099D02*
X48398D01*
Y152600D01*
X49398Y153099D01*
X49898D01*
X50398Y152600D01*
Y151600D01*
X49898Y151100D01*
X48898D01*
X48398Y151600D01*
X68500Y138000D02*
Y140999D01*
X69999D01*
X70499Y140499D01*
Y139499D01*
X69999Y139000D01*
X68500D01*
X69500D02*
X70499Y138000D01*
X71499D02*
X72499D01*
X71999D01*
Y140999D01*
X71499Y140499D01*
X75998Y140999D02*
X74998Y140499D01*
X73998Y139499D01*
Y138500D01*
X74498Y138000D01*
X75498D01*
X75998Y138500D01*
Y139000D01*
X75498Y139499D01*
X73998D01*
X42900Y160320D02*
Y163320D01*
X44399D01*
X44899Y162820D01*
Y161820D01*
X44399Y161320D01*
X42900D01*
X43900D02*
X44899Y160320D01*
X45899D02*
X46899D01*
X46399D01*
Y163320D01*
X45899Y162820D01*
X48398Y163320D02*
X50398D01*
Y162820D01*
X48398Y160820D01*
Y160320D01*
X100100Y36399D02*
Y33400D01*
X101600D01*
X102099Y33900D01*
Y34400D01*
X101600Y34900D01*
X100100D01*
X101600D01*
X102099Y35399D01*
Y35899D01*
X101600Y36399D01*
X100100D01*
X103099D02*
Y33900D01*
X103599Y33400D01*
X104599D01*
X105098Y33900D01*
Y36399D01*
X106098D02*
X108097D01*
X107098D01*
Y33400D01*
X109097Y36399D02*
X111096D01*
X110097D01*
Y33400D01*
X113596Y36399D02*
X112596D01*
X112096Y35899D01*
Y33900D01*
X112596Y33400D01*
X113596D01*
X114095Y33900D01*
Y35899D01*
X113596Y36399D01*
X115095Y33400D02*
Y36399D01*
X117095Y33400D01*
Y36399D01*
X121093Y33400D02*
X122093D01*
X121593D01*
Y36399D01*
X121093Y35899D01*
X60300Y36399D02*
Y33400D01*
X61800D01*
X62299Y33900D01*
Y34400D01*
X61800Y34900D01*
X60300D01*
X61800D01*
X62299Y35399D01*
Y35899D01*
X61800Y36399D01*
X60300D01*
X63299D02*
Y33900D01*
X63799Y33400D01*
X64799D01*
X65298Y33900D01*
Y36399D01*
X66298D02*
X68297D01*
X67298D01*
Y33400D01*
X69297Y36399D02*
X71296D01*
X70297D01*
Y33400D01*
X73796Y36399D02*
X72796D01*
X72296Y35899D01*
Y33900D01*
X72796Y33400D01*
X73796D01*
X74296Y33900D01*
Y35899D01*
X73796Y36399D01*
X75295Y33400D02*
Y36399D01*
X77294Y33400D01*
Y36399D01*
X81293Y35899D02*
X81793Y36399D01*
X82793D01*
X83293Y35899D01*
Y33900D01*
X82793Y33400D01*
X81793D01*
X81293Y33900D01*
Y35899D01*
X153400Y136499D02*
Y134000D01*
X153900Y133500D01*
X154900D01*
X155399Y134000D01*
Y136499D01*
X156399Y133500D02*
X157399D01*
X156899D01*
Y136499D01*
X156399Y135999D01*
X263600Y96699D02*
Y94200D01*
X264100Y93700D01*
X265100D01*
X265599Y94200D01*
Y96699D01*
X268598Y93700D02*
X266599D01*
X268598Y95699D01*
Y96199D01*
X268098Y96699D01*
X267099D01*
X266599Y96199D01*
X316300Y150299D02*
Y147800D01*
X316800Y147300D01*
X317799D01*
X318299Y147800D01*
Y150299D01*
X321298D02*
X319299D01*
Y148800D01*
X320299Y149299D01*
X320798D01*
X321298Y148800D01*
Y147800D01*
X320798Y147300D01*
X319799D01*
X319299Y147800D01*
X44100Y126099D02*
Y123600D01*
X44600Y123100D01*
X45599D01*
X46099Y123600D01*
Y126099D01*
X49098D02*
X48099Y125599D01*
X47099Y124600D01*
Y123600D01*
X47599Y123100D01*
X48599D01*
X49098Y123600D01*
Y124100D01*
X48599Y124600D01*
X47099D01*
X10200Y143699D02*
Y141200D01*
X10700Y140700D01*
X11699D01*
X12199Y141200D01*
Y143699D01*
X13199D02*
X15198D01*
Y143199D01*
X13199Y141200D01*
Y140700D01*
X109900Y165699D02*
Y163200D01*
X110400Y162700D01*
X111399D01*
X111899Y163200D01*
Y165699D01*
X112899Y165199D02*
X113399Y165699D01*
X114399D01*
X114898Y165199D01*
Y164699D01*
X114399Y164199D01*
X114898Y163700D01*
Y163200D01*
X114399Y162700D01*
X113399D01*
X112899Y163200D01*
Y163700D01*
X113399Y164199D01*
X112899Y164699D01*
Y165199D01*
X113399Y164199D02*
X114399D01*
X20900Y146599D02*
Y146099D01*
X21900Y145099D01*
X22899Y146099D01*
Y146599D01*
X21900Y145099D02*
Y143600D01*
X23899D02*
X24899D01*
X24399D01*
Y146599D01*
X23899Y146099D01*
X306101Y11199D02*
X305601Y10700D01*
Y9700D01*
X306101Y9200D01*
X308100D01*
X308600Y9700D01*
Y10700D01*
X308100Y11199D01*
X305601Y12199D02*
Y14198D01*
X306101D01*
X308100Y12199D01*
X308600D01*
Y16698D02*
X305601D01*
X307101Y15198D01*
Y17197D01*
X266075Y5677D02*
X265575Y5177D01*
Y4177D01*
X266075Y3677D01*
X268074D01*
X268574Y4177D01*
Y5177D01*
X268074Y5677D01*
X265575Y6676D02*
Y8676D01*
X266075D01*
X268074Y6676D01*
X268574D01*
X265575Y11675D02*
Y9675D01*
X267074D01*
X266575Y10675D01*
Y11175D01*
X267074Y11675D01*
X268074D01*
X268574Y11175D01*
Y10175D01*
X268074Y9675D01*
X263500Y3900D02*
X260501D01*
Y5399D01*
X261001Y5899D01*
X262000D01*
X262500Y5399D01*
Y3900D01*
Y4900D02*
X263500Y5899D01*
Y8898D02*
Y6899D01*
X261501Y8898D01*
X261001D01*
X260501Y8399D01*
Y7399D01*
X261001Y6899D01*
X260501Y11897D02*
X261001Y10898D01*
X262000Y9898D01*
X263000D01*
X263500Y10398D01*
Y11398D01*
X263000Y11897D01*
X262500D01*
X262000Y11398D01*
Y9898D01*
X38101Y43299D02*
Y42300D01*
Y42799D01*
X40600D01*
X41100Y42300D01*
Y41800D01*
X40600Y41300D01*
Y44299D02*
X41100Y44799D01*
Y45799D01*
X40600Y46298D01*
X38601D01*
X38101Y45799D01*
Y44799D01*
X38601Y44299D01*
X39101D01*
X39601Y44799D01*
Y46298D01*
X44900Y182999D02*
Y180000D01*
X46899D01*
X49898Y182999D02*
X47899D01*
Y180000D01*
X49898D01*
X47899Y181500D02*
X48899D01*
X50898Y182999D02*
Y180000D01*
X52398D01*
X52897Y180500D01*
Y182499D01*
X52398Y182999D01*
X50898D01*
X53897Y179500D02*
X55896D01*
X56896Y180000D02*
Y182999D01*
X58396D01*
X58895Y182499D01*
Y181500D01*
X58396Y181000D01*
X56896D01*
X61395Y182999D02*
X60395D01*
X59895Y182499D01*
Y180500D01*
X60395Y180000D01*
X61395D01*
X61895Y180500D01*
Y182499D01*
X61395Y182999D01*
X62894D02*
Y180000D01*
X63894Y181000D01*
X64894Y180000D01*
Y182999D01*
X67893D02*
X65893D01*
Y180000D01*
X67893D01*
X65893Y181500D02*
X66893D01*
X68892Y180000D02*
Y182999D01*
X70392D01*
X70892Y182499D01*
Y181500D01*
X70392Y181000D01*
X68892D01*
X69892D02*
X70892Y180000D01*
X46700Y168700D02*
Y171699D01*
X48199D01*
X48699Y171199D01*
Y170200D01*
X48199Y169700D01*
X46700D01*
X47700D02*
X48699Y168700D01*
X51698D02*
X49699D01*
X51698Y170699D01*
Y171199D01*
X51199Y171699D01*
X50199D01*
X49699Y171199D01*
X52698Y169200D02*
X53198Y168700D01*
X54198D01*
X54697Y169200D01*
Y171199D01*
X54198Y171699D01*
X53198D01*
X52698Y171199D01*
Y170699D01*
X53198Y170200D01*
X54697D01*
X159300Y141700D02*
Y144699D01*
X160800D01*
X161299Y144199D01*
Y143200D01*
X160800Y142700D01*
X159300D01*
X160300D02*
X161299Y141700D01*
X164298D02*
X162299D01*
X164298Y143699D01*
Y144199D01*
X163799Y144699D01*
X162799D01*
X162299Y144199D01*
X166798Y141700D02*
Y144699D01*
X165298Y143200D01*
X167297D01*
X125800Y170400D02*
X122801D01*
Y171899D01*
X123301Y172399D01*
X124301D01*
X124800Y171899D01*
Y170400D01*
Y171400D02*
X125800Y172399D01*
Y175398D02*
Y173399D01*
X123801Y175398D01*
X123301D01*
X122801Y174899D01*
Y173899D01*
X123301Y173399D01*
X122801Y178397D02*
Y176398D01*
X124301D01*
X123801Y177398D01*
Y177898D01*
X124301Y178397D01*
X125300D01*
X125800Y177898D01*
Y176898D01*
X125300Y176398D01*
X131400Y17400D02*
X128401D01*
Y18900D01*
X128901Y19399D01*
X129901D01*
X130400Y18900D01*
Y17400D01*
Y18400D02*
X131400Y19399D01*
X128401Y22398D02*
Y20399D01*
X131400D01*
Y22398D01*
X129901Y20399D02*
Y21399D01*
X128901Y25397D02*
X128401Y24898D01*
Y23898D01*
X128901Y23398D01*
X129401D01*
X129901Y23898D01*
Y24898D01*
X130400Y25397D01*
X130900D01*
X131400Y24898D01*
Y23898D01*
X130900Y23398D01*
X128401Y28396D02*
Y26397D01*
X131400D01*
Y28396D01*
X129901Y26397D02*
Y27397D01*
X128401Y29396D02*
Y31396D01*
Y30396D01*
X131400D01*
X138901Y17400D02*
X138401Y17900D01*
Y18900D01*
X138901Y19399D01*
X139401D01*
X139901Y18900D01*
Y18400D01*
Y18900D01*
X140400Y19399D01*
X140900D01*
X141400Y18900D01*
Y17900D01*
X140900Y17400D01*
X141400Y20399D02*
X140900D01*
Y20899D01*
X141400D01*
Y20399D01*
X138901Y22898D02*
X138401Y23398D01*
Y24398D01*
X138901Y24898D01*
X139401D01*
X139901Y24398D01*
Y23898D01*
Y24398D01*
X140400Y24898D01*
X140900D01*
X141400Y24398D01*
Y23398D01*
X140900Y22898D01*
X138401Y25897D02*
X140400D01*
X141400Y26897D01*
X140400Y27897D01*
X138401D01*
X23599Y11199D02*
X21600D01*
Y9700D01*
X22600Y10199D01*
X23099D01*
X23599Y9700D01*
Y8700D01*
X23099Y8200D01*
X22100D01*
X21600Y8700D01*
X24599Y8200D02*
Y8700D01*
X25099D01*
Y8200D01*
X24599D01*
X27098Y10699D02*
X27598Y11199D01*
X28598D01*
X29098Y10699D01*
Y8700D01*
X28598Y8200D01*
X27598D01*
X27098Y8700D01*
Y10699D01*
X30097Y11199D02*
Y9200D01*
X31097Y8200D01*
X32097Y9200D01*
Y11199D01*
X36095D02*
Y8200D01*
X37595D01*
X38095Y8700D01*
Y10699D01*
X37595Y11199D01*
X36095D01*
X41094Y10699D02*
X40594Y11199D01*
X39594D01*
X39094Y10699D01*
Y8700D01*
X39594Y8200D01*
X40594D01*
X41094Y8700D01*
X80001Y183500D02*
X79501Y184000D01*
Y185000D01*
X80001Y185499D01*
X80501D01*
X81001Y185000D01*
Y184500D01*
Y185000D01*
X81500Y185499D01*
X82000D01*
X82500Y185000D01*
Y184000D01*
X82000Y183500D01*
X82500Y186499D02*
X82000D01*
Y186999D01*
X82500D01*
Y186499D01*
X80001Y188998D02*
X79501Y189498D01*
Y190498D01*
X80001Y190998D01*
X80501D01*
X81001Y190498D01*
Y189998D01*
Y190498D01*
X81500Y190998D01*
X82000D01*
X82500Y190498D01*
Y189498D01*
X82000Y188998D01*
X79501Y191997D02*
X81500D01*
X82500Y192997D01*
X81500Y193997D01*
X79501D01*
X270301Y112300D02*
X273300D01*
Y113800D01*
X272800Y114299D01*
X270801D01*
X270301Y113800D01*
Y112300D01*
Y116799D02*
Y115799D01*
X270801Y115299D01*
X272800D01*
X273300Y115799D01*
Y116799D01*
X272800Y117298D01*
X270801D01*
X270301Y116799D01*
X273300Y118298D02*
X270301D01*
X273300Y120297D01*
X270301D01*
Y123296D02*
Y121297D01*
X273300D01*
Y123296D01*
X271800Y121297D02*
Y122297D01*
X317900Y33400D02*
Y36399D01*
X319399D01*
X319899Y35899D01*
Y34900D01*
X319399Y34400D01*
X317900D01*
X320899Y33400D02*
Y36399D01*
X322398D01*
X322898Y35899D01*
Y34900D01*
X322398Y34400D01*
X320899D01*
X321899D02*
X322898Y33400D01*
X325398Y36399D02*
X324398D01*
X323898Y35899D01*
Y33900D01*
X324398Y33400D01*
X325398D01*
X325897Y33900D01*
Y35899D01*
X325398Y36399D01*
X328896Y35899D02*
X328397Y36399D01*
X327397D01*
X326897Y35899D01*
Y33900D01*
X327397Y33400D01*
X328397D01*
X328896Y33900D01*
Y34900D01*
X327897D01*
X329896Y33400D02*
Y36399D01*
X331396D01*
X331895Y35899D01*
Y34900D01*
X331396Y34400D01*
X329896D01*
X330896D02*
X331895Y33400D01*
X332895D02*
Y35399D01*
X333895Y36399D01*
X334894Y35399D01*
Y33400D01*
Y34900D01*
X332895D01*
X335894Y33400D02*
Y36399D01*
X336894Y35399D01*
X337894Y36399D01*
Y33400D01*
X274199Y35899D02*
X273699Y36399D01*
X272700D01*
X272200Y35899D01*
Y35399D01*
X272700Y34900D01*
X273699D01*
X274199Y34400D01*
Y33900D01*
X273699Y33400D01*
X272700D01*
X272200Y33900D01*
X276698Y36399D02*
X275699D01*
X275199Y35899D01*
Y33900D01*
X275699Y33400D01*
X276698D01*
X277198Y33900D01*
Y35899D01*
X276698Y36399D01*
X280197D02*
X278198D01*
Y34900D01*
X279198D01*
X278198D01*
Y33400D01*
X281197Y36399D02*
X283196D01*
X282197D01*
Y33400D01*
X287195D02*
Y36399D01*
X288695D01*
X289194Y35899D01*
Y34900D01*
X288695Y34400D01*
X287195D01*
X288195D02*
X289194Y33400D01*
X292194Y36399D02*
X290194D01*
Y33400D01*
X292194D01*
X290194Y34900D02*
X291194D01*
X295193Y35899D02*
X294693Y36399D01*
X293693D01*
X293193Y35899D01*
Y35399D01*
X293693Y34900D01*
X294693D01*
X295193Y34400D01*
Y33900D01*
X294693Y33400D01*
X293693D01*
X293193Y33900D01*
X298192Y36399D02*
X296192D01*
Y33400D01*
X298192D01*
X296192Y34900D02*
X297192D01*
X299191Y36399D02*
X301191D01*
X300191D01*
Y33400D01*
X350300Y151900D02*
X347301D01*
Y153400D01*
X347801Y153899D01*
X348800D01*
X349300Y153400D01*
Y151900D01*
X350300Y154899D02*
X347301D01*
X348301Y155899D01*
X347301Y156898D01*
X350300D01*
X347301Y159398D02*
Y158398D01*
X347801Y157898D01*
X349800D01*
X350300Y158398D01*
Y159398D01*
X349800Y159897D01*
X347801D01*
X347301Y159398D01*
Y160897D02*
X350300D01*
Y162397D01*
X349800Y162896D01*
X347801D01*
X347301Y162397D01*
Y160897D01*
X350300Y168895D02*
Y166895D01*
X348301Y168895D01*
X347801D01*
X347301Y168395D01*
Y167395D01*
X347801Y166895D01*
X350000Y69900D02*
X347001D01*
Y71399D01*
X347501Y71899D01*
X348500D01*
X349000Y71399D01*
Y69900D01*
X350000Y72899D02*
X347001D01*
X348001Y73899D01*
X347001Y74898D01*
X350000D01*
X347001Y77398D02*
Y76398D01*
X347501Y75898D01*
X349500D01*
X350000Y76398D01*
Y77398D01*
X349500Y77897D01*
X347501D01*
X347001Y77398D01*
Y78897D02*
X350000D01*
Y80397D01*
X349500Y80896D01*
X347501D01*
X347001Y80397D01*
Y78897D01*
X350000Y84895D02*
Y85895D01*
Y85395D01*
X347001D01*
X347501Y84895D01*
X258301Y198200D02*
X261300D01*
Y199699D01*
X260800Y200199D01*
X258801D01*
X258301Y199699D01*
Y198200D01*
X258801Y201199D02*
X258301Y201699D01*
Y202699D01*
X258801Y203198D01*
X260800D01*
X261300Y202699D01*
Y201699D01*
X260800Y201199D01*
X258801D01*
X238801Y187000D02*
X241800D01*
Y188499D01*
X241300Y188999D01*
X239301D01*
X238801Y188499D01*
Y187000D01*
X241800Y189999D02*
Y190999D01*
Y190499D01*
X238801D01*
X239301Y189999D01*
X228901Y186300D02*
X231900D01*
Y187800D01*
X231400Y188299D01*
X229401D01*
X228901Y187800D01*
Y186300D01*
X231900Y191298D02*
Y189299D01*
X229901Y191298D01*
X229401D01*
X228901Y190799D01*
Y189799D01*
X229401Y189299D01*
X218934Y186000D02*
X221933D01*
Y187499D01*
X221433Y187999D01*
X219434D01*
X218934Y187499D01*
Y186000D01*
X219434Y188999D02*
X218934Y189499D01*
Y190498D01*
X219434Y190998D01*
X219934D01*
X220434Y190498D01*
Y189999D01*
Y190498D01*
X220934Y190998D01*
X221433D01*
X221933Y190498D01*
Y189499D01*
X221433Y188999D01*
X209001Y186000D02*
X212000D01*
Y187499D01*
X211500Y187999D01*
X209501D01*
X209001Y187499D01*
Y186000D01*
X212000Y190499D02*
X209001D01*
X210501Y188999D01*
Y190998D01*
X199068Y186000D02*
X202067D01*
Y187499D01*
X201567Y187999D01*
X199567D01*
X199068Y187499D01*
Y186000D01*
Y190998D02*
Y188999D01*
X200567D01*
X200067Y189999D01*
Y190498D01*
X200567Y190998D01*
X201567D01*
X202067Y190498D01*
Y189499D01*
X201567Y188999D01*
X189134Y186000D02*
X192133D01*
Y187499D01*
X191633Y187999D01*
X189634D01*
X189134Y187499D01*
Y186000D01*
Y190998D02*
X189634Y189999D01*
X190634Y188999D01*
X191633D01*
X192133Y189499D01*
Y190499D01*
X191633Y190998D01*
X191134D01*
X190634Y190499D01*
Y188999D01*
X179201Y186000D02*
X182200D01*
Y187499D01*
X181700Y187999D01*
X179701D01*
X179201Y187499D01*
Y186000D01*
Y188999D02*
Y190998D01*
X179701D01*
X181700Y188999D01*
X182200D01*
X163301Y186000D02*
X166300D01*
Y187499D01*
X165800Y187999D01*
X163801D01*
X163301Y187499D01*
Y186000D01*
X163801Y188999D02*
X163301Y189499D01*
Y190498D01*
X163801Y190998D01*
X164301D01*
X164801Y190498D01*
X165300Y190998D01*
X165800D01*
X166300Y190498D01*
Y189499D01*
X165800Y188999D01*
X165300D01*
X164801Y189499D01*
X164301Y188999D01*
X163801D01*
X164801Y189499D02*
Y190498D01*
X153281Y186000D02*
X156280D01*
Y187499D01*
X155780Y187999D01*
X153781D01*
X153281Y187499D01*
Y186000D01*
X155780Y188999D02*
X156280Y189499D01*
Y190498D01*
X155780Y190998D01*
X153781D01*
X153281Y190498D01*
Y189499D01*
X153781Y188999D01*
X154281D01*
X154780Y189499D01*
Y190998D01*
X143261Y186000D02*
X146260D01*
Y187499D01*
X145760Y187999D01*
X143761D01*
X143261Y187499D01*
Y186000D01*
X146260Y188999D02*
Y189999D01*
Y189499D01*
X143261D01*
X143761Y188999D01*
Y191498D02*
X143261Y191998D01*
Y192998D01*
X143761Y193498D01*
X145760D01*
X146260Y192998D01*
Y191998D01*
X145760Y191498D01*
X143761D01*
X133241Y186000D02*
X136240D01*
Y187499D01*
X135740Y187999D01*
X133741D01*
X133241Y187499D01*
Y186000D01*
X136240Y188999D02*
Y189999D01*
Y189499D01*
X133241D01*
X133741Y188999D01*
X136240Y191498D02*
Y192498D01*
Y191998D01*
X133241D01*
X133741Y191498D01*
X123221Y186000D02*
X126220D01*
Y187499D01*
X125720Y187999D01*
X123721D01*
X123221Y187499D01*
Y186000D01*
X126220Y188999D02*
Y189999D01*
Y189499D01*
X123221D01*
X123721Y188999D01*
X126220Y193498D02*
Y191498D01*
X124221Y193498D01*
X123721D01*
X123221Y192998D01*
Y191998D01*
X123721Y191498D01*
X113201Y186000D02*
X116200D01*
Y187499D01*
X115700Y187999D01*
X113701D01*
X113201Y187499D01*
Y186000D01*
X116200Y188999D02*
Y189999D01*
Y189499D01*
X113201D01*
X113701Y188999D01*
Y191498D02*
X113201Y191998D01*
Y192998D01*
X113701Y193498D01*
X114201D01*
X114700Y192998D01*
Y192498D01*
Y192998D01*
X115200Y193498D01*
X115700D01*
X116200Y192998D01*
Y191998D01*
X115700Y191498D01*
X249201Y17900D02*
X252200D01*
Y19399D01*
X251700Y19899D01*
X249701D01*
X249201Y19399D01*
Y17900D01*
X252200Y20899D02*
Y21899D01*
Y21399D01*
X249201D01*
X249701Y20899D01*
X252200Y24898D02*
X249201D01*
X250700Y23398D01*
Y25398D01*
X239241Y17900D02*
X242240D01*
Y19399D01*
X241740Y19899D01*
X239741D01*
X239241Y19399D01*
Y17900D01*
X242240Y20899D02*
Y21899D01*
Y21399D01*
X239241D01*
X239741Y20899D01*
X239241Y25398D02*
Y23398D01*
X240740D01*
X240241Y24398D01*
Y24898D01*
X240740Y25398D01*
X241740D01*
X242240Y24898D01*
Y23898D01*
X241740Y23398D01*
X229281Y17900D02*
X232280D01*
Y19399D01*
X231780Y19899D01*
X229781D01*
X229281Y19399D01*
Y17900D01*
X232280Y20899D02*
Y21899D01*
Y21399D01*
X229281D01*
X229781Y20899D01*
X229281Y25398D02*
X229781Y24398D01*
X230781Y23398D01*
X231780D01*
X232280Y23898D01*
Y24898D01*
X231780Y25398D01*
X231280D01*
X230781Y24898D01*
Y23398D01*
X219321Y17900D02*
X222320D01*
Y19399D01*
X221820Y19899D01*
X219821D01*
X219321Y19399D01*
Y17900D01*
X222320Y20899D02*
Y21899D01*
Y21399D01*
X219321D01*
X219821Y20899D01*
X219321Y23398D02*
Y25398D01*
X219821D01*
X221820Y23398D01*
X222320D01*
X209361Y17900D02*
X212360D01*
Y19399D01*
X211860Y19899D01*
X209861D01*
X209361Y19399D01*
Y17900D01*
X212360Y20899D02*
Y21899D01*
Y21399D01*
X209361D01*
X209861Y20899D01*
Y23398D02*
X209361Y23898D01*
Y24898D01*
X209861Y25398D01*
X210361D01*
X210860Y24898D01*
X211360Y25398D01*
X211860D01*
X212360Y24898D01*
Y23898D01*
X211860Y23398D01*
X211360D01*
X210860Y23898D01*
X210361Y23398D01*
X209861D01*
X210860Y23898D02*
Y24898D01*
X199401Y17900D02*
X202400D01*
Y19399D01*
X201900Y19899D01*
X199901D01*
X199401Y19399D01*
Y17900D01*
X202400Y20899D02*
Y21899D01*
Y21399D01*
X199401D01*
X199901Y20899D01*
X201900Y23398D02*
X202400Y23898D01*
Y24898D01*
X201900Y25398D01*
X199901D01*
X199401Y24898D01*
Y23898D01*
X199901Y23398D01*
X200401D01*
X200901Y23898D01*
Y25398D01*
X125901Y65300D02*
X128900Y67299D01*
X125901D02*
X128900Y65300D01*
X126401Y70298D02*
X125901Y69799D01*
Y68799D01*
X126401Y68299D01*
X128400D01*
X128900Y68799D01*
Y69799D01*
X128400Y70298D01*
X125901Y73297D02*
X126401Y72298D01*
X127401Y71298D01*
X128400D01*
X128900Y71798D01*
Y72798D01*
X128400Y73297D01*
X127900D01*
X127401Y72798D01*
Y71298D01*
X126401Y76296D02*
X125901Y75797D01*
Y74797D01*
X126401Y74297D01*
X126901D01*
X127401Y74797D01*
Y75797D01*
X127900Y76296D01*
X128400D01*
X128900Y75797D01*
Y74797D01*
X128400Y74297D01*
X125901Y77296D02*
X128900D01*
Y79295D01*
X125901Y80295D02*
X128900Y82294D01*
X125901D02*
X128900Y80295D01*
X128400Y83294D02*
X128900Y83794D01*
Y84794D01*
X128400Y85294D01*
X126401D01*
X125901Y84794D01*
Y83794D01*
X126401Y83294D01*
X126901D01*
X127401Y83794D01*
Y85294D01*
Y86293D02*
Y88293D01*
X125901Y89292D02*
X128900D01*
Y91292D01*
Y92291D02*
Y93291D01*
Y92791D01*
X125901D01*
X126401Y92291D01*
X125901Y94791D02*
Y96790D01*
Y95790D01*
X128900D01*
X128400Y99789D02*
X126401D01*
X125901Y99289D01*
Y98289D01*
X126401Y97790D01*
X128400D01*
X128900Y98289D01*
Y99289D01*
X127900Y98789D02*
X128900Y99789D01*
Y99289D02*
X128400Y99789D01*
X126401Y102788D02*
X125901Y102288D01*
Y101288D01*
X126401Y100788D01*
X128400D01*
X128900Y101288D01*
Y102288D01*
X128400Y102788D01*
X127401D01*
Y101788D01*
X128900Y103788D02*
Y104787D01*
Y104287D01*
X125901D01*
X126401Y103788D01*
X128900Y107786D02*
X125901D01*
X127401Y106287D01*
Y108286D01*
X128900Y110785D02*
X125901D01*
X127401Y109286D01*
Y111285D01*
X148401Y19399D02*
Y17400D01*
X149900D01*
X149401Y18400D01*
Y18900D01*
X149900Y19399D01*
X150900D01*
X151400Y18900D01*
Y17900D01*
X150900Y17400D01*
X151400Y20399D02*
X150900D01*
Y20899D01*
X151400D01*
Y20399D01*
X148901Y22898D02*
X148401Y23398D01*
Y24398D01*
X148901Y24898D01*
X150900D01*
X151400Y24398D01*
Y23398D01*
X150900Y22898D01*
X148901D01*
X148401Y25897D02*
X150400D01*
X151400Y26897D01*
X150400Y27897D01*
X148401D01*
X159151Y19399D02*
X158651Y18900D01*
Y17900D01*
X159151Y17400D01*
X161150D01*
X161650Y17900D01*
Y18900D01*
X161150Y19399D01*
X160151D01*
Y18400D01*
X161650Y20399D02*
X158651D01*
X161650Y22398D01*
X158651D01*
Y23398D02*
X161650D01*
Y24898D01*
X161150Y25397D01*
X159151D01*
X158651Y24898D01*
Y23398D01*
X169401Y19399D02*
X168901Y18900D01*
Y17900D01*
X169401Y17400D01*
X171400D01*
X171900Y17900D01*
Y18900D01*
X171400Y19399D01*
X170401D01*
Y18400D01*
X171900Y20399D02*
X168901D01*
X171900Y22398D01*
X168901D01*
Y23398D02*
X171900D01*
Y24898D01*
X171400Y25397D01*
X169401D01*
X168901Y24898D01*
Y23398D01*
X29101Y187499D02*
X28601Y186999D01*
Y186000D01*
X29101Y185500D01*
X31100D01*
X31600Y186000D01*
Y186999D01*
X31100Y187499D01*
X30101D01*
Y186500D01*
X31600Y188499D02*
X28601D01*
X31600Y190498D01*
X28601D01*
Y191498D02*
X31600D01*
Y192998D01*
X31100Y193497D01*
X29101D01*
X28601Y192998D01*
Y191498D01*
X38801Y185500D02*
Y187499D01*
Y186500D01*
X41800D01*
Y188499D02*
X38801D01*
X39801Y189499D01*
X38801Y190498D01*
X41800D01*
X39301Y193497D02*
X38801Y192998D01*
Y191998D01*
X39301Y191498D01*
X39801D01*
X40301Y191998D01*
Y192998D01*
X40800Y193497D01*
X41300D01*
X41800Y192998D01*
Y191998D01*
X41300Y191498D01*
X49001Y185500D02*
Y187499D01*
Y186500D01*
X52000D01*
X49001Y188499D02*
X52000D01*
Y189999D01*
X51500Y190498D01*
X49501D01*
X49001Y189999D01*
Y188499D01*
Y192998D02*
Y191998D01*
X49501Y191498D01*
X51500D01*
X52000Y191998D01*
Y192998D01*
X51500Y193497D01*
X49501D01*
X49001Y192998D01*
X59201Y185500D02*
Y187499D01*
Y186500D01*
X62200D01*
X59201Y188499D02*
X62200D01*
Y189999D01*
X61700Y190498D01*
X59701D01*
X59201Y189999D01*
Y188499D01*
Y191498D02*
Y192498D01*
Y191998D01*
X62200D01*
Y191498D01*
Y192498D01*
X69401Y185500D02*
Y187499D01*
Y186500D01*
X72400D01*
X69901Y190498D02*
X69401Y189999D01*
Y188999D01*
X69901Y188499D01*
X71900D01*
X72400Y188999D01*
Y189999D01*
X71900Y190498D01*
X69401Y191498D02*
X72400D01*
X71400D01*
X69401Y193497D01*
X70900Y191998D01*
X72400Y193497D01*
X106301Y187399D02*
X105801Y186899D01*
Y185900D01*
X106301Y185400D01*
X108300D01*
X108800Y185900D01*
Y186899D01*
X108300Y187399D01*
X107300D01*
Y186400D01*
X108800Y188399D02*
X105801D01*
X108800Y190398D01*
X105801D01*
Y191398D02*
X108800D01*
Y192898D01*
X108300Y193397D01*
X106301D01*
X105801Y192898D01*
Y191398D01*
X91501Y183400D02*
X91001Y183900D01*
Y184899D01*
X91501Y185399D01*
X92001D01*
X92501Y184899D01*
Y184400D01*
Y184899D01*
X93000Y185399D01*
X93500D01*
X94000Y184899D01*
Y183900D01*
X93500Y183400D01*
X94000Y186399D02*
X93500D01*
Y186899D01*
X94000D01*
Y186399D01*
X91501Y188898D02*
X91001Y189398D01*
Y190398D01*
X91501Y190898D01*
X92001D01*
X92501Y190398D01*
Y189898D01*
Y190398D01*
X93000Y190898D01*
X93500D01*
X94000Y190398D01*
Y189398D01*
X93500Y188898D01*
X91001Y191897D02*
X93000D01*
X94000Y192897D01*
X93000Y193897D01*
X91001D01*
X182300Y17400D02*
X179301D01*
X182300Y19399D01*
X179301D01*
X179801Y22398D02*
X179301Y21899D01*
Y20899D01*
X179801Y20399D01*
X181800D01*
X182300Y20899D01*
Y21899D01*
X181800Y22398D01*
X13200Y179599D02*
Y176600D01*
X14699D01*
X15199Y177100D01*
Y179099D01*
X14699Y179599D01*
X13200D01*
X18198Y179099D02*
X17699Y179599D01*
X16699D01*
X16199Y179099D01*
Y177100D01*
X16699Y176600D01*
X17699D01*
X18198Y177100D01*
X23600Y179699D02*
Y177200D01*
X24100Y176700D01*
X25100D01*
X25599Y177200D01*
Y179699D01*
X28598Y179199D02*
X28099Y179699D01*
X27099D01*
X26599Y179199D01*
Y178699D01*
X27099Y178200D01*
X28099D01*
X28598Y177700D01*
Y177200D01*
X28099Y176700D01*
X27099D01*
X26599Y177200D01*
X29598Y179699D02*
Y176700D01*
X31098D01*
X31597Y177200D01*
Y177700D01*
X31098Y178200D01*
X29598D01*
X31098D01*
X31597Y178699D01*
Y179199D01*
X31098Y179699D01*
X29598D01*
X6700Y181200D02*
Y184199D01*
X8200D01*
X8699Y183699D01*
Y182700D01*
X8200Y182200D01*
X6700D01*
X10199Y181200D02*
X11199D01*
X11698Y181700D01*
Y182700D01*
X11199Y183199D01*
X10199D01*
X9699Y182700D01*
Y181700D01*
X10199Y181200D01*
X12698Y183199D02*
Y181700D01*
X13198Y181200D01*
X13698Y181700D01*
X14198Y181200D01*
X14697Y181700D01*
Y183199D01*
X17197Y181200D02*
X16197D01*
X15697Y181700D01*
Y182700D01*
X16197Y183199D01*
X17197D01*
X17696Y182700D01*
Y182200D01*
X15697D01*
X18696Y183199D02*
Y181200D01*
Y182200D01*
X19196Y182700D01*
X19696Y183199D01*
X20196D01*
X26693Y183699D02*
X26194Y184199D01*
X25194D01*
X24694Y183699D01*
Y183199D01*
X25194Y182700D01*
X26194D01*
X26693Y182200D01*
Y181700D01*
X26194Y181200D01*
X25194D01*
X24694Y181700D01*
X29193Y181200D02*
X28193D01*
X27693Y181700D01*
Y182700D01*
X28193Y183199D01*
X29193D01*
X29693Y182700D01*
Y182200D01*
X27693D01*
X30692Y181200D02*
X31692D01*
X31192D01*
Y184199D01*
X30692D01*
X34691Y181200D02*
X33691D01*
X33191Y181700D01*
Y182700D01*
X33691Y183199D01*
X34691D01*
X35191Y182700D01*
Y182200D01*
X33191D01*
X38190Y183199D02*
X36690D01*
X36191Y182700D01*
Y181700D01*
X36690Y181200D01*
X38190D01*
X39689Y183699D02*
Y183199D01*
X39189D01*
X40189D01*
X39689D01*
Y181700D01*
X40189Y181200D01*
X800Y10400D02*
G03*
X10800Y400I10000J0D01*
G01*
Y210400D02*
G03*
X800Y200400I0J-10000D01*
G01*
X410800D02*
G03*
X400800Y210400I-10000J0D01*
G01*
Y400D02*
G03*
X410800Y10400I0J10000D01*
G01*
X800D02*
Y200400D01*
X10800Y400D02*
X400800D01*
X410800Y10400D02*
Y200400D01*
X10800Y210400D02*
X400800D01*
D35*
X125800Y5400D02*
X185800D01*
Y15400D01*
X125800D02*
X185800D01*
X125800Y5400D02*
Y15400D01*
X180800Y14534D02*
Y15400D01*
Y5400D02*
Y6168D01*
X377434Y118215D02*
Y181109D01*
X353713D02*
X377434D01*
X353713Y118215D02*
Y181109D01*
X354091Y175400D02*
X355091D01*
X353713Y118215D02*
X377434D01*
X353713Y28215D02*
X377434D01*
X354091Y85400D02*
X355091D01*
X353713Y28215D02*
Y91109D01*
X377434D01*
Y28215D02*
Y91109D01*
X1358Y78294D02*
Y120106D01*
X9587D01*
X12776Y116917D01*
X22067D01*
Y111995D02*
Y116917D01*
Y81484D02*
Y86405D01*
X12776Y81484D02*
X22067D01*
X9587Y78294D02*
X12776Y81484D01*
X1358Y78294D02*
X9587D01*
X175013Y195400D02*
X255800D01*
Y205400D01*
X175013D02*
X255800D01*
X175013Y195400D02*
Y205400D01*
X250800Y204829D02*
Y205400D01*
Y195400D02*
Y195971D01*
Y5400D02*
Y6168D01*
Y14534D02*
Y15400D01*
X195800Y5400D02*
Y15400D01*
X255800D01*
Y5400D02*
Y15400D01*
X195800Y5400D02*
X255800D01*
X25800Y195400D02*
X85800D01*
Y205400D01*
X25800D02*
X85800D01*
X25800Y195400D02*
Y205400D01*
X80800Y204534D02*
Y205400D01*
Y195400D02*
Y196168D01*
X6300Y174500D02*
X36694D01*
X6300Y164500D02*
Y174500D01*
Y164500D02*
X36694D01*
Y174500D01*
X11300Y164500D02*
Y164972D01*
Y174126D02*
Y174500D01*
X89013Y195400D02*
X169800D01*
Y205400D01*
X89013D02*
X169800D01*
X89013Y195400D02*
Y205400D01*
X164800Y204829D02*
Y205400D01*
Y195400D02*
Y195971D01*
D50*
X296450Y145066D02*
G03*
X296450Y145066I-492J0D01*
G01*
X37814Y149107D02*
G03*
X37814Y149107I-492J0D01*
G01*
X162587Y50065D02*
G03*
X162587Y50065I-492J0D01*
G01*
X99279Y28057D02*
G03*
X99279Y28057I-492J0D01*
G01*
X114140Y159083D02*
G03*
X114140Y159083I-492J0D01*
G01*
X284969Y54109D02*
G03*
X284969Y54109I-492J0D01*
G01*
X261695Y181266D02*
G03*
X261695Y181266I-492J0D01*
G01*
X12708Y73447D02*
G03*
X12708Y73447I-492J0D01*
G01*
X56142Y115920D02*
G03*
X56142Y115920I-492J0D01*
G01*
X57900Y142800D02*
G03*
X57900Y142800I-492J0D01*
G01*
X275480Y28057D02*
G03*
X275480Y28057I-492J0D01*
G01*
X315441D02*
G03*
X315441Y28057I-492J0D01*
G01*
X59280D02*
G03*
X59280Y28057I-492J0D01*
G01*
X82690Y154134D02*
G03*
X82690Y154134I-492J0D01*
G01*
D51*
X305702Y140834D02*
G03*
X305702Y140834I-1181J0D01*
G01*
X30531Y153635D02*
G03*
X30531Y153635I-1181J0D01*
G01*
X168001Y59120D02*
G03*
X168001Y59120I-1181J0D01*
G01*
X122802Y158236D02*
G03*
X122804Y158306I-1179J69D01*
G01*
X65886Y111195D02*
G03*
X65886Y111195I-1181J0D01*
G01*
D52*
X300584Y56976D02*
Y144771D01*
X335426Y56976D02*
Y144771D01*
X300584D02*
X335426D01*
X300584Y56976D02*
X335426D01*
X19113Y161902D02*
X33287D01*
X19113Y149698D02*
X33287D01*
X19113D02*
Y161902D01*
X33287Y149698D02*
Y161902D01*
X235717Y55183D02*
Y128017D01*
X162883Y55183D02*
Y128017D01*
X235717D01*
X162883Y55183D02*
X235717D01*
X100165Y31206D02*
X120343D01*
X100165Y7387D02*
X119850D01*
X118963Y138157D02*
Y157843D01*
X126837Y138157D02*
Y157843D01*
X118963D02*
X126837D01*
X118963Y138157D02*
X126837D01*
X264891Y56668D02*
Y90428D01*
X288906Y56668D02*
Y90428D01*
X264891Y56668D02*
X288906D01*
X264891Y90428D02*
X288906D01*
X251065Y178353D02*
Y179573D01*
Y171227D02*
Y172447D01*
X260946Y171266D02*
Y172447D01*
Y178353D02*
Y179534D01*
X45584Y27431D02*
Y29891D01*
X44009Y27431D02*
X45584D01*
X38695Y62864D02*
X40269D01*
Y60403D02*
Y62864D01*
X60768Y81668D02*
X94232D01*
X60768Y115132D02*
X94232D01*
Y81668D02*
Y115132D01*
X60768Y81668D02*
Y115132D01*
X29203Y145065D02*
X53219D01*
X29203Y128135D02*
X54892D01*
X53219Y145065D02*
X54892Y143391D01*
Y128135D02*
Y143391D01*
X29203Y128135D02*
Y145065D01*
X254410Y152612D02*
X255591D01*
X254410Y166293D02*
X255591D01*
X276365Y31206D02*
X296543D01*
X276365Y7387D02*
X296050D01*
X316327Y31206D02*
X336504D01*
X316327Y7387D02*
X336012D01*
X60165Y31206D02*
X80343D01*
X60165Y7387D02*
X79850D01*
X87784Y182688D02*
X88965D01*
X87784Y169007D02*
X88965D01*
X82454Y155866D02*
Y157047D01*
Y162953D02*
Y164134D01*
X92335Y162953D02*
Y164173D01*
Y155827D02*
Y157047D01*
D53*
X106347Y38628D02*
X112253D01*
X106347Y42172D02*
X112253D01*
X113828Y39809D02*
Y40991D01*
X68528Y175309D02*
Y176491D01*
X61047Y177672D02*
X66953D01*
X61047Y174128D02*
X66953D01*
X264409Y113272D02*
X265591D01*
X266772Y114847D02*
Y120753D01*
X263228Y114847D02*
Y120753D01*
X65072Y39809D02*
Y40991D01*
X66647Y38628D02*
X72553D01*
X66647Y42172D02*
X72553D01*
M02*
