%FSLAX24Y24*%
%MOIN*%
G70*
G01*
G75*
G04 Layer_Color=255*
%ADD10C,0.0060*%
%ADD11C,0.0150*%
%ADD12C,0.0394*%
%ADD13C,0.0591*%
%ADD14C,0.0600*%
%ADD15C,0.0240*%
%ADD16C,0.0400*%
%ADD17C,0.0640*%
G04:AMPARAMS|DCode=18|XSize=80mil|YSize=80mil|CornerRadius=0mil|HoleSize=0mil|Usage=FLASHONLY|Rotation=0.000|XOffset=0mil|YOffset=0mil|HoleType=Round|Shape=Relief|Width=8mil|Gap=10mil|Entries=4|*
%AMTHD18*
7,0,0,0.0800,0.0600,0.0080,45*
%
%ADD18THD18*%
%ADD19C,0.1490*%
%ADD20C,0.0340*%
G04:AMPARAMS|DCode=21|XSize=50mil|YSize=50mil|CornerRadius=0mil|HoleSize=0mil|Usage=FLASHONLY|Rotation=0.000|XOffset=0mil|YOffset=0mil|HoleType=Round|Shape=Relief|Width=8mil|Gap=10mil|Entries=4|*
%AMTHD21*
7,0,0,0.0500,0.0300,0.0080,45*
%
%ADD21THD21*%
%ADD22R,0.0551X0.0709*%
G04:AMPARAMS|DCode=23|XSize=25.6mil|YSize=23.6mil|CornerRadius=5.9mil|HoleSize=0mil|Usage=FLASHONLY|Rotation=180.000|XOffset=0mil|YOffset=0mil|HoleType=Round|Shape=RoundedRectangle|*
%AMROUNDEDRECTD23*
21,1,0.0256,0.0118,0,0,180.0*
21,1,0.0138,0.0236,0,0,180.0*
1,1,0.0118,-0.0069,0.0059*
1,1,0.0118,0.0069,0.0059*
1,1,0.0118,0.0069,-0.0059*
1,1,0.0118,-0.0069,-0.0059*
%
%ADD23ROUNDEDRECTD23*%
%ADD24R,0.0984X0.0354*%
%ADD25R,0.0098X0.0315*%
%ADD26R,0.0236X0.0748*%
%ADD27R,0.0827X0.1102*%
%ADD28R,0.0433X0.0256*%
%ADD29R,0.0433X0.0097*%
%ADD30R,0.0433X0.0097*%
%ADD31R,0.0097X0.0433*%
%ADD32R,0.0433X0.1260*%
%ADD33R,0.0138X0.0709*%
%ADD34R,0.0126X0.0709*%
%ADD35R,0.0394X0.0433*%
%ADD36R,0.0256X0.0295*%
%ADD37R,0.0669X0.0984*%
%ADD38R,0.0591X0.0512*%
%ADD39R,0.0236X0.0197*%
G04:AMPARAMS|DCode=40|XSize=25.6mil|YSize=23.6mil|CornerRadius=5.9mil|HoleSize=0mil|Usage=FLASHONLY|Rotation=270.000|XOffset=0mil|YOffset=0mil|HoleType=Round|Shape=RoundedRectangle|*
%AMROUNDEDRECTD40*
21,1,0.0256,0.0118,0,0,270.0*
21,1,0.0138,0.0236,0,0,270.0*
1,1,0.0118,-0.0059,-0.0069*
1,1,0.0118,-0.0059,0.0069*
1,1,0.0118,0.0059,0.0069*
1,1,0.0118,0.0059,-0.0069*
%
%ADD40ROUNDEDRECTD40*%
%ADD41R,0.0197X0.0236*%
%ADD42C,0.0100*%
%ADD43C,0.0120*%
%ADD44C,0.0200*%
%ADD45C,0.0140*%
D12*
X0Y1000D02*
G03*
X1000Y0I1000J0D01*
G01*
X1000Y27000D02*
G03*
X0Y26000I0J-1000D01*
G01*
X45000Y0D02*
G03*
X46000Y1000I0J1000D01*
G01*
X46001Y26000D02*
G03*
X45001Y27000I-1000J0D01*
G01*
X1000Y0D02*
X45000Y0D01*
X0Y1000D02*
X0Y26000D01*
X46000Y1000D02*
X46000Y26000D01*
X1000Y27000D02*
X45001Y27000D01*
D13*
X1500Y17600D02*
D03*
X1500Y16600D02*
D03*
X1500Y15600D02*
D03*
X1500Y12600D02*
D03*
X1500Y13600D02*
D03*
X1500Y14600D02*
D03*
X2500Y14600D02*
D03*
X2500Y13600D02*
D03*
X2500Y12600D02*
D03*
X2500Y15600D02*
D03*
X2500Y16600D02*
D03*
X2500Y17600D02*
D03*
X1500Y8600D02*
D03*
X1500Y7600D02*
D03*
X1500Y6600D02*
D03*
X1500Y3600D02*
D03*
X1500Y4600D02*
D03*
X1500Y5600D02*
D03*
X2500Y5600D02*
D03*
X2500Y4600D02*
D03*
X2500Y3600D02*
D03*
X2500Y6600D02*
D03*
X2500Y7600D02*
D03*
X2500Y8600D02*
D03*
D14*
X13000Y26000D02*
D03*
X14000Y26000D02*
D03*
X15000Y26000D02*
D03*
X16000Y26000D02*
D03*
X17000Y26000D02*
D03*
X18000Y26000D02*
D03*
X23000Y26000D02*
D03*
X24000Y26000D02*
D03*
X25000Y26000D02*
D03*
X26000Y26000D02*
D03*
X27000Y26000D02*
D03*
X28000Y26000D02*
D03*
D22*
X29385Y10142D02*
D03*
X30330Y10142D02*
D03*
X30330Y11717D02*
D03*
X29385Y11717D02*
D03*
D23*
X25000Y23200D02*
D03*
X25000Y22806D02*
D03*
X35606Y14331D02*
D03*
X35606Y13937D02*
D03*
X38141Y5732D02*
D03*
X38141Y6126D02*
D03*
X36530Y5706D02*
D03*
X36530Y6100D02*
D03*
X33401Y14331D02*
D03*
X33401Y13937D02*
D03*
X39243Y13632D02*
D03*
X39243Y13239D02*
D03*
X30130Y7387D02*
D03*
X30130Y6994D02*
D03*
X30130Y6600D02*
D03*
X30130Y6206D02*
D03*
X7920Y18210D02*
D03*
X7920Y17816D02*
D03*
X8865Y18210D02*
D03*
X8865Y17816D02*
D03*
X27990Y22806D02*
D03*
X27990Y23200D02*
D03*
X27000Y22806D02*
D03*
X27000Y23200D02*
D03*
X26000Y22806D02*
D03*
X26000Y23200D02*
D03*
D24*
X41857Y5906D02*
D03*
D25*
X42153Y6339D02*
D03*
X41956Y6339D02*
D03*
X41759Y6339D02*
D03*
X41562Y6339D02*
D03*
X41562Y5472D02*
D03*
X41759Y5472D02*
D03*
X41956Y5472D02*
D03*
X42153Y5472D02*
D03*
D26*
X22832Y15727D02*
D03*
X23226Y15727D02*
D03*
X23620Y15727D02*
D03*
X24013Y15727D02*
D03*
X24407Y15727D02*
D03*
X24801Y15727D02*
D03*
D27*
X21592Y14802D02*
D03*
X26041Y14802D02*
D03*
D28*
X8865Y21009D02*
D03*
X8865Y20635D02*
D03*
X8865Y20261D02*
D03*
X7920Y20261D02*
D03*
X7920Y21009D02*
D03*
D29*
X32688Y7559D02*
D03*
D30*
X32688Y7717D02*
D03*
X32688Y7874D02*
D03*
X32688Y8031D02*
D03*
X32688Y8189D02*
D03*
X32688Y8346D02*
D03*
X32688Y8504D02*
D03*
X32688Y8661D02*
D03*
X32688Y8819D02*
D03*
X32688Y8976D02*
D03*
X32688Y9134D02*
D03*
X32688Y9291D02*
D03*
X32688Y9449D02*
D03*
X32688Y9606D02*
D03*
X32688Y9764D02*
D03*
X32688Y9921D02*
D03*
X32688Y10079D02*
D03*
X32688Y10236D02*
D03*
X32688Y10394D02*
D03*
X32688Y10551D02*
D03*
X32688Y10709D02*
D03*
X32688Y10866D02*
D03*
X32688Y11024D02*
D03*
X32688Y11181D02*
D03*
X32688Y11339D02*
D03*
X32688Y11496D02*
D03*
X32688Y11654D02*
D03*
X32688Y11811D02*
D03*
X32688Y11968D02*
D03*
X32688Y12126D02*
D03*
X32688Y12283D02*
D03*
X32688Y12441D02*
D03*
X38712Y12441D02*
D03*
X38712Y12283D02*
D03*
X38712Y12126D02*
D03*
X38712Y11968D02*
D03*
X38712Y11811D02*
D03*
X38712Y11654D02*
D03*
X38712Y11496D02*
D03*
X38712Y11339D02*
D03*
X38712Y11181D02*
D03*
X38712Y11024D02*
D03*
X38712Y10866D02*
D03*
X38712Y10709D02*
D03*
X38712Y10551D02*
D03*
X38712Y10394D02*
D03*
X38712Y10236D02*
D03*
X38712Y10079D02*
D03*
X38712Y9921D02*
D03*
X38712Y9764D02*
D03*
X38712Y9606D02*
D03*
X38712Y9449D02*
D03*
X38712Y9291D02*
D03*
X38712Y9134D02*
D03*
X38712Y8976D02*
D03*
X38712Y8819D02*
D03*
X38712Y8661D02*
D03*
X38712Y8504D02*
D03*
X38712Y8346D02*
D03*
X38712Y8189D02*
D03*
X38712Y8031D02*
D03*
X38712Y7874D02*
D03*
X38712Y7717D02*
D03*
X38712Y7559D02*
D03*
D31*
X33259Y13012D02*
D03*
X33417Y13012D02*
D03*
X33574Y13012D02*
D03*
X33732Y13012D02*
D03*
X33889Y13012D02*
D03*
X34046Y13012D02*
D03*
X34204Y13012D02*
D03*
X34361Y13012D02*
D03*
X34519Y13012D02*
D03*
X34676Y13012D02*
D03*
X34834Y13012D02*
D03*
X34991Y13012D02*
D03*
X35149Y13012D02*
D03*
X35306Y13012D02*
D03*
X35464Y13012D02*
D03*
X35621Y13012D02*
D03*
X35779Y13012D02*
D03*
X35936Y13012D02*
D03*
X36094Y13012D02*
D03*
X36251Y13012D02*
D03*
X36409Y13012D02*
D03*
X36566Y13012D02*
D03*
X36724Y13012D02*
D03*
X36881Y13012D02*
D03*
X37039Y13012D02*
D03*
X37196Y13012D02*
D03*
X37354Y13012D02*
D03*
X37511Y13012D02*
D03*
X37668Y13012D02*
D03*
X37826Y13012D02*
D03*
X37983Y13012D02*
D03*
X38141Y13012D02*
D03*
X38141Y6988D02*
D03*
X37983Y6988D02*
D03*
X37826Y6988D02*
D03*
X37668Y6988D02*
D03*
X37511Y6988D02*
D03*
X37354Y6988D02*
D03*
X37196Y6988D02*
D03*
X37039Y6988D02*
D03*
X36881Y6988D02*
D03*
X36724Y6988D02*
D03*
X36566Y6988D02*
D03*
X36409Y6988D02*
D03*
X36251Y6988D02*
D03*
X36094Y6988D02*
D03*
X35936Y6988D02*
D03*
X35779Y6988D02*
D03*
X35621Y6988D02*
D03*
X35464Y6988D02*
D03*
X35306Y6988D02*
D03*
X35149Y6988D02*
D03*
X34991Y6988D02*
D03*
X34834Y6988D02*
D03*
X34676Y6988D02*
D03*
X34519Y6988D02*
D03*
X34361Y6988D02*
D03*
X34204Y6988D02*
D03*
X34046Y6988D02*
D03*
X33889Y6988D02*
D03*
X33732Y6988D02*
D03*
X33574Y6988D02*
D03*
X33417Y6988D02*
D03*
X33259Y6988D02*
D03*
D32*
X8865Y22525D02*
D03*
X7920Y22525D02*
D03*
X41273Y7480D02*
D03*
X42218Y7480D02*
D03*
D33*
X18602Y16535D02*
D03*
X18406Y16535D02*
D03*
X18209Y16535D02*
D03*
X18012Y16535D02*
D03*
X17815Y16535D02*
D03*
X17618Y16535D02*
D03*
X17421Y16535D02*
D03*
X17224Y16535D02*
D03*
X17028Y16535D02*
D03*
X16831Y16535D02*
D03*
X16634Y16535D02*
D03*
X16437Y16535D02*
D03*
X16240Y16535D02*
D03*
X16043Y16535D02*
D03*
X15846Y16535D02*
D03*
X15650Y16535D02*
D03*
X15453Y16535D02*
D03*
X15256Y16535D02*
D03*
X15059Y16535D02*
D03*
X14862Y16535D02*
D03*
X14665Y16535D02*
D03*
X14468Y16535D02*
D03*
X14272Y16535D02*
D03*
X14075Y16535D02*
D03*
X13878Y16535D02*
D03*
X13681Y16535D02*
D03*
X13484Y16535D02*
D03*
X13287Y16535D02*
D03*
X13091Y16535D02*
D03*
X12894Y16535D02*
D03*
X12697Y16535D02*
D03*
X12500Y16535D02*
D03*
X12303Y16535D02*
D03*
X12106Y16535D02*
D03*
X10925Y16535D02*
D03*
D34*
X11909Y16535D02*
D03*
X11713Y16535D02*
D03*
X11516Y16535D02*
D03*
X11319Y16535D02*
D03*
X11122Y16535D02*
D03*
D35*
X13000Y24081D02*
D03*
X13000Y24750D02*
D03*
X23000Y24081D02*
D03*
X23000Y24750D02*
D03*
D36*
X41956Y4410D02*
D03*
X41956Y4843D02*
D03*
X41185Y5102D02*
D03*
X41185Y4669D02*
D03*
D37*
X10629Y20165D02*
D03*
X10629Y18590D02*
D03*
D38*
X6346Y20419D02*
D03*
X6346Y21167D02*
D03*
X3819Y13398D02*
D03*
X3819Y12650D02*
D03*
X4764Y13398D02*
D03*
X4764Y12650D02*
D03*
X3819Y4390D02*
D03*
X3819Y3642D02*
D03*
X4764Y4390D02*
D03*
X4764Y3642D02*
D03*
X43355Y5752D02*
D03*
X43355Y6500D02*
D03*
X40605Y5711D02*
D03*
X40605Y6459D02*
D03*
D39*
X9558Y18590D02*
D03*
X9558Y18984D02*
D03*
X32613Y12961D02*
D03*
X32613Y13354D02*
D03*
X34361Y13937D02*
D03*
X34361Y14331D02*
D03*
X36881Y13898D02*
D03*
X36881Y14291D02*
D03*
X33354Y6220D02*
D03*
X33354Y5827D02*
D03*
X34787Y6063D02*
D03*
X34787Y5669D02*
D03*
X36078Y6220D02*
D03*
X36078Y5827D02*
D03*
X37354Y6220D02*
D03*
X37354Y5827D02*
D03*
X38283Y13937D02*
D03*
X38283Y14331D02*
D03*
X42725Y6336D02*
D03*
X42725Y5942D02*
D03*
X7133Y21021D02*
D03*
X7133Y20627D02*
D03*
D40*
X31256Y11654D02*
D03*
X31650Y11654D02*
D03*
X11201Y17679D02*
D03*
X11594Y17679D02*
D03*
X31106Y7953D02*
D03*
X31500Y7953D02*
D03*
X30956Y9300D02*
D03*
X31350Y9300D02*
D03*
X40144Y10945D02*
D03*
X39750Y10945D02*
D03*
D41*
X29661Y9197D02*
D03*
X30054Y9197D02*
D03*
X30047Y12550D02*
D03*
X29653Y12550D02*
D03*
X39637Y11417D02*
D03*
X40031Y11417D02*
D03*
X32708Y7165D02*
D03*
X32314Y7165D02*
D03*
X39850Y9620D02*
D03*
X40244Y9620D02*
D03*
X39354Y8315D02*
D03*
X39747Y8315D02*
D03*
X31794Y10236D02*
D03*
X31401Y10236D02*
D03*
M02*
