%FSLAX24Y24*%
%MOIN*%
G70*
G01*
G75*
%ADD10C,0.0060*%
%ADD11C,0.0150*%
%ADD12C,0.0394*%
%ADD13C,0.0591*%
%ADD14C,0.0600*%
%ADD15C,0.0240*%
%ADD16C,0.0400*%
%ADD17C,0.0640*%
G04:AMPARAMS|DCode=18|XSize=80mil|YSize=80mil|CornerRadius=0mil|HoleSize=0mil|Usage=FLASHONLY|Rotation=0.000|XOffset=0mil|YOffset=0mil|HoleType=Round|Shape=Relief|Width=8mil|Gap=10mil|Entries=4|*
%AMTHD18*
7,0,0,0.0800,0.0600,0.0080,45*
%
%ADD18THD18*%
%ADD19C,0.1490*%
%ADD20C,0.0340*%
G04:AMPARAMS|DCode=21|XSize=50mil|YSize=50mil|CornerRadius=0mil|HoleSize=0mil|Usage=FLASHONLY|Rotation=0.000|XOffset=0mil|YOffset=0mil|HoleType=Round|Shape=Relief|Width=8mil|Gap=10mil|Entries=4|*
%AMTHD21*
7,0,0,0.0500,0.0300,0.0080,45*
%
%ADD21THD21*%
%ADD22R,0.0551X0.0709*%
G04:AMPARAMS|DCode=23|XSize=25.6mil|YSize=23.6mil|CornerRadius=5.9mil|HoleSize=0mil|Usage=FLASHONLY|Rotation=180.000|XOffset=0mil|YOffset=0mil|HoleType=Round|Shape=RoundedRectangle|*
%AMROUNDEDRECTD23*
21,1,0.0256,0.0118,0,0,180.0*
21,1,0.0138,0.0236,0,0,180.0*
1,1,0.0118,-0.0069,0.0059*
1,1,0.0118,0.0069,0.0059*
1,1,0.0118,0.0069,-0.0059*
1,1,0.0118,-0.0069,-0.0059*
%
%ADD23ROUNDEDRECTD23*%
%ADD24R,0.0984X0.0354*%
%ADD25R,0.0098X0.0315*%
%ADD26R,0.0236X0.0748*%
%ADD27R,0.0827X0.1102*%
%ADD28R,0.0433X0.0256*%
%ADD29R,0.0433X0.0097*%
%ADD30R,0.0433X0.0097*%
%ADD31R,0.0097X0.0433*%
%ADD32R,0.0433X0.1260*%
%ADD33R,0.0138X0.0709*%
%ADD34R,0.0126X0.0709*%
%ADD35R,0.0394X0.0433*%
%ADD36R,0.0256X0.0295*%
%ADD37R,0.0669X0.0984*%
%ADD38R,0.0591X0.0512*%
%ADD39R,0.0236X0.0197*%
G04:AMPARAMS|DCode=40|XSize=25.6mil|YSize=23.6mil|CornerRadius=5.9mil|HoleSize=0mil|Usage=FLASHONLY|Rotation=270.000|XOffset=0mil|YOffset=0mil|HoleType=Round|Shape=RoundedRectangle|*
%AMROUNDEDRECTD40*
21,1,0.0256,0.0118,0,0,270.0*
21,1,0.0138,0.0236,0,0,270.0*
1,1,0.0118,-0.0059,-0.0069*
1,1,0.0118,-0.0059,0.0069*
1,1,0.0118,0.0059,0.0069*
1,1,0.0118,0.0059,-0.0069*
%
%ADD40ROUNDEDRECTD40*%
%ADD41R,0.0197X0.0236*%
%ADD42C,0.0100*%
%ADD43C,0.0120*%
%ADD44C,0.0200*%
%ADD45C,0.0140*%
G36*
X810Y23686D02*
X434Y23686D01*
X434Y23806D01*
X810Y23806D01*
X810Y23686D01*
X810Y23686D02*
G37*
G36*
X781Y24296D02*
X787Y24296D01*
X795Y24295D01*
X803Y24294D01*
X813Y24292D01*
X823Y24290D01*
X834Y24287D01*
X846Y24283D01*
X857Y24278D01*
X869Y24273D01*
X880Y24266D01*
X891Y24258D01*
X901Y24250D01*
X911Y24240D01*
X911Y24239D01*
X913Y24237D01*
X915Y24234D01*
X918Y24229D01*
X922Y24223D01*
X926Y24216D01*
X930Y24207D01*
X935Y24198D01*
X939Y24186D01*
X943Y24174D01*
X947Y24160D01*
X951Y24146D01*
X954Y24130D01*
X957Y24112D01*
X958Y24094D01*
X959Y24074D01*
X959Y24073D01*
X959Y24072D01*
X959Y24070D01*
X959Y24068D01*
X958Y24061D01*
X958Y24052D01*
X957Y24042D01*
X956Y24030D01*
X955Y24018D01*
X953Y24005D01*
X953Y24004D01*
X953Y24004D01*
X952Y24002D01*
X951Y24000D01*
X951Y23993D01*
X949Y23984D01*
X947Y23975D01*
X943Y23964D01*
X941Y23952D01*
X937Y23940D01*
X843Y23940D01*
X843Y23941D01*
X844Y23941D01*
X846Y23945D01*
X849Y23951D01*
X853Y23959D01*
X858Y23969D01*
X862Y23979D01*
X867Y23990D01*
X870Y24001D01*
X870Y24002D01*
X871Y24002D01*
X871Y24006D01*
X873Y24012D01*
X875Y24020D01*
X877Y24029D01*
X878Y24039D01*
X879Y24050D01*
X879Y24062D01*
X879Y24062D01*
X879Y24064D01*
X879Y24068D01*
X879Y24072D01*
X879Y24076D01*
X878Y24082D01*
X876Y24095D01*
X873Y24109D01*
X868Y24123D01*
X861Y24137D01*
X857Y24143D01*
X853Y24148D01*
X851Y24150D01*
X848Y24153D01*
X841Y24157D01*
X833Y24162D01*
X821Y24168D01*
X807Y24172D01*
X791Y24175D01*
X782Y24176D01*
X747Y24176D01*
X747Y24175D01*
X751Y24172D01*
X757Y24167D01*
X765Y24160D01*
X773Y24152D01*
X781Y24142D01*
X788Y24132D01*
X795Y24121D01*
X795Y24120D01*
X797Y24116D01*
X799Y24110D01*
X802Y24102D01*
X805Y24092D01*
X807Y24080D01*
X809Y24066D01*
X810Y24052D01*
X810Y24052D01*
X810Y24049D01*
X809Y24046D01*
X809Y24041D01*
X808Y24035D01*
X807Y24028D01*
X805Y24020D01*
X803Y24012D01*
X801Y24003D01*
X797Y23994D01*
X793Y23984D01*
X787Y23975D01*
X781Y23966D01*
X774Y23957D01*
X765Y23947D01*
X756Y23939D01*
X755Y23938D01*
X753Y23937D01*
X751Y23935D01*
X746Y23932D01*
X741Y23928D01*
X735Y23925D01*
X727Y23921D01*
X719Y23917D01*
X709Y23912D01*
X699Y23908D01*
X687Y23905D01*
X675Y23901D01*
X662Y23898D01*
X648Y23896D01*
X634Y23895D01*
X618Y23894D01*
X610Y23894D01*
X604Y23895D01*
X597Y23895D01*
X589Y23897D01*
X580Y23898D01*
X570Y23899D01*
X548Y23905D01*
X536Y23909D01*
X524Y23913D01*
X513Y23918D01*
X502Y23924D01*
X491Y23931D01*
X480Y23939D01*
X480Y23939D01*
X478Y23941D01*
X475Y23943D01*
X472Y23947D01*
X468Y23951D01*
X463Y23957D01*
X458Y23963D01*
X453Y23970D01*
X448Y23977D01*
X444Y23986D01*
X439Y23995D01*
X435Y24005D01*
X431Y24016D01*
X428Y24028D01*
X427Y24040D01*
X426Y24052D01*
X426Y24053D01*
X426Y24054D01*
X426Y24056D01*
X426Y24059D01*
X427Y24066D01*
X428Y24076D01*
X430Y24086D01*
X433Y24098D01*
X437Y24110D01*
X442Y24121D01*
X442Y24122D01*
X443Y24122D01*
X445Y24126D01*
X449Y24132D01*
X454Y24139D01*
X461Y24148D01*
X469Y24157D01*
X479Y24167D01*
X490Y24176D01*
X434Y24176D01*
X434Y24297D01*
X776Y24297D01*
X781Y24296D01*
X781Y24296D02*
G37*
G36*
X386Y23686D02*
X289Y23686D01*
X289Y23806D01*
X386Y23806D01*
X386Y23686D01*
X386Y23686D02*
G37*
G36*
X655Y22906D02*
X657Y22906D01*
X659Y22906D01*
X662Y22907D01*
X670Y22908D01*
X679Y22911D01*
X690Y22915D01*
X700Y22920D01*
X711Y22927D01*
X719Y22936D01*
X720Y22937D01*
X723Y22940D01*
X726Y22946D01*
X729Y22954D01*
X733Y22965D01*
X737Y22977D01*
X739Y22992D01*
X740Y23009D01*
X740Y23009D01*
X740Y23011D01*
X740Y23013D01*
X740Y23015D01*
X739Y23019D01*
X739Y23023D01*
X739Y23033D01*
X737Y23044D01*
X735Y23057D01*
X733Y23071D01*
X729Y23086D01*
X729Y23087D01*
X729Y23088D01*
X728Y23090D01*
X727Y23093D01*
X726Y23097D01*
X725Y23101D01*
X721Y23111D01*
X716Y23123D01*
X710Y23137D01*
X703Y23153D01*
X695Y23168D01*
X787Y23168D01*
X787Y23167D01*
X788Y23166D01*
X789Y23164D01*
X790Y23161D01*
X791Y23157D01*
X793Y23152D01*
X797Y23141D01*
X801Y23129D01*
X805Y23114D01*
X809Y23099D01*
X812Y23083D01*
X812Y23082D01*
X812Y23081D01*
X813Y23079D01*
X813Y23075D01*
X814Y23071D01*
X815Y23067D01*
X816Y23056D01*
X817Y23043D01*
X819Y23029D01*
X819Y23013D01*
X820Y22997D01*
X820Y22996D01*
X820Y22993D01*
X819Y22987D01*
X819Y22981D01*
X819Y22972D01*
X817Y22962D01*
X816Y22952D01*
X813Y22940D01*
X811Y22927D01*
X807Y22914D01*
X803Y22901D01*
X798Y22888D01*
X793Y22875D01*
X785Y22862D01*
X778Y22850D01*
X769Y22839D01*
X768Y22838D01*
X766Y22836D01*
X763Y22834D01*
X759Y22830D01*
X754Y22826D01*
X747Y22821D01*
X739Y22816D01*
X731Y22811D01*
X721Y22806D01*
X710Y22801D01*
X698Y22796D01*
X685Y22792D01*
X671Y22788D01*
X656Y22786D01*
X640Y22784D01*
X623Y22783D01*
X619Y22783D01*
X614Y22784D01*
X608Y22784D01*
X600Y22785D01*
X591Y22786D01*
X582Y22788D01*
X571Y22790D01*
X560Y22793D01*
X548Y22796D01*
X536Y22801D01*
X524Y22806D01*
X512Y22813D01*
X500Y22820D01*
X489Y22828D01*
X479Y22838D01*
X478Y22839D01*
X477Y22841D01*
X474Y22844D01*
X470Y22848D01*
X466Y22854D01*
X462Y22861D01*
X457Y22869D01*
X452Y22878D01*
X448Y22888D01*
X442Y22900D01*
X438Y22912D01*
X434Y22926D01*
X430Y22941D01*
X428Y22956D01*
X426Y22973D01*
X426Y22991D01*
X426Y22992D01*
X426Y22995D01*
X426Y22999D01*
X426Y23005D01*
X427Y23013D01*
X428Y23021D01*
X430Y23031D01*
X432Y23042D01*
X435Y23053D01*
X438Y23064D01*
X443Y23076D01*
X448Y23088D01*
X454Y23100D01*
X462Y23111D01*
X470Y23122D01*
X479Y23133D01*
X480Y23133D01*
X482Y23135D01*
X484Y23137D01*
X489Y23141D01*
X494Y23145D01*
X500Y23149D01*
X508Y23155D01*
X517Y23159D01*
X526Y23164D01*
X537Y23169D01*
X549Y23173D01*
X562Y23178D01*
X575Y23181D01*
X590Y23184D01*
X605Y23185D01*
X622Y23186D01*
X655Y23186D01*
X655Y22906D01*
X655Y22906D02*
G37*
G36*
X710Y23594D02*
X715Y23594D01*
X721Y23592D01*
X734Y23590D01*
X748Y23584D01*
X756Y23580D01*
X763Y23576D01*
X771Y23571D01*
X777Y23565D01*
X784Y23558D01*
X790Y23550D01*
X790Y23550D01*
X791Y23548D01*
X793Y23546D01*
X795Y23542D01*
X797Y23538D01*
X799Y23532D01*
X802Y23525D01*
X805Y23518D01*
X808Y23508D01*
X811Y23499D01*
X813Y23488D01*
X815Y23476D01*
X817Y23463D01*
X819Y23449D01*
X819Y23434D01*
X820Y23418D01*
X820Y23418D01*
X820Y23417D01*
X820Y23414D01*
X820Y23412D01*
X820Y23408D01*
X819Y23404D01*
X819Y23395D01*
X819Y23383D01*
X817Y23370D01*
X816Y23356D01*
X814Y23341D01*
X814Y23340D01*
X814Y23339D01*
X813Y23337D01*
X813Y23334D01*
X813Y23330D01*
X811Y23326D01*
X810Y23317D01*
X807Y23305D01*
X805Y23291D01*
X801Y23276D01*
X797Y23261D01*
X705Y23261D01*
X705Y23261D01*
X706Y23262D01*
X707Y23264D01*
X708Y23267D01*
X711Y23274D01*
X715Y23283D01*
X719Y23294D01*
X723Y23306D01*
X728Y23319D01*
X731Y23333D01*
X731Y23334D01*
X732Y23335D01*
X732Y23337D01*
X733Y23340D01*
X733Y23343D01*
X734Y23347D01*
X735Y23357D01*
X737Y23368D01*
X739Y23382D01*
X739Y23396D01*
X740Y23410D01*
X740Y23411D01*
X740Y23412D01*
X740Y23416D01*
X739Y23422D01*
X739Y23430D01*
X738Y23438D01*
X736Y23447D01*
X734Y23456D01*
X731Y23463D01*
X730Y23464D01*
X729Y23466D01*
X727Y23469D01*
X723Y23472D01*
X719Y23475D01*
X714Y23478D01*
X709Y23480D01*
X702Y23481D01*
X699Y23481D01*
X697Y23480D01*
X693Y23480D01*
X689Y23478D01*
X685Y23476D01*
X681Y23472D01*
X678Y23468D01*
X677Y23468D01*
X677Y23466D01*
X675Y23462D01*
X673Y23458D01*
X671Y23451D01*
X669Y23443D01*
X667Y23432D01*
X666Y23420D01*
X663Y23398D01*
X663Y23398D01*
X662Y23395D01*
X661Y23391D01*
X661Y23386D01*
X659Y23379D01*
X658Y23372D01*
X657Y23363D01*
X654Y23354D01*
X649Y23336D01*
X643Y23318D01*
X640Y23308D01*
X636Y23301D01*
X631Y23293D01*
X626Y23287D01*
X626Y23286D01*
X625Y23285D01*
X621Y23282D01*
X615Y23277D01*
X606Y23271D01*
X594Y23265D01*
X580Y23260D01*
X563Y23256D01*
X554Y23255D01*
X544Y23255D01*
X538Y23255D01*
X534Y23255D01*
X529Y23256D01*
X523Y23257D01*
X510Y23260D01*
X496Y23265D01*
X488Y23268D01*
X481Y23272D01*
X474Y23277D01*
X467Y23282D01*
X461Y23288D01*
X455Y23295D01*
X454Y23296D01*
X454Y23297D01*
X452Y23299D01*
X450Y23303D01*
X448Y23307D01*
X446Y23312D01*
X443Y23318D01*
X440Y23326D01*
X438Y23334D01*
X435Y23344D01*
X432Y23354D01*
X430Y23365D01*
X428Y23378D01*
X427Y23390D01*
X426Y23405D01*
X426Y23420D01*
X426Y23421D01*
X426Y23422D01*
X426Y23424D01*
X426Y23426D01*
X426Y23433D01*
X426Y23442D01*
X427Y23452D01*
X428Y23464D01*
X429Y23476D01*
X431Y23490D01*
X431Y23490D01*
X431Y23492D01*
X432Y23494D01*
X432Y23496D01*
X432Y23500D01*
X433Y23504D01*
X434Y23514D01*
X437Y23525D01*
X440Y23539D01*
X442Y23554D01*
X446Y23570D01*
X538Y23570D01*
X538Y23569D01*
X537Y23568D01*
X536Y23566D01*
X535Y23563D01*
X532Y23556D01*
X528Y23546D01*
X525Y23534D01*
X521Y23522D01*
X517Y23508D01*
X514Y23495D01*
X514Y23494D01*
X513Y23494D01*
X513Y23492D01*
X512Y23489D01*
X511Y23482D01*
X510Y23473D01*
X508Y23462D01*
X507Y23451D01*
X506Y23439D01*
X506Y23427D01*
X506Y23426D01*
X506Y23426D01*
X506Y23422D01*
X506Y23416D01*
X507Y23408D01*
X508Y23400D01*
X509Y23391D01*
X512Y23383D01*
X514Y23376D01*
X515Y23376D01*
X516Y23374D01*
X518Y23371D01*
X521Y23368D01*
X524Y23366D01*
X529Y23363D01*
X534Y23361D01*
X541Y23360D01*
X543Y23360D01*
X546Y23361D01*
X549Y23362D01*
X552Y23363D01*
X556Y23366D01*
X560Y23368D01*
X563Y23372D01*
X563Y23373D01*
X564Y23375D01*
X566Y23378D01*
X567Y23383D01*
X569Y23389D01*
X571Y23397D01*
X573Y23406D01*
X574Y23418D01*
X577Y23439D01*
X577Y23440D01*
X578Y23443D01*
X578Y23448D01*
X579Y23454D01*
X580Y23462D01*
X582Y23470D01*
X584Y23479D01*
X586Y23489D01*
X592Y23510D01*
X598Y23530D01*
X602Y23540D01*
X607Y23548D01*
X612Y23556D01*
X616Y23563D01*
X616Y23564D01*
X618Y23564D01*
X622Y23568D01*
X628Y23573D01*
X632Y23576D01*
X637Y23579D01*
X642Y23582D01*
X648Y23585D01*
X655Y23588D01*
X663Y23590D01*
X671Y23592D01*
X680Y23594D01*
X689Y23594D01*
X700Y23595D01*
X706Y23595D01*
X710Y23594D01*
X710Y23594D02*
G37*
G36*
X2774Y20247D02*
X2644Y20247D01*
X2644Y20368D01*
X2774Y20368D01*
X2774Y20247D01*
X2774Y20247D02*
G37*
G36*
X3020Y20247D02*
X2890Y20247D01*
X2890Y20368D01*
X3020Y20368D01*
X3020Y20247D01*
X3020Y20247D02*
G37*
G36*
X3020Y19963D02*
X2677Y19781D01*
X3020Y19781D01*
X3020Y19659D01*
X2519Y19659D01*
X2519Y19803D01*
X2863Y19985D01*
X2519Y19985D01*
X2519Y20108D01*
X3020Y20108D01*
X3020Y19963D01*
X3020Y19963D02*
G37*
G36*
X810Y24670D02*
X609Y24670D01*
X598Y24669D01*
X587Y24668D01*
X577Y24668D01*
X573Y24668D01*
X569Y24667D01*
X568Y24667D01*
X566Y24666D01*
X562Y24666D01*
X558Y24666D01*
X550Y24663D01*
X545Y24662D01*
X542Y24660D01*
X541Y24660D01*
X540Y24658D01*
X538Y24657D01*
X535Y24654D01*
X529Y24648D01*
X523Y24641D01*
X523Y24640D01*
X522Y24639D01*
X521Y24636D01*
X520Y24633D01*
X518Y24629D01*
X518Y24624D01*
X516Y24613D01*
X516Y24613D01*
X516Y24612D01*
X516Y24610D01*
X517Y24607D01*
X518Y24600D01*
X520Y24592D01*
X524Y24582D01*
X529Y24572D01*
X536Y24563D01*
X540Y24558D01*
X546Y24554D01*
X547Y24553D01*
X551Y24551D01*
X558Y24547D01*
X566Y24543D01*
X578Y24539D01*
X592Y24536D01*
X608Y24533D01*
X626Y24533D01*
X810Y24533D01*
X810Y24413D01*
X434Y24413D01*
X434Y24533D01*
X489Y24533D01*
X488Y24534D01*
X484Y24537D01*
X478Y24543D01*
X472Y24550D01*
X464Y24559D01*
X456Y24568D01*
X448Y24579D01*
X442Y24590D01*
X442Y24591D01*
X441Y24591D01*
X439Y24595D01*
X436Y24601D01*
X434Y24610D01*
X431Y24620D01*
X428Y24631D01*
X426Y24644D01*
X426Y24657D01*
X426Y24658D01*
X426Y24660D01*
X426Y24663D01*
X426Y24668D01*
X427Y24673D01*
X428Y24680D01*
X429Y24686D01*
X430Y24694D01*
X436Y24710D01*
X438Y24718D01*
X442Y24726D01*
X447Y24734D01*
X452Y24742D01*
X458Y24750D01*
X466Y24756D01*
X466Y24757D01*
X468Y24758D01*
X470Y24760D01*
X473Y24762D01*
X477Y24764D01*
X482Y24767D01*
X488Y24770D01*
X495Y24774D01*
X503Y24776D01*
X512Y24780D01*
X521Y24782D01*
X532Y24785D01*
X543Y24787D01*
X555Y24789D01*
X568Y24790D01*
X582Y24790D01*
X810Y24790D01*
X810Y24670D01*
X810Y24670D02*
G37*
G36*
X2880Y19544D02*
X2887Y19544D01*
X2895Y19542D01*
X2904Y19541D01*
X2913Y19539D01*
X2923Y19536D01*
X2933Y19533D01*
X2943Y19529D01*
X2953Y19524D01*
X2963Y19518D01*
X2973Y19512D01*
X2982Y19504D01*
X2990Y19496D01*
X2991Y19495D01*
X2992Y19494D01*
X2994Y19490D01*
X2996Y19486D01*
X2999Y19481D01*
X3003Y19475D01*
X3006Y19467D01*
X3010Y19458D01*
X3014Y19448D01*
X3017Y19438D01*
X3021Y19425D01*
X3024Y19412D01*
X3026Y19397D01*
X3028Y19381D01*
X3029Y19364D01*
X3030Y19346D01*
X3030Y19345D01*
X3030Y19344D01*
X3030Y19341D01*
X3030Y19338D01*
X3030Y19333D01*
X3029Y19328D01*
X3029Y19322D01*
X3029Y19316D01*
X3028Y19301D01*
X3026Y19285D01*
X3024Y19268D01*
X3021Y19250D01*
X3021Y19249D01*
X3020Y19248D01*
X3020Y19245D01*
X3019Y19242D01*
X3018Y19237D01*
X3017Y19233D01*
X3016Y19227D01*
X3014Y19220D01*
X3011Y19205D01*
X3006Y19189D01*
X3001Y19173D01*
X2995Y19155D01*
X2885Y19155D01*
X2885Y19155D01*
X2887Y19157D01*
X2888Y19159D01*
X2889Y19163D01*
X2892Y19167D01*
X2894Y19172D01*
X2897Y19178D01*
X2900Y19184D01*
X2906Y19198D01*
X2913Y19213D01*
X2919Y19230D01*
X2924Y19247D01*
X2924Y19247D01*
X2925Y19249D01*
X2925Y19251D01*
X2926Y19255D01*
X2927Y19259D01*
X2928Y19263D01*
X2930Y19275D01*
X2933Y19288D01*
X2935Y19303D01*
X2936Y19318D01*
X2937Y19333D01*
X2937Y19334D01*
X2937Y19335D01*
X2937Y19337D01*
X2937Y19340D01*
X2936Y19348D01*
X2935Y19357D01*
X2933Y19367D01*
X2931Y19378D01*
X2927Y19388D01*
X2923Y19398D01*
X2922Y19398D01*
X2920Y19401D01*
X2917Y19405D01*
X2913Y19409D01*
X2907Y19413D01*
X2900Y19417D01*
X2892Y19420D01*
X2883Y19420D01*
X2879Y19420D01*
X2875Y19420D01*
X2869Y19418D01*
X2863Y19416D01*
X2857Y19414D01*
X2852Y19410D01*
X2847Y19405D01*
X2846Y19404D01*
X2845Y19402D01*
X2842Y19398D01*
X2839Y19392D01*
X2836Y19384D01*
X2832Y19373D01*
X2828Y19360D01*
X2826Y19352D01*
X2824Y19344D01*
X2812Y19295D01*
X2812Y19294D01*
X2812Y19291D01*
X2810Y19287D01*
X2809Y19283D01*
X2808Y19276D01*
X2806Y19269D01*
X2803Y19261D01*
X2800Y19253D01*
X2793Y19235D01*
X2784Y19217D01*
X2773Y19199D01*
X2768Y19191D01*
X2761Y19185D01*
X2760Y19184D01*
X2760Y19183D01*
X2757Y19181D01*
X2754Y19179D01*
X2751Y19177D01*
X2747Y19174D01*
X2742Y19171D01*
X2736Y19167D01*
X2730Y19164D01*
X2722Y19161D01*
X2706Y19155D01*
X2688Y19151D01*
X2677Y19151D01*
X2666Y19150D01*
X2663Y19150D01*
X2659Y19151D01*
X2654Y19151D01*
X2648Y19151D01*
X2640Y19153D01*
X2632Y19154D01*
X2624Y19156D01*
X2614Y19159D01*
X2605Y19162D01*
X2596Y19165D01*
X2586Y19170D01*
X2576Y19176D01*
X2568Y19182D01*
X2559Y19189D01*
X2551Y19198D01*
X2550Y19199D01*
X2549Y19200D01*
X2547Y19203D01*
X2544Y19207D01*
X2542Y19212D01*
X2538Y19218D01*
X2534Y19225D01*
X2530Y19234D01*
X2527Y19243D01*
X2523Y19253D01*
X2520Y19265D01*
X2517Y19277D01*
X2515Y19291D01*
X2512Y19305D01*
X2511Y19320D01*
X2511Y19337D01*
X2511Y19338D01*
X2511Y19339D01*
X2511Y19341D01*
X2511Y19344D01*
X2511Y19348D01*
X2511Y19352D01*
X2511Y19363D01*
X2512Y19376D01*
X2513Y19390D01*
X2515Y19406D01*
X2517Y19422D01*
X2517Y19422D01*
X2517Y19424D01*
X2518Y19426D01*
X2519Y19429D01*
X2519Y19433D01*
X2520Y19438D01*
X2521Y19443D01*
X2522Y19449D01*
X2524Y19463D01*
X2528Y19478D01*
X2531Y19495D01*
X2536Y19512D01*
X2641Y19512D01*
X2641Y19512D01*
X2640Y19510D01*
X2639Y19508D01*
X2638Y19505D01*
X2636Y19502D01*
X2635Y19497D01*
X2631Y19487D01*
X2626Y19474D01*
X2622Y19461D01*
X2618Y19446D01*
X2614Y19432D01*
X2614Y19431D01*
X2613Y19430D01*
X2613Y19428D01*
X2612Y19425D01*
X2611Y19422D01*
X2610Y19418D01*
X2608Y19408D01*
X2607Y19396D01*
X2605Y19384D01*
X2604Y19370D01*
X2604Y19357D01*
X2604Y19356D01*
X2604Y19355D01*
X2604Y19352D01*
X2604Y19350D01*
X2604Y19346D01*
X2604Y19341D01*
X2605Y19331D01*
X2607Y19320D01*
X2609Y19309D01*
X2612Y19299D01*
X2617Y19289D01*
X2618Y19289D01*
X2620Y19286D01*
X2622Y19283D01*
X2626Y19279D01*
X2632Y19274D01*
X2639Y19271D01*
X2647Y19268D01*
X2656Y19267D01*
X2660Y19267D01*
X2664Y19268D01*
X2668Y19269D01*
X2673Y19271D01*
X2678Y19273D01*
X2684Y19277D01*
X2688Y19282D01*
X2689Y19283D01*
X2690Y19285D01*
X2692Y19289D01*
X2694Y19294D01*
X2698Y19301D01*
X2701Y19311D01*
X2704Y19322D01*
X2707Y19336D01*
X2718Y19390D01*
X2718Y19391D01*
X2719Y19394D01*
X2720Y19398D01*
X2722Y19404D01*
X2723Y19411D01*
X2726Y19419D01*
X2728Y19428D01*
X2731Y19437D01*
X2738Y19456D01*
X2747Y19476D01*
X2752Y19486D01*
X2758Y19494D01*
X2764Y19502D01*
X2770Y19510D01*
X2770Y19510D01*
X2771Y19511D01*
X2773Y19513D01*
X2776Y19515D01*
X2780Y19518D01*
X2784Y19521D01*
X2789Y19524D01*
X2794Y19528D01*
X2801Y19530D01*
X2808Y19534D01*
X2816Y19537D01*
X2825Y19540D01*
X2834Y19542D01*
X2844Y19544D01*
X2855Y19544D01*
X2867Y19545D01*
X2875Y19545D01*
X2880Y19544D01*
X2880Y19544D02*
G37*
G36*
X783Y19575D02*
X784Y19574D01*
X785Y19572D01*
X786Y19570D01*
X789Y19562D01*
X793Y19553D01*
X798Y19542D01*
X803Y19529D01*
X807Y19515D01*
X811Y19501D01*
X811Y19500D01*
X811Y19499D01*
X811Y19497D01*
X812Y19494D01*
X813Y19491D01*
X813Y19486D01*
X815Y19476D01*
X817Y19464D01*
X819Y19451D01*
X819Y19436D01*
X820Y19421D01*
X820Y19420D01*
X820Y19420D01*
X820Y19418D01*
X820Y19416D01*
X819Y19409D01*
X819Y19400D01*
X818Y19390D01*
X816Y19378D01*
X814Y19364D01*
X811Y19349D01*
X807Y19334D01*
X803Y19318D01*
X797Y19301D01*
X791Y19285D01*
X783Y19268D01*
X773Y19252D01*
X763Y19237D01*
X751Y19223D01*
X750Y19222D01*
X747Y19219D01*
X743Y19216D01*
X738Y19211D01*
X731Y19206D01*
X722Y19200D01*
X712Y19193D01*
X701Y19187D01*
X688Y19179D01*
X673Y19173D01*
X658Y19167D01*
X641Y19161D01*
X623Y19157D01*
X604Y19153D01*
X583Y19151D01*
X561Y19150D01*
X556Y19150D01*
X550Y19151D01*
X541Y19151D01*
X531Y19152D01*
X519Y19154D01*
X506Y19156D01*
X492Y19159D01*
X477Y19163D01*
X462Y19168D01*
X446Y19173D01*
X430Y19181D01*
X414Y19189D01*
X398Y19199D01*
X384Y19210D01*
X370Y19223D01*
X370Y19223D01*
X367Y19226D01*
X364Y19230D01*
X360Y19236D01*
X354Y19243D01*
X348Y19253D01*
X342Y19263D01*
X335Y19275D01*
X329Y19289D01*
X322Y19303D01*
X316Y19320D01*
X311Y19337D01*
X307Y19356D01*
X303Y19376D01*
X301Y19398D01*
X301Y19421D01*
X301Y19422D01*
X301Y19423D01*
X301Y19425D01*
X301Y19428D01*
X301Y19432D01*
X301Y19436D01*
X302Y19446D01*
X303Y19459D01*
X305Y19472D01*
X307Y19486D01*
X311Y19501D01*
X311Y19502D01*
X311Y19503D01*
X311Y19505D01*
X312Y19508D01*
X314Y19515D01*
X317Y19525D01*
X321Y19536D01*
X326Y19549D01*
X331Y19562D01*
X338Y19576D01*
X441Y19576D01*
X441Y19575D01*
X440Y19574D01*
X439Y19572D01*
X437Y19570D01*
X433Y19562D01*
X428Y19553D01*
X422Y19542D01*
X416Y19530D01*
X410Y19518D01*
X406Y19504D01*
X406Y19504D01*
X405Y19503D01*
X404Y19501D01*
X404Y19498D01*
X402Y19492D01*
X400Y19482D01*
X398Y19471D01*
X396Y19459D01*
X394Y19445D01*
X394Y19431D01*
X394Y19430D01*
X394Y19428D01*
X394Y19424D01*
X394Y19420D01*
X395Y19414D01*
X396Y19407D01*
X398Y19400D01*
X399Y19392D01*
X404Y19374D01*
X408Y19365D01*
X412Y19356D01*
X418Y19347D01*
X424Y19338D01*
X430Y19330D01*
X438Y19322D01*
X439Y19322D01*
X440Y19320D01*
X443Y19319D01*
X446Y19317D01*
X451Y19313D01*
X456Y19310D01*
X463Y19307D01*
X470Y19303D01*
X479Y19299D01*
X488Y19296D01*
X498Y19293D01*
X509Y19289D01*
X521Y19287D01*
X533Y19285D01*
X547Y19284D01*
X561Y19283D01*
X568Y19283D01*
X574Y19284D01*
X580Y19285D01*
X588Y19285D01*
X596Y19287D01*
X605Y19288D01*
X625Y19293D01*
X635Y19296D01*
X645Y19300D01*
X655Y19305D01*
X665Y19310D01*
X674Y19316D01*
X683Y19322D01*
X683Y19323D01*
X685Y19324D01*
X687Y19326D01*
X689Y19330D01*
X693Y19334D01*
X697Y19338D01*
X701Y19344D01*
X705Y19351D01*
X709Y19358D01*
X713Y19366D01*
X717Y19375D01*
X720Y19385D01*
X723Y19395D01*
X725Y19406D01*
X726Y19418D01*
X727Y19431D01*
X727Y19432D01*
X727Y19433D01*
X727Y19435D01*
X727Y19438D01*
X726Y19445D01*
X725Y19455D01*
X724Y19466D01*
X722Y19478D01*
X719Y19491D01*
X715Y19504D01*
X715Y19505D01*
X715Y19506D01*
X714Y19508D01*
X713Y19510D01*
X711Y19518D01*
X707Y19526D01*
X701Y19537D01*
X695Y19550D01*
X688Y19562D01*
X679Y19576D01*
X783Y19576D01*
X783Y19575D01*
X783Y19575D02*
G37*
G36*
X632Y20062D02*
X638Y20062D01*
X646Y20061D01*
X655Y20060D01*
X665Y20058D01*
X675Y20056D01*
X687Y20052D01*
X699Y20049D01*
X711Y20044D01*
X723Y20039D01*
X735Y20033D01*
X747Y20026D01*
X758Y20017D01*
X768Y20008D01*
X769Y20007D01*
X770Y20005D01*
X773Y20002D01*
X776Y19998D01*
X780Y19992D01*
X785Y19985D01*
X789Y19977D01*
X794Y19969D01*
X799Y19958D01*
X803Y19947D01*
X808Y19935D01*
X812Y19921D01*
X815Y19906D01*
X818Y19891D01*
X819Y19874D01*
X820Y19856D01*
X820Y19855D01*
X820Y19852D01*
X819Y19847D01*
X819Y19840D01*
X819Y19832D01*
X817Y19823D01*
X815Y19812D01*
X813Y19801D01*
X811Y19789D01*
X807Y19776D01*
X803Y19763D01*
X798Y19751D01*
X792Y19739D01*
X785Y19726D01*
X777Y19715D01*
X768Y19704D01*
X767Y19703D01*
X765Y19702D01*
X763Y19699D01*
X758Y19695D01*
X753Y19691D01*
X747Y19687D01*
X739Y19682D01*
X730Y19677D01*
X720Y19671D01*
X709Y19667D01*
X697Y19662D01*
X685Y19658D01*
X671Y19655D01*
X655Y19652D01*
X640Y19650D01*
X623Y19649D01*
X619Y19649D01*
X614Y19650D01*
X608Y19650D01*
X600Y19651D01*
X591Y19652D01*
X581Y19654D01*
X570Y19656D01*
X559Y19659D01*
X547Y19663D01*
X535Y19667D01*
X523Y19673D01*
X511Y19679D01*
X500Y19686D01*
X488Y19695D01*
X478Y19704D01*
X478Y19705D01*
X476Y19707D01*
X474Y19710D01*
X470Y19714D01*
X466Y19720D01*
X462Y19727D01*
X457Y19735D01*
X452Y19743D01*
X447Y19754D01*
X442Y19765D01*
X438Y19777D01*
X434Y19791D01*
X430Y19806D01*
X428Y19821D01*
X426Y19838D01*
X426Y19856D01*
X426Y19857D01*
X426Y19860D01*
X426Y19865D01*
X426Y19872D01*
X427Y19880D01*
X428Y19890D01*
X430Y19900D01*
X432Y19911D01*
X435Y19923D01*
X438Y19936D01*
X443Y19949D01*
X448Y19961D01*
X454Y19974D01*
X461Y19986D01*
X469Y19997D01*
X478Y20008D01*
X479Y20008D01*
X481Y20010D01*
X484Y20013D01*
X488Y20016D01*
X494Y20020D01*
X500Y20025D01*
X508Y20030D01*
X516Y20035D01*
X526Y20040D01*
X537Y20045D01*
X548Y20050D01*
X562Y20054D01*
X576Y20057D01*
X590Y20060D01*
X606Y20062D01*
X623Y20062D01*
X627Y20062D01*
X632Y20062D01*
X632Y20062D02*
G37*
G36*
X1782Y11144D02*
X1785Y11142D01*
X1787Y11139D01*
X1791Y11134D01*
X1800Y11121D01*
X1809Y11106D01*
X1819Y11089D01*
X1828Y11071D01*
X1834Y11054D01*
X1835Y11046D01*
X1836Y11039D01*
X1836Y11037D01*
X1835Y11036D01*
X1834Y11033D01*
X1831Y11027D01*
X1826Y11016D01*
X1819Y11004D01*
X1811Y10990D01*
X1803Y10979D01*
X1797Y10974D01*
X1793Y10970D01*
X1787Y10969D01*
X1782Y10968D01*
X1710Y10968D01*
X1706Y10969D01*
X1701Y10970D01*
X1695Y10974D01*
X1688Y10981D01*
X1679Y10990D01*
X1669Y11004D01*
X1664Y11011D01*
X1659Y11021D01*
X1659Y11075D01*
X1659Y11076D01*
X1660Y11078D01*
X1665Y11086D01*
X1673Y11098D01*
X1685Y11110D01*
X1701Y11122D01*
X1711Y11129D01*
X1723Y11134D01*
X1736Y11139D01*
X1750Y11142D01*
X1765Y11144D01*
X1782Y11145D01*
X1782Y11144D01*
X1782Y11144D02*
G37*
G36*
X2104Y11537D02*
X2103Y11536D01*
X2097Y11534D01*
X2090Y11530D01*
X2080Y11524D01*
X2068Y11516D01*
X2052Y11508D01*
X2036Y11497D01*
X2017Y11485D01*
X1998Y11473D01*
X1975Y11459D01*
X1929Y11429D01*
X1879Y11395D01*
X1828Y11359D01*
X1776Y11320D01*
X1726Y11281D01*
X1679Y11241D01*
X1657Y11221D01*
X1637Y11201D01*
X1619Y11181D01*
X1602Y11163D01*
X1587Y11142D01*
X1575Y11124D01*
X1565Y11106D01*
X1558Y11089D01*
X1552Y11072D01*
X1551Y11056D01*
X1551Y11021D01*
X1552Y11019D01*
X1555Y11013D01*
X1561Y11001D01*
X1570Y10985D01*
X1583Y10966D01*
X1599Y10944D01*
X1609Y10933D01*
X1620Y10919D01*
X1632Y10905D01*
X1647Y10890D01*
X1663Y10875D01*
X1680Y10859D01*
X1699Y10842D01*
X1720Y10826D01*
X1741Y10809D01*
X1766Y10790D01*
X1791Y10773D01*
X1820Y10754D01*
X1850Y10734D01*
X1881Y10715D01*
X1916Y10695D01*
X1953Y10675D01*
X1991Y10655D01*
X2031Y10634D01*
X2075Y10614D01*
X2121Y10592D01*
X2124Y10594D01*
X2129Y10596D01*
X2138Y10601D01*
X2150Y10608D01*
X2164Y10615D01*
X2179Y10624D01*
X2214Y10644D01*
X2249Y10666D01*
X2265Y10679D01*
X2280Y10691D01*
X2294Y10703D01*
X2305Y10714D01*
X2313Y10725D01*
X2317Y10736D01*
X2317Y10771D01*
X2317Y10773D01*
X2315Y10776D01*
X2313Y10780D01*
X2309Y10785D01*
X2304Y10791D01*
X2298Y10797D01*
X2289Y10806D01*
X2279Y10816D01*
X2265Y10827D01*
X2250Y10841D01*
X2231Y10856D01*
X2210Y10874D01*
X2185Y10892D01*
X2157Y10914D01*
X2176Y10914D01*
X2179Y10912D01*
X2183Y10911D01*
X2188Y10910D01*
X2194Y10907D01*
X2201Y10904D01*
X2220Y10898D01*
X2241Y10889D01*
X2265Y10879D01*
X2291Y10868D01*
X2317Y10856D01*
X2344Y10844D01*
X2370Y10831D01*
X2394Y10818D01*
X2415Y10804D01*
X2434Y10791D01*
X2441Y10784D01*
X2447Y10777D01*
X2453Y10771D01*
X2456Y10765D01*
X2459Y10760D01*
X2460Y10754D01*
X2460Y10753D01*
X2459Y10750D01*
X2457Y10746D01*
X2455Y10740D01*
X2450Y10733D01*
X2442Y10724D01*
X2432Y10714D01*
X2420Y10703D01*
X2403Y10690D01*
X2381Y10676D01*
X2369Y10669D01*
X2355Y10661D01*
X2341Y10654D01*
X2325Y10646D01*
X2306Y10638D01*
X2288Y10629D01*
X2268Y10620D01*
X2245Y10611D01*
X2221Y10603D01*
X2195Y10594D01*
X2167Y10585D01*
X2139Y10575D01*
X2139Y10558D01*
X2141Y10556D01*
X2149Y10554D01*
X2160Y10549D01*
X2175Y10543D01*
X2195Y10535D01*
X2218Y10525D01*
X2244Y10514D01*
X2272Y10501D01*
X2304Y10488D01*
X2338Y10473D01*
X2373Y10456D01*
X2409Y10440D01*
X2447Y10423D01*
X2486Y10404D01*
X2566Y10365D01*
X2646Y10324D01*
X2685Y10302D01*
X2724Y10281D01*
X2760Y10259D01*
X2795Y10237D01*
X2829Y10216D01*
X2860Y10195D01*
X2889Y10174D01*
X2915Y10152D01*
X2937Y10132D01*
X2957Y10113D01*
X2973Y10094D01*
X2984Y10075D01*
X2991Y10057D01*
X2993Y10049D01*
X2994Y10040D01*
X2994Y10039D01*
X2993Y10033D01*
X2988Y10024D01*
X2985Y10017D01*
X2980Y10010D01*
X2974Y10002D01*
X2968Y9994D01*
X2959Y9984D01*
X2948Y9974D01*
X2935Y9961D01*
X2921Y9949D01*
X2904Y9935D01*
X2885Y9921D01*
X2862Y9905D01*
X2839Y9889D01*
X2811Y9872D01*
X2781Y9854D01*
X2747Y9835D01*
X2710Y9814D01*
X2670Y9794D01*
X2625Y9771D01*
X2578Y9747D01*
X2526Y9724D01*
X2470Y9699D01*
X2409Y9674D01*
X2344Y9646D01*
X2275Y9619D01*
X2200Y9590D01*
X2161Y9575D01*
X2121Y9560D01*
X2121Y9578D01*
X2121Y9579D01*
X2124Y9580D01*
X2126Y9584D01*
X2131Y9589D01*
X2139Y9596D01*
X2150Y9605D01*
X2164Y9616D01*
X2181Y9629D01*
X2204Y9644D01*
X2216Y9653D01*
X2230Y9663D01*
X2245Y9672D01*
X2262Y9682D01*
X2280Y9694D01*
X2300Y9706D01*
X2320Y9719D01*
X2342Y9731D01*
X2368Y9746D01*
X2393Y9760D01*
X2420Y9776D01*
X2450Y9793D01*
X2481Y9810D01*
X2514Y9827D01*
X2515Y9829D01*
X2520Y9833D01*
X2526Y9840D01*
X2536Y9847D01*
X2546Y9859D01*
X2559Y9871D01*
X2571Y9885D01*
X2585Y9900D01*
X2611Y9934D01*
X2624Y9951D01*
X2634Y9969D01*
X2643Y9987D01*
X2650Y10005D01*
X2655Y10022D01*
X2656Y10040D01*
X2656Y10076D01*
X2656Y10079D01*
X2655Y10086D01*
X2652Y10098D01*
X2648Y10113D01*
X2639Y10132D01*
X2632Y10144D01*
X2626Y10155D01*
X2618Y10169D01*
X2609Y10182D01*
X2598Y10196D01*
X2585Y10213D01*
X2571Y10229D01*
X2555Y10245D01*
X2537Y10263D01*
X2517Y10281D01*
X2495Y10300D01*
X2471Y10319D01*
X2445Y10339D01*
X2416Y10360D01*
X2385Y10380D01*
X2350Y10402D01*
X2314Y10424D01*
X2274Y10446D01*
X2233Y10470D01*
X2186Y10493D01*
X2138Y10516D01*
X2086Y10540D01*
X2085Y10539D01*
X2080Y10536D01*
X2074Y10532D01*
X2064Y10527D01*
X2052Y10520D01*
X2041Y10512D01*
X2014Y10495D01*
X1985Y10475D01*
X1971Y10465D01*
X1959Y10455D01*
X1947Y10444D01*
X1937Y10434D01*
X1930Y10424D01*
X1925Y10415D01*
X1925Y10361D01*
X1925Y10360D01*
X1928Y10356D01*
X1929Y10352D01*
X1933Y10349D01*
X1937Y10344D01*
X1943Y10338D01*
X1950Y10330D01*
X1960Y10321D01*
X1971Y10311D01*
X1985Y10299D01*
X2001Y10286D01*
X2020Y10271D01*
X2042Y10255D01*
X2068Y10236D01*
X2049Y10236D01*
X2048Y10237D01*
X2044Y10239D01*
X2039Y10240D01*
X2025Y10245D01*
X2009Y10251D01*
X1988Y10259D01*
X1965Y10267D01*
X1941Y10278D01*
X1916Y10289D01*
X1891Y10300D01*
X1867Y10312D01*
X1845Y10326D01*
X1824Y10340D01*
X1807Y10354D01*
X1794Y10367D01*
X1789Y10375D01*
X1785Y10382D01*
X1784Y10389D01*
X1782Y10396D01*
X1782Y10415D01*
X1784Y10416D01*
X1786Y10419D01*
X1790Y10423D01*
X1797Y10429D01*
X1806Y10436D01*
X1816Y10444D01*
X1830Y10454D01*
X1845Y10464D01*
X1864Y10475D01*
X1884Y10486D01*
X1908Y10497D01*
X1934Y10510D01*
X1963Y10523D01*
X1994Y10534D01*
X2029Y10546D01*
X2068Y10558D01*
X2068Y10575D01*
X2065Y10576D01*
X2060Y10577D01*
X2051Y10581D01*
X2039Y10586D01*
X2024Y10592D01*
X2005Y10600D01*
X1985Y10608D01*
X1963Y10618D01*
X1936Y10627D01*
X1910Y10640D01*
X1880Y10653D01*
X1850Y10665D01*
X1817Y10680D01*
X1785Y10695D01*
X1716Y10726D01*
X1645Y10761D01*
X1574Y10797D01*
X1504Y10836D01*
X1437Y10876D01*
X1405Y10896D01*
X1375Y10916D01*
X1346Y10938D01*
X1319Y10957D01*
X1294Y10977D01*
X1270Y10999D01*
X1249Y11019D01*
X1231Y11039D01*
X1231Y11110D01*
X1231Y11111D01*
X1233Y11116D01*
X1238Y11124D01*
X1240Y11129D01*
X1245Y11134D01*
X1250Y11140D01*
X1258Y11148D01*
X1266Y11156D01*
X1277Y11165D01*
X1290Y11175D01*
X1304Y11186D01*
X1321Y11199D01*
X1340Y11211D01*
X1363Y11225D01*
X1386Y11240D01*
X1414Y11255D01*
X1444Y11272D01*
X1478Y11290D01*
X1515Y11309D01*
X1555Y11328D01*
X1599Y11349D01*
X1647Y11371D01*
X1699Y11394D01*
X1755Y11417D01*
X1816Y11443D01*
X1880Y11469D01*
X1950Y11496D01*
X2025Y11525D01*
X2064Y11540D01*
X2104Y11555D01*
X2104Y11537D01*
X2104Y11537D02*
G37*
G36*
X2510Y10146D02*
X2525Y10145D01*
X2544Y10141D01*
X2562Y10135D01*
X2580Y10125D01*
X2587Y10119D01*
X2594Y10111D01*
X2599Y10104D01*
X2603Y10094D01*
X2603Y10040D01*
X2603Y10039D01*
X2601Y10035D01*
X2599Y10029D01*
X2594Y10021D01*
X2585Y10010D01*
X2579Y10005D01*
X2573Y9999D01*
X2564Y9991D01*
X2555Y9985D01*
X2544Y9976D01*
X2531Y9969D01*
X2494Y9969D01*
X2492Y9970D01*
X2484Y9975D01*
X2473Y9983D01*
X2460Y9995D01*
X2447Y10013D01*
X2441Y10022D01*
X2436Y10034D01*
X2431Y10046D01*
X2428Y10061D01*
X2426Y10076D01*
X2425Y10094D01*
X2495Y10148D01*
X2504Y10148D01*
X2510Y10146D01*
X2510Y10146D02*
G37*
G36*
X810Y21771D02*
X609Y21771D01*
X598Y21770D01*
X587Y21769D01*
X577Y21769D01*
X573Y21769D01*
X569Y21768D01*
X568Y21768D01*
X566Y21767D01*
X562Y21767D01*
X558Y21767D01*
X550Y21764D01*
X545Y21763D01*
X542Y21761D01*
X541Y21761D01*
X540Y21759D01*
X538Y21758D01*
X535Y21755D01*
X529Y21749D01*
X523Y21741D01*
X523Y21741D01*
X522Y21739D01*
X521Y21737D01*
X520Y21733D01*
X518Y21729D01*
X518Y21725D01*
X516Y21714D01*
X516Y21713D01*
X516Y21713D01*
X516Y21711D01*
X517Y21708D01*
X518Y21701D01*
X520Y21693D01*
X524Y21683D01*
X529Y21673D01*
X536Y21663D01*
X540Y21659D01*
X546Y21655D01*
X547Y21654D01*
X551Y21651D01*
X558Y21648D01*
X566Y21644D01*
X578Y21640D01*
X592Y21637D01*
X608Y21634D01*
X626Y21634D01*
X810Y21634D01*
X810Y21514D01*
X434Y21514D01*
X434Y21634D01*
X489Y21634D01*
X488Y21635D01*
X484Y21638D01*
X478Y21644D01*
X472Y21651D01*
X464Y21659D01*
X456Y21669D01*
X448Y21679D01*
X442Y21691D01*
X442Y21691D01*
X441Y21692D01*
X439Y21696D01*
X436Y21702D01*
X434Y21711D01*
X431Y21721D01*
X428Y21732D01*
X426Y21745D01*
X426Y21758D01*
X426Y21759D01*
X426Y21761D01*
X426Y21764D01*
X426Y21769D01*
X427Y21774D01*
X428Y21781D01*
X429Y21787D01*
X430Y21795D01*
X436Y21811D01*
X438Y21819D01*
X442Y21827D01*
X447Y21835D01*
X452Y21843D01*
X458Y21851D01*
X466Y21857D01*
X466Y21858D01*
X468Y21859D01*
X470Y21861D01*
X473Y21863D01*
X477Y21865D01*
X482Y21868D01*
X488Y21871D01*
X495Y21875D01*
X503Y21877D01*
X512Y21881D01*
X521Y21883D01*
X532Y21886D01*
X543Y21888D01*
X555Y21890D01*
X568Y21891D01*
X582Y21891D01*
X810Y21891D01*
X810Y21771D01*
X810Y21771D02*
G37*
G36*
X574Y22717D02*
X580Y22717D01*
X586Y22716D01*
X594Y22716D01*
X609Y22714D01*
X626Y22710D01*
X644Y22706D01*
X661Y22700D01*
X661Y22700D01*
X663Y22700D01*
X665Y22698D01*
X668Y22697D01*
X672Y22695D01*
X677Y22693D01*
X687Y22687D01*
X699Y22680D01*
X712Y22671D01*
X725Y22660D01*
X739Y22648D01*
X739Y22647D01*
X741Y22646D01*
X743Y22644D01*
X745Y22641D01*
X748Y22637D01*
X752Y22633D01*
X756Y22627D01*
X760Y22621D01*
X769Y22607D01*
X779Y22591D01*
X787Y22572D01*
X794Y22551D01*
X794Y22551D01*
X795Y22549D01*
X795Y22545D01*
X797Y22541D01*
X798Y22535D01*
X799Y22528D01*
X801Y22519D01*
X802Y22509D01*
X803Y22498D01*
X805Y22485D01*
X806Y22472D01*
X807Y22457D01*
X809Y22440D01*
X809Y22422D01*
X810Y22403D01*
X810Y22383D01*
X810Y22247D01*
X309Y22247D01*
X309Y22383D01*
X309Y22383D01*
X309Y22384D01*
X309Y22388D01*
X309Y22393D01*
X309Y22401D01*
X310Y22411D01*
X310Y22422D01*
X311Y22434D01*
X311Y22447D01*
X313Y22474D01*
X316Y22503D01*
X318Y22516D01*
X320Y22529D01*
X323Y22541D01*
X326Y22553D01*
X326Y22553D01*
X326Y22555D01*
X328Y22558D01*
X329Y22562D01*
X330Y22567D01*
X333Y22573D01*
X336Y22579D01*
X338Y22585D01*
X346Y22601D01*
X356Y22617D01*
X367Y22633D01*
X381Y22648D01*
X382Y22648D01*
X382Y22649D01*
X384Y22651D01*
X387Y22654D01*
X394Y22660D01*
X404Y22668D01*
X415Y22676D01*
X428Y22685D01*
X444Y22693D01*
X460Y22700D01*
X460Y22700D01*
X462Y22701D01*
X464Y22702D01*
X468Y22703D01*
X472Y22704D01*
X476Y22706D01*
X482Y22708D01*
X488Y22709D01*
X504Y22712D01*
X520Y22715D01*
X539Y22717D01*
X560Y22718D01*
X569Y22718D01*
X574Y22717D01*
X574Y22717D02*
G37*
G36*
X810Y21280D02*
X755Y21280D01*
X756Y21279D01*
X760Y21276D01*
X767Y21271D01*
X774Y21264D01*
X782Y21256D01*
X791Y21247D01*
X798Y21236D01*
X805Y21225D01*
X805Y21224D01*
X807Y21220D01*
X809Y21213D01*
X812Y21205D01*
X815Y21194D01*
X817Y21182D01*
X819Y21167D01*
X820Y21152D01*
X820Y21151D01*
X820Y21149D01*
X820Y21147D01*
X819Y21143D01*
X819Y21137D01*
X818Y21132D01*
X816Y21119D01*
X812Y21103D01*
X805Y21087D01*
X802Y21080D01*
X797Y21072D01*
X792Y21065D01*
X786Y21057D01*
X785Y21057D01*
X785Y21056D01*
X783Y21054D01*
X780Y21052D01*
X777Y21049D01*
X773Y21046D01*
X767Y21043D01*
X762Y21039D01*
X749Y21033D01*
X735Y21027D01*
X717Y21023D01*
X708Y21022D01*
X698Y21021D01*
X691Y21021D01*
X687Y21022D01*
X681Y21023D01*
X675Y21024D01*
X661Y21027D01*
X645Y21033D01*
X637Y21036D01*
X629Y21041D01*
X622Y21046D01*
X614Y21052D01*
X607Y21059D01*
X601Y21067D01*
X600Y21067D01*
X600Y21069D01*
X598Y21071D01*
X596Y21075D01*
X594Y21080D01*
X591Y21086D01*
X588Y21093D01*
X585Y21101D01*
X582Y21111D01*
X580Y21121D01*
X577Y21133D01*
X574Y21146D01*
X572Y21160D01*
X571Y21175D01*
X570Y21192D01*
X570Y21209D01*
X570Y21280D01*
X556Y21280D01*
X551Y21279D01*
X544Y21277D01*
X538Y21275D01*
X531Y21271D01*
X524Y21265D01*
X519Y21257D01*
X518Y21256D01*
X517Y21253D01*
X515Y21248D01*
X512Y21240D01*
X510Y21230D01*
X508Y21218D01*
X506Y21204D01*
X506Y21187D01*
X506Y21187D01*
X506Y21185D01*
X506Y21183D01*
X506Y21181D01*
X506Y21173D01*
X506Y21164D01*
X508Y21153D01*
X509Y21141D01*
X511Y21128D01*
X514Y21115D01*
X514Y21115D01*
X514Y21114D01*
X514Y21112D01*
X515Y21110D01*
X517Y21103D01*
X519Y21095D01*
X522Y21086D01*
X526Y21075D01*
X531Y21065D01*
X536Y21054D01*
X445Y21054D01*
X445Y21055D01*
X444Y21056D01*
X444Y21058D01*
X444Y21061D01*
X443Y21064D01*
X442Y21068D01*
X440Y21078D01*
X438Y21089D01*
X435Y21103D01*
X433Y21116D01*
X431Y21131D01*
X431Y21131D01*
X431Y21133D01*
X430Y21135D01*
X430Y21137D01*
X430Y21141D01*
X429Y21145D01*
X428Y21155D01*
X427Y21167D01*
X426Y21181D01*
X426Y21195D01*
X426Y21209D01*
X426Y21211D01*
X426Y21214D01*
X426Y21219D01*
X426Y21226D01*
X427Y21234D01*
X428Y21244D01*
X429Y21255D01*
X431Y21266D01*
X436Y21290D01*
X439Y21302D01*
X443Y21314D01*
X448Y21325D01*
X453Y21336D01*
X459Y21346D01*
X466Y21356D01*
X467Y21356D01*
X468Y21358D01*
X470Y21360D01*
X474Y21363D01*
X478Y21366D01*
X484Y21370D01*
X490Y21374D01*
X498Y21378D01*
X506Y21382D01*
X516Y21387D01*
X526Y21390D01*
X538Y21394D01*
X551Y21397D01*
X565Y21399D01*
X580Y21400D01*
X596Y21401D01*
X810Y21401D01*
X810Y21280D01*
X810Y21280D02*
G37*
G36*
X710Y20467D02*
X715Y20466D01*
X721Y20465D01*
X734Y20462D01*
X748Y20457D01*
X756Y20453D01*
X763Y20449D01*
X771Y20443D01*
X777Y20437D01*
X784Y20431D01*
X790Y20423D01*
X790Y20422D01*
X791Y20421D01*
X793Y20418D01*
X795Y20415D01*
X797Y20410D01*
X799Y20404D01*
X802Y20397D01*
X805Y20390D01*
X808Y20381D01*
X811Y20371D01*
X813Y20360D01*
X815Y20349D01*
X817Y20335D01*
X819Y20321D01*
X819Y20307D01*
X820Y20291D01*
X820Y20290D01*
X820Y20290D01*
X820Y20287D01*
X820Y20284D01*
X820Y20281D01*
X819Y20277D01*
X819Y20268D01*
X819Y20256D01*
X817Y20242D01*
X816Y20228D01*
X814Y20214D01*
X814Y20213D01*
X814Y20212D01*
X813Y20210D01*
X813Y20207D01*
X813Y20203D01*
X811Y20199D01*
X810Y20189D01*
X807Y20177D01*
X805Y20163D01*
X801Y20148D01*
X797Y20133D01*
X705Y20133D01*
X705Y20134D01*
X706Y20134D01*
X707Y20136D01*
X708Y20139D01*
X711Y20146D01*
X715Y20156D01*
X719Y20166D01*
X723Y20178D01*
X728Y20192D01*
X731Y20206D01*
X731Y20206D01*
X732Y20208D01*
X732Y20210D01*
X733Y20212D01*
X733Y20216D01*
X734Y20220D01*
X735Y20230D01*
X737Y20241D01*
X739Y20254D01*
X739Y20268D01*
X740Y20283D01*
X740Y20284D01*
X740Y20284D01*
X740Y20289D01*
X739Y20295D01*
X739Y20302D01*
X738Y20311D01*
X736Y20319D01*
X734Y20328D01*
X731Y20335D01*
X730Y20336D01*
X729Y20338D01*
X727Y20341D01*
X723Y20345D01*
X719Y20347D01*
X714Y20351D01*
X709Y20353D01*
X702Y20353D01*
X699Y20353D01*
X697Y20353D01*
X693Y20352D01*
X689Y20350D01*
X685Y20348D01*
X681Y20345D01*
X678Y20341D01*
X677Y20340D01*
X677Y20338D01*
X675Y20335D01*
X673Y20330D01*
X671Y20323D01*
X669Y20315D01*
X667Y20305D01*
X666Y20292D01*
X663Y20271D01*
X663Y20270D01*
X662Y20268D01*
X661Y20264D01*
X661Y20258D01*
X659Y20252D01*
X658Y20244D01*
X657Y20236D01*
X654Y20227D01*
X649Y20208D01*
X643Y20190D01*
X640Y20181D01*
X636Y20173D01*
X631Y20166D01*
X626Y20159D01*
X626Y20158D01*
X625Y20158D01*
X621Y20154D01*
X615Y20149D01*
X606Y20143D01*
X594Y20137D01*
X580Y20132D01*
X563Y20128D01*
X554Y20128D01*
X544Y20127D01*
X538Y20127D01*
X534Y20128D01*
X529Y20128D01*
X523Y20129D01*
X510Y20132D01*
X496Y20137D01*
X488Y20140D01*
X481Y20144D01*
X474Y20149D01*
X467Y20154D01*
X461Y20160D01*
X455Y20168D01*
X454Y20168D01*
X454Y20170D01*
X452Y20172D01*
X450Y20176D01*
X448Y20180D01*
X446Y20185D01*
X443Y20191D01*
X440Y20198D01*
X438Y20207D01*
X435Y20216D01*
X432Y20226D01*
X430Y20238D01*
X428Y20250D01*
X427Y20263D01*
X426Y20278D01*
X426Y20293D01*
X426Y20294D01*
X426Y20294D01*
X426Y20296D01*
X426Y20299D01*
X426Y20306D01*
X426Y20314D01*
X427Y20324D01*
X428Y20336D01*
X429Y20349D01*
X431Y20362D01*
X431Y20363D01*
X431Y20364D01*
X432Y20366D01*
X432Y20369D01*
X432Y20372D01*
X433Y20376D01*
X434Y20386D01*
X437Y20397D01*
X440Y20411D01*
X442Y20426D01*
X446Y20442D01*
X538Y20442D01*
X538Y20441D01*
X537Y20440D01*
X536Y20438D01*
X535Y20435D01*
X532Y20428D01*
X528Y20418D01*
X525Y20407D01*
X521Y20394D01*
X517Y20381D01*
X514Y20367D01*
X514Y20367D01*
X513Y20366D01*
X513Y20364D01*
X512Y20361D01*
X511Y20354D01*
X510Y20345D01*
X508Y20335D01*
X507Y20323D01*
X506Y20312D01*
X506Y20300D01*
X506Y20299D01*
X506Y20298D01*
X506Y20294D01*
X506Y20288D01*
X507Y20280D01*
X508Y20272D01*
X509Y20264D01*
X512Y20256D01*
X514Y20249D01*
X515Y20248D01*
X516Y20246D01*
X518Y20244D01*
X521Y20241D01*
X524Y20238D01*
X529Y20236D01*
X534Y20234D01*
X541Y20233D01*
X543Y20233D01*
X546Y20234D01*
X549Y20234D01*
X552Y20236D01*
X556Y20238D01*
X560Y20241D01*
X563Y20245D01*
X563Y20246D01*
X564Y20248D01*
X566Y20251D01*
X567Y20256D01*
X569Y20262D01*
X571Y20270D01*
X573Y20279D01*
X574Y20290D01*
X577Y20312D01*
X577Y20313D01*
X578Y20315D01*
X578Y20320D01*
X579Y20326D01*
X580Y20334D01*
X582Y20342D01*
X584Y20351D01*
X586Y20361D01*
X592Y20382D01*
X598Y20403D01*
X602Y20412D01*
X607Y20421D01*
X612Y20429D01*
X616Y20435D01*
X616Y20436D01*
X618Y20437D01*
X622Y20441D01*
X628Y20445D01*
X632Y20449D01*
X637Y20451D01*
X642Y20455D01*
X648Y20457D01*
X655Y20460D01*
X663Y20463D01*
X671Y20465D01*
X680Y20466D01*
X689Y20467D01*
X700Y20467D01*
X706Y20467D01*
X710Y20467D01*
X710Y20467D02*
G37*
G36*
X638Y20961D02*
X645Y20960D01*
X653Y20959D01*
X663Y20958D01*
X673Y20956D01*
X696Y20951D01*
X708Y20947D01*
X720Y20943D01*
X731Y20938D01*
X743Y20932D01*
X755Y20925D01*
X765Y20917D01*
X766Y20916D01*
X767Y20915D01*
X771Y20912D01*
X774Y20909D01*
X778Y20904D01*
X783Y20899D01*
X787Y20893D01*
X793Y20886D01*
X798Y20878D01*
X803Y20870D01*
X807Y20860D01*
X811Y20850D01*
X815Y20839D01*
X817Y20828D01*
X819Y20815D01*
X820Y20802D01*
X820Y20802D01*
X820Y20800D01*
X820Y20798D01*
X820Y20796D01*
X819Y20788D01*
X818Y20779D01*
X816Y20768D01*
X813Y20756D01*
X810Y20744D01*
X805Y20733D01*
X804Y20732D01*
X802Y20728D01*
X798Y20722D01*
X793Y20715D01*
X786Y20706D01*
X777Y20697D01*
X767Y20688D01*
X756Y20678D01*
X953Y20678D01*
X953Y20559D01*
X434Y20559D01*
X434Y20678D01*
X489Y20678D01*
X488Y20680D01*
X484Y20683D01*
X478Y20688D01*
X472Y20694D01*
X464Y20702D01*
X456Y20712D01*
X448Y20722D01*
X442Y20733D01*
X442Y20734D01*
X441Y20734D01*
X439Y20738D01*
X436Y20744D01*
X434Y20753D01*
X431Y20763D01*
X428Y20775D01*
X426Y20788D01*
X426Y20802D01*
X426Y20803D01*
X426Y20806D01*
X426Y20809D01*
X426Y20814D01*
X428Y20820D01*
X428Y20827D01*
X430Y20834D01*
X432Y20843D01*
X436Y20852D01*
X439Y20861D01*
X444Y20870D01*
X449Y20880D01*
X455Y20890D01*
X463Y20899D01*
X471Y20908D01*
X481Y20917D01*
X482Y20918D01*
X484Y20919D01*
X486Y20921D01*
X491Y20924D01*
X496Y20928D01*
X503Y20931D01*
X511Y20935D01*
X520Y20940D01*
X529Y20944D01*
X540Y20948D01*
X552Y20951D01*
X564Y20955D01*
X578Y20958D01*
X592Y20960D01*
X607Y20961D01*
X623Y20962D01*
X632Y20962D01*
X638Y20961D01*
X638Y20961D02*
G37*
G36*
X3182Y23881D02*
X3182Y23538D01*
X3182Y23194D01*
X3182Y22850D01*
X3182Y22507D01*
X3182Y22163D01*
X3182Y21819D01*
X3182Y21476D01*
X3182Y21132D01*
X3182Y20788D01*
X3182Y20445D01*
X3118Y20445D01*
X3118Y20788D01*
X3118Y21132D01*
X3118Y21476D01*
X3118Y21819D01*
X3118Y22163D01*
X3118Y22507D01*
X3118Y22850D01*
X3118Y23194D01*
X3118Y23538D01*
X3118Y23881D01*
X3118Y24225D01*
X3182Y24225D01*
X3182Y23881D01*
X3182Y23881D02*
G37*
G36*
X2271Y20605D02*
X2141Y20605D01*
X2141Y20726D01*
X2271Y20726D01*
X2271Y20605D01*
X2271Y20605D02*
G37*
G36*
X1303Y23095D02*
X1308Y23095D01*
X1315Y23094D01*
X1322Y23093D01*
X1338Y23091D01*
X1355Y23088D01*
X1372Y23084D01*
X1389Y23078D01*
X1390Y23078D01*
X1391Y23077D01*
X1393Y23076D01*
X1397Y23075D01*
X1401Y23073D01*
X1405Y23071D01*
X1415Y23065D01*
X1428Y23057D01*
X1441Y23049D01*
X1454Y23038D01*
X1467Y23025D01*
X1468Y23025D01*
X1469Y23023D01*
X1471Y23021D01*
X1474Y23018D01*
X1477Y23015D01*
X1481Y23010D01*
X1485Y23005D01*
X1489Y22998D01*
X1498Y22984D01*
X1507Y22968D01*
X1516Y22950D01*
X1523Y22929D01*
X1523Y22928D01*
X1523Y22926D01*
X1524Y22923D01*
X1525Y22918D01*
X1527Y22912D01*
X1528Y22906D01*
X1529Y22897D01*
X1531Y22887D01*
X1532Y22876D01*
X1533Y22863D01*
X1535Y22850D01*
X1536Y22834D01*
X1537Y22818D01*
X1538Y22800D01*
X1539Y22781D01*
X1539Y22760D01*
X1539Y22625D01*
X1038Y22625D01*
X1038Y22760D01*
X1038Y22761D01*
X1038Y22762D01*
X1038Y22766D01*
X1038Y22771D01*
X1038Y22779D01*
X1039Y22788D01*
X1039Y22800D01*
X1039Y22812D01*
X1040Y22824D01*
X1042Y22852D01*
X1045Y22880D01*
X1046Y22894D01*
X1049Y22907D01*
X1052Y22919D01*
X1054Y22930D01*
X1054Y22931D01*
X1055Y22933D01*
X1056Y22936D01*
X1058Y22940D01*
X1059Y22944D01*
X1062Y22950D01*
X1064Y22956D01*
X1067Y22963D01*
X1075Y22978D01*
X1084Y22994D01*
X1096Y23010D01*
X1110Y23025D01*
X1110Y23026D01*
X1111Y23027D01*
X1113Y23029D01*
X1116Y23031D01*
X1123Y23037D01*
X1132Y23045D01*
X1144Y23054D01*
X1157Y23063D01*
X1172Y23071D01*
X1188Y23078D01*
X1189Y23078D01*
X1190Y23079D01*
X1193Y23079D01*
X1196Y23081D01*
X1200Y23082D01*
X1205Y23083D01*
X1211Y23085D01*
X1217Y23087D01*
X1232Y23090D01*
X1249Y23093D01*
X1268Y23095D01*
X1288Y23095D01*
X1298Y23095D01*
X1303Y23095D01*
X1303Y23095D02*
G37*
G36*
X2300Y21445D02*
X2209Y21413D01*
X2209Y21211D01*
X2300Y21179D01*
X2300Y21050D01*
X1799Y21235D01*
X1799Y21389D01*
X2300Y21575D01*
X2300Y21445D01*
X2300Y21445D02*
G37*
G36*
X2025Y20605D02*
X1895Y20605D01*
X1895Y20726D01*
X2025Y20726D01*
X2025Y20605D01*
X2025Y20605D02*
G37*
G36*
X2116Y19767D02*
X2118Y19767D01*
X2120Y19768D01*
X2123Y19769D01*
X2131Y19770D01*
X2140Y19773D01*
X2151Y19777D01*
X2161Y19782D01*
X2171Y19789D01*
X2180Y19797D01*
X2181Y19799D01*
X2183Y19802D01*
X2187Y19808D01*
X2190Y19816D01*
X2194Y19827D01*
X2197Y19839D01*
X2200Y19854D01*
X2201Y19871D01*
X2201Y19871D01*
X2201Y19873D01*
X2201Y19875D01*
X2201Y19877D01*
X2200Y19881D01*
X2200Y19885D01*
X2199Y19895D01*
X2198Y19906D01*
X2196Y19919D01*
X2193Y19933D01*
X2190Y19948D01*
X2190Y19949D01*
X2189Y19950D01*
X2189Y19952D01*
X2188Y19955D01*
X2187Y19959D01*
X2185Y19963D01*
X2181Y19973D01*
X2177Y19985D01*
X2171Y19999D01*
X2163Y20014D01*
X2155Y20030D01*
X2248Y20030D01*
X2248Y20029D01*
X2249Y20028D01*
X2249Y20026D01*
X2251Y20022D01*
X2252Y20018D01*
X2254Y20014D01*
X2257Y20003D01*
X2261Y19990D01*
X2265Y19976D01*
X2269Y19961D01*
X2273Y19945D01*
X2273Y19944D01*
X2273Y19943D01*
X2273Y19941D01*
X2274Y19937D01*
X2275Y19933D01*
X2275Y19929D01*
X2277Y19918D01*
X2278Y19905D01*
X2279Y19891D01*
X2280Y19875D01*
X2281Y19859D01*
X2281Y19858D01*
X2281Y19855D01*
X2280Y19849D01*
X2280Y19843D01*
X2279Y19834D01*
X2278Y19824D01*
X2277Y19813D01*
X2274Y19801D01*
X2271Y19789D01*
X2268Y19776D01*
X2264Y19763D01*
X2259Y19749D01*
X2253Y19737D01*
X2246Y19724D01*
X2239Y19712D01*
X2229Y19701D01*
X2229Y19700D01*
X2227Y19698D01*
X2224Y19695D01*
X2220Y19692D01*
X2215Y19688D01*
X2208Y19683D01*
X2200Y19678D01*
X2191Y19673D01*
X2182Y19667D01*
X2171Y19663D01*
X2159Y19658D01*
X2146Y19654D01*
X2132Y19650D01*
X2117Y19648D01*
X2101Y19646D01*
X2084Y19645D01*
X2080Y19645D01*
X2075Y19646D01*
X2068Y19646D01*
X2061Y19647D01*
X2052Y19648D01*
X2042Y19649D01*
X2032Y19651D01*
X2020Y19655D01*
X2008Y19658D01*
X1996Y19663D01*
X1984Y19668D01*
X1972Y19675D01*
X1961Y19682D01*
X1950Y19690D01*
X1940Y19700D01*
X1939Y19701D01*
X1938Y19703D01*
X1935Y19706D01*
X1931Y19710D01*
X1927Y19716D01*
X1923Y19723D01*
X1918Y19731D01*
X1913Y19740D01*
X1908Y19750D01*
X1903Y19761D01*
X1899Y19774D01*
X1894Y19788D01*
X1891Y19803D01*
X1888Y19818D01*
X1887Y19835D01*
X1886Y19853D01*
X1886Y19854D01*
X1886Y19857D01*
X1886Y19861D01*
X1887Y19867D01*
X1888Y19875D01*
X1889Y19883D01*
X1891Y19893D01*
X1893Y19904D01*
X1896Y19915D01*
X1899Y19926D01*
X1904Y19938D01*
X1909Y19950D01*
X1915Y19962D01*
X1922Y19973D01*
X1930Y19984D01*
X1940Y19994D01*
X1940Y19995D01*
X1942Y19996D01*
X1945Y19999D01*
X1950Y20003D01*
X1955Y20007D01*
X1961Y20011D01*
X1969Y20016D01*
X1978Y20021D01*
X1987Y20026D01*
X1998Y20031D01*
X2010Y20035D01*
X2022Y20040D01*
X2036Y20043D01*
X2050Y20046D01*
X2066Y20047D01*
X2082Y20048D01*
X2116Y20048D01*
X2116Y19767D01*
X2116Y19767D02*
G37*
G36*
X2271Y19464D02*
X2146Y19403D01*
X2145Y19403D01*
X2145Y19402D01*
X2143Y19401D01*
X2140Y19400D01*
X2133Y19396D01*
X2125Y19392D01*
X2118Y19386D01*
X2109Y19380D01*
X2101Y19372D01*
X2095Y19366D01*
X2094Y19365D01*
X2093Y19362D01*
X2090Y19358D01*
X2088Y19352D01*
X2086Y19345D01*
X2083Y19336D01*
X2082Y19326D01*
X2081Y19315D01*
X2081Y19279D01*
X2271Y19279D01*
X2271Y19150D01*
X1770Y19150D01*
X1770Y19347D01*
X1770Y19348D01*
X1770Y19352D01*
X1770Y19356D01*
X1771Y19363D01*
X1771Y19371D01*
X1772Y19380D01*
X1773Y19391D01*
X1774Y19402D01*
X1778Y19426D01*
X1784Y19450D01*
X1788Y19461D01*
X1792Y19472D01*
X1797Y19482D01*
X1803Y19492D01*
X1804Y19492D01*
X1804Y19494D01*
X1806Y19496D01*
X1809Y19499D01*
X1813Y19502D01*
X1817Y19506D01*
X1822Y19511D01*
X1828Y19515D01*
X1836Y19520D01*
X1844Y19524D01*
X1852Y19528D01*
X1862Y19531D01*
X1872Y19534D01*
X1883Y19536D01*
X1895Y19538D01*
X1908Y19538D01*
X1913Y19538D01*
X1916Y19538D01*
X1921Y19538D01*
X1926Y19537D01*
X1937Y19535D01*
X1950Y19532D01*
X1964Y19528D01*
X1977Y19522D01*
X1990Y19514D01*
X1990Y19514D01*
X1991Y19512D01*
X1995Y19509D01*
X2000Y19504D01*
X2008Y19496D01*
X2015Y19486D01*
X2023Y19473D01*
X2030Y19458D01*
X2036Y19442D01*
X2036Y19443D01*
X2038Y19446D01*
X2040Y19451D01*
X2042Y19458D01*
X2046Y19465D01*
X2051Y19473D01*
X2057Y19481D01*
X2064Y19489D01*
X2065Y19490D01*
X2068Y19493D01*
X2074Y19497D01*
X2080Y19502D01*
X2090Y19509D01*
X2100Y19516D01*
X2113Y19524D01*
X2129Y19532D01*
X2271Y19602D01*
X2271Y19464D01*
X2271Y19464D02*
G37*
G36*
X2271Y20371D02*
X2271Y20239D01*
X1895Y20092D01*
X1895Y20212D01*
X2155Y20305D01*
X1895Y20398D01*
X1895Y20519D01*
X2271Y20371D01*
X2271Y20371D02*
G37*
G36*
X1301Y22526D02*
X1310Y22525D01*
X1320Y22525D01*
X1332Y22523D01*
X1345Y22521D01*
X1359Y22518D01*
X1374Y22515D01*
X1389Y22510D01*
X1405Y22505D01*
X1421Y22498D01*
X1437Y22490D01*
X1452Y22481D01*
X1467Y22470D01*
X1480Y22458D01*
X1481Y22457D01*
X1483Y22455D01*
X1486Y22451D01*
X1491Y22445D01*
X1496Y22439D01*
X1502Y22430D01*
X1508Y22420D01*
X1514Y22409D01*
X1521Y22396D01*
X1527Y22381D01*
X1533Y22366D01*
X1538Y22349D01*
X1542Y22331D01*
X1546Y22311D01*
X1548Y22291D01*
X1549Y22269D01*
X1549Y22268D01*
X1549Y22264D01*
X1548Y22258D01*
X1547Y22249D01*
X1547Y22239D01*
X1545Y22227D01*
X1543Y22214D01*
X1540Y22200D01*
X1537Y22185D01*
X1532Y22170D01*
X1526Y22154D01*
X1520Y22138D01*
X1512Y22122D01*
X1503Y22108D01*
X1492Y22093D01*
X1480Y22080D01*
X1479Y22079D01*
X1477Y22077D01*
X1473Y22074D01*
X1467Y22069D01*
X1460Y22064D01*
X1451Y22058D01*
X1441Y22052D01*
X1430Y22046D01*
X1417Y22040D01*
X1403Y22033D01*
X1387Y22028D01*
X1370Y22022D01*
X1352Y22018D01*
X1333Y22014D01*
X1312Y22012D01*
X1290Y22012D01*
X1284Y22012D01*
X1278Y22012D01*
X1270Y22013D01*
X1259Y22014D01*
X1248Y22015D01*
X1234Y22018D01*
X1220Y22020D01*
X1205Y22024D01*
X1189Y22028D01*
X1174Y22034D01*
X1158Y22040D01*
X1142Y22048D01*
X1126Y22057D01*
X1112Y22068D01*
X1098Y22080D01*
X1098Y22080D01*
X1095Y22083D01*
X1092Y22087D01*
X1088Y22092D01*
X1082Y22099D01*
X1076Y22108D01*
X1070Y22118D01*
X1064Y22129D01*
X1057Y22142D01*
X1051Y22156D01*
X1045Y22172D01*
X1040Y22188D01*
X1036Y22207D01*
X1032Y22226D01*
X1030Y22247D01*
X1029Y22269D01*
X1029Y22270D01*
X1029Y22270D01*
X1029Y22274D01*
X1030Y22280D01*
X1031Y22289D01*
X1031Y22299D01*
X1033Y22311D01*
X1035Y22323D01*
X1038Y22337D01*
X1041Y22353D01*
X1046Y22368D01*
X1052Y22384D01*
X1058Y22399D01*
X1066Y22415D01*
X1076Y22430D01*
X1086Y22445D01*
X1098Y22458D01*
X1099Y22459D01*
X1102Y22461D01*
X1106Y22465D01*
X1111Y22469D01*
X1118Y22474D01*
X1127Y22480D01*
X1137Y22486D01*
X1148Y22493D01*
X1161Y22499D01*
X1176Y22505D01*
X1191Y22511D01*
X1208Y22516D01*
X1227Y22521D01*
X1246Y22524D01*
X1268Y22526D01*
X1290Y22527D01*
X1295Y22527D01*
X1301Y22526D01*
X1301Y22526D02*
G37*
G36*
X1214Y21266D02*
X1221Y21265D01*
X1229Y21264D01*
X1237Y21263D01*
X1246Y21260D01*
X1256Y21257D01*
X1266Y21254D01*
X1276Y21250D01*
X1286Y21245D01*
X1296Y21239D01*
X1306Y21232D01*
X1314Y21225D01*
X1323Y21215D01*
X1324Y21215D01*
X1325Y21213D01*
X1327Y21210D01*
X1330Y21206D01*
X1333Y21201D01*
X1336Y21194D01*
X1340Y21187D01*
X1344Y21178D01*
X1348Y21168D01*
X1352Y21157D01*
X1355Y21145D01*
X1358Y21131D01*
X1361Y21117D01*
X1363Y21102D01*
X1364Y21085D01*
X1365Y21068D01*
X1365Y20984D01*
X1539Y20984D01*
X1539Y20854D01*
X1038Y20854D01*
X1038Y21068D01*
X1038Y21069D01*
X1038Y21072D01*
X1038Y21077D01*
X1039Y21084D01*
X1039Y21092D01*
X1040Y21101D01*
X1041Y21111D01*
X1043Y21123D01*
X1049Y21146D01*
X1052Y21159D01*
X1056Y21171D01*
X1060Y21183D01*
X1066Y21194D01*
X1073Y21205D01*
X1080Y21215D01*
X1081Y21216D01*
X1082Y21217D01*
X1085Y21220D01*
X1088Y21223D01*
X1092Y21227D01*
X1098Y21231D01*
X1104Y21236D01*
X1112Y21241D01*
X1120Y21246D01*
X1129Y21251D01*
X1138Y21255D01*
X1150Y21259D01*
X1161Y21262D01*
X1174Y21265D01*
X1187Y21266D01*
X1202Y21267D01*
X1209Y21267D01*
X1214Y21266D01*
X1214Y21266D02*
G37*
G36*
X1136Y20383D02*
X1539Y20383D01*
X1539Y20254D01*
X1136Y20254D01*
X1136Y20087D01*
X1038Y20087D01*
X1038Y20549D01*
X1136Y20549D01*
X1136Y20383D01*
X1136Y20383D02*
G37*
G36*
X1136Y19807D02*
X1228Y19807D01*
X1228Y20013D01*
X1326Y20013D01*
X1326Y19807D01*
X1539Y19807D01*
X1539Y19678D01*
X1038Y19678D01*
X1038Y20026D01*
X1136Y20026D01*
X1136Y19807D01*
X1136Y19807D02*
G37*
G36*
X1136Y19446D02*
X1539Y19446D01*
X1539Y19317D01*
X1136Y19317D01*
X1136Y19150D01*
X1038Y19150D01*
X1038Y19612D01*
X1136Y19612D01*
X1136Y19446D01*
X1136Y19446D02*
G37*
G36*
X1539Y21793D02*
X1173Y21793D01*
X1443Y21677D01*
X1443Y21596D01*
X1173Y21480D01*
X1539Y21480D01*
X1539Y21358D01*
X1038Y21358D01*
X1038Y21522D01*
X1306Y21636D01*
X1038Y21751D01*
X1038Y21915D01*
X1539Y21915D01*
X1539Y21793D01*
X1539Y21793D02*
G37*
G36*
X28495Y20185D02*
X28520Y20173D01*
X28558Y20148D01*
X28595Y20085D01*
X28620Y20010D01*
X28645Y19898D01*
X28670Y19748D01*
X28670Y19685D01*
X28670Y19672D01*
X28670Y19610D01*
X28658Y19560D01*
X28658Y19497D01*
X28645Y19423D01*
X28633Y19335D01*
X28607Y19223D01*
X28582Y19110D01*
X28558Y18973D01*
X28533Y18822D01*
X28495Y18648D01*
X28445Y18460D01*
X28395Y18247D01*
X28333Y18023D01*
X28307Y17997D01*
X28282Y17935D01*
X28270Y17897D01*
X28245Y17835D01*
X28220Y17773D01*
X28195Y17685D01*
X28157Y17585D01*
X28120Y17472D01*
X28082Y17335D01*
X28033Y17172D01*
X27982Y16985D01*
X27933Y16785D01*
X27933Y16773D01*
X27920Y16747D01*
X27908Y16697D01*
X27895Y16623D01*
X27882Y16547D01*
X27857Y16460D01*
X27808Y16248D01*
X27757Y16010D01*
X27695Y15773D01*
X27633Y15560D01*
X27570Y15360D01*
X27570Y15135D01*
X27570Y15110D01*
X27570Y15060D01*
X27570Y14972D01*
X27570Y14848D01*
X27582Y14710D01*
X27582Y14535D01*
X27582Y14347D01*
X27595Y14147D01*
X27595Y14135D01*
X27595Y14123D01*
X27582Y14085D01*
X27582Y14023D01*
X27557Y13960D01*
X27532Y13872D01*
X27495Y13772D01*
X27445Y13660D01*
X27383Y13535D01*
X27308Y13385D01*
X27208Y13223D01*
X27095Y13047D01*
X26970Y12847D01*
X26807Y12648D01*
X26632Y12410D01*
X26420Y12172D01*
X26420Y12160D01*
X26407Y12148D01*
X26383Y12110D01*
X26358Y12060D01*
X26282Y11935D01*
X26195Y11797D01*
X26095Y11635D01*
X25995Y11473D01*
X25907Y11335D01*
X25820Y11222D01*
X25858Y11160D01*
X25858Y9423D01*
X25858Y9410D01*
X25858Y9398D01*
X25858Y9360D01*
X25858Y9310D01*
X25882Y9197D01*
X25907Y9060D01*
X25945Y8923D01*
X26007Y8785D01*
X26095Y8685D01*
X26158Y8660D01*
X26220Y8635D01*
X26245Y8622D01*
X26295Y8597D01*
X26370Y8547D01*
X26458Y8485D01*
X26545Y8410D01*
X26620Y8335D01*
X26670Y8260D01*
X26695Y8185D01*
X26695Y8123D01*
X26695Y8110D01*
X26683Y8073D01*
X26670Y8010D01*
X26632Y7960D01*
X26570Y7897D01*
X26470Y7835D01*
X26332Y7797D01*
X26258Y7785D01*
X26082Y7785D01*
X26033Y7797D01*
X25907Y7810D01*
X25745Y7835D01*
X25570Y7872D01*
X25395Y7947D01*
X25233Y8035D01*
X25095Y8160D01*
X25095Y8173D01*
X25082Y8198D01*
X25057Y8248D01*
X25032Y8310D01*
X24995Y8385D01*
X24957Y8485D01*
X24908Y8610D01*
X24870Y8748D01*
X24808Y8898D01*
X24757Y9072D01*
X24708Y9273D01*
X24657Y9485D01*
X24595Y9722D01*
X24545Y9985D01*
X24495Y10247D01*
X24445Y10547D01*
X24432Y10573D01*
X24420Y10610D01*
X24407Y10685D01*
X24395Y10747D01*
X24358Y10747D01*
X24358Y10735D01*
X24358Y10673D01*
X24358Y10597D01*
X24345Y10485D01*
X24332Y10347D01*
X24320Y10197D01*
X24295Y10022D01*
X24270Y9847D01*
X24183Y9460D01*
X24120Y9260D01*
X24058Y9060D01*
X23970Y8873D01*
X23870Y8698D01*
X23758Y8535D01*
X23633Y8385D01*
X23645Y8385D01*
X23670Y8360D01*
X23695Y8335D01*
X23733Y8298D01*
X23782Y8248D01*
X23832Y8185D01*
X23832Y8010D01*
X23832Y7985D01*
X23807Y7935D01*
X23770Y7897D01*
X23733Y7860D01*
X23670Y7822D01*
X23582Y7772D01*
X23482Y7722D01*
X23345Y7685D01*
X23182Y7648D01*
X22995Y7610D01*
X22757Y7585D01*
X22495Y7560D01*
X22183Y7535D01*
X21832Y7535D01*
X21470Y7598D01*
X21432Y7598D01*
X21383Y7585D01*
X21320Y7585D01*
X21170Y7560D01*
X20995Y7548D01*
X20807Y7523D01*
X20645Y7498D01*
X20570Y7498D01*
X20508Y7485D01*
X20420Y7485D01*
X20032Y7510D01*
X20020Y7510D01*
X19995Y7498D01*
X19957Y7485D01*
X19895Y7473D01*
X19833Y7448D01*
X19745Y7435D01*
X19633Y7410D01*
X19520Y7385D01*
X19395Y7360D01*
X19258Y7335D01*
X18932Y7297D01*
X18570Y7272D01*
X18170Y7260D01*
X17895Y7260D01*
X17820Y7272D01*
X17620Y7285D01*
X17383Y7297D01*
X17120Y7322D01*
X16832Y7360D01*
X16532Y7410D01*
X16220Y7473D01*
X15907Y7548D01*
X15608Y7648D01*
X15332Y7760D01*
X15070Y7885D01*
X14845Y8048D01*
X14657Y8223D01*
X14583Y8322D01*
X14520Y8435D01*
X14507Y8447D01*
X14483Y8510D01*
X14445Y8585D01*
X14395Y8698D01*
X14345Y8823D01*
X14308Y8972D01*
X14282Y9135D01*
X14270Y9310D01*
X14270Y9448D01*
X14270Y9460D01*
X14270Y9523D01*
X14282Y9597D01*
X14295Y9710D01*
X14320Y9835D01*
X14358Y9985D01*
X14408Y10148D01*
X14470Y10323D01*
X14545Y10497D01*
X14657Y10685D01*
X14783Y10860D01*
X14933Y11048D01*
X15120Y11222D01*
X15320Y11372D01*
X15570Y11523D01*
X15845Y11647D01*
X15920Y11647D01*
X15983Y11660D01*
X16070Y11673D01*
X16133Y11673D01*
X16195Y11660D01*
X16270Y11635D01*
X16370Y11597D01*
X16470Y11547D01*
X16570Y11485D01*
X16658Y11385D01*
X16658Y11335D01*
X16645Y11310D01*
X16608Y11298D01*
X16545Y11260D01*
X16508Y11248D01*
X16445Y11235D01*
X16370Y11210D01*
X16295Y11198D01*
X16183Y11172D01*
X16070Y11148D01*
X15933Y11135D01*
X15783Y11110D01*
X15770Y11110D01*
X15745Y11085D01*
X15707Y11060D01*
X15658Y11010D01*
X15595Y10960D01*
X15520Y10885D01*
X15458Y10797D01*
X15382Y10710D01*
X15295Y10597D01*
X15232Y10473D01*
X15158Y10335D01*
X15095Y10185D01*
X15045Y10022D01*
X15007Y9847D01*
X14983Y9660D01*
X14970Y9448D01*
X14970Y9435D01*
X14970Y9385D01*
X14983Y9323D01*
X15007Y9235D01*
X15033Y9135D01*
X15082Y9022D01*
X15158Y8898D01*
X15245Y8773D01*
X15358Y8648D01*
X15508Y8522D01*
X15682Y8410D01*
X15895Y8310D01*
X16145Y8223D01*
X16432Y8160D01*
X16770Y8110D01*
X16957Y8098D01*
X18020Y8098D01*
X18095Y8073D01*
X18132Y8073D01*
X18182Y8085D01*
X18245Y8098D01*
X18407Y8123D01*
X18595Y8173D01*
X18795Y8248D01*
X18982Y8347D01*
X19070Y8410D01*
X19145Y8472D01*
X19208Y8547D01*
X19245Y8635D01*
X19245Y8648D01*
X19245Y8660D01*
X19258Y8735D01*
X19282Y8860D01*
X19308Y9010D01*
X19320Y9172D01*
X19345Y9360D01*
X19358Y9548D01*
X19358Y9735D01*
X19358Y10098D01*
X19358Y10110D01*
X19358Y10148D01*
X19358Y10197D01*
X19345Y10273D01*
X19345Y10360D01*
X19332Y10460D01*
X19332Y10673D01*
X19320Y10885D01*
X19308Y11085D01*
X19295Y11160D01*
X19295Y11235D01*
X19295Y11285D01*
X19295Y11310D01*
X19295Y11385D01*
X19295Y11398D01*
X19295Y11460D01*
X19308Y11535D01*
X19320Y11647D01*
X19345Y11797D01*
X19395Y11960D01*
X19445Y12148D01*
X19520Y12360D01*
X19620Y12598D01*
X19733Y12847D01*
X19883Y13123D01*
X20057Y13410D01*
X20257Y13698D01*
X20508Y14010D01*
X20782Y14323D01*
X21095Y14648D01*
X21107Y14660D01*
X21133Y14672D01*
X21182Y14710D01*
X21245Y14748D01*
X21332Y14798D01*
X21432Y14860D01*
X21545Y14922D01*
X21683Y14998D01*
X21820Y15072D01*
X21983Y15160D01*
X22157Y15235D01*
X22345Y15323D01*
X22557Y15410D01*
X22770Y15485D01*
X23233Y15635D01*
X23245Y15635D01*
X23282Y15647D01*
X23345Y15660D01*
X23420Y15685D01*
X23507Y15723D01*
X23607Y15760D01*
X23858Y15860D01*
X24120Y15985D01*
X24395Y16160D01*
X24645Y16360D01*
X24770Y16473D01*
X24870Y16597D01*
X24895Y16610D01*
X24945Y16660D01*
X25032Y16735D01*
X25120Y16835D01*
X25208Y16947D01*
X25295Y17085D01*
X25345Y17235D01*
X25370Y17385D01*
X25370Y17435D01*
X25370Y17448D01*
X25370Y17485D01*
X25357Y17560D01*
X25345Y17660D01*
X25320Y17797D01*
X25270Y17960D01*
X25220Y18160D01*
X25145Y18398D01*
X25145Y18410D01*
X25133Y18448D01*
X25120Y18498D01*
X25108Y18572D01*
X25082Y18648D01*
X25057Y18748D01*
X25008Y18947D01*
X24957Y19160D01*
X24908Y19360D01*
X24895Y19435D01*
X24883Y19510D01*
X24870Y19560D01*
X24870Y19598D01*
X24870Y19660D01*
X24870Y19672D01*
X24883Y19710D01*
X24883Y19760D01*
X24908Y19822D01*
X24920Y19872D01*
X24945Y19922D01*
X24970Y19960D01*
X25008Y19972D01*
X25082Y19972D01*
X25108Y19960D01*
X25170Y19922D01*
X25270Y19872D01*
X25395Y19760D01*
X25482Y19698D01*
X25582Y19610D01*
X25682Y19523D01*
X25807Y19397D01*
X25933Y19273D01*
X26082Y19123D01*
X26107Y19110D01*
X26158Y19085D01*
X26245Y19047D01*
X26332Y19035D01*
X26432Y19035D01*
X26495Y19047D01*
X26645Y19060D01*
X26783Y19097D01*
X26795Y19097D01*
X26858Y19085D01*
X26895Y19073D01*
X26957Y19060D01*
X27032Y19047D01*
X27120Y19035D01*
X27145Y19060D01*
X27195Y19097D01*
X27270Y19173D01*
X27332Y19235D01*
X27395Y19297D01*
X27483Y19385D01*
X27582Y19497D01*
X27695Y19622D01*
X27833Y19760D01*
X27982Y19922D01*
X28157Y20110D01*
X28170Y20110D01*
X28182Y20122D01*
X28258Y20160D01*
X28333Y20185D01*
X28382Y20198D01*
X28482Y20198D01*
X28495Y20185D01*
X28495Y20185D02*
G37*
%LPC*%
G36*
X2042Y19925D02*
X2037Y19925D01*
X2030Y19923D01*
X2023Y19922D01*
X2014Y19920D01*
X2005Y19916D01*
X1996Y19911D01*
X1988Y19905D01*
X1987Y19904D01*
X1984Y19901D01*
X1981Y19897D01*
X1977Y19891D01*
X1973Y19883D01*
X1970Y19874D01*
X1967Y19863D01*
X1966Y19852D01*
X1966Y19851D01*
X1966Y19851D01*
X1966Y19849D01*
X1966Y19846D01*
X1968Y19840D01*
X1969Y19832D01*
X1971Y19823D01*
X1975Y19813D01*
X1980Y19804D01*
X1986Y19795D01*
X1987Y19795D01*
X1990Y19792D01*
X1994Y19788D01*
X2000Y19784D01*
X2008Y19779D01*
X2018Y19775D01*
X2030Y19771D01*
X2042Y19769D01*
X2042Y19925D01*
X2042Y19925D02*
G37*
G36*
X2116Y21380D02*
X1917Y21312D01*
X2116Y21244D01*
X2116Y21380D01*
X2116Y21380D02*
G37*
G36*
X623Y19937D02*
X614Y19937D01*
X610Y19937D01*
X604Y19936D01*
X593Y19935D01*
X580Y19932D01*
X566Y19929D01*
X553Y19923D01*
X541Y19916D01*
X540Y19916D01*
X540Y19915D01*
X536Y19912D01*
X532Y19907D01*
X526Y19901D01*
X521Y19892D01*
X516Y19882D01*
X513Y19870D01*
X512Y19863D01*
X512Y19856D01*
X512Y19855D01*
X512Y19854D01*
X512Y19852D01*
X512Y19849D01*
X513Y19842D01*
X515Y19833D01*
X519Y19823D01*
X524Y19813D01*
X531Y19804D01*
X536Y19799D01*
X541Y19795D01*
X542Y19795D01*
X546Y19792D01*
X553Y19789D01*
X562Y19785D01*
X574Y19781D01*
X588Y19778D01*
X604Y19775D01*
X623Y19775D01*
X628Y19775D01*
X632Y19775D01*
X636Y19775D01*
X641Y19776D01*
X653Y19777D01*
X667Y19780D01*
X680Y19783D01*
X693Y19789D01*
X705Y19795D01*
X707Y19796D01*
X710Y19799D01*
X715Y19804D01*
X719Y19811D01*
X725Y19819D01*
X729Y19830D01*
X733Y19842D01*
X733Y19849D01*
X734Y19856D01*
X734Y19857D01*
X734Y19858D01*
X734Y19860D01*
X733Y19863D01*
X733Y19869D01*
X731Y19878D01*
X727Y19888D01*
X722Y19898D01*
X715Y19907D01*
X711Y19912D01*
X705Y19916D01*
X705Y19916D01*
X704Y19917D01*
X700Y19919D01*
X693Y19923D01*
X684Y19927D01*
X673Y19931D01*
X659Y19934D01*
X642Y19937D01*
X623Y19937D01*
X623Y19937D02*
G37*
G36*
X623Y20838D02*
X614Y20838D01*
X610Y20837D01*
X604Y20836D01*
X593Y20835D01*
X580Y20832D01*
X566Y20829D01*
X553Y20824D01*
X542Y20817D01*
X541Y20817D01*
X540Y20816D01*
X537Y20813D01*
X532Y20808D01*
X527Y20802D01*
X522Y20794D01*
X518Y20784D01*
X514Y20772D01*
X513Y20765D01*
X513Y20758D01*
X513Y20758D01*
X513Y20756D01*
X513Y20754D01*
X514Y20752D01*
X514Y20745D01*
X516Y20736D01*
X520Y20727D01*
X525Y20717D01*
X532Y20708D01*
X536Y20703D01*
X542Y20699D01*
X543Y20698D01*
X547Y20696D01*
X554Y20692D01*
X562Y20689D01*
X574Y20685D01*
X588Y20682D01*
X604Y20679D01*
X623Y20678D01*
X628Y20678D01*
X632Y20679D01*
X636Y20679D01*
X641Y20680D01*
X653Y20681D01*
X666Y20684D01*
X680Y20687D01*
X693Y20692D01*
X705Y20699D01*
X706Y20700D01*
X709Y20703D01*
X713Y20708D01*
X719Y20714D01*
X724Y20722D01*
X728Y20733D01*
X731Y20745D01*
X733Y20758D01*
X733Y20759D01*
X733Y20760D01*
X733Y20762D01*
X732Y20764D01*
X731Y20772D01*
X729Y20780D01*
X726Y20790D01*
X721Y20799D01*
X714Y20808D01*
X705Y20817D01*
X703Y20818D01*
X699Y20820D01*
X693Y20824D01*
X684Y20828D01*
X672Y20831D01*
X658Y20834D01*
X642Y20837D01*
X623Y20838D01*
X623Y20838D02*
G37*
G36*
X1290Y22393D02*
X1282Y22393D01*
X1276Y22393D01*
X1270Y22393D01*
X1262Y22391D01*
X1254Y22391D01*
X1244Y22389D01*
X1225Y22385D01*
X1204Y22379D01*
X1194Y22376D01*
X1184Y22371D01*
X1175Y22367D01*
X1166Y22361D01*
X1166Y22360D01*
X1164Y22359D01*
X1162Y22357D01*
X1160Y22355D01*
X1156Y22351D01*
X1152Y22347D01*
X1148Y22343D01*
X1144Y22337D01*
X1140Y22331D01*
X1136Y22324D01*
X1132Y22316D01*
X1129Y22308D01*
X1126Y22300D01*
X1124Y22290D01*
X1123Y22280D01*
X1122Y22269D01*
X1122Y22268D01*
X1122Y22266D01*
X1122Y22263D01*
X1123Y22259D01*
X1124Y22254D01*
X1124Y22248D01*
X1128Y22235D01*
X1133Y22220D01*
X1136Y22213D01*
X1141Y22205D01*
X1146Y22198D01*
X1152Y22190D01*
X1158Y22184D01*
X1166Y22177D01*
X1167Y22176D01*
X1168Y22176D01*
X1171Y22174D01*
X1174Y22172D01*
X1179Y22170D01*
X1184Y22167D01*
X1191Y22164D01*
X1198Y22161D01*
X1206Y22158D01*
X1216Y22155D01*
X1226Y22152D01*
X1237Y22150D01*
X1249Y22148D01*
X1262Y22146D01*
X1275Y22146D01*
X1290Y22145D01*
X1297Y22145D01*
X1302Y22146D01*
X1309Y22146D01*
X1317Y22147D01*
X1325Y22148D01*
X1334Y22149D01*
X1354Y22153D01*
X1374Y22158D01*
X1394Y22166D01*
X1403Y22172D01*
X1412Y22177D01*
X1413Y22178D01*
X1414Y22178D01*
X1416Y22180D01*
X1419Y22183D01*
X1422Y22186D01*
X1426Y22190D01*
X1429Y22195D01*
X1433Y22201D01*
X1438Y22207D01*
X1441Y22214D01*
X1445Y22222D01*
X1449Y22230D01*
X1451Y22238D01*
X1453Y22248D01*
X1455Y22258D01*
X1455Y22269D01*
X1455Y22270D01*
X1455Y22272D01*
X1455Y22275D01*
X1455Y22279D01*
X1454Y22284D01*
X1453Y22290D01*
X1450Y22303D01*
X1445Y22318D01*
X1441Y22325D01*
X1437Y22333D01*
X1432Y22340D01*
X1426Y22347D01*
X1419Y22354D01*
X1412Y22361D01*
X1411Y22361D01*
X1410Y22362D01*
X1407Y22364D01*
X1404Y22366D01*
X1399Y22368D01*
X1394Y22371D01*
X1387Y22374D01*
X1380Y22377D01*
X1372Y22380D01*
X1363Y22383D01*
X1353Y22386D01*
X1342Y22388D01*
X1330Y22391D01*
X1318Y22392D01*
X1304Y22393D01*
X1290Y22393D01*
X1290Y22393D02*
G37*
G36*
X582Y23063D02*
X576Y23063D01*
X570Y23061D01*
X562Y23060D01*
X554Y23058D01*
X544Y23054D01*
X535Y23049D01*
X527Y23043D01*
X526Y23042D01*
X524Y23039D01*
X520Y23035D01*
X516Y23029D01*
X512Y23021D01*
X509Y23012D01*
X506Y23001D01*
X506Y22990D01*
X506Y22989D01*
X506Y22989D01*
X506Y22987D01*
X506Y22984D01*
X507Y22978D01*
X508Y22970D01*
X510Y22961D01*
X514Y22952D01*
X519Y22942D01*
X526Y22934D01*
X526Y22933D01*
X529Y22930D01*
X534Y22926D01*
X540Y22922D01*
X548Y22918D01*
X558Y22914D01*
X569Y22910D01*
X582Y22907D01*
X582Y23063D01*
X582Y23063D02*
G37*
G36*
X1202Y21133D02*
X1196Y21133D01*
X1190Y21132D01*
X1182Y21131D01*
X1174Y21128D01*
X1166Y21125D01*
X1157Y21119D01*
X1150Y21113D01*
X1149Y21112D01*
X1147Y21109D01*
X1144Y21104D01*
X1140Y21098D01*
X1137Y21089D01*
X1134Y21079D01*
X1132Y21068D01*
X1131Y21055D01*
X1131Y20984D01*
X1272Y20984D01*
X1272Y21055D01*
X1272Y21055D01*
X1272Y21056D01*
X1272Y21058D01*
X1272Y21061D01*
X1271Y21067D01*
X1270Y21076D01*
X1267Y21085D01*
X1264Y21095D01*
X1260Y21104D01*
X1254Y21113D01*
X1253Y21113D01*
X1250Y21116D01*
X1246Y21119D01*
X1240Y21123D01*
X1233Y21127D01*
X1224Y21130D01*
X1214Y21133D01*
X1202Y21133D01*
X1202Y21133D02*
G37*
G36*
X618Y24176D02*
X610Y24176D01*
X606Y24176D01*
X601Y24175D01*
X590Y24174D01*
X578Y24171D01*
X564Y24168D01*
X552Y24162D01*
X541Y24155D01*
X540Y24154D01*
X536Y24151D01*
X532Y24146D01*
X527Y24140D01*
X522Y24132D01*
X518Y24122D01*
X514Y24110D01*
X513Y24097D01*
X513Y24096D01*
X513Y24096D01*
X513Y24094D01*
X514Y24091D01*
X514Y24084D01*
X516Y24076D01*
X520Y24066D01*
X525Y24057D01*
X532Y24048D01*
X541Y24039D01*
X542Y24038D01*
X546Y24036D01*
X552Y24032D01*
X561Y24029D01*
X572Y24025D01*
X585Y24022D01*
X600Y24019D01*
X618Y24018D01*
X623Y24018D01*
X627Y24019D01*
X631Y24019D01*
X636Y24020D01*
X648Y24021D01*
X660Y24023D01*
X673Y24027D01*
X685Y24032D01*
X697Y24038D01*
X698Y24039D01*
X701Y24042D01*
X705Y24047D01*
X709Y24053D01*
X715Y24062D01*
X719Y24072D01*
X721Y24084D01*
X723Y24097D01*
X723Y24098D01*
X723Y24098D01*
X723Y24100D01*
X722Y24103D01*
X721Y24110D01*
X719Y24118D01*
X716Y24128D01*
X711Y24137D01*
X705Y24146D01*
X695Y24155D01*
X694Y24156D01*
X690Y24158D01*
X684Y24162D01*
X675Y24166D01*
X665Y24170D01*
X651Y24173D01*
X636Y24176D01*
X618Y24176D01*
X618Y24176D02*
G37*
G36*
X1927Y19409D02*
X1922Y19409D01*
X1916Y19408D01*
X1908Y19407D01*
X1900Y19404D01*
X1892Y19402D01*
X1884Y19397D01*
X1878Y19391D01*
X1878Y19390D01*
X1876Y19388D01*
X1874Y19384D01*
X1870Y19377D01*
X1868Y19369D01*
X1866Y19359D01*
X1864Y19347D01*
X1863Y19333D01*
X1863Y19279D01*
X1992Y19279D01*
X1992Y19333D01*
X1992Y19334D01*
X1992Y19335D01*
X1992Y19337D01*
X1992Y19340D01*
X1991Y19347D01*
X1990Y19356D01*
X1988Y19365D01*
X1986Y19374D01*
X1982Y19384D01*
X1977Y19391D01*
X1976Y19392D01*
X1974Y19394D01*
X1970Y19397D01*
X1965Y19400D01*
X1958Y19403D01*
X1950Y19406D01*
X1939Y19408D01*
X1927Y19409D01*
X1927Y19409D02*
G37*
G36*
X655Y21280D02*
X641Y21280D01*
X641Y21217D01*
X641Y21217D01*
X641Y21216D01*
X641Y21214D01*
X641Y21211D01*
X641Y21205D01*
X642Y21197D01*
X644Y21187D01*
X646Y21178D01*
X649Y21169D01*
X654Y21161D01*
X655Y21161D01*
X657Y21159D01*
X659Y21155D01*
X663Y21152D01*
X669Y21149D01*
X675Y21145D01*
X683Y21143D01*
X691Y21143D01*
X695Y21143D01*
X699Y21143D01*
X705Y21145D01*
X711Y21146D01*
X717Y21149D01*
X722Y21153D01*
X727Y21157D01*
X728Y21158D01*
X729Y21160D01*
X731Y21163D01*
X733Y21169D01*
X736Y21175D01*
X738Y21182D01*
X739Y21191D01*
X740Y21200D01*
X740Y21201D01*
X740Y21201D01*
X739Y21205D01*
X739Y21212D01*
X737Y21219D01*
X734Y21229D01*
X730Y21238D01*
X724Y21247D01*
X716Y21257D01*
X715Y21258D01*
X711Y21261D01*
X706Y21264D01*
X699Y21269D01*
X690Y21273D01*
X680Y21277D01*
X668Y21279D01*
X655Y21280D01*
X655Y21280D02*
G37*
G36*
X1288Y22962D02*
X1281Y22962D01*
X1276Y22962D01*
X1270Y22961D01*
X1262Y22960D01*
X1255Y22959D01*
X1246Y22957D01*
X1228Y22952D01*
X1218Y22949D01*
X1209Y22944D01*
X1200Y22940D01*
X1191Y22934D01*
X1182Y22928D01*
X1175Y22920D01*
X1174Y22920D01*
X1173Y22918D01*
X1172Y22916D01*
X1169Y22912D01*
X1166Y22908D01*
X1162Y22903D01*
X1159Y22897D01*
X1155Y22890D01*
X1152Y22882D01*
X1148Y22873D01*
X1145Y22863D01*
X1142Y22852D01*
X1139Y22840D01*
X1138Y22828D01*
X1136Y22814D01*
X1136Y22800D01*
X1136Y22754D01*
X1441Y22754D01*
X1441Y22800D01*
X1441Y22800D01*
X1441Y22803D01*
X1441Y22807D01*
X1440Y22812D01*
X1439Y22819D01*
X1439Y22827D01*
X1437Y22835D01*
X1436Y22844D01*
X1431Y22864D01*
X1428Y22874D01*
X1424Y22884D01*
X1420Y22894D01*
X1415Y22903D01*
X1409Y22912D01*
X1402Y22920D01*
X1401Y22921D01*
X1400Y22922D01*
X1398Y22924D01*
X1395Y22927D01*
X1391Y22930D01*
X1385Y22934D01*
X1380Y22938D01*
X1373Y22942D01*
X1366Y22945D01*
X1357Y22949D01*
X1348Y22952D01*
X1338Y22956D01*
X1326Y22958D01*
X1314Y22960D01*
X1302Y22962D01*
X1288Y22962D01*
X1288Y22962D02*
G37*
G36*
X560Y22585D02*
X552Y22585D01*
X548Y22584D01*
X541Y22583D01*
X534Y22583D01*
X526Y22581D01*
X518Y22579D01*
X499Y22575D01*
X490Y22571D01*
X480Y22567D01*
X471Y22562D01*
X462Y22557D01*
X454Y22550D01*
X446Y22543D01*
X446Y22542D01*
X444Y22541D01*
X443Y22539D01*
X440Y22535D01*
X437Y22531D01*
X434Y22525D01*
X430Y22519D01*
X426Y22512D01*
X423Y22504D01*
X420Y22495D01*
X416Y22485D01*
X413Y22475D01*
X410Y22463D01*
X409Y22450D01*
X408Y22437D01*
X407Y22422D01*
X407Y22376D01*
X712Y22376D01*
X712Y22422D01*
X712Y22423D01*
X712Y22425D01*
X712Y22429D01*
X711Y22435D01*
X711Y22441D01*
X710Y22449D01*
X709Y22457D01*
X707Y22467D01*
X703Y22486D01*
X699Y22496D01*
X695Y22506D01*
X691Y22516D01*
X686Y22525D01*
X680Y22535D01*
X673Y22543D01*
X673Y22543D01*
X671Y22545D01*
X669Y22547D01*
X666Y22549D01*
X662Y22553D01*
X657Y22556D01*
X651Y22560D01*
X644Y22564D01*
X637Y22567D01*
X628Y22571D01*
X619Y22575D01*
X609Y22578D01*
X598Y22581D01*
X586Y22583D01*
X573Y22584D01*
X560Y22585D01*
X560Y22585D02*
G37*
%LPD*%
D10*
X4040Y19010D02*
X3940Y19010D01*
X3990Y19010D01*
X3990Y18760D01*
X3940Y18710D01*
X3890Y18710D01*
X3840Y18760D01*
X4340Y18710D02*
X4140Y18710D01*
X4340Y18910D01*
X4340Y18960D01*
X4290Y19010D01*
X4190Y19010D01*
X4140Y18960D01*
X4070Y9170D02*
X3970Y9170D01*
X4020Y9170D01*
X4020Y8920D01*
X3970Y8870D01*
X3920Y8870D01*
X3870Y8920D01*
X4170Y8870D02*
X4270Y8870D01*
X4220Y8870D01*
X4220Y9170D01*
X4170Y9120D01*
D12*
X0Y1000D02*
G03*
X1000Y0I1000J0D01*
G01*
X1000Y27000D02*
G03*
X0Y26000I0J-1000D01*
G01*
X45000Y0D02*
G03*
X46000Y1000I0J1000D01*
G01*
X46001Y26000D02*
G03*
X45001Y27000I-1000J0D01*
G01*
X1000Y0D02*
X45000Y0D01*
X0Y1000D02*
X0Y26000D01*
X46000Y1000D02*
X46000Y26000D01*
X1000Y27000D02*
X45001Y27000D01*
D42*
X837Y12029D02*
X837Y18319D01*
X837Y12029D02*
X3209Y12029D01*
X3209Y18319D01*
X3071Y12600D02*
X3171Y12600D01*
X837Y18319D02*
X3209Y18319D01*
X837Y3029D02*
X837Y9319D01*
X837Y3029D02*
X3209Y3029D01*
X3209Y9319D01*
X3071Y3600D02*
X3171Y3600D01*
X837Y9319D02*
X3209Y9319D01*
X3543Y0D02*
X3543Y26772D01*
M02*
