%FSLAX24Y24*%
%MOIN*%
G70*
G01*
G75*
G04 Layer_Color=16711935*
%ADD10C,0.0060*%
%ADD11C,0.0150*%
%ADD12C,0.0394*%
%ADD13C,0.0591*%
%ADD14C,0.0600*%
%ADD15C,0.0240*%
%ADD16C,0.0400*%
%ADD17C,0.0640*%
G04:AMPARAMS|DCode=18|XSize=80mil|YSize=80mil|CornerRadius=0mil|HoleSize=0mil|Usage=FLASHONLY|Rotation=0.000|XOffset=0mil|YOffset=0mil|HoleType=Round|Shape=Relief|Width=8mil|Gap=10mil|Entries=4|*
%AMTHD18*
7,0,0,0.0800,0.0600,0.0080,45*
%
%ADD18THD18*%
%ADD19C,0.1490*%
%ADD20C,0.0340*%
G04:AMPARAMS|DCode=21|XSize=50mil|YSize=50mil|CornerRadius=0mil|HoleSize=0mil|Usage=FLASHONLY|Rotation=0.000|XOffset=0mil|YOffset=0mil|HoleType=Round|Shape=Relief|Width=8mil|Gap=10mil|Entries=4|*
%AMTHD21*
7,0,0,0.0500,0.0300,0.0080,45*
%
%ADD21THD21*%
%ADD22R,0.0551X0.0709*%
G04:AMPARAMS|DCode=23|XSize=25.6mil|YSize=23.6mil|CornerRadius=5.9mil|HoleSize=0mil|Usage=FLASHONLY|Rotation=180.000|XOffset=0mil|YOffset=0mil|HoleType=Round|Shape=RoundedRectangle|*
%AMROUNDEDRECTD23*
21,1,0.0256,0.0118,0,0,180.0*
21,1,0.0138,0.0236,0,0,180.0*
1,1,0.0118,-0.0069,0.0059*
1,1,0.0118,0.0069,0.0059*
1,1,0.0118,0.0069,-0.0059*
1,1,0.0118,-0.0069,-0.0059*
%
%ADD23ROUNDEDRECTD23*%
%ADD24R,0.0984X0.0354*%
%ADD25R,0.0098X0.0315*%
%ADD26R,0.0236X0.0748*%
%ADD27R,0.0827X0.1102*%
%ADD28R,0.0433X0.0256*%
%ADD29R,0.0433X0.0097*%
%ADD30R,0.0433X0.0097*%
%ADD31R,0.0097X0.0433*%
%ADD32R,0.0433X0.1260*%
%ADD33R,0.0138X0.0709*%
%ADD34R,0.0126X0.0709*%
%ADD35R,0.0394X0.0433*%
%ADD36R,0.0256X0.0295*%
%ADD37R,0.0669X0.0984*%
%ADD38R,0.0591X0.0512*%
%ADD39R,0.0236X0.0197*%
G04:AMPARAMS|DCode=40|XSize=25.6mil|YSize=23.6mil|CornerRadius=5.9mil|HoleSize=0mil|Usage=FLASHONLY|Rotation=270.000|XOffset=0mil|YOffset=0mil|HoleType=Round|Shape=RoundedRectangle|*
%AMROUNDEDRECTD40*
21,1,0.0256,0.0118,0,0,270.0*
21,1,0.0138,0.0236,0,0,270.0*
1,1,0.0118,-0.0059,-0.0069*
1,1,0.0118,-0.0059,0.0069*
1,1,0.0118,0.0059,0.0069*
1,1,0.0118,0.0059,-0.0069*
%
%ADD40ROUNDEDRECTD40*%
%ADD41R,0.0197X0.0236*%
%ADD42C,0.0100*%
%ADD43C,0.0120*%
%ADD44C,0.0200*%
%ADD45C,0.0140*%
%ADD46C,0.0651*%
%ADD47C,0.0030*%
%ADD48C,0.0660*%
%ADD49R,0.0611X0.0769*%
G04:AMPARAMS|DCode=50|XSize=31.6mil|YSize=29.6mil|CornerRadius=8.9mil|HoleSize=0mil|Usage=FLASHONLY|Rotation=180.000|XOffset=0mil|YOffset=0mil|HoleType=Round|Shape=RoundedRectangle|*
%AMROUNDEDRECTD50*
21,1,0.0316,0.0118,0,0,180.0*
21,1,0.0138,0.0296,0,0,180.0*
1,1,0.0178,-0.0069,0.0059*
1,1,0.0178,0.0069,0.0059*
1,1,0.0178,0.0069,-0.0059*
1,1,0.0178,-0.0069,-0.0059*
%
%ADD50ROUNDEDRECTD50*%
%ADD51R,0.1039X0.0409*%
%ADD52R,0.0154X0.0370*%
%ADD53R,0.0296X0.0808*%
%ADD54R,0.0887X0.1162*%
%ADD55R,0.0493X0.0316*%
%ADD56R,0.0473X0.0137*%
%ADD57R,0.0473X0.0137*%
%ADD58R,0.0137X0.0473*%
%ADD59R,0.0493X0.1320*%
%ADD60R,0.0185X0.0756*%
%ADD61R,0.0173X0.0756*%
%ADD62R,0.0454X0.0493*%
%ADD63R,0.0316X0.0355*%
%ADD64R,0.0729X0.1044*%
%ADD65R,0.0651X0.0572*%
%ADD66R,0.0296X0.0257*%
G04:AMPARAMS|DCode=67|XSize=31.6mil|YSize=29.6mil|CornerRadius=8.9mil|HoleSize=0mil|Usage=FLASHONLY|Rotation=270.000|XOffset=0mil|YOffset=0mil|HoleType=Round|Shape=RoundedRectangle|*
%AMROUNDEDRECTD67*
21,1,0.0316,0.0118,0,0,270.0*
21,1,0.0138,0.0296,0,0,270.0*
1,1,0.0178,-0.0059,-0.0069*
1,1,0.0178,-0.0059,0.0069*
1,1,0.0178,0.0059,0.0069*
1,1,0.0178,0.0059,-0.0069*
%
%ADD67ROUNDEDRECTD67*%
%ADD68R,0.0257X0.0296*%
%ADD69C,0.0300*%
D12*
X0Y1000D02*
G03*
X1000Y0I1000J0D01*
G01*
X1000Y27000D02*
G03*
X0Y26000I0J-1000D01*
G01*
X45000Y0D02*
G03*
X46000Y1000I0J1000D01*
G01*
X46001Y26000D02*
G03*
X45001Y27000I-1000J0D01*
G01*
X1000Y0D02*
X45000Y0D01*
X0Y1000D02*
X0Y26000D01*
X46000Y1000D02*
X46000Y26000D01*
X1000Y27000D02*
X45001Y27000D01*
D46*
X1500Y17600D02*
D03*
X1500Y16600D02*
D03*
X1500Y15600D02*
D03*
X1500Y12600D02*
D03*
X1500Y13600D02*
D03*
X1500Y14600D02*
D03*
X2500Y14600D02*
D03*
X2500Y13600D02*
D03*
X2500Y12600D02*
D03*
X2500Y15600D02*
D03*
X2500Y16600D02*
D03*
X2500Y17600D02*
D03*
X1500Y8600D02*
D03*
X1500Y7600D02*
D03*
X1500Y6600D02*
D03*
X1500Y3600D02*
D03*
X1500Y4600D02*
D03*
X1500Y5600D02*
D03*
X2500Y5600D02*
D03*
X2500Y4600D02*
D03*
X2500Y3600D02*
D03*
X2500Y6600D02*
D03*
X2500Y7600D02*
D03*
X2500Y8600D02*
D03*
D47*
X45000Y1000D02*
D03*
X920Y960D02*
D03*
X45000Y26000D02*
D03*
X1000Y26010D02*
D03*
D48*
X13000Y26000D02*
D03*
X14000Y26000D02*
D03*
X15000Y26000D02*
D03*
X16000Y26000D02*
D03*
X17000Y26000D02*
D03*
X18000Y26000D02*
D03*
X23000Y26000D02*
D03*
X24000Y26000D02*
D03*
X25000Y26000D02*
D03*
X26000Y26000D02*
D03*
X27000Y26000D02*
D03*
X28000Y26000D02*
D03*
D49*
X29385Y10142D02*
D03*
X30330Y10142D02*
D03*
X30330Y11717D02*
D03*
X29385Y11717D02*
D03*
D50*
X25000Y23200D02*
D03*
X25000Y22806D02*
D03*
X35606Y14331D02*
D03*
X35606Y13937D02*
D03*
X38141Y5732D02*
D03*
X38141Y6126D02*
D03*
X36530Y5706D02*
D03*
X36530Y6100D02*
D03*
X33401Y14331D02*
D03*
X33401Y13937D02*
D03*
X39243Y13632D02*
D03*
X39243Y13239D02*
D03*
X30130Y7387D02*
D03*
X30130Y6994D02*
D03*
X30130Y6600D02*
D03*
X30130Y6206D02*
D03*
X7920Y18210D02*
D03*
X7920Y17816D02*
D03*
X8865Y18210D02*
D03*
X8865Y17816D02*
D03*
X27990Y22806D02*
D03*
X27990Y23200D02*
D03*
X27000Y22806D02*
D03*
X27000Y23200D02*
D03*
X26000Y22806D02*
D03*
X26000Y23200D02*
D03*
D51*
X41857Y5906D02*
D03*
D52*
X42153Y6339D02*
D03*
X41956Y6339D02*
D03*
X41759Y6339D02*
D03*
X41562Y6339D02*
D03*
X41562Y5472D02*
D03*
X41759Y5472D02*
D03*
X41956Y5472D02*
D03*
X42153Y5472D02*
D03*
D53*
X22832Y15727D02*
D03*
X23226Y15727D02*
D03*
X23620Y15727D02*
D03*
X24013Y15727D02*
D03*
X24407Y15727D02*
D03*
X24801Y15727D02*
D03*
D54*
X21592Y14802D02*
D03*
X26041Y14802D02*
D03*
D55*
X8865Y21009D02*
D03*
X8865Y20635D02*
D03*
X8865Y20261D02*
D03*
X7920Y20261D02*
D03*
X7920Y21009D02*
D03*
D56*
X32688Y7559D02*
D03*
D57*
X32688Y7717D02*
D03*
X32688Y7874D02*
D03*
X32688Y8031D02*
D03*
X32688Y8189D02*
D03*
X32688Y8346D02*
D03*
X32688Y8504D02*
D03*
X32688Y8661D02*
D03*
X32688Y8819D02*
D03*
X32688Y8976D02*
D03*
X32688Y9134D02*
D03*
X32688Y9291D02*
D03*
X32688Y9449D02*
D03*
X32688Y9606D02*
D03*
X32688Y9764D02*
D03*
X32688Y9921D02*
D03*
X32688Y10079D02*
D03*
X32688Y10236D02*
D03*
X32688Y10394D02*
D03*
X32688Y10551D02*
D03*
X32688Y10709D02*
D03*
X32688Y10866D02*
D03*
X32688Y11024D02*
D03*
X32688Y11181D02*
D03*
X32688Y11339D02*
D03*
X32688Y11496D02*
D03*
X32688Y11654D02*
D03*
X32688Y11811D02*
D03*
X32688Y11968D02*
D03*
X32688Y12126D02*
D03*
X32688Y12283D02*
D03*
X32688Y12441D02*
D03*
X38712Y12441D02*
D03*
X38712Y12283D02*
D03*
X38712Y12126D02*
D03*
X38712Y11968D02*
D03*
X38712Y11811D02*
D03*
X38712Y11654D02*
D03*
X38712Y11496D02*
D03*
X38712Y11339D02*
D03*
X38712Y11181D02*
D03*
X38712Y11024D02*
D03*
X38712Y10866D02*
D03*
X38712Y10709D02*
D03*
X38712Y10551D02*
D03*
X38712Y10394D02*
D03*
X38712Y10236D02*
D03*
X38712Y10079D02*
D03*
X38712Y9921D02*
D03*
X38712Y9764D02*
D03*
X38712Y9606D02*
D03*
X38712Y9449D02*
D03*
X38712Y9291D02*
D03*
X38712Y9134D02*
D03*
X38712Y8976D02*
D03*
X38712Y8819D02*
D03*
X38712Y8661D02*
D03*
X38712Y8504D02*
D03*
X38712Y8346D02*
D03*
X38712Y8189D02*
D03*
X38712Y8031D02*
D03*
X38712Y7874D02*
D03*
X38712Y7717D02*
D03*
X38712Y7559D02*
D03*
D58*
X33259Y13012D02*
D03*
X33417Y13012D02*
D03*
X33574Y13012D02*
D03*
X33732Y13012D02*
D03*
X33889Y13012D02*
D03*
X34046Y13012D02*
D03*
X34204Y13012D02*
D03*
X34361Y13012D02*
D03*
X34519Y13012D02*
D03*
X34676Y13012D02*
D03*
X34834Y13012D02*
D03*
X34991Y13012D02*
D03*
X35149Y13012D02*
D03*
X35306Y13012D02*
D03*
X35464Y13012D02*
D03*
X35621Y13012D02*
D03*
X35779Y13012D02*
D03*
X35936Y13012D02*
D03*
X36094Y13012D02*
D03*
X36251Y13012D02*
D03*
X36409Y13012D02*
D03*
X36566Y13012D02*
D03*
X36724Y13012D02*
D03*
X36881Y13012D02*
D03*
X37039Y13012D02*
D03*
X37196Y13012D02*
D03*
X37354Y13012D02*
D03*
X37511Y13012D02*
D03*
X37668Y13012D02*
D03*
X37826Y13012D02*
D03*
X37983Y13012D02*
D03*
X38141Y13012D02*
D03*
X38141Y6988D02*
D03*
X37983Y6988D02*
D03*
X37826Y6988D02*
D03*
X37668Y6988D02*
D03*
X37511Y6988D02*
D03*
X37354Y6988D02*
D03*
X37196Y6988D02*
D03*
X37039Y6988D02*
D03*
X36881Y6988D02*
D03*
X36724Y6988D02*
D03*
X36566Y6988D02*
D03*
X36409Y6988D02*
D03*
X36251Y6988D02*
D03*
X36094Y6988D02*
D03*
X35936Y6988D02*
D03*
X35779Y6988D02*
D03*
X35621Y6988D02*
D03*
X35464Y6988D02*
D03*
X35306Y6988D02*
D03*
X35149Y6988D02*
D03*
X34991Y6988D02*
D03*
X34834Y6988D02*
D03*
X34676Y6988D02*
D03*
X34519Y6988D02*
D03*
X34361Y6988D02*
D03*
X34204Y6988D02*
D03*
X34046Y6988D02*
D03*
X33889Y6988D02*
D03*
X33732Y6988D02*
D03*
X33574Y6988D02*
D03*
X33417Y6988D02*
D03*
X33259Y6988D02*
D03*
D59*
X8865Y22525D02*
D03*
X7920Y22525D02*
D03*
X41273Y7480D02*
D03*
X42218Y7480D02*
D03*
D60*
X18602Y16535D02*
D03*
X18406Y16535D02*
D03*
X18209Y16535D02*
D03*
X18012Y16535D02*
D03*
X17815Y16535D02*
D03*
X17618Y16535D02*
D03*
X17421Y16535D02*
D03*
X17224Y16535D02*
D03*
X17028Y16535D02*
D03*
X16831Y16535D02*
D03*
X16634Y16535D02*
D03*
X16437Y16535D02*
D03*
X16240Y16535D02*
D03*
X16043Y16535D02*
D03*
X15846Y16535D02*
D03*
X15650Y16535D02*
D03*
X15453Y16535D02*
D03*
X15256Y16535D02*
D03*
X15059Y16535D02*
D03*
X14862Y16535D02*
D03*
X14665Y16535D02*
D03*
X14468Y16535D02*
D03*
X14272Y16535D02*
D03*
X14075Y16535D02*
D03*
X13878Y16535D02*
D03*
X13681Y16535D02*
D03*
X13484Y16535D02*
D03*
X13287Y16535D02*
D03*
X13091Y16535D02*
D03*
X12894Y16535D02*
D03*
X12697Y16535D02*
D03*
X12500Y16535D02*
D03*
X12303Y16535D02*
D03*
X12106Y16535D02*
D03*
X10925Y16535D02*
D03*
D61*
X11909Y16535D02*
D03*
X11713Y16535D02*
D03*
X11516Y16535D02*
D03*
X11319Y16535D02*
D03*
X11122Y16535D02*
D03*
D62*
X13000Y24081D02*
D03*
X13000Y24750D02*
D03*
X23000Y24081D02*
D03*
X23000Y24750D02*
D03*
D63*
X41956Y4410D02*
D03*
X41956Y4843D02*
D03*
X41185Y5102D02*
D03*
X41185Y4669D02*
D03*
D64*
X10629Y20165D02*
D03*
X10629Y18590D02*
D03*
D65*
X6346Y20419D02*
D03*
X6346Y21167D02*
D03*
X3819Y13398D02*
D03*
X3819Y12650D02*
D03*
X4764Y13398D02*
D03*
X4764Y12650D02*
D03*
X3819Y4390D02*
D03*
X3819Y3642D02*
D03*
X4764Y4390D02*
D03*
X4764Y3642D02*
D03*
X43355Y5752D02*
D03*
X43355Y6500D02*
D03*
X40605Y5711D02*
D03*
X40605Y6459D02*
D03*
D66*
X9558Y18590D02*
D03*
X9558Y18984D02*
D03*
X32613Y12961D02*
D03*
X32613Y13354D02*
D03*
X34361Y13937D02*
D03*
X34361Y14331D02*
D03*
X36881Y13898D02*
D03*
X36881Y14291D02*
D03*
X33354Y6220D02*
D03*
X33354Y5827D02*
D03*
X34787Y6063D02*
D03*
X34787Y5669D02*
D03*
X36078Y6220D02*
D03*
X36078Y5827D02*
D03*
X37354Y6220D02*
D03*
X37354Y5827D02*
D03*
X38283Y13937D02*
D03*
X38283Y14331D02*
D03*
X42725Y6336D02*
D03*
X42725Y5942D02*
D03*
X7133Y21021D02*
D03*
X7133Y20627D02*
D03*
D67*
X31256Y11654D02*
D03*
X31650Y11654D02*
D03*
X11201Y17679D02*
D03*
X11594Y17679D02*
D03*
X31106Y7953D02*
D03*
X31500Y7953D02*
D03*
X30956Y9300D02*
D03*
X31350Y9300D02*
D03*
X40144Y10945D02*
D03*
X39750Y10945D02*
D03*
D68*
X29661Y9197D02*
D03*
X30054Y9197D02*
D03*
X30047Y12550D02*
D03*
X29653Y12550D02*
D03*
X39637Y11417D02*
D03*
X40031Y11417D02*
D03*
X32708Y7165D02*
D03*
X32314Y7165D02*
D03*
X39850Y9620D02*
D03*
X40244Y9620D02*
D03*
X39354Y8315D02*
D03*
X39747Y8315D02*
D03*
X31794Y10236D02*
D03*
X31401Y10236D02*
D03*
D69*
X42046Y5909D02*
D03*
X41684Y5906D02*
D03*
X31918Y7612D02*
D03*
X18814Y17200D02*
D03*
X23000Y23400D02*
D03*
X13000Y23400D02*
D03*
X27990Y22425D02*
D03*
X27000Y22425D02*
D03*
X26000Y22425D02*
D03*
X25000Y22425D02*
D03*
X18514Y17450D02*
D03*
X18100Y17450D02*
D03*
X17800Y17200D02*
D03*
X22832Y14780D02*
D03*
X23226Y14780D02*
D03*
X23620Y14780D02*
D03*
X24013Y14780D02*
D03*
X24801Y14780D02*
D03*
X24407Y14780D02*
D03*
X21592Y15749D02*
D03*
X26041Y15749D02*
D03*
X37668Y6402D02*
D03*
X37653Y7543D02*
D03*
X38062Y10787D02*
D03*
X39196Y7606D02*
D03*
X39610Y7387D02*
D03*
X39540Y7953D02*
D03*
X39400Y9450D02*
D03*
X38062Y9370D02*
D03*
X38712Y12752D02*
D03*
X36487Y12362D02*
D03*
X33275Y7795D02*
D03*
X33275Y9370D02*
D03*
X33275Y10000D02*
D03*
X31007Y10236D02*
D03*
X33275Y10472D02*
D03*
X32102Y10551D02*
D03*
X36566Y13622D02*
D03*
X33275Y11024D02*
D03*
X33338Y11732D02*
D03*
X34598Y13528D02*
D03*
X34755Y12362D02*
D03*
X35700Y12362D02*
D03*
X37117Y13528D02*
D03*
X37275Y12362D02*
D03*
X33417Y13622D02*
D03*
X33401Y14724D02*
D03*
X30563Y9300D02*
D03*
X30713Y7953D02*
D03*
X31920Y7165D02*
D03*
X33354Y5433D02*
D03*
X34787Y5276D02*
D03*
X36078Y5433D02*
D03*
X36530Y5313D02*
D03*
X37354Y5433D02*
D03*
X38141Y5339D02*
D03*
X40141Y8315D02*
D03*
X40637Y9620D02*
D03*
X40537Y10945D02*
D03*
X40424Y11417D02*
D03*
X39243Y14026D02*
D03*
X38283Y14724D02*
D03*
X36881Y14685D02*
D03*
X35606Y14724D02*
D03*
X34361Y14724D02*
D03*
X35621Y13622D02*
D03*
X41145Y5906D02*
D03*
X41185Y5406D02*
D03*
X41165Y6656D02*
D03*
X42275Y5126D02*
D03*
X42755Y5576D02*
D03*
X43955Y6346D02*
D03*
X43955Y6746D02*
D03*
X33810Y6472D02*
D03*
X34913Y6472D02*
D03*
X11201Y17191D02*
D03*
X5558Y21612D02*
D03*
X5558Y21139D02*
D03*
X5558Y20037D02*
D03*
X5558Y20509D02*
D03*
X8865Y17360D02*
D03*
X7920Y17360D02*
D03*
X31133Y9780D02*
D03*
X29385Y11055D02*
D03*
X36172Y15039D02*
D03*
X31800Y3650D02*
D03*
X30130Y5734D02*
D03*
X30130Y7781D02*
D03*
X36487Y14724D02*
D03*
X7291Y17990D02*
D03*
X18104Y15662D02*
D03*
X16437Y15649D02*
D03*
X36393Y7543D02*
D03*
X32550Y6200D02*
D03*
X31800Y4800D02*
D03*
X31800Y4250D02*
D03*
X31800Y3050D02*
D03*
X9558Y19580D02*
D03*
X9407Y20440D02*
D03*
X36800Y15350D02*
D03*
X32550Y14600D02*
D03*
X42800Y13700D02*
D03*
X27850Y12950D02*
D03*
X40150Y14598D02*
D03*
X38700Y16490D02*
D03*
X39850Y15400D02*
D03*
X39600Y16050D02*
D03*
X38700Y17200D02*
D03*
X38350Y17450D02*
D03*
X37950Y17700D02*
D03*
X37511Y18000D02*
D03*
X28400Y13300D02*
D03*
X28900Y13800D02*
D03*
X29350Y14250D02*
D03*
X21750Y17400D02*
D03*
X17421Y15251D02*
D03*
X42500Y14150D02*
D03*
X16450Y14950D02*
D03*
X16150Y14650D02*
D03*
X15850Y14350D02*
D03*
X14950Y13450D02*
D03*
X15250Y13750D02*
D03*
X15550Y14050D02*
D03*
X13750Y12250D02*
D03*
X14050Y12550D02*
D03*
X14350Y12850D02*
D03*
X14650Y13150D02*
D03*
X11370Y15750D02*
D03*
X10450Y12250D02*
D03*
X11000Y12250D02*
D03*
X11550Y12250D02*
D03*
X12100Y12250D02*
D03*
X12650Y12250D02*
D03*
X13200Y12250D02*
D03*
X33275Y8189D02*
D03*
X34976Y7543D02*
D03*
X33873Y7543D02*
D03*
X38141Y6510D02*
D03*
X31840Y8031D02*
D03*
X31770Y9291D02*
D03*
X31760Y9710D02*
D03*
X32102Y9921D02*
D03*
X39322Y10945D02*
D03*
X36529Y6462D02*
D03*
X39243Y12803D02*
D03*
X32613Y13748D02*
D03*
X33000Y13610D02*
D03*
X31999Y11650D02*
D03*
X30910Y11654D02*
D03*
M02*
