%FSLAX25Y25*%
%MOIN*%
G70*
G01*
G75*
%ADD10O,0.06102X0.02165*%
%ADD11R,0.04921X0.01378*%
%ADD12O,0.07087X0.01181*%
%ADD13O,0.01181X0.07087*%
%ADD14R,0.02362X0.03937*%
%ADD15R,0.01772X0.03937*%
%ADD16R,0.07480X0.02835*%
%ADD17R,0.04921X0.07284*%
%ADD18R,0.09843X0.03543*%
%ADD19R,0.00984X0.03150*%
%ADD20R,0.07087X0.11811*%
%ADD21R,0.05118X0.09055*%
%ADD22R,0.07087X0.07480*%
%ADD23R,0.05512X0.06299*%
%ADD24R,0.05315X0.01575*%
%ADD25R,0.07874X0.04724*%
%ADD26R,0.04331X0.12598*%
%ADD27R,0.02953X0.02559*%
%ADD28R,0.02756X0.01969*%
%ADD29R,0.01969X0.02756*%
%ADD30R,0.05906X0.05118*%
%ADD31R,0.02362X0.01969*%
%ADD32R,0.02559X0.02953*%
%ADD33R,0.01969X0.02362*%
%ADD34C,0.00600*%
%ADD35C,0.01000*%
%ADD36C,0.01500*%
%ADD37C,0.02000*%
%ADD38C,0.03000*%
%ADD39C,0.00400*%
%ADD40C,0.00200*%
%ADD41C,0.01400*%
%ADD42C,0.05906*%
%ADD43C,0.03937*%
%ADD44C,0.06000*%
%ADD45C,0.02400*%
%ADD46C,0.04000*%
%ADD47C,0.06416*%
G04:AMPARAMS|DCode=48|XSize=80.157mil|YSize=80.157mil|CornerRadius=0mil|HoleSize=0mil|Usage=FLASHONLY|Rotation=0.000|XOffset=0mil|YOffset=0mil|HoleType=Round|Shape=Relief|Width=8mil|Gap=10mil|Entries=4|*
%AMTHD48*
7,0,0,0.08016,0.06016,0.00800,45*
%
%ADD48THD48*%
%ADD49C,0.08699*%
%ADD50C,0.09487*%
%ADD51C,0.14900*%
%ADD52C,0.06400*%
G04:AMPARAMS|DCode=53|XSize=80mil|YSize=80mil|CornerRadius=0mil|HoleSize=0mil|Usage=FLASHONLY|Rotation=0.000|XOffset=0mil|YOffset=0mil|HoleType=Round|Shape=Relief|Width=8mil|Gap=10mil|Entries=4|*
%AMTHD53*
7,0,0,0.08000,0.06000,0.00800,45*
%
%ADD53THD53*%
G04:AMPARAMS|DCode=54|XSize=50mil|YSize=50mil|CornerRadius=0mil|HoleSize=0mil|Usage=FLASHONLY|Rotation=0.000|XOffset=0mil|YOffset=0mil|HoleType=Round|Shape=Relief|Width=8mil|Gap=10mil|Entries=4|*
%AMTHD54*
7,0,0,0.05000,0.03000,0.00800,45*
%
%ADD54THD54*%
%ADD55C,0.03400*%
D10*
X295957Y141818D02*
D03*
Y138669D02*
D03*
Y135519D02*
D03*
Y132369D02*
D03*
Y129220D02*
D03*
Y126070D02*
D03*
Y122921D02*
D03*
Y119771D02*
D03*
Y116621D02*
D03*
Y113472D02*
D03*
Y110322D02*
D03*
Y107172D02*
D03*
Y104023D02*
D03*
Y100873D02*
D03*
Y97724D02*
D03*
Y94574D02*
D03*
Y91424D02*
D03*
Y88275D02*
D03*
Y85125D02*
D03*
Y81976D02*
D03*
Y78826D02*
D03*
Y75676D02*
D03*
Y72527D02*
D03*
Y69377D02*
D03*
Y66228D02*
D03*
Y63078D02*
D03*
Y59928D02*
D03*
X340052Y141818D02*
D03*
Y138669D02*
D03*
Y135519D02*
D03*
Y132369D02*
D03*
Y129220D02*
D03*
Y126070D02*
D03*
Y122921D02*
D03*
Y119771D02*
D03*
Y116621D02*
D03*
Y113472D02*
D03*
Y110322D02*
D03*
Y107172D02*
D03*
Y104023D02*
D03*
Y100873D02*
D03*
Y97724D02*
D03*
Y94574D02*
D03*
Y91424D02*
D03*
Y88275D02*
D03*
Y85125D02*
D03*
Y81976D02*
D03*
Y78826D02*
D03*
Y75676D02*
D03*
Y72527D02*
D03*
Y69377D02*
D03*
Y66228D02*
D03*
Y63078D02*
D03*
Y59928D02*
D03*
D11*
X15078Y159639D02*
D03*
Y157080D02*
D03*
Y154520D02*
D03*
Y151961D02*
D03*
X37322Y159639D02*
D03*
Y157080D02*
D03*
Y154520D02*
D03*
Y151961D02*
D03*
D12*
X157765Y57151D02*
D03*
Y59120D02*
D03*
Y61088D02*
D03*
Y63057D02*
D03*
Y65025D02*
D03*
Y66994D02*
D03*
Y68962D02*
D03*
Y70931D02*
D03*
Y72899D02*
D03*
Y74868D02*
D03*
Y76836D02*
D03*
Y78805D02*
D03*
Y80773D02*
D03*
Y82742D02*
D03*
Y84710D02*
D03*
Y86679D02*
D03*
Y88647D02*
D03*
Y90616D02*
D03*
Y92584D02*
D03*
Y94553D02*
D03*
Y96521D02*
D03*
Y98490D02*
D03*
Y100458D02*
D03*
Y102427D02*
D03*
Y104395D02*
D03*
Y106364D02*
D03*
Y108332D02*
D03*
Y110301D02*
D03*
Y112269D02*
D03*
Y114238D02*
D03*
Y116206D02*
D03*
Y118175D02*
D03*
Y120143D02*
D03*
Y122112D02*
D03*
Y124080D02*
D03*
Y126049D02*
D03*
X240835D02*
D03*
Y124080D02*
D03*
Y122112D02*
D03*
Y120143D02*
D03*
Y118175D02*
D03*
Y116206D02*
D03*
Y114238D02*
D03*
Y112269D02*
D03*
Y110301D02*
D03*
Y108332D02*
D03*
Y106364D02*
D03*
Y104395D02*
D03*
Y102427D02*
D03*
Y100458D02*
D03*
Y98490D02*
D03*
Y96521D02*
D03*
Y94553D02*
D03*
Y92584D02*
D03*
Y90616D02*
D03*
Y88647D02*
D03*
Y86679D02*
D03*
Y84710D02*
D03*
Y82742D02*
D03*
Y80773D02*
D03*
Y78805D02*
D03*
Y76836D02*
D03*
Y74868D02*
D03*
Y72899D02*
D03*
Y70931D02*
D03*
Y68962D02*
D03*
Y66994D02*
D03*
Y65025D02*
D03*
Y63057D02*
D03*
Y61088D02*
D03*
Y59120D02*
D03*
Y57151D02*
D03*
X99350Y113164D02*
D03*
Y111195D02*
D03*
Y109227D02*
D03*
Y107258D02*
D03*
Y105290D02*
D03*
Y103321D02*
D03*
Y101353D02*
D03*
Y99384D02*
D03*
Y97416D02*
D03*
Y95447D02*
D03*
Y93479D02*
D03*
Y91510D02*
D03*
Y89542D02*
D03*
Y87573D02*
D03*
Y85605D02*
D03*
Y83636D02*
D03*
X55650D02*
D03*
Y85605D02*
D03*
Y87573D02*
D03*
Y89542D02*
D03*
Y91510D02*
D03*
Y93479D02*
D03*
Y95447D02*
D03*
Y97416D02*
D03*
Y99384D02*
D03*
Y101353D02*
D03*
Y103321D02*
D03*
Y105290D02*
D03*
Y107258D02*
D03*
Y109227D02*
D03*
Y111195D02*
D03*
Y113164D02*
D03*
D13*
X164851Y133135D02*
D03*
X166820D02*
D03*
X168788D02*
D03*
X170757D02*
D03*
X172725D02*
D03*
X174694D02*
D03*
X176662D02*
D03*
X178631D02*
D03*
X180599D02*
D03*
X182568D02*
D03*
X184536D02*
D03*
X186505D02*
D03*
X188473D02*
D03*
X190442D02*
D03*
X192410D02*
D03*
X194379D02*
D03*
X196347D02*
D03*
X198316D02*
D03*
X200284D02*
D03*
X202253D02*
D03*
X204221D02*
D03*
X206190D02*
D03*
X208158D02*
D03*
X210127D02*
D03*
X212095D02*
D03*
X214064D02*
D03*
X216032D02*
D03*
X218001D02*
D03*
X219969D02*
D03*
X221938D02*
D03*
X223906D02*
D03*
X225875D02*
D03*
X227843D02*
D03*
X229812D02*
D03*
X231780D02*
D03*
X233749D02*
D03*
Y50065D02*
D03*
X231780D02*
D03*
X229812D02*
D03*
X227843D02*
D03*
X225875D02*
D03*
X223906D02*
D03*
X221938D02*
D03*
X219969D02*
D03*
X218001D02*
D03*
X216032D02*
D03*
X214064D02*
D03*
X212095D02*
D03*
X210127D02*
D03*
X208158D02*
D03*
X206190D02*
D03*
X204221D02*
D03*
X202253D02*
D03*
X200284D02*
D03*
X198316D02*
D03*
X196347D02*
D03*
X194379D02*
D03*
X192410D02*
D03*
X190442D02*
D03*
X188473D02*
D03*
X186505D02*
D03*
X184536D02*
D03*
X182568D02*
D03*
X180599D02*
D03*
X178631D02*
D03*
X176662D02*
D03*
X174694D02*
D03*
X172725D02*
D03*
X170757D02*
D03*
X168788D02*
D03*
X166820D02*
D03*
X164851D02*
D03*
X62736Y120250D02*
D03*
X64705D02*
D03*
X66673D02*
D03*
X68642D02*
D03*
X70610D02*
D03*
X72579D02*
D03*
X74547D02*
D03*
X76516D02*
D03*
X78484D02*
D03*
X80453D02*
D03*
X82421D02*
D03*
X84390D02*
D03*
X86358D02*
D03*
X88327D02*
D03*
X90295D02*
D03*
X92264D02*
D03*
Y76550D02*
D03*
X90295D02*
D03*
X88327D02*
D03*
X86358D02*
D03*
X84390D02*
D03*
X82421D02*
D03*
X80453D02*
D03*
X78484D02*
D03*
X76516D02*
D03*
X74547D02*
D03*
X72579D02*
D03*
X70610D02*
D03*
X68642D02*
D03*
X66673D02*
D03*
X64705D02*
D03*
X62736D02*
D03*
D14*
X114417Y27761D02*
D03*
Y10439D02*
D03*
X128983D02*
D03*
Y27761D02*
D03*
X279416D02*
D03*
Y10439D02*
D03*
X293984D02*
D03*
Y27761D02*
D03*
X319378D02*
D03*
Y10439D02*
D03*
X333945D02*
D03*
Y27761D02*
D03*
X74417D02*
D03*
Y10439D02*
D03*
X88984D02*
D03*
Y27761D02*
D03*
D15*
X111759Y19100D02*
D03*
X131641D02*
D03*
X276759D02*
D03*
X296641D02*
D03*
X316721D02*
D03*
X336602D02*
D03*
X71759D02*
D03*
X91641D02*
D03*
D16*
X113648Y155500D02*
D03*
Y150500D02*
D03*
Y145500D02*
D03*
Y140500D02*
D03*
X132152Y155500D02*
D03*
Y150500D02*
D03*
Y145500D02*
D03*
Y140500D02*
D03*
D17*
X269516Y61983D02*
D03*
X284084D02*
D03*
Y84817D02*
D03*
X269516D02*
D03*
D18*
X256025Y175400D02*
D03*
X87375Y160000D02*
D03*
D19*
X258978Y171069D02*
D03*
X257010D02*
D03*
X255041D02*
D03*
X253072D02*
D03*
Y179731D02*
D03*
X255041D02*
D03*
X257010D02*
D03*
X258978D02*
D03*
X84422Y155669D02*
D03*
X86391D02*
D03*
X88359D02*
D03*
X90328D02*
D03*
Y164331D02*
D03*
X88359D02*
D03*
X86391D02*
D03*
X84422D02*
D03*
D20*
X31116Y24675D02*
D03*
X7100D02*
D03*
Y65620D02*
D03*
X31116D02*
D03*
D21*
X6968Y84436D02*
D03*
Y113964D02*
D03*
D22*
Y103924D02*
D03*
Y94476D02*
D03*
D23*
X17500Y111798D02*
D03*
Y86602D02*
D03*
D24*
Y104318D02*
D03*
Y101759D02*
D03*
Y99200D02*
D03*
Y96641D02*
D03*
Y94082D02*
D03*
D25*
X49183Y132269D02*
D03*
Y140931D02*
D03*
X34617D02*
D03*
Y132269D02*
D03*
D26*
X259724Y159600D02*
D03*
X250276D02*
D03*
X83650Y175700D02*
D03*
X93099D02*
D03*
D27*
X154800Y147400D02*
D03*
X150469D02*
D03*
Y143500D02*
D03*
X154800D02*
D03*
X48835Y175900D02*
D03*
X53165D02*
D03*
X130435Y122100D02*
D03*
X134765D02*
D03*
X147035Y49300D02*
D03*
X151365D02*
D03*
X49487Y157080D02*
D03*
X45157D02*
D03*
X73965Y133800D02*
D03*
X69635D02*
D03*
X49535Y148000D02*
D03*
X53865D02*
D03*
X40969Y73900D02*
D03*
X45300D02*
D03*
X349500Y94000D02*
D03*
X353831D02*
D03*
X151365Y44300D02*
D03*
X147035D02*
D03*
X254765Y56400D02*
D03*
X250435D02*
D03*
X254765Y61100D02*
D03*
X250435D02*
D03*
X69035Y40400D02*
D03*
X73365D02*
D03*
X147065Y125400D02*
D03*
X142735D02*
D03*
D28*
X122065Y40400D02*
D03*
X117735D02*
D03*
X61835Y175900D02*
D03*
X66165D02*
D03*
X82865Y40400D02*
D03*
X78535D02*
D03*
D29*
X265000Y119965D02*
D03*
Y115635D02*
D03*
D30*
X243500Y177340D02*
D03*
Y169860D02*
D03*
X72475Y158460D02*
D03*
Y165940D02*
D03*
X99275Y158000D02*
D03*
Y165480D02*
D03*
X271000Y176940D02*
D03*
Y169460D02*
D03*
D31*
X264700Y175037D02*
D03*
Y171100D02*
D03*
X267077Y18557D02*
D03*
Y22494D02*
D03*
X307000Y23763D02*
D03*
Y27700D02*
D03*
X140700Y151532D02*
D03*
Y155468D02*
D03*
X48200Y104131D02*
D03*
Y108069D02*
D03*
X44100Y104131D02*
D03*
Y108069D02*
D03*
Y93231D02*
D03*
Y97168D02*
D03*
X48300Y93231D02*
D03*
Y97168D02*
D03*
X106200Y87532D02*
D03*
Y91469D02*
D03*
X44300Y85232D02*
D03*
Y89169D02*
D03*
X107200Y108369D02*
D03*
Y104431D02*
D03*
X6900Y157768D02*
D03*
Y153832D02*
D03*
X26200Y138537D02*
D03*
Y134600D02*
D03*
X57600Y135563D02*
D03*
Y139500D02*
D03*
X349507Y102075D02*
D03*
Y106012D02*
D03*
X348000Y119532D02*
D03*
Y123468D02*
D03*
X353731Y102075D02*
D03*
Y106012D02*
D03*
X288440Y123571D02*
D03*
Y119634D02*
D03*
X288454Y128591D02*
D03*
Y132528D02*
D03*
X281976Y105971D02*
D03*
Y102034D02*
D03*
X286789Y105971D02*
D03*
Y102034D02*
D03*
X370800Y112163D02*
D03*
Y116100D02*
D03*
X360800Y112163D02*
D03*
Y116100D02*
D03*
X349800Y27963D02*
D03*
Y31900D02*
D03*
X195800Y36432D02*
D03*
Y40369D02*
D03*
X223906Y36531D02*
D03*
Y40468D02*
D03*
X253000Y115168D02*
D03*
Y111232D02*
D03*
X248700Y115168D02*
D03*
Y111232D02*
D03*
X174694Y146869D02*
D03*
Y142931D02*
D03*
X204300Y146869D02*
D03*
Y142931D02*
D03*
X200300Y36432D02*
D03*
Y40369D02*
D03*
X208158Y146869D02*
D03*
Y142931D02*
D03*
X204800Y36432D02*
D03*
Y40369D02*
D03*
X251500Y93337D02*
D03*
Y89400D02*
D03*
X233749Y36531D02*
D03*
Y40468D02*
D03*
X255100Y93237D02*
D03*
Y89300D02*
D03*
X144500Y83732D02*
D03*
Y87669D02*
D03*
X147900Y83732D02*
D03*
Y87669D02*
D03*
X60700Y14337D02*
D03*
Y10400D02*
D03*
X102035Y23863D02*
D03*
Y27800D02*
D03*
X79175Y160231D02*
D03*
Y164169D02*
D03*
D32*
X118800Y173069D02*
D03*
Y177400D02*
D03*
X262142Y18223D02*
D03*
Y22554D02*
D03*
X55200Y66131D02*
D03*
Y61800D02*
D03*
X61300Y150035D02*
D03*
Y154365D02*
D03*
X41300Y115635D02*
D03*
Y119965D02*
D03*
X259300Y119769D02*
D03*
Y124100D02*
D03*
X65300Y14731D02*
D03*
Y10400D02*
D03*
X97300Y23535D02*
D03*
Y27865D02*
D03*
X127800Y57231D02*
D03*
Y52900D02*
D03*
X94100Y147635D02*
D03*
Y151965D02*
D03*
X86435Y149331D02*
D03*
Y145000D02*
D03*
X249300Y187765D02*
D03*
Y183435D02*
D03*
X257000Y186035D02*
D03*
Y190365D02*
D03*
D33*
X101868Y121300D02*
D03*
X97931D02*
D03*
X55632Y122700D02*
D03*
X59569D02*
D03*
X95768Y132400D02*
D03*
X91831D02*
D03*
X95768Y128000D02*
D03*
X91831D02*
D03*
X85268Y128100D02*
D03*
X81331D02*
D03*
X94269Y68800D02*
D03*
X90332D02*
D03*
X75568Y68700D02*
D03*
X71631D02*
D03*
X305471Y53473D02*
D03*
X301534D02*
D03*
X308789Y148461D02*
D03*
X304852D02*
D03*
X361300Y23400D02*
D03*
X365237D02*
D03*
X101800Y191900D02*
D03*
X97863D02*
D03*
X167832Y40300D02*
D03*
X171768D02*
D03*
X273502Y53466D02*
D03*
X269565D02*
D03*
X254569Y66994D02*
D03*
X250631D02*
D03*
X224832Y141900D02*
D03*
X228768D02*
D03*
X255542Y84332D02*
D03*
X251606D02*
D03*
X144332Y91100D02*
D03*
X148268D02*
D03*
X196335Y146304D02*
D03*
X200272D02*
D03*
X196335Y142804D02*
D03*
X200272D02*
D03*
X143363Y74868D02*
D03*
X147300D02*
D03*
X144332Y94600D02*
D03*
X148268D02*
D03*
X143141Y101091D02*
D03*
X147078D02*
D03*
D34*
X610000Y-160000D02*
G03*
X610000Y-160000I-10000J0D01*
G01*
X620000D02*
G03*
X620000Y-160000I-20000J0D01*
G01*
X630000D02*
G03*
X630000Y-160000I-30000J0D01*
G01*
X610000Y320000D02*
G03*
X610000Y320000I-10000J0D01*
G01*
X620000D02*
G03*
X620000Y320000I-20000J0D01*
G01*
X630000D02*
G03*
X630000Y320000I-30000J0D01*
G01*
X-290000D02*
G03*
X-290000Y320000I-10000J0D01*
G01*
X-280000D02*
G03*
X-280000Y320000I-20000J0D01*
G01*
X-270000D02*
G03*
X-270000Y320000I-30000J0D01*
G01*
X800Y10400D02*
G03*
X10800Y400I10000J0D01*
G01*
Y210400D02*
G03*
X800Y200400I0J-10000D01*
G01*
X410800D02*
G03*
X400800Y210400I-10000J0D01*
G01*
Y400D02*
G03*
X410800Y10400I0J10000D01*
G01*
X800D02*
Y200400D01*
X10800Y400D02*
X400800D01*
X410800Y10400D02*
Y200400D01*
X10800Y210400D02*
X400800D01*
D35*
X255214Y-310501D02*
X254357Y-310787D01*
X253786Y-311644D01*
X253500Y-313072D01*
Y-313929D01*
X253786Y-315357D01*
X254357Y-316214D01*
X255214Y-316500D01*
X255785D01*
X256642Y-316214D01*
X257213Y-315357D01*
X257499Y-313929D01*
Y-313072D01*
X257213Y-311644D01*
X256642Y-310787D01*
X255785Y-310501D01*
X255214D01*
X259127Y-311930D02*
Y-311644D01*
X259413Y-311073D01*
X259699Y-310787D01*
X260270Y-310501D01*
X261413D01*
X261984Y-310787D01*
X262269Y-311073D01*
X262555Y-311644D01*
Y-312215D01*
X262269Y-312787D01*
X261698Y-313644D01*
X258842Y-316500D01*
X262841D01*
X268897Y-313644D02*
X271468D01*
X272324Y-313358D01*
X272610Y-313072D01*
X272896Y-312501D01*
Y-311644D01*
X272610Y-311073D01*
X272324Y-310787D01*
X271468Y-310501D01*
X268897D01*
Y-316500D01*
X278523Y-311930D02*
X278238Y-311358D01*
X277666Y-310787D01*
X277095Y-310501D01*
X275952D01*
X275381Y-310787D01*
X274810Y-311358D01*
X274524Y-311930D01*
X274238Y-312787D01*
Y-314215D01*
X274524Y-315072D01*
X274810Y-315643D01*
X275381Y-316214D01*
X275952Y-316500D01*
X277095D01*
X277666Y-316214D01*
X278238Y-315643D01*
X278523Y-315072D01*
X280209Y-310501D02*
Y-316500D01*
Y-310501D02*
X282779D01*
X283636Y-310787D01*
X283922Y-311073D01*
X284208Y-311644D01*
Y-312215D01*
X283922Y-312787D01*
X283636Y-313072D01*
X282779Y-313358D01*
X280209D02*
X282779D01*
X283636Y-313644D01*
X283922Y-313929D01*
X284208Y-314500D01*
Y-315357D01*
X283922Y-315929D01*
X283636Y-316214D01*
X282779Y-316500D01*
X280209D01*
X290264Y-310501D02*
Y-316500D01*
Y-310501D02*
X292834D01*
X293691Y-310787D01*
X293977Y-311073D01*
X294263Y-311644D01*
Y-312215D01*
X293977Y-312787D01*
X293691Y-313072D01*
X292834Y-313358D01*
X290264D02*
X292834D01*
X293691Y-313644D01*
X293977Y-313929D01*
X294263Y-314500D01*
Y-315357D01*
X293977Y-315929D01*
X293691Y-316214D01*
X292834Y-316500D01*
X290264D01*
X297034Y-312501D02*
X296462Y-312787D01*
X295891Y-313358D01*
X295605Y-314215D01*
Y-314786D01*
X295891Y-315643D01*
X296462Y-316214D01*
X297034Y-316500D01*
X297890D01*
X298462Y-316214D01*
X299033Y-315643D01*
X299319Y-314786D01*
Y-314215D01*
X299033Y-313358D01*
X298462Y-312787D01*
X297890Y-312501D01*
X297034D01*
X300633D02*
Y-315357D01*
X300918Y-316214D01*
X301490Y-316500D01*
X302347D01*
X302918Y-316214D01*
X303775Y-315357D01*
Y-312501D02*
Y-316500D01*
X305346Y-312501D02*
Y-316500D01*
Y-313644D02*
X306203Y-312787D01*
X306774Y-312501D01*
X307631D01*
X308203Y-312787D01*
X308488Y-313644D01*
Y-316500D01*
X313487Y-310501D02*
Y-316500D01*
Y-313358D02*
X312916Y-312787D01*
X312345Y-312501D01*
X311488D01*
X310916Y-312787D01*
X310345Y-313358D01*
X310059Y-314215D01*
Y-314786D01*
X310345Y-315643D01*
X310916Y-316214D01*
X311488Y-316500D01*
X312345D01*
X312916Y-316214D01*
X313487Y-315643D01*
X318515Y-312501D02*
Y-316500D01*
Y-313358D02*
X317943Y-312787D01*
X317372Y-312501D01*
X316515D01*
X315944Y-312787D01*
X315372Y-313358D01*
X315087Y-314215D01*
Y-314786D01*
X315372Y-315643D01*
X315944Y-316214D01*
X316515Y-316500D01*
X317372D01*
X317943Y-316214D01*
X318515Y-315643D01*
X320114Y-312501D02*
Y-316500D01*
Y-314215D02*
X320400Y-313358D01*
X320971Y-312787D01*
X321543Y-312501D01*
X322399D01*
X323228D02*
X324942Y-316500D01*
X326656Y-312501D02*
X324942Y-316500D01*
X324371Y-317643D01*
X323799Y-318214D01*
X323228Y-318500D01*
X322942D01*
X924500Y-142002D02*
Y-151000D01*
Y-142002D02*
X928356D01*
X929642Y-142430D01*
X930070Y-142859D01*
X930499Y-143716D01*
Y-144573D01*
X930070Y-145430D01*
X929642Y-145858D01*
X928356Y-146287D01*
X924500D02*
X928356D01*
X929642Y-146715D01*
X930070Y-147144D01*
X930499Y-148001D01*
Y-149286D01*
X930070Y-150143D01*
X929642Y-150572D01*
X928356Y-151000D01*
X924500D01*
X-638144Y-408500D02*
X-641572Y-399502D01*
X-645000Y-408500D01*
X-643715Y-405501D02*
X-639430D01*
X-645500Y-144502D02*
Y-153500D01*
Y-144502D02*
X-641644D01*
X-640358Y-144930D01*
X-639930Y-145359D01*
X-639501Y-146216D01*
Y-147073D01*
X-639930Y-147930D01*
X-640358Y-148358D01*
X-641644Y-148787D01*
X-645500D02*
X-641644D01*
X-640358Y-149215D01*
X-639930Y-149644D01*
X-639501Y-150501D01*
Y-151786D01*
X-639930Y-152643D01*
X-640358Y-153071D01*
X-641644Y-153500D01*
X-645500D01*
X-639073Y103356D02*
X-639501Y104213D01*
X-640358Y105070D01*
X-641215Y105498D01*
X-642929D01*
X-643786Y105070D01*
X-644643Y104213D01*
X-645072Y103356D01*
X-645500Y102070D01*
Y99928D01*
X-645072Y98642D01*
X-644643Y97785D01*
X-643786Y96929D01*
X-642929Y96500D01*
X-641215D01*
X-640358Y96929D01*
X-639501Y97785D01*
X-639073Y98642D01*
X-645000Y355498D02*
Y346500D01*
Y355498D02*
X-642001D01*
X-640715Y355070D01*
X-639858Y354213D01*
X-639430Y353356D01*
X-639001Y352070D01*
Y349928D01*
X-639430Y348642D01*
X-639858Y347785D01*
X-640715Y346929D01*
X-642001Y346500D01*
X-645000D01*
X812142Y-508287D02*
X811713Y-507430D01*
X810428Y-507002D01*
X809571D01*
X808285Y-507430D01*
X807428Y-508716D01*
X807000Y-510858D01*
Y-513001D01*
X807428Y-514715D01*
X808285Y-515571D01*
X809571Y-516000D01*
X809999D01*
X811285Y-515571D01*
X812142Y-514715D01*
X812570Y-513429D01*
Y-513001D01*
X812142Y-511715D01*
X811285Y-510858D01*
X809999Y-510430D01*
X809571D01*
X808285Y-510858D01*
X807428Y-511715D01*
X807000Y-513001D01*
X524000Y-474502D02*
Y-483500D01*
Y-474502D02*
X526999D01*
X528285Y-474930D01*
X529142Y-475787D01*
X529570Y-476644D01*
X529999Y-477930D01*
Y-480072D01*
X529570Y-481358D01*
X529142Y-482215D01*
X528285Y-483072D01*
X526999Y-483500D01*
X524000D01*
X532869Y-474502D02*
X533298Y-474930D01*
X533727Y-474502D01*
X533298Y-474073D01*
X532869Y-474502D01*
X533298Y-477501D02*
Y-483500D01*
X537454Y-477501D02*
X536597Y-477930D01*
X535740Y-478787D01*
X535312Y-480072D01*
Y-480929D01*
X535740Y-482215D01*
X536597Y-483072D01*
X537454Y-483500D01*
X538740D01*
X539597Y-483072D01*
X540454Y-482215D01*
X540882Y-480929D01*
Y-480072D01*
X540454Y-478787D01*
X539597Y-477930D01*
X538740Y-477501D01*
X537454D01*
X542853D02*
Y-483500D01*
Y-479215D02*
X544138Y-477930D01*
X544995Y-477501D01*
X546281D01*
X547138Y-477930D01*
X547566Y-479215D01*
Y-483500D01*
X550351Y-477501D02*
X552922Y-483500D01*
X555493Y-477501D02*
X552922Y-483500D01*
X552065Y-485214D01*
X551208Y-486071D01*
X550351Y-486499D01*
X549923D01*
X561706Y-478787D02*
X561278Y-477930D01*
X559992Y-477501D01*
X558707D01*
X557421Y-477930D01*
X556993Y-478787D01*
X557421Y-479644D01*
X558278Y-480072D01*
X560421Y-480501D01*
X561278Y-480929D01*
X561706Y-481786D01*
Y-482215D01*
X561278Y-483072D01*
X559992Y-483500D01*
X558707D01*
X557421Y-483072D01*
X556993Y-482215D01*
X563591Y-477501D02*
Y-481786D01*
X564020Y-483072D01*
X564877Y-483500D01*
X566162D01*
X567019Y-483072D01*
X568305Y-481786D01*
Y-477501D02*
Y-483500D01*
X575375Y-478787D02*
X574946Y-477930D01*
X573661Y-477501D01*
X572375D01*
X571090Y-477930D01*
X570661Y-478787D01*
X571090Y-479644D01*
X571947Y-480072D01*
X574089Y-480501D01*
X574946Y-480929D01*
X575375Y-481786D01*
Y-482215D01*
X574946Y-483072D01*
X573661Y-483500D01*
X572375D01*
X571090Y-483072D01*
X570661Y-482215D01*
X577689Y-482643D02*
X577260Y-483072D01*
X577689Y-483500D01*
X578117Y-483072D01*
X577689Y-482643D01*
X580088Y-479215D02*
X583944D01*
X585230Y-478787D01*
X585658Y-478358D01*
X586087Y-477501D01*
Y-476216D01*
X585658Y-475359D01*
X585230Y-474930D01*
X583944Y-474502D01*
X580088D01*
Y-483500D01*
X593242Y-478787D02*
X592385Y-477930D01*
X591528Y-477501D01*
X590243D01*
X589386Y-477930D01*
X588529Y-478787D01*
X588101Y-480072D01*
Y-480929D01*
X588529Y-482215D01*
X589386Y-483072D01*
X590243Y-483500D01*
X591528D01*
X592385Y-483072D01*
X593242Y-482215D01*
X595170Y-474502D02*
Y-483500D01*
Y-478787D02*
X596027Y-477930D01*
X596884Y-477501D01*
X598170D01*
X599027Y-477930D01*
X599884Y-478787D01*
X600312Y-480072D01*
Y-480929D01*
X599884Y-482215D01*
X599027Y-483072D01*
X598170Y-483500D01*
X596884D01*
X596027Y-483072D01*
X595170Y-482215D01*
X602240Y-474502D02*
Y-483500D01*
Y-474502D02*
X605240D01*
X606525Y-474930D01*
X607382Y-475787D01*
X607811Y-476644D01*
X608239Y-477930D01*
Y-480072D01*
X607811Y-481358D01*
X607382Y-482215D01*
X606525Y-483072D01*
X605240Y-483500D01*
X602240D01*
X612395Y-477501D02*
X611538Y-477930D01*
X610681Y-478787D01*
X610253Y-480072D01*
Y-480929D01*
X610681Y-482215D01*
X611538Y-483072D01*
X612395Y-483500D01*
X613681D01*
X614538Y-483072D01*
X615395Y-482215D01*
X615823Y-480929D01*
Y-480072D01*
X615395Y-478787D01*
X614538Y-477930D01*
X613681Y-477501D01*
X612395D01*
X622936Y-478787D02*
X622079Y-477930D01*
X621222Y-477501D01*
X619937D01*
X619080Y-477930D01*
X618223Y-478787D01*
X617794Y-480072D01*
Y-480929D01*
X618223Y-482215D01*
X619080Y-483072D01*
X619937Y-483500D01*
X621222D01*
X622079Y-483072D01*
X622936Y-482215D01*
X435000Y-476216D02*
X435857Y-475787D01*
X437142Y-474502D01*
Y-483500D01*
X442027Y-477501D02*
X441599Y-477930D01*
X442027Y-478358D01*
X442456Y-477930D01*
X442027Y-477501D01*
Y-482643D02*
X441599Y-483072D01*
X442027Y-483500D01*
X442456Y-483072D01*
X442027Y-482643D01*
X444427Y-476216D02*
X445284Y-475787D01*
X446569Y-474502D01*
Y-483500D01*
X402999Y-483287D02*
X402142Y-482430D01*
X400856Y-482002D01*
X399142D01*
X397857Y-482430D01*
X397000Y-483287D01*
Y-484144D01*
X397428Y-485001D01*
X397857Y-485430D01*
X398714Y-485858D01*
X401285Y-486715D01*
X402142Y-487144D01*
X402570Y-487572D01*
X402999Y-488429D01*
Y-489715D01*
X402142Y-490571D01*
X400856Y-491000D01*
X399142D01*
X397857Y-490571D01*
X397000Y-489715D01*
X405869Y-482002D02*
X406298Y-482430D01*
X406727Y-482002D01*
X406298Y-481573D01*
X405869Y-482002D01*
X406298Y-485001D02*
Y-491000D01*
X413025Y-485001D02*
X408312Y-491000D01*
Y-485001D02*
X413025D01*
X408312Y-491000D02*
X413025D01*
X414911Y-487572D02*
X420052D01*
Y-486715D01*
X419624Y-485858D01*
X419195Y-485430D01*
X418338Y-485001D01*
X417053D01*
X416196Y-485430D01*
X415339Y-486287D01*
X414911Y-487572D01*
Y-488429D01*
X415339Y-489715D01*
X416196Y-490571D01*
X417053Y-491000D01*
X418338D01*
X419195Y-490571D01*
X420052Y-489715D01*
X436642Y-444502D02*
X435357Y-444930D01*
X434929Y-445787D01*
Y-446644D01*
X435357Y-447501D01*
X436214Y-447930D01*
X437928Y-448358D01*
X439213Y-448787D01*
X440070Y-449644D01*
X440499Y-450501D01*
Y-451786D01*
X440070Y-452643D01*
X439642Y-453071D01*
X438356Y-453500D01*
X436642D01*
X435357Y-453071D01*
X434929Y-452643D01*
X434500Y-451786D01*
Y-450501D01*
X434929Y-449644D01*
X435785Y-448787D01*
X437071Y-448358D01*
X438785Y-447930D01*
X439642Y-447501D01*
X440070Y-446644D01*
Y-445787D01*
X439642Y-444930D01*
X438356Y-444502D01*
X436642D01*
X442513Y-454785D02*
X448511Y-444502D01*
X449540Y-446644D02*
Y-446216D01*
X449968Y-445359D01*
X450397Y-444930D01*
X451254Y-444502D01*
X452968D01*
X453824Y-444930D01*
X454253Y-445359D01*
X454681Y-446216D01*
Y-447073D01*
X454253Y-447930D01*
X453396Y-449215D01*
X449111Y-453500D01*
X455110D01*
X462694Y-447501D02*
X462265Y-448787D01*
X461409Y-449644D01*
X460123Y-450072D01*
X459695D01*
X458409Y-449644D01*
X457552Y-448787D01*
X457124Y-447501D01*
Y-447073D01*
X457552Y-445787D01*
X458409Y-444930D01*
X459695Y-444502D01*
X460123D01*
X461409Y-444930D01*
X462265Y-445787D01*
X462694Y-447501D01*
Y-449644D01*
X462265Y-451786D01*
X461409Y-453071D01*
X460123Y-453500D01*
X459266D01*
X457981Y-453071D01*
X457552Y-452215D01*
X465136Y-454785D02*
X471135Y-444502D01*
X472163Y-446644D02*
Y-446216D01*
X472592Y-445359D01*
X473020Y-444930D01*
X473877Y-444502D01*
X475591D01*
X476448Y-444930D01*
X476877Y-445359D01*
X477305Y-446216D01*
Y-447073D01*
X476877Y-447930D01*
X476020Y-449215D01*
X471735Y-453500D01*
X477734D01*
X482318Y-444502D02*
X481033Y-444930D01*
X480176Y-446216D01*
X479747Y-448358D01*
Y-449644D01*
X480176Y-451786D01*
X481033Y-453071D01*
X482318Y-453500D01*
X483175D01*
X484461Y-453071D01*
X485318Y-451786D01*
X485746Y-449644D01*
Y-448358D01*
X485318Y-446216D01*
X484461Y-444930D01*
X483175Y-444502D01*
X482318D01*
X487760Y-446216D02*
X488617Y-445787D01*
X489902Y-444502D01*
Y-453500D01*
X494787Y-446644D02*
Y-446216D01*
X495216Y-445359D01*
X495644Y-444930D01*
X496501Y-444502D01*
X498215D01*
X499072Y-444930D01*
X499500Y-445359D01*
X499929Y-446216D01*
Y-447073D01*
X499500Y-447930D01*
X498643Y-449215D01*
X494359Y-453500D01*
X500357D01*
X434500Y-414502D02*
Y-423500D01*
Y-414502D02*
X437499D01*
X438785Y-414930D01*
X439642Y-415787D01*
X440070Y-416644D01*
X440499Y-417930D01*
Y-420072D01*
X440070Y-421358D01*
X439642Y-422215D01*
X438785Y-423071D01*
X437499Y-423500D01*
X434500D01*
X447654Y-417501D02*
Y-423500D01*
Y-418787D02*
X446797Y-417930D01*
X445940Y-417501D01*
X444655D01*
X443798Y-417930D01*
X442941Y-418787D01*
X442513Y-420072D01*
Y-420929D01*
X442941Y-422215D01*
X443798Y-423071D01*
X444655Y-423500D01*
X445940D01*
X446797Y-423071D01*
X447654Y-422215D01*
X450054Y-417501D02*
X452625Y-423500D01*
X455196Y-417501D02*
X452625Y-423500D01*
X456652Y-420072D02*
X461794D01*
Y-419215D01*
X461366Y-418358D01*
X460937Y-417930D01*
X460080Y-417501D01*
X458795D01*
X457938Y-417930D01*
X457081Y-418787D01*
X456652Y-420072D01*
Y-420929D01*
X457081Y-422215D01*
X457938Y-423071D01*
X458795Y-423500D01*
X460080D01*
X460937Y-423071D01*
X461794Y-422215D01*
X470792Y-414502D02*
Y-423500D01*
Y-414502D02*
X474220Y-423500D01*
X477648Y-414502D02*
X474220Y-423500D01*
X477648Y-414502D02*
Y-423500D01*
X485360Y-418787D02*
X484504Y-417930D01*
X483647Y-417501D01*
X482361D01*
X481504Y-417930D01*
X480647Y-418787D01*
X480219Y-420072D01*
Y-420929D01*
X480647Y-422215D01*
X481504Y-423071D01*
X482361Y-423500D01*
X483647D01*
X484504Y-423071D01*
X485360Y-422215D01*
X493716Y-416644D02*
X493287Y-415787D01*
X492430Y-414930D01*
X491573Y-414502D01*
X489860D01*
X489003Y-414930D01*
X488146Y-415787D01*
X487717Y-416644D01*
X487289Y-417930D01*
Y-420072D01*
X487717Y-421358D01*
X488146Y-422215D01*
X489003Y-423071D01*
X489860Y-423500D01*
X491573D01*
X492430Y-423071D01*
X493287Y-422215D01*
X493716Y-421358D01*
X498386Y-417501D02*
X497529Y-417930D01*
X496672Y-418787D01*
X496244Y-420072D01*
Y-420929D01*
X496672Y-422215D01*
X497529Y-423071D01*
X498386Y-423500D01*
X499672D01*
X500529Y-423071D01*
X501386Y-422215D01*
X501814Y-420929D01*
Y-420072D01*
X501386Y-418787D01*
X500529Y-417930D01*
X499672Y-417501D01*
X498386D01*
X504214D02*
X506784Y-423500D01*
X509355Y-417501D02*
X506784Y-423500D01*
X505928Y-425214D01*
X505071Y-426071D01*
X504214Y-426499D01*
X503785D01*
X434500Y-384502D02*
Y-393500D01*
Y-384502D02*
X437499D01*
X438785Y-384930D01*
X439642Y-385787D01*
X440070Y-386644D01*
X440499Y-387930D01*
Y-390072D01*
X440070Y-391358D01*
X439642Y-392215D01*
X438785Y-393072D01*
X437499Y-393500D01*
X434500D01*
X447654Y-387501D02*
Y-393500D01*
Y-388787D02*
X446797Y-387930D01*
X445940Y-387501D01*
X444655D01*
X443798Y-387930D01*
X442941Y-388787D01*
X442513Y-390072D01*
Y-390929D01*
X442941Y-392215D01*
X443798Y-393072D01*
X444655Y-393500D01*
X445940D01*
X446797Y-393072D01*
X447654Y-392215D01*
X450054Y-387501D02*
X452625Y-393500D01*
X455196Y-387501D02*
X452625Y-393500D01*
X456652Y-390072D02*
X461794D01*
Y-389215D01*
X461366Y-388358D01*
X460937Y-387930D01*
X460080Y-387501D01*
X458795D01*
X457938Y-387930D01*
X457081Y-388787D01*
X456652Y-390072D01*
Y-390929D01*
X457081Y-392215D01*
X457938Y-393072D01*
X458795Y-393500D01*
X460080D01*
X460937Y-393072D01*
X461794Y-392215D01*
X470792Y-384502D02*
Y-393500D01*
Y-384502D02*
X474220Y-393500D01*
X477648Y-384502D02*
X474220Y-393500D01*
X477648Y-384502D02*
Y-393500D01*
X485360Y-388787D02*
X484504Y-387930D01*
X483647Y-387501D01*
X482361D01*
X481504Y-387930D01*
X480647Y-388787D01*
X480219Y-390072D01*
Y-390929D01*
X480647Y-392215D01*
X481504Y-393072D01*
X482361Y-393500D01*
X483647D01*
X484504Y-393072D01*
X485360Y-392215D01*
X493716Y-386644D02*
X493287Y-385787D01*
X492430Y-384930D01*
X491573Y-384502D01*
X489860D01*
X489003Y-384930D01*
X488146Y-385787D01*
X487717Y-386644D01*
X487289Y-387930D01*
Y-390072D01*
X487717Y-391358D01*
X488146Y-392215D01*
X489003Y-393072D01*
X489860Y-393500D01*
X491573D01*
X492430Y-393072D01*
X493287Y-392215D01*
X493716Y-391358D01*
X498386Y-387501D02*
X497529Y-387930D01*
X496672Y-388787D01*
X496244Y-390072D01*
Y-390929D01*
X496672Y-392215D01*
X497529Y-393072D01*
X498386Y-393500D01*
X499672D01*
X500529Y-393072D01*
X501386Y-392215D01*
X501814Y-390929D01*
Y-390072D01*
X501386Y-388787D01*
X500529Y-387930D01*
X499672Y-387501D01*
X498386D01*
X504214D02*
X506784Y-393500D01*
X509355Y-387501D02*
X506784Y-393500D01*
X505928Y-395214D01*
X505071Y-396071D01*
X504214Y-396499D01*
X503785D01*
X866642Y-482501D02*
X865785Y-482930D01*
X864929Y-483787D01*
X864500Y-485072D01*
Y-485929D01*
X864929Y-487215D01*
X865785Y-488071D01*
X866642Y-488500D01*
X867928D01*
X868785Y-488071D01*
X869642Y-487215D01*
X870070Y-485929D01*
Y-485072D01*
X869642Y-483787D01*
X868785Y-482930D01*
X867928Y-482501D01*
X866642D01*
X875469Y-479502D02*
X874612D01*
X873755Y-479930D01*
X873327Y-481216D01*
Y-488500D01*
X872041Y-482501D02*
X875041D01*
X800499Y-481287D02*
X799642Y-480430D01*
X798356Y-480002D01*
X796642D01*
X795357Y-480430D01*
X794500Y-481287D01*
Y-482144D01*
X794929Y-483001D01*
X795357Y-483430D01*
X796214Y-483858D01*
X798785Y-484715D01*
X799642Y-485144D01*
X800070Y-485572D01*
X800499Y-486429D01*
Y-487715D01*
X799642Y-488572D01*
X798356Y-489000D01*
X796642D01*
X795357Y-488572D01*
X794500Y-487715D01*
X802513Y-480002D02*
Y-489000D01*
Y-484715D02*
X803798Y-483430D01*
X804655Y-483001D01*
X805940D01*
X806797Y-483430D01*
X807226Y-484715D01*
Y-489000D01*
X809583Y-485572D02*
X814724D01*
Y-484715D01*
X814296Y-483858D01*
X813867Y-483430D01*
X813010Y-483001D01*
X811725D01*
X810868Y-483430D01*
X810011Y-484287D01*
X809583Y-485572D01*
Y-486429D01*
X810011Y-487715D01*
X810868Y-488572D01*
X811725Y-489000D01*
X813010D01*
X813867Y-488572D01*
X814724Y-487715D01*
X816652Y-485572D02*
X821794D01*
Y-484715D01*
X821366Y-483858D01*
X820937Y-483430D01*
X820080Y-483001D01*
X818795D01*
X817938Y-483430D01*
X817081Y-484287D01*
X816652Y-485572D01*
Y-486429D01*
X817081Y-487715D01*
X817938Y-488572D01*
X818795Y-489000D01*
X820080D01*
X820937Y-488572D01*
X821794Y-487715D01*
X825008Y-480002D02*
Y-487286D01*
X825436Y-488572D01*
X826293Y-489000D01*
X827150D01*
X823722Y-483001D02*
X826722D01*
X530927Y-446144D02*
X530499Y-445287D01*
X529642Y-444430D01*
X528785Y-444002D01*
X527071D01*
X526214Y-444430D01*
X525357Y-445287D01*
X524929Y-446144D01*
X524500Y-447430D01*
Y-449572D01*
X524929Y-450858D01*
X525357Y-451715D01*
X526214Y-452571D01*
X527071Y-453000D01*
X528785D01*
X529642Y-452571D01*
X530499Y-451715D01*
X530927Y-450858D01*
X728000Y-445502D02*
X729499Y-444003D01*
X732499D01*
X733998Y-445502D01*
Y-447002D01*
X732499Y-448501D01*
X733998Y-450001D01*
Y-451501D01*
X732499Y-453000D01*
X729499D01*
X728000Y-451501D01*
Y-450001D01*
X729499Y-448501D01*
X728000Y-447002D01*
Y-445502D01*
X729499Y-448501D02*
X732499D01*
X736997Y-453000D02*
X742995Y-447002D01*
X751992Y-453000D02*
X745994D01*
X751992Y-447002D01*
Y-445502D01*
X750493Y-444003D01*
X747494D01*
X745994Y-445502D01*
X754991Y-451501D02*
X756491Y-453000D01*
X759490D01*
X760989Y-451501D01*
Y-445502D01*
X759490Y-444003D01*
X756491D01*
X754991Y-445502D01*
Y-447002D01*
X756491Y-448501D01*
X760989D01*
X763988Y-453000D02*
X769986Y-447002D01*
X778983Y-453000D02*
X772986D01*
X778983Y-447002D01*
Y-445502D01*
X777484Y-444003D01*
X774485D01*
X772986Y-445502D01*
X781983D02*
X783482Y-444003D01*
X786481D01*
X787981Y-445502D01*
Y-451501D01*
X786481Y-453000D01*
X783482D01*
X781983Y-451501D01*
Y-445502D01*
X790980Y-453000D02*
X793979D01*
X792479D01*
Y-444003D01*
X790980Y-445502D01*
X804475Y-453000D02*
X798477D01*
X804475Y-447002D01*
Y-445502D01*
X802976Y-444003D01*
X799977D01*
X798477Y-445502D01*
X544642Y-507002D02*
X540357D01*
X539928Y-510858D01*
X540357Y-510430D01*
X541642Y-510001D01*
X542928D01*
X544213Y-510430D01*
X545070Y-511287D01*
X545499Y-512572D01*
Y-513429D01*
X545070Y-514715D01*
X544213Y-515571D01*
X542928Y-516000D01*
X541642D01*
X540357Y-515571D01*
X539928Y-515143D01*
X539500Y-514286D01*
X276285Y-507002D02*
X272000Y-513001D01*
X278427D01*
X276285Y-507002D02*
Y-516000D01*
X7857Y-507002D02*
X12570D01*
X9999Y-510430D01*
X11285D01*
X12142Y-510858D01*
X12570Y-511287D01*
X12999Y-512572D01*
Y-513429D01*
X12570Y-514715D01*
X11713Y-515571D01*
X10428Y-516000D01*
X9142D01*
X7857Y-515571D01*
X7429Y-515143D01*
X7000Y-514286D01*
X-262572Y-509144D02*
Y-508716D01*
X-262143Y-507859D01*
X-261715Y-507430D01*
X-260858Y-507002D01*
X-259144D01*
X-258287Y-507430D01*
X-257858Y-507859D01*
X-257430Y-508716D01*
Y-509573D01*
X-257858Y-510430D01*
X-258715Y-511715D01*
X-263000Y-516000D01*
X-257001D01*
X-530500Y-508716D02*
X-529643Y-508287D01*
X-528358Y-507002D01*
Y-516000D01*
X545142Y462998D02*
X540857D01*
X540428Y459142D01*
X540857Y459570D01*
X542142Y459999D01*
X543428D01*
X544713Y459570D01*
X545570Y458713D01*
X545999Y457428D01*
Y456571D01*
X545570Y455285D01*
X544713Y454428D01*
X543428Y454000D01*
X542142D01*
X540857Y454428D01*
X540428Y454857D01*
X540000Y455714D01*
X276285Y462998D02*
X272000Y456999D01*
X278427D01*
X276285Y462998D02*
Y454000D01*
X7857Y462998D02*
X12570D01*
X9999Y459570D01*
X11285D01*
X12142Y459142D01*
X12570Y458713D01*
X12999Y457428D01*
Y456571D01*
X12570Y455285D01*
X11713Y454428D01*
X10428Y454000D01*
X9142D01*
X7857Y454428D01*
X7429Y454857D01*
X7000Y455714D01*
X-262572Y460856D02*
Y461284D01*
X-262143Y462141D01*
X-261715Y462570D01*
X-260858Y462998D01*
X-259144D01*
X-258287Y462570D01*
X-257858Y462141D01*
X-257430Y461284D01*
Y460427D01*
X-257858Y459570D01*
X-258715Y458285D01*
X-263000Y454000D01*
X-257001D01*
X931356Y-401000D02*
X927928Y-392002D01*
X924500Y-401000D01*
X925785Y-398001D02*
X930070D01*
X529549Y-387581D02*
X529121Y-386724D01*
X528264Y-385867D01*
X527407Y-385439D01*
X525693D01*
X524836Y-385867D01*
X523979Y-386724D01*
X523551Y-387581D01*
X523122Y-388867D01*
Y-391009D01*
X523551Y-392295D01*
X523979Y-393152D01*
X524836Y-394008D01*
X525693Y-394437D01*
X527407D01*
X528264Y-394008D01*
X529121Y-393152D01*
X529549Y-392295D01*
X534220Y-388438D02*
X533363Y-388867D01*
X532506Y-389724D01*
X532077Y-391009D01*
Y-391866D01*
X532506Y-393152D01*
X533363Y-394008D01*
X534220Y-394437D01*
X535505D01*
X536362Y-394008D01*
X537219Y-393152D01*
X537647Y-391866D01*
Y-391009D01*
X537219Y-389724D01*
X536362Y-388867D01*
X535505Y-388438D01*
X534220D01*
X544332Y-389724D02*
X543903Y-388867D01*
X542618Y-388438D01*
X541332D01*
X540047Y-388867D01*
X539618Y-389724D01*
X540047Y-390581D01*
X540904Y-391009D01*
X543046Y-391438D01*
X543903Y-391866D01*
X544332Y-392723D01*
Y-393152D01*
X543903Y-394008D01*
X542618Y-394437D01*
X541332D01*
X540047Y-394008D01*
X539618Y-393152D01*
X546217Y-388438D02*
Y-397436D01*
Y-389724D02*
X547074Y-388867D01*
X547931Y-388438D01*
X549217D01*
X550073Y-388867D01*
X550930Y-389724D01*
X551359Y-391009D01*
Y-391866D01*
X550930Y-393152D01*
X550073Y-394008D01*
X549217Y-394437D01*
X547931D01*
X547074Y-394008D01*
X546217Y-393152D01*
X558429Y-388438D02*
Y-394437D01*
Y-389724D02*
X557572Y-388867D01*
X556715Y-388438D01*
X555429D01*
X554572Y-388867D01*
X553716Y-389724D01*
X553287Y-391009D01*
Y-391866D01*
X553716Y-393152D01*
X554572Y-394008D01*
X555429Y-394437D01*
X556715D01*
X557572Y-394008D01*
X558429Y-393152D01*
X560828Y-388438D02*
Y-394437D01*
Y-390152D02*
X562114Y-388867D01*
X562971Y-388438D01*
X564256D01*
X565113Y-388867D01*
X565542Y-390152D01*
Y-394437D01*
X574968Y-385439D02*
Y-394437D01*
Y-385439D02*
X577967D01*
X579253Y-385867D01*
X580110Y-386724D01*
X580538Y-387581D01*
X580967Y-388867D01*
Y-391009D01*
X580538Y-392295D01*
X580110Y-393152D01*
X579253Y-394008D01*
X577967Y-394437D01*
X574968D01*
X582981Y-391009D02*
X588122D01*
Y-390152D01*
X587694Y-389295D01*
X587265Y-388867D01*
X586409Y-388438D01*
X585123D01*
X584266Y-388867D01*
X583409Y-389724D01*
X582981Y-391009D01*
Y-391866D01*
X583409Y-393152D01*
X584266Y-394008D01*
X585123Y-394437D01*
X586409D01*
X587265Y-394008D01*
X588122Y-393152D01*
X594764Y-389724D02*
X594335Y-388867D01*
X593050Y-388438D01*
X591764D01*
X590479Y-388867D01*
X590051Y-389724D01*
X590479Y-390581D01*
X591336Y-391009D01*
X593478Y-391438D01*
X594335Y-391866D01*
X594764Y-392723D01*
Y-393152D01*
X594335Y-394008D01*
X593050Y-394437D01*
X591764D01*
X590479Y-394008D01*
X590051Y-393152D01*
X597506Y-385439D02*
X597935Y-385867D01*
X598363Y-385439D01*
X597935Y-385011D01*
X597506Y-385439D01*
X597935Y-388438D02*
Y-394437D01*
X605090Y-388438D02*
Y-395294D01*
X604662Y-396579D01*
X604233Y-397008D01*
X603376Y-397436D01*
X602091D01*
X601234Y-397008D01*
X605090Y-389724D02*
X604233Y-388867D01*
X603376Y-388438D01*
X602091D01*
X601234Y-388867D01*
X600377Y-389724D01*
X599948Y-391009D01*
Y-391866D01*
X600377Y-393152D01*
X601234Y-394008D01*
X602091Y-394437D01*
X603376D01*
X604233Y-394008D01*
X605090Y-393152D01*
X607490Y-388438D02*
Y-394437D01*
Y-390152D02*
X608775Y-388867D01*
X609632Y-388438D01*
X610918D01*
X611774Y-388867D01*
X612203Y-390152D01*
Y-394437D01*
X924500Y357998D02*
Y349000D01*
Y357998D02*
X927499D01*
X928785Y357570D01*
X929642Y356713D01*
X930070Y355856D01*
X930499Y354570D01*
Y352428D01*
X930070Y351142D01*
X929642Y350285D01*
X928785Y349429D01*
X927499Y349000D01*
X924500D01*
X-530500Y461284D02*
X-529643Y461713D01*
X-528358Y462998D01*
Y454000D01*
X833142Y-481708D02*
X833999Y-481280D01*
X835284Y-479994D01*
Y-488992D01*
X832498Y-446002D02*
X830999Y-444503D01*
X827999D01*
X826500Y-446002D01*
Y-452001D01*
X827999Y-453500D01*
X830999D01*
X832498Y-452001D01*
X880091Y-480724D02*
X880947Y-480295D01*
X882233Y-479010D01*
Y-488008D01*
X253500Y-451644D02*
X254071Y-451358D01*
X254928Y-450501D01*
Y-456500D01*
X261327Y-451358D02*
X261041Y-450787D01*
X260184Y-450501D01*
X259613D01*
X258756Y-450787D01*
X258185Y-451644D01*
X257899Y-453072D01*
Y-454500D01*
X258185Y-455643D01*
X258756Y-456214D01*
X259613Y-456500D01*
X259899D01*
X260756Y-456214D01*
X261327Y-455643D01*
X261613Y-454786D01*
Y-454500D01*
X261327Y-453644D01*
X260756Y-453072D01*
X259899Y-452786D01*
X259613D01*
X258756Y-453072D01*
X258185Y-453644D01*
X257899Y-454500D01*
X271639Y-451358D02*
X271068Y-450787D01*
X270211Y-450501D01*
X269068D01*
X268211Y-450787D01*
X267640Y-451358D01*
Y-451930D01*
X267926Y-452501D01*
X268211Y-452786D01*
X268782Y-453072D01*
X270496Y-453644D01*
X271068Y-453929D01*
X271353Y-454215D01*
X271639Y-454786D01*
Y-455643D01*
X271068Y-456214D01*
X270211Y-456500D01*
X269068D01*
X268211Y-456214D01*
X267640Y-455643D01*
X272982Y-450501D02*
Y-456500D01*
Y-453644D02*
X273838Y-452786D01*
X274410Y-452501D01*
X275267D01*
X275838Y-452786D01*
X276124Y-453644D01*
Y-456500D01*
X277695Y-454215D02*
X281123D01*
Y-453644D01*
X280837Y-453072D01*
X280551Y-452786D01*
X279980Y-452501D01*
X279123D01*
X278552Y-452786D01*
X277980Y-453358D01*
X277695Y-454215D01*
Y-454786D01*
X277980Y-455643D01*
X278552Y-456214D01*
X279123Y-456500D01*
X279980D01*
X280551Y-456214D01*
X281123Y-455643D01*
X282408Y-454215D02*
X285836D01*
Y-453644D01*
X285550Y-453072D01*
X285265Y-452786D01*
X284693Y-452501D01*
X283836D01*
X283265Y-452786D01*
X282694Y-453358D01*
X282408Y-454215D01*
Y-454786D01*
X282694Y-455643D01*
X283265Y-456214D01*
X283836Y-456500D01*
X284693D01*
X285265Y-456214D01*
X285836Y-455643D01*
X287978Y-450501D02*
Y-455357D01*
X288264Y-456214D01*
X288835Y-456500D01*
X289407D01*
X287121Y-452501D02*
X289121D01*
D39*
X550000Y-160000D02*
X600000D01*
X650000D01*
X600000Y-210000D02*
Y-160000D01*
Y-110000D01*
Y270000D02*
Y320000D01*
Y370000D01*
X550000Y320000D02*
X600000D01*
X650000D01*
X-300000Y270000D02*
Y320000D01*
Y370000D01*
X-350000Y320000D02*
X-300000D01*
X-250000D01*
D40*
X-658000Y-526000D02*
Y474000D01*
X942000D01*
Y-526000D02*
Y474000D01*
X-658000Y-526000D02*
X942000D01*
X-628000Y-496000D02*
Y444000D01*
Y-496000D02*
X912000D01*
X-658000Y-26000D02*
X-628000D01*
X912000Y-496000D02*
Y444000D01*
X-658000Y-276000D02*
X-628000D01*
X-658000Y224000D02*
X-628000D01*
X-393000Y444000D02*
Y474000D01*
X912000Y-276000D02*
X942000D01*
X912000Y224000D02*
X942000D01*
X142000Y444000D02*
Y474000D01*
X-125500Y444000D02*
Y474000D01*
X409500Y444000D02*
Y474000D01*
X-393000Y-526000D02*
Y-496000D01*
X142000Y-526000D02*
Y-496000D01*
X-125500Y-526000D02*
Y-496000D01*
X409500Y-526000D02*
Y-496000D01*
X674500Y-526000D02*
Y-496000D01*
X427000Y-411000D02*
X517000D01*
X427000Y-471000D02*
X912000D01*
X427000Y-441000D02*
X912000D01*
X427000Y-381000D02*
X517000D01*
X822000Y-471000D02*
Y-441000D01*
X717000Y-471000D02*
Y-441000D01*
X517000Y-496000D02*
Y-381000D01*
X427000Y-496000D02*
Y-381000D01*
X392000Y-451000D02*
X427000D01*
X392000Y-496000D02*
Y-451000D01*
X517000Y-381000D02*
X912000D01*
X-628000Y444000D02*
X912000D01*
D41*
X403000Y-458504D02*
Y-476500D01*
Y-458504D02*
X410713D01*
X413283Y-459361D01*
X414141Y-460218D01*
X414997Y-461932D01*
Y-463646D01*
X414141Y-465359D01*
X413283Y-466217D01*
X410713Y-467073D01*
X403000D02*
X410713D01*
X413283Y-467930D01*
X414141Y-468787D01*
X414997Y-470501D01*
Y-473072D01*
X414141Y-474786D01*
X413283Y-475643D01*
X410713Y-476500D01*
X403000D01*
D42*
X360800Y85400D02*
D03*
Y75400D02*
D03*
Y65400D02*
D03*
Y35400D02*
D03*
Y45400D02*
D03*
Y55400D02*
D03*
X370800D02*
D03*
Y45400D02*
D03*
Y35400D02*
D03*
Y65400D02*
D03*
Y75400D02*
D03*
Y85400D02*
D03*
X180800Y10400D02*
D03*
X150800D02*
D03*
X160800D02*
D03*
X170800D02*
D03*
X360800Y175400D02*
D03*
Y165400D02*
D03*
Y155400D02*
D03*
Y125400D02*
D03*
Y135400D02*
D03*
Y145400D02*
D03*
X370800D02*
D03*
Y135400D02*
D03*
Y125400D02*
D03*
Y155400D02*
D03*
Y165400D02*
D03*
Y175400D02*
D03*
D43*
X7100Y45147D02*
D03*
X24816D02*
D03*
D44*
X180800Y200400D02*
D03*
X190800D02*
D03*
X200800D02*
D03*
X210800D02*
D03*
X220800D02*
D03*
X230800D02*
D03*
X240800D02*
D03*
X250800D02*
D03*
Y10400D02*
D03*
X240800D02*
D03*
X230800D02*
D03*
X220800D02*
D03*
X210800D02*
D03*
X200800D02*
D03*
X30800Y200400D02*
D03*
X40800D02*
D03*
X50800D02*
D03*
X60800D02*
D03*
X70800D02*
D03*
X80800D02*
D03*
X31300Y169500D02*
D03*
X21300D02*
D03*
X11300D02*
D03*
X94800Y200400D02*
D03*
X104800D02*
D03*
X114800D02*
D03*
X124800D02*
D03*
X134800D02*
D03*
X144800D02*
D03*
X154800D02*
D03*
X164800D02*
D03*
M02*
