%FSLAX24Y24*%
%MOIN*%
G70*
G01*
G75*
G04 Layer_Color=32768*
%ADD10C,0.0060*%
%ADD11C,0.0150*%
%ADD12C,0.0394*%
%ADD13C,0.0591*%
%ADD14C,0.0600*%
%ADD15C,0.0240*%
%ADD16C,0.0400*%
%ADD17C,0.0640*%
G04:AMPARAMS|DCode=18|XSize=80mil|YSize=80mil|CornerRadius=0mil|HoleSize=0mil|Usage=FLASHONLY|Rotation=0.000|XOffset=0mil|YOffset=0mil|HoleType=Round|Shape=Relief|Width=8mil|Gap=10mil|Entries=4|*
%AMTHD18*
7,0,0,0.0800,0.0600,0.0080,45*
%
%ADD18THD18*%
%ADD19C,0.1490*%
%ADD20C,0.0340*%
G04:AMPARAMS|DCode=21|XSize=50mil|YSize=50mil|CornerRadius=0mil|HoleSize=0mil|Usage=FLASHONLY|Rotation=0.000|XOffset=0mil|YOffset=0mil|HoleType=Round|Shape=Relief|Width=8mil|Gap=10mil|Entries=4|*
%AMTHD21*
7,0,0,0.0500,0.0300,0.0080,45*
%
%ADD21THD21*%
%ADD22R,0.0551X0.0709*%
G04:AMPARAMS|DCode=23|XSize=25.6mil|YSize=23.6mil|CornerRadius=5.9mil|HoleSize=0mil|Usage=FLASHONLY|Rotation=180.000|XOffset=0mil|YOffset=0mil|HoleType=Round|Shape=RoundedRectangle|*
%AMROUNDEDRECTD23*
21,1,0.0256,0.0118,0,0,180.0*
21,1,0.0138,0.0236,0,0,180.0*
1,1,0.0118,-0.0069,0.0059*
1,1,0.0118,0.0069,0.0059*
1,1,0.0118,0.0069,-0.0059*
1,1,0.0118,-0.0069,-0.0059*
%
%ADD23ROUNDEDRECTD23*%
%ADD24R,0.0984X0.0354*%
%ADD25R,0.0098X0.0315*%
%ADD26R,0.0236X0.0748*%
%ADD27R,0.0827X0.1102*%
%ADD28R,0.0433X0.0256*%
%ADD29R,0.0433X0.0097*%
%ADD30R,0.0433X0.0097*%
%ADD31R,0.0097X0.0433*%
%ADD32R,0.0433X0.1260*%
%ADD33R,0.0138X0.0709*%
%ADD34R,0.0126X0.0709*%
%ADD35R,0.0394X0.0433*%
%ADD36R,0.0256X0.0295*%
%ADD37R,0.0669X0.0984*%
%ADD38R,0.0591X0.0512*%
%ADD39R,0.0236X0.0197*%
G04:AMPARAMS|DCode=40|XSize=25.6mil|YSize=23.6mil|CornerRadius=5.9mil|HoleSize=0mil|Usage=FLASHONLY|Rotation=270.000|XOffset=0mil|YOffset=0mil|HoleType=Round|Shape=RoundedRectangle|*
%AMROUNDEDRECTD40*
21,1,0.0256,0.0118,0,0,270.0*
21,1,0.0138,0.0236,0,0,270.0*
1,1,0.0118,-0.0059,-0.0069*
1,1,0.0118,-0.0059,0.0069*
1,1,0.0118,0.0059,0.0069*
1,1,0.0118,0.0059,-0.0069*
%
%ADD40ROUNDEDRECTD40*%
%ADD41R,0.0197X0.0236*%
%ADD42C,0.0100*%
%ADD43C,0.0120*%
%ADD44C,0.0200*%
%ADD45C,0.0140*%
%ADD46C,0.0651*%
%ADD47C,0.0030*%
%ADD48C,0.0660*%
%ADD49R,0.0611X0.0769*%
G04:AMPARAMS|DCode=50|XSize=31.6mil|YSize=29.6mil|CornerRadius=8.9mil|HoleSize=0mil|Usage=FLASHONLY|Rotation=180.000|XOffset=0mil|YOffset=0mil|HoleType=Round|Shape=RoundedRectangle|*
%AMROUNDEDRECTD50*
21,1,0.0316,0.0118,0,0,180.0*
21,1,0.0138,0.0296,0,0,180.0*
1,1,0.0178,-0.0069,0.0059*
1,1,0.0178,0.0069,0.0059*
1,1,0.0178,0.0069,-0.0059*
1,1,0.0178,-0.0069,-0.0059*
%
%ADD50ROUNDEDRECTD50*%
%ADD51R,0.1039X0.0409*%
%ADD52R,0.0154X0.0370*%
%ADD53R,0.0296X0.0808*%
%ADD54R,0.0887X0.1162*%
%ADD55R,0.0493X0.0316*%
%ADD56R,0.0473X0.0137*%
%ADD57R,0.0473X0.0137*%
%ADD58R,0.0137X0.0473*%
%ADD59R,0.0493X0.1320*%
%ADD60R,0.0185X0.0756*%
%ADD61R,0.0173X0.0756*%
%ADD62R,0.0454X0.0493*%
%ADD63R,0.0316X0.0355*%
%ADD64R,0.0729X0.1044*%
%ADD65R,0.0651X0.0572*%
%ADD66R,0.0296X0.0257*%
G04:AMPARAMS|DCode=67|XSize=31.6mil|YSize=29.6mil|CornerRadius=8.9mil|HoleSize=0mil|Usage=FLASHONLY|Rotation=270.000|XOffset=0mil|YOffset=0mil|HoleType=Round|Shape=RoundedRectangle|*
%AMROUNDEDRECTD67*
21,1,0.0316,0.0118,0,0,270.0*
21,1,0.0138,0.0296,0,0,270.0*
1,1,0.0178,-0.0059,-0.0069*
1,1,0.0178,-0.0059,0.0069*
1,1,0.0178,0.0059,0.0069*
1,1,0.0178,0.0059,-0.0069*
%
%ADD67ROUNDEDRECTD67*%
%ADD68R,0.0257X0.0296*%
%ADD69C,0.0300*%
%ADD70C,0.0098*%
%ADD71C,0.0236*%
%ADD72C,0.0079*%
%ADD73C,0.0059*%
%ADD74C,0.0047*%
%ADD75C,0.0039*%
%ADD76C,0.0010*%
%ADD77C,0.0004*%
%ADD78C,0.0006*%
%ADD79R,0.1150X0.0296*%
%ADD80C,0.0020*%
D12*
X0Y1000D02*
G03*
X1000Y0I1000J0D01*
G01*
X1000Y27000D02*
G03*
X0Y26000I0J-1000D01*
G01*
X45000Y0D02*
G03*
X46000Y1000I0J1000D01*
G01*
X46001Y26000D02*
G03*
X45001Y27000I-1000J0D01*
G01*
X1000Y0D02*
X45000Y0D01*
X0Y1000D02*
X0Y26000D01*
X46000Y1000D02*
X46000Y26000D01*
X1000Y27000D02*
X45001Y27000D01*
D75*
X29661Y10929D02*
X30054Y10929D01*
X29857Y10732D02*
X29857Y11126D01*
X30793Y9600D02*
X30793Y12228D01*
X28922Y9600D02*
X28922Y12228D01*
X28922Y9600D02*
X30793Y9600D01*
X28922Y12228D02*
X30793Y12228D01*
X23817Y15067D02*
X23817Y15461D01*
X23620Y15264D02*
X24013Y15264D01*
X8196Y20635D02*
X8590Y20635D01*
X8393Y20438D02*
X8393Y20832D01*
X14764Y15295D02*
X14764Y15689D01*
X19882Y14262D02*
X19882Y16949D01*
X9646Y14262D02*
X9646Y16949D01*
X9646Y14262D02*
X19882Y14262D01*
X9646Y16949D02*
X19882Y16949D01*
X41848Y4626D02*
X42064Y4626D01*
X41956Y4518D02*
X41956Y4735D01*
X10432Y19377D02*
X10826Y19377D01*
X10629Y19181D02*
X10629Y19574D01*
X9999Y18157D02*
X9999Y20598D01*
X11259Y18157D02*
X11259Y20598D01*
X9999Y20598D02*
X11259Y20598D01*
X9999Y18157D02*
X11259Y18157D01*
X41077Y4886D02*
X41293Y4886D01*
X41185Y4777D02*
X41185Y4994D01*
D80*
X24803Y23397D02*
X25197Y23397D01*
X24803Y22609D02*
X25197Y22609D01*
X24803Y22609D02*
X24803Y23397D01*
X25197Y22609D02*
X25197Y23397D01*
X25000Y22875D02*
X25000Y23131D01*
X24872Y23003D02*
X25128Y23003D01*
X21139Y12518D02*
X21139Y16140D01*
X26494Y12518D02*
X26494Y16140D01*
X21139Y12518D02*
X26494Y12518D01*
X21139Y16140D02*
X26494Y16140D01*
X9180Y19946D02*
X9180Y21324D01*
X7606Y19946D02*
X7606Y21324D01*
X9180Y21324D01*
X7606Y19946D02*
X9180Y19946D01*
X31059Y11457D02*
X31059Y11850D01*
X31847Y11850D02*
X31847Y11457D01*
X31059Y11457D02*
X31847Y11457D01*
X31059Y11850D02*
X31847Y11850D01*
X31325Y11654D02*
X31581Y11654D01*
X31453Y11526D02*
X31453Y11782D01*
X11004Y17482D02*
X11004Y17876D01*
X11791Y17482D02*
X11791Y17876D01*
X11004Y17482D02*
X11791Y17482D01*
X11004Y17876D02*
X11791Y17876D01*
X11270Y17679D02*
X11526Y17679D01*
X11398Y17551D02*
X11398Y17807D01*
X30909Y7756D02*
X30909Y8150D01*
X31697Y7756D02*
X31697Y8150D01*
X30909Y7756D02*
X31697Y7756D01*
X30909Y8150D02*
X31697Y8150D01*
X31175Y7953D02*
X31431Y7953D01*
X31303Y7825D02*
X31303Y8081D01*
X35409Y14528D02*
X35802Y14528D01*
X35409Y13740D02*
X35802Y13740D01*
X35409Y13740D02*
X35409Y14528D01*
X35802Y13740D02*
X35802Y14528D01*
X35606Y14006D02*
X35606Y14262D01*
X35478Y14134D02*
X35733Y14134D01*
X37944Y5535D02*
X38338Y5535D01*
X37944Y6323D02*
X38338Y6323D01*
X38338Y5535D02*
X38338Y6323D01*
X37944Y5535D02*
X37944Y6323D01*
X38141Y5801D02*
X38141Y6057D01*
X38013Y5929D02*
X38269Y5929D01*
X36333Y5509D02*
X36727Y5509D01*
X36333Y6297D02*
X36727Y6297D01*
X36727Y5509D02*
X36727Y6297D01*
X36333Y5509D02*
X36333Y6297D01*
X36530Y5775D02*
X36530Y6031D01*
X36402Y5903D02*
X36658Y5903D01*
X30759Y9103D02*
X30759Y9497D01*
X31547Y9103D02*
X31547Y9497D01*
X30759Y9103D02*
X31547Y9103D01*
X30759Y9497D02*
X31547Y9497D01*
X31025Y9300D02*
X31281Y9300D01*
X31153Y9172D02*
X31153Y9428D01*
X33204Y14528D02*
X33598Y14528D01*
X33204Y13740D02*
X33598Y13740D01*
X33204Y13740D02*
X33204Y14528D01*
X33598Y13740D02*
X33598Y14528D01*
X33401Y14006D02*
X33401Y14262D01*
X33273Y14134D02*
X33529Y14134D01*
X39046Y13829D02*
X39440Y13829D01*
X39046Y13042D02*
X39440Y13042D01*
X39046Y13042D02*
X39046Y13829D01*
X39440Y13042D02*
X39440Y13829D01*
X39243Y13308D02*
X39243Y13564D01*
X39115Y13436D02*
X39371Y13436D01*
X40341Y10748D02*
X40341Y11142D01*
X39553Y10748D02*
X39553Y11142D01*
X40341Y11142D01*
X39553Y10748D02*
X40341Y10748D01*
X39819Y10945D02*
X40075Y10945D01*
X39947Y10817D02*
X39947Y11073D01*
X29933Y7584D02*
X30327Y7584D01*
X29933Y6797D02*
X30327Y6797D01*
X29933Y6797D02*
X29933Y7584D01*
X30327Y6797D02*
X30327Y7584D01*
X30130Y7063D02*
X30130Y7319D01*
X30002Y7191D02*
X30258Y7191D01*
X29933Y6797D02*
X30327Y6797D01*
X29933Y6009D02*
X30327Y6009D01*
X29933Y6009D02*
X29933Y6797D01*
X30327Y6009D02*
X30327Y6797D01*
X30130Y6275D02*
X30130Y6531D01*
X30002Y6403D02*
X30258Y6403D01*
X7724Y18407D02*
X8117Y18407D01*
X7724Y17619D02*
X8117Y17619D01*
X7724Y17619D02*
X7724Y18407D01*
X8117Y17619D02*
X8117Y18407D01*
X7920Y17885D02*
X7920Y18141D01*
X7793Y18013D02*
X8048Y18013D01*
X8669Y18407D02*
X9062Y18407D01*
X8669Y17619D02*
X9062Y17619D01*
X8669Y17619D02*
X8669Y18407D01*
X9062Y17619D02*
X9062Y18407D01*
X8865Y17885D02*
X8865Y18141D01*
X8737Y18013D02*
X8993Y18013D01*
X27793Y22609D02*
X28187Y22609D01*
X27793Y23397D02*
X28187Y23397D01*
X28187Y22609D02*
X28187Y23397D01*
X27793Y22609D02*
X27793Y23397D01*
X27990Y22875D02*
X27990Y23131D01*
X27862Y23003D02*
X28118Y23003D01*
X26803Y22609D02*
X27197Y22609D01*
X26803Y23397D02*
X27197Y23397D01*
X27197Y22609D02*
X27197Y23397D01*
X26803Y22609D02*
X26803Y23397D01*
X27000Y22875D02*
X27000Y23131D01*
X26872Y23003D02*
X27128Y23003D01*
X25803Y22609D02*
X26197Y22609D01*
X25803Y23397D02*
X26197Y23397D01*
X26197Y22609D02*
X26197Y23397D01*
X25803Y22609D02*
X25803Y23397D01*
X26000Y22875D02*
X26000Y23131D01*
X25872Y23003D02*
X26128Y23003D01*
M02*
