%FSLAX24Y24*%
%MOIN*%
G70*
G01*
G75*
%ADD10C,0.0060*%
%ADD11C,0.0150*%
%ADD12C,0.0394*%
%ADD13C,0.0591*%
%ADD14C,0.0600*%
%ADD15C,0.0240*%
%ADD16C,0.0400*%
%ADD17C,0.0640*%
G04:AMPARAMS|DCode=18|XSize=80mil|YSize=80mil|CornerRadius=0mil|HoleSize=0mil|Usage=FLASHONLY|Rotation=0.000|XOffset=0mil|YOffset=0mil|HoleType=Round|Shape=Relief|Width=8mil|Gap=10mil|Entries=4|*
%AMTHD18*
7,0,0,0.0800,0.0600,0.0080,45*
%
%ADD18THD18*%
%ADD19C,0.1490*%
%ADD20C,0.0340*%
G04:AMPARAMS|DCode=21|XSize=50mil|YSize=50mil|CornerRadius=0mil|HoleSize=0mil|Usage=FLASHONLY|Rotation=0.000|XOffset=0mil|YOffset=0mil|HoleType=Round|Shape=Relief|Width=8mil|Gap=10mil|Entries=4|*
%AMTHD21*
7,0,0,0.0500,0.0300,0.0080,45*
%
%ADD21THD21*%
%ADD22R,0.0551X0.0709*%
G04:AMPARAMS|DCode=23|XSize=25.6mil|YSize=23.6mil|CornerRadius=5.9mil|HoleSize=0mil|Usage=FLASHONLY|Rotation=180.000|XOffset=0mil|YOffset=0mil|HoleType=Round|Shape=RoundedRectangle|*
%AMROUNDEDRECTD23*
21,1,0.0256,0.0118,0,0,180.0*
21,1,0.0138,0.0236,0,0,180.0*
1,1,0.0118,-0.0069,0.0059*
1,1,0.0118,0.0069,0.0059*
1,1,0.0118,0.0069,-0.0059*
1,1,0.0118,-0.0069,-0.0059*
%
%ADD23ROUNDEDRECTD23*%
%ADD24R,0.0984X0.0354*%
%ADD25R,0.0098X0.0315*%
%ADD26R,0.0236X0.0748*%
%ADD27R,0.0827X0.1102*%
%ADD28R,0.0433X0.0256*%
%ADD29R,0.0433X0.0097*%
%ADD30R,0.0433X0.0097*%
%ADD31R,0.0097X0.0433*%
%ADD32R,0.0433X0.1260*%
%ADD33R,0.0138X0.0709*%
%ADD34R,0.0126X0.0709*%
%ADD35R,0.0394X0.0433*%
%ADD36R,0.0256X0.0295*%
%ADD37R,0.0669X0.0984*%
%ADD38R,0.0591X0.0512*%
%ADD39R,0.0236X0.0197*%
G04:AMPARAMS|DCode=40|XSize=25.6mil|YSize=23.6mil|CornerRadius=5.9mil|HoleSize=0mil|Usage=FLASHONLY|Rotation=270.000|XOffset=0mil|YOffset=0mil|HoleType=Round|Shape=RoundedRectangle|*
%AMROUNDEDRECTD40*
21,1,0.0256,0.0118,0,0,270.0*
21,1,0.0138,0.0236,0,0,270.0*
1,1,0.0118,-0.0059,-0.0069*
1,1,0.0118,-0.0059,0.0069*
1,1,0.0118,0.0059,0.0069*
1,1,0.0118,0.0059,-0.0069*
%
%ADD40ROUNDEDRECTD40*%
%ADD41R,0.0197X0.0236*%
%ADD42C,0.0100*%
%ADD43C,0.0120*%
%ADD44C,0.0200*%
%ADD45C,0.0140*%
D12*
X0Y1000D02*
G03*
X1000Y0I1000J0D01*
G01*
X1000Y27000D02*
G03*
X0Y26000I0J-1000D01*
G01*
X45000Y0D02*
G03*
X46000Y1000I0J1000D01*
G01*
X46001Y26000D02*
G03*
X45001Y27000I-1000J0D01*
G01*
X1000Y0D02*
X45000Y0D01*
X0Y1000D02*
X0Y26000D01*
X46000Y1000D02*
X46000Y26000D01*
X1000Y27000D02*
X45001Y27000D01*
D13*
X1500Y17600D02*
D03*
X1500Y16600D02*
D03*
X1500Y15600D02*
D03*
X1500Y12600D02*
D03*
X1500Y13600D02*
D03*
X1500Y14600D02*
D03*
X2500Y14600D02*
D03*
X2500Y13600D02*
D03*
X2500Y12600D02*
D03*
X2500Y15600D02*
D03*
X2500Y16600D02*
D03*
X2500Y17600D02*
D03*
X1500Y8600D02*
D03*
X1500Y7600D02*
D03*
X1500Y6600D02*
D03*
X1500Y3600D02*
D03*
X1500Y4600D02*
D03*
X1500Y5600D02*
D03*
X2500Y5600D02*
D03*
X2500Y4600D02*
D03*
X2500Y3600D02*
D03*
X2500Y6600D02*
D03*
X2500Y7600D02*
D03*
X2500Y8600D02*
D03*
D14*
X13000Y26000D02*
D03*
X14000Y26000D02*
D03*
X15000Y26000D02*
D03*
X16000Y26000D02*
D03*
X17000Y26000D02*
D03*
X18000Y26000D02*
D03*
X23000Y26000D02*
D03*
X24000Y26000D02*
D03*
X25000Y26000D02*
D03*
X26000Y26000D02*
D03*
X27000Y26000D02*
D03*
X28000Y26000D02*
D03*
M02*
