%FSLAX24Y24*%
%MOIN*%
G70*
G01*
G75*
G04 Layer_Color=32768*
%ADD10C,0.0060*%
%ADD11C,0.0150*%
%ADD12C,0.0394*%
%ADD13C,0.0591*%
%ADD14C,0.0600*%
%ADD15C,0.0240*%
%ADD16C,0.0400*%
%ADD17C,0.0640*%
G04:AMPARAMS|DCode=18|XSize=80mil|YSize=80mil|CornerRadius=0mil|HoleSize=0mil|Usage=FLASHONLY|Rotation=0.000|XOffset=0mil|YOffset=0mil|HoleType=Round|Shape=Relief|Width=8mil|Gap=10mil|Entries=4|*
%AMTHD18*
7,0,0,0.0800,0.0600,0.0080,45*
%
%ADD18THD18*%
%ADD19C,0.1490*%
%ADD20C,0.0340*%
G04:AMPARAMS|DCode=21|XSize=50mil|YSize=50mil|CornerRadius=0mil|HoleSize=0mil|Usage=FLASHONLY|Rotation=0.000|XOffset=0mil|YOffset=0mil|HoleType=Round|Shape=Relief|Width=8mil|Gap=10mil|Entries=4|*
%AMTHD21*
7,0,0,0.0500,0.0300,0.0080,45*
%
%ADD21THD21*%
%ADD22R,0.0551X0.0709*%
G04:AMPARAMS|DCode=23|XSize=25.6mil|YSize=23.6mil|CornerRadius=5.9mil|HoleSize=0mil|Usage=FLASHONLY|Rotation=180.000|XOffset=0mil|YOffset=0mil|HoleType=Round|Shape=RoundedRectangle|*
%AMROUNDEDRECTD23*
21,1,0.0256,0.0118,0,0,180.0*
21,1,0.0138,0.0236,0,0,180.0*
1,1,0.0118,-0.0069,0.0059*
1,1,0.0118,0.0069,0.0059*
1,1,0.0118,0.0069,-0.0059*
1,1,0.0118,-0.0069,-0.0059*
%
%ADD23ROUNDEDRECTD23*%
%ADD24R,0.0984X0.0354*%
%ADD25R,0.0098X0.0315*%
%ADD26R,0.0236X0.0748*%
%ADD27R,0.0827X0.1102*%
%ADD28R,0.0433X0.0256*%
%ADD29R,0.0433X0.0097*%
%ADD30R,0.0433X0.0097*%
%ADD31R,0.0097X0.0433*%
%ADD32R,0.0433X0.1260*%
%ADD33R,0.0138X0.0709*%
%ADD34R,0.0126X0.0709*%
%ADD35R,0.0394X0.0433*%
%ADD36R,0.0256X0.0295*%
%ADD37R,0.0669X0.0984*%
%ADD38R,0.0591X0.0512*%
%ADD39R,0.0236X0.0197*%
G04:AMPARAMS|DCode=40|XSize=25.6mil|YSize=23.6mil|CornerRadius=5.9mil|HoleSize=0mil|Usage=FLASHONLY|Rotation=270.000|XOffset=0mil|YOffset=0mil|HoleType=Round|Shape=RoundedRectangle|*
%AMROUNDEDRECTD40*
21,1,0.0256,0.0118,0,0,270.0*
21,1,0.0138,0.0236,0,0,270.0*
1,1,0.0118,-0.0059,-0.0069*
1,1,0.0118,-0.0059,0.0069*
1,1,0.0118,0.0059,0.0069*
1,1,0.0118,0.0059,-0.0069*
%
%ADD40ROUNDEDRECTD40*%
%ADD41R,0.0197X0.0236*%
%ADD42C,0.0100*%
%ADD43C,0.0120*%
%ADD44C,0.0200*%
%ADD45C,0.0140*%
%ADD46C,0.0651*%
%ADD47C,0.0030*%
%ADD48C,0.0660*%
%ADD49R,0.0611X0.0769*%
G04:AMPARAMS|DCode=50|XSize=31.6mil|YSize=29.6mil|CornerRadius=8.9mil|HoleSize=0mil|Usage=FLASHONLY|Rotation=180.000|XOffset=0mil|YOffset=0mil|HoleType=Round|Shape=RoundedRectangle|*
%AMROUNDEDRECTD50*
21,1,0.0316,0.0118,0,0,180.0*
21,1,0.0138,0.0296,0,0,180.0*
1,1,0.0178,-0.0069,0.0059*
1,1,0.0178,0.0069,0.0059*
1,1,0.0178,0.0069,-0.0059*
1,1,0.0178,-0.0069,-0.0059*
%
%ADD50ROUNDEDRECTD50*%
%ADD51R,0.1039X0.0409*%
%ADD52R,0.0154X0.0370*%
%ADD53R,0.0296X0.0808*%
%ADD54R,0.0887X0.1162*%
%ADD55R,0.0493X0.0316*%
%ADD56R,0.0473X0.0137*%
%ADD57R,0.0473X0.0137*%
%ADD58R,0.0137X0.0473*%
%ADD59R,0.0493X0.1320*%
%ADD60R,0.0185X0.0756*%
%ADD61R,0.0173X0.0756*%
%ADD62R,0.0454X0.0493*%
%ADD63R,0.0316X0.0355*%
%ADD64R,0.0729X0.1044*%
%ADD65R,0.0651X0.0572*%
%ADD66R,0.0296X0.0257*%
G04:AMPARAMS|DCode=67|XSize=31.6mil|YSize=29.6mil|CornerRadius=8.9mil|HoleSize=0mil|Usage=FLASHONLY|Rotation=270.000|XOffset=0mil|YOffset=0mil|HoleType=Round|Shape=RoundedRectangle|*
%AMROUNDEDRECTD67*
21,1,0.0316,0.0118,0,0,270.0*
21,1,0.0138,0.0296,0,0,270.0*
1,1,0.0178,-0.0059,-0.0069*
1,1,0.0178,-0.0059,0.0069*
1,1,0.0178,0.0059,0.0069*
1,1,0.0178,0.0059,-0.0069*
%
%ADD67ROUNDEDRECTD67*%
%ADD68R,0.0257X0.0296*%
%ADD69C,0.0300*%
%ADD70C,0.0098*%
%ADD71C,0.0236*%
%ADD72C,0.0079*%
%ADD73C,0.0059*%
%ADD74C,0.0047*%
%ADD75C,0.0039*%
%ADD76C,0.0010*%
%ADD77C,0.0004*%
%ADD78C,0.0006*%
D10*
X7995Y22521D02*
G03*
X7995Y22521I-70J0D01*
G01*
X42284Y7484D02*
G03*
X42284Y7484I-70J0D01*
G01*
X42196Y5871D02*
X41996Y5871D01*
X42096Y5871D01*
X42096Y5571D01*
X41896Y5571D02*
X41896Y5871D01*
X41746Y5871D01*
X41696Y5821D01*
X41696Y5721D01*
X41746Y5671D01*
X41896Y5671D01*
X41396Y5821D02*
X41446Y5871D01*
X41546Y5871D01*
X41596Y5821D01*
X41596Y5771D01*
X41546Y5721D01*
X41446Y5721D01*
X41396Y5671D01*
X41396Y5621D01*
X41446Y5571D01*
X41546Y5571D01*
X41596Y5621D01*
X41096Y5871D02*
X41196Y5821D01*
X41296Y5721D01*
X41296Y5621D01*
X41246Y5571D01*
X41146Y5571D01*
X41096Y5621D01*
X41096Y5671D01*
X41146Y5721D01*
X41296Y5721D01*
X40797Y5571D02*
X40996Y5571D01*
X40797Y5771D01*
X40797Y5821D01*
X40847Y5871D01*
X40946Y5871D01*
X40996Y5821D01*
X40697Y5821D02*
X40647Y5871D01*
X40547Y5871D01*
X40497Y5821D01*
X40497Y5621D01*
X40547Y5571D01*
X40647Y5571D01*
X40697Y5621D01*
X40697Y5821D01*
X40397Y5821D02*
X40347Y5871D01*
X40247Y5871D01*
X40197Y5821D01*
X40197Y5771D01*
X40247Y5721D01*
X40197Y5671D01*
X40197Y5621D01*
X40247Y5571D01*
X40347Y5571D01*
X40397Y5621D01*
X40397Y5671D01*
X40347Y5721D01*
X40397Y5771D01*
X40397Y5821D01*
X40347Y5721D02*
X40247Y5721D01*
X40097Y5821D02*
X40047Y5871D01*
X39947Y5871D01*
X39897Y5821D01*
X39897Y5621D01*
X39947Y5571D01*
X40047Y5571D01*
X40097Y5621D01*
X40097Y5821D01*
X42184Y6438D02*
X42184Y6188D01*
X42134Y6138D01*
X42034Y6138D01*
X41984Y6188D01*
X41984Y6438D01*
X41684Y6138D02*
X41884Y6138D01*
X41684Y6338D01*
X41684Y6388D01*
X41734Y6438D01*
X41834Y6438D01*
X41884Y6388D01*
D12*
X0Y1000D02*
G03*
X1000Y0I1000J0D01*
G01*
X1000Y27000D02*
G03*
X0Y26000I0J-1000D01*
G01*
X45000Y0D02*
G03*
X46000Y1000I0J1000D01*
G01*
X46001Y26000D02*
G03*
X45001Y27000I-1000J0D01*
G01*
X1000Y0D02*
X45000Y0D01*
X0Y1000D02*
X0Y26000D01*
X46000Y1000D02*
X46000Y26000D01*
X1000Y27000D02*
X45001Y27000D01*
D75*
X41999Y5906D02*
G03*
X41999Y5906I-142J0D01*
G01*
X41444Y5492D02*
X42271Y5492D01*
X41444Y6319D02*
X42271Y6319D01*
X41444Y5492D02*
X41444Y6319D01*
X42271Y5492D02*
X42271Y6319D01*
X7645Y21895D02*
X7645Y23135D01*
X9151Y21895D02*
X9151Y23135D01*
X7645Y21895D02*
X9151Y21895D01*
X7645Y23135D02*
X9151Y23135D01*
X8393Y22328D02*
X8393Y22722D01*
X8196Y22525D02*
X8590Y22525D01*
X42494Y6870D02*
X42494Y8110D01*
X40988Y6870D02*
X40988Y8110D01*
X42494Y8110D01*
X40988Y6870D02*
X42494Y6870D01*
X41746Y7283D02*
X41746Y7677D01*
X41549Y7480D02*
X41942Y7480D01*
D76*
X24882Y22737D02*
X25118Y22737D01*
X25118Y23269D01*
X24882Y23269D02*
X25118Y23269D01*
X24882Y22737D02*
X24882Y23269D01*
X41838Y4894D02*
X42074Y4894D01*
X41838Y4363D02*
X41838Y4894D01*
X41838Y4363D02*
X42074Y4363D01*
X42074Y4894D01*
X6072Y21283D02*
X6594Y21283D01*
X6072Y20279D02*
X6072Y21283D01*
X6072Y20279D02*
X6594Y20279D01*
X6594Y21283D01*
X9444Y18523D02*
X9680Y18523D01*
X9680Y19054D01*
X9444Y19054D02*
X9680Y19054D01*
X9444Y18523D02*
X9444Y19054D01*
X31719Y11535D02*
X31719Y11772D01*
X31187Y11772D02*
X31719Y11772D01*
X31187Y11535D02*
X31187Y11772D01*
X31187Y11535D02*
X31719Y11535D01*
X3571Y12533D02*
X4093Y12533D01*
X4093Y13537D01*
X3571Y13537D02*
X4093Y13537D01*
X3571Y12533D02*
X3571Y13537D01*
X4516Y12533D02*
X5038Y12533D01*
X5038Y13537D01*
X4516Y13537D02*
X5038Y13537D01*
X4516Y12533D02*
X4516Y13537D01*
X3571Y3526D02*
X4093Y3526D01*
X4093Y4530D01*
X3571Y4530D02*
X4093Y4530D01*
X3571Y3526D02*
X3571Y4530D01*
X4516Y3526D02*
X5038Y3526D01*
X5038Y4530D01*
X4516Y4530D02*
X5038Y4530D01*
X4516Y3526D02*
X4516Y4530D01*
X11663Y17561D02*
X11663Y17797D01*
X11132Y17797D02*
X11663Y17797D01*
X11132Y17561D02*
X11132Y17797D01*
X11132Y17561D02*
X11663Y17561D01*
X29593Y9075D02*
X29593Y9311D01*
X29593Y9075D02*
X30125Y9075D01*
X30125Y9311D01*
X29593Y9311D02*
X30125Y9311D01*
X30114Y12436D02*
X30114Y12672D01*
X29583Y12672D02*
X30114Y12672D01*
X29583Y12436D02*
X29583Y12672D01*
X29583Y12436D02*
X30114Y12436D01*
X39570Y11295D02*
X39570Y11531D01*
X39570Y11295D02*
X40101Y11295D01*
X40101Y11531D01*
X39570Y11531D02*
X40101Y11531D01*
X32499Y12893D02*
X32736Y12893D01*
X32736Y13425D01*
X32499Y13425D02*
X32736Y13425D01*
X32499Y12893D02*
X32499Y13425D01*
X34247Y13870D02*
X34484Y13870D01*
X34484Y14401D01*
X34247Y14401D02*
X34484Y14401D01*
X34247Y13870D02*
X34247Y14401D01*
X36767Y13830D02*
X37003Y13830D01*
X37003Y14362D01*
X36767Y14362D02*
X37003Y14362D01*
X36767Y13830D02*
X36767Y14362D01*
X32775Y7051D02*
X32775Y7287D01*
X32244Y7287D02*
X32775Y7287D01*
X32244Y7051D02*
X32244Y7287D01*
X32244Y7051D02*
X32775Y7051D01*
X33231Y6288D02*
X33468Y6288D01*
X33231Y5756D02*
X33231Y6288D01*
X33231Y5756D02*
X33468Y5756D01*
X33468Y6288D01*
X34664Y6130D02*
X34901Y6130D01*
X34664Y5599D02*
X34664Y6130D01*
X34664Y5599D02*
X34901Y5599D01*
X34901Y6130D01*
X35956Y6288D02*
X36192Y6288D01*
X35956Y5756D02*
X35956Y6288D01*
X35956Y5756D02*
X36192Y5756D01*
X36192Y6288D01*
X37231Y6288D02*
X37468Y6288D01*
X37231Y5756D02*
X37231Y6288D01*
X37231Y5756D02*
X37468Y5756D01*
X37468Y6288D01*
X38169Y13870D02*
X38405Y13870D01*
X38405Y14401D01*
X38169Y14401D02*
X38405Y14401D01*
X38169Y13870D02*
X38169Y14401D01*
X39783Y9498D02*
X39783Y9734D01*
X39783Y9498D02*
X40314Y9498D01*
X40314Y9734D01*
X39783Y9734D02*
X40314Y9734D01*
X39286Y8193D02*
X39286Y8429D01*
X39286Y8193D02*
X39818Y8193D01*
X39818Y8429D01*
X39286Y8429D02*
X39818Y8429D01*
X31569Y7835D02*
X31569Y8071D01*
X31037Y8071D02*
X31569Y8071D01*
X31037Y7835D02*
X31037Y8071D01*
X31037Y7835D02*
X31569Y7835D01*
X35487Y13868D02*
X35724Y13868D01*
X35724Y14400D01*
X35487Y14400D02*
X35724Y14400D01*
X35487Y13868D02*
X35487Y14400D01*
X38023Y6195D02*
X38259Y6195D01*
X38023Y5663D02*
X38023Y6195D01*
X38023Y5663D02*
X38259Y5663D01*
X38259Y6195D01*
X36412Y6169D02*
X36648Y6169D01*
X36412Y5637D02*
X36412Y6169D01*
X36412Y5637D02*
X36648Y5637D01*
X36648Y6169D01*
X31419Y9182D02*
X31419Y9418D01*
X30887Y9418D02*
X31419Y9418D01*
X30887Y9182D02*
X30887Y9418D01*
X30887Y9182D02*
X31419Y9182D01*
X33283Y13868D02*
X33519Y13868D01*
X33519Y14400D01*
X33283Y14400D02*
X33519Y14400D01*
X33283Y13868D02*
X33283Y14400D01*
X39125Y13170D02*
X39361Y13170D01*
X39361Y13701D01*
X39125Y13701D02*
X39361Y13701D01*
X39125Y13170D02*
X39125Y13701D01*
X39681Y10827D02*
X39681Y11063D01*
X39681Y10827D02*
X40213Y10827D01*
X40213Y11063D01*
X39681Y11063D02*
X40213Y11063D01*
X31862Y10122D02*
X31862Y10358D01*
X31330Y10358D02*
X31862Y10358D01*
X31330Y10122D02*
X31330Y10358D01*
X31330Y10122D02*
X31862Y10122D01*
X43081Y6616D02*
X43603Y6616D01*
X43081Y5612D02*
X43081Y6616D01*
X43081Y5612D02*
X43603Y5612D01*
X43603Y6616D01*
X42603Y6403D02*
X42839Y6403D01*
X42603Y5871D02*
X42603Y6403D01*
X42603Y5871D02*
X42839Y5871D01*
X42839Y6403D01*
X40331Y6576D02*
X40853Y6576D01*
X40331Y5572D02*
X40331Y6576D01*
X40331Y5572D02*
X40853Y5572D01*
X40853Y6576D01*
X7011Y21088D02*
X7247Y21088D01*
X7011Y20557D02*
X7011Y21088D01*
X7011Y20557D02*
X7247Y20557D01*
X7247Y21088D01*
X30012Y6925D02*
X30248Y6925D01*
X30248Y7456D01*
X30012Y7456D02*
X30248Y7456D01*
X30012Y6925D02*
X30012Y7456D01*
X30012Y6137D02*
X30248Y6137D01*
X30248Y6669D01*
X30012Y6669D02*
X30248Y6669D01*
X30012Y6137D02*
X30012Y6669D01*
X41067Y4618D02*
X41303Y4618D01*
X41303Y5149D01*
X41067Y5149D02*
X41303Y5149D01*
X41067Y4618D02*
X41067Y5149D01*
X7802Y17747D02*
X8039Y17747D01*
X8039Y18279D01*
X7802Y18279D02*
X8039Y18279D01*
X7802Y17747D02*
X7802Y18279D01*
X8747Y17747D02*
X8983Y17747D01*
X8983Y18279D01*
X8747Y18279D02*
X8983Y18279D01*
X8747Y17747D02*
X8747Y18279D01*
X27872Y23269D02*
X28108Y23269D01*
X27872Y22737D02*
X27872Y23269D01*
X27872Y22737D02*
X28108Y22737D01*
X28108Y23269D01*
X26882Y23269D02*
X27118Y23269D01*
X26882Y22737D02*
X26882Y23269D01*
X26882Y22737D02*
X27118Y22737D01*
X27118Y23269D01*
X25882Y23269D02*
X26118Y23269D01*
X25882Y22737D02*
X25882Y23269D01*
X25882Y22737D02*
X26118Y22737D01*
X26118Y23269D01*
D77*
X24970Y23239D02*
X24915Y23239D01*
X24915Y23212D01*
X24925Y23203D01*
X24943Y23203D01*
X24952Y23212D01*
X24952Y23239D01*
X24952Y23221D02*
X24970Y23203D01*
X24970Y23184D02*
X24970Y23166D01*
X24970Y23175D01*
X24915Y23175D01*
X24925Y23184D01*
X24925Y23138D02*
X24915Y23129D01*
X24915Y23111D01*
X24925Y23102D01*
X24961Y23102D01*
X24970Y23111D01*
X24970Y23129D01*
X24961Y23138D01*
X24925Y23138D01*
X25079Y23239D02*
X25024Y23239D01*
X25024Y23212D01*
X25033Y23203D01*
X25051Y23203D01*
X25060Y23212D01*
X25060Y23239D01*
X25060Y23221D02*
X25079Y23203D01*
X25088Y23184D02*
X25088Y23148D01*
X25033Y23129D02*
X25024Y23120D01*
X25024Y23102D01*
X25033Y23092D01*
X25070Y23092D01*
X25079Y23102D01*
X25079Y23120D01*
X25070Y23129D01*
X25033Y23129D01*
X25079Y23047D02*
X25024Y23047D01*
X25051Y23074D01*
X25051Y23037D01*
X25033Y23019D02*
X25024Y23010D01*
X25024Y22991D01*
X25033Y22982D01*
X25070Y22982D01*
X25079Y22991D01*
X25079Y23010D01*
X25070Y23019D01*
X25033Y23019D01*
X25079Y22927D02*
X25079Y22964D01*
X25042Y22927D01*
X25033Y22927D01*
X25024Y22936D01*
X25024Y22955D01*
X25033Y22964D01*
X25088Y22909D02*
X25088Y22872D01*
X25079Y22854D02*
X25079Y22835D01*
X25079Y22844D01*
X25024Y22844D01*
X25033Y22854D01*
X25033Y22808D02*
X25024Y22799D01*
X25024Y22780D01*
X25033Y22771D01*
X25070Y22771D01*
X25079Y22780D01*
X25079Y22799D01*
X25070Y22808D01*
X25033Y22808D01*
X25079Y22753D02*
X25070Y22753D01*
X25070Y22743D01*
X25079Y22743D01*
X25079Y22753D01*
X25033Y22707D02*
X25024Y22698D01*
X25024Y22679D01*
X25033Y22670D01*
X25070Y22670D01*
X25079Y22679D01*
X25079Y22698D01*
X25070Y22707D01*
X25033Y22707D01*
X25024Y22652D02*
X25079Y22652D01*
X25060Y22652D01*
X25024Y22615D01*
X25051Y22642D01*
X25079Y22615D01*
X41985Y4392D02*
X42040Y4392D01*
X42040Y4420D01*
X42031Y4429D01*
X42013Y4429D01*
X42004Y4420D01*
X42004Y4392D01*
X42004Y4411D02*
X41985Y4429D01*
X41985Y4475D02*
X42040Y4475D01*
X42013Y4447D01*
X42013Y4484D01*
X41877Y4392D02*
X41932Y4392D01*
X41932Y4420D01*
X41923Y4429D01*
X41905Y4429D01*
X41895Y4420D01*
X41895Y4392D01*
X41895Y4411D02*
X41877Y4429D01*
X41868Y4447D02*
X41868Y4484D01*
X41923Y4502D02*
X41932Y4512D01*
X41932Y4530D01*
X41923Y4539D01*
X41886Y4539D01*
X41877Y4530D01*
X41877Y4512D01*
X41886Y4502D01*
X41923Y4502D01*
X41877Y4585D02*
X41932Y4585D01*
X41905Y4557D01*
X41905Y4594D01*
X41923Y4613D02*
X41932Y4622D01*
X41932Y4640D01*
X41923Y4649D01*
X41886Y4649D01*
X41877Y4640D01*
X41877Y4622D01*
X41886Y4613D01*
X41923Y4613D01*
X41877Y4704D02*
X41877Y4668D01*
X41914Y4704D01*
X41923Y4704D01*
X41932Y4695D01*
X41932Y4677D01*
X41923Y4668D01*
X41868Y4723D02*
X41868Y4760D01*
X41923Y4778D02*
X41932Y4787D01*
X41932Y4805D01*
X41923Y4815D01*
X41914Y4815D01*
X41905Y4805D01*
X41905Y4796D01*
X41905Y4805D01*
X41895Y4815D01*
X41886Y4815D01*
X41877Y4805D01*
X41877Y4787D01*
X41886Y4778D01*
X41886Y4833D02*
X41877Y4842D01*
X41877Y4861D01*
X41886Y4870D01*
X41923Y4870D01*
X41932Y4861D01*
X41932Y4842D01*
X41923Y4833D01*
X41914Y4833D01*
X41905Y4842D01*
X41905Y4870D01*
X41877Y4888D02*
X41886Y4888D01*
X41886Y4897D01*
X41877Y4897D01*
X41877Y4888D01*
X41877Y4971D02*
X41877Y4934D01*
X41914Y4971D01*
X41923Y4971D01*
X41932Y4962D01*
X41932Y4943D01*
X41923Y4934D01*
X41932Y4989D02*
X41877Y4989D01*
X41895Y4989D01*
X41932Y5026D01*
X41905Y4998D01*
X41877Y5026D01*
X9487Y18988D02*
X9478Y18997D01*
X9478Y19016D01*
X9487Y19025D01*
X9524Y19025D01*
X9533Y19016D01*
X9533Y18997D01*
X9524Y18988D01*
X9487Y18970D02*
X9478Y18960D01*
X9478Y18942D01*
X9487Y18933D01*
X9496Y18933D01*
X9505Y18942D01*
X9505Y18951D01*
X9505Y18942D01*
X9514Y18933D01*
X9524Y18933D01*
X9533Y18942D01*
X9533Y18960D01*
X9524Y18970D01*
X9478Y18878D02*
X9478Y18915D01*
X9505Y18915D01*
X9496Y18896D01*
X9496Y18887D01*
X9505Y18878D01*
X9524Y18878D01*
X9533Y18887D01*
X9533Y18905D01*
X9524Y18915D01*
X9595Y18988D02*
X9586Y18997D01*
X9586Y19016D01*
X9595Y19025D01*
X9632Y19025D01*
X9641Y19016D01*
X9641Y18997D01*
X9632Y18988D01*
X9650Y18970D02*
X9650Y18933D01*
X9595Y18915D02*
X9586Y18905D01*
X9586Y18887D01*
X9595Y18878D01*
X9632Y18878D01*
X9641Y18887D01*
X9641Y18905D01*
X9632Y18915D01*
X9595Y18915D01*
X9641Y18832D02*
X9586Y18832D01*
X9613Y18859D01*
X9613Y18823D01*
X9595Y18804D02*
X9586Y18795D01*
X9586Y18777D01*
X9595Y18768D01*
X9632Y18768D01*
X9641Y18777D01*
X9641Y18795D01*
X9632Y18804D01*
X9595Y18804D01*
X9641Y18712D02*
X9641Y18749D01*
X9604Y18712D01*
X9595Y18712D01*
X9586Y18722D01*
X9586Y18740D01*
X9595Y18749D01*
X9650Y18694D02*
X9650Y18657D01*
X9641Y18602D02*
X9641Y18639D01*
X9604Y18602D01*
X9595Y18602D01*
X9586Y18611D01*
X9586Y18630D01*
X9595Y18639D01*
X9641Y18584D02*
X9632Y18584D01*
X9632Y18575D01*
X9641Y18575D01*
X9641Y18584D01*
X9641Y18501D02*
X9641Y18538D01*
X9604Y18501D01*
X9595Y18501D01*
X9586Y18510D01*
X9586Y18529D01*
X9595Y18538D01*
X9604Y18483D02*
X9632Y18483D01*
X9641Y18474D01*
X9641Y18446D01*
X9604Y18446D01*
X9586Y18391D02*
X9586Y18428D01*
X9613Y18428D01*
X9613Y18409D01*
X9613Y18428D01*
X9641Y18428D01*
X9650Y18373D02*
X9650Y18336D01*
X9595Y18318D02*
X9586Y18308D01*
X9586Y18290D01*
X9595Y18281D01*
X9604Y18281D01*
X9613Y18290D01*
X9613Y18299D01*
X9613Y18290D01*
X9623Y18281D01*
X9632Y18281D01*
X9641Y18290D01*
X9641Y18308D01*
X9632Y18318D01*
X9586Y18226D02*
X9586Y18263D01*
X9613Y18263D01*
X9604Y18244D01*
X9604Y18235D01*
X9613Y18226D01*
X9632Y18226D01*
X9641Y18235D01*
X9641Y18253D01*
X9632Y18263D01*
X9586Y18207D02*
X9623Y18207D01*
X9641Y18189D01*
X9623Y18171D01*
X9586Y18171D01*
X31254Y11578D02*
X31244Y11569D01*
X31226Y11569D01*
X31217Y11578D01*
X31217Y11615D01*
X31226Y11624D01*
X31244Y11624D01*
X31254Y11615D01*
X31309Y11624D02*
X31272Y11624D01*
X31309Y11587D01*
X31309Y11578D01*
X31300Y11569D01*
X31281Y11569D01*
X31272Y11578D01*
X31327Y11578D02*
X31336Y11569D01*
X31355Y11569D01*
X31364Y11578D01*
X31364Y11587D01*
X31355Y11596D01*
X31364Y11606D01*
X31364Y11615D01*
X31355Y11624D01*
X31336Y11624D01*
X31327Y11615D01*
X31327Y11606D01*
X31336Y11596D01*
X31327Y11587D01*
X31327Y11578D01*
X31336Y11596D02*
X31355Y11596D01*
X31217Y11686D02*
X31226Y11677D01*
X31244Y11677D01*
X31254Y11686D01*
X31254Y11723D01*
X31244Y11732D01*
X31226Y11732D01*
X31217Y11723D01*
X31217Y11686D01*
X31272Y11732D02*
X31272Y11723D01*
X31281Y11723D01*
X31281Y11732D01*
X31272Y11732D01*
X31318Y11732D02*
X31336Y11732D01*
X31327Y11732D01*
X31327Y11677D01*
X31318Y11686D01*
X31364Y11696D02*
X31364Y11723D01*
X31373Y11732D01*
X31401Y11732D01*
X31401Y11696D01*
X31456Y11677D02*
X31419Y11677D01*
X31419Y11705D01*
X31437Y11705D01*
X31419Y11705D01*
X31419Y11732D01*
X11198Y17604D02*
X11189Y17594D01*
X11171Y17594D01*
X11161Y17604D01*
X11161Y17640D01*
X11171Y17649D01*
X11189Y17649D01*
X11198Y17640D01*
X11253Y17594D02*
X11217Y17594D01*
X11217Y17622D01*
X11235Y17613D01*
X11244Y17613D01*
X11253Y17622D01*
X11253Y17640D01*
X11244Y17649D01*
X11226Y17649D01*
X11217Y17640D01*
X11161Y17712D02*
X11171Y17703D01*
X11189Y17703D01*
X11198Y17712D01*
X11198Y17749D01*
X11189Y17758D01*
X11171Y17758D01*
X11161Y17749D01*
X11161Y17712D01*
X11217Y17758D02*
X11217Y17749D01*
X11226Y17749D01*
X11226Y17758D01*
X11217Y17758D01*
X11262Y17758D02*
X11281Y17758D01*
X11272Y17758D01*
X11272Y17703D01*
X11262Y17712D01*
X11308Y17721D02*
X11308Y17749D01*
X11318Y17758D01*
X11345Y17758D01*
X11345Y17721D01*
X11400Y17703D02*
X11363Y17703D01*
X11363Y17730D01*
X11382Y17730D01*
X11363Y17730D01*
X11363Y17758D01*
X30059Y9268D02*
X30068Y9277D01*
X30086Y9277D01*
X30095Y9268D01*
X30095Y9232D01*
X30086Y9222D01*
X30068Y9222D01*
X30059Y9232D01*
X30004Y9277D02*
X30022Y9268D01*
X30040Y9250D01*
X30040Y9232D01*
X30031Y9222D01*
X30013Y9222D01*
X30004Y9232D01*
X30004Y9241D01*
X30013Y9250D01*
X30040Y9250D01*
X30095Y9114D02*
X30077Y9114D01*
X30086Y9114D01*
X30086Y9169D01*
X30095Y9160D01*
X30049Y9160D02*
X30040Y9169D01*
X30022Y9169D01*
X30013Y9160D01*
X30013Y9123D01*
X30022Y9114D01*
X30040Y9114D01*
X30049Y9123D01*
X30049Y9160D01*
X29994Y9096D02*
X29994Y9151D01*
X29967Y9151D01*
X29958Y9142D01*
X29958Y9123D01*
X29967Y9114D01*
X29994Y9114D01*
X29903Y9169D02*
X29939Y9169D01*
X29939Y9142D01*
X29921Y9142D01*
X29939Y9142D01*
X29939Y9114D01*
X29649Y12479D02*
X29640Y12469D01*
X29621Y12469D01*
X29612Y12479D01*
X29612Y12515D01*
X29621Y12524D01*
X29640Y12524D01*
X29649Y12515D01*
X29667Y12469D02*
X29704Y12469D01*
X29704Y12479D01*
X29667Y12515D01*
X29667Y12524D01*
X29612Y12633D02*
X29630Y12633D01*
X29621Y12633D01*
X29621Y12578D01*
X29612Y12587D01*
X29658Y12587D02*
X29667Y12578D01*
X29686Y12578D01*
X29695Y12587D01*
X29695Y12624D01*
X29686Y12633D01*
X29667Y12633D01*
X29658Y12624D01*
X29658Y12587D01*
X29713Y12651D02*
X29713Y12596D01*
X29741Y12596D01*
X29750Y12605D01*
X29750Y12624D01*
X29741Y12633D01*
X29713Y12633D01*
X29805Y12578D02*
X29768Y12578D01*
X29768Y12605D01*
X29787Y12605D01*
X29768Y12605D01*
X29768Y12633D01*
X40035Y11489D02*
X40044Y11498D01*
X40063Y11498D01*
X40072Y11489D01*
X40072Y11452D01*
X40063Y11443D01*
X40044Y11443D01*
X40035Y11452D01*
X40017Y11489D02*
X40007Y11498D01*
X39989Y11498D01*
X39980Y11489D01*
X39980Y11480D01*
X39989Y11470D01*
X39980Y11461D01*
X39980Y11452D01*
X39989Y11443D01*
X40007Y11443D01*
X40017Y11452D01*
X40017Y11461D01*
X40007Y11470D01*
X40017Y11480D01*
X40017Y11489D01*
X40007Y11470D02*
X39989Y11470D01*
X40072Y11335D02*
X40053Y11335D01*
X40063Y11335D01*
X40063Y11390D01*
X40072Y11380D01*
X40026Y11335D02*
X40026Y11344D01*
X40017Y11344D01*
X40017Y11335D01*
X40026Y11335D01*
X39980Y11380D02*
X39971Y11390D01*
X39952Y11390D01*
X39943Y11380D01*
X39943Y11344D01*
X39952Y11335D01*
X39971Y11335D01*
X39980Y11344D01*
X39980Y11380D01*
X39925Y11371D02*
X39925Y11344D01*
X39916Y11335D01*
X39888Y11335D01*
X39888Y11371D01*
X39833Y11390D02*
X39870Y11390D01*
X39870Y11362D01*
X39851Y11362D01*
X39870Y11362D01*
X39870Y11335D01*
X32542Y13359D02*
X32533Y13368D01*
X32533Y13386D01*
X32542Y13395D01*
X32579Y13395D01*
X32588Y13386D01*
X32588Y13368D01*
X32579Y13359D01*
X32579Y13340D02*
X32588Y13331D01*
X32588Y13313D01*
X32579Y13304D01*
X32542Y13304D01*
X32533Y13313D01*
X32533Y13331D01*
X32542Y13340D01*
X32551Y13340D01*
X32560Y13331D01*
X32560Y13304D01*
X32696Y13395D02*
X32696Y13377D01*
X32696Y13386D01*
X32641Y13386D01*
X32650Y13395D01*
X32696Y13349D02*
X32687Y13349D01*
X32687Y13340D01*
X32696Y13340D01*
X32696Y13349D01*
X32650Y13304D02*
X32641Y13294D01*
X32641Y13276D01*
X32650Y13267D01*
X32687Y13267D01*
X32696Y13276D01*
X32696Y13294D01*
X32687Y13304D01*
X32650Y13304D01*
X32659Y13248D02*
X32687Y13248D01*
X32696Y13239D01*
X32696Y13212D01*
X32659Y13212D01*
X32641Y13157D02*
X32641Y13193D01*
X32669Y13193D01*
X32669Y13175D01*
X32669Y13193D01*
X32696Y13193D01*
X34290Y14335D02*
X34281Y14344D01*
X34281Y14363D01*
X34290Y14372D01*
X34327Y14372D01*
X34336Y14363D01*
X34336Y14344D01*
X34327Y14335D01*
X34336Y14317D02*
X34336Y14298D01*
X34336Y14307D01*
X34281Y14307D01*
X34290Y14317D01*
X34290Y14271D02*
X34281Y14262D01*
X34281Y14243D01*
X34290Y14234D01*
X34327Y14234D01*
X34336Y14243D01*
X34336Y14262D01*
X34327Y14271D01*
X34290Y14271D01*
X34444Y14372D02*
X34444Y14353D01*
X34444Y14363D01*
X34389Y14363D01*
X34398Y14372D01*
X34444Y14326D02*
X34435Y14326D01*
X34435Y14317D01*
X34444Y14317D01*
X34444Y14326D01*
X34398Y14280D02*
X34389Y14271D01*
X34389Y14252D01*
X34398Y14243D01*
X34435Y14243D01*
X34444Y14252D01*
X34444Y14271D01*
X34435Y14280D01*
X34398Y14280D01*
X34407Y14225D02*
X34435Y14225D01*
X34444Y14216D01*
X34444Y14188D01*
X34407Y14188D01*
X34389Y14133D02*
X34389Y14170D01*
X34417Y14170D01*
X34417Y14151D01*
X34417Y14170D01*
X34444Y14170D01*
X36810Y14296D02*
X36800Y14305D01*
X36800Y14323D01*
X36810Y14332D01*
X36846Y14332D01*
X36856Y14323D01*
X36856Y14305D01*
X36846Y14296D01*
X36856Y14277D02*
X36856Y14259D01*
X36856Y14268D01*
X36800Y14268D01*
X36810Y14277D01*
X36856Y14231D02*
X36856Y14213D01*
X36856Y14222D01*
X36800Y14222D01*
X36810Y14231D01*
X36964Y14332D02*
X36964Y14314D01*
X36964Y14323D01*
X36909Y14323D01*
X36918Y14332D01*
X36964Y14286D02*
X36955Y14286D01*
X36955Y14277D01*
X36964Y14277D01*
X36964Y14286D01*
X36918Y14241D02*
X36909Y14231D01*
X36909Y14213D01*
X36918Y14204D01*
X36955Y14204D01*
X36964Y14213D01*
X36964Y14231D01*
X36955Y14241D01*
X36918Y14241D01*
X36927Y14185D02*
X36955Y14185D01*
X36964Y14176D01*
X36964Y14149D01*
X36927Y14149D01*
X36909Y14094D02*
X36909Y14130D01*
X36936Y14130D01*
X36936Y14112D01*
X36936Y14130D01*
X36964Y14130D01*
X32310Y7094D02*
X32301Y7085D01*
X32282Y7085D01*
X32273Y7094D01*
X32273Y7131D01*
X32282Y7140D01*
X32301Y7140D01*
X32310Y7131D01*
X32328Y7140D02*
X32347Y7140D01*
X32337Y7140D01*
X32337Y7085D01*
X32328Y7094D01*
X32411Y7140D02*
X32374Y7140D01*
X32411Y7103D01*
X32411Y7094D01*
X32402Y7085D01*
X32383Y7085D01*
X32374Y7094D01*
X32273Y7248D02*
X32292Y7248D01*
X32282Y7248D01*
X32282Y7193D01*
X32273Y7202D01*
X32319Y7248D02*
X32319Y7239D01*
X32328Y7239D01*
X32328Y7248D01*
X32319Y7248D01*
X32365Y7202D02*
X32374Y7193D01*
X32393Y7193D01*
X32402Y7202D01*
X32402Y7239D01*
X32393Y7248D01*
X32374Y7248D01*
X32365Y7239D01*
X32365Y7202D01*
X32420Y7211D02*
X32420Y7239D01*
X32429Y7248D01*
X32457Y7248D01*
X32457Y7211D01*
X32512Y7193D02*
X32475Y7193D01*
X32475Y7221D01*
X32494Y7221D01*
X32475Y7221D01*
X32475Y7248D01*
X33425Y5822D02*
X33434Y5813D01*
X33434Y5795D01*
X33425Y5786D01*
X33388Y5786D01*
X33379Y5795D01*
X33379Y5813D01*
X33388Y5822D01*
X33379Y5841D02*
X33379Y5859D01*
X33379Y5850D01*
X33434Y5850D01*
X33425Y5841D01*
X33425Y5887D02*
X33434Y5896D01*
X33434Y5914D01*
X33425Y5924D01*
X33416Y5924D01*
X33407Y5914D01*
X33407Y5905D01*
X33407Y5914D01*
X33397Y5924D01*
X33388Y5924D01*
X33379Y5914D01*
X33379Y5896D01*
X33388Y5887D01*
X33271Y5786D02*
X33271Y5804D01*
X33271Y5795D01*
X33326Y5795D01*
X33317Y5786D01*
X33271Y5832D02*
X33280Y5832D01*
X33280Y5841D01*
X33271Y5841D01*
X33271Y5832D01*
X33317Y5878D02*
X33326Y5887D01*
X33326Y5905D01*
X33317Y5914D01*
X33280Y5914D01*
X33271Y5905D01*
X33271Y5887D01*
X33280Y5878D01*
X33317Y5878D01*
X33308Y5933D02*
X33280Y5933D01*
X33271Y5942D01*
X33271Y5969D01*
X33308Y5969D01*
X33326Y6025D02*
X33326Y5988D01*
X33298Y5988D01*
X33298Y6006D01*
X33298Y5988D01*
X33271Y5988D01*
X34858Y5665D02*
X34867Y5656D01*
X34867Y5637D01*
X34858Y5628D01*
X34821Y5628D01*
X34812Y5637D01*
X34812Y5656D01*
X34821Y5665D01*
X34812Y5683D02*
X34812Y5702D01*
X34812Y5693D01*
X34867Y5693D01*
X34858Y5683D01*
X34812Y5757D02*
X34867Y5757D01*
X34840Y5729D01*
X34840Y5766D01*
X34704Y5628D02*
X34704Y5647D01*
X34704Y5637D01*
X34759Y5637D01*
X34750Y5628D01*
X34704Y5674D02*
X34713Y5674D01*
X34713Y5683D01*
X34704Y5683D01*
X34704Y5674D01*
X34750Y5720D02*
X34759Y5729D01*
X34759Y5748D01*
X34750Y5757D01*
X34713Y5757D01*
X34704Y5748D01*
X34704Y5729D01*
X34713Y5720D01*
X34750Y5720D01*
X34741Y5775D02*
X34713Y5775D01*
X34704Y5784D01*
X34704Y5812D01*
X34741Y5812D01*
X34759Y5867D02*
X34759Y5830D01*
X34731Y5830D01*
X34731Y5849D01*
X34731Y5830D01*
X34704Y5830D01*
X36149Y5822D02*
X36159Y5813D01*
X36159Y5795D01*
X36149Y5786D01*
X36113Y5786D01*
X36103Y5795D01*
X36103Y5813D01*
X36113Y5822D01*
X36103Y5841D02*
X36103Y5859D01*
X36103Y5850D01*
X36159Y5850D01*
X36149Y5841D01*
X36159Y5924D02*
X36159Y5887D01*
X36131Y5887D01*
X36140Y5905D01*
X36140Y5914D01*
X36131Y5924D01*
X36113Y5924D01*
X36103Y5914D01*
X36103Y5896D01*
X36113Y5887D01*
X35995Y5786D02*
X35995Y5804D01*
X35995Y5795D01*
X36050Y5795D01*
X36041Y5786D01*
X35995Y5832D02*
X36004Y5832D01*
X36004Y5841D01*
X35995Y5841D01*
X35995Y5832D01*
X36041Y5878D02*
X36050Y5887D01*
X36050Y5905D01*
X36041Y5914D01*
X36004Y5914D01*
X35995Y5905D01*
X35995Y5887D01*
X36004Y5878D01*
X36041Y5878D01*
X36032Y5933D02*
X36004Y5933D01*
X35995Y5942D01*
X35995Y5969D01*
X36032Y5969D01*
X36050Y6025D02*
X36050Y5988D01*
X36023Y5988D01*
X36023Y6006D01*
X36023Y5988D01*
X35995Y5988D01*
X37425Y5822D02*
X37434Y5813D01*
X37434Y5795D01*
X37425Y5786D01*
X37388Y5786D01*
X37379Y5795D01*
X37379Y5813D01*
X37388Y5822D01*
X37379Y5841D02*
X37379Y5859D01*
X37379Y5850D01*
X37434Y5850D01*
X37425Y5841D01*
X37434Y5924D02*
X37425Y5905D01*
X37407Y5887D01*
X37388Y5887D01*
X37379Y5896D01*
X37379Y5914D01*
X37388Y5924D01*
X37397Y5924D01*
X37407Y5914D01*
X37407Y5887D01*
X37271Y5786D02*
X37271Y5804D01*
X37271Y5795D01*
X37326Y5795D01*
X37317Y5786D01*
X37271Y5832D02*
X37280Y5832D01*
X37280Y5841D01*
X37271Y5841D01*
X37271Y5832D01*
X37317Y5878D02*
X37326Y5887D01*
X37326Y5905D01*
X37317Y5914D01*
X37280Y5914D01*
X37271Y5905D01*
X37271Y5887D01*
X37280Y5878D01*
X37317Y5878D01*
X37308Y5933D02*
X37280Y5933D01*
X37271Y5942D01*
X37271Y5969D01*
X37308Y5969D01*
X37326Y6025D02*
X37326Y5988D01*
X37298Y5988D01*
X37298Y6006D01*
X37298Y5988D01*
X37271Y5988D01*
X38211Y14335D02*
X38202Y14344D01*
X38202Y14363D01*
X38211Y14372D01*
X38248Y14372D01*
X38257Y14363D01*
X38257Y14344D01*
X38248Y14335D01*
X38257Y14317D02*
X38257Y14298D01*
X38257Y14307D01*
X38202Y14307D01*
X38211Y14317D01*
X38202Y14271D02*
X38202Y14234D01*
X38211Y14234D01*
X38248Y14271D01*
X38257Y14271D01*
X38365Y14372D02*
X38365Y14353D01*
X38365Y14363D01*
X38310Y14363D01*
X38320Y14372D01*
X38365Y14326D02*
X38356Y14326D01*
X38356Y14317D01*
X38365Y14317D01*
X38365Y14326D01*
X38320Y14280D02*
X38310Y14271D01*
X38310Y14252D01*
X38320Y14243D01*
X38356Y14243D01*
X38365Y14252D01*
X38365Y14271D01*
X38356Y14280D01*
X38320Y14280D01*
X38329Y14225D02*
X38356Y14225D01*
X38365Y14216D01*
X38365Y14188D01*
X38329Y14188D01*
X38310Y14133D02*
X38310Y14170D01*
X38338Y14170D01*
X38338Y14151D01*
X38338Y14170D01*
X38365Y14170D01*
X40248Y9691D02*
X40257Y9701D01*
X40276Y9701D01*
X40285Y9691D01*
X40285Y9655D01*
X40276Y9646D01*
X40257Y9646D01*
X40248Y9655D01*
X40230Y9646D02*
X40211Y9646D01*
X40220Y9646D01*
X40220Y9701D01*
X40230Y9691D01*
X40184Y9691D02*
X40175Y9701D01*
X40156Y9701D01*
X40147Y9691D01*
X40147Y9682D01*
X40156Y9673D01*
X40147Y9664D01*
X40147Y9655D01*
X40156Y9646D01*
X40175Y9646D01*
X40184Y9655D01*
X40184Y9664D01*
X40175Y9673D01*
X40184Y9682D01*
X40184Y9691D01*
X40175Y9673D02*
X40156Y9673D01*
X40285Y9537D02*
X40266Y9537D01*
X40276Y9537D01*
X40276Y9592D01*
X40285Y9583D01*
X40239Y9537D02*
X40239Y9546D01*
X40230Y9546D01*
X40230Y9537D01*
X40239Y9537D01*
X40193Y9583D02*
X40184Y9592D01*
X40165Y9592D01*
X40156Y9583D01*
X40156Y9546D01*
X40165Y9537D01*
X40184Y9537D01*
X40193Y9546D01*
X40193Y9583D01*
X40138Y9574D02*
X40138Y9546D01*
X40129Y9537D01*
X40101Y9537D01*
X40101Y9574D01*
X40046Y9592D02*
X40083Y9592D01*
X40083Y9565D01*
X40064Y9565D01*
X40083Y9565D01*
X40083Y9537D01*
X39752Y8386D02*
X39761Y8395D01*
X39779Y8395D01*
X39788Y8386D01*
X39788Y8350D01*
X39779Y8340D01*
X39761Y8340D01*
X39752Y8350D01*
X39733Y8340D02*
X39715Y8340D01*
X39724Y8340D01*
X39724Y8395D01*
X39733Y8386D01*
X39687Y8350D02*
X39678Y8340D01*
X39660Y8340D01*
X39651Y8350D01*
X39651Y8386D01*
X39660Y8395D01*
X39678Y8395D01*
X39687Y8386D01*
X39687Y8377D01*
X39678Y8368D01*
X39651Y8368D01*
X39788Y8232D02*
X39770Y8232D01*
X39779Y8232D01*
X39779Y8287D01*
X39788Y8278D01*
X39742Y8232D02*
X39742Y8241D01*
X39733Y8241D01*
X39733Y8232D01*
X39742Y8232D01*
X39696Y8278D02*
X39687Y8287D01*
X39669Y8287D01*
X39660Y8278D01*
X39660Y8241D01*
X39669Y8232D01*
X39687Y8232D01*
X39696Y8241D01*
X39696Y8278D01*
X39641Y8269D02*
X39641Y8241D01*
X39632Y8232D01*
X39605Y8232D01*
X39605Y8269D01*
X39550Y8287D02*
X39586Y8287D01*
X39586Y8260D01*
X39568Y8260D01*
X39586Y8260D01*
X39586Y8232D01*
X31104Y7877D02*
X31094Y7868D01*
X31076Y7868D01*
X31067Y7877D01*
X31067Y7914D01*
X31076Y7923D01*
X31094Y7923D01*
X31104Y7914D01*
X31159Y7923D02*
X31122Y7923D01*
X31159Y7886D01*
X31159Y7877D01*
X31150Y7868D01*
X31131Y7868D01*
X31122Y7877D01*
X31177Y7877D02*
X31186Y7868D01*
X31205Y7868D01*
X31214Y7877D01*
X31214Y7914D01*
X31205Y7923D01*
X31186Y7923D01*
X31177Y7914D01*
X31177Y7877D01*
X31067Y7986D02*
X31076Y7976D01*
X31094Y7976D01*
X31104Y7986D01*
X31104Y8022D01*
X31094Y8031D01*
X31076Y8031D01*
X31067Y8022D01*
X31067Y7986D01*
X31122Y8031D02*
X31122Y8022D01*
X31131Y8022D01*
X31131Y8031D01*
X31122Y8031D01*
X31168Y8031D02*
X31186Y8031D01*
X31177Y8031D01*
X31177Y7976D01*
X31168Y7986D01*
X31214Y7995D02*
X31214Y8022D01*
X31223Y8031D01*
X31251Y8031D01*
X31251Y7995D01*
X31306Y7976D02*
X31269Y7976D01*
X31269Y8004D01*
X31287Y8004D01*
X31269Y8004D01*
X31269Y8031D01*
X35530Y14333D02*
X35521Y14343D01*
X35521Y14361D01*
X35530Y14370D01*
X35567Y14370D01*
X35576Y14361D01*
X35576Y14343D01*
X35567Y14333D01*
X35576Y14278D02*
X35576Y14315D01*
X35539Y14278D01*
X35530Y14278D01*
X35521Y14287D01*
X35521Y14306D01*
X35530Y14315D01*
X35576Y14260D02*
X35576Y14242D01*
X35576Y14251D01*
X35521Y14251D01*
X35530Y14260D01*
X35638Y14370D02*
X35629Y14361D01*
X35629Y14343D01*
X35638Y14333D01*
X35675Y14333D01*
X35684Y14343D01*
X35684Y14361D01*
X35675Y14370D01*
X35638Y14370D01*
X35684Y14315D02*
X35675Y14315D01*
X35675Y14306D01*
X35684Y14306D01*
X35684Y14315D01*
X35684Y14269D02*
X35684Y14251D01*
X35684Y14260D01*
X35629Y14260D01*
X35638Y14269D01*
X35648Y14223D02*
X35675Y14223D01*
X35684Y14214D01*
X35684Y14186D01*
X35648Y14186D01*
X35629Y14131D02*
X35629Y14168D01*
X35657Y14168D01*
X35657Y14150D01*
X35657Y14168D01*
X35684Y14168D01*
X38216Y5730D02*
X38226Y5720D01*
X38226Y5702D01*
X38216Y5693D01*
X38180Y5693D01*
X38170Y5702D01*
X38170Y5720D01*
X38180Y5730D01*
X38170Y5785D02*
X38170Y5748D01*
X38207Y5785D01*
X38216Y5785D01*
X38226Y5776D01*
X38226Y5757D01*
X38216Y5748D01*
X38170Y5840D02*
X38170Y5803D01*
X38207Y5840D01*
X38216Y5840D01*
X38226Y5831D01*
X38226Y5812D01*
X38216Y5803D01*
X38108Y5693D02*
X38117Y5702D01*
X38117Y5720D01*
X38108Y5730D01*
X38071Y5730D01*
X38062Y5720D01*
X38062Y5702D01*
X38071Y5693D01*
X38108Y5693D01*
X38062Y5748D02*
X38071Y5748D01*
X38071Y5757D01*
X38062Y5757D01*
X38062Y5748D01*
X38062Y5794D02*
X38062Y5812D01*
X38062Y5803D01*
X38117Y5803D01*
X38108Y5794D01*
X38099Y5840D02*
X38071Y5840D01*
X38062Y5849D01*
X38062Y5877D01*
X38099Y5877D01*
X38117Y5932D02*
X38117Y5895D01*
X38090Y5895D01*
X38090Y5913D01*
X38090Y5895D01*
X38062Y5895D01*
X36605Y5704D02*
X36615Y5694D01*
X36615Y5676D01*
X36605Y5667D01*
X36569Y5667D01*
X36560Y5676D01*
X36560Y5694D01*
X36569Y5704D01*
X36560Y5759D02*
X36560Y5722D01*
X36596Y5759D01*
X36605Y5759D01*
X36615Y5750D01*
X36615Y5731D01*
X36605Y5722D01*
X36605Y5777D02*
X36615Y5786D01*
X36615Y5805D01*
X36605Y5814D01*
X36596Y5814D01*
X36587Y5805D01*
X36587Y5796D01*
X36587Y5805D01*
X36578Y5814D01*
X36569Y5814D01*
X36560Y5805D01*
X36560Y5786D01*
X36569Y5777D01*
X36497Y5667D02*
X36506Y5676D01*
X36506Y5694D01*
X36497Y5704D01*
X36460Y5704D01*
X36451Y5694D01*
X36451Y5676D01*
X36460Y5667D01*
X36497Y5667D01*
X36451Y5722D02*
X36460Y5722D01*
X36460Y5731D01*
X36451Y5731D01*
X36451Y5722D01*
X36451Y5768D02*
X36451Y5786D01*
X36451Y5777D01*
X36506Y5777D01*
X36497Y5768D01*
X36488Y5814D02*
X36460Y5814D01*
X36451Y5823D01*
X36451Y5851D01*
X36488Y5851D01*
X36506Y5906D02*
X36506Y5869D01*
X36479Y5869D01*
X36479Y5887D01*
X36479Y5869D01*
X36451Y5869D01*
X30954Y9225D02*
X30944Y9215D01*
X30926Y9215D01*
X30917Y9225D01*
X30917Y9261D01*
X30926Y9270D01*
X30944Y9270D01*
X30954Y9261D01*
X31009Y9270D02*
X30972Y9270D01*
X31009Y9234D01*
X31009Y9225D01*
X31000Y9215D01*
X30981Y9215D01*
X30972Y9225D01*
X31055Y9270D02*
X31055Y9215D01*
X31027Y9243D01*
X31064Y9243D01*
X30917Y9333D02*
X30926Y9324D01*
X30944Y9324D01*
X30954Y9333D01*
X30954Y9370D01*
X30944Y9379D01*
X30926Y9379D01*
X30917Y9370D01*
X30917Y9333D01*
X30972Y9379D02*
X30972Y9370D01*
X30981Y9370D01*
X30981Y9379D01*
X30972Y9379D01*
X31018Y9379D02*
X31036Y9379D01*
X31027Y9379D01*
X31027Y9324D01*
X31018Y9333D01*
X31064Y9342D02*
X31064Y9370D01*
X31073Y9379D01*
X31101Y9379D01*
X31101Y9342D01*
X31156Y9324D02*
X31119Y9324D01*
X31119Y9351D01*
X31137Y9351D01*
X31119Y9351D01*
X31119Y9379D01*
X33325Y14333D02*
X33316Y14343D01*
X33316Y14361D01*
X33325Y14370D01*
X33362Y14370D01*
X33371Y14361D01*
X33371Y14343D01*
X33362Y14333D01*
X33371Y14278D02*
X33371Y14315D01*
X33335Y14278D01*
X33325Y14278D01*
X33316Y14287D01*
X33316Y14306D01*
X33325Y14315D01*
X33316Y14223D02*
X33316Y14260D01*
X33344Y14260D01*
X33335Y14242D01*
X33335Y14232D01*
X33344Y14223D01*
X33362Y14223D01*
X33371Y14232D01*
X33371Y14251D01*
X33362Y14260D01*
X33434Y14370D02*
X33424Y14361D01*
X33424Y14343D01*
X33434Y14333D01*
X33470Y14333D01*
X33480Y14343D01*
X33480Y14361D01*
X33470Y14370D01*
X33434Y14370D01*
X33480Y14315D02*
X33470Y14315D01*
X33470Y14306D01*
X33480Y14306D01*
X33480Y14315D01*
X33480Y14269D02*
X33480Y14251D01*
X33480Y14260D01*
X33424Y14260D01*
X33434Y14269D01*
X33443Y14223D02*
X33470Y14223D01*
X33480Y14214D01*
X33480Y14186D01*
X33443Y14186D01*
X33424Y14131D02*
X33424Y14168D01*
X33452Y14168D01*
X33452Y14150D01*
X33452Y14168D01*
X33480Y14168D01*
X39168Y13635D02*
X39159Y13644D01*
X39159Y13663D01*
X39168Y13672D01*
X39205Y13672D01*
X39214Y13663D01*
X39214Y13644D01*
X39205Y13635D01*
X39214Y13580D02*
X39214Y13617D01*
X39177Y13580D01*
X39168Y13580D01*
X39159Y13589D01*
X39159Y13608D01*
X39168Y13617D01*
X39159Y13525D02*
X39168Y13543D01*
X39186Y13562D01*
X39205Y13562D01*
X39214Y13552D01*
X39214Y13534D01*
X39205Y13525D01*
X39195Y13525D01*
X39186Y13534D01*
X39186Y13562D01*
X39276Y13672D02*
X39267Y13663D01*
X39267Y13644D01*
X39276Y13635D01*
X39313Y13635D01*
X39322Y13644D01*
X39322Y13663D01*
X39313Y13672D01*
X39276Y13672D01*
X39322Y13617D02*
X39313Y13617D01*
X39313Y13608D01*
X39322Y13608D01*
X39322Y13617D01*
X39322Y13571D02*
X39322Y13552D01*
X39322Y13562D01*
X39267Y13562D01*
X39276Y13571D01*
X39285Y13525D02*
X39313Y13525D01*
X39322Y13516D01*
X39322Y13488D01*
X39285Y13488D01*
X39267Y13433D02*
X39267Y13470D01*
X39295Y13470D01*
X39295Y13451D01*
X39295Y13470D01*
X39322Y13470D01*
X40146Y11020D02*
X40156Y11030D01*
X40174Y11030D01*
X40183Y11020D01*
X40183Y10984D01*
X40174Y10974D01*
X40156Y10974D01*
X40146Y10984D01*
X40091Y10974D02*
X40128Y10974D01*
X40091Y11011D01*
X40091Y11020D01*
X40100Y11030D01*
X40119Y11030D01*
X40128Y11020D01*
X40073Y11030D02*
X40036Y11030D01*
X40036Y11020D01*
X40073Y10984D01*
X40073Y10974D01*
X40183Y10912D02*
X40174Y10921D01*
X40156Y10921D01*
X40146Y10912D01*
X40146Y10875D01*
X40156Y10866D01*
X40174Y10866D01*
X40183Y10875D01*
X40183Y10912D01*
X40128Y10866D02*
X40128Y10875D01*
X40119Y10875D01*
X40119Y10866D01*
X40128Y10866D01*
X40082Y10866D02*
X40064Y10866D01*
X40073Y10866D01*
X40073Y10921D01*
X40082Y10912D01*
X40036Y10903D02*
X40036Y10875D01*
X40027Y10866D01*
X39999Y10866D01*
X39999Y10903D01*
X39944Y10921D02*
X39981Y10921D01*
X39981Y10894D01*
X39963Y10894D01*
X39981Y10894D01*
X39981Y10866D01*
X31397Y10165D02*
X31387Y10156D01*
X31369Y10156D01*
X31360Y10165D01*
X31360Y10202D01*
X31369Y10211D01*
X31387Y10211D01*
X31397Y10202D01*
X31452Y10211D02*
X31415Y10211D01*
X31452Y10174D01*
X31452Y10165D01*
X31442Y10156D01*
X31424Y10156D01*
X31415Y10165D01*
X31470Y10202D02*
X31479Y10211D01*
X31498Y10211D01*
X31507Y10202D01*
X31507Y10165D01*
X31498Y10156D01*
X31479Y10156D01*
X31470Y10165D01*
X31470Y10174D01*
X31479Y10183D01*
X31507Y10183D01*
X31360Y10319D02*
X31378Y10319D01*
X31369Y10319D01*
X31369Y10264D01*
X31360Y10273D01*
X31406Y10319D02*
X31406Y10310D01*
X31415Y10310D01*
X31415Y10319D01*
X31406Y10319D01*
X31452Y10273D02*
X31461Y10264D01*
X31479Y10264D01*
X31488Y10273D01*
X31488Y10310D01*
X31479Y10319D01*
X31461Y10319D01*
X31452Y10310D01*
X31452Y10273D01*
X31507Y10282D02*
X31507Y10310D01*
X31516Y10319D01*
X31543Y10319D01*
X31543Y10282D01*
X31599Y10264D02*
X31562Y10264D01*
X31562Y10291D01*
X31580Y10291D01*
X31562Y10291D01*
X31562Y10319D01*
X42796Y5938D02*
X42806Y5928D01*
X42806Y5910D01*
X42796Y5901D01*
X42760Y5901D01*
X42750Y5910D01*
X42750Y5928D01*
X42760Y5938D01*
X42796Y5956D02*
X42806Y5965D01*
X42806Y5983D01*
X42796Y5993D01*
X42787Y5993D01*
X42778Y5983D01*
X42778Y5974D01*
X42778Y5983D01*
X42769Y5993D01*
X42760Y5993D01*
X42750Y5983D01*
X42750Y5965D01*
X42760Y5956D01*
X42750Y6011D02*
X42750Y6029D01*
X42750Y6020D01*
X42806Y6020D01*
X42796Y6011D01*
X42688Y5901D02*
X42697Y5910D01*
X42697Y5928D01*
X42688Y5938D01*
X42651Y5938D01*
X42642Y5928D01*
X42642Y5910D01*
X42651Y5901D01*
X42688Y5901D01*
X42642Y5956D02*
X42651Y5956D01*
X42651Y5965D01*
X42642Y5965D01*
X42642Y5956D01*
X42642Y6002D02*
X42642Y6020D01*
X42642Y6011D01*
X42697Y6011D01*
X42688Y6002D01*
X42679Y6048D02*
X42651Y6048D01*
X42642Y6057D01*
X42642Y6084D01*
X42679Y6084D01*
X42697Y6140D02*
X42697Y6103D01*
X42670Y6103D01*
X42670Y6121D01*
X42670Y6103D01*
X42642Y6103D01*
X7204Y20623D02*
X7214Y20614D01*
X7214Y20595D01*
X7204Y20586D01*
X7168Y20586D01*
X7159Y20595D01*
X7159Y20614D01*
X7168Y20623D01*
X7204Y20641D02*
X7214Y20651D01*
X7214Y20669D01*
X7204Y20678D01*
X7195Y20678D01*
X7186Y20669D01*
X7186Y20660D01*
X7186Y20669D01*
X7177Y20678D01*
X7168Y20678D01*
X7159Y20669D01*
X7159Y20651D01*
X7168Y20641D01*
X7159Y20724D02*
X7214Y20724D01*
X7186Y20696D01*
X7186Y20733D01*
X7096Y20586D02*
X7105Y20595D01*
X7105Y20614D01*
X7096Y20623D01*
X7060Y20623D01*
X7050Y20614D01*
X7050Y20595D01*
X7060Y20586D01*
X7096Y20586D01*
X7050Y20641D02*
X7060Y20641D01*
X7060Y20651D01*
X7050Y20651D01*
X7050Y20641D01*
X7050Y20687D02*
X7050Y20706D01*
X7050Y20696D01*
X7105Y20696D01*
X7096Y20687D01*
X7087Y20733D02*
X7060Y20733D01*
X7050Y20742D01*
X7050Y20770D01*
X7087Y20770D01*
X7105Y20825D02*
X7105Y20788D01*
X7078Y20788D01*
X7078Y20807D01*
X7078Y20788D01*
X7050Y20788D01*
X30100Y7427D02*
X30045Y7427D01*
X30045Y7399D01*
X30055Y7390D01*
X30073Y7390D01*
X30082Y7399D01*
X30082Y7427D01*
X30082Y7408D02*
X30100Y7390D01*
X30100Y7372D02*
X30100Y7353D01*
X30100Y7362D01*
X30045Y7362D01*
X30055Y7372D01*
X30163Y7427D02*
X30154Y7418D01*
X30154Y7399D01*
X30163Y7390D01*
X30200Y7390D01*
X30209Y7399D01*
X30209Y7418D01*
X30200Y7427D01*
X30163Y7427D01*
X30209Y7372D02*
X30200Y7372D01*
X30200Y7362D01*
X30209Y7362D01*
X30209Y7372D01*
X30163Y7326D02*
X30154Y7317D01*
X30154Y7298D01*
X30163Y7289D01*
X30200Y7289D01*
X30209Y7298D01*
X30209Y7317D01*
X30200Y7326D01*
X30163Y7326D01*
X30154Y7188D02*
X30154Y7206D01*
X30163Y7216D01*
X30200Y7216D01*
X30209Y7206D01*
X30209Y7188D01*
X30200Y7179D01*
X30163Y7179D01*
X30154Y7188D01*
X30154Y7160D02*
X30209Y7160D01*
X30181Y7160D01*
X30172Y7151D01*
X30172Y7133D01*
X30181Y7124D01*
X30209Y7124D01*
X30209Y7105D02*
X30172Y7105D01*
X30172Y7096D01*
X30181Y7087D01*
X30209Y7087D01*
X30181Y7087D01*
X30172Y7078D01*
X30181Y7069D01*
X30209Y7069D01*
X30209Y7050D02*
X30209Y7023D01*
X30200Y7014D01*
X30190Y7023D01*
X30190Y7041D01*
X30181Y7050D01*
X30172Y7041D01*
X30172Y7014D01*
X30100Y6639D02*
X30045Y6639D01*
X30045Y6612D01*
X30055Y6603D01*
X30073Y6603D01*
X30082Y6612D01*
X30082Y6639D01*
X30082Y6621D02*
X30100Y6603D01*
X30100Y6548D02*
X30100Y6584D01*
X30064Y6548D01*
X30055Y6548D01*
X30045Y6557D01*
X30045Y6575D01*
X30055Y6584D01*
X30209Y6639D02*
X30154Y6639D01*
X30154Y6612D01*
X30163Y6603D01*
X30181Y6603D01*
X30190Y6612D01*
X30190Y6639D01*
X30190Y6621D02*
X30209Y6603D01*
X30218Y6584D02*
X30218Y6548D01*
X30163Y6529D02*
X30154Y6520D01*
X30154Y6502D01*
X30163Y6492D01*
X30200Y6492D01*
X30209Y6502D01*
X30209Y6520D01*
X30200Y6529D01*
X30163Y6529D01*
X30209Y6447D02*
X30154Y6447D01*
X30181Y6474D01*
X30181Y6437D01*
X30163Y6419D02*
X30154Y6410D01*
X30154Y6391D01*
X30163Y6382D01*
X30200Y6382D01*
X30209Y6391D01*
X30209Y6410D01*
X30200Y6419D01*
X30163Y6419D01*
X30209Y6327D02*
X30209Y6364D01*
X30172Y6327D01*
X30163Y6327D01*
X30154Y6336D01*
X30154Y6355D01*
X30163Y6364D01*
X30218Y6309D02*
X30218Y6272D01*
X30209Y6254D02*
X30209Y6235D01*
X30209Y6244D01*
X30154Y6244D01*
X30163Y6254D01*
X30163Y6208D02*
X30154Y6199D01*
X30154Y6180D01*
X30163Y6171D01*
X30200Y6171D01*
X30209Y6180D01*
X30209Y6199D01*
X30200Y6208D01*
X30163Y6208D01*
X30209Y6153D02*
X30200Y6153D01*
X30200Y6143D01*
X30209Y6143D01*
X30209Y6153D01*
X30163Y6107D02*
X30154Y6098D01*
X30154Y6079D01*
X30163Y6070D01*
X30200Y6070D01*
X30209Y6079D01*
X30209Y6098D01*
X30200Y6107D01*
X30163Y6107D01*
X30154Y6052D02*
X30209Y6052D01*
X30190Y6052D01*
X30154Y6015D01*
X30181Y6042D01*
X30209Y6015D01*
X41156Y5120D02*
X41100Y5120D01*
X41100Y5092D01*
X41110Y5083D01*
X41128Y5083D01*
X41137Y5092D01*
X41137Y5120D01*
X41137Y5101D02*
X41156Y5083D01*
X41110Y5065D02*
X41100Y5055D01*
X41100Y5037D01*
X41110Y5028D01*
X41119Y5028D01*
X41128Y5037D01*
X41128Y5046D01*
X41128Y5037D01*
X41137Y5028D01*
X41146Y5028D01*
X41156Y5037D01*
X41156Y5055D01*
X41146Y5065D01*
X41264Y5120D02*
X41209Y5120D01*
X41209Y5092D01*
X41218Y5083D01*
X41236Y5083D01*
X41245Y5092D01*
X41245Y5120D01*
X41245Y5101D02*
X41264Y5083D01*
X41273Y5065D02*
X41273Y5028D01*
X41218Y5010D02*
X41209Y5000D01*
X41209Y4982D01*
X41218Y4973D01*
X41255Y4973D01*
X41264Y4982D01*
X41264Y5000D01*
X41255Y5010D01*
X41218Y5010D01*
X41264Y4927D02*
X41209Y4927D01*
X41236Y4954D01*
X41236Y4918D01*
X41218Y4899D02*
X41209Y4890D01*
X41209Y4872D01*
X41218Y4863D01*
X41255Y4863D01*
X41264Y4872D01*
X41264Y4890D01*
X41255Y4899D01*
X41218Y4899D01*
X41264Y4808D02*
X41264Y4844D01*
X41227Y4808D01*
X41218Y4808D01*
X41209Y4817D01*
X41209Y4835D01*
X41218Y4844D01*
X41273Y4789D02*
X41273Y4752D01*
X41209Y4697D02*
X41218Y4716D01*
X41236Y4734D01*
X41255Y4734D01*
X41264Y4725D01*
X41264Y4707D01*
X41255Y4697D01*
X41245Y4697D01*
X41236Y4707D01*
X41236Y4734D01*
X41264Y4651D02*
X41209Y4651D01*
X41236Y4679D01*
X41236Y4642D01*
X41264Y4624D02*
X41255Y4624D01*
X41255Y4615D01*
X41264Y4615D01*
X41264Y4624D01*
X41255Y4578D02*
X41264Y4569D01*
X41264Y4550D01*
X41255Y4541D01*
X41218Y4541D01*
X41209Y4550D01*
X41209Y4569D01*
X41218Y4578D01*
X41227Y4578D01*
X41236Y4569D01*
X41236Y4541D01*
X41209Y4523D02*
X41264Y4523D01*
X41245Y4523D01*
X41209Y4486D01*
X41236Y4514D01*
X41264Y4486D01*
X7891Y18249D02*
X7836Y18249D01*
X7836Y18222D01*
X7845Y18213D01*
X7863Y18213D01*
X7873Y18222D01*
X7873Y18249D01*
X7873Y18231D02*
X7891Y18213D01*
X7836Y18158D02*
X7836Y18194D01*
X7863Y18194D01*
X7854Y18176D01*
X7854Y18167D01*
X7863Y18158D01*
X7882Y18158D01*
X7891Y18167D01*
X7891Y18185D01*
X7882Y18194D01*
X7999Y18249D02*
X7944Y18249D01*
X7944Y18222D01*
X7953Y18213D01*
X7972Y18213D01*
X7981Y18222D01*
X7981Y18249D01*
X7981Y18231D02*
X7999Y18213D01*
X8008Y18194D02*
X8008Y18158D01*
X7953Y18139D02*
X7944Y18130D01*
X7944Y18112D01*
X7953Y18102D01*
X7990Y18102D01*
X7999Y18112D01*
X7999Y18130D01*
X7990Y18139D01*
X7953Y18139D01*
X7999Y18057D02*
X7944Y18057D01*
X7972Y18084D01*
X7972Y18047D01*
X7953Y18029D02*
X7944Y18020D01*
X7944Y18001D01*
X7953Y17992D01*
X7990Y17992D01*
X7999Y18001D01*
X7999Y18020D01*
X7990Y18029D01*
X7953Y18029D01*
X7999Y17937D02*
X7999Y17974D01*
X7962Y17937D01*
X7953Y17937D01*
X7944Y17946D01*
X7944Y17965D01*
X7953Y17974D01*
X8008Y17919D02*
X8008Y17882D01*
X7999Y17864D02*
X7999Y17845D01*
X7999Y17854D01*
X7944Y17854D01*
X7953Y17864D01*
X7953Y17818D02*
X7944Y17809D01*
X7944Y17790D01*
X7953Y17781D01*
X7990Y17781D01*
X7999Y17790D01*
X7999Y17809D01*
X7990Y17818D01*
X7953Y17818D01*
X7999Y17763D02*
X7990Y17763D01*
X7990Y17753D01*
X7999Y17753D01*
X7999Y17763D01*
X7953Y17717D02*
X7944Y17708D01*
X7944Y17689D01*
X7953Y17680D01*
X7990Y17680D01*
X7999Y17689D01*
X7999Y17708D01*
X7990Y17717D01*
X7953Y17717D01*
X7944Y17662D02*
X7999Y17662D01*
X7981Y17662D01*
X7944Y17625D01*
X7972Y17652D01*
X7999Y17625D01*
X8836Y18249D02*
X8781Y18249D01*
X8781Y18222D01*
X8790Y18213D01*
X8808Y18213D01*
X8817Y18222D01*
X8817Y18249D01*
X8817Y18231D02*
X8836Y18213D01*
X8781Y18158D02*
X8790Y18176D01*
X8808Y18194D01*
X8827Y18194D01*
X8836Y18185D01*
X8836Y18167D01*
X8827Y18158D01*
X8817Y18158D01*
X8808Y18167D01*
X8808Y18194D01*
X8944Y18249D02*
X8889Y18249D01*
X8889Y18222D01*
X8898Y18213D01*
X8917Y18213D01*
X8926Y18222D01*
X8926Y18249D01*
X8926Y18231D02*
X8944Y18213D01*
X8953Y18194D02*
X8953Y18158D01*
X8898Y18139D02*
X8889Y18130D01*
X8889Y18112D01*
X8898Y18102D01*
X8935Y18102D01*
X8944Y18112D01*
X8944Y18130D01*
X8935Y18139D01*
X8898Y18139D01*
X8944Y18057D02*
X8889Y18057D01*
X8917Y18084D01*
X8917Y18047D01*
X8898Y18029D02*
X8889Y18020D01*
X8889Y18001D01*
X8898Y17992D01*
X8935Y17992D01*
X8944Y18001D01*
X8944Y18020D01*
X8935Y18029D01*
X8898Y18029D01*
X8944Y17937D02*
X8944Y17974D01*
X8907Y17937D01*
X8898Y17937D01*
X8889Y17946D01*
X8889Y17965D01*
X8898Y17974D01*
X8953Y17919D02*
X8953Y17882D01*
X8944Y17836D02*
X8889Y17836D01*
X8917Y17864D01*
X8917Y17827D01*
X8944Y17809D02*
X8935Y17809D01*
X8935Y17799D01*
X8944Y17799D01*
X8944Y17809D01*
X8935Y17763D02*
X8944Y17753D01*
X8944Y17735D01*
X8935Y17726D01*
X8898Y17726D01*
X8889Y17735D01*
X8889Y17753D01*
X8898Y17763D01*
X8907Y17763D01*
X8917Y17753D01*
X8917Y17726D01*
X8935Y17708D02*
X8944Y17698D01*
X8944Y17680D01*
X8935Y17671D01*
X8898Y17671D01*
X8889Y17680D01*
X8889Y17698D01*
X8898Y17708D01*
X8907Y17708D01*
X8917Y17698D01*
X8917Y17671D01*
X28020Y22767D02*
X28075Y22767D01*
X28075Y22794D01*
X28065Y22804D01*
X28047Y22804D01*
X28038Y22794D01*
X28038Y22767D01*
X28038Y22785D02*
X28020Y22804D01*
X28075Y22822D02*
X28075Y22859D01*
X28065Y22859D01*
X28029Y22822D01*
X28020Y22822D01*
X27911Y22804D02*
X27911Y22767D01*
X27948Y22804D01*
X27957Y22804D01*
X27966Y22794D01*
X27966Y22776D01*
X27957Y22767D01*
X27911Y22822D02*
X27920Y22822D01*
X27920Y22831D01*
X27911Y22831D01*
X27911Y22822D01*
X27911Y22905D02*
X27911Y22868D01*
X27948Y22905D01*
X27957Y22905D01*
X27966Y22896D01*
X27966Y22877D01*
X27957Y22868D01*
X27911Y22923D02*
X27966Y22923D01*
X27930Y22923D02*
X27948Y22951D01*
X27930Y22923D02*
X27911Y22951D01*
X27966Y23061D02*
X27966Y23042D01*
X27957Y23033D01*
X27920Y23033D01*
X27911Y23042D01*
X27911Y23061D01*
X27920Y23070D01*
X27957Y23070D01*
X27966Y23061D01*
X27966Y23088D02*
X27911Y23088D01*
X27939Y23088D01*
X27948Y23098D01*
X27948Y23116D01*
X27939Y23125D01*
X27911Y23125D01*
X27911Y23143D02*
X27948Y23143D01*
X27948Y23153D01*
X27939Y23162D01*
X27911Y23162D01*
X27939Y23162D01*
X27948Y23171D01*
X27939Y23180D01*
X27911Y23180D01*
X27911Y23199D02*
X27911Y23226D01*
X27920Y23235D01*
X27930Y23226D01*
X27930Y23208D01*
X27939Y23199D01*
X27948Y23208D01*
X27948Y23235D01*
X27030Y22767D02*
X27085Y22767D01*
X27085Y22794D01*
X27075Y22804D01*
X27057Y22804D01*
X27048Y22794D01*
X27048Y22767D01*
X27048Y22785D02*
X27030Y22804D01*
X27075Y22822D02*
X27085Y22831D01*
X27085Y22850D01*
X27075Y22859D01*
X27066Y22859D01*
X27057Y22850D01*
X27048Y22859D01*
X27039Y22859D01*
X27030Y22850D01*
X27030Y22831D01*
X27039Y22822D01*
X27048Y22822D01*
X27057Y22831D01*
X27066Y22822D01*
X27075Y22822D01*
X27057Y22831D02*
X27057Y22850D01*
X26921Y22804D02*
X26921Y22767D01*
X26958Y22804D01*
X26967Y22804D01*
X26976Y22794D01*
X26976Y22776D01*
X26967Y22767D01*
X26921Y22822D02*
X26930Y22822D01*
X26930Y22831D01*
X26921Y22831D01*
X26921Y22822D01*
X26921Y22905D02*
X26921Y22868D01*
X26958Y22905D01*
X26967Y22905D01*
X26976Y22896D01*
X26976Y22877D01*
X26967Y22868D01*
X26921Y22923D02*
X26976Y22923D01*
X26940Y22923D02*
X26958Y22951D01*
X26940Y22923D02*
X26921Y22951D01*
X26976Y23061D02*
X26976Y23042D01*
X26967Y23033D01*
X26930Y23033D01*
X26921Y23042D01*
X26921Y23061D01*
X26930Y23070D01*
X26967Y23070D01*
X26976Y23061D01*
X26976Y23088D02*
X26921Y23088D01*
X26949Y23088D01*
X26958Y23098D01*
X26958Y23116D01*
X26949Y23125D01*
X26921Y23125D01*
X26921Y23143D02*
X26958Y23143D01*
X26958Y23153D01*
X26949Y23162D01*
X26921Y23162D01*
X26949Y23162D01*
X26958Y23171D01*
X26949Y23180D01*
X26921Y23180D01*
X26921Y23199D02*
X26921Y23226D01*
X26930Y23235D01*
X26940Y23226D01*
X26940Y23208D01*
X26949Y23199D01*
X26958Y23208D01*
X26958Y23235D01*
X26030Y22767D02*
X26085Y22767D01*
X26085Y22794D01*
X26075Y22804D01*
X26057Y22804D01*
X26048Y22794D01*
X26048Y22767D01*
X26048Y22785D02*
X26030Y22804D01*
X26039Y22822D02*
X26030Y22831D01*
X26030Y22850D01*
X26039Y22859D01*
X26075Y22859D01*
X26085Y22850D01*
X26085Y22831D01*
X26075Y22822D01*
X26066Y22822D01*
X26057Y22831D01*
X26057Y22859D01*
X25921Y22767D02*
X25976Y22767D01*
X25976Y22794D01*
X25967Y22804D01*
X25949Y22804D01*
X25940Y22794D01*
X25940Y22767D01*
X25940Y22785D02*
X25921Y22804D01*
X25912Y22822D02*
X25912Y22859D01*
X25967Y22877D02*
X25976Y22886D01*
X25976Y22905D01*
X25967Y22914D01*
X25930Y22914D01*
X25921Y22905D01*
X25921Y22886D01*
X25930Y22877D01*
X25967Y22877D01*
X25921Y22960D02*
X25976Y22960D01*
X25949Y22932D01*
X25949Y22969D01*
X25967Y22987D02*
X25976Y22997D01*
X25976Y23015D01*
X25967Y23024D01*
X25930Y23024D01*
X25921Y23015D01*
X25921Y22997D01*
X25930Y22987D01*
X25967Y22987D01*
X25921Y23079D02*
X25921Y23042D01*
X25958Y23079D01*
X25967Y23079D01*
X25976Y23070D01*
X25976Y23052D01*
X25967Y23042D01*
X25912Y23098D02*
X25912Y23134D01*
X25921Y23153D02*
X25921Y23171D01*
X25921Y23162D01*
X25976Y23162D01*
X25967Y23153D01*
X25967Y23199D02*
X25976Y23208D01*
X25976Y23226D01*
X25967Y23235D01*
X25930Y23235D01*
X25921Y23226D01*
X25921Y23208D01*
X25930Y23199D01*
X25967Y23199D01*
X25921Y23254D02*
X25930Y23254D01*
X25930Y23263D01*
X25921Y23263D01*
X25921Y23254D01*
X25967Y23300D02*
X25976Y23309D01*
X25976Y23327D01*
X25967Y23336D01*
X25930Y23336D01*
X25921Y23327D01*
X25921Y23309D01*
X25930Y23300D01*
X25967Y23300D01*
X25976Y23355D02*
X25921Y23355D01*
X25940Y23355D01*
X25976Y23391D01*
X25949Y23364D01*
X25921Y23391D01*
D78*
X6482Y20489D02*
X6495Y20476D01*
X6495Y20450D01*
X6482Y20436D01*
X6429Y20436D01*
X6416Y20450D01*
X6416Y20476D01*
X6429Y20489D01*
X6482Y20515D02*
X6495Y20528D01*
X6495Y20554D01*
X6482Y20568D01*
X6469Y20568D01*
X6456Y20554D01*
X6456Y20541D01*
X6456Y20554D01*
X6443Y20568D01*
X6429Y20568D01*
X6416Y20554D01*
X6416Y20528D01*
X6429Y20515D01*
X6482Y20594D02*
X6495Y20607D01*
X6495Y20633D01*
X6482Y20646D01*
X6469Y20646D01*
X6456Y20633D01*
X6456Y20620D01*
X6456Y20633D01*
X6443Y20646D01*
X6429Y20646D01*
X6416Y20633D01*
X6416Y20607D01*
X6429Y20594D01*
X6220Y20436D02*
X6220Y20463D01*
X6220Y20450D01*
X6298Y20450D01*
X6285Y20436D01*
X6285Y20502D02*
X6298Y20515D01*
X6298Y20541D01*
X6285Y20554D01*
X6233Y20554D01*
X6220Y20541D01*
X6220Y20515D01*
X6233Y20502D01*
X6285Y20502D01*
X6272Y20581D02*
X6233Y20581D01*
X6220Y20594D01*
X6220Y20633D01*
X6272Y20633D01*
X6298Y20712D02*
X6298Y20659D01*
X6259Y20659D01*
X6259Y20686D01*
X6259Y20659D01*
X6220Y20659D01*
X3683Y13327D02*
X3669Y13341D01*
X3669Y13367D01*
X3683Y13380D01*
X3735Y13380D01*
X3748Y13367D01*
X3748Y13341D01*
X3735Y13327D01*
X3748Y13301D02*
X3748Y13275D01*
X3748Y13288D01*
X3669Y13288D01*
X3683Y13301D01*
X3945Y13380D02*
X3945Y13354D01*
X3945Y13367D01*
X3866Y13367D01*
X3879Y13380D01*
X3879Y13314D02*
X3866Y13301D01*
X3866Y13275D01*
X3879Y13262D01*
X3932Y13262D01*
X3945Y13275D01*
X3945Y13301D01*
X3932Y13314D01*
X3879Y13314D01*
X3893Y13236D02*
X3932Y13236D01*
X3945Y13222D01*
X3945Y13183D01*
X3893Y13183D01*
X3866Y13104D02*
X3866Y13157D01*
X3906Y13157D01*
X3906Y13131D01*
X3906Y13157D01*
X3945Y13157D01*
X4627Y13327D02*
X4614Y13341D01*
X4614Y13367D01*
X4627Y13380D01*
X4680Y13380D01*
X4693Y13367D01*
X4693Y13341D01*
X4680Y13327D01*
X4693Y13249D02*
X4693Y13301D01*
X4641Y13249D01*
X4627Y13249D01*
X4614Y13262D01*
X4614Y13288D01*
X4627Y13301D01*
X4890Y13380D02*
X4890Y13354D01*
X4890Y13367D01*
X4811Y13367D01*
X4824Y13380D01*
X4824Y13314D02*
X4811Y13301D01*
X4811Y13275D01*
X4824Y13262D01*
X4877Y13262D01*
X4890Y13275D01*
X4890Y13301D01*
X4877Y13314D01*
X4824Y13314D01*
X4837Y13236D02*
X4877Y13236D01*
X4890Y13222D01*
X4890Y13183D01*
X4837Y13183D01*
X4811Y13104D02*
X4811Y13157D01*
X4851Y13157D01*
X4851Y13131D01*
X4851Y13157D01*
X4890Y13157D01*
X3683Y4320D02*
X3669Y4333D01*
X3669Y4359D01*
X3683Y4372D01*
X3735Y4372D01*
X3748Y4359D01*
X3748Y4333D01*
X3735Y4320D01*
X3683Y4293D02*
X3669Y4280D01*
X3669Y4254D01*
X3683Y4241D01*
X3696Y4241D01*
X3709Y4254D01*
X3709Y4267D01*
X3709Y4254D01*
X3722Y4241D01*
X3735Y4241D01*
X3748Y4254D01*
X3748Y4280D01*
X3735Y4293D01*
X3945Y4372D02*
X3945Y4346D01*
X3945Y4359D01*
X3866Y4359D01*
X3879Y4372D01*
X3879Y4306D02*
X3866Y4293D01*
X3866Y4267D01*
X3879Y4254D01*
X3932Y4254D01*
X3945Y4267D01*
X3945Y4293D01*
X3932Y4306D01*
X3879Y4306D01*
X3893Y4228D02*
X3932Y4228D01*
X3945Y4215D01*
X3945Y4175D01*
X3893Y4175D01*
X3866Y4097D02*
X3866Y4149D01*
X3906Y4149D01*
X3906Y4123D01*
X3906Y4149D01*
X3945Y4149D01*
X4627Y4320D02*
X4614Y4333D01*
X4614Y4359D01*
X4627Y4372D01*
X4680Y4372D01*
X4693Y4359D01*
X4693Y4333D01*
X4680Y4320D01*
X4693Y4254D02*
X4614Y4254D01*
X4654Y4293D01*
X4654Y4241D01*
X4890Y4372D02*
X4890Y4346D01*
X4890Y4359D01*
X4811Y4359D01*
X4824Y4372D01*
X4824Y4306D02*
X4811Y4293D01*
X4811Y4267D01*
X4824Y4254D01*
X4877Y4254D01*
X4890Y4267D01*
X4890Y4293D01*
X4877Y4306D01*
X4824Y4306D01*
X4837Y4228D02*
X4877Y4228D01*
X4890Y4215D01*
X4890Y4175D01*
X4837Y4175D01*
X4811Y4097D02*
X4811Y4149D01*
X4851Y4149D01*
X4851Y4123D01*
X4851Y4149D01*
X4890Y4149D01*
X43491Y5822D02*
X43504Y5809D01*
X43504Y5782D01*
X43491Y5769D01*
X43439Y5769D01*
X43426Y5782D01*
X43426Y5809D01*
X43439Y5822D01*
X43491Y5848D02*
X43504Y5861D01*
X43504Y5887D01*
X43491Y5900D01*
X43478Y5900D01*
X43465Y5887D01*
X43465Y5874D01*
X43465Y5887D01*
X43452Y5900D01*
X43439Y5900D01*
X43426Y5887D01*
X43426Y5861D01*
X43439Y5848D01*
X43491Y5927D02*
X43504Y5940D01*
X43504Y5966D01*
X43491Y5979D01*
X43439Y5979D01*
X43426Y5966D01*
X43426Y5940D01*
X43439Y5927D01*
X43491Y5927D01*
X43229Y5769D02*
X43229Y5796D01*
X43229Y5782D01*
X43308Y5782D01*
X43294Y5769D01*
X43294Y5835D02*
X43308Y5848D01*
X43308Y5874D01*
X43294Y5887D01*
X43242Y5887D01*
X43229Y5874D01*
X43229Y5848D01*
X43242Y5835D01*
X43294Y5835D01*
X43281Y5914D02*
X43242Y5914D01*
X43229Y5927D01*
X43229Y5966D01*
X43281Y5966D01*
X43308Y6045D02*
X43308Y5992D01*
X43268Y5992D01*
X43268Y6019D01*
X43268Y5992D01*
X43229Y5992D01*
X40741Y5782D02*
X40754Y5768D01*
X40754Y5742D01*
X40741Y5729D01*
X40689Y5729D01*
X40676Y5742D01*
X40676Y5768D01*
X40689Y5782D01*
X40741Y5808D02*
X40754Y5821D01*
X40754Y5847D01*
X40741Y5860D01*
X40728Y5860D01*
X40715Y5847D01*
X40715Y5834D01*
X40715Y5847D01*
X40702Y5860D01*
X40689Y5860D01*
X40676Y5847D01*
X40676Y5821D01*
X40689Y5808D01*
X40676Y5939D02*
X40676Y5887D01*
X40728Y5939D01*
X40741Y5939D01*
X40754Y5926D01*
X40754Y5900D01*
X40741Y5887D01*
X40479Y5782D02*
X40479Y5729D01*
X40531Y5782D01*
X40544Y5782D01*
X40558Y5768D01*
X40558Y5742D01*
X40544Y5729D01*
X40479Y5860D02*
X40479Y5808D01*
X40531Y5860D01*
X40544Y5860D01*
X40558Y5847D01*
X40558Y5821D01*
X40544Y5808D01*
X40531Y5887D02*
X40492Y5887D01*
X40479Y5900D01*
X40479Y5939D01*
X40531Y5939D01*
X40558Y6018D02*
X40558Y5965D01*
X40518Y5965D01*
X40518Y5992D01*
X40518Y5965D01*
X40479Y5965D01*
M02*
