%FSLAX24Y24*%
%MOIN*%
G70*
G01*
G75*
G04 Layer_Physical_Order=1*
G04 Layer_Color=255*
%ADD10C,0.0060*%
%ADD11C,0.0150*%
%ADD12C,0.0394*%
%ADD13C,0.0591*%
%ADD14C,0.0600*%
%ADD15C,0.0240*%
D10*
X26500Y21430D02*
X26500Y25500D01*
X23620Y18550D02*
X26500Y21430D01*
X23226Y14780D02*
X23226Y19706D01*
X22832Y14780D02*
X22832Y20892D01*
X24500Y22560D01*
X24500Y25500D01*
X25500Y21980D02*
X25500Y25500D01*
X26000Y26000D01*
X24500Y25500D02*
X25000Y26000D01*
X26500Y25500D02*
X27000Y26000D01*
X27500Y25500D02*
X28000Y26000D01*
X27500Y21460D02*
X27500Y25500D01*
X24013Y17973D02*
X27500Y21460D01*
X26850Y26000D02*
X27000Y26000D01*
X23226Y19706D02*
X25500Y21980D01*
X23620Y14780D02*
X23620Y18550D01*
X24013Y14780D02*
X24013Y17973D01*
X17800Y17200D02*
X17800Y21750D01*
X15000Y24550D02*
X17800Y21750D01*
X15000Y24550D02*
X15000Y26000D01*
X18814Y17200D02*
X18814Y22276D01*
X18000Y23090D02*
X18814Y22276D01*
X18000Y23090D02*
X18000Y26000D01*
X18514Y17450D02*
X18514Y22126D01*
X17000Y23640D02*
X18514Y22126D01*
X17000Y23640D02*
X17000Y26000D01*
X18100Y17450D02*
X18100Y21910D01*
X16000Y24010D02*
X18100Y21910D01*
X16000Y24010D02*
X16000Y26000D01*
X29420Y18000D02*
X37511Y18000D01*
X25130Y13710D02*
X29420Y18000D01*
X17690Y13710D02*
X25130Y13710D01*
X16450Y14950D02*
X17690Y13710D01*
X29460Y17700D02*
X37950Y17700D01*
X25050Y13290D02*
X29460Y17700D01*
X17510Y13290D02*
X25050Y13290D01*
X29739Y17450D02*
X38350Y17450D01*
X25209Y12920D02*
X29739Y17450D01*
X17280Y12920D02*
X25209Y12920D01*
X29960Y17200D02*
X38700Y17200D01*
X25340Y12580D02*
X29960Y17200D01*
X17020Y12580D02*
X25340Y12580D01*
X30150Y16960D02*
X39240Y16960D01*
X25470Y12280D02*
X30150Y16960D01*
X16720Y12280D02*
X25470Y12280D01*
X30370Y16750D02*
X38950Y16750D01*
X25590Y11970D02*
X30370Y16750D01*
X16430Y11970D02*
X25590Y11970D01*
X30530Y16520D02*
X38670Y16520D01*
X25600Y11590D02*
X30530Y16520D01*
X16210Y11590D02*
X25600Y11590D01*
X30690Y16300D02*
X38448Y16300D01*
X25610Y11220D02*
X30690Y16300D01*
X15980Y11220D02*
X25610Y11220D01*
X16150Y14650D02*
X17510Y13290D01*
X15850Y14350D02*
X17280Y12920D01*
X15550Y14050D02*
X17020Y12580D01*
X15250Y13750D02*
X16720Y12280D01*
X14950Y13450D02*
X16430Y11970D01*
X14650Y13150D02*
X16210Y11590D01*
X14350Y12850D02*
X15980Y11220D01*
X25750Y10850D02*
X27850Y12950D01*
X15750Y10850D02*
X25750Y10850D01*
X14050Y12550D02*
X15750Y10850D01*
X26270Y10520D02*
X28400Y12650D01*
X15480Y10520D02*
X26270Y10520D01*
X13750Y12250D02*
X15480Y10520D01*
X26536Y10236D02*
X28900Y12600D01*
X15214Y10236D02*
X26536Y10236D01*
X13200Y12250D02*
X15214Y10236D01*
X26700Y9900D02*
X29350Y12550D01*
X15000Y9900D02*
X26700Y9900D01*
X12650Y12250D02*
X15000Y9900D01*
X26920Y9620D02*
X29920Y12620D01*
X14730Y9620D02*
X26920Y9620D01*
X12100Y12250D02*
X14730Y9620D01*
X27240Y9320D02*
X30320Y12400D01*
X14480Y9320D02*
X27240Y9320D01*
X11550Y12250D02*
X14480Y9320D01*
X28110Y9050D02*
X30060Y11000D01*
X14200Y9050D02*
X28110Y9050D01*
X11000Y12250D02*
X14200Y9050D01*
X28290Y8660D02*
X30680Y11050D01*
X14040Y8660D02*
X28290Y8660D01*
X10450Y12250D02*
X14040Y8660D01*
X28570Y8320D02*
X31120Y10870D01*
X13620Y8320D02*
X28570Y8320D01*
X10070Y11870D02*
X13620Y8320D01*
X36172Y8110D02*
X36172Y15039D01*
X35700Y7638D02*
X36172Y8110D01*
X35700Y4270D02*
X35700Y7638D01*
X2500Y8600D02*
X5460Y8600D01*
X9260Y4800D02*
X31800Y4800D01*
X8950Y4250D02*
X31800Y4250D01*
X2500Y7600D02*
X5600Y7600D01*
X5660Y6600D02*
X8610Y3650D01*
X2500Y6600D02*
X5660Y6600D01*
X2500Y5600D02*
X2510Y5590D01*
X1500Y5600D02*
X2000Y5100D01*
X33930Y2500D02*
X35700Y4270D01*
X36487Y14724D02*
X36487Y15153D01*
X35610Y15320D02*
X36320Y15320D01*
X36487Y15153D01*
X34210Y13920D02*
X35610Y15320D01*
X40140Y13700D02*
X42800Y13700D01*
X39150Y16100D02*
X39850Y15400D01*
X39150Y16100D02*
X39150Y16550D01*
X39600Y16050D02*
X39600Y16600D01*
X36600Y15550D02*
X36800Y15350D01*
X38040Y15800D02*
X40140Y13700D01*
X38200Y16050D02*
X40100Y14150D01*
X38448Y16300D02*
X40150Y14598D01*
X38670Y16520D02*
X38700Y16490D01*
X38950Y16750D02*
X39150Y16550D01*
X39240Y16960D02*
X39600Y16600D01*
X1500Y8600D02*
X2220Y9320D01*
X5640Y9320D01*
X29350Y12550D02*
X29350Y14250D01*
X28900Y12600D02*
X28900Y13800D01*
X28400Y12650D02*
X28400Y13300D01*
X40100Y14150D02*
X42500Y14150D01*
X8010Y2500D02*
X33930Y2500D01*
X2000Y5100D02*
X5410Y5100D01*
X8010Y2500D01*
X2510Y5590D02*
X5900Y5590D01*
X8440Y3050D01*
X31800Y3050D01*
X8610Y3650D02*
X31800Y3650D01*
X5600Y7600D02*
X8950Y4250D01*
X5460Y8600D02*
X9260Y4800D01*
X5640Y9320D02*
X9684Y5276D01*
X31626Y5276D01*
X32550Y6200D01*
X7291Y16759D02*
X10070Y13980D01*
X7291Y16759D02*
X7291Y17990D01*
X10070Y11870D02*
X10070Y13980D01*
X17421Y15251D02*
X19601Y15251D01*
X21750Y17400D01*
X33880Y14650D02*
X34780Y15550D01*
X36600Y15550D01*
X30320Y12400D02*
X30320Y13000D01*
X33120Y15800D01*
X38040Y15800D01*
X29920Y12620D02*
X29920Y13160D01*
X32810Y16050D01*
X38200Y16050D01*
X31120Y10870D02*
X32670Y10870D01*
X33160Y11360D01*
X33850Y11360D01*
X34210Y11720D01*
X34210Y13920D01*
X30680Y11050D02*
X32250Y11050D01*
X33880Y12680D01*
X33880Y14650D01*
X30660Y12710D02*
X32550Y14600D01*
X30660Y12090D02*
X30660Y12710D01*
X30060Y11490D02*
X30660Y12090D01*
X30060Y11000D02*
X30060Y11490D01*
D11*
X40780Y5810D02*
X41185Y5406D01*
X40780Y5810D02*
X40780Y6271D01*
X41165Y6656D01*
D12*
X0Y1000D02*
G03*
X1000Y0I1000J0D01*
G01*
X1000Y27000D02*
G03*
X0Y26000I0J-1000D01*
G01*
X45000Y0D02*
G03*
X46000Y1000I0J1000D01*
G01*
X46001Y26000D02*
G03*
X45001Y27000I-1000J0D01*
G01*
X1000Y0D02*
X45000Y0D01*
X0Y1000D02*
X0Y26000D01*
X46000Y1000D02*
X46000Y26000D01*
X1000Y27000D02*
X45001Y27000D01*
D13*
X1500Y17600D02*
D03*
X1500Y16600D02*
D03*
X1500Y15600D02*
D03*
X1500Y12600D02*
D03*
X1500Y13600D02*
D03*
X1500Y14600D02*
D03*
X2500Y14600D02*
D03*
X2500Y13600D02*
D03*
X2500Y12600D02*
D03*
X2500Y15600D02*
D03*
X2500Y16600D02*
D03*
X2500Y17600D02*
D03*
X1500Y8600D02*
D03*
X1500Y7600D02*
D03*
X1500Y6600D02*
D03*
X1500Y3600D02*
D03*
X1500Y4600D02*
D03*
X1500Y5600D02*
D03*
X2500Y5600D02*
D03*
X2500Y4600D02*
D03*
X2500Y3600D02*
D03*
X2500Y6600D02*
D03*
X2500Y7600D02*
D03*
X2500Y8600D02*
D03*
D14*
X13000Y26000D02*
D03*
X14000Y26000D02*
D03*
X15000Y26000D02*
D03*
X16000Y26000D02*
D03*
X17000Y26000D02*
D03*
X18000Y26000D02*
D03*
X23000Y26000D02*
D03*
X24000Y26000D02*
D03*
X25000Y26000D02*
D03*
X26000Y26000D02*
D03*
X27000Y26000D02*
D03*
X28000Y26000D02*
D03*
D15*
X42046Y5909D02*
D03*
X41684Y5906D02*
D03*
X31918Y7612D02*
D03*
X18814Y17200D02*
D03*
X23000Y23400D02*
D03*
X13000Y23400D02*
D03*
X27990Y22425D02*
D03*
X27000Y22425D02*
D03*
X26000Y22425D02*
D03*
X25000Y22425D02*
D03*
X18514Y17450D02*
D03*
X18100Y17450D02*
D03*
X17800Y17200D02*
D03*
X22832Y14780D02*
D03*
X23226Y14780D02*
D03*
X23620Y14780D02*
D03*
X24013Y14780D02*
D03*
X24801Y14780D02*
D03*
X24407Y14780D02*
D03*
X21592Y15749D02*
D03*
X26041Y15749D02*
D03*
X37668Y6402D02*
D03*
X37653Y7543D02*
D03*
X38062Y10787D02*
D03*
X39196Y7606D02*
D03*
X39610Y7387D02*
D03*
X39540Y7953D02*
D03*
X39400Y9450D02*
D03*
X38062Y9370D02*
D03*
X38712Y12752D02*
D03*
X36487Y12362D02*
D03*
X33275Y7795D02*
D03*
X33275Y9370D02*
D03*
X33275Y10000D02*
D03*
X31007Y10236D02*
D03*
X33275Y10472D02*
D03*
X32102Y10551D02*
D03*
X36566Y13622D02*
D03*
X33275Y11024D02*
D03*
X33338Y11732D02*
D03*
X34598Y13528D02*
D03*
X34755Y12362D02*
D03*
X35700Y12362D02*
D03*
X37117Y13528D02*
D03*
X37275Y12362D02*
D03*
X33417Y13622D02*
D03*
X33401Y14724D02*
D03*
X30563Y9300D02*
D03*
X30713Y7953D02*
D03*
X31920Y7165D02*
D03*
X33354Y5433D02*
D03*
X34787Y5276D02*
D03*
X36078Y5433D02*
D03*
X36530Y5313D02*
D03*
X37354Y5433D02*
D03*
X38141Y5339D02*
D03*
X40141Y8315D02*
D03*
X40637Y9620D02*
D03*
X40537Y10945D02*
D03*
X40424Y11417D02*
D03*
X39243Y14026D02*
D03*
X38283Y14724D02*
D03*
X36881Y14685D02*
D03*
X35606Y14724D02*
D03*
X34361Y14724D02*
D03*
X35621Y13622D02*
D03*
X41145Y5906D02*
D03*
X41185Y5406D02*
D03*
X41165Y6656D02*
D03*
X42275Y5126D02*
D03*
X42755Y5576D02*
D03*
X43955Y6346D02*
D03*
X43955Y6746D02*
D03*
X33810Y6472D02*
D03*
X34913Y6472D02*
D03*
X11201Y17191D02*
D03*
X5558Y21612D02*
D03*
X5558Y21139D02*
D03*
X5558Y20037D02*
D03*
X5558Y20509D02*
D03*
X8865Y17360D02*
D03*
X7920Y17360D02*
D03*
X31133Y9780D02*
D03*
X29385Y11055D02*
D03*
X36172Y15039D02*
D03*
X31800Y3650D02*
D03*
X30130Y5734D02*
D03*
X30130Y7781D02*
D03*
X36487Y14724D02*
D03*
X7291Y17990D02*
D03*
X18104Y15662D02*
D03*
X16437Y15649D02*
D03*
X36393Y7543D02*
D03*
X32550Y6200D02*
D03*
X31800Y4800D02*
D03*
X31800Y4250D02*
D03*
X31800Y3050D02*
D03*
X9558Y19580D02*
D03*
X9407Y20440D02*
D03*
X36800Y15350D02*
D03*
X32550Y14600D02*
D03*
X42800Y13700D02*
D03*
X27850Y12950D02*
D03*
X40150Y14598D02*
D03*
X38700Y16490D02*
D03*
X39850Y15400D02*
D03*
X39600Y16050D02*
D03*
X38700Y17200D02*
D03*
X38350Y17450D02*
D03*
X37950Y17700D02*
D03*
X37511Y18000D02*
D03*
X28400Y13300D02*
D03*
X28900Y13800D02*
D03*
X29350Y14250D02*
D03*
X21750Y17400D02*
D03*
X17421Y15251D02*
D03*
X42500Y14150D02*
D03*
X16450Y14950D02*
D03*
X16150Y14650D02*
D03*
X15850Y14350D02*
D03*
X14950Y13450D02*
D03*
X15250Y13750D02*
D03*
X15550Y14050D02*
D03*
X13750Y12250D02*
D03*
X14050Y12550D02*
D03*
X14350Y12850D02*
D03*
X14650Y13150D02*
D03*
X11370Y15750D02*
D03*
X10450Y12250D02*
D03*
X11000Y12250D02*
D03*
X11550Y12250D02*
D03*
X12100Y12250D02*
D03*
X12650Y12250D02*
D03*
X13200Y12250D02*
D03*
X33275Y8189D02*
D03*
X34976Y7543D02*
D03*
X33873Y7543D02*
D03*
X38141Y6510D02*
D03*
X31840Y8031D02*
D03*
X31770Y9291D02*
D03*
X31760Y9710D02*
D03*
X32102Y9921D02*
D03*
X39322Y10945D02*
D03*
X36529Y6462D02*
D03*
X39243Y12803D02*
D03*
X32613Y13748D02*
D03*
X33000Y13610D02*
D03*
X31999Y11650D02*
D03*
X30910Y11654D02*
D03*
M02*
