%FSLAX24Y24*%
%MOIN*%
G70*
G01*
G75*
G04 Layer_Physical_Order=2*
G04 Layer_Color=32768*
%ADD10C,0.0060*%
%ADD11C,0.0150*%
%ADD12C,0.0394*%
%ADD13C,0.0591*%
%ADD14C,0.0600*%
%ADD15C,0.0240*%
%ADD16C,0.0400*%
%ADD17C,0.0640*%
G04:AMPARAMS|DCode=18|XSize=80mil|YSize=80mil|CornerRadius=0mil|HoleSize=0mil|Usage=FLASHONLY|Rotation=0.000|XOffset=0mil|YOffset=0mil|HoleType=Round|Shape=Relief|Width=8mil|Gap=10mil|Entries=4|*
%AMTHD18*
7,0,0,0.0800,0.0600,0.0080,45*
%
%ADD18THD18*%
%ADD19C,0.1490*%
%ADD20C,0.0340*%
G04:AMPARAMS|DCode=21|XSize=50mil|YSize=50mil|CornerRadius=0mil|HoleSize=0mil|Usage=FLASHONLY|Rotation=0.000|XOffset=0mil|YOffset=0mil|HoleType=Round|Shape=Relief|Width=8mil|Gap=10mil|Entries=4|*
%AMTHD21*
7,0,0,0.0500,0.0300,0.0080,45*
%
%ADD21THD21*%
D12*
X0Y1000D02*
G03*
X1000Y0I1000J0D01*
G01*
X1000Y27000D02*
G03*
X0Y26000I0J-1000D01*
G01*
X45000Y0D02*
G03*
X46000Y1000I0J1000D01*
G01*
X46001Y26000D02*
G03*
X45001Y27000I-1000J0D01*
G01*
X1000Y0D02*
X45000Y0D01*
X0Y1000D02*
X0Y26000D01*
X46000Y1000D02*
X46000Y26000D01*
X1000Y27000D02*
X45001Y27000D01*
D16*
X1000Y27000D02*
G03*
X0Y26000I0J-1000D01*
G01*
X46001Y26000D02*
G03*
X45001Y27000I-1000J0D01*
G01*
X45000Y0D02*
G03*
X46000Y1000I0J1000D01*
G01*
X0Y1000D02*
G03*
X1000Y0I1000J0D01*
G01*
X0Y1000D02*
X0Y26000D01*
X1000Y27000D02*
X45001Y27000D01*
X45001Y27000D01*
X46000Y26000D02*
X46001Y26000D01*
X46000Y1000D02*
X46000Y26000D01*
X46000Y1000D02*
X46000Y1000D01*
X1000Y0D02*
X45000Y0D01*
D17*
X1500Y17600D02*
D03*
X1500Y16600D02*
D03*
X1500Y15600D02*
D03*
X1500Y13600D02*
D03*
X1500Y14600D02*
D03*
X2500Y14600D02*
D03*
X2500Y13600D02*
D03*
X2500Y15600D02*
D03*
X2500Y16600D02*
D03*
X2500Y17600D02*
D03*
X13000Y26000D02*
D03*
X14000Y26000D02*
D03*
X15000Y26000D02*
D03*
X16000Y26000D02*
D03*
X17000Y26000D02*
D03*
X18000Y26000D02*
D03*
X23000Y26000D02*
D03*
X24000Y26000D02*
D03*
X25000Y26000D02*
D03*
X26000Y26000D02*
D03*
X27000Y26000D02*
D03*
X28000Y26000D02*
D03*
X1500Y8600D02*
D03*
X1500Y7600D02*
D03*
X1500Y6600D02*
D03*
X1500Y4600D02*
D03*
X1500Y5600D02*
D03*
X2500Y5600D02*
D03*
X2500Y4600D02*
D03*
X2500Y6600D02*
D03*
X2500Y7600D02*
D03*
X2500Y8600D02*
D03*
D18*
X1500Y12600D02*
D03*
X2500Y12600D02*
D03*
X1500Y3600D02*
D03*
X2500Y3600D02*
D03*
D19*
X45000Y1000D02*
D03*
X920Y960D02*
D03*
X45000Y26000D02*
D03*
X1000Y26010D02*
D03*
D20*
X42046Y5909D02*
D03*
X41684Y5906D02*
D03*
X31918Y7612D02*
D03*
X18814Y17200D02*
D03*
X25000Y22425D02*
D03*
X18514Y17450D02*
D03*
X18100Y17450D02*
D03*
X17800Y17200D02*
D03*
X22832Y14780D02*
D03*
X23226Y14780D02*
D03*
X23620Y14780D02*
D03*
X24013Y14780D02*
D03*
X24407Y14780D02*
D03*
X21592Y15749D02*
D03*
X26041Y15749D02*
D03*
X37653Y7543D02*
D03*
X38062Y10787D02*
D03*
X39610Y7387D02*
D03*
X39540Y7953D02*
D03*
X38062Y9370D02*
D03*
X38712Y12752D02*
D03*
X36487Y12362D02*
D03*
X33275Y7795D02*
D03*
X33275Y9370D02*
D03*
X33275Y10000D02*
D03*
X31007Y10236D02*
D03*
X33275Y10472D02*
D03*
X32102Y10551D02*
D03*
X33275Y11024D02*
D03*
X33338Y11732D02*
D03*
X34755Y12362D02*
D03*
X35700Y12362D02*
D03*
X37275Y12362D02*
D03*
X33401Y14724D02*
D03*
X30563Y9300D02*
D03*
X30713Y7953D02*
D03*
X31920Y7165D02*
D03*
X33354Y5433D02*
D03*
X34787Y5276D02*
D03*
X36078Y5433D02*
D03*
X36530Y5313D02*
D03*
X37354Y5433D02*
D03*
X38141Y5339D02*
D03*
X40141Y8315D02*
D03*
X40637Y9620D02*
D03*
X40537Y10945D02*
D03*
X40424Y11417D02*
D03*
X39243Y14026D02*
D03*
X38283Y14724D02*
D03*
X36881Y14685D02*
D03*
X35606Y14724D02*
D03*
X34361Y14724D02*
D03*
X41145Y5906D02*
D03*
X41185Y5406D02*
D03*
X41165Y6656D02*
D03*
X42755Y5576D02*
D03*
X11201Y17191D02*
D03*
X5558Y20037D02*
D03*
X5558Y20509D02*
D03*
X8865Y17360D02*
D03*
X7920Y17360D02*
D03*
X31133Y9780D02*
D03*
X29385Y11055D02*
D03*
X36172Y15039D02*
D03*
X31800Y3650D02*
D03*
X30130Y5734D02*
D03*
X36487Y14724D02*
D03*
X7291Y17990D02*
D03*
X18104Y15662D02*
D03*
X16437Y15649D02*
D03*
X36393Y7543D02*
D03*
X32550Y6200D02*
D03*
X31800Y4800D02*
D03*
X31800Y4250D02*
D03*
X31800Y3050D02*
D03*
X9558Y19580D02*
D03*
X9407Y20440D02*
D03*
X36800Y15350D02*
D03*
X32550Y14600D02*
D03*
X42800Y13700D02*
D03*
X27850Y12950D02*
D03*
X40150Y14598D02*
D03*
X38700Y16490D02*
D03*
X39850Y15400D02*
D03*
X39600Y16050D02*
D03*
X38700Y17200D02*
D03*
X38350Y17450D02*
D03*
X37950Y17700D02*
D03*
X37511Y18000D02*
D03*
X28400Y13300D02*
D03*
X28900Y13800D02*
D03*
X29350Y14250D02*
D03*
X21750Y17400D02*
D03*
X17421Y15251D02*
D03*
X42500Y14150D02*
D03*
X16450Y14950D02*
D03*
X16150Y14650D02*
D03*
X15850Y14350D02*
D03*
X14950Y13450D02*
D03*
X15250Y13750D02*
D03*
X15550Y14050D02*
D03*
X13750Y12250D02*
D03*
X14050Y12550D02*
D03*
X14350Y12850D02*
D03*
X14650Y13150D02*
D03*
X10450Y12250D02*
D03*
X11000Y12250D02*
D03*
X11550Y12250D02*
D03*
X12100Y12250D02*
D03*
X12650Y12250D02*
D03*
X13200Y12250D02*
D03*
X33275Y8189D02*
D03*
X34976Y7543D02*
D03*
X33873Y7543D02*
D03*
X31760Y9710D02*
D03*
X32613Y13748D02*
D03*
X33000Y13610D02*
D03*
X30910Y11654D02*
D03*
D21*
X23000Y23400D02*
D03*
X13000Y23400D02*
D03*
X27990Y22425D02*
D03*
X27000Y22425D02*
D03*
X26000Y22425D02*
D03*
X24801Y14780D02*
D03*
X37668Y6402D02*
D03*
X39196Y7606D02*
D03*
X39400Y9450D02*
D03*
X36566Y13622D02*
D03*
X34598Y13528D02*
D03*
X37117Y13528D02*
D03*
X33417Y13622D02*
D03*
X35621Y13622D02*
D03*
X42275Y5126D02*
D03*
X43955Y6346D02*
D03*
X43955Y6746D02*
D03*
X33810Y6472D02*
D03*
X34913Y6472D02*
D03*
X5558Y21612D02*
D03*
X5558Y21139D02*
D03*
X30130Y7781D02*
D03*
X11370Y15750D02*
D03*
X38141Y6510D02*
D03*
X31840Y8031D02*
D03*
X31770Y9291D02*
D03*
X32102Y9921D02*
D03*
X39322Y10945D02*
D03*
X36529Y6462D02*
D03*
X39243Y12803D02*
D03*
X31999Y11650D02*
D03*
M02*
