G04 Layer_Color=128*
%FSLAX24Y24*%
%MOIN*%
G70*
G01*
G75*
%ADD21R,0.0394X0.0433*%
G04:AMPARAMS|DCode=22|XSize=25.6mil|YSize=23.6mil|CornerRadius=5.9mil|HoleSize=0mil|Usage=FLASHONLY|Rotation=0.000|XOffset=0mil|YOffset=0mil|HoleType=Round|Shape=RoundedRectangle|*
%AMROUNDEDRECTD22*
21,1,0.0256,0.0118,0,0,0.0*
21,1,0.0138,0.0236,0,0,0.0*
1,1,0.0118,0.0069,-0.0059*
1,1,0.0118,-0.0069,-0.0059*
1,1,0.0118,-0.0069,0.0059*
1,1,0.0118,0.0069,0.0059*
%
%ADD22ROUNDEDRECTD22*%
%ADD23R,0.0256X0.0295*%
%ADD24R,0.0591X0.0512*%
G04:AMPARAMS|DCode=25|XSize=25.6mil|YSize=23.6mil|CornerRadius=5.9mil|HoleSize=0mil|Usage=FLASHONLY|Rotation=90.000|XOffset=0mil|YOffset=0mil|HoleType=Round|Shape=RoundedRectangle|*
%AMROUNDEDRECTD25*
21,1,0.0256,0.0118,0,0,90.0*
21,1,0.0138,0.0236,0,0,90.0*
1,1,0.0118,0.0059,0.0069*
1,1,0.0118,0.0059,-0.0069*
1,1,0.0118,-0.0059,-0.0069*
1,1,0.0118,-0.0059,0.0069*
%
%ADD25ROUNDEDRECTD25*%
%ADD26R,0.0197X0.0236*%
%ADD27R,0.0236X0.0197*%
%ADD28R,0.0669X0.0984*%
%ADD29R,0.0138X0.0709*%
%ADD30R,0.0126X0.0709*%
%ADD31R,0.0433X0.1260*%
%ADD32R,0.0097X0.0433*%
%ADD33R,0.0433X0.0097*%
%ADD34R,0.0433X0.0097*%
%ADD35R,0.0433X0.0256*%
%ADD36R,0.0236X0.0748*%
%ADD37R,0.0827X0.1102*%
%ADD38R,0.0098X0.0315*%
%ADD39R,0.0984X0.0354*%
%ADD40R,0.0551X0.0709*%
G04:AMPARAMS|DCode=41|XSize=70.9mil|YSize=51.2mil|CornerRadius=12.8mil|HoleSize=0mil|Usage=FLASHONLY|Rotation=270.000|XOffset=0mil|YOffset=0mil|HoleType=Round|Shape=RoundedRectangle|*
%AMROUNDEDRECTD41*
21,1,0.0709,0.0256,0,0,270.0*
21,1,0.0453,0.0512,0,0,270.0*
1,1,0.0256,-0.0128,-0.0226*
1,1,0.0256,-0.0128,0.0226*
1,1,0.0256,0.0128,0.0226*
1,1,0.0256,0.0128,-0.0226*
%
%ADD41ROUNDEDRECTD41*%
%ADD42O,0.0098X0.0571*%
%ADD43R,0.0433X0.0394*%
G04:AMPARAMS|DCode=44|XSize=70.9mil|YSize=63mil|CornerRadius=15.7mil|HoleSize=0mil|Usage=FLASHONLY|Rotation=180.000|XOffset=0mil|YOffset=0mil|HoleType=Round|Shape=RoundedRectangle|*
%AMROUNDEDRECTD44*
21,1,0.0709,0.0315,0,0,180.0*
21,1,0.0394,0.0630,0,0,180.0*
1,1,0.0315,-0.0197,0.0157*
1,1,0.0315,0.0197,0.0157*
1,1,0.0315,0.0197,-0.0157*
1,1,0.0315,-0.0197,-0.0157*
%
%ADD44ROUNDEDRECTD44*%
D21*
X23000Y24750D02*
D03*
X23000Y24081D02*
D03*
X32530Y12860D02*
D03*
X32530Y13529D02*
D03*
X34361Y13937D02*
D03*
X34361Y14606D02*
D03*
X36881Y13970D02*
D03*
X36881Y14639D02*
D03*
X33350Y6210D02*
D03*
X33350Y5541D02*
D03*
X34810Y5850D02*
D03*
X34810Y5181D02*
D03*
X36078Y6358D02*
D03*
X36078Y5689D02*
D03*
X37354Y6358D02*
D03*
X37354Y5689D02*
D03*
X38283Y13799D02*
D03*
X38283Y14468D02*
D03*
D22*
X26000Y23200D02*
D03*
X26000Y22806D02*
D03*
X27000Y23200D02*
D03*
X27000Y22806D02*
D03*
X27990Y23200D02*
D03*
X27990Y22806D02*
D03*
X7920Y17816D02*
D03*
X7920Y18210D02*
D03*
X39243Y13239D02*
D03*
X39243Y13632D02*
D03*
X33401Y13937D02*
D03*
X33401Y14331D02*
D03*
X36530Y6100D02*
D03*
X36530Y5706D02*
D03*
X38141Y6126D02*
D03*
X38141Y5732D02*
D03*
X35606Y13937D02*
D03*
X35606Y14331D02*
D03*
X25000Y22806D02*
D03*
X25000Y23200D02*
D03*
X20530Y24450D02*
D03*
X20530Y24844D02*
D03*
X14990Y22760D02*
D03*
X14990Y22366D02*
D03*
X42725Y6336D02*
D03*
X42725Y5942D02*
D03*
X7133Y21021D02*
D03*
X7133Y20627D02*
D03*
D23*
X41185Y4669D02*
D03*
X41185Y5102D02*
D03*
X41956Y4843D02*
D03*
X41956Y4410D02*
D03*
D24*
X40605Y6459D02*
D03*
X40605Y5711D02*
D03*
X43355Y6500D02*
D03*
X43355Y5752D02*
D03*
X4764Y3642D02*
D03*
X4764Y4390D02*
D03*
X3819Y3642D02*
D03*
X3819Y4390D02*
D03*
X4764Y12650D02*
D03*
X4764Y13398D02*
D03*
X3819Y12650D02*
D03*
X3819Y13398D02*
D03*
X6346Y21167D02*
D03*
X6346Y20419D02*
D03*
D25*
X39750Y10945D02*
D03*
X40144Y10945D02*
D03*
X31350Y9300D02*
D03*
X30956Y9300D02*
D03*
X31500Y7953D02*
D03*
X31106Y7953D02*
D03*
X11654Y17876D02*
D03*
X11261Y17876D02*
D03*
X31650Y11654D02*
D03*
X31256Y11654D02*
D03*
X21450Y21550D02*
D03*
X21844Y21550D02*
D03*
D26*
X28775Y12550D02*
D03*
X29169Y12550D02*
D03*
X29176Y9197D02*
D03*
X28782Y9197D02*
D03*
D27*
X9558Y19250D02*
D03*
X9558Y18856D02*
D03*
D28*
X10629Y18856D02*
D03*
X10629Y20431D02*
D03*
D29*
X10985Y16812D02*
D03*
X12166Y16812D02*
D03*
X12363Y16812D02*
D03*
X12560Y16812D02*
D03*
X12757Y16812D02*
D03*
X12954Y16812D02*
D03*
X13151Y16812D02*
D03*
X13347Y16812D02*
D03*
X13544Y16812D02*
D03*
X13741Y16812D02*
D03*
X13938Y16812D02*
D03*
X14135Y16812D02*
D03*
X14332Y16812D02*
D03*
X14528Y16812D02*
D03*
X14725Y16812D02*
D03*
X14922Y16812D02*
D03*
X15119Y16812D02*
D03*
X15316Y16812D02*
D03*
X15513Y16812D02*
D03*
X15710Y16812D02*
D03*
X15906Y16812D02*
D03*
X16103Y16812D02*
D03*
X16300Y16812D02*
D03*
X16497Y16812D02*
D03*
X16694Y16812D02*
D03*
X16891Y16812D02*
D03*
X17088Y16812D02*
D03*
X17284Y16812D02*
D03*
X17481Y16812D02*
D03*
X17678Y16812D02*
D03*
X17875Y16812D02*
D03*
X18072Y16812D02*
D03*
X18269Y16812D02*
D03*
X18466Y16812D02*
D03*
X18662Y16812D02*
D03*
D30*
X11182Y16812D02*
D03*
X11379Y16812D02*
D03*
X11576Y16812D02*
D03*
X11773Y16812D02*
D03*
X11969Y16812D02*
D03*
D31*
X42212Y7760D02*
D03*
X41268Y7760D02*
D03*
D32*
X33259Y6988D02*
D03*
X33417Y6988D02*
D03*
X33574Y6988D02*
D03*
X33732Y6988D02*
D03*
X33889Y6988D02*
D03*
X34046Y6988D02*
D03*
X34204Y6988D02*
D03*
X34361Y6988D02*
D03*
X34519Y6988D02*
D03*
X34676Y6988D02*
D03*
X34834Y6988D02*
D03*
X34991Y6988D02*
D03*
X35149Y6988D02*
D03*
X35306Y6988D02*
D03*
X35464Y6988D02*
D03*
X35621Y6988D02*
D03*
X35779Y6988D02*
D03*
X35936Y6988D02*
D03*
X36094Y6988D02*
D03*
X36251Y6988D02*
D03*
X36409Y6988D02*
D03*
X36566Y6988D02*
D03*
X36724Y6988D02*
D03*
X36881Y6988D02*
D03*
X37039Y6988D02*
D03*
X37196Y6988D02*
D03*
X37354Y6988D02*
D03*
X37511Y6988D02*
D03*
X37668Y6988D02*
D03*
X37826Y6988D02*
D03*
X37983Y6988D02*
D03*
X38141Y6988D02*
D03*
X38141Y13012D02*
D03*
X37983Y13012D02*
D03*
X37826Y13012D02*
D03*
X37668Y13012D02*
D03*
X37511Y13012D02*
D03*
X37354Y13012D02*
D03*
X37196Y13012D02*
D03*
X37039Y13012D02*
D03*
X36881Y13012D02*
D03*
X36724Y13012D02*
D03*
X36566Y13012D02*
D03*
X36409Y13012D02*
D03*
X36251Y13012D02*
D03*
X36094Y13012D02*
D03*
X35936Y13012D02*
D03*
X35779Y13012D02*
D03*
X35621Y13012D02*
D03*
X35464Y13012D02*
D03*
X35306Y13012D02*
D03*
X35149Y13012D02*
D03*
X34991Y13012D02*
D03*
X34834Y13012D02*
D03*
X34676Y13012D02*
D03*
X34519Y13012D02*
D03*
X34361Y13012D02*
D03*
X34204Y13012D02*
D03*
X34046Y13012D02*
D03*
X33889Y13012D02*
D03*
X33732Y13012D02*
D03*
X33574Y13012D02*
D03*
X33417Y13012D02*
D03*
X33259Y13012D02*
D03*
D33*
X38712Y7559D02*
D03*
X38712Y7717D02*
D03*
X38712Y7874D02*
D03*
X38712Y8031D02*
D03*
X38712Y8189D02*
D03*
X38712Y8346D02*
D03*
X38712Y8504D02*
D03*
X38712Y8661D02*
D03*
X38712Y8819D02*
D03*
X38712Y8976D02*
D03*
X38712Y9134D02*
D03*
X38712Y9291D02*
D03*
X38712Y9449D02*
D03*
X38712Y9606D02*
D03*
X38712Y9764D02*
D03*
X38712Y9921D02*
D03*
X38712Y10079D02*
D03*
X38712Y10236D02*
D03*
X38712Y10394D02*
D03*
X38712Y10551D02*
D03*
X38712Y10709D02*
D03*
X38712Y10866D02*
D03*
X38712Y11024D02*
D03*
X38712Y11181D02*
D03*
X38712Y11339D02*
D03*
X38712Y11496D02*
D03*
X38712Y11654D02*
D03*
X38712Y11811D02*
D03*
X38712Y11968D02*
D03*
X38712Y12126D02*
D03*
X38712Y12283D02*
D03*
X38712Y12441D02*
D03*
X32688Y12441D02*
D03*
X32688Y12283D02*
D03*
X32688Y12126D02*
D03*
X32688Y11968D02*
D03*
X32688Y11811D02*
D03*
X32688Y11654D02*
D03*
X32688Y11496D02*
D03*
X32688Y11339D02*
D03*
X32688Y11181D02*
D03*
X32688Y11024D02*
D03*
X32688Y10866D02*
D03*
X32688Y10709D02*
D03*
X32688Y10551D02*
D03*
X32688Y10394D02*
D03*
X32688Y10236D02*
D03*
X32688Y10079D02*
D03*
X32688Y9921D02*
D03*
X32688Y9764D02*
D03*
X32688Y9606D02*
D03*
X32688Y9449D02*
D03*
X32688Y9291D02*
D03*
X32688Y9134D02*
D03*
X32688Y8976D02*
D03*
X32688Y8819D02*
D03*
X32688Y8661D02*
D03*
X32688Y8504D02*
D03*
X32688Y8346D02*
D03*
X32688Y8189D02*
D03*
X32688Y8031D02*
D03*
X32688Y7874D02*
D03*
X32688Y7717D02*
D03*
D34*
X32688Y7559D02*
D03*
D35*
X7920Y21009D02*
D03*
X7920Y20261D02*
D03*
X8865Y20261D02*
D03*
X8865Y20635D02*
D03*
X8865Y21009D02*
D03*
D36*
X24686Y15828D02*
D03*
X24292Y15828D02*
D03*
X23898Y15828D02*
D03*
X23505Y15828D02*
D03*
X23111Y15828D02*
D03*
X22717Y15828D02*
D03*
D37*
X25926Y14903D02*
D03*
X21477Y14903D02*
D03*
D38*
X42153Y5472D02*
D03*
X41956Y5472D02*
D03*
X41759Y5472D02*
D03*
X41562Y5472D02*
D03*
X41562Y6339D02*
D03*
X41759Y6339D02*
D03*
X41956Y6339D02*
D03*
X42153Y6339D02*
D03*
D39*
X41857Y5906D02*
D03*
D40*
X28507Y11717D02*
D03*
X29452Y11717D02*
D03*
X29452Y10142D02*
D03*
X28507Y10142D02*
D03*
D41*
X8794Y22160D02*
D03*
X8006Y22160D02*
D03*
D42*
X20136Y23667D02*
D03*
X20333Y23667D02*
D03*
X20530Y23667D02*
D03*
X20727Y23667D02*
D03*
X20924Y23667D02*
D03*
X20136Y22073D02*
D03*
X20333Y22073D02*
D03*
X20530Y22073D02*
D03*
X20727Y22073D02*
D03*
X20924Y22073D02*
D03*
D43*
X39732Y11417D02*
D03*
X40401Y11417D02*
D03*
X32570Y7160D02*
D03*
X31901Y7160D02*
D03*
X39880Y9616D02*
D03*
X40550Y9616D02*
D03*
X39450Y8362D02*
D03*
X40119Y8362D02*
D03*
X31720Y10236D02*
D03*
X31051Y10236D02*
D03*
D44*
X8865Y17108D02*
D03*
X8865Y18210D02*
D03*
M02*
