G04 Layer_Color=16711935*
%FSLAX24Y24*%
%MOIN*%
G70*
G01*
G75*
%ADD49C,0.0651*%
%ADD50C,0.0030*%
%ADD51C,0.0660*%
%ADD52R,0.0454X0.0493*%
G04:AMPARAMS|DCode=53|XSize=31.6mil|YSize=29.6mil|CornerRadius=8.9mil|HoleSize=0mil|Usage=FLASHONLY|Rotation=0.000|XOffset=0mil|YOffset=0mil|HoleType=Round|Shape=RoundedRectangle|*
%AMROUNDEDRECTD53*
21,1,0.0316,0.0118,0,0,0.0*
21,1,0.0138,0.0296,0,0,0.0*
1,1,0.0178,0.0069,-0.0059*
1,1,0.0178,-0.0069,-0.0059*
1,1,0.0178,-0.0069,0.0059*
1,1,0.0178,0.0069,0.0059*
%
%ADD53ROUNDEDRECTD53*%
%ADD54R,0.0316X0.0355*%
%ADD55R,0.0651X0.0572*%
G04:AMPARAMS|DCode=56|XSize=31.6mil|YSize=29.6mil|CornerRadius=8.9mil|HoleSize=0mil|Usage=FLASHONLY|Rotation=90.000|XOffset=0mil|YOffset=0mil|HoleType=Round|Shape=RoundedRectangle|*
%AMROUNDEDRECTD56*
21,1,0.0316,0.0118,0,0,90.0*
21,1,0.0138,0.0296,0,0,90.0*
1,1,0.0178,0.0059,0.0069*
1,1,0.0178,0.0059,-0.0069*
1,1,0.0178,-0.0059,-0.0069*
1,1,0.0178,-0.0059,0.0069*
%
%ADD56ROUNDEDRECTD56*%
%ADD57R,0.0257X0.0296*%
%ADD58R,0.0296X0.0257*%
%ADD59R,0.0729X0.1044*%
%ADD60R,0.0185X0.0756*%
%ADD61R,0.0173X0.0756*%
%ADD62R,0.0493X0.1320*%
%ADD63R,0.0137X0.0473*%
%ADD64R,0.0473X0.0137*%
%ADD65R,0.0473X0.0137*%
%ADD66R,0.0493X0.0316*%
%ADD67R,0.0296X0.0808*%
%ADD68R,0.0887X0.1162*%
%ADD69R,0.0154X0.0370*%
%ADD70R,0.1039X0.0409*%
%ADD71R,0.0611X0.0769*%
G04:AMPARAMS|DCode=72|XSize=76.9mil|YSize=57.2mil|CornerRadius=15.8mil|HoleSize=0mil|Usage=FLASHONLY|Rotation=270.000|XOffset=0mil|YOffset=0mil|HoleType=Round|Shape=RoundedRectangle|*
%AMROUNDEDRECTD72*
21,1,0.0769,0.0256,0,0,270.0*
21,1,0.0453,0.0572,0,0,270.0*
1,1,0.0316,-0.0128,-0.0226*
1,1,0.0316,-0.0128,0.0226*
1,1,0.0316,0.0128,0.0226*
1,1,0.0316,0.0128,-0.0226*
%
%ADD72ROUNDEDRECTD72*%
%ADD73O,0.0158X0.0631*%
%ADD74R,0.0493X0.0454*%
G04:AMPARAMS|DCode=75|XSize=76.9mil|YSize=69mil|CornerRadius=18.7mil|HoleSize=0mil|Usage=FLASHONLY|Rotation=180.000|XOffset=0mil|YOffset=0mil|HoleType=Round|Shape=RoundedRectangle|*
%AMROUNDEDRECTD75*
21,1,0.0769,0.0315,0,0,180.0*
21,1,0.0394,0.0690,0,0,180.0*
1,1,0.0375,-0.0197,0.0157*
1,1,0.0375,0.0197,0.0157*
1,1,0.0375,0.0197,-0.0157*
1,1,0.0375,-0.0197,-0.0157*
%
%ADD75ROUNDEDRECTD75*%
%ADD76C,0.0300*%
G36*
X10636Y16133D02*
X10640Y16132D01*
X10645Y16130D01*
X10649Y16128D01*
X10652Y16125D01*
X10655Y16121D01*
X10658Y16117D01*
X10659Y16113D01*
X10661Y16108D01*
X10661Y16104D01*
X10661Y15119D01*
X10661Y15115D01*
X10659Y15110D01*
X10658Y15106D01*
X10655Y15102D01*
X10652Y15098D01*
X10649Y15095D01*
X10645Y15092D01*
X10640Y15091D01*
X10636Y15090D01*
X10631Y15089D01*
X9647Y15089D01*
X9642Y15090D01*
X9637Y15091D01*
X9633Y15092D01*
X9629Y15095D01*
X9625Y15098D01*
X9622Y15102D01*
X9620Y15106D01*
X9618Y15110D01*
X9617Y15115D01*
X9617Y15119D01*
X9617Y16104D01*
X9617Y16108D01*
X9618Y16113D01*
X9620Y16117D01*
X9622Y16121D01*
X9625Y16125D01*
X9629Y16128D01*
X9633Y16130D01*
X9637Y16132D01*
X9642Y16133D01*
X9647Y16134D01*
X10631Y16134D01*
X10636Y16133D01*
X10636Y16133D02*
G37*
G36*
X20006Y16133D02*
X20010Y16132D01*
X20015Y16130D01*
X20019Y16128D01*
X20022Y16125D01*
X20025Y16121D01*
X20028Y16117D01*
X20030Y16113D01*
X20031Y16108D01*
X20031Y16104D01*
X20031Y15119D01*
X20031Y15115D01*
X20030Y15110D01*
X20028Y15106D01*
X20025Y15102D01*
X20022Y15098D01*
X20019Y15095D01*
X20015Y15092D01*
X20010Y15091D01*
X20006Y15090D01*
X20001Y15089D01*
X19017Y15089D01*
X19012Y15090D01*
X19007Y15091D01*
X19003Y15092D01*
X18999Y15095D01*
X18995Y15098D01*
X18992Y15102D01*
X18990Y15106D01*
X18988Y15110D01*
X18987Y15115D01*
X18987Y15119D01*
X18987Y16104D01*
X18987Y16108D01*
X18988Y16113D01*
X18990Y16117D01*
X18992Y16121D01*
X18995Y16125D01*
X18999Y16128D01*
X19003Y16130D01*
X19007Y16132D01*
X19012Y16133D01*
X19017Y16134D01*
X20001Y16134D01*
X20006Y16133D01*
X20006Y16133D02*
G37*
D49*
X2500Y8600D02*
D03*
X2500Y7600D02*
D03*
X2500Y6600D02*
D03*
X2500Y3600D02*
D03*
X2500Y4600D02*
D03*
X2500Y5600D02*
D03*
X1500Y5600D02*
D03*
X1500Y4600D02*
D03*
X1500Y3600D02*
D03*
X1500Y6600D02*
D03*
X1500Y7600D02*
D03*
X1500Y8600D02*
D03*
X2500Y17600D02*
D03*
X2500Y16600D02*
D03*
X2500Y15600D02*
D03*
X2500Y12600D02*
D03*
X2500Y13600D02*
D03*
X2500Y14600D02*
D03*
X1500Y14600D02*
D03*
X1500Y13600D02*
D03*
X1500Y12600D02*
D03*
X1500Y15600D02*
D03*
X1500Y16600D02*
D03*
X1500Y17600D02*
D03*
D50*
X1000Y26010D02*
D03*
X46000Y26000D02*
D03*
X920Y960D02*
D03*
X46000Y1000D02*
D03*
D51*
X28000Y26000D02*
D03*
X27000Y26000D02*
D03*
X26000Y26000D02*
D03*
X25000Y26000D02*
D03*
X24000Y26000D02*
D03*
X23000Y26000D02*
D03*
X18000Y26000D02*
D03*
X17000Y26000D02*
D03*
X16000Y26000D02*
D03*
X15000Y26000D02*
D03*
X14000Y26000D02*
D03*
X13000Y26000D02*
D03*
D52*
X23000Y24750D02*
D03*
X23000Y24081D02*
D03*
X32530Y12860D02*
D03*
X32530Y13529D02*
D03*
X34361Y13937D02*
D03*
X34361Y14606D02*
D03*
X36881Y13970D02*
D03*
X36881Y14639D02*
D03*
X33350Y6210D02*
D03*
X33350Y5541D02*
D03*
X34810Y5850D02*
D03*
X34810Y5181D02*
D03*
X36078Y6358D02*
D03*
X36078Y5689D02*
D03*
X37354Y6358D02*
D03*
X37354Y5689D02*
D03*
X38283Y13799D02*
D03*
X38283Y14468D02*
D03*
D53*
X26000Y23200D02*
D03*
X26000Y22806D02*
D03*
X27000Y23200D02*
D03*
X27000Y22806D02*
D03*
X27990Y23200D02*
D03*
X27990Y22806D02*
D03*
X7920Y17816D02*
D03*
X7920Y18210D02*
D03*
X39243Y13239D02*
D03*
X39243Y13632D02*
D03*
X33401Y13937D02*
D03*
X33401Y14331D02*
D03*
X36530Y6100D02*
D03*
X36530Y5706D02*
D03*
X38141Y6126D02*
D03*
X38141Y5732D02*
D03*
X35606Y13937D02*
D03*
X35606Y14331D02*
D03*
X25000Y22806D02*
D03*
X25000Y23200D02*
D03*
X20530Y24450D02*
D03*
X20530Y24844D02*
D03*
X14990Y22760D02*
D03*
X14990Y22366D02*
D03*
X42725Y6336D02*
D03*
X42725Y5942D02*
D03*
X7133Y21021D02*
D03*
X7133Y20627D02*
D03*
D54*
X41185Y4669D02*
D03*
X41185Y5102D02*
D03*
X41956Y4843D02*
D03*
X41956Y4410D02*
D03*
D55*
X40605Y6459D02*
D03*
X40605Y5711D02*
D03*
X43355Y6500D02*
D03*
X43355Y5752D02*
D03*
X4764Y3642D02*
D03*
X4764Y4390D02*
D03*
X3819Y3642D02*
D03*
X3819Y4390D02*
D03*
X4764Y12650D02*
D03*
X4764Y13398D02*
D03*
X3819Y12650D02*
D03*
X3819Y13398D02*
D03*
X6346Y21167D02*
D03*
X6346Y20419D02*
D03*
D56*
X39750Y10945D02*
D03*
X40144Y10945D02*
D03*
X31350Y9300D02*
D03*
X30956Y9300D02*
D03*
X31500Y7953D02*
D03*
X31106Y7953D02*
D03*
X11654Y17876D02*
D03*
X11261Y17876D02*
D03*
X31650Y11654D02*
D03*
X31256Y11654D02*
D03*
X21450Y21550D02*
D03*
X21844Y21550D02*
D03*
D57*
X28775Y12550D02*
D03*
X29169Y12550D02*
D03*
X29176Y9197D02*
D03*
X28782Y9197D02*
D03*
D58*
X9558Y19250D02*
D03*
X9558Y18856D02*
D03*
D59*
X10629Y18856D02*
D03*
X10629Y20431D02*
D03*
D60*
X10985Y16812D02*
D03*
X12166Y16812D02*
D03*
X12363Y16812D02*
D03*
X12560Y16812D02*
D03*
X12757Y16812D02*
D03*
X12954Y16812D02*
D03*
X13151Y16812D02*
D03*
X13347Y16812D02*
D03*
X13544Y16812D02*
D03*
X13741Y16812D02*
D03*
X13938Y16812D02*
D03*
X14135Y16812D02*
D03*
X14332Y16812D02*
D03*
X14528Y16812D02*
D03*
X14725Y16812D02*
D03*
X14922Y16812D02*
D03*
X15119Y16812D02*
D03*
X15316Y16812D02*
D03*
X15513Y16812D02*
D03*
X15710Y16812D02*
D03*
X15906Y16812D02*
D03*
X16103Y16812D02*
D03*
X16300Y16812D02*
D03*
X16497Y16812D02*
D03*
X16694Y16812D02*
D03*
X16891Y16812D02*
D03*
X17088Y16812D02*
D03*
X17284Y16812D02*
D03*
X17481Y16812D02*
D03*
X17678Y16812D02*
D03*
X17875Y16812D02*
D03*
X18072Y16812D02*
D03*
X18269Y16812D02*
D03*
X18466Y16812D02*
D03*
X18662Y16812D02*
D03*
D61*
X11182Y16812D02*
D03*
X11379Y16812D02*
D03*
X11576Y16812D02*
D03*
X11773Y16812D02*
D03*
X11969Y16812D02*
D03*
D62*
X42212Y7760D02*
D03*
X41268Y7760D02*
D03*
D63*
X33259Y6988D02*
D03*
X33417Y6988D02*
D03*
X33574Y6988D02*
D03*
X33732Y6988D02*
D03*
X33889Y6988D02*
D03*
X34046Y6988D02*
D03*
X34204Y6988D02*
D03*
X34361Y6988D02*
D03*
X34519Y6988D02*
D03*
X34676Y6988D02*
D03*
X34834Y6988D02*
D03*
X34991Y6988D02*
D03*
X35149Y6988D02*
D03*
X35306Y6988D02*
D03*
X35464Y6988D02*
D03*
X35621Y6988D02*
D03*
X35779Y6988D02*
D03*
X35936Y6988D02*
D03*
X36094Y6988D02*
D03*
X36251Y6988D02*
D03*
X36409Y6988D02*
D03*
X36566Y6988D02*
D03*
X36724Y6988D02*
D03*
X36881Y6988D02*
D03*
X37039Y6988D02*
D03*
X37196Y6988D02*
D03*
X37354Y6988D02*
D03*
X37511Y6988D02*
D03*
X37668Y6988D02*
D03*
X37826Y6988D02*
D03*
X37983Y6988D02*
D03*
X38141Y6988D02*
D03*
X38141Y13012D02*
D03*
X37983Y13012D02*
D03*
X37826Y13012D02*
D03*
X37668Y13012D02*
D03*
X37511Y13012D02*
D03*
X37354Y13012D02*
D03*
X37196Y13012D02*
D03*
X37039Y13012D02*
D03*
X36881Y13012D02*
D03*
X36724Y13012D02*
D03*
X36566Y13012D02*
D03*
X36409Y13012D02*
D03*
X36251Y13012D02*
D03*
X36094Y13012D02*
D03*
X35936Y13012D02*
D03*
X35779Y13012D02*
D03*
X35621Y13012D02*
D03*
X35464Y13012D02*
D03*
X35306Y13012D02*
D03*
X35149Y13012D02*
D03*
X34991Y13012D02*
D03*
X34834Y13012D02*
D03*
X34676Y13012D02*
D03*
X34519Y13012D02*
D03*
X34361Y13012D02*
D03*
X34204Y13012D02*
D03*
X34046Y13012D02*
D03*
X33889Y13012D02*
D03*
X33732Y13012D02*
D03*
X33574Y13012D02*
D03*
X33417Y13012D02*
D03*
X33259Y13012D02*
D03*
D64*
X38712Y7559D02*
D03*
X38712Y7717D02*
D03*
X38712Y7874D02*
D03*
X38712Y8031D02*
D03*
X38712Y8189D02*
D03*
X38712Y8346D02*
D03*
X38712Y8504D02*
D03*
X38712Y8661D02*
D03*
X38712Y8819D02*
D03*
X38712Y8976D02*
D03*
X38712Y9134D02*
D03*
X38712Y9291D02*
D03*
X38712Y9449D02*
D03*
X38712Y9606D02*
D03*
X38712Y9764D02*
D03*
X38712Y9921D02*
D03*
X38712Y10079D02*
D03*
X38712Y10236D02*
D03*
X38712Y10394D02*
D03*
X38712Y10551D02*
D03*
X38712Y10709D02*
D03*
X38712Y10866D02*
D03*
X38712Y11024D02*
D03*
X38712Y11181D02*
D03*
X38712Y11339D02*
D03*
X38712Y11496D02*
D03*
X38712Y11654D02*
D03*
X38712Y11811D02*
D03*
X38712Y11968D02*
D03*
X38712Y12126D02*
D03*
X38712Y12283D02*
D03*
X38712Y12441D02*
D03*
X32688Y12441D02*
D03*
X32688Y12283D02*
D03*
X32688Y12126D02*
D03*
X32688Y11968D02*
D03*
X32688Y11811D02*
D03*
X32688Y11654D02*
D03*
X32688Y11496D02*
D03*
X32688Y11339D02*
D03*
X32688Y11181D02*
D03*
X32688Y11024D02*
D03*
X32688Y10866D02*
D03*
X32688Y10709D02*
D03*
X32688Y10551D02*
D03*
X32688Y10394D02*
D03*
X32688Y10236D02*
D03*
X32688Y10079D02*
D03*
X32688Y9921D02*
D03*
X32688Y9764D02*
D03*
X32688Y9606D02*
D03*
X32688Y9449D02*
D03*
X32688Y9291D02*
D03*
X32688Y9134D02*
D03*
X32688Y8976D02*
D03*
X32688Y8819D02*
D03*
X32688Y8661D02*
D03*
X32688Y8504D02*
D03*
X32688Y8346D02*
D03*
X32688Y8189D02*
D03*
X32688Y8031D02*
D03*
X32688Y7874D02*
D03*
X32688Y7717D02*
D03*
D65*
X32688Y7559D02*
D03*
D66*
X7920Y21009D02*
D03*
X7920Y20261D02*
D03*
X8865Y20261D02*
D03*
X8865Y20635D02*
D03*
X8865Y21009D02*
D03*
D67*
X24686Y15828D02*
D03*
X24292Y15828D02*
D03*
X23898Y15828D02*
D03*
X23505Y15828D02*
D03*
X23111Y15828D02*
D03*
X22717Y15828D02*
D03*
D68*
X25926Y14903D02*
D03*
X21477Y14903D02*
D03*
D69*
X42153Y5472D02*
D03*
X41956Y5472D02*
D03*
X41759Y5472D02*
D03*
X41562Y5472D02*
D03*
X41562Y6339D02*
D03*
X41759Y6339D02*
D03*
X41956Y6339D02*
D03*
X42153Y6339D02*
D03*
D70*
X41857Y5906D02*
D03*
D71*
X28507Y11717D02*
D03*
X29452Y11717D02*
D03*
X29452Y10142D02*
D03*
X28507Y10142D02*
D03*
D72*
X8794Y22160D02*
D03*
X8006Y22160D02*
D03*
D73*
X20136Y23667D02*
D03*
X20333Y23667D02*
D03*
X20530Y23667D02*
D03*
X20727Y23667D02*
D03*
X20924Y23667D02*
D03*
X20136Y22073D02*
D03*
X20333Y22073D02*
D03*
X20530Y22073D02*
D03*
X20727Y22073D02*
D03*
X20924Y22073D02*
D03*
D74*
X39732Y11417D02*
D03*
X40401Y11417D02*
D03*
X32570Y7160D02*
D03*
X31901Y7160D02*
D03*
X39880Y9616D02*
D03*
X40550Y9616D02*
D03*
X39450Y8362D02*
D03*
X40119Y8362D02*
D03*
X31720Y10236D02*
D03*
X31051Y10236D02*
D03*
D75*
X8865Y17108D02*
D03*
X8865Y18210D02*
D03*
D76*
X7550Y15600D02*
D03*
X30910Y11654D02*
D03*
X31999Y11650D02*
D03*
X33000Y13610D02*
D03*
X39243Y12803D02*
D03*
X36529Y6462D02*
D03*
X39322Y10945D02*
D03*
X32102Y9921D02*
D03*
X31770Y9291D02*
D03*
X31840Y8031D02*
D03*
X38141Y6510D02*
D03*
X33873Y7543D02*
D03*
X34976Y7543D02*
D03*
X33275Y8189D02*
D03*
X11370Y15947D02*
D03*
X14350Y12850D02*
D03*
X13300Y13300D02*
D03*
X14950Y13450D02*
D03*
X42500Y14150D02*
D03*
X17481Y15448D02*
D03*
X29350Y14250D02*
D03*
X28900Y13800D02*
D03*
X28400Y13300D02*
D03*
X37511Y18000D02*
D03*
X38700Y17200D02*
D03*
X39600Y16050D02*
D03*
X39850Y15400D02*
D03*
X38700Y16490D02*
D03*
X40150Y14598D02*
D03*
X27850Y12950D02*
D03*
X42800Y13700D02*
D03*
X9407Y20440D02*
D03*
X9558Y19580D02*
D03*
X31800Y3050D02*
D03*
X31800Y4250D02*
D03*
X31800Y4800D02*
D03*
X32550Y6200D02*
D03*
X36393Y7543D02*
D03*
X16497Y15846D02*
D03*
X18164Y15859D02*
D03*
X36487Y14724D02*
D03*
X30130Y6600D02*
D03*
X31800Y3650D02*
D03*
X36172Y15039D02*
D03*
X28507Y11055D02*
D03*
X30255Y9780D02*
D03*
X7920Y17360D02*
D03*
X5558Y20509D02*
D03*
X5558Y20037D02*
D03*
X5558Y21139D02*
D03*
X5558Y21612D02*
D03*
X34913Y6472D02*
D03*
X33810Y6472D02*
D03*
X43955Y6746D02*
D03*
X43955Y6346D02*
D03*
X42755Y5576D02*
D03*
X42275Y5126D02*
D03*
X41165Y6656D02*
D03*
X41185Y5406D02*
D03*
X41145Y5906D02*
D03*
X35621Y13622D02*
D03*
X35606Y14724D02*
D03*
X39243Y14026D02*
D03*
X40537Y10945D02*
D03*
X38141Y5339D02*
D03*
X36530Y5313D02*
D03*
X30713Y7953D02*
D03*
X30563Y9300D02*
D03*
X33401Y14724D02*
D03*
X33417Y13622D02*
D03*
X37275Y12362D02*
D03*
X37117Y13528D02*
D03*
X35700Y12362D02*
D03*
X34755Y12362D02*
D03*
X34598Y13528D02*
D03*
X33338Y11732D02*
D03*
X33275Y11024D02*
D03*
X36566Y13622D02*
D03*
X32102Y10551D02*
D03*
X33275Y10472D02*
D03*
X33275Y10000D02*
D03*
X33275Y9370D02*
D03*
X33275Y7795D02*
D03*
X36487Y12362D02*
D03*
X38712Y12752D02*
D03*
X38062Y9370D02*
D03*
X39400Y9450D02*
D03*
X39540Y7953D02*
D03*
X39610Y7387D02*
D03*
X39196Y7606D02*
D03*
X38062Y10787D02*
D03*
X37653Y7543D02*
D03*
X26041Y15749D02*
D03*
X21592Y15749D02*
D03*
X17860Y17485D02*
D03*
X18160Y17735D02*
D03*
X18574Y17735D02*
D03*
X25000Y22425D02*
D03*
X26000Y22425D02*
D03*
X27000Y22425D02*
D03*
X27990Y22425D02*
D03*
X23000Y23400D02*
D03*
X18874Y17485D02*
D03*
X31918Y7612D02*
D03*
X41684Y5906D02*
D03*
X42046Y5909D02*
D03*
X11261Y17547D02*
D03*
X20530Y21420D02*
D03*
X20530Y24130D02*
D03*
X16350Y23667D02*
D03*
X18574Y22073D02*
D03*
X18874Y21500D02*
D03*
X22200Y21550D02*
D03*
X14990Y22050D02*
D03*
X20540Y25250D02*
D03*
X8865Y16515D02*
D03*
X37826Y6390D02*
D03*
X36078Y5240D02*
D03*
X34810Y4732D02*
D03*
X33350Y5092D02*
D03*
X31452Y7160D02*
D03*
X30602Y10236D02*
D03*
X32530Y13978D02*
D03*
X34361Y15055D02*
D03*
X36881Y15088D02*
D03*
X38283Y14917D02*
D03*
X40999Y9616D02*
D03*
X40850Y11417D02*
D03*
X40568Y8362D02*
D03*
X37354Y5240D02*
D03*
X32940Y14380D02*
D03*
X22717Y16775D02*
D03*
X23111Y16775D02*
D03*
X23505Y16775D02*
D03*
X23898Y16775D02*
D03*
X24292Y16775D02*
D03*
X33830Y18270D02*
D03*
X31760Y9710D02*
D03*
X15480Y16150D02*
D03*
X15480Y15770D02*
D03*
X15480Y15390D02*
D03*
X38490Y17590D02*
D03*
X15480Y15010D02*
D03*
X15480Y14630D02*
D03*
X13750Y11640D02*
D03*
X27240Y9320D02*
D03*
X25320Y9610D02*
D03*
X36696Y15550D02*
D03*
X17350Y9900D02*
D03*
X14395Y10415D02*
D03*
X9230Y10710D02*
D03*
X10480Y10710D02*
D03*
X30250Y19000D02*
D03*
X42500Y14780D02*
D03*
X24292Y21210D02*
D03*
X24686Y16775D02*
D03*
X42800Y15500D02*
D03*
X25100Y20860D02*
D03*
X28545Y21305D02*
D03*
X43150Y15950D02*
D03*
X43700Y16300D02*
D03*
X29681Y21601D02*
D03*
X44050Y16600D02*
D03*
X31050Y22000D02*
D03*
X44450Y16950D02*
D03*
X32300Y22400D02*
D03*
X33417Y22830D02*
D03*
X44850Y17300D02*
D03*
X14380Y13420D02*
D03*
X7920Y18710D02*
D03*
X8000Y12853D02*
D03*
X6520Y16540D02*
D03*
M02*
