G04 Layer_Physical_Order=1*
G04 Layer_Color=255*
%FSLAX24Y24*%
%MOIN*%
G70*
G01*
G75*
%ADD10C,0.0060*%
%ADD11C,0.0150*%
%ADD12C,0.0591*%
%ADD13C,0.0600*%
%ADD14C,0.0240*%
D10*
X15000Y24550D02*
X17860Y21690D01*
X17860Y17485D02*
X17860Y21690D01*
X18160Y17735D02*
X18160Y21850D01*
X16000Y24010D02*
X18160Y21850D01*
X18574Y17735D02*
X18574Y22073D01*
X17000Y23647D02*
X18574Y22073D01*
X17000Y23647D02*
X17000Y26000D01*
X18000Y23090D02*
X18874Y22216D01*
X18874Y17485D02*
X18874Y22216D01*
X34210Y11720D02*
X34210Y13920D01*
X33850Y11360D02*
X34210Y11720D01*
X33160Y11360D02*
X33850Y11360D01*
X32670Y10870D02*
X33160Y11360D01*
X31626Y5276D02*
X32550Y6200D01*
X9684Y5276D02*
X31626Y5276D01*
X38670Y16520D02*
X38700Y16490D01*
X38040Y15800D02*
X40140Y13700D01*
X42800Y13700D01*
X34210Y13920D02*
X35610Y15320D01*
X36320Y15320D02*
X36487Y15153D01*
X35610Y15320D02*
X36320Y15320D01*
X36487Y14724D02*
X36487Y15153D01*
X33930Y2500D02*
X35700Y4270D01*
X1500Y5600D02*
X2000Y5100D01*
X2500Y5600D02*
X2510Y5590D01*
X35700Y4270D02*
X35700Y7638D01*
X36172Y8110D01*
X36172Y15039D01*
X16000Y24010D02*
X16000Y26000D01*
X18000Y23090D02*
X18000Y26000D01*
X15000Y24550D02*
X15000Y26000D01*
X26850Y26000D02*
X27000Y26000D01*
X23898Y21898D02*
X28000Y26000D01*
X23505Y22505D02*
X27000Y26000D01*
X23111Y23111D02*
X26000Y26000D01*
X710Y7390D02*
X1500Y6600D01*
X32450Y13460D02*
X32940Y13950D01*
X32940Y14380D01*
X30055Y11485D02*
X32030Y13460D01*
X32450Y13460D01*
X33720Y15800D02*
X38040Y15800D01*
X21670Y16880D02*
X22110Y16440D01*
X32670Y7680D02*
X32670Y10870D01*
X30650Y5660D02*
X32670Y7680D01*
X10490Y5660D02*
X30650Y5660D01*
X22110Y16440D02*
X25000Y16440D01*
X26830Y18270D01*
X33830Y18270D01*
X12680Y13920D02*
X13300Y13300D01*
X12680Y13920D02*
X12680Y13992D01*
X12572Y14100D02*
X12680Y13992D01*
X12067Y14100D02*
X12572Y14100D01*
X11959Y14208D02*
X12067Y14100D01*
X11959Y14208D02*
X11959Y14352D01*
X12067Y14460D01*
X12680Y14460D01*
X13293Y14460D01*
X13401Y14568D01*
X13401Y14712D01*
X13293Y14820D02*
X13401Y14712D01*
X12680Y14820D02*
X13293Y14820D01*
X12067Y14820D02*
X12680Y14820D01*
X11959Y14928D02*
X12067Y14820D01*
X11959Y14928D02*
X11959Y15072D01*
X12067Y15180D01*
X12680Y15180D01*
X13293Y15180D01*
X13401Y15288D01*
X13401Y15432D01*
X13293Y15540D02*
X13401Y15432D01*
X12680Y15540D02*
X13293Y15540D01*
X12067Y15540D02*
X12680Y15540D01*
X11959Y15648D02*
X12067Y15540D01*
X11959Y15648D02*
X11959Y15792D01*
X12067Y15900D01*
X12680Y15900D01*
X13293Y15900D01*
X13401Y16008D01*
X13401Y16152D01*
X13293Y16260D02*
X13401Y16152D01*
X12680Y16260D02*
X13293Y16260D01*
X12067Y16260D02*
X12680Y16260D01*
X11959Y16368D02*
X12067Y16260D01*
X11959Y16368D02*
X11959Y16512D01*
X12067Y16620D01*
X12680Y16620D01*
X13293Y16620D01*
X13401Y16728D01*
X13401Y16872D01*
X13293Y16980D02*
X13401Y16872D01*
X12680Y16980D02*
X13293Y16980D01*
X12067Y16980D02*
X12680Y16980D01*
X11959Y17088D02*
X12067Y16980D01*
X11959Y17088D02*
X11959Y17232D01*
X12067Y17340D01*
X12572Y17340D01*
X12680Y17448D01*
X12680Y17840D01*
X12680Y18050D01*
X13530Y18900D01*
X13680Y18900D01*
X15750Y10850D02*
X25750Y10850D01*
X27850Y12950D01*
X13680Y18900D02*
X14010Y18570D01*
X30055Y9697D02*
X30060Y9692D01*
X30055Y9697D02*
X30055Y11485D01*
X17481Y15448D02*
X18888Y15448D01*
X20320Y16880D01*
X21670Y16880D01*
X19140Y15140D02*
X20170Y16170D01*
X17400Y15140D02*
X19140Y15140D01*
X17140Y15400D02*
X17400Y15140D01*
X17140Y15730D02*
X17140Y15802D01*
X17032Y15910D02*
X17140Y15802D01*
X16949Y15910D02*
X17032Y15910D01*
X16841Y16018D02*
X16949Y15910D01*
X16841Y16018D02*
X16841Y16162D01*
X16949Y16270D01*
X17140Y16270D01*
X17331Y16270D01*
X17439Y16378D01*
X17439Y16522D01*
X17331Y16630D02*
X17439Y16522D01*
X17140Y16630D02*
X17331Y16630D01*
X16949Y16630D02*
X17140Y16630D01*
X16841Y16738D02*
X16949Y16630D01*
X16841Y16738D02*
X16841Y16882D01*
X16949Y16990D01*
X17140Y16990D01*
X17331Y16990D01*
X17439Y17098D01*
X17439Y17242D01*
X17331Y17350D02*
X17439Y17242D01*
X17140Y17350D02*
X17331Y17350D01*
X16949Y17350D02*
X17140Y17350D01*
X16841Y17458D02*
X16949Y17350D01*
X16841Y17458D02*
X16841Y17602D01*
X16949Y17710D01*
X17140Y17710D01*
X17331Y17710D01*
X17439Y17818D01*
X17439Y17962D01*
X17331Y18070D02*
X17439Y17962D01*
X17140Y18070D02*
X17331Y18070D01*
X16949Y18070D02*
X17140Y18070D01*
X16841Y18178D02*
X16949Y18070D01*
X16841Y18178D02*
X16841Y18322D01*
X16949Y18430D01*
X17140Y18430D01*
X17331Y18430D01*
X17439Y18538D01*
X17439Y18682D01*
X17331Y18790D02*
X17439Y18682D01*
X17140Y18790D02*
X17331Y18790D01*
X16949Y18790D02*
X17140Y18790D01*
X16841Y18898D02*
X16949Y18790D01*
X16841Y18898D02*
X16841Y19042D01*
X16949Y19150D01*
X17140Y19150D01*
X17331Y19150D01*
X17439Y19258D01*
X17439Y19402D01*
X17331Y19510D02*
X17439Y19402D01*
X17140Y19510D02*
X17331Y19510D01*
X16949Y19510D02*
X17140Y19510D01*
X16841Y19618D02*
X16949Y19510D01*
X16841Y19618D02*
X16841Y19762D01*
X16949Y19870D01*
X17140Y19870D01*
X17331Y19870D01*
X17439Y19978D01*
X17439Y20122D01*
X17331Y20230D02*
X17439Y20122D01*
X17140Y20230D02*
X17331Y20230D01*
X16949Y20230D02*
X17140Y20230D01*
X16841Y20338D02*
X16949Y20230D01*
X16841Y20338D02*
X16841Y20482D01*
X16949Y20590D01*
X17140Y20590D01*
X17331Y20590D01*
X17439Y20698D01*
X17439Y20842D01*
X17331Y20950D02*
X17439Y20842D01*
X17248Y20950D02*
X17331Y20950D01*
X17140Y21058D02*
X17248Y20950D01*
X17140Y21058D02*
X17140Y21790D01*
X17140Y15400D02*
X17140Y15730D01*
X16550Y22380D02*
X17140Y21790D01*
X16290Y22380D02*
X16550Y22380D01*
X16170Y22260D02*
X16290Y22380D01*
X16170Y16280D02*
X16170Y22260D01*
X16040Y16150D02*
X16170Y16280D01*
X15600Y16150D02*
X16040Y16150D01*
X20170Y16170D02*
X25090Y16170D01*
X26920Y18000D01*
X37511Y18000D01*
X15840Y15390D02*
X16780Y14450D01*
X22590Y14450D01*
X22780Y14640D01*
X22780Y15360D01*
X23080Y15660D01*
X25390Y15660D01*
X27180Y17450D01*
X37990Y17450D01*
X38300Y17760D01*
X38300Y18510D01*
X32660Y19190D02*
X32660Y19390D01*
X33100Y19830D01*
X33220Y19830D02*
X33292Y19830D01*
X33400Y19938D01*
X33400Y20006D01*
X33508Y20114D01*
X33652Y20114D01*
X33760Y20006D01*
X33760Y19830D02*
X33760Y20006D01*
X33760Y19654D02*
X33760Y19830D01*
X33760Y19654D02*
X33868Y19546D01*
X34012Y19546D01*
X34120Y19654D01*
X34120Y19830D01*
X34120Y20006D01*
X34228Y20114D01*
X34372Y20114D01*
X34480Y20006D01*
X34480Y19830D02*
X34480Y20006D01*
X34480Y19654D02*
X34480Y19830D01*
X34480Y19654D02*
X34588Y19546D01*
X34732Y19546D01*
X34840Y19654D01*
X34840Y19722D01*
X34948Y19830D01*
X37030Y19830D01*
X33100Y19830D02*
X33220Y19830D01*
X37030Y19830D02*
X37480Y19830D01*
X38050Y19830D01*
X38720Y19160D01*
X38720Y17820D02*
X38720Y19160D01*
X38490Y17590D02*
X38720Y17820D01*
X15480Y15390D02*
X15840Y15390D01*
X15480Y15010D02*
X15800Y15010D01*
X16497Y14313D01*
X16497Y13823D02*
X16497Y14313D01*
X16497Y13823D02*
X16840Y13480D01*
X16912Y13480D01*
X17020Y13588D01*
X17020Y13962D01*
X17128Y14070D01*
X17272Y14070D01*
X17380Y13962D01*
X17380Y13480D02*
X17380Y13962D01*
X17380Y12998D02*
X17380Y13480D01*
X17380Y12998D02*
X17488Y12890D01*
X17632Y12890D01*
X17740Y12998D01*
X17740Y13480D01*
X17740Y13962D01*
X17848Y14070D01*
X17992Y14070D01*
X18100Y13962D01*
X18100Y13480D02*
X18100Y13962D01*
X18100Y12998D02*
X18100Y13480D01*
X18100Y12998D02*
X18208Y12890D01*
X18352Y12890D01*
X18460Y12998D01*
X18460Y13480D01*
X18460Y13962D01*
X18568Y14070D01*
X18712Y14070D01*
X18820Y13962D01*
X18820Y13480D02*
X18820Y13962D01*
X18820Y12998D02*
X18820Y13480D01*
X18820Y12998D02*
X18928Y12890D01*
X19072Y12890D01*
X19180Y12998D01*
X19180Y13480D01*
X19180Y13962D01*
X19288Y14070D01*
X19432Y14070D01*
X19540Y13962D01*
X19540Y13480D02*
X19540Y13962D01*
X19540Y12998D02*
X19540Y13480D01*
X19540Y12998D02*
X19648Y12890D01*
X19792Y12890D01*
X19900Y12998D01*
X19900Y13480D01*
X19900Y13962D01*
X20008Y14070D01*
X20152Y14070D01*
X20260Y13962D01*
X20260Y13480D02*
X20260Y13962D01*
X20260Y12998D02*
X20260Y13480D01*
X20260Y12998D02*
X20368Y12890D01*
X20512Y12890D01*
X20620Y12998D01*
X20620Y13480D01*
X20620Y13962D01*
X20728Y14070D01*
X20872Y14070D01*
X20980Y13962D01*
X20980Y13480D02*
X20980Y13962D01*
X20980Y12998D02*
X20980Y13480D01*
X20980Y12998D02*
X21088Y12890D01*
X21232Y12890D01*
X21340Y12998D01*
X21340Y13480D01*
X21340Y13962D01*
X21448Y14070D01*
X21592Y14070D01*
X21700Y13962D01*
X21700Y13480D02*
X21700Y13962D01*
X21700Y12998D02*
X21700Y13480D01*
X21700Y12998D02*
X21808Y12890D01*
X21952Y12890D01*
X22060Y12998D01*
X22060Y13372D01*
X22168Y13480D01*
X23400Y13480D01*
X23550Y13630D01*
X23550Y15055D01*
X23805Y15310D01*
X26190Y15310D01*
X26350Y15470D01*
X26350Y16170D01*
X27380Y17200D01*
X38700Y17200D01*
X15480Y14630D02*
X15780Y14330D01*
X15780Y14097D02*
X15780Y14330D01*
X15630Y13947D02*
X15780Y14097D01*
X15630Y13570D02*
X15630Y13947D01*
X15630Y13570D02*
X15780Y13420D01*
X16170Y13420D01*
X17160Y12430D01*
X24200Y12430D01*
X24360Y12590D02*
X24411Y12641D01*
X24411Y12794D02*
X24411Y12641D01*
X23998Y13207D02*
X24411Y12794D01*
X23998Y13207D02*
X23998Y13359D01*
X24100Y13461D01*
X24253Y13461D01*
X24742Y12972D01*
X25231Y12483D01*
X25384Y12483D01*
X25486Y12584D01*
X25486Y12737D01*
X24996Y13226D02*
X25486Y12737D01*
X24507Y13716D02*
X24996Y13226D01*
X24507Y13716D02*
X24507Y13868D01*
X24609Y13970D01*
X24762Y13970D01*
X25251Y13481D01*
X25740Y12992D01*
X25893Y12992D01*
X25995Y13093D01*
X25995Y13246D01*
X25506Y13736D02*
X25995Y13246D01*
X25016Y14225D02*
X25506Y13736D01*
X25016Y14225D02*
X25016Y14378D01*
X25118Y14479D01*
X25271Y14479D01*
X25760Y13990D01*
X26249Y13501D01*
X26402Y13501D01*
X26504Y13603D01*
X26504Y13755D01*
X26015Y14245D02*
X26504Y13755D01*
X25525Y14734D02*
X26015Y14245D01*
X25525Y14734D02*
X25525Y14887D01*
X25627Y14989D01*
X25780Y14989D01*
X26193Y14576D01*
X26346Y14576D01*
X26380Y14610D01*
X24200Y12430D02*
X24360Y12590D01*
X26921Y15151D02*
X26972Y15202D01*
X26972Y15355D01*
X26779Y15548D02*
X26972Y15355D01*
X26779Y15548D02*
X26779Y15701D01*
X26881Y15803D01*
X27034Y15803D01*
X27303Y15533D01*
X27573Y15264D01*
X27725Y15264D01*
X27827Y15365D01*
X27827Y15518D01*
X27558Y15788D02*
X27827Y15518D01*
X27288Y16057D02*
X27558Y15788D01*
X27288Y16057D02*
X27288Y16210D01*
X27390Y16312D01*
X27543Y16312D01*
X27736Y16119D01*
X27889Y16119D01*
X28730Y16960D01*
X26380Y14610D02*
X26921Y15151D01*
X28730Y16960D02*
X39240Y16960D01*
X39600Y16600D01*
X39600Y16050D02*
X39600Y16600D01*
X14010Y12590D02*
X14010Y18570D01*
X14010Y12590D02*
X15750Y10850D01*
X39850Y15400D02*
X40260Y15810D01*
X40260Y19582D02*
X40260Y19654D01*
X40260Y19582D02*
X40368Y19474D01*
X40696Y19474D01*
X40804Y19366D01*
X40804Y19222D02*
X40804Y19366D01*
X40696Y19114D02*
X40804Y19222D01*
X40260Y19114D02*
X40696Y19114D01*
X39824Y19114D02*
X40260Y19114D01*
X39716Y19006D02*
X39824Y19114D01*
X39716Y18862D02*
X39716Y19006D01*
X39716Y18862D02*
X39824Y18754D01*
X40152Y18754D01*
X40260Y18646D01*
X40260Y17950D02*
X40260Y18646D01*
X40260Y15810D02*
X40260Y17950D01*
X40260Y19654D02*
X40260Y19790D01*
X39770Y20280D02*
X40260Y19790D01*
X39270Y20280D02*
X39770Y20280D01*
X39170Y20180D02*
X39270Y20280D01*
X39170Y19400D02*
X39170Y20180D01*
X39070Y19300D02*
X39170Y19400D01*
X39070Y17850D02*
X39070Y19300D01*
X39070Y17850D02*
X39960Y16960D01*
X39960Y15890D02*
X39960Y16960D01*
X39830Y15760D02*
X39960Y15890D01*
X39490Y15760D02*
X39830Y15760D01*
X39150Y16100D02*
X39490Y15760D01*
X39150Y16100D02*
X39150Y16550D01*
X38950Y16750D02*
X39150Y16550D01*
X30370Y16750D02*
X38950Y16750D01*
X25590Y11970D02*
X30370Y16750D01*
X16430Y11970D02*
X25590Y11970D01*
X14950Y13450D02*
X16430Y11970D01*
X14350Y12850D02*
X15980Y11220D01*
X25610Y11220D01*
X30690Y16300D01*
X38448Y16300D01*
X39708Y15040D01*
X40130Y15040D01*
X40970Y15880D01*
X40970Y18258D02*
X40970Y18330D01*
X40970Y18258D02*
X41078Y18150D01*
X41397Y18150D01*
X41505Y18042D01*
X41505Y17898D02*
X41505Y18042D01*
X41397Y17790D02*
X41505Y17898D01*
X41078Y17790D02*
X41397Y17790D01*
X40970Y17682D02*
X41078Y17790D01*
X40970Y17150D02*
X40970Y17682D01*
X40970Y15880D02*
X40970Y17150D01*
X40970Y18330D02*
X40970Y18600D01*
X41300Y18930D01*
X42040Y18930D01*
X42470Y18500D01*
X42470Y16918D02*
X42470Y18500D01*
X40150Y14598D02*
X42470Y16918D01*
X29920Y13160D02*
X32810Y16050D01*
X38200Y16050D01*
X40100Y14150D01*
X40320Y14150D01*
X40560Y14390D01*
X40660Y14390D02*
X40732Y14390D01*
X40840Y14498D01*
X40840Y14778D01*
X40948Y14886D01*
X41092Y14886D01*
X41200Y14778D01*
X41200Y14498D02*
X41200Y14778D01*
X41200Y14498D02*
X41308Y14390D01*
X42060Y14390D01*
X40560Y14390D02*
X40660Y14390D01*
X42060Y14390D02*
X42260Y14390D01*
X42500Y14150D01*
X29920Y12890D02*
X29920Y13160D01*
X27240Y9320D02*
X33720Y15800D01*
X26640Y9610D02*
X29920Y12890D01*
X25320Y9610D02*
X26640Y9610D01*
X17350Y9530D02*
X17350Y9900D01*
X17350Y9530D02*
X17830Y9050D01*
X18070Y9050D02*
X18142Y9050D01*
X18250Y9158D01*
X18250Y9625D01*
X18358Y9733D01*
X18502Y9733D01*
X18610Y9625D01*
X18610Y9050D02*
X18610Y9625D01*
X18610Y8475D02*
X18610Y9050D01*
X18610Y8475D02*
X18718Y8367D01*
X18862Y8367D01*
X18970Y8475D01*
X18970Y9050D01*
X18970Y9625D01*
X19078Y9733D01*
X19222Y9733D01*
X19330Y9625D01*
X19330Y9050D02*
X19330Y9625D01*
X19330Y8475D02*
X19330Y9050D01*
X19330Y8475D02*
X19438Y8367D01*
X19582Y8367D01*
X19690Y8475D01*
X19690Y9050D01*
X19690Y9625D01*
X19798Y9733D01*
X19942Y9733D01*
X20050Y9625D01*
X20050Y9050D02*
X20050Y9625D01*
X20050Y8475D02*
X20050Y9050D01*
X20050Y8475D02*
X20158Y8367D01*
X20302Y8367D01*
X20410Y8475D01*
X20410Y9050D01*
X20410Y9625D01*
X20518Y9733D01*
X20662Y9733D01*
X20770Y9625D01*
X20770Y9050D02*
X20770Y9625D01*
X20770Y8475D02*
X20770Y9050D01*
X20770Y8475D02*
X20878Y8367D01*
X21022Y8367D01*
X21130Y8475D01*
X21130Y9050D01*
X21130Y9625D01*
X21238Y9733D01*
X21382Y9733D01*
X21490Y9625D01*
X21490Y9050D02*
X21490Y9625D01*
X21490Y8475D02*
X21490Y9050D01*
X21490Y8475D02*
X21598Y8367D01*
X21742Y8367D01*
X21850Y8475D01*
X21850Y9050D01*
X21850Y9625D01*
X21958Y9733D01*
X22102Y9733D01*
X22210Y9625D01*
X22210Y9050D02*
X22210Y9625D01*
X22210Y8475D02*
X22210Y9050D01*
X22210Y8475D02*
X22318Y8367D01*
X22462Y8367D01*
X22570Y8475D01*
X22570Y9050D01*
X22570Y9625D01*
X22678Y9733D01*
X22822Y9733D01*
X22930Y9625D01*
X22930Y9050D02*
X22930Y9625D01*
X22930Y8475D02*
X22930Y9050D01*
X22930Y8475D02*
X23038Y8367D01*
X23182Y8367D01*
X23290Y8475D01*
X23290Y9050D01*
X23290Y9625D01*
X23398Y9733D01*
X23542Y9733D01*
X23650Y9625D01*
X23650Y9158D02*
X23650Y9625D01*
X23650Y9158D02*
X23758Y9050D01*
X23920Y9050D01*
X17830Y9050D02*
X18070Y9050D01*
X23920Y9050D02*
X24770Y9900D01*
X26450Y9900D01*
X29350Y12800D01*
X29350Y14250D01*
X28900Y12880D02*
X28900Y13800D01*
X26256Y10236D02*
X28900Y12880D01*
X16780Y10236D02*
X26256Y10236D01*
X16330Y9786D02*
X16780Y10236D01*
X16330Y7550D02*
X16330Y9786D01*
X15950Y7170D02*
X16330Y7550D01*
X14200Y7170D02*
X15950Y7170D01*
X13750Y7620D02*
X14200Y7170D01*
X13750Y9698D02*
X13750Y9770D01*
X13750Y9698D02*
X13858Y9590D01*
X15507Y9590D01*
X15615Y9482D01*
X15615Y9338D02*
X15615Y9482D01*
X15507Y9230D02*
X15615Y9338D01*
X13750Y9230D02*
X15507Y9230D01*
X11993Y9230D02*
X13750Y9230D01*
X11885Y9122D02*
X11993Y9230D01*
X11885Y8978D02*
X11885Y9122D01*
X11885Y8978D02*
X11993Y8870D01*
X13750Y8870D01*
X15507Y8870D01*
X15615Y8762D01*
X15615Y8618D02*
X15615Y8762D01*
X15507Y8510D02*
X15615Y8618D01*
X13750Y8510D02*
X15507Y8510D01*
X11993Y8510D02*
X13750Y8510D01*
X11885Y8402D02*
X11993Y8510D01*
X11885Y8258D02*
X11885Y8402D01*
X11885Y8258D02*
X11993Y8150D01*
X13642Y8150D01*
X13750Y8042D01*
X13750Y7990D02*
X13750Y8042D01*
X13750Y7620D02*
X13750Y7990D01*
X13750Y9770D02*
X14395Y10415D01*
X28400Y12880D02*
X28400Y13300D01*
X26040Y10520D02*
X28400Y12880D01*
X15440Y10520D02*
X26040Y10520D01*
X15130Y10830D02*
X15440Y10520D01*
X11100Y10830D02*
X15130Y10830D01*
X10690Y11240D02*
X11100Y10830D01*
X9300Y11240D02*
X10690Y11240D01*
X9080Y11460D02*
X9300Y11240D01*
X9080Y11460D02*
X9080Y12700D01*
X9260Y12880D01*
X9332Y12880D01*
X9440Y12988D01*
X9440Y13937D01*
X9548Y14045D01*
X9692Y14045D01*
X9800Y13937D01*
X9800Y12880D02*
X9800Y13937D01*
X9800Y11823D02*
X9800Y12880D01*
X9800Y11823D02*
X9908Y11715D01*
X10052Y11715D01*
X10160Y11823D01*
X10160Y12880D01*
X10160Y13937D01*
X10268Y14045D01*
X10412Y14045D01*
X10520Y13937D01*
X10520Y12880D02*
X10520Y13937D01*
X10520Y11823D02*
X10520Y12880D01*
X10520Y11823D02*
X10628Y11715D01*
X10772Y11715D01*
X10880Y11823D01*
X10880Y12880D01*
X10880Y13937D01*
X10988Y14045D01*
X11132Y14045D01*
X11240Y13937D01*
X11240Y12988D02*
X11240Y13937D01*
X11240Y12988D02*
X11348Y12880D01*
X12370Y12880D01*
X12510Y12880D01*
X13750Y11640D01*
X34490Y15550D02*
X36696Y15550D01*
X33880Y14940D02*
X34490Y15550D01*
X33880Y12680D02*
X33880Y14940D01*
X32250Y11050D02*
X33880Y12680D01*
X31640Y11050D02*
X32250Y11050D01*
X31330Y10740D02*
X31640Y11050D01*
X31330Y7870D02*
X31330Y10740D01*
X30960Y7500D02*
X31330Y7870D01*
X30960Y6590D02*
X30960Y7500D01*
X30480Y6110D02*
X30960Y6590D01*
X11420Y6110D02*
X30480Y6110D01*
X9230Y8300D02*
X11420Y6110D01*
X9230Y10218D02*
X9230Y10290D01*
X9230Y10218D02*
X9338Y10110D01*
X9514Y10110D01*
X9622Y10002D01*
X9622Y9858D02*
X9622Y10002D01*
X9514Y9750D02*
X9622Y9858D01*
X9338Y9750D02*
X9514Y9750D01*
X9230Y9642D02*
X9338Y9750D01*
X9230Y9010D02*
X9230Y9642D01*
X9230Y8300D02*
X9230Y9010D01*
X9230Y10290D02*
X9230Y10710D01*
X10480Y10308D02*
X10480Y10380D01*
X10480Y10308D02*
X10588Y10200D01*
X10872Y10200D01*
X10980Y10092D01*
X10980Y9948D02*
X10980Y10092D01*
X10872Y9840D02*
X10980Y9948D01*
X10480Y9840D02*
X10872Y9840D01*
X10088Y9840D02*
X10480Y9840D01*
X9980Y9732D02*
X10088Y9840D01*
X9980Y9588D02*
X9980Y9732D01*
X9980Y9588D02*
X10088Y9480D01*
X10480Y9480D01*
X10872Y9480D01*
X10980Y9372D01*
X10980Y9228D02*
X10980Y9372D01*
X10872Y9120D02*
X10980Y9228D01*
X10480Y9120D02*
X10872Y9120D01*
X10088Y9120D02*
X10480Y9120D01*
X9980Y9012D02*
X10088Y9120D01*
X9980Y8868D02*
X9980Y9012D01*
X9980Y8868D02*
X10088Y8760D01*
X10480Y8760D01*
X10872Y8760D01*
X10980Y8652D01*
X10980Y8508D02*
X10980Y8652D01*
X10872Y8400D02*
X10980Y8508D01*
X10588Y8400D02*
X10872Y8400D01*
X10480Y8292D02*
X10588Y8400D01*
X10480Y8120D02*
X10480Y8292D01*
X10480Y10380D02*
X10480Y10710D01*
X10480Y8010D02*
X10480Y8120D01*
X10480Y8010D02*
X11820Y6670D01*
X16650Y6670D01*
X17250Y7270D01*
X23680Y7270D02*
X23752Y7270D01*
X23860Y7378D01*
X23860Y7626D01*
X23968Y7734D01*
X24112Y7734D01*
X24220Y7626D01*
X24220Y7270D02*
X24220Y7626D01*
X24220Y6914D02*
X24220Y7270D01*
X24220Y6914D02*
X24328Y6806D01*
X24472Y6806D01*
X24580Y6914D01*
X24580Y7270D01*
X24580Y7626D01*
X24688Y7734D01*
X24832Y7734D01*
X24940Y7626D01*
X24940Y7270D02*
X24940Y7626D01*
X24940Y6914D02*
X24940Y7270D01*
X24940Y6914D02*
X25048Y6806D01*
X25192Y6806D01*
X25300Y6914D01*
X25300Y7162D01*
X25408Y7270D01*
X29180Y7270D01*
X17250Y7270D02*
X23680Y7270D01*
X29180Y7270D02*
X30060Y8150D01*
X30060Y9692D01*
X37750Y19060D02*
X38300Y18510D01*
X32790Y19060D02*
X37750Y19060D01*
X32660Y19190D02*
X32790Y19060D01*
X30250Y18920D02*
X30250Y19000D01*
X30250Y18920D02*
X30420Y18750D01*
X30550Y18750D02*
X30622Y18750D01*
X30730Y18858D01*
X30730Y19025D01*
X30838Y19133D01*
X30982Y19133D01*
X31090Y19025D01*
X31090Y18858D02*
X31090Y19025D01*
X31090Y18858D02*
X31198Y18750D01*
X32320Y18750D01*
X30420Y18750D02*
X30550Y18750D01*
X32320Y18750D02*
X34010Y18750D01*
X34260Y18500D01*
X36550Y18500D01*
X37850Y18500D01*
X38062Y18288D01*
X38062Y17812D02*
X38062Y18288D01*
X37950Y17700D02*
X38062Y17812D01*
X26980Y17700D02*
X37950Y17700D01*
X25200Y15920D02*
X26980Y17700D01*
X22390Y15920D02*
X25200Y15920D01*
X22240Y15770D02*
X22390Y15920D01*
X22240Y14989D02*
X22240Y15770D01*
X22081Y14830D02*
X22240Y14989D01*
X17040Y14830D02*
X22081Y14830D01*
X16920Y14950D02*
X17040Y14830D01*
X16920Y14950D02*
X16920Y15270D01*
X16670Y15520D02*
X16920Y15270D01*
X16350Y15520D02*
X16670Y15520D01*
X16100Y15770D02*
X16350Y15520D01*
X15480Y15770D02*
X16100Y15770D01*
X23111Y16775D02*
X23111Y23111D01*
X23505Y16775D02*
X23505Y22505D01*
X23898Y16775D02*
X23898Y21898D01*
X22717Y16775D02*
X22717Y23717D01*
X25000Y26000D01*
X24292Y18828D02*
X24292Y21210D01*
X24292Y18828D02*
X24580Y18540D01*
X25270Y18540D01*
X25380Y18650D02*
X25431Y18701D01*
X25431Y18854D02*
X25431Y18701D01*
X25184Y19101D02*
X25431Y18854D01*
X25184Y19101D02*
X25184Y19253D01*
X25286Y19355D01*
X25439Y19355D01*
X25762Y19032D01*
X26085Y18709D01*
X26238Y18709D01*
X26340Y18810D01*
X26340Y18963D01*
X26093Y19210D02*
X26340Y18963D01*
X26093Y19363D02*
X26093Y19210D01*
X26093Y19363D02*
X26365Y19635D01*
X25270Y18540D02*
X25380Y18650D01*
X32330Y20560D02*
X40900Y20560D01*
X42780Y18680D01*
X42780Y16730D02*
X42780Y18680D01*
X42500Y16450D02*
X42780Y16730D01*
X42500Y14780D02*
X42500Y16450D01*
X26365Y19635D02*
X31405Y19635D01*
X32330Y20560D01*
X43150Y15950D02*
X43370Y16170D01*
X43370Y18980D01*
X41045Y21305D02*
X43370Y18980D01*
X29407Y21305D02*
X41045Y21305D01*
X29220Y21492D02*
X29407Y21305D01*
X28545Y21305D02*
X28545Y23632D01*
X28683Y23770D01*
X29080Y23770D01*
X29220Y23630D01*
X29220Y21492D02*
X29220Y23630D01*
X29681Y21601D02*
X29700Y21620D01*
X44050Y16600D02*
X44050Y19370D01*
X41420Y22000D02*
X44050Y19370D01*
X31050Y22000D02*
X41420Y22000D01*
X29700Y23038D02*
X29700Y23110D01*
X29700Y23038D02*
X29808Y22930D01*
X30038Y22930D01*
X30146Y22822D01*
X30146Y22678D02*
X30146Y22822D01*
X30038Y22570D02*
X30146Y22678D01*
X29808Y22570D02*
X30038Y22570D01*
X29700Y22462D02*
X29808Y22570D01*
X29700Y22070D02*
X29700Y22462D01*
X29700Y21620D02*
X29700Y22070D01*
X29700Y23110D02*
X29700Y23310D01*
X29800Y23410D01*
X30310Y23410D01*
X30480Y23240D01*
X30480Y21870D02*
X30480Y23240D01*
X30480Y21870D02*
X30749Y21601D01*
X41279Y21601D01*
X43700Y19180D01*
X43700Y16300D02*
X43700Y19180D01*
X44450Y16950D02*
X44450Y19500D01*
X41550Y22400D02*
X44450Y19500D01*
X32300Y22400D02*
X41550Y22400D01*
X33417Y22830D02*
X33887Y23300D01*
X34220Y23300D02*
X34292Y23300D01*
X34400Y23408D01*
X34400Y23423D01*
X34508Y23531D01*
X34652Y23531D01*
X34760Y23423D01*
X34760Y23408D02*
X34760Y23423D01*
X34760Y23408D02*
X34868Y23300D01*
X35080Y23300D01*
X33887Y23300D02*
X34220Y23300D01*
X35080Y23300D02*
X41280Y23300D01*
X44850Y19730D01*
X44850Y17300D02*
X44850Y19730D01*
X25100Y20860D02*
X25640Y20860D01*
X25712Y20860D01*
X25820Y20968D01*
X25820Y21268D01*
X25928Y21376D01*
X26072Y21376D01*
X26180Y21268D01*
X26180Y20860D02*
X26180Y21268D01*
X26180Y20452D02*
X26180Y20860D01*
X26180Y20452D02*
X26288Y20344D01*
X26432Y20344D01*
X26540Y20452D01*
X26540Y20860D01*
X26540Y21268D01*
X26648Y21376D01*
X26792Y21376D01*
X26900Y21268D01*
X26900Y20860D02*
X26900Y21268D01*
X26900Y20452D02*
X26900Y20860D01*
X26900Y20452D02*
X27008Y20344D01*
X27152Y20344D01*
X27260Y20452D01*
X27260Y20860D01*
X27260Y21268D01*
X27368Y21376D01*
X27512Y21376D01*
X27620Y21268D01*
X27620Y20860D02*
X27620Y21268D01*
X27620Y20452D02*
X27620Y20860D01*
X27620Y20452D02*
X27728Y20344D01*
X27872Y20344D01*
X27980Y20452D01*
X27980Y20752D01*
X28088Y20860D01*
X28400Y20860D01*
X41060Y20860D01*
X43070Y18850D01*
X43070Y16480D02*
X43070Y18850D01*
X42800Y16210D02*
X43070Y16480D01*
X42800Y15500D02*
X42800Y16210D01*
X30530Y16520D02*
X38670Y16520D01*
X25600Y11590D02*
X30530Y16520D01*
X16210Y11590D02*
X25600Y11590D01*
X14660Y13140D02*
X16210Y11590D01*
X14660Y13140D02*
X14660Y13710D01*
X15010Y14060D01*
X15010Y16230D01*
X15370Y16590D01*
X15370Y16700D02*
X15370Y16772D01*
X15262Y16880D02*
X15370Y16772D01*
X14918Y16880D02*
X15262Y16880D01*
X14810Y16988D02*
X14918Y16880D01*
X14810Y16988D02*
X14810Y17132D01*
X14918Y17240D01*
X15262Y17240D01*
X15370Y17348D01*
X15370Y18160D01*
X15370Y16590D02*
X15370Y16700D01*
X15370Y18160D02*
X15370Y18510D01*
X14890Y18990D02*
X15370Y18510D01*
X14530Y18990D02*
X14890Y18990D01*
X14380Y18840D02*
X14530Y18990D01*
X14380Y13420D02*
X14380Y18840D01*
X8400Y7750D02*
X10490Y5660D01*
X7920Y18710D02*
X8400Y18230D01*
X3010Y17600D02*
X3082Y17600D01*
X3190Y17708D01*
X3190Y18178D01*
X3298Y18286D01*
X3442Y18286D01*
X3550Y18178D01*
X3550Y17600D02*
X3550Y18178D01*
X3550Y17022D02*
X3550Y17600D01*
X3550Y17022D02*
X3658Y16914D01*
X3802Y16914D01*
X3910Y17022D01*
X3910Y17600D01*
X3910Y18178D01*
X4018Y18286D01*
X4162Y18286D01*
X4270Y18178D01*
X4270Y17600D02*
X4270Y18178D01*
X4270Y17022D02*
X4270Y17600D01*
X4270Y17022D02*
X4378Y16914D01*
X4522Y16914D01*
X4630Y17022D01*
X4630Y17492D01*
X4738Y17600D01*
X5840Y17600D01*
X2500Y17600D02*
X3010Y17600D01*
X5840Y17600D02*
X6150Y17600D01*
X6520Y17230D01*
X6520Y16540D02*
X6520Y17230D01*
X8400Y15610D02*
X8400Y18230D01*
X8400Y7750D02*
X8400Y13230D01*
X8860Y13690D01*
X8860Y15150D01*
X8400Y15610D02*
X8860Y15150D01*
X2500Y15600D02*
X2950Y15150D01*
X3370Y15150D02*
X3442Y15150D01*
X3550Y15258D01*
X3550Y15728D01*
X3658Y15836D01*
X3802Y15836D01*
X3910Y15728D01*
X3910Y15150D02*
X3910Y15728D01*
X3910Y14572D02*
X3910Y15150D01*
X3910Y14572D02*
X4018Y14464D01*
X4162Y14464D01*
X4270Y14572D01*
X4270Y15150D01*
X4270Y15728D01*
X4378Y15836D01*
X4522Y15836D01*
X4630Y15728D01*
X4630Y15150D02*
X4630Y15728D01*
X4630Y14572D02*
X4630Y15150D01*
X4630Y14572D02*
X4738Y14464D01*
X4882Y14464D01*
X4990Y14572D01*
X4990Y15150D01*
X4990Y15728D01*
X5098Y15836D01*
X5242Y15836D01*
X5350Y15728D01*
X5350Y15150D02*
X5350Y15728D01*
X5350Y14572D02*
X5350Y15150D01*
X5350Y14572D02*
X5458Y14464D01*
X5602Y14464D01*
X5710Y14572D01*
X5710Y15150D01*
X5710Y15728D01*
X5818Y15836D01*
X5962Y15836D01*
X6070Y15728D01*
X6070Y15258D02*
X6070Y15728D01*
X6070Y15258D02*
X6178Y15150D01*
X7190Y15150D01*
X2950Y15150D02*
X3370Y15150D01*
X7190Y15150D02*
X7410Y15150D01*
X7550Y15290D01*
X7550Y15600D01*
X2500Y14600D02*
X3060Y14600D01*
X3240Y14420D01*
X3240Y13030D02*
X3240Y14420D01*
X3240Y13030D02*
X3417Y12853D01*
X3700Y12853D02*
X3772Y12853D01*
X3880Y12961D01*
X3880Y13470D01*
X3988Y13578D01*
X4132Y13578D01*
X4240Y13470D01*
X4240Y12853D02*
X4240Y13470D01*
X4240Y12236D02*
X4240Y12853D01*
X4240Y12236D02*
X4348Y12128D01*
X4492Y12128D01*
X4600Y12236D01*
X4600Y12853D01*
X4600Y13470D01*
X4708Y13578D01*
X4852Y13578D01*
X4960Y13470D01*
X4960Y12853D02*
X4960Y13470D01*
X4960Y12236D02*
X4960Y12853D01*
X4960Y12236D02*
X5068Y12128D01*
X5212Y12128D01*
X5320Y12236D01*
X5320Y12853D01*
X5320Y13470D01*
X5428Y13578D01*
X5572Y13578D01*
X5680Y13470D01*
X5680Y12853D02*
X5680Y13470D01*
X5680Y12236D02*
X5680Y12853D01*
X5680Y12236D02*
X5788Y12128D01*
X5932Y12128D01*
X6040Y12236D01*
X6040Y12853D01*
X6040Y13470D01*
X6148Y13578D01*
X6292Y13578D01*
X6400Y13470D01*
X6400Y12853D02*
X6400Y13470D01*
X6400Y12236D02*
X6400Y12853D01*
X6400Y12236D02*
X6508Y12128D01*
X6652Y12128D01*
X6760Y12236D01*
X6760Y12745D01*
X6868Y12853D01*
X7590Y12853D01*
X3417Y12853D02*
X3700Y12853D01*
X7590Y12853D02*
X8000Y12853D01*
X2000Y5100D02*
X2770Y5100D01*
X5370Y2500D01*
X33930Y2500D01*
X2510Y5590D02*
X3910Y5590D01*
X4105Y5395D02*
X4156Y5344D01*
X4309Y5344D01*
X4716Y5751D01*
X4868Y5751D01*
X4970Y5649D01*
X4970Y5497D02*
X4970Y5649D01*
X4487Y5013D02*
X4970Y5497D01*
X4003Y4530D02*
X4487Y5013D01*
X4003Y4377D02*
X4003Y4530D01*
X4003Y4377D02*
X4105Y4275D01*
X4258Y4275D01*
X4741Y4759D01*
X5225Y5242D01*
X5378Y5242D01*
X5479Y5140D01*
X5479Y4987D02*
X5479Y5140D01*
X4996Y4504D02*
X5479Y4987D01*
X4513Y4021D02*
X4996Y4504D01*
X4513Y3868D02*
X4513Y4021D01*
X4513Y3868D02*
X4614Y3766D01*
X4767Y3766D01*
X5251Y4249D01*
X5734Y4733D01*
X5887Y4733D01*
X5988Y4631D01*
X5988Y4478D02*
X5988Y4631D01*
X5505Y3995D02*
X5988Y4478D01*
X5022Y3512D02*
X5505Y3995D01*
X5022Y3359D02*
X5022Y3512D01*
X5022Y3359D02*
X5124Y3257D01*
X5276Y3257D01*
X5683Y3664D01*
X5836Y3664D01*
X6170Y3330D01*
X3910Y5590D02*
X4105Y5395D01*
X6170Y3330D02*
X6450Y3050D01*
X31800Y3050D01*
X710Y7390D02*
X710Y10140D01*
X1390Y10820D01*
X7920Y7040D02*
X9684Y5276D01*
X1390Y10820D02*
X7010Y10820D01*
X7920Y9910D01*
X7920Y7040D02*
X7920Y9910D01*
X1500Y8600D02*
X1500Y9680D01*
X1850Y10030D01*
X2160Y10030D02*
X2232Y10030D01*
X2340Y10138D01*
X2340Y10322D01*
X2448Y10430D01*
X2592Y10430D01*
X2700Y10322D01*
X2700Y10030D02*
X2700Y10322D01*
X2700Y9738D02*
X2700Y10030D01*
X2700Y9738D02*
X2808Y9630D01*
X2952Y9630D01*
X3060Y9738D01*
X3060Y10030D01*
X3060Y10322D01*
X3168Y10430D01*
X3312Y10430D01*
X3420Y10322D01*
X3420Y10030D02*
X3420Y10322D01*
X3420Y9738D02*
X3420Y10030D01*
X3420Y9738D02*
X3528Y9630D01*
X3672Y9630D01*
X3780Y9738D01*
X3780Y10030D01*
X3780Y10322D01*
X3888Y10430D01*
X4032Y10430D01*
X4140Y10322D01*
X4140Y10030D02*
X4140Y10322D01*
X4140Y9738D02*
X4140Y10030D01*
X4140Y9738D02*
X4248Y9630D01*
X4392Y9630D01*
X4500Y9738D01*
X4500Y10030D01*
X4500Y10322D01*
X4608Y10430D01*
X4752Y10430D01*
X4860Y10322D01*
X4860Y10030D02*
X4860Y10322D01*
X4860Y9738D02*
X4860Y10030D01*
X4860Y9738D02*
X4968Y9630D01*
X5112Y9630D01*
X5220Y9738D01*
X5220Y10030D01*
X5220Y10322D01*
X5328Y10430D01*
X5472Y10430D01*
X5580Y10322D01*
X5580Y10138D02*
X5580Y10322D01*
X5580Y10138D02*
X5688Y10030D01*
X6400Y10030D01*
X1850Y10030D02*
X2160Y10030D01*
X7460Y6600D02*
X9260Y4800D01*
X31800Y4800D01*
X1500Y7600D02*
X2000Y8100D01*
X2000Y9010D01*
X2240Y9250D01*
X2780Y9250D01*
X3240Y8790D01*
X5948Y8790D02*
X6020Y8790D01*
X5840Y8682D02*
X5948Y8790D01*
X5840Y8322D02*
X5840Y8682D01*
X5732Y8214D02*
X5840Y8322D01*
X5588Y8214D02*
X5732Y8214D01*
X5480Y8322D02*
X5588Y8214D01*
X5480Y8322D02*
X5480Y8790D01*
X5480Y9258D01*
X5372Y9366D02*
X5480Y9258D01*
X5228Y9366D02*
X5372Y9366D01*
X5120Y9258D02*
X5228Y9366D01*
X5120Y8790D02*
X5120Y9258D01*
X5120Y8322D02*
X5120Y8790D01*
X5012Y8214D02*
X5120Y8322D01*
X4868Y8214D02*
X5012Y8214D01*
X4760Y8322D02*
X4868Y8214D01*
X4760Y8322D02*
X4760Y8790D01*
X4760Y9258D01*
X4652Y9366D02*
X4760Y9258D01*
X4508Y9366D02*
X4652Y9366D01*
X4400Y9258D02*
X4508Y9366D01*
X4400Y8790D02*
X4400Y9258D01*
X4400Y8322D02*
X4400Y8790D01*
X4292Y8214D02*
X4400Y8322D01*
X4148Y8214D02*
X4292Y8214D01*
X4040Y8322D02*
X4148Y8214D01*
X4040Y8322D02*
X4040Y8790D01*
X4040Y9258D01*
X3932Y9366D02*
X4040Y9258D01*
X3788Y9366D02*
X3932Y9366D01*
X3680Y9258D02*
X3788Y9366D01*
X3680Y8898D02*
X3680Y9258D01*
X3572Y8790D02*
X3680Y8898D01*
X3240Y8790D02*
X3572Y8790D01*
X6020Y8790D02*
X6160Y8650D01*
X6160Y7040D02*
X6160Y8650D01*
X6160Y7040D02*
X8950Y4250D01*
X31800Y4250D01*
X6400Y10030D02*
X6560Y10030D01*
X7460Y9130D01*
X7460Y6600D02*
X7460Y9130D01*
X2500Y6600D02*
X3000Y7100D01*
X3072Y7100D01*
X3180Y7208D01*
X3180Y7792D01*
X3288Y7900D01*
X3432Y7900D01*
X3540Y7792D01*
X3540Y7100D02*
X3540Y7792D01*
X3540Y6408D02*
X3540Y7100D01*
X3540Y6408D02*
X3648Y6300D01*
X3792Y6300D01*
X3900Y6408D01*
X3900Y7100D01*
X3900Y7792D01*
X4008Y7900D01*
X4152Y7900D01*
X4260Y7792D01*
X4260Y7100D02*
X4260Y7792D01*
X4260Y6408D02*
X4260Y7100D01*
X4260Y6408D02*
X4368Y6300D01*
X4512Y6300D01*
X4620Y6408D01*
X4620Y7100D01*
X4620Y7792D01*
X4728Y7900D01*
X4872Y7900D01*
X4980Y7792D01*
X4980Y7208D02*
X4980Y7792D01*
X4980Y7208D02*
X5088Y7100D01*
X5340Y7100D01*
X5350Y7100D01*
X5477Y6973D01*
X5490Y6960D01*
X6200Y6250D01*
X6200Y5570D02*
X6200Y6250D01*
X6965Y4805D02*
X7016Y4754D01*
X7169Y4754D01*
X7305Y4890D01*
X7457Y4890D01*
X7559Y4788D01*
X7559Y4635D02*
X7559Y4788D01*
X7347Y4423D02*
X7559Y4635D01*
X7135Y4211D02*
X7347Y4423D01*
X7135Y4058D02*
X7135Y4211D01*
X7135Y4058D02*
X7236Y3956D01*
X7389Y3956D01*
X7525Y4092D01*
X7678Y4092D01*
X8120Y3650D01*
X6200Y5570D02*
X6965Y4805D01*
X8120Y3650D02*
X31800Y3650D01*
D11*
X40780Y6271D02*
X41165Y6656D01*
X40780Y5810D02*
X40780Y6271D01*
X40780Y5810D02*
X41185Y5406D01*
D12*
X2500Y8600D02*
D03*
X2500Y7600D02*
D03*
X2500Y6600D02*
D03*
X2500Y3600D02*
D03*
X2500Y4600D02*
D03*
X2500Y5600D02*
D03*
X1500Y5600D02*
D03*
X1500Y4600D02*
D03*
X1500Y3600D02*
D03*
X1500Y6600D02*
D03*
X1500Y7600D02*
D03*
X1500Y8600D02*
D03*
X2500Y17600D02*
D03*
X2500Y16600D02*
D03*
X2500Y15600D02*
D03*
X2500Y12600D02*
D03*
X2500Y13600D02*
D03*
X2500Y14600D02*
D03*
X1500Y14600D02*
D03*
X1500Y13600D02*
D03*
X1500Y12600D02*
D03*
X1500Y15600D02*
D03*
X1500Y16600D02*
D03*
X1500Y17600D02*
D03*
D13*
X28000Y26000D02*
D03*
X27000Y26000D02*
D03*
X26000Y26000D02*
D03*
X25000Y26000D02*
D03*
X24000Y26000D02*
D03*
X23000Y26000D02*
D03*
X18000Y26000D02*
D03*
X17000Y26000D02*
D03*
X16000Y26000D02*
D03*
X15000Y26000D02*
D03*
X14000Y26000D02*
D03*
X13000Y26000D02*
D03*
D14*
X7550Y15600D02*
D03*
X30910Y11654D02*
D03*
X31999Y11650D02*
D03*
X33000Y13610D02*
D03*
X39243Y12803D02*
D03*
X36529Y6462D02*
D03*
X39322Y10945D02*
D03*
X32102Y9921D02*
D03*
X31770Y9291D02*
D03*
X31840Y8031D02*
D03*
X38141Y6510D02*
D03*
X33873Y7543D02*
D03*
X34976Y7543D02*
D03*
X33275Y8189D02*
D03*
X11370Y15947D02*
D03*
X14350Y12850D02*
D03*
X13300Y13300D02*
D03*
X14950Y13450D02*
D03*
X42500Y14150D02*
D03*
X17481Y15448D02*
D03*
X29350Y14250D02*
D03*
X28900Y13800D02*
D03*
X28400Y13300D02*
D03*
X37511Y18000D02*
D03*
X38700Y17200D02*
D03*
X39600Y16050D02*
D03*
X39850Y15400D02*
D03*
X38700Y16490D02*
D03*
X40150Y14598D02*
D03*
X27850Y12950D02*
D03*
X42800Y13700D02*
D03*
X9407Y20440D02*
D03*
X9558Y19580D02*
D03*
X31800Y3050D02*
D03*
X31800Y4250D02*
D03*
X31800Y4800D02*
D03*
X32550Y6200D02*
D03*
X36393Y7543D02*
D03*
X16497Y15846D02*
D03*
X18164Y15859D02*
D03*
X36487Y14724D02*
D03*
X30130Y6600D02*
D03*
X31800Y3650D02*
D03*
X36172Y15039D02*
D03*
X28507Y11055D02*
D03*
X30255Y9780D02*
D03*
X7920Y17360D02*
D03*
X5558Y20509D02*
D03*
X5558Y20037D02*
D03*
X5558Y21139D02*
D03*
X5558Y21612D02*
D03*
X34913Y6472D02*
D03*
X33810Y6472D02*
D03*
X43955Y6746D02*
D03*
X43955Y6346D02*
D03*
X42755Y5576D02*
D03*
X42275Y5126D02*
D03*
X41165Y6656D02*
D03*
X41185Y5406D02*
D03*
X41145Y5906D02*
D03*
X35621Y13622D02*
D03*
X35606Y14724D02*
D03*
X39243Y14026D02*
D03*
X40537Y10945D02*
D03*
X38141Y5339D02*
D03*
X36530Y5313D02*
D03*
X30713Y7953D02*
D03*
X30563Y9300D02*
D03*
X33401Y14724D02*
D03*
X33417Y13622D02*
D03*
X37275Y12362D02*
D03*
X37117Y13528D02*
D03*
X35700Y12362D02*
D03*
X34755Y12362D02*
D03*
X34598Y13528D02*
D03*
X33338Y11732D02*
D03*
X33275Y11024D02*
D03*
X36566Y13622D02*
D03*
X32102Y10551D02*
D03*
X33275Y10472D02*
D03*
X33275Y10000D02*
D03*
X33275Y9370D02*
D03*
X33275Y7795D02*
D03*
X36487Y12362D02*
D03*
X38712Y12752D02*
D03*
X38062Y9370D02*
D03*
X39400Y9450D02*
D03*
X39540Y7953D02*
D03*
X39610Y7387D02*
D03*
X39196Y7606D02*
D03*
X38062Y10787D02*
D03*
X37653Y7543D02*
D03*
X26041Y15749D02*
D03*
X21592Y15749D02*
D03*
X17860Y17485D02*
D03*
X18160Y17735D02*
D03*
X18574Y17735D02*
D03*
X25000Y22425D02*
D03*
X26000Y22425D02*
D03*
X27000Y22425D02*
D03*
X27990Y22425D02*
D03*
X23000Y23400D02*
D03*
X18874Y17485D02*
D03*
X31918Y7612D02*
D03*
X41684Y5906D02*
D03*
X42046Y5909D02*
D03*
X11261Y17547D02*
D03*
X20530Y21420D02*
D03*
X20530Y24130D02*
D03*
X16350Y23667D02*
D03*
X18574Y22073D02*
D03*
X18874Y21500D02*
D03*
X22200Y21550D02*
D03*
X14990Y22050D02*
D03*
X20540Y25250D02*
D03*
X8865Y16515D02*
D03*
X37826Y6390D02*
D03*
X36078Y5240D02*
D03*
X34810Y4732D02*
D03*
X33350Y5092D02*
D03*
X31452Y7160D02*
D03*
X30602Y10236D02*
D03*
X32530Y13978D02*
D03*
X34361Y15055D02*
D03*
X36881Y15088D02*
D03*
X38283Y14917D02*
D03*
X40999Y9616D02*
D03*
X40850Y11417D02*
D03*
X40568Y8362D02*
D03*
X37354Y5240D02*
D03*
X32940Y14380D02*
D03*
X22717Y16775D02*
D03*
X23111Y16775D02*
D03*
X23505Y16775D02*
D03*
X23898Y16775D02*
D03*
X24292Y16775D02*
D03*
X33830Y18270D02*
D03*
X31760Y9710D02*
D03*
X15480Y16150D02*
D03*
X15480Y15770D02*
D03*
X15480Y15390D02*
D03*
X38490Y17590D02*
D03*
X15480Y15010D02*
D03*
X15480Y14630D02*
D03*
X13750Y11640D02*
D03*
X27240Y9320D02*
D03*
X25320Y9610D02*
D03*
X36696Y15550D02*
D03*
X17350Y9900D02*
D03*
X14395Y10415D02*
D03*
X9230Y10710D02*
D03*
X10480Y10710D02*
D03*
X30250Y19000D02*
D03*
X42500Y14780D02*
D03*
X24292Y21210D02*
D03*
X24686Y16775D02*
D03*
X42800Y15500D02*
D03*
X25100Y20860D02*
D03*
X28545Y21305D02*
D03*
X43150Y15950D02*
D03*
X43700Y16300D02*
D03*
X29681Y21601D02*
D03*
X44050Y16600D02*
D03*
X31050Y22000D02*
D03*
X44450Y16950D02*
D03*
X32300Y22400D02*
D03*
X33417Y22830D02*
D03*
X44850Y17300D02*
D03*
X14380Y13420D02*
D03*
X7920Y18710D02*
D03*
X8000Y12853D02*
D03*
X6520Y16540D02*
D03*
M02*
