G04 Layer_Color=32896*
%FSLAX24Y24*%
%MOIN*%
G70*
G01*
G75*
%ADD10C,0.0060*%
%ADD47C,0.0100*%
%ADD77C,0.0098*%
%ADD78C,0.0236*%
%ADD79C,0.0059*%
%ADD80C,0.0047*%
%ADD81C,0.0079*%
G36*
X6815Y13165D02*
X6688Y13165D01*
X6688Y13213D01*
X6815Y13213D01*
X6815Y13165D01*
X6815Y13165D02*
G37*
G36*
X6942Y13301D02*
X6560Y13301D01*
X6560Y13350D01*
X6942Y13350D01*
X6942Y13301D01*
X6942Y13301D02*
G37*
G36*
X6774Y13475D02*
X7071Y13475D01*
X7071Y13426D01*
X6434Y13426D01*
X6434Y13475D01*
X6732Y13475D01*
X6732Y13742D01*
X6774Y13742D01*
X6774Y13475D01*
X6774Y13475D02*
G37*
G36*
X6815Y4180D02*
X6688Y4180D01*
X6688Y4228D01*
X6815Y4228D01*
X6815Y4180D01*
X6815Y4180D02*
G37*
G36*
X6942Y4316D02*
X6560Y4316D01*
X6560Y4365D01*
X6942Y4365D01*
X6942Y4316D01*
X6942Y4316D02*
G37*
G36*
X6774Y4490D02*
X7071Y4490D01*
X7071Y4441D01*
X6434Y4441D01*
X6434Y4490D01*
X6732Y4490D01*
X6732Y4757D01*
X6774Y4757D01*
X6774Y4490D01*
X6774Y4490D02*
G37*
G36*
X14094Y24445D02*
X13967Y24445D01*
X13967Y24493D01*
X14094Y24493D01*
X14094Y24445D01*
X14094Y24445D02*
G37*
G36*
X14221Y24581D02*
X13839Y24581D01*
X13839Y24630D01*
X14221Y24630D01*
X14221Y24581D01*
X14221Y24581D02*
G37*
G36*
X14053Y24755D02*
X14350Y24755D01*
X14350Y24706D01*
X13714Y24706D01*
X13714Y24755D01*
X14011Y24755D01*
X14011Y25022D01*
X14053Y25022D01*
X14053Y24755D01*
X14053Y24755D02*
G37*
G36*
X23934Y24645D02*
X23807Y24645D01*
X23807Y24693D01*
X23934Y24693D01*
X23934Y24645D01*
X23934Y24645D02*
G37*
G36*
X24061Y24781D02*
X23679Y24781D01*
X23679Y24831D01*
X24061Y24831D01*
X24061Y24781D01*
X24061Y24781D02*
G37*
G36*
X23893Y24955D02*
X24190Y24955D01*
X24190Y24906D01*
X23554Y24906D01*
X23554Y24955D01*
X23851Y24955D01*
X23851Y25222D01*
X23893Y25222D01*
X23893Y24955D01*
X23893Y24955D02*
G37*
D10*
X3700Y5100D02*
X3700Y9320D01*
X3700Y5100D02*
X7250Y5100D01*
X7250Y9320D01*
X3700Y9320D02*
X7250Y9320D01*
X5550Y5110D02*
X5550Y9320D01*
X5540Y5100D02*
X5550Y5110D01*
X5550Y14110D02*
X5550Y18320D01*
X3700Y18320D02*
X7250Y18320D01*
X3700Y14100D02*
X7250Y14100D01*
X3700Y14100D02*
X3700Y18320D01*
X7250Y14100D02*
X7250Y18320D01*
X28972Y12432D02*
X28972Y12668D01*
X28979Y9079D02*
X28979Y9315D01*
X9440Y19053D02*
X9676Y19053D01*
X3790Y11880D02*
X3740Y11930D01*
X3740Y12030D01*
X3790Y12080D01*
X3990Y12080D01*
X4040Y12030D01*
X4040Y11930D01*
X3990Y11880D01*
X4040Y11780D02*
X4040Y11680D01*
X4040Y11730D01*
X3740Y11730D01*
X3790Y11780D01*
X4660Y11850D02*
X4610Y11900D01*
X4610Y12000D01*
X4660Y12050D01*
X4860Y12050D01*
X4910Y12000D01*
X4910Y11900D01*
X4860Y11850D01*
X4910Y11550D02*
X4910Y11750D01*
X4710Y11550D01*
X4660Y11550D01*
X4610Y11600D01*
X4610Y11700D01*
X4660Y11750D01*
X3820Y2940D02*
X3770Y2990D01*
X3770Y3090D01*
X3820Y3140D01*
X4020Y3140D01*
X4070Y3090D01*
X4070Y2990D01*
X4020Y2940D01*
X3820Y2840D02*
X3770Y2790D01*
X3770Y2690D01*
X3820Y2640D01*
X3870Y2640D01*
X3920Y2690D01*
X3920Y2740D01*
X3920Y2690D01*
X3970Y2640D01*
X4020Y2640D01*
X4070Y2690D01*
X4070Y2790D01*
X4020Y2840D01*
X4680Y2960D02*
X4630Y3010D01*
X4630Y3110D01*
X4680Y3160D01*
X4880Y3160D01*
X4930Y3110D01*
X4930Y3010D01*
X4880Y2960D01*
X4930Y2710D02*
X4630Y2710D01*
X4780Y2860D01*
X4780Y2660D01*
X12410Y18027D02*
X12460Y18077D01*
X12560Y18077D01*
X12610Y18027D01*
X12610Y17827D01*
X12560Y17777D01*
X12460Y17777D01*
X12410Y17827D01*
X12110Y18077D02*
X12310Y18077D01*
X12310Y17927D01*
X12210Y17977D01*
X12160Y17977D01*
X12110Y17927D01*
X12110Y17827D01*
X12160Y17777D01*
X12260Y17777D01*
X12310Y17827D01*
X28152Y9290D02*
X28202Y9340D01*
X28302Y9340D01*
X28352Y9290D01*
X28352Y9090D01*
X28302Y9040D01*
X28202Y9040D01*
X28152Y9090D01*
X27852Y9340D02*
X27952Y9290D01*
X28052Y9190D01*
X28052Y9090D01*
X28002Y9040D01*
X27902Y9040D01*
X27852Y9090D01*
X27852Y9140D01*
X27902Y9190D01*
X28052Y9190D01*
X28212Y12760D02*
X28262Y12810D01*
X28362Y12810D01*
X28412Y12760D01*
X28412Y12560D01*
X28362Y12510D01*
X28262Y12510D01*
X28212Y12560D01*
X28112Y12810D02*
X27912Y12810D01*
X27912Y12760D01*
X28112Y12560D01*
X28112Y12510D01*
X41528Y11557D02*
X41578Y11607D01*
X41678Y11607D01*
X41728Y11557D01*
X41728Y11357D01*
X41678Y11307D01*
X41578Y11307D01*
X41528Y11357D01*
X41428Y11557D02*
X41378Y11607D01*
X41278Y11607D01*
X41228Y11557D01*
X41228Y11507D01*
X41278Y11457D01*
X41228Y11407D01*
X41228Y11357D01*
X41278Y11307D01*
X41378Y11307D01*
X41428Y11357D01*
X41428Y11407D01*
X41378Y11457D01*
X41428Y11507D01*
X41428Y11557D01*
X41378Y11457D02*
X41278Y11457D01*
X31987Y13197D02*
X31937Y13247D01*
X31937Y13347D01*
X31987Y13397D01*
X32187Y13397D01*
X32237Y13347D01*
X32237Y13247D01*
X32187Y13197D01*
X32187Y13097D02*
X32237Y13047D01*
X32237Y12947D01*
X32187Y12897D01*
X31987Y12897D01*
X31937Y12947D01*
X31937Y13047D01*
X31987Y13097D01*
X32037Y13097D01*
X32087Y13047D01*
X32087Y12897D01*
X34260Y15800D02*
X34210Y15850D01*
X34210Y15950D01*
X34260Y16000D01*
X34460Y16000D01*
X34510Y15950D01*
X34510Y15850D01*
X34460Y15800D01*
X34510Y15700D02*
X34510Y15600D01*
X34510Y15650D01*
X34210Y15650D01*
X34260Y15700D01*
X34260Y15450D02*
X34210Y15400D01*
X34210Y15300D01*
X34260Y15250D01*
X34460Y15250D01*
X34510Y15300D01*
X34510Y15400D01*
X34460Y15450D01*
X34260Y15450D01*
X37290Y14600D02*
X37240Y14650D01*
X37240Y14750D01*
X37290Y14800D01*
X37490Y14800D01*
X37540Y14750D01*
X37540Y14650D01*
X37490Y14600D01*
X37540Y14500D02*
X37540Y14400D01*
X37540Y14450D01*
X37240Y14450D01*
X37290Y14500D01*
X37540Y14250D02*
X37540Y14150D01*
X37540Y14200D01*
X37240Y14200D01*
X37290Y14250D01*
X31056Y7280D02*
X31106Y7330D01*
X31206Y7330D01*
X31256Y7280D01*
X31256Y7080D01*
X31206Y7030D01*
X31106Y7030D01*
X31056Y7080D01*
X30956Y7030D02*
X30856Y7030D01*
X30906Y7030D01*
X30906Y7330D01*
X30956Y7280D01*
X30507Y7030D02*
X30706Y7030D01*
X30507Y7230D01*
X30507Y7280D01*
X30557Y7330D01*
X30656Y7330D01*
X30706Y7280D01*
X33227Y4612D02*
X33177Y4662D01*
X33177Y4762D01*
X33227Y4812D01*
X33426Y4812D01*
X33476Y4762D01*
X33476Y4662D01*
X33426Y4612D01*
X33476Y4512D02*
X33476Y4412D01*
X33476Y4462D01*
X33177Y4462D01*
X33227Y4512D01*
X33227Y4263D02*
X33177Y4213D01*
X33177Y4113D01*
X33227Y4063D01*
X33277Y4063D01*
X33326Y4113D01*
X33326Y4163D01*
X33326Y4113D01*
X33376Y4063D01*
X33426Y4063D01*
X33476Y4113D01*
X33476Y4213D01*
X33426Y4263D01*
X34673Y4329D02*
X34623Y4379D01*
X34623Y4479D01*
X34673Y4529D01*
X34873Y4529D01*
X34923Y4479D01*
X34923Y4379D01*
X34873Y4329D01*
X34923Y4229D02*
X34923Y4129D01*
X34923Y4179D01*
X34623Y4179D01*
X34673Y4229D01*
X34923Y3829D02*
X34623Y3829D01*
X34773Y3979D01*
X34773Y3779D01*
X35930Y4761D02*
X35880Y4811D01*
X35880Y4911D01*
X35930Y4961D01*
X36130Y4961D01*
X36180Y4911D01*
X36180Y4811D01*
X36130Y4761D01*
X36180Y4661D02*
X36180Y4561D01*
X36180Y4611D01*
X35880Y4611D01*
X35930Y4661D01*
X35880Y4211D02*
X35880Y4411D01*
X36030Y4411D01*
X35980Y4311D01*
X35980Y4261D01*
X36030Y4211D01*
X36130Y4211D01*
X36180Y4261D01*
X36180Y4361D01*
X36130Y4411D01*
X37245Y4761D02*
X37195Y4811D01*
X37195Y4911D01*
X37245Y4961D01*
X37445Y4961D01*
X37495Y4911D01*
X37495Y4811D01*
X37445Y4761D01*
X37495Y4661D02*
X37495Y4561D01*
X37495Y4611D01*
X37195Y4611D01*
X37245Y4661D01*
X37195Y4211D02*
X37245Y4311D01*
X37345Y4411D01*
X37445Y4411D01*
X37495Y4361D01*
X37495Y4261D01*
X37445Y4211D01*
X37395Y4211D01*
X37345Y4261D01*
X37345Y4411D01*
X38610Y14240D02*
X38560Y14290D01*
X38560Y14390D01*
X38610Y14440D01*
X38810Y14440D01*
X38860Y14390D01*
X38860Y14290D01*
X38810Y14240D01*
X38860Y14140D02*
X38860Y14040D01*
X38860Y14090D01*
X38560Y14090D01*
X38610Y14140D01*
X38560Y13890D02*
X38560Y13690D01*
X38610Y13690D01*
X38810Y13890D01*
X38860Y13890D01*
X40368Y10156D02*
X40418Y10206D01*
X40518Y10206D01*
X40568Y10156D01*
X40568Y9956D01*
X40518Y9906D01*
X40418Y9906D01*
X40368Y9956D01*
X40268Y9906D02*
X40168Y9906D01*
X40218Y9906D01*
X40218Y10206D01*
X40268Y10156D01*
X40018Y10156D02*
X39968Y10206D01*
X39868Y10206D01*
X39818Y10156D01*
X39818Y10106D01*
X39868Y10056D01*
X39818Y10006D01*
X39818Y9956D01*
X39868Y9906D01*
X39968Y9906D01*
X40018Y9956D01*
X40018Y10006D01*
X39968Y10056D01*
X40018Y10106D01*
X40018Y10156D01*
X39968Y10056D02*
X39868Y10056D01*
X40114Y8937D02*
X40164Y8987D01*
X40264Y8987D01*
X40314Y8937D01*
X40314Y8737D01*
X40264Y8687D01*
X40164Y8687D01*
X40114Y8737D01*
X40014Y8687D02*
X39914Y8687D01*
X39964Y8687D01*
X39964Y8987D01*
X40014Y8937D01*
X39764Y8737D02*
X39714Y8687D01*
X39614Y8687D01*
X39564Y8737D01*
X39564Y8937D01*
X39614Y8987D01*
X39714Y8987D01*
X39764Y8937D01*
X39764Y8887D01*
X39714Y8837D01*
X39564Y8837D01*
X31467Y8471D02*
X31517Y8521D01*
X31617Y8521D01*
X31667Y8471D01*
X31667Y8271D01*
X31617Y8221D01*
X31517Y8221D01*
X31467Y8271D01*
X31167Y8221D02*
X31367Y8221D01*
X31167Y8421D01*
X31167Y8471D01*
X31217Y8521D01*
X31317Y8521D01*
X31367Y8471D01*
X31067Y8471D02*
X31017Y8521D01*
X30917Y8521D01*
X30867Y8471D01*
X30867Y8271D01*
X30917Y8221D01*
X31017Y8221D01*
X31067Y8271D01*
X31067Y8471D01*
X35510Y15530D02*
X35460Y15580D01*
X35460Y15680D01*
X35510Y15730D01*
X35710Y15730D01*
X35760Y15680D01*
X35760Y15580D01*
X35710Y15530D01*
X35760Y15230D02*
X35760Y15430D01*
X35560Y15230D01*
X35510Y15230D01*
X35460Y15280D01*
X35460Y15380D01*
X35510Y15430D01*
X35760Y15130D02*
X35760Y15030D01*
X35760Y15080D01*
X35460Y15080D01*
X35510Y15130D01*
X38049Y4666D02*
X37999Y4716D01*
X37999Y4816D01*
X38049Y4866D01*
X38248Y4866D01*
X38298Y4816D01*
X38298Y4716D01*
X38248Y4666D01*
X38298Y4366D02*
X38298Y4566D01*
X38098Y4366D01*
X38049Y4366D01*
X37999Y4416D01*
X37999Y4516D01*
X38049Y4566D01*
X38298Y4066D02*
X38298Y4266D01*
X38098Y4066D01*
X38049Y4066D01*
X37999Y4116D01*
X37999Y4216D01*
X38049Y4266D01*
X36438Y4640D02*
X36388Y4690D01*
X36388Y4790D01*
X36438Y4840D01*
X36637Y4840D01*
X36687Y4790D01*
X36687Y4690D01*
X36637Y4640D01*
X36687Y4340D02*
X36687Y4540D01*
X36488Y4340D01*
X36438Y4340D01*
X36388Y4390D01*
X36388Y4490D01*
X36438Y4540D01*
X36438Y4240D02*
X36388Y4190D01*
X36388Y4090D01*
X36438Y4040D01*
X36488Y4040D01*
X36538Y4090D01*
X36538Y4140D01*
X36538Y4090D01*
X36588Y4040D01*
X36637Y4040D01*
X36687Y4090D01*
X36687Y4190D01*
X36637Y4240D01*
X31337Y9009D02*
X31387Y9059D01*
X31487Y9059D01*
X31537Y9009D01*
X31537Y8809D01*
X31487Y8759D01*
X31387Y8759D01*
X31337Y8809D01*
X31037Y8759D02*
X31237Y8759D01*
X31037Y8959D01*
X31037Y9009D01*
X31087Y9059D01*
X31187Y9059D01*
X31237Y9009D01*
X30787Y8759D02*
X30787Y9059D01*
X30937Y8909D01*
X30737Y8909D01*
X33300Y15610D02*
X33250Y15660D01*
X33250Y15760D01*
X33300Y15810D01*
X33500Y15810D01*
X33550Y15760D01*
X33550Y15660D01*
X33500Y15610D01*
X33550Y15310D02*
X33550Y15510D01*
X33350Y15310D01*
X33300Y15310D01*
X33250Y15360D01*
X33250Y15460D01*
X33300Y15510D01*
X33250Y15010D02*
X33250Y15210D01*
X33400Y15210D01*
X33350Y15110D01*
X33350Y15060D01*
X33400Y15010D01*
X33500Y15010D01*
X33550Y15060D01*
X33550Y15160D01*
X33500Y15210D01*
X39634Y13654D02*
X39584Y13704D01*
X39584Y13804D01*
X39634Y13854D01*
X39834Y13854D01*
X39884Y13804D01*
X39884Y13704D01*
X39834Y13654D01*
X39884Y13354D02*
X39884Y13554D01*
X39684Y13354D01*
X39634Y13354D01*
X39584Y13404D01*
X39584Y13504D01*
X39634Y13554D01*
X39584Y13054D02*
X39634Y13154D01*
X39734Y13254D01*
X39834Y13254D01*
X39884Y13204D01*
X39884Y13104D01*
X39834Y13054D01*
X39784Y13054D01*
X39734Y13104D01*
X39734Y13254D01*
X41423Y11050D02*
X41473Y11100D01*
X41573Y11100D01*
X41623Y11050D01*
X41623Y10850D01*
X41573Y10800D01*
X41473Y10800D01*
X41423Y10850D01*
X41123Y10800D02*
X41323Y10800D01*
X41123Y11000D01*
X41123Y11050D01*
X41173Y11100D01*
X41273Y11100D01*
X41323Y11050D01*
X41023Y11100D02*
X40823Y11100D01*
X40823Y11050D01*
X41023Y10850D01*
X41023Y10800D01*
X31893Y12153D02*
X31943Y12203D01*
X32043Y12203D01*
X32093Y12153D01*
X32093Y11954D01*
X32043Y11904D01*
X31943Y11904D01*
X31893Y11954D01*
X31593Y11904D02*
X31793Y11904D01*
X31593Y12103D01*
X31593Y12153D01*
X31643Y12203D01*
X31743Y12203D01*
X31793Y12153D01*
X31493Y12153D02*
X31443Y12203D01*
X31343Y12203D01*
X31293Y12153D01*
X31293Y12103D01*
X31343Y12054D01*
X31293Y12004D01*
X31293Y11954D01*
X31343Y11904D01*
X31443Y11904D01*
X31493Y11954D01*
X31493Y12004D01*
X31443Y12054D01*
X31493Y12103D01*
X31493Y12153D01*
X31443Y12054D02*
X31343Y12054D01*
X31388Y10780D02*
X31438Y10830D01*
X31538Y10830D01*
X31588Y10780D01*
X31588Y10580D01*
X31538Y10530D01*
X31438Y10530D01*
X31388Y10580D01*
X31088Y10530D02*
X31288Y10530D01*
X31088Y10730D01*
X31088Y10780D01*
X31138Y10830D01*
X31238Y10830D01*
X31288Y10780D01*
X30988Y10580D02*
X30938Y10530D01*
X30838Y10530D01*
X30788Y10580D01*
X30788Y10780D01*
X30838Y10830D01*
X30938Y10830D01*
X30988Y10780D01*
X30988Y10730D01*
X30938Y10680D01*
X30788Y10680D01*
X43250Y7580D02*
X43200Y7630D01*
X43200Y7730D01*
X43250Y7780D01*
X43450Y7780D01*
X43500Y7730D01*
X43500Y7630D01*
X43450Y7580D01*
X43250Y7480D02*
X43200Y7430D01*
X43200Y7330D01*
X43250Y7280D01*
X43300Y7280D01*
X43350Y7330D01*
X43350Y7380D01*
X43350Y7330D01*
X43400Y7280D01*
X43450Y7280D01*
X43500Y7330D01*
X43500Y7430D01*
X43450Y7480D01*
X43250Y7180D02*
X43200Y7130D01*
X43200Y7030D01*
X43250Y6980D01*
X43450Y6980D01*
X43500Y7030D01*
X43500Y7130D01*
X43450Y7180D01*
X43250Y7180D01*
X42720Y7320D02*
X42670Y7370D01*
X42670Y7470D01*
X42720Y7520D01*
X42920Y7520D01*
X42970Y7470D01*
X42970Y7370D01*
X42920Y7320D01*
X42720Y7220D02*
X42670Y7170D01*
X42670Y7070D01*
X42720Y7020D01*
X42770Y7020D01*
X42820Y7070D01*
X42820Y7120D01*
X42820Y7070D01*
X42870Y7020D01*
X42920Y7020D01*
X42970Y7070D01*
X42970Y7170D01*
X42920Y7220D01*
X42970Y6920D02*
X42970Y6820D01*
X42970Y6870D01*
X42670Y6870D01*
X42720Y6920D01*
X40670Y7260D02*
X40720Y7310D01*
X40820Y7310D01*
X40870Y7260D01*
X40870Y7060D01*
X40820Y7010D01*
X40720Y7010D01*
X40670Y7060D01*
X40570Y7260D02*
X40520Y7310D01*
X40420Y7310D01*
X40370Y7260D01*
X40370Y7210D01*
X40420Y7160D01*
X40470Y7160D01*
X40420Y7160D01*
X40370Y7110D01*
X40370Y7060D01*
X40420Y7010D01*
X40520Y7010D01*
X40570Y7060D01*
X40070Y7010D02*
X40270Y7010D01*
X40070Y7210D01*
X40070Y7260D01*
X40120Y7310D01*
X40220Y7310D01*
X40270Y7260D01*
X6170Y22320D02*
X6120Y22370D01*
X6120Y22470D01*
X6170Y22520D01*
X6370Y22520D01*
X6420Y22470D01*
X6420Y22370D01*
X6370Y22320D01*
X6170Y22220D02*
X6120Y22170D01*
X6120Y22070D01*
X6170Y22020D01*
X6220Y22020D01*
X6270Y22070D01*
X6270Y22120D01*
X6270Y22070D01*
X6320Y22020D01*
X6370Y22020D01*
X6420Y22070D01*
X6420Y22170D01*
X6370Y22220D01*
X6170Y21920D02*
X6120Y21870D01*
X6120Y21770D01*
X6170Y21720D01*
X6220Y21720D01*
X6270Y21770D01*
X6270Y21820D01*
X6270Y21770D01*
X6320Y21720D01*
X6370Y21720D01*
X6420Y21770D01*
X6420Y21870D01*
X6370Y21920D01*
X7001Y21990D02*
X6951Y22040D01*
X6951Y22140D01*
X7001Y22190D01*
X7201Y22190D01*
X7251Y22140D01*
X7251Y22040D01*
X7201Y21990D01*
X7001Y21890D02*
X6951Y21840D01*
X6951Y21740D01*
X7001Y21690D01*
X7051Y21690D01*
X7101Y21740D01*
X7101Y21790D01*
X7101Y21740D01*
X7151Y21690D01*
X7201Y21690D01*
X7251Y21740D01*
X7251Y21840D01*
X7201Y21890D01*
X7251Y21440D02*
X6951Y21440D01*
X7101Y21590D01*
X7101Y21390D01*
X9470Y18330D02*
X9420Y18380D01*
X9420Y18480D01*
X9470Y18530D01*
X9670Y18530D01*
X9720Y18480D01*
X9720Y18380D01*
X9670Y18330D01*
X9470Y18230D02*
X9420Y18180D01*
X9420Y18080D01*
X9470Y18030D01*
X9520Y18030D01*
X9570Y18080D01*
X9570Y18130D01*
X9570Y18080D01*
X9620Y18030D01*
X9670Y18030D01*
X9720Y18080D01*
X9720Y18180D01*
X9670Y18230D01*
X9420Y17730D02*
X9420Y17930D01*
X9570Y17930D01*
X9520Y17830D01*
X9520Y17780D01*
X9570Y17730D01*
X9670Y17730D01*
X9720Y17780D01*
X9720Y17880D01*
X9670Y17930D01*
X10480Y21606D02*
X10780Y21606D01*
X10780Y21456D01*
X10730Y21406D01*
X10530Y21406D01*
X10480Y21456D01*
X10480Y21606D01*
X10780Y21306D02*
X10780Y21206D01*
X10780Y21256D01*
X10480Y21256D01*
X10530Y21306D01*
X19830Y16977D02*
X19930Y16977D01*
X19880Y16977D01*
X19880Y16727D01*
X19930Y16677D01*
X19980Y16677D01*
X20030Y16727D01*
X19730Y16927D02*
X19680Y16977D01*
X19580Y16977D01*
X19530Y16927D01*
X19530Y16877D01*
X19580Y16827D01*
X19630Y16827D01*
X19580Y16827D01*
X19530Y16777D01*
X19530Y16727D01*
X19580Y16677D01*
X19680Y16677D01*
X19730Y16727D01*
X8680Y23010D02*
X8680Y22710D01*
X8480Y22710D01*
X8180Y22710D02*
X8380Y22710D01*
X8180Y22910D01*
X8180Y22960D01*
X8230Y23010D01*
X8330Y23010D01*
X8380Y22960D01*
X41300Y3870D02*
X41300Y4170D01*
X41150Y4170D01*
X41100Y4120D01*
X41100Y4020D01*
X41150Y3970D01*
X41300Y3970D01*
X41200Y3970D02*
X41100Y3870D01*
X41000Y4120D02*
X40950Y4170D01*
X40850Y4170D01*
X40800Y4120D01*
X40800Y4070D01*
X40850Y4020D01*
X40900Y4020D01*
X40850Y4020D01*
X40800Y3970D01*
X40800Y3920D01*
X40850Y3870D01*
X40950Y3870D01*
X41000Y3920D01*
X42090Y4080D02*
X41790Y4080D01*
X41790Y3930D01*
X41840Y3880D01*
X41940Y3880D01*
X41990Y3930D01*
X41990Y4080D01*
X41990Y3980D02*
X42090Y3880D01*
X42090Y3630D02*
X41790Y3630D01*
X41940Y3780D01*
X41940Y3580D01*
X8080Y19039D02*
X7780Y19039D01*
X7780Y18889D01*
X7830Y18839D01*
X7930Y18839D01*
X7980Y18889D01*
X7980Y19039D01*
X7980Y18939D02*
X8080Y18839D01*
X7780Y18539D02*
X7780Y18739D01*
X7930Y18739D01*
X7880Y18639D01*
X7880Y18589D01*
X7930Y18539D01*
X8030Y18539D01*
X8080Y18589D01*
X8080Y18689D01*
X8030Y18739D01*
X8980Y16148D02*
X8680Y16148D01*
X8680Y15998D01*
X8730Y15948D01*
X8830Y15948D01*
X8880Y15998D01*
X8880Y16148D01*
X8880Y16048D02*
X8980Y15948D01*
X8680Y15648D02*
X8730Y15748D01*
X8830Y15848D01*
X8930Y15848D01*
X8980Y15798D01*
X8980Y15698D01*
X8930Y15648D01*
X8880Y15648D01*
X8830Y15698D01*
X8830Y15848D01*
X32850Y6830D02*
X32850Y6580D01*
X32800Y6530D01*
X32700Y6530D01*
X32650Y6580D01*
X32650Y6830D01*
X32550Y6530D02*
X32450Y6530D01*
X32500Y6530D01*
X32500Y6830D01*
X32550Y6780D01*
X43180Y5060D02*
X43180Y4810D01*
X43130Y4760D01*
X43030Y4760D01*
X42980Y4810D01*
X42980Y5060D01*
X42680Y4760D02*
X42880Y4760D01*
X42680Y4960D01*
X42680Y5010D01*
X42730Y5060D01*
X42830Y5060D01*
X42880Y5010D01*
X9820Y21648D02*
X9820Y21398D01*
X9770Y21348D01*
X9670Y21348D01*
X9620Y21398D01*
X9620Y21648D01*
X9520Y21598D02*
X9470Y21648D01*
X9370Y21648D01*
X9320Y21598D01*
X9320Y21548D01*
X9370Y21498D01*
X9420Y21498D01*
X9370Y21498D01*
X9320Y21448D01*
X9320Y21398D01*
X9370Y21348D01*
X9470Y21348D01*
X9520Y21398D01*
X29892Y13130D02*
X29892Y13080D01*
X29792Y12980D01*
X29692Y13080D01*
X29692Y13130D01*
X29792Y12980D02*
X29792Y12830D01*
X29592Y12830D02*
X29492Y12830D01*
X29542Y12830D01*
X29542Y13130D01*
X29592Y13080D01*
X43120Y8350D02*
X43120Y8050D01*
X42920Y8050D01*
X42820Y8050D02*
X42720Y8050D01*
X42770Y8050D01*
X42770Y8350D01*
X42820Y8300D01*
X11855Y26255D02*
X11855Y26355D01*
X11855Y26305D01*
X12105Y26305D01*
X12155Y26355D01*
X12155Y26405D01*
X12105Y26455D01*
X12155Y26005D02*
X11855Y26005D01*
X12005Y26155D01*
X12005Y25955D01*
X21980Y26280D02*
X21980Y26380D01*
X21980Y26330D01*
X22230Y26330D01*
X22280Y26380D01*
X22280Y26430D01*
X22230Y26480D01*
X21980Y25980D02*
X21980Y26180D01*
X22130Y26180D01*
X22080Y26080D01*
X22080Y26030D01*
X22130Y25980D01*
X22230Y25980D01*
X22280Y26030D01*
X22280Y26130D01*
X22230Y26180D01*
X20815Y16161D02*
X20915Y16161D01*
X20865Y16161D01*
X20865Y15911D01*
X20915Y15861D01*
X20965Y15861D01*
X21015Y15911D01*
X20515Y16161D02*
X20615Y16111D01*
X20715Y16011D01*
X20715Y15911D01*
X20665Y15861D01*
X20565Y15861D01*
X20515Y15911D01*
X20515Y15961D01*
X20565Y16011D01*
X20715Y16011D01*
X27700Y23240D02*
X27400Y23240D01*
X27400Y23090D01*
X27450Y23040D01*
X27550Y23040D01*
X27600Y23090D01*
X27600Y23240D01*
X27600Y23140D02*
X27700Y23040D01*
X27400Y22940D02*
X27400Y22740D01*
X27450Y22740D01*
X27650Y22940D01*
X27700Y22940D01*
X26700Y23250D02*
X26400Y23250D01*
X26400Y23100D01*
X26450Y23050D01*
X26550Y23050D01*
X26600Y23100D01*
X26600Y23250D01*
X26600Y23150D02*
X26700Y23050D01*
X26450Y22950D02*
X26400Y22900D01*
X26400Y22800D01*
X26450Y22750D01*
X26500Y22750D01*
X26550Y22800D01*
X26600Y22750D01*
X26650Y22750D01*
X26700Y22800D01*
X26700Y22900D01*
X26650Y22950D01*
X26600Y22950D01*
X26550Y22900D01*
X26500Y22950D01*
X26450Y22950D01*
X26550Y22900D02*
X26550Y22800D01*
X25700Y23250D02*
X25400Y23250D01*
X25400Y23100D01*
X25450Y23050D01*
X25550Y23050D01*
X25600Y23100D01*
X25600Y23250D01*
X25600Y23150D02*
X25700Y23050D01*
X25650Y22950D02*
X25700Y22900D01*
X25700Y22800D01*
X25650Y22750D01*
X25450Y22750D01*
X25400Y22800D01*
X25400Y22900D01*
X25450Y22950D01*
X25500Y22950D01*
X25550Y22900D01*
X25550Y22750D01*
X24700Y23250D02*
X24400Y23250D01*
X24400Y23100D01*
X24450Y23050D01*
X24550Y23050D01*
X24600Y23100D01*
X24600Y23250D01*
X24600Y23150D02*
X24700Y23050D01*
X24700Y22950D02*
X24700Y22850D01*
X24700Y22900D01*
X24400Y22900D01*
X24450Y22950D01*
X24450Y22700D02*
X24400Y22650D01*
X24400Y22550D01*
X24450Y22500D01*
X24650Y22500D01*
X24700Y22550D01*
X24700Y22650D01*
X24650Y22700D01*
X24450Y22700D01*
X22850Y22910D02*
X22850Y22710D01*
X22850Y22810D01*
X23150Y22810D01*
X23150Y22610D02*
X23150Y22510D01*
X23150Y22560D01*
X22850Y22560D01*
X22900Y22610D01*
X20020Y24850D02*
X19970Y24900D01*
X19970Y25000D01*
X20020Y25050D01*
X20220Y25050D01*
X20270Y25000D01*
X20270Y24900D01*
X20220Y24850D01*
X20020Y24750D02*
X19970Y24700D01*
X19970Y24600D01*
X20020Y24550D01*
X20070Y24550D01*
X20120Y24600D01*
X20120Y24650D01*
X20120Y24600D01*
X20170Y24550D01*
X20220Y24550D01*
X20270Y24600D01*
X20270Y24700D01*
X20220Y24750D01*
X19970Y24250D02*
X20020Y24350D01*
X20120Y24450D01*
X20220Y24450D01*
X20270Y24400D01*
X20270Y24300D01*
X20220Y24250D01*
X20170Y24250D01*
X20120Y24300D01*
X20120Y24450D01*
X21900Y21020D02*
X21900Y21320D01*
X21750Y21320D01*
X21700Y21270D01*
X21700Y21170D01*
X21750Y21120D01*
X21900Y21120D01*
X21800Y21120D02*
X21700Y21020D01*
X21600Y21020D02*
X21500Y21020D01*
X21550Y21020D01*
X21550Y21320D01*
X21600Y21270D01*
X21350Y21020D02*
X21250Y21020D01*
X21300Y21020D01*
X21300Y21320D01*
X21350Y21270D01*
X21230Y24560D02*
X21230Y24310D01*
X21180Y24260D01*
X21080Y24260D01*
X21030Y24310D01*
X21030Y24560D01*
X20780Y24260D02*
X20780Y24560D01*
X20930Y24410D01*
X20730Y24410D01*
X14760Y22990D02*
X14460Y22990D01*
X14460Y22840D01*
X14510Y22790D01*
X14610Y22790D01*
X14660Y22840D01*
X14660Y22990D01*
X14660Y22890D02*
X14760Y22790D01*
X14760Y22690D02*
X14760Y22590D01*
X14760Y22640D01*
X14460Y22640D01*
X14510Y22690D01*
X14760Y22240D02*
X14760Y22440D01*
X14560Y22240D01*
X14510Y22240D01*
X14460Y22290D01*
X14460Y22390D01*
X14510Y22440D01*
X17850Y25011D02*
X17850Y24811D01*
X17850Y24911D01*
X18150Y24911D01*
X17850Y24712D02*
X18100Y24712D01*
X18150Y24662D01*
X18150Y24562D01*
X18100Y24512D01*
X17850Y24512D01*
X16850Y25011D02*
X16850Y24811D01*
X16850Y24911D01*
X17150Y24911D01*
X16850Y24712D02*
X17150Y24712D01*
X17150Y24512D01*
X15850Y25011D02*
X15850Y24811D01*
X15850Y24911D01*
X16150Y24911D01*
X15850Y24712D02*
X16150Y24712D01*
X16150Y24562D01*
X16100Y24512D01*
X15900Y24512D01*
X15850Y24562D01*
X15850Y24712D01*
X14850Y25011D02*
X14850Y24811D01*
X14850Y24911D01*
X15150Y24911D01*
X15150Y24712D02*
X14850Y24712D01*
X14850Y24562D01*
X14900Y24512D01*
X15000Y24512D01*
X15050Y24562D01*
X15050Y24712D01*
X15050Y24612D02*
X15150Y24512D01*
X11430Y25800D02*
X11430Y26200D01*
X11230Y26200D01*
X11163Y26133D01*
X11163Y26000D01*
X11230Y25933D01*
X11430Y25933D01*
X11297Y25933D02*
X11163Y25800D01*
X10830Y25800D02*
X10963Y25800D01*
X11030Y25867D01*
X11030Y26000D01*
X10963Y26067D01*
X10830Y26067D01*
X10764Y26000D01*
X10764Y25933D01*
X11030Y25933D01*
X10630Y25800D02*
X10430Y25800D01*
X10364Y25867D01*
X10430Y25933D01*
X10564Y25933D01*
X10630Y26000D01*
X10564Y26067D01*
X10364Y26067D01*
X10230Y25800D02*
X10097Y25800D01*
X10164Y25800D01*
X10164Y26067D01*
X10230Y26067D01*
X9897Y25800D02*
X9697Y25800D01*
X9631Y25867D01*
X9697Y25933D01*
X9831Y25933D01*
X9897Y26000D01*
X9831Y26067D01*
X9631Y26067D01*
X9431Y26133D02*
X9431Y26067D01*
X9497Y26067D01*
X9364Y26067D01*
X9431Y26067D01*
X9431Y25867D01*
X9364Y25800D01*
X9164Y25800D02*
X9031Y25800D01*
X9097Y25800D01*
X9097Y26067D01*
X9164Y26067D01*
X8831Y26067D02*
X8698Y25800D01*
X8564Y26067D01*
X8231Y25800D02*
X8364Y25800D01*
X8431Y25867D01*
X8431Y26000D01*
X8364Y26067D01*
X8231Y26067D01*
X8164Y26000D01*
X8164Y25933D01*
X8431Y25933D01*
X7631Y26200D02*
X7365Y26200D01*
X7498Y26200D01*
X7498Y25800D01*
X7165Y25800D02*
X7031Y25800D01*
X6965Y25867D01*
X6965Y26000D01*
X7031Y26067D01*
X7165Y26067D01*
X7231Y26000D01*
X7231Y25867D01*
X7165Y25800D01*
X6831Y26067D02*
X6831Y25867D01*
X6765Y25800D01*
X6565Y25800D01*
X6565Y26067D01*
X6165Y26067D02*
X6365Y26067D01*
X6432Y26000D01*
X6432Y25867D01*
X6365Y25800D01*
X6165Y25800D01*
X6032Y26200D02*
X6032Y25800D01*
X6032Y26000D01*
X5965Y26067D01*
X5832Y26067D01*
X5765Y26000D01*
X5765Y25800D01*
X34683Y26200D02*
X34750Y26267D01*
X34883Y26267D01*
X34950Y26200D01*
X34950Y25933D01*
X34883Y25867D01*
X34750Y25867D01*
X34683Y25933D01*
X34483Y26133D02*
X34350Y26133D01*
X34284Y26067D01*
X34284Y25867D01*
X34483Y25867D01*
X34550Y25933D01*
X34483Y26000D01*
X34284Y26000D01*
X34150Y25733D02*
X34150Y26133D01*
X33950Y26133D01*
X33884Y26067D01*
X33884Y25933D01*
X33950Y25867D01*
X34150Y25867D01*
X33684Y26133D02*
X33550Y26133D01*
X33484Y26067D01*
X33484Y25867D01*
X33684Y25867D01*
X33750Y25933D01*
X33684Y26000D01*
X33484Y26000D01*
X33084Y26133D02*
X33284Y26133D01*
X33351Y26067D01*
X33351Y25933D01*
X33284Y25867D01*
X33084Y25867D01*
X32951Y25867D02*
X32817Y25867D01*
X32884Y25867D01*
X32884Y26133D01*
X32951Y26133D01*
X32551Y26200D02*
X32551Y26133D01*
X32617Y26133D01*
X32484Y26133D01*
X32551Y26133D01*
X32551Y25933D01*
X32484Y25867D01*
X32284Y25867D02*
X32151Y25867D01*
X32218Y25867D01*
X32218Y26133D01*
X32284Y26133D01*
X31951Y26133D02*
X31818Y25867D01*
X31684Y26133D01*
X31351Y25867D02*
X31484Y25867D01*
X31551Y25933D01*
X31551Y26067D01*
X31484Y26133D01*
X31351Y26133D01*
X31285Y26067D01*
X31285Y26000D01*
X31551Y26000D01*
X30751Y26267D02*
X30485Y26267D01*
X30618Y26267D01*
X30618Y25867D01*
X30285Y25867D02*
X30152Y25867D01*
X30085Y25933D01*
X30085Y26067D01*
X30152Y26133D01*
X30285Y26133D01*
X30351Y26067D01*
X30351Y25933D01*
X30285Y25867D01*
X29952Y26133D02*
X29952Y25933D01*
X29885Y25867D01*
X29685Y25867D01*
X29685Y26133D01*
X29285Y26133D02*
X29485Y26133D01*
X29552Y26067D01*
X29552Y25933D01*
X29485Y25867D01*
X29285Y25867D01*
X29152Y26267D02*
X29152Y25867D01*
X29152Y26067D01*
X29085Y26133D01*
X28952Y26133D01*
X28885Y26067D01*
X28885Y25867D01*
X27900Y24900D02*
X27850Y24950D01*
X27850Y25050D01*
X27900Y25100D01*
X27950Y25100D01*
X28000Y25050D01*
X28000Y24950D01*
X28050Y24900D01*
X28100Y24900D01*
X28150Y24950D01*
X28150Y25050D01*
X28100Y25100D01*
X27900Y24600D02*
X27850Y24650D01*
X27850Y24750D01*
X27900Y24800D01*
X28100Y24800D01*
X28150Y24750D01*
X28150Y24650D01*
X28100Y24600D01*
X27850Y24500D02*
X28150Y24500D01*
X28150Y24300D01*
X26892Y24900D02*
X26842Y24950D01*
X26842Y25050D01*
X26892Y25100D01*
X26942Y25100D01*
X26992Y25050D01*
X26992Y24950D01*
X27042Y24900D01*
X27092Y24900D01*
X27142Y24950D01*
X27142Y25050D01*
X27092Y25100D01*
X26842Y24800D02*
X27142Y24800D01*
X27142Y24650D01*
X27092Y24600D01*
X26892Y24600D01*
X26842Y24650D01*
X26842Y24800D01*
X27142Y24500D02*
X26942Y24500D01*
X26842Y24400D01*
X26942Y24300D01*
X27142Y24300D01*
X26992Y24300D01*
X26992Y24500D01*
X25833Y25100D02*
X25833Y25000D01*
X25833Y25050D01*
X26133Y25050D01*
X26133Y25100D01*
X26133Y25000D01*
X26133Y24850D02*
X25833Y24850D01*
X26133Y24650D01*
X25833Y24650D01*
X25833Y24550D02*
X25833Y24350D01*
X25833Y24450D01*
X26133Y24450D01*
X26183Y24250D02*
X26183Y24050D01*
X26133Y23950D02*
X25833Y23950D01*
X26133Y23750D01*
X25833Y23750D01*
X24825Y25100D02*
X25125Y25100D01*
X25025Y25000D01*
X25125Y24900D01*
X24825Y24900D01*
X24825Y24800D02*
X25125Y24800D01*
X25025Y24800D01*
X24825Y24600D01*
X24975Y24750D01*
X25125Y24600D01*
X25175Y24500D02*
X25175Y24300D01*
X25125Y24200D02*
X24825Y24200D01*
X25125Y24000D01*
X24825Y24000D01*
X5300Y5740D02*
X5100Y5740D01*
X5200Y5740D01*
X5200Y5440D01*
X4800Y5740D02*
X5000Y5740D01*
X5000Y5440D01*
X4800Y5440D01*
X5000Y5590D02*
X4900Y5590D01*
X7060Y5765D02*
X7060Y5465D01*
X6960Y5565D01*
X6860Y5465D01*
X6860Y5765D01*
X6760Y5465D02*
X6760Y5765D01*
X6610Y5765D01*
X6560Y5715D01*
X6560Y5615D01*
X6610Y5565D01*
X6760Y5565D01*
X6660Y5565D02*
X6560Y5465D01*
X6460Y5415D02*
X6260Y5415D01*
X6160Y5465D02*
X6160Y5765D01*
X5960Y5465D01*
X5960Y5765D01*
X7060Y6473D02*
X7060Y6773D01*
X6910Y6773D01*
X6860Y6723D01*
X6860Y6623D01*
X6910Y6573D01*
X7060Y6573D01*
X6960Y6573D02*
X6860Y6473D01*
X6760Y6773D02*
X6760Y6473D01*
X6610Y6473D01*
X6560Y6523D01*
X6560Y6723D01*
X6610Y6773D01*
X6760Y6773D01*
X6460Y6423D02*
X6260Y6423D01*
X6160Y6473D02*
X6160Y6773D01*
X5960Y6473D01*
X5960Y6773D01*
X5300Y7707D02*
X5300Y7407D01*
X5150Y7407D01*
X5100Y7457D01*
X5100Y7657D01*
X5150Y7707D01*
X5300Y7707D01*
X4800Y7657D02*
X4850Y7707D01*
X4950Y7707D01*
X5000Y7657D01*
X5000Y7457D01*
X4950Y7407D01*
X4850Y7407D01*
X4800Y7457D01*
X5100Y8690D02*
X5150Y8740D01*
X5250Y8740D01*
X5300Y8690D01*
X5300Y8490D01*
X5250Y8440D01*
X5150Y8440D01*
X5100Y8490D01*
X4800Y8690D02*
X4850Y8740D01*
X4950Y8740D01*
X5000Y8690D01*
X5000Y8640D01*
X4950Y8590D01*
X4850Y8590D01*
X4800Y8540D01*
X4800Y8490D01*
X4850Y8440D01*
X4950Y8440D01*
X5000Y8490D01*
X4700Y8390D02*
X4500Y8390D01*
X4400Y8440D02*
X4400Y8740D01*
X4200Y8440D01*
X4200Y8740D01*
X5300Y6473D02*
X5300Y6773D01*
X5150Y6773D01*
X5100Y6723D01*
X5100Y6623D01*
X5150Y6573D01*
X5300Y6573D01*
X5200Y6573D02*
X5100Y6473D01*
X4800Y6723D02*
X4850Y6773D01*
X4950Y6773D01*
X5000Y6723D01*
X5000Y6673D01*
X4950Y6623D01*
X4850Y6623D01*
X4800Y6573D01*
X4800Y6523D01*
X4850Y6473D01*
X4950Y6473D01*
X5000Y6523D01*
X4700Y6773D02*
X4500Y6773D01*
X4600Y6773D01*
X4600Y6473D01*
X4400Y6423D02*
X4200Y6423D01*
X4100Y6473D02*
X4100Y6773D01*
X3900Y6473D01*
X3900Y6773D01*
X5300Y17750D02*
X5300Y17450D01*
X5150Y17450D01*
X5100Y17500D01*
X5100Y17700D01*
X5150Y17750D01*
X5300Y17750D01*
X4850Y17450D02*
X4850Y17750D01*
X5000Y17600D01*
X4800Y17600D01*
X7030Y14750D02*
X7030Y14450D01*
X6880Y14450D01*
X6830Y14500D01*
X6830Y14700D01*
X6880Y14750D01*
X7030Y14750D01*
X6730Y14700D02*
X6680Y14750D01*
X6580Y14750D01*
X6530Y14700D01*
X6530Y14650D01*
X6580Y14600D01*
X6630Y14600D01*
X6580Y14600D01*
X6530Y14550D01*
X6530Y14500D01*
X6580Y14450D01*
X6680Y14450D01*
X6730Y14500D01*
X7030Y15750D02*
X7030Y15450D01*
X6880Y15450D01*
X6830Y15500D01*
X6830Y15700D01*
X6880Y15750D01*
X7030Y15750D01*
X6530Y15450D02*
X6730Y15450D01*
X6530Y15650D01*
X6530Y15700D01*
X6580Y15750D01*
X6680Y15750D01*
X6730Y15700D01*
X7030Y16750D02*
X7030Y16450D01*
X6880Y16450D01*
X6830Y16500D01*
X6830Y16700D01*
X6880Y16750D01*
X7030Y16750D01*
X6730Y16450D02*
X6630Y16450D01*
X6680Y16450D01*
X6680Y16750D01*
X6730Y16700D01*
X5300Y15750D02*
X5300Y15450D01*
X5150Y15450D01*
X5100Y15500D01*
X5100Y15700D01*
X5150Y15750D01*
X5300Y15750D01*
X4800Y15750D02*
X4900Y15700D01*
X5000Y15600D01*
X5000Y15500D01*
X4950Y15450D01*
X4850Y15450D01*
X4800Y15500D01*
X4800Y15550D01*
X4850Y15600D01*
X5000Y15600D01*
X5300Y14750D02*
X5300Y14450D01*
X5150Y14450D01*
X5100Y14500D01*
X5100Y14700D01*
X5150Y14750D01*
X5300Y14750D01*
X5000Y14750D02*
X4800Y14750D01*
X4800Y14700D01*
X5000Y14500D01*
X5000Y14450D01*
X5300Y16750D02*
X5300Y16450D01*
X5150Y16450D01*
X5100Y16500D01*
X5100Y16700D01*
X5150Y16750D01*
X5300Y16750D01*
X4800Y16750D02*
X5000Y16750D01*
X5000Y16600D01*
X4900Y16650D01*
X4850Y16650D01*
X4800Y16600D01*
X4800Y16500D01*
X4850Y16450D01*
X4950Y16450D01*
X5000Y16500D01*
X7060Y17750D02*
X7060Y17450D01*
X6910Y17450D01*
X6860Y17500D01*
X6860Y17700D01*
X6910Y17750D01*
X7060Y17750D01*
X6760Y17700D02*
X6710Y17750D01*
X6610Y17750D01*
X6560Y17700D01*
X6560Y17500D01*
X6610Y17450D01*
X6710Y17450D01*
X6760Y17500D01*
X6760Y17700D01*
X7060Y12730D02*
X7060Y12530D01*
X6960Y12430D01*
X6860Y12530D01*
X6860Y12730D01*
X6760Y12680D02*
X6710Y12730D01*
X6610Y12730D01*
X6560Y12680D01*
X6560Y12630D01*
X6610Y12580D01*
X6660Y12580D01*
X6610Y12580D01*
X6560Y12530D01*
X6560Y12480D01*
X6610Y12430D01*
X6710Y12430D01*
X6760Y12480D01*
X6460Y12430D02*
X6460Y12730D01*
X6310Y12730D01*
X6260Y12680D01*
X6260Y12580D01*
X6310Y12530D01*
X6460Y12530D01*
X6160Y12680D02*
X6110Y12730D01*
X6010Y12730D01*
X5960Y12680D01*
X5960Y12630D01*
X6010Y12580D01*
X6060Y12580D01*
X6010Y12580D01*
X5960Y12530D01*
X5960Y12480D01*
X6010Y12430D01*
X6110Y12430D01*
X6160Y12480D01*
X12960Y25011D02*
X12960Y24911D01*
X12960Y24961D01*
X13260Y24961D01*
X13260Y25011D01*
X13260Y24911D01*
X13260Y24761D02*
X12960Y24761D01*
X13260Y24562D01*
X12960Y24562D01*
X12960Y24462D02*
X12960Y24262D01*
X12960Y24362D01*
X13260Y24362D01*
X13310Y24162D02*
X13310Y23962D01*
X13260Y23862D02*
X12960Y23862D01*
X13260Y23662D01*
X12960Y23662D01*
X22220Y25040D02*
X22420Y25040D01*
X22520Y24940D01*
X22420Y24840D01*
X22220Y24840D01*
X22270Y24740D02*
X22220Y24690D01*
X22220Y24590D01*
X22270Y24540D01*
X22320Y24540D01*
X22370Y24590D01*
X22370Y24640D01*
X22370Y24590D01*
X22420Y24540D01*
X22470Y24540D01*
X22520Y24590D01*
X22520Y24690D01*
X22470Y24740D01*
X22520Y24440D02*
X22220Y24440D01*
X22220Y24290D01*
X22270Y24240D01*
X22370Y24240D01*
X22420Y24290D01*
X22420Y24440D01*
X22270Y24140D02*
X22220Y24090D01*
X22220Y23990D01*
X22270Y23940D01*
X22320Y23940D01*
X22370Y23990D01*
X22370Y24040D01*
X22370Y23990D01*
X22420Y23940D01*
X22470Y23940D01*
X22520Y23990D01*
X22520Y24090D01*
X22470Y24140D01*
X21770Y26420D02*
X21470Y26420D01*
X21470Y26270D01*
X21520Y26220D01*
X21620Y26220D01*
X21670Y26270D01*
X21670Y26420D01*
X21670Y26320D02*
X21770Y26220D01*
X21770Y25970D02*
X21770Y26070D01*
X21720Y26120D01*
X21620Y26120D01*
X21570Y26070D01*
X21570Y25970D01*
X21620Y25920D01*
X21670Y25920D01*
X21670Y26120D01*
X21770Y25770D02*
X21520Y25770D01*
X21620Y25770D01*
X21620Y25820D01*
X21620Y25720D01*
X21620Y25770D01*
X21520Y25770D01*
X21470Y25720D01*
X21770Y25420D02*
X21770Y25520D01*
X21720Y25570D01*
X21620Y25570D01*
X21570Y25520D01*
X21570Y25420D01*
X21620Y25370D01*
X21670Y25370D01*
X21670Y25570D01*
X21570Y25270D02*
X21770Y25270D01*
X21670Y25270D01*
X21620Y25220D01*
X21570Y25170D01*
X21570Y25120D01*
X21770Y24821D02*
X21770Y24920D01*
X21720Y24970D01*
X21620Y24970D01*
X21570Y24920D01*
X21570Y24821D01*
X21620Y24771D01*
X21670Y24771D01*
X21670Y24970D01*
X21770Y24671D02*
X21570Y24671D01*
X21570Y24521D01*
X21620Y24471D01*
X21770Y24471D01*
X21570Y24171D02*
X21570Y24321D01*
X21620Y24371D01*
X21720Y24371D01*
X21770Y24321D01*
X21770Y24171D01*
X21770Y23921D02*
X21770Y24021D01*
X21720Y24071D01*
X21620Y24071D01*
X21570Y24021D01*
X21570Y23921D01*
X21620Y23871D01*
X21670Y23871D01*
X21670Y24071D01*
X21470Y23321D02*
X21470Y23421D01*
X21520Y23471D01*
X21720Y23471D01*
X21770Y23421D01*
X21770Y23321D01*
X21720Y23271D01*
X21520Y23271D01*
X21470Y23321D01*
X21770Y23171D02*
X21570Y23171D01*
X21570Y23021D01*
X21620Y22971D01*
X21770Y22971D01*
X21770Y22871D02*
X21770Y22771D01*
X21770Y22821D01*
X21470Y22821D01*
X21470Y22871D01*
X21570Y22621D02*
X21720Y22621D01*
X21770Y22571D01*
X21770Y22421D01*
X21820Y22421D01*
X21870Y22471D01*
X21870Y22521D01*
X21770Y22421D02*
X21570Y22421D01*
X7060Y3730D02*
X7060Y3530D01*
X6960Y3430D01*
X6860Y3530D01*
X6860Y3730D01*
X6760Y3680D02*
X6710Y3730D01*
X6610Y3730D01*
X6560Y3680D01*
X6560Y3630D01*
X6610Y3580D01*
X6660Y3580D01*
X6610Y3580D01*
X6560Y3530D01*
X6560Y3480D01*
X6610Y3430D01*
X6710Y3430D01*
X6760Y3480D01*
X6460Y3430D02*
X6460Y3730D01*
X6310Y3730D01*
X6260Y3680D01*
X6260Y3580D01*
X6310Y3530D01*
X6460Y3530D01*
X6160Y3680D02*
X6110Y3730D01*
X6010Y3730D01*
X5960Y3680D01*
X5960Y3630D01*
X6010Y3580D01*
X6060Y3580D01*
X6010Y3580D01*
X5960Y3530D01*
X5960Y3480D01*
X6010Y3430D01*
X6110Y3430D01*
X6160Y3480D01*
X6860Y7657D02*
X6910Y7707D01*
X7010Y7707D01*
X7060Y7657D01*
X7060Y7607D01*
X7010Y7557D01*
X6910Y7557D01*
X6860Y7507D01*
X6860Y7457D01*
X6910Y7407D01*
X7010Y7407D01*
X7060Y7457D01*
X6760Y7707D02*
X6760Y7407D01*
X6610Y7407D01*
X6560Y7457D01*
X6560Y7657D01*
X6610Y7707D01*
X6760Y7707D01*
X6460Y7407D02*
X6460Y7607D01*
X6360Y7707D01*
X6260Y7607D01*
X6260Y7407D01*
X6260Y7557D01*
X6460Y7557D01*
X6860Y8640D02*
X6910Y8690D01*
X7010Y8690D01*
X7060Y8640D01*
X7060Y8590D01*
X7010Y8540D01*
X6910Y8540D01*
X6860Y8490D01*
X6860Y8440D01*
X6910Y8390D01*
X7010Y8390D01*
X7060Y8440D01*
X6560Y8640D02*
X6610Y8690D01*
X6710Y8690D01*
X6760Y8640D01*
X6760Y8440D01*
X6710Y8390D01*
X6610Y8390D01*
X6560Y8440D01*
X6460Y8690D02*
X6460Y8390D01*
X6260Y8390D01*
D47*
X33810Y8022D02*
G03*
X33810Y8022I-123J0D01*
G01*
X28000Y26423D02*
X28000Y26500D01*
X28000Y25500D02*
X28000Y25587D01*
X22500Y25500D02*
X22500Y26500D01*
X22500Y25500D02*
X28500Y25500D01*
X28500Y26500D01*
X22500Y26500D02*
X28500Y26500D01*
X18000Y26423D02*
X18000Y26500D01*
X18000Y25500D02*
X18000Y25587D01*
X12500Y25500D02*
X12500Y26500D01*
X12500Y25500D02*
X18500Y25500D01*
X18500Y26500D01*
X12500Y26500D02*
X18500Y26500D01*
D77*
X11230Y18285D02*
G03*
X11230Y18285I-49J0D01*
G01*
X10749Y16753D02*
G03*
X10749Y16753I-49J0D01*
G01*
X8915Y21354D02*
G03*
X8915Y21354I-49J0D01*
G01*
X24735Y16418D02*
G03*
X24735Y16418I-49J0D01*
G01*
X42529Y5340D02*
G03*
X42529Y5340I-49J0D01*
G01*
X29727Y12474D02*
G03*
X29727Y12474I-49J0D01*
G01*
X21239Y22073D02*
G03*
X21239Y22073I-49J0D01*
G01*
D78*
X10316Y15592D02*
G03*
X10316Y15592I-118J0D01*
G01*
D79*
X25921Y23003D02*
X26079Y23003D01*
X26921Y23003D02*
X27079Y23003D01*
X27911Y23003D02*
X28069Y23003D01*
X7842Y18013D02*
X7999Y18013D01*
X24921Y23003D02*
X25079Y23003D01*
X21647Y21471D02*
X21647Y21629D01*
X14911Y22563D02*
X15069Y22563D01*
D80*
X39947Y10866D02*
X39947Y11024D01*
X39165Y13436D02*
X39322Y13436D01*
X33322Y14134D02*
X33480Y14134D01*
X31153Y9221D02*
X31153Y9379D01*
X36451Y5903D02*
X36609Y5903D01*
X38062Y5929D02*
X38220Y5929D01*
X35527Y14134D02*
X35684Y14134D01*
X31303Y7874D02*
X31303Y8031D01*
X11458Y17797D02*
X11458Y17954D01*
X31453Y11575D02*
X31453Y11732D01*
X20451Y24647D02*
X20609Y24647D01*
X42646Y6139D02*
X42804Y6139D01*
X7054Y20824D02*
X7212Y20824D01*
D81*
X11220Y18541D02*
X11220Y20746D01*
X10039Y18541D02*
X10039Y20746D01*
X11121Y18541D02*
X11220Y18541D01*
X11121Y20746D02*
X11220Y20746D01*
X10039Y18541D02*
X10137Y18541D01*
X10039Y20746D02*
X10137Y20746D01*
X9804Y16359D02*
X19843Y16359D01*
X9804Y14785D02*
X19843Y14785D01*
X9804Y14785D02*
X9804Y16359D01*
X19843Y14785D02*
X19843Y16359D01*
X41681Y8459D02*
X41799Y8459D01*
X41681Y7091D02*
X41799Y7091D01*
X33204Y8020D02*
X33720Y7504D01*
X38196Y7504D01*
X38196Y12496D01*
X33204Y12496D02*
X38196Y12496D01*
X33204Y8020D02*
X33204Y12496D01*
X8294Y20045D02*
X8294Y21226D01*
X8491Y20045D02*
X8491Y21226D01*
X8294Y20045D02*
X8491Y20045D01*
X8294Y21226D02*
X8491Y21226D01*
X25867Y13643D02*
X25867Y14194D01*
X25690Y13092D02*
X25690Y13643D01*
X25867Y13643D01*
X26261Y12693D02*
X26261Y13057D01*
X25690Y13092D02*
X26226Y13092D01*
X26226Y13092D02*
X26261Y13057D01*
X26226Y12659D02*
X26261Y12693D01*
X21177Y13092D02*
X21713Y13092D01*
X21177Y12659D02*
X26226Y12659D01*
X21143Y12693D02*
X21143Y13057D01*
X21536Y13643D02*
X21713Y13643D01*
X22048Y15296D02*
X25355Y15296D01*
X21536Y13643D02*
X21536Y14194D01*
X21713Y13092D02*
X21713Y13643D01*
X21143Y13057D02*
X21177Y13092D01*
X21143Y12693D02*
X21177Y12659D01*
X42350Y5492D02*
X42350Y5610D01*
X42350Y6201D02*
X42350Y6319D01*
X41361Y6201D02*
X41361Y6323D01*
X28044Y9600D02*
X28044Y12228D01*
X29914Y9600D02*
X29914Y12228D01*
X28044Y12228D02*
X29914Y12228D01*
X28044Y9600D02*
X29914Y9600D01*
X8341Y21839D02*
X8459Y21839D01*
X8341Y22469D02*
X8459Y22469D01*
X19920Y22516D02*
X19920Y23224D01*
X21140Y22516D02*
X21140Y23224D01*
X19920Y23224D02*
X21140Y23224D01*
X19920Y22516D02*
X21140Y22516D01*
X8550Y17501D02*
X8550Y17816D01*
X9180Y17501D02*
X9180Y17816D01*
M02*
