G04 Layer_Color=65535*
%FSLAX24Y24*%
%MOIN*%
G70*
G01*
G75*
%ADD10C,0.0060*%
%ADD47C,0.0100*%
G36*
X1303Y23096D02*
X1308Y23096D01*
X1322Y23094D01*
X1337Y23092D01*
X1354Y23089D01*
X1372Y23085D01*
X1389Y23079D01*
X1390Y23079D01*
X1391Y23078D01*
X1394Y23077D01*
X1397Y23076D01*
X1405Y23071D01*
X1416Y23066D01*
X1428Y23059D01*
X1441Y23050D01*
X1454Y23039D01*
X1468Y23027D01*
X1468Y23026D01*
X1469Y23025D01*
X1471Y23022D01*
X1474Y23019D01*
X1477Y23016D01*
X1481Y23011D01*
X1489Y22999D01*
X1499Y22985D01*
X1508Y22969D01*
X1516Y22950D01*
X1523Y22930D01*
X1523Y22929D01*
X1524Y22927D01*
X1525Y22924D01*
X1525Y22920D01*
X1527Y22914D01*
X1528Y22906D01*
X1530Y22897D01*
X1531Y22888D01*
X1532Y22877D01*
X1533Y22864D01*
X1535Y22850D01*
X1536Y22834D01*
X1537Y22818D01*
X1538Y22800D01*
X1539Y22781D01*
X1539Y22760D01*
X1539Y22625D01*
X1038Y22625D01*
X1038Y22760D01*
X1038Y22762D01*
X1038Y22766D01*
X1038Y22772D01*
X1038Y22779D01*
X1038Y22789D01*
X1038Y22800D01*
X1039Y22812D01*
X1040Y22825D01*
X1041Y22852D01*
X1044Y22880D01*
X1047Y22894D01*
X1049Y22907D01*
X1051Y22920D01*
X1054Y22931D01*
X1054Y22931D01*
X1055Y22933D01*
X1055Y22936D01*
X1057Y22940D01*
X1059Y22945D01*
X1061Y22951D01*
X1067Y22964D01*
X1075Y22979D01*
X1084Y22995D01*
X1096Y23011D01*
X1109Y23027D01*
X1109Y23028D01*
X1111Y23028D01*
X1115Y23033D01*
X1123Y23039D01*
X1132Y23046D01*
X1144Y23055D01*
X1157Y23063D01*
X1172Y23071D01*
X1188Y23079D01*
X1189Y23079D01*
X1190Y23079D01*
X1192Y23080D01*
X1196Y23082D01*
X1200Y23083D01*
X1205Y23085D01*
X1211Y23086D01*
X1217Y23088D01*
X1232Y23091D01*
X1249Y23093D01*
X1268Y23096D01*
X1288Y23096D01*
X1297Y23096D01*
X1303Y23096D01*
X1303Y23096D02*
G37*
G36*
X2879Y19544D02*
X2887Y19544D01*
X2894Y19542D01*
X2903Y19541D01*
X2913Y19539D01*
X2933Y19533D01*
X2943Y19529D01*
X2953Y19524D01*
X2963Y19519D01*
X2973Y19512D01*
X2982Y19504D01*
X2990Y19496D01*
X2990Y19495D01*
X2991Y19493D01*
X2993Y19490D01*
X2996Y19487D01*
X2999Y19482D01*
X3002Y19475D01*
X3006Y19467D01*
X3010Y19459D01*
X3013Y19448D01*
X3017Y19437D01*
X3020Y19425D01*
X3024Y19412D01*
X3026Y19397D01*
X3028Y19381D01*
X3029Y19364D01*
X3030Y19345D01*
X3030Y19345D01*
X3030Y19343D01*
X3030Y19341D01*
X3030Y19337D01*
X3030Y19333D01*
X3029Y19328D01*
X3028Y19316D01*
X3027Y19301D01*
X3026Y19285D01*
X3024Y19268D01*
X3021Y19250D01*
X3021Y19249D01*
X3020Y19248D01*
X3020Y19245D01*
X3019Y19242D01*
X3018Y19237D01*
X3017Y19232D01*
X3014Y19220D01*
X3010Y19205D01*
X3006Y19189D01*
X3000Y19172D01*
X2994Y19154D01*
X2885Y19154D01*
X2885Y19155D01*
X2887Y19157D01*
X2888Y19159D01*
X2890Y19163D01*
X2892Y19167D01*
X2894Y19171D01*
X2900Y19184D01*
X2906Y19197D01*
X2913Y19213D01*
X2919Y19229D01*
X2924Y19246D01*
X2924Y19247D01*
X2925Y19248D01*
X2925Y19251D01*
X2926Y19254D01*
X2927Y19258D01*
X2928Y19262D01*
X2930Y19274D01*
X2933Y19288D01*
X2934Y19302D01*
X2936Y19318D01*
X2936Y19334D01*
X2936Y19334D01*
X2936Y19336D01*
X2936Y19337D01*
X2936Y19340D01*
X2936Y19348D01*
X2935Y19357D01*
X2933Y19368D01*
X2930Y19379D01*
X2927Y19389D01*
X2922Y19398D01*
X2922Y19399D01*
X2919Y19402D01*
X2916Y19405D01*
X2912Y19410D01*
X2906Y19413D01*
X2899Y19417D01*
X2891Y19420D01*
X2882Y19421D01*
X2879Y19421D01*
X2874Y19420D01*
X2869Y19419D01*
X2863Y19417D01*
X2857Y19414D01*
X2851Y19410D01*
X2846Y19405D01*
X2845Y19405D01*
X2844Y19402D01*
X2842Y19398D01*
X2839Y19392D01*
X2835Y19384D01*
X2831Y19373D01*
X2827Y19359D01*
X2823Y19344D01*
X2812Y19294D01*
X2812Y19294D01*
X2811Y19291D01*
X2811Y19287D01*
X2809Y19282D01*
X2807Y19276D01*
X2805Y19268D01*
X2802Y19261D01*
X2799Y19252D01*
X2792Y19234D01*
X2784Y19216D01*
X2773Y19199D01*
X2767Y19191D01*
X2761Y19184D01*
X2760Y19184D01*
X2760Y19183D01*
X2757Y19181D01*
X2754Y19179D01*
X2751Y19176D01*
X2747Y19173D01*
X2736Y19167D01*
X2722Y19161D01*
X2706Y19155D01*
X2687Y19151D01*
X2677Y19151D01*
X2666Y19150D01*
X2658Y19150D01*
X2653Y19151D01*
X2647Y19151D01*
X2640Y19152D01*
X2632Y19154D01*
X2623Y19156D01*
X2605Y19162D01*
X2595Y19166D01*
X2586Y19170D01*
X2576Y19176D01*
X2567Y19183D01*
X2559Y19190D01*
X2551Y19198D01*
X2550Y19199D01*
X2549Y19200D01*
X2547Y19203D01*
X2544Y19207D01*
X2541Y19212D01*
X2538Y19218D01*
X2535Y19225D01*
X2530Y19234D01*
X2526Y19243D01*
X2523Y19253D01*
X2520Y19265D01*
X2517Y19277D01*
X2514Y19291D01*
X2512Y19305D01*
X2511Y19321D01*
X2510Y19337D01*
X2510Y19338D01*
X2510Y19339D01*
X2510Y19341D01*
X2510Y19345D01*
X2510Y19353D01*
X2511Y19363D01*
X2512Y19376D01*
X2513Y19390D01*
X2515Y19405D01*
X2517Y19422D01*
X2517Y19422D01*
X2517Y19424D01*
X2518Y19426D01*
X2518Y19429D01*
X2518Y19433D01*
X2519Y19438D01*
X2521Y19450D01*
X2524Y19463D01*
X2527Y19479D01*
X2531Y19495D01*
X2535Y19513D01*
X2640Y19513D01*
X2640Y19512D01*
X2640Y19511D01*
X2639Y19509D01*
X2637Y19505D01*
X2634Y19497D01*
X2630Y19487D01*
X2626Y19475D01*
X2621Y19461D01*
X2617Y19446D01*
X2613Y19431D01*
X2613Y19430D01*
X2612Y19430D01*
X2612Y19427D01*
X2612Y19425D01*
X2610Y19417D01*
X2608Y19408D01*
X2606Y19396D01*
X2605Y19383D01*
X2604Y19371D01*
X2603Y19357D01*
X2603Y19356D01*
X2603Y19355D01*
X2603Y19353D01*
X2603Y19350D01*
X2604Y19342D01*
X2605Y19331D01*
X2606Y19320D01*
X2609Y19308D01*
X2612Y19298D01*
X2617Y19288D01*
X2617Y19288D01*
X2619Y19285D01*
X2622Y19282D01*
X2626Y19278D01*
X2632Y19274D01*
X2638Y19271D01*
X2646Y19268D01*
X2656Y19267D01*
X2659Y19267D01*
X2663Y19268D01*
X2667Y19269D01*
X2672Y19271D01*
X2677Y19273D01*
X2683Y19277D01*
X2688Y19282D01*
X2688Y19282D01*
X2689Y19285D01*
X2691Y19288D01*
X2694Y19294D01*
X2697Y19302D01*
X2700Y19311D01*
X2704Y19322D01*
X2707Y19336D01*
X2718Y19391D01*
X2718Y19392D01*
X2719Y19395D01*
X2720Y19399D01*
X2721Y19405D01*
X2723Y19411D01*
X2725Y19419D01*
X2728Y19428D01*
X2731Y19437D01*
X2737Y19456D01*
X2746Y19476D01*
X2757Y19494D01*
X2762Y19502D01*
X2769Y19510D01*
X2770Y19510D01*
X2771Y19511D01*
X2773Y19513D01*
X2775Y19516D01*
X2779Y19518D01*
X2783Y19521D01*
X2788Y19524D01*
X2794Y19527D01*
X2808Y19534D01*
X2825Y19540D01*
X2844Y19544D01*
X2854Y19544D01*
X2866Y19545D01*
X2874Y19545D01*
X2879Y19544D01*
X2879Y19544D02*
G37*
G36*
X1301Y22527D02*
X1309Y22527D01*
X1320Y22525D01*
X1331Y22524D01*
X1344Y22521D01*
X1359Y22518D01*
X1374Y22515D01*
X1389Y22510D01*
X1405Y22505D01*
X1421Y22499D01*
X1437Y22490D01*
X1451Y22481D01*
X1466Y22470D01*
X1479Y22459D01*
X1480Y22458D01*
X1482Y22456D01*
X1486Y22451D01*
X1490Y22446D01*
X1496Y22439D01*
X1501Y22430D01*
X1508Y22421D01*
X1514Y22410D01*
X1520Y22396D01*
X1527Y22382D01*
X1532Y22367D01*
X1537Y22350D01*
X1542Y22332D01*
X1545Y22313D01*
X1548Y22292D01*
X1548Y22270D01*
X1548Y22268D01*
X1548Y22265D01*
X1548Y22258D01*
X1548Y22250D01*
X1546Y22239D01*
X1545Y22228D01*
X1542Y22215D01*
X1539Y22201D01*
X1536Y22186D01*
X1531Y22171D01*
X1526Y22155D01*
X1519Y22139D01*
X1511Y22123D01*
X1502Y22109D01*
X1491Y22094D01*
X1479Y22080D01*
X1479Y22080D01*
X1477Y22077D01*
X1472Y22074D01*
X1467Y22070D01*
X1459Y22065D01*
X1451Y22059D01*
X1441Y22053D01*
X1430Y22046D01*
X1417Y22040D01*
X1403Y22034D01*
X1387Y22028D01*
X1370Y22023D01*
X1352Y22019D01*
X1332Y22015D01*
X1311Y22013D01*
X1289Y22012D01*
X1284Y22012D01*
X1277Y22013D01*
X1269Y22013D01*
X1259Y22015D01*
X1247Y22016D01*
X1234Y22018D01*
X1220Y22021D01*
X1205Y22024D01*
X1189Y22029D01*
X1173Y22035D01*
X1158Y22041D01*
X1141Y22049D01*
X1126Y22058D01*
X1112Y22069D01*
X1098Y22080D01*
X1098Y22081D01*
X1095Y22083D01*
X1092Y22088D01*
X1087Y22093D01*
X1082Y22100D01*
X1076Y22109D01*
X1070Y22119D01*
X1064Y22130D01*
X1057Y22143D01*
X1051Y22157D01*
X1045Y22172D01*
X1040Y22189D01*
X1035Y22208D01*
X1032Y22227D01*
X1030Y22248D01*
X1029Y22270D01*
X1029Y22271D01*
X1029Y22275D01*
X1030Y22282D01*
X1030Y22290D01*
X1031Y22300D01*
X1033Y22311D01*
X1035Y22325D01*
X1038Y22339D01*
X1041Y22353D01*
X1046Y22369D01*
X1052Y22385D01*
X1058Y22400D01*
X1066Y22416D01*
X1075Y22431D01*
X1086Y22445D01*
X1098Y22459D01*
X1099Y22459D01*
X1101Y22462D01*
X1106Y22465D01*
X1111Y22470D01*
X1118Y22475D01*
X1126Y22480D01*
X1137Y22487D01*
X1148Y22493D01*
X1161Y22499D01*
X1175Y22506D01*
X1191Y22511D01*
X1208Y22517D01*
X1226Y22521D01*
X1246Y22524D01*
X1267Y22527D01*
X1289Y22527D01*
X1294Y22527D01*
X1301Y22527D01*
X1301Y22527D02*
G37*
G36*
X1215Y21266D02*
X1221Y21266D01*
X1229Y21264D01*
X1237Y21263D01*
X1246Y21260D01*
X1256Y21258D01*
X1266Y21255D01*
X1276Y21250D01*
X1286Y21246D01*
X1296Y21239D01*
X1306Y21232D01*
X1314Y21224D01*
X1323Y21215D01*
X1323Y21215D01*
X1324Y21213D01*
X1326Y21210D01*
X1329Y21206D01*
X1332Y21201D01*
X1336Y21194D01*
X1340Y21186D01*
X1343Y21178D01*
X1348Y21168D01*
X1351Y21157D01*
X1355Y21145D01*
X1358Y21132D01*
X1361Y21118D01*
X1363Y21103D01*
X1364Y21087D01*
X1365Y21069D01*
X1365Y20984D01*
X1539Y20984D01*
X1539Y20855D01*
X1038Y20855D01*
X1038Y21069D01*
X1038Y21070D01*
X1038Y21073D01*
X1038Y21078D01*
X1038Y21084D01*
X1039Y21093D01*
X1040Y21101D01*
X1041Y21112D01*
X1043Y21123D01*
X1048Y21147D01*
X1052Y21159D01*
X1055Y21171D01*
X1061Y21183D01*
X1067Y21195D01*
X1073Y21205D01*
X1081Y21215D01*
X1081Y21216D01*
X1083Y21218D01*
X1085Y21220D01*
X1089Y21223D01*
X1092Y21227D01*
X1098Y21232D01*
X1104Y21237D01*
X1112Y21241D01*
X1120Y21246D01*
X1129Y21251D01*
X1138Y21255D01*
X1149Y21259D01*
X1161Y21263D01*
X1174Y21265D01*
X1187Y21266D01*
X1201Y21267D01*
X1209Y21267D01*
X1215Y21266D01*
X1215Y21266D02*
G37*
G36*
X1539Y21793D02*
X1172Y21793D01*
X1442Y21677D01*
X1442Y21596D01*
X1172Y21480D01*
X1539Y21480D01*
X1539Y21358D01*
X1038Y21358D01*
X1038Y21522D01*
X1306Y21636D01*
X1038Y21751D01*
X1038Y21915D01*
X1539Y21915D01*
X1539Y21793D01*
X1539Y21793D02*
G37*
G36*
X3182Y23878D02*
X3182Y23535D01*
X3182Y23191D01*
X3182Y22848D01*
X3182Y22504D01*
X3182Y22161D01*
X3182Y21818D01*
X3182Y21474D01*
X3182Y21131D01*
X3182Y20788D01*
X3182Y20444D01*
X3118Y20444D01*
X3118Y20788D01*
X3118Y21131D01*
X3118Y21474D01*
X3118Y21818D01*
X3118Y22161D01*
X3118Y22504D01*
X3118Y22848D01*
X3118Y23191D01*
X3118Y23535D01*
X3118Y23878D01*
X3118Y24221D01*
X3182Y24221D01*
X3182Y23878D01*
X3182Y23878D02*
G37*
G36*
X783Y19575D02*
X783Y19574D01*
X786Y19570D01*
X789Y19562D01*
X793Y19553D01*
X797Y19541D01*
X802Y19529D01*
X806Y19516D01*
X810Y19501D01*
X810Y19500D01*
X811Y19499D01*
X811Y19497D01*
X811Y19494D01*
X813Y19487D01*
X814Y19476D01*
X817Y19464D01*
X818Y19451D01*
X819Y19436D01*
X820Y19421D01*
X820Y19419D01*
X820Y19416D01*
X819Y19409D01*
X818Y19400D01*
X817Y19390D01*
X816Y19377D01*
X814Y19364D01*
X811Y19349D01*
X807Y19334D01*
X803Y19317D01*
X797Y19301D01*
X790Y19285D01*
X783Y19268D01*
X773Y19252D01*
X763Y19237D01*
X750Y19223D01*
X749Y19222D01*
X747Y19220D01*
X743Y19216D01*
X737Y19211D01*
X730Y19205D01*
X722Y19200D01*
X712Y19193D01*
X700Y19186D01*
X687Y19180D01*
X673Y19173D01*
X658Y19167D01*
X641Y19161D01*
X623Y19157D01*
X603Y19153D01*
X583Y19151D01*
X561Y19150D01*
X555Y19150D01*
X549Y19151D01*
X541Y19151D01*
X530Y19152D01*
X518Y19154D01*
X506Y19156D01*
X492Y19159D01*
X477Y19163D01*
X461Y19168D01*
X445Y19174D01*
X430Y19180D01*
X414Y19189D01*
X399Y19199D01*
X384Y19210D01*
X370Y19223D01*
X370Y19223D01*
X367Y19226D01*
X364Y19230D01*
X359Y19236D01*
X354Y19243D01*
X348Y19252D01*
X342Y19262D01*
X335Y19275D01*
X329Y19288D01*
X322Y19303D01*
X316Y19319D01*
X311Y19337D01*
X307Y19356D01*
X303Y19376D01*
X301Y19398D01*
X300Y19421D01*
X300Y19422D01*
X300Y19423D01*
X300Y19425D01*
X300Y19428D01*
X301Y19436D01*
X302Y19447D01*
X302Y19459D01*
X304Y19472D01*
X307Y19486D01*
X310Y19501D01*
X310Y19502D01*
X311Y19502D01*
X311Y19504D01*
X311Y19507D01*
X313Y19515D01*
X317Y19525D01*
X321Y19536D01*
X325Y19549D01*
X331Y19562D01*
X338Y19576D01*
X441Y19576D01*
X441Y19575D01*
X440Y19574D01*
X437Y19570D01*
X433Y19562D01*
X427Y19553D01*
X421Y19542D01*
X416Y19530D01*
X410Y19518D01*
X405Y19504D01*
X405Y19504D01*
X404Y19503D01*
X403Y19499D01*
X402Y19491D01*
X399Y19482D01*
X397Y19471D01*
X395Y19459D01*
X394Y19445D01*
X393Y19431D01*
X393Y19430D01*
X393Y19428D01*
X393Y19425D01*
X394Y19420D01*
X395Y19414D01*
X396Y19407D01*
X397Y19399D01*
X399Y19391D01*
X404Y19374D01*
X407Y19365D01*
X412Y19356D01*
X417Y19347D01*
X423Y19339D01*
X430Y19330D01*
X438Y19322D01*
X439Y19322D01*
X440Y19321D01*
X442Y19319D01*
X446Y19317D01*
X450Y19314D01*
X456Y19310D01*
X462Y19306D01*
X470Y19303D01*
X478Y19299D01*
X487Y19296D01*
X497Y19292D01*
X508Y19289D01*
X520Y19287D01*
X532Y19285D01*
X547Y19284D01*
X561Y19283D01*
X568Y19283D01*
X573Y19284D01*
X580Y19285D01*
X587Y19285D01*
X596Y19286D01*
X605Y19288D01*
X624Y19293D01*
X645Y19299D01*
X655Y19304D01*
X665Y19310D01*
X674Y19316D01*
X683Y19322D01*
X683Y19323D01*
X685Y19324D01*
X686Y19327D01*
X689Y19330D01*
X693Y19334D01*
X697Y19339D01*
X700Y19344D01*
X704Y19351D01*
X709Y19358D01*
X712Y19366D01*
X716Y19375D01*
X720Y19385D01*
X723Y19396D01*
X724Y19407D01*
X726Y19419D01*
X726Y19431D01*
X726Y19432D01*
X726Y19433D01*
X726Y19435D01*
X726Y19438D01*
X726Y19445D01*
X725Y19455D01*
X723Y19466D01*
X722Y19479D01*
X719Y19491D01*
X715Y19504D01*
X715Y19505D01*
X715Y19506D01*
X713Y19510D01*
X710Y19517D01*
X706Y19527D01*
X701Y19537D01*
X695Y19549D01*
X688Y19562D01*
X679Y19576D01*
X783Y19576D01*
X783Y19575D01*
X783Y19575D02*
G37*
G36*
X3020Y20247D02*
X2891Y20247D01*
X2891Y20368D01*
X3020Y20368D01*
X3020Y20247D01*
X3020Y20247D02*
G37*
G36*
X3020Y19962D02*
X2677Y19780D01*
X3020Y19780D01*
X3020Y19658D01*
X2519Y19658D01*
X2519Y19801D01*
X2863Y19984D01*
X2519Y19984D01*
X2519Y20106D01*
X3020Y20106D01*
X3020Y19962D01*
X3020Y19962D02*
G37*
G36*
X2774Y20247D02*
X2644Y20247D01*
X2644Y20368D01*
X2774Y20368D01*
X2774Y20247D01*
X2774Y20247D02*
G37*
G36*
X2116Y19768D02*
X2118Y19768D01*
X2120Y19769D01*
X2123Y19769D01*
X2131Y19770D01*
X2140Y19773D01*
X2150Y19777D01*
X2160Y19782D01*
X2171Y19789D01*
X2180Y19798D01*
X2180Y19799D01*
X2183Y19803D01*
X2186Y19809D01*
X2190Y19817D01*
X2194Y19827D01*
X2197Y19840D01*
X2200Y19854D01*
X2200Y19871D01*
X2200Y19872D01*
X2200Y19873D01*
X2200Y19875D01*
X2200Y19878D01*
X2200Y19886D01*
X2199Y19895D01*
X2197Y19907D01*
X2196Y19920D01*
X2193Y19934D01*
X2189Y19949D01*
X2189Y19950D01*
X2189Y19951D01*
X2188Y19953D01*
X2187Y19956D01*
X2185Y19964D01*
X2181Y19974D01*
X2176Y19987D01*
X2170Y20001D01*
X2163Y20016D01*
X2155Y20031D01*
X2248Y20031D01*
X2248Y20031D01*
X2248Y20029D01*
X2249Y20027D01*
X2251Y20024D01*
X2251Y20020D01*
X2254Y20016D01*
X2257Y20005D01*
X2261Y19991D01*
X2265Y19977D01*
X2268Y19962D01*
X2272Y19945D01*
X2272Y19945D01*
X2272Y19943D01*
X2273Y19941D01*
X2274Y19938D01*
X2274Y19934D01*
X2274Y19930D01*
X2276Y19919D01*
X2277Y19906D01*
X2279Y19891D01*
X2280Y19877D01*
X2280Y19860D01*
X2280Y19859D01*
X2280Y19856D01*
X2280Y19851D01*
X2280Y19843D01*
X2279Y19835D01*
X2277Y19825D01*
X2276Y19815D01*
X2274Y19803D01*
X2271Y19790D01*
X2268Y19777D01*
X2263Y19763D01*
X2258Y19751D01*
X2252Y19738D01*
X2246Y19725D01*
X2237Y19713D01*
X2228Y19702D01*
X2228Y19701D01*
X2226Y19700D01*
X2223Y19697D01*
X2219Y19693D01*
X2214Y19689D01*
X2207Y19684D01*
X2200Y19679D01*
X2191Y19674D01*
X2181Y19669D01*
X2170Y19664D01*
X2158Y19659D01*
X2146Y19655D01*
X2132Y19651D01*
X2117Y19648D01*
X2100Y19647D01*
X2083Y19646D01*
X2080Y19646D01*
X2075Y19647D01*
X2068Y19647D01*
X2061Y19647D01*
X2052Y19649D01*
X2042Y19650D01*
X2031Y19652D01*
X2020Y19655D01*
X2008Y19659D01*
X1996Y19664D01*
X1984Y19669D01*
X1972Y19675D01*
X1961Y19683D01*
X1950Y19692D01*
X1939Y19701D01*
X1938Y19702D01*
X1937Y19704D01*
X1934Y19707D01*
X1931Y19712D01*
X1927Y19717D01*
X1922Y19724D01*
X1918Y19732D01*
X1913Y19741D01*
X1907Y19752D01*
X1903Y19763D01*
X1898Y19775D01*
X1894Y19789D01*
X1891Y19803D01*
X1888Y19820D01*
X1887Y19836D01*
X1886Y19854D01*
X1886Y19854D01*
X1886Y19857D01*
X1886Y19863D01*
X1887Y19869D01*
X1887Y19876D01*
X1889Y19885D01*
X1890Y19894D01*
X1893Y19905D01*
X1895Y19916D01*
X1899Y19928D01*
X1904Y19940D01*
X1909Y19951D01*
X1915Y19963D01*
X1922Y19974D01*
X1930Y19985D01*
X1940Y19996D01*
X1941Y19997D01*
X1942Y19998D01*
X1945Y20001D01*
X1950Y20004D01*
X1955Y20008D01*
X1961Y20013D01*
X1969Y20017D01*
X1978Y20022D01*
X1987Y20028D01*
X1998Y20032D01*
X2009Y20037D01*
X2022Y20041D01*
X2036Y20044D01*
X2050Y20047D01*
X2066Y20048D01*
X2082Y20049D01*
X2116Y20049D01*
X2116Y19768D01*
X2116Y19768D02*
G37*
G36*
X2271Y20371D02*
X2271Y20239D01*
X1895Y20092D01*
X1895Y20212D01*
X2155Y20305D01*
X1895Y20398D01*
X1895Y20519D01*
X2271Y20371D01*
X2271Y20371D02*
G37*
G36*
X2271Y19464D02*
X2146Y19404D01*
X2146Y19404D01*
X2145Y19403D01*
X2140Y19401D01*
X2134Y19397D01*
X2126Y19392D01*
X2118Y19387D01*
X2109Y19380D01*
X2101Y19373D01*
X2095Y19366D01*
X2095Y19365D01*
X2093Y19362D01*
X2091Y19359D01*
X2088Y19353D01*
X2086Y19345D01*
X2083Y19336D01*
X2082Y19326D01*
X2081Y19315D01*
X2081Y19279D01*
X2271Y19279D01*
X2271Y19150D01*
X1770Y19150D01*
X1770Y19347D01*
X1770Y19348D01*
X1770Y19351D01*
X1770Y19356D01*
X1770Y19363D01*
X1770Y19371D01*
X1771Y19381D01*
X1773Y19391D01*
X1774Y19402D01*
X1778Y19426D01*
X1784Y19450D01*
X1787Y19462D01*
X1792Y19473D01*
X1797Y19483D01*
X1803Y19492D01*
X1803Y19493D01*
X1804Y19494D01*
X1807Y19496D01*
X1810Y19499D01*
X1813Y19503D01*
X1817Y19507D01*
X1822Y19511D01*
X1829Y19516D01*
X1836Y19519D01*
X1843Y19524D01*
X1852Y19527D01*
X1861Y19531D01*
X1872Y19534D01*
X1883Y19536D01*
X1895Y19538D01*
X1908Y19539D01*
X1916Y19539D01*
X1921Y19538D01*
X1925Y19537D01*
X1937Y19536D01*
X1950Y19533D01*
X1964Y19528D01*
X1978Y19522D01*
X1990Y19514D01*
X1992Y19513D01*
X1995Y19510D01*
X2001Y19504D01*
X2008Y19496D01*
X2015Y19486D01*
X2024Y19474D01*
X2031Y19459D01*
X2037Y19442D01*
X2037Y19444D01*
X2038Y19447D01*
X2040Y19452D01*
X2043Y19459D01*
X2046Y19465D01*
X2051Y19473D01*
X2057Y19482D01*
X2064Y19490D01*
X2065Y19490D01*
X2068Y19493D01*
X2073Y19497D01*
X2080Y19503D01*
X2089Y19509D01*
X2100Y19516D01*
X2114Y19524D01*
X2129Y19532D01*
X2271Y19602D01*
X2271Y19464D01*
X2271Y19464D02*
G37*
G36*
X28505Y20148D02*
X28533Y20120D01*
X28575Y20065D01*
X28602Y19995D01*
X28644Y19884D01*
X28658Y19731D01*
X28658Y19676D01*
X28658Y19662D01*
X28658Y19593D01*
X28644Y19481D01*
X28630Y19412D01*
X28616Y19329D01*
X28602Y19218D01*
X28575Y19093D01*
X28547Y18968D01*
X28505Y18815D01*
X28477Y18634D01*
X28422Y18454D01*
X28366Y18245D01*
X28311Y18009D01*
X28297Y17982D01*
X28269Y17926D01*
X28227Y17829D01*
X28214Y17759D01*
X28186Y17676D01*
X28144Y17565D01*
X28116Y17454D01*
X28075Y17315D01*
X28033Y17162D01*
X27977Y16982D01*
X27922Y16773D01*
X27922Y16759D01*
X27908Y16732D01*
X27908Y16676D01*
X27894Y16621D01*
X27866Y16537D01*
X27852Y16440D01*
X27811Y16232D01*
X27755Y16009D01*
X27686Y15759D01*
X27630Y15537D01*
X27561Y15343D01*
X27561Y15121D01*
X27561Y15107D01*
X27561Y15051D01*
X27561Y14954D01*
X27561Y14843D01*
X27575Y14704D01*
X27575Y14523D01*
X27575Y14343D01*
X27589Y14135D01*
X27589Y14107D01*
X27575Y14065D01*
X27575Y14023D01*
X27547Y13954D01*
X27533Y13871D01*
X27491Y13773D01*
X27436Y13662D01*
X27380Y13523D01*
X27297Y13385D01*
X27200Y13218D01*
X27089Y13051D01*
X26950Y12857D01*
X26797Y12649D01*
X26616Y12412D01*
X26408Y12176D01*
X26408Y12162D01*
X26394Y12149D01*
X26339Y12065D01*
X26269Y11940D01*
X26186Y11787D01*
X26089Y11635D01*
X25991Y11468D01*
X25894Y11329D01*
X25811Y11218D01*
X25839Y11163D01*
X25839Y9413D01*
X25839Y9399D01*
X25839Y9385D01*
X25839Y9302D01*
X25853Y9190D01*
X25880Y9052D01*
X25922Y8913D01*
X25991Y8788D01*
X26075Y8690D01*
X26130Y8649D01*
X26200Y8635D01*
X26228Y8621D01*
X26283Y8593D01*
X26353Y8538D01*
X26450Y8482D01*
X26533Y8413D01*
X26616Y8329D01*
X26672Y8246D01*
X26686Y8177D01*
X26686Y8121D01*
X26686Y8107D01*
X26672Y8066D01*
X26658Y8010D01*
X26616Y7954D01*
X26561Y7899D01*
X26464Y7843D01*
X26325Y7802D01*
X26144Y7788D01*
X26019Y7788D01*
X25894Y7802D01*
X25741Y7829D01*
X25561Y7871D01*
X25394Y7941D01*
X25228Y8024D01*
X25089Y8149D01*
X25089Y8163D01*
X25075Y8191D01*
X25047Y8232D01*
X25019Y8288D01*
X24992Y8371D01*
X24950Y8482D01*
X24908Y8593D01*
X24853Y8732D01*
X24811Y8885D01*
X24755Y9065D01*
X24700Y9260D01*
X24644Y9482D01*
X24589Y9718D01*
X24533Y9968D01*
X24492Y10246D01*
X24436Y10538D01*
X24422Y10551D01*
X24408Y10607D01*
X24394Y10663D01*
X24380Y10732D01*
X24353Y10732D01*
X24353Y10718D01*
X24353Y10663D01*
X24353Y10579D01*
X24339Y10468D01*
X24325Y10329D01*
X24311Y10176D01*
X24297Y10010D01*
X24255Y9829D01*
X24172Y9454D01*
X24047Y9052D01*
X23964Y8871D01*
X23867Y8690D01*
X23742Y8524D01*
X23617Y8371D01*
X23631Y8371D01*
X23658Y8343D01*
X23714Y8288D01*
X23756Y8246D01*
X23811Y8177D01*
X23811Y8010D01*
X23811Y7996D01*
X23783Y7941D01*
X23756Y7899D01*
X23700Y7857D01*
X23644Y7816D01*
X23561Y7774D01*
X23464Y7732D01*
X23325Y7691D01*
X23172Y7649D01*
X22978Y7607D01*
X22742Y7579D01*
X22478Y7552D01*
X22172Y7538D01*
X21825Y7538D01*
X21464Y7593D01*
X21422Y7593D01*
X21381Y7579D01*
X21325Y7579D01*
X21172Y7566D01*
X20992Y7538D01*
X20811Y7524D01*
X20645Y7496D01*
X20506Y7482D01*
X20422Y7482D01*
X20020Y7510D01*
X20006Y7510D01*
X19992Y7496D01*
X19950Y7482D01*
X19895Y7468D01*
X19811Y7454D01*
X19728Y7427D01*
X19631Y7413D01*
X19520Y7385D01*
X19256Y7343D01*
X18936Y7302D01*
X18575Y7274D01*
X18173Y7260D01*
X17964Y7260D01*
X17811Y7274D01*
X17617Y7274D01*
X17381Y7302D01*
X17117Y7316D01*
X16825Y7357D01*
X16520Y7413D01*
X16214Y7468D01*
X15909Y7552D01*
X15603Y7635D01*
X15325Y7746D01*
X15062Y7885D01*
X14839Y8038D01*
X14659Y8218D01*
X14576Y8315D01*
X14520Y8427D01*
X14506Y8440D01*
X14478Y8496D01*
X14437Y8579D01*
X14395Y8690D01*
X14353Y8815D01*
X14312Y8968D01*
X14284Y9135D01*
X14270Y9302D01*
X14270Y9440D01*
X14270Y9454D01*
X14270Y9510D01*
X14284Y9593D01*
X14298Y9704D01*
X14312Y9829D01*
X14353Y9982D01*
X14395Y10135D01*
X14464Y10315D01*
X14548Y10496D01*
X14659Y10676D01*
X14784Y10857D01*
X14937Y11038D01*
X15117Y11204D01*
X15325Y11371D01*
X15562Y11510D01*
X15839Y11635D01*
X15909Y11635D01*
X15978Y11649D01*
X16062Y11662D01*
X16117Y11662D01*
X16187Y11649D01*
X16270Y11635D01*
X16367Y11593D01*
X16464Y11551D01*
X16562Y11482D01*
X16659Y11385D01*
X16659Y11329D01*
X16645Y11315D01*
X16617Y11288D01*
X16548Y11260D01*
X16450Y11232D01*
X16381Y11204D01*
X16284Y11190D01*
X16187Y11163D01*
X16075Y11149D01*
X15937Y11135D01*
X15784Y11107D01*
X15770Y11107D01*
X15742Y11079D01*
X15714Y11051D01*
X15659Y11010D01*
X15520Y10885D01*
X15381Y10704D01*
X15228Y10468D01*
X15089Y10176D01*
X15034Y10024D01*
X15006Y9843D01*
X14978Y9649D01*
X14964Y9440D01*
X14964Y9427D01*
X14964Y9385D01*
X14978Y9315D01*
X15006Y9232D01*
X15034Y9135D01*
X15076Y9010D01*
X15145Y8899D01*
X15242Y8774D01*
X15353Y8635D01*
X15506Y8524D01*
X15673Y8413D01*
X15895Y8302D01*
X16145Y8218D01*
X16437Y8149D01*
X16770Y8107D01*
X17159Y8093D01*
X18020Y8093D01*
X18089Y8066D01*
X18131Y8066D01*
X18173Y8079D01*
X18242Y8093D01*
X18409Y8121D01*
X18589Y8177D01*
X18797Y8246D01*
X18978Y8343D01*
X19131Y8482D01*
X19200Y8552D01*
X19242Y8635D01*
X19242Y8649D01*
X19242Y8663D01*
X19256Y8746D01*
X19284Y8857D01*
X19297Y9010D01*
X19325Y9177D01*
X19339Y9357D01*
X19353Y9552D01*
X19353Y9732D01*
X19353Y10093D01*
X19353Y10107D01*
X19353Y10135D01*
X19353Y10190D01*
X19339Y10274D01*
X19339Y10454D01*
X19325Y10663D01*
X19311Y10871D01*
X19311Y11065D01*
X19297Y11149D01*
X19297Y11218D01*
X19297Y11274D01*
X19297Y11301D01*
X19297Y11385D01*
X19297Y11399D01*
X19297Y11454D01*
X19311Y11537D01*
X19325Y11649D01*
X19353Y11787D01*
X19395Y11954D01*
X19450Y12149D01*
X19520Y12357D01*
X19617Y12593D01*
X19742Y12843D01*
X19881Y13121D01*
X20047Y13398D01*
X20256Y13704D01*
X20492Y14010D01*
X20770Y14329D01*
X21089Y14648D01*
X21103Y14662D01*
X21131Y14676D01*
X21172Y14704D01*
X21242Y14746D01*
X21325Y14801D01*
X21422Y14857D01*
X21533Y14926D01*
X21672Y14996D01*
X21811Y15079D01*
X21978Y15148D01*
X22158Y15232D01*
X22339Y15315D01*
X22756Y15482D01*
X23228Y15621D01*
X23242Y15621D01*
X23283Y15634D01*
X23339Y15648D01*
X23408Y15676D01*
X23506Y15704D01*
X23603Y15746D01*
X23839Y15843D01*
X24103Y15982D01*
X24380Y16148D01*
X24630Y16343D01*
X24853Y16579D01*
X24880Y16593D01*
X24936Y16648D01*
X25019Y16718D01*
X25117Y16815D01*
X25200Y16940D01*
X25283Y17065D01*
X25339Y17218D01*
X25367Y17370D01*
X25367Y17426D01*
X25367Y17440D01*
X25367Y17482D01*
X25353Y17551D01*
X25339Y17662D01*
X25311Y17787D01*
X25269Y17954D01*
X25214Y18148D01*
X25144Y18384D01*
X25144Y18398D01*
X25130Y18426D01*
X25117Y18482D01*
X25103Y18551D01*
X25047Y18731D01*
X25005Y18940D01*
X24950Y19162D01*
X24894Y19356D01*
X24880Y19440D01*
X24867Y19509D01*
X24853Y19565D01*
X24853Y19593D01*
X24853Y19648D01*
X24853Y19662D01*
X24867Y19690D01*
X24867Y19745D01*
X24880Y19801D01*
X24908Y19856D01*
X24936Y19912D01*
X24964Y19940D01*
X24992Y19954D01*
X25075Y19954D01*
X25103Y19940D01*
X25158Y19912D01*
X25255Y19843D01*
X25380Y19745D01*
X25464Y19676D01*
X25561Y19593D01*
X25658Y19495D01*
X25783Y19384D01*
X25908Y19259D01*
X26061Y19106D01*
X26089Y19093D01*
X26144Y19065D01*
X26228Y19037D01*
X26325Y19023D01*
X26422Y19023D01*
X26491Y19037D01*
X26630Y19051D01*
X26769Y19079D01*
X26783Y19079D01*
X26839Y19065D01*
X26950Y19051D01*
X27019Y19037D01*
X27103Y19023D01*
X27130Y19037D01*
X27172Y19079D01*
X27255Y19162D01*
X27311Y19218D01*
X27394Y19287D01*
X27477Y19370D01*
X27575Y19481D01*
X27686Y19606D01*
X27825Y19745D01*
X27977Y19912D01*
X28144Y20093D01*
X28158Y20093D01*
X28172Y20106D01*
X28241Y20134D01*
X28311Y20162D01*
X28366Y20176D01*
X28477Y20176D01*
X28505Y20148D01*
X28505Y20148D02*
G37*
G36*
X2168Y21461D02*
X2174Y21461D01*
X2182Y21459D01*
X2197Y21456D01*
X2215Y21450D01*
X2224Y21446D01*
X2233Y21441D01*
X2242Y21436D01*
X2250Y21429D01*
X2257Y21421D01*
X2264Y21413D01*
X2265Y21412D01*
X2266Y21410D01*
X2267Y21407D01*
X2270Y21404D01*
X2273Y21399D01*
X2276Y21392D01*
X2279Y21384D01*
X2282Y21376D01*
X2285Y21366D01*
X2289Y21355D01*
X2292Y21342D01*
X2294Y21329D01*
X2297Y21315D01*
X2299Y21299D01*
X2299Y21282D01*
X2300Y21264D01*
X2300Y21050D01*
X1799Y21050D01*
X1799Y21243D01*
X1799Y21245D01*
X1799Y21248D01*
X1799Y21253D01*
X1800Y21260D01*
X1800Y21269D01*
X1801Y21279D01*
X1802Y21290D01*
X1803Y21301D01*
X1806Y21326D01*
X1812Y21351D01*
X1816Y21363D01*
X1820Y21374D01*
X1825Y21384D01*
X1831Y21394D01*
X1831Y21395D01*
X1832Y21396D01*
X1835Y21399D01*
X1837Y21402D01*
X1840Y21405D01*
X1845Y21409D01*
X1849Y21413D01*
X1855Y21418D01*
X1862Y21422D01*
X1869Y21427D01*
X1878Y21430D01*
X1887Y21434D01*
X1897Y21437D01*
X1908Y21439D01*
X1920Y21441D01*
X1932Y21441D01*
X1938Y21441D01*
X1945Y21441D01*
X1954Y21439D01*
X1963Y21437D01*
X1974Y21434D01*
X1984Y21430D01*
X1994Y21424D01*
X1995Y21424D01*
X1999Y21421D01*
X2003Y21417D01*
X2008Y21412D01*
X2014Y21405D01*
X2021Y21396D01*
X2027Y21387D01*
X2032Y21375D01*
X2032Y21376D01*
X2033Y21376D01*
X2034Y21379D01*
X2034Y21382D01*
X2038Y21389D01*
X2042Y21399D01*
X2048Y21409D01*
X2057Y21419D01*
X2066Y21430D01*
X2077Y21439D01*
X2079Y21440D01*
X2083Y21443D01*
X2090Y21447D01*
X2099Y21451D01*
X2111Y21455D01*
X2124Y21458D01*
X2139Y21461D01*
X2156Y21462D01*
X2163Y21462D01*
X2168Y21461D01*
X2168Y21461D02*
G37*
G36*
X1135Y19807D02*
X1229Y19807D01*
X1229Y20014D01*
X1326Y20014D01*
X1326Y19807D01*
X1539Y19807D01*
X1539Y19678D01*
X1038Y19678D01*
X1038Y20027D01*
X1135Y20027D01*
X1135Y19807D01*
X1135Y19807D02*
G37*
G36*
X1135Y20383D02*
X1539Y20383D01*
X1539Y20254D01*
X1135Y20254D01*
X1135Y20088D01*
X1038Y20088D01*
X1038Y20549D01*
X1135Y20549D01*
X1135Y20383D01*
X1135Y20383D02*
G37*
G36*
X1135Y19445D02*
X1539Y19445D01*
X1539Y19317D01*
X1135Y19317D01*
X1135Y19150D01*
X1038Y19150D01*
X1038Y19611D01*
X1135Y19611D01*
X1135Y19445D01*
X1135Y19445D02*
G37*
G36*
X2024Y20606D02*
X1895Y20606D01*
X1895Y20728D01*
X2024Y20728D01*
X2024Y20606D01*
X2024Y20606D02*
G37*
G36*
X2271Y20606D02*
X2141Y20606D01*
X2141Y20728D01*
X2271Y20728D01*
X2271Y20606D01*
X2271Y20606D02*
G37*
G36*
X638Y20062D02*
X646Y20061D01*
X655Y20059D01*
X665Y20058D01*
X675Y20056D01*
X687Y20053D01*
X699Y20049D01*
X711Y20045D01*
X723Y20039D01*
X735Y20033D01*
X746Y20025D01*
X757Y20017D01*
X768Y20008D01*
X769Y20007D01*
X770Y20005D01*
X772Y20002D01*
X776Y19997D01*
X780Y19992D01*
X784Y19985D01*
X789Y19977D01*
X794Y19968D01*
X798Y19958D01*
X803Y19946D01*
X808Y19934D01*
X811Y19920D01*
X815Y19906D01*
X817Y19890D01*
X819Y19874D01*
X820Y19856D01*
X820Y19855D01*
X820Y19852D01*
X820Y19846D01*
X819Y19840D01*
X818Y19832D01*
X817Y19823D01*
X815Y19812D01*
X813Y19800D01*
X811Y19789D01*
X807Y19776D01*
X803Y19763D01*
X797Y19751D01*
X791Y19738D01*
X785Y19726D01*
X777Y19715D01*
X768Y19704D01*
X767Y19704D01*
X766Y19702D01*
X763Y19699D01*
X758Y19695D01*
X753Y19692D01*
X746Y19687D01*
X739Y19682D01*
X730Y19677D01*
X720Y19672D01*
X709Y19667D01*
X698Y19662D01*
X684Y19658D01*
X670Y19655D01*
X655Y19652D01*
X640Y19650D01*
X623Y19649D01*
X618Y19649D01*
X614Y19650D01*
X607Y19650D01*
X600Y19651D01*
X591Y19652D01*
X581Y19654D01*
X570Y19656D01*
X558Y19659D01*
X547Y19663D01*
X535Y19667D01*
X523Y19672D01*
X510Y19679D01*
X499Y19686D01*
X488Y19695D01*
X478Y19704D01*
X477Y19705D01*
X476Y19706D01*
X473Y19710D01*
X470Y19715D01*
X466Y19720D01*
X461Y19726D01*
X456Y19735D01*
X451Y19743D01*
X447Y19754D01*
X441Y19766D01*
X437Y19778D01*
X433Y19792D01*
X430Y19806D01*
X427Y19822D01*
X426Y19838D01*
X425Y19856D01*
X425Y19857D01*
X425Y19860D01*
X425Y19866D01*
X426Y19872D01*
X427Y19880D01*
X428Y19889D01*
X430Y19900D01*
X432Y19911D01*
X435Y19923D01*
X438Y19936D01*
X442Y19948D01*
X447Y19961D01*
X453Y19974D01*
X461Y19985D01*
X468Y19997D01*
X478Y20008D01*
X478Y20008D01*
X480Y20010D01*
X483Y20013D01*
X487Y20017D01*
X493Y20020D01*
X499Y20025D01*
X507Y20030D01*
X515Y20035D01*
X525Y20040D01*
X536Y20045D01*
X548Y20050D01*
X561Y20054D01*
X575Y20057D01*
X590Y20060D01*
X606Y20062D01*
X623Y20062D01*
X632Y20062D01*
X638Y20062D01*
X638Y20062D02*
G37*
G36*
X574Y22717D02*
X579Y22717D01*
X593Y22715D01*
X609Y22713D01*
X626Y22710D01*
X644Y22706D01*
X661Y22700D01*
X661Y22700D01*
X663Y22699D01*
X665Y22698D01*
X668Y22697D01*
X676Y22692D01*
X687Y22687D01*
X699Y22680D01*
X712Y22671D01*
X726Y22661D01*
X739Y22648D01*
X740Y22647D01*
X740Y22647D01*
X743Y22644D01*
X746Y22641D01*
X749Y22637D01*
X752Y22632D01*
X760Y22621D01*
X770Y22607D01*
X779Y22590D01*
X787Y22571D01*
X794Y22551D01*
X794Y22550D01*
X795Y22548D01*
X796Y22545D01*
X797Y22541D01*
X798Y22535D01*
X800Y22527D01*
X801Y22518D01*
X802Y22509D01*
X803Y22498D01*
X805Y22485D01*
X806Y22471D01*
X808Y22456D01*
X809Y22439D01*
X809Y22422D01*
X810Y22402D01*
X810Y22382D01*
X810Y22246D01*
X309Y22246D01*
X309Y22382D01*
X309Y22383D01*
X309Y22387D01*
X309Y22393D01*
X309Y22400D01*
X310Y22410D01*
X310Y22421D01*
X311Y22433D01*
X311Y22446D01*
X313Y22473D01*
X316Y22501D01*
X318Y22516D01*
X320Y22528D01*
X322Y22541D01*
X325Y22552D01*
X325Y22553D01*
X326Y22554D01*
X327Y22557D01*
X328Y22561D01*
X330Y22566D01*
X333Y22572D01*
X339Y22585D01*
X346Y22600D01*
X356Y22616D01*
X367Y22632D01*
X381Y22648D01*
X381Y22649D01*
X382Y22649D01*
X387Y22654D01*
X394Y22660D01*
X403Y22667D01*
X415Y22676D01*
X428Y22684D01*
X443Y22692D01*
X459Y22700D01*
X460Y22700D01*
X461Y22701D01*
X464Y22701D01*
X467Y22703D01*
X471Y22704D01*
X476Y22706D01*
X482Y22707D01*
X488Y22709D01*
X503Y22712D01*
X520Y22715D01*
X539Y22717D01*
X559Y22718D01*
X569Y22718D01*
X574Y22717D01*
X574Y22717D02*
G37*
G36*
X386Y23685D02*
X288Y23685D01*
X288Y23805D01*
X386Y23805D01*
X386Y23685D01*
X386Y23685D02*
G37*
G36*
X810Y21770D02*
X609Y21770D01*
X598Y21769D01*
X587Y21769D01*
X576Y21768D01*
X568Y21767D01*
X567Y21767D01*
X565Y21767D01*
X561Y21767D01*
X558Y21766D01*
X549Y21763D01*
X544Y21761D01*
X541Y21759D01*
X540Y21759D01*
X538Y21758D01*
X534Y21754D01*
X528Y21748D01*
X522Y21740D01*
X522Y21739D01*
X521Y21738D01*
X520Y21736D01*
X518Y21732D01*
X516Y21724D01*
X515Y21713D01*
X515Y21712D01*
X515Y21711D01*
X516Y21707D01*
X517Y21700D01*
X519Y21691D01*
X523Y21682D01*
X528Y21673D01*
X535Y21663D01*
X545Y21654D01*
X547Y21653D01*
X550Y21651D01*
X557Y21648D01*
X566Y21644D01*
X577Y21639D01*
X591Y21636D01*
X607Y21633D01*
X625Y21633D01*
X810Y21633D01*
X810Y21513D01*
X434Y21513D01*
X434Y21633D01*
X489Y21633D01*
X488Y21634D01*
X484Y21637D01*
X478Y21643D01*
X471Y21650D01*
X464Y21659D01*
X456Y21668D01*
X448Y21679D01*
X441Y21690D01*
X441Y21691D01*
X439Y21695D01*
X436Y21702D01*
X433Y21710D01*
X430Y21720D01*
X427Y21732D01*
X426Y21744D01*
X425Y21758D01*
X425Y21758D01*
X425Y21761D01*
X425Y21764D01*
X426Y21768D01*
X427Y21774D01*
X427Y21780D01*
X430Y21794D01*
X435Y21810D01*
X442Y21827D01*
X447Y21835D01*
X452Y21842D01*
X458Y21850D01*
X465Y21856D01*
X466Y21857D01*
X467Y21858D01*
X470Y21859D01*
X473Y21861D01*
X477Y21864D01*
X481Y21867D01*
X488Y21870D01*
X495Y21873D01*
X502Y21876D01*
X511Y21879D01*
X521Y21882D01*
X531Y21885D01*
X542Y21887D01*
X555Y21889D01*
X567Y21890D01*
X810Y21890D01*
X810Y21770D01*
X810Y21770D02*
G37*
G36*
X2105Y11535D02*
X2104Y11534D01*
X2098Y11531D01*
X2091Y11527D01*
X2082Y11521D01*
X2069Y11514D01*
X2054Y11505D01*
X2037Y11495D01*
X2019Y11484D01*
X1998Y11470D01*
X1977Y11457D01*
X1930Y11427D01*
X1880Y11392D01*
X1829Y11356D01*
X1778Y11319D01*
X1728Y11278D01*
X1680Y11238D01*
X1660Y11219D01*
X1639Y11198D01*
X1621Y11178D01*
X1604Y11159D01*
X1589Y11141D01*
X1576Y11121D01*
X1567Y11103D01*
X1558Y11087D01*
X1554Y11069D01*
X1553Y11053D01*
X1553Y11019D01*
X1554Y11016D01*
X1557Y11009D01*
X1562Y10998D01*
X1571Y10983D01*
X1583Y10965D01*
X1600Y10942D01*
X1622Y10916D01*
X1635Y10902D01*
X1648Y10888D01*
X1664Y10873D01*
X1682Y10858D01*
X1700Y10841D01*
X1721Y10824D01*
X1743Y10806D01*
X1766Y10788D01*
X1793Y10770D01*
X1821Y10752D01*
X1851Y10733D01*
X1883Y10713D01*
X1916Y10694D01*
X1952Y10673D01*
X1991Y10654D01*
X2033Y10633D01*
X2076Y10612D01*
X2122Y10591D01*
X2123Y10593D01*
X2130Y10595D01*
X2138Y10600D01*
X2151Y10607D01*
X2165Y10613D01*
X2180Y10622D01*
X2215Y10643D01*
X2249Y10665D01*
X2266Y10676D01*
X2281Y10688D01*
X2295Y10701D01*
X2306Y10712D01*
X2315Y10723D01*
X2319Y10734D01*
X2319Y10770D01*
X2319Y10772D01*
X2316Y10776D01*
X2313Y10780D01*
X2311Y10784D01*
X2305Y10790D01*
X2298Y10797D01*
X2290Y10805D01*
X2280Y10815D01*
X2266Y10827D01*
X2251Y10840D01*
X2233Y10855D01*
X2211Y10872D01*
X2186Y10891D01*
X2158Y10912D01*
X2177Y10912D01*
X2179Y10911D01*
X2183Y10909D01*
X2188Y10908D01*
X2202Y10902D01*
X2220Y10895D01*
X2243Y10887D01*
X2266Y10877D01*
X2291Y10866D01*
X2317Y10855D01*
X2345Y10841D01*
X2370Y10829D01*
X2394Y10815D01*
X2416Y10802D01*
X2434Y10788D01*
X2448Y10776D01*
X2454Y10769D01*
X2458Y10763D01*
X2459Y10756D01*
X2460Y10751D01*
X2460Y10750D01*
X2460Y10748D01*
X2458Y10743D01*
X2455Y10737D01*
X2451Y10730D01*
X2444Y10722D01*
X2434Y10712D01*
X2420Y10700D01*
X2404Y10687D01*
X2383Y10675D01*
X2356Y10659D01*
X2341Y10652D01*
X2326Y10644D01*
X2308Y10636D01*
X2288Y10627D01*
X2268Y10619D01*
X2245Y10609D01*
X2222Y10601D01*
X2197Y10591D01*
X2169Y10583D01*
X2140Y10573D01*
X2140Y10555D01*
X2143Y10554D01*
X2150Y10551D01*
X2161Y10547D01*
X2176Y10540D01*
X2195Y10532D01*
X2219Y10522D01*
X2244Y10512D01*
X2273Y10500D01*
X2305Y10486D01*
X2338Y10471D01*
X2373Y10455D01*
X2410Y10439D01*
X2487Y10401D01*
X2566Y10362D01*
X2646Y10322D01*
X2723Y10279D01*
X2760Y10258D01*
X2795Y10236D01*
X2828Y10215D01*
X2860Y10193D01*
X2889Y10172D01*
X2914Y10151D01*
X2938Y10130D01*
X2957Y10111D01*
X2973Y10092D01*
X2984Y10074D01*
X2991Y10056D01*
X2993Y10039D01*
X2993Y10037D01*
X2992Y10032D01*
X2988Y10022D01*
X2980Y10010D01*
X2974Y10001D01*
X2967Y9993D01*
X2957Y9983D01*
X2948Y9972D01*
X2935Y9961D01*
X2920Y9949D01*
X2903Y9935D01*
X2884Y9921D01*
X2863Y9904D01*
X2838Y9889D01*
X2812Y9871D01*
X2781Y9853D01*
X2746Y9833D01*
X2710Y9814D01*
X2670Y9793D01*
X2626Y9771D01*
X2578Y9747D01*
X2526Y9724D01*
X2470Y9699D01*
X2409Y9672D01*
X2345Y9646D01*
X2276Y9618D01*
X2201Y9589D01*
X2122Y9560D01*
X2122Y9578D01*
X2123Y9581D01*
X2127Y9584D01*
X2131Y9589D01*
X2140Y9596D01*
X2151Y9606D01*
X2165Y9616D01*
X2183Y9629D01*
X2204Y9645D01*
X2231Y9663D01*
X2247Y9672D01*
X2263Y9682D01*
X2281Y9693D01*
X2301Y9706D01*
X2322Y9718D01*
X2344Y9732D01*
X2367Y9746D01*
X2394Y9761D01*
X2422Y9777D01*
X2451Y9793D01*
X2481Y9810D01*
X2515Y9828D01*
X2516Y9829D01*
X2520Y9833D01*
X2527Y9840D01*
X2537Y9849D01*
X2548Y9858D01*
X2559Y9871D01*
X2571Y9885D01*
X2585Y9900D01*
X2612Y9933D01*
X2623Y9950D01*
X2634Y9968D01*
X2644Y9986D01*
X2651Y10004D01*
X2655Y10022D01*
X2656Y10039D01*
X2656Y10075D01*
X2656Y10078D01*
X2655Y10085D01*
X2652Y10096D01*
X2648Y10111D01*
X2638Y10130D01*
X2626Y10154D01*
X2617Y10167D01*
X2609Y10180D01*
X2598Y10196D01*
X2585Y10211D01*
X2570Y10226D01*
X2555Y10243D01*
X2537Y10261D01*
X2517Y10279D01*
X2495Y10298D01*
X2472Y10318D01*
X2445Y10337D01*
X2416Y10358D01*
X2384Y10379D01*
X2351Y10401D01*
X2315Y10422D01*
X2274Y10446D01*
X2233Y10468D01*
X2187Y10491D01*
X2138Y10515D01*
X2087Y10539D01*
X2086Y10537D01*
X2082Y10536D01*
X2075Y10532D01*
X2065Y10526D01*
X2054Y10519D01*
X2041Y10512D01*
X2015Y10494D01*
X1986Y10473D01*
X1959Y10452D01*
X1948Y10443D01*
X1939Y10433D01*
X1932Y10423D01*
X1926Y10414D01*
X1926Y10361D01*
X1926Y10359D01*
X1929Y10355D01*
X1933Y10348D01*
X1939Y10343D01*
X1944Y10336D01*
X1951Y10329D01*
X1961Y10321D01*
X1972Y10310D01*
X1986Y10298D01*
X2002Y10285D01*
X2022Y10271D01*
X2044Y10254D01*
X2069Y10236D01*
X2050Y10236D01*
X2048Y10237D01*
X2040Y10240D01*
X2026Y10244D01*
X2009Y10250D01*
X1989Y10258D01*
X1966Y10266D01*
X1943Y10276D01*
X1918Y10287D01*
X1893Y10300D01*
X1869Y10312D01*
X1846Y10325D01*
X1826Y10339D01*
X1809Y10353D01*
X1796Y10368D01*
X1787Y10382D01*
X1786Y10389D01*
X1784Y10396D01*
X1784Y10414D01*
X1786Y10415D01*
X1789Y10418D01*
X1793Y10422D01*
X1798Y10428D01*
X1808Y10434D01*
X1818Y10443D01*
X1832Y10452D01*
X1847Y10462D01*
X1865Y10473D01*
X1886Y10484D01*
X1909Y10496D01*
X1934Y10508D01*
X1964Y10520D01*
X1995Y10532D01*
X2030Y10544D01*
X2069Y10555D01*
X2069Y10573D01*
X2068Y10575D01*
X2062Y10576D01*
X2052Y10580D01*
X2040Y10584D01*
X2025Y10590D01*
X2007Y10598D01*
X1987Y10607D01*
X1964Y10616D01*
X1939Y10626D01*
X1911Y10637D01*
X1882Y10650D01*
X1852Y10663D01*
X1787Y10693D01*
X1718Y10725D01*
X1647Y10759D01*
X1576Y10797D01*
X1507Y10834D01*
X1439Y10874D01*
X1407Y10894D01*
X1376Y10915D01*
X1349Y10936D01*
X1321Y10955D01*
X1296Y10976D01*
X1272Y10997D01*
X1251Y11017D01*
X1233Y11037D01*
X1233Y11108D01*
X1233Y11109D01*
X1235Y11113D01*
X1239Y11121D01*
X1247Y11131D01*
X1253Y11138D01*
X1260Y11145D01*
X1268Y11153D01*
X1279Y11163D01*
X1292Y11173D01*
X1307Y11184D01*
X1324Y11196D01*
X1342Y11209D01*
X1364Y11223D01*
X1389Y11237D01*
X1415Y11253D01*
X1446Y11270D01*
X1479Y11287D01*
X1517Y11306D01*
X1557Y11326D01*
X1601Y11346D01*
X1648Y11369D01*
X1701Y11392D01*
X1757Y11416D01*
X1818Y11441D01*
X1882Y11467D01*
X1951Y11495D01*
X2026Y11524D01*
X2105Y11553D01*
X2105Y11535D01*
X2105Y11535D02*
G37*
G36*
X709Y23594D02*
X715Y23593D01*
X720Y23592D01*
X734Y23589D01*
X748Y23583D01*
X756Y23580D01*
X763Y23576D01*
X770Y23571D01*
X777Y23565D01*
X784Y23558D01*
X790Y23550D01*
X790Y23549D01*
X791Y23548D01*
X793Y23546D01*
X794Y23542D01*
X797Y23537D01*
X800Y23532D01*
X802Y23525D01*
X805Y23517D01*
X808Y23508D01*
X810Y23498D01*
X813Y23488D01*
X815Y23476D01*
X817Y23463D01*
X818Y23449D01*
X820Y23434D01*
X820Y23418D01*
X820Y23418D01*
X820Y23417D01*
X820Y23415D01*
X820Y23412D01*
X820Y23404D01*
X819Y23395D01*
X818Y23383D01*
X817Y23369D01*
X816Y23355D01*
X814Y23341D01*
X814Y23340D01*
X814Y23339D01*
X813Y23337D01*
X812Y23334D01*
X811Y23326D01*
X809Y23316D01*
X807Y23304D01*
X803Y23290D01*
X800Y23275D01*
X796Y23260D01*
X705Y23260D01*
X705Y23261D01*
X706Y23261D01*
X708Y23266D01*
X711Y23273D01*
X715Y23282D01*
X719Y23293D01*
X723Y23306D01*
X728Y23319D01*
X732Y23333D01*
X732Y23334D01*
X732Y23335D01*
X732Y23337D01*
X733Y23340D01*
X734Y23347D01*
X735Y23357D01*
X737Y23369D01*
X738Y23381D01*
X739Y23395D01*
X740Y23409D01*
X740Y23410D01*
X740Y23411D01*
X740Y23415D01*
X739Y23421D01*
X738Y23429D01*
X737Y23438D01*
X735Y23447D01*
X733Y23455D01*
X730Y23463D01*
X729Y23463D01*
X729Y23466D01*
X726Y23469D01*
X723Y23472D01*
X719Y23475D01*
X714Y23478D01*
X709Y23480D01*
X702Y23480D01*
X699Y23480D01*
X696Y23480D01*
X693Y23479D01*
X689Y23478D01*
X685Y23475D01*
X681Y23472D01*
X678Y23468D01*
X678Y23467D01*
X677Y23466D01*
X675Y23462D01*
X674Y23457D01*
X672Y23450D01*
X669Y23442D01*
X667Y23432D01*
X666Y23419D01*
X663Y23398D01*
X663Y23398D01*
X662Y23395D01*
X661Y23391D01*
X661Y23385D01*
X660Y23378D01*
X658Y23371D01*
X656Y23363D01*
X654Y23354D01*
X649Y23335D01*
X643Y23317D01*
X639Y23308D01*
X635Y23300D01*
X630Y23293D01*
X626Y23286D01*
X624Y23284D01*
X621Y23281D01*
X614Y23275D01*
X605Y23270D01*
X593Y23264D01*
X579Y23259D01*
X562Y23256D01*
X553Y23255D01*
X543Y23254D01*
X537Y23254D01*
X533Y23255D01*
X528Y23256D01*
X522Y23256D01*
X510Y23259D01*
X495Y23264D01*
X480Y23271D01*
X473Y23276D01*
X466Y23281D01*
X460Y23287D01*
X454Y23295D01*
X454Y23295D01*
X453Y23297D01*
X451Y23299D01*
X450Y23302D01*
X447Y23307D01*
X445Y23312D01*
X442Y23318D01*
X439Y23326D01*
X437Y23334D01*
X434Y23343D01*
X432Y23353D01*
X430Y23365D01*
X428Y23377D01*
X427Y23390D01*
X425Y23404D01*
X425Y23420D01*
X425Y23421D01*
X425Y23421D01*
X425Y23426D01*
X425Y23432D01*
X426Y23441D01*
X427Y23452D01*
X427Y23463D01*
X429Y23476D01*
X431Y23489D01*
X431Y23490D01*
X431Y23491D01*
X432Y23493D01*
X432Y23496D01*
X433Y23503D01*
X435Y23513D01*
X437Y23525D01*
X440Y23539D01*
X443Y23554D01*
X447Y23569D01*
X538Y23569D01*
X538Y23569D01*
X537Y23568D01*
X536Y23566D01*
X535Y23563D01*
X532Y23555D01*
X529Y23546D01*
X524Y23534D01*
X521Y23521D01*
X517Y23508D01*
X513Y23495D01*
X513Y23494D01*
X513Y23493D01*
X512Y23489D01*
X510Y23482D01*
X509Y23473D01*
X507Y23463D01*
X507Y23451D01*
X505Y23439D01*
X505Y23427D01*
X505Y23426D01*
X505Y23426D01*
X505Y23421D01*
X506Y23415D01*
X506Y23408D01*
X507Y23400D01*
X509Y23391D01*
X511Y23383D01*
X514Y23376D01*
X515Y23375D01*
X515Y23374D01*
X518Y23371D01*
X521Y23368D01*
X524Y23365D01*
X529Y23362D01*
X535Y23361D01*
X541Y23360D01*
X543Y23360D01*
X546Y23361D01*
X549Y23361D01*
X552Y23363D01*
X556Y23365D01*
X560Y23368D01*
X563Y23372D01*
X563Y23372D01*
X564Y23374D01*
X565Y23378D01*
X567Y23382D01*
X569Y23388D01*
X571Y23396D01*
X572Y23406D01*
X574Y23417D01*
X577Y23438D01*
X577Y23439D01*
X578Y23442D01*
X578Y23447D01*
X579Y23453D01*
X581Y23461D01*
X582Y23469D01*
X584Y23478D01*
X587Y23488D01*
X592Y23509D01*
X598Y23529D01*
X602Y23539D01*
X606Y23548D01*
X611Y23555D01*
X616Y23562D01*
X616Y23563D01*
X618Y23563D01*
X621Y23567D01*
X627Y23572D01*
X637Y23578D01*
X648Y23584D01*
X663Y23589D01*
X680Y23593D01*
X689Y23594D01*
X706Y23594D01*
X709Y23594D01*
X709Y23594D02*
G37*
G36*
X655Y22905D02*
X657Y22905D01*
X659Y22905D01*
X662Y22905D01*
X670Y22907D01*
X679Y22910D01*
X689Y22914D01*
X700Y22919D01*
X710Y22925D01*
X719Y22934D01*
X720Y22936D01*
X722Y22940D01*
X726Y22945D01*
X729Y22954D01*
X733Y22964D01*
X737Y22977D01*
X739Y22991D01*
X740Y23008D01*
X740Y23009D01*
X740Y23010D01*
X740Y23012D01*
X740Y23015D01*
X739Y23022D01*
X738Y23032D01*
X737Y23044D01*
X735Y23057D01*
X732Y23071D01*
X729Y23086D01*
X729Y23087D01*
X728Y23088D01*
X727Y23090D01*
X726Y23093D01*
X724Y23101D01*
X720Y23111D01*
X715Y23124D01*
X709Y23138D01*
X703Y23153D01*
X695Y23168D01*
X787Y23168D01*
X787Y23167D01*
X788Y23166D01*
X789Y23164D01*
X790Y23161D01*
X791Y23157D01*
X793Y23153D01*
X796Y23142D01*
X800Y23128D01*
X804Y23114D01*
X808Y23099D01*
X811Y23082D01*
X811Y23082D01*
X811Y23080D01*
X812Y23078D01*
X813Y23075D01*
X814Y23071D01*
X814Y23067D01*
X815Y23056D01*
X817Y23043D01*
X818Y23028D01*
X819Y23014D01*
X820Y22997D01*
X820Y22996D01*
X820Y22993D01*
X820Y22988D01*
X819Y22980D01*
X818Y22972D01*
X817Y22962D01*
X815Y22951D01*
X813Y22940D01*
X811Y22927D01*
X807Y22914D01*
X803Y22900D01*
X797Y22888D01*
X791Y22874D01*
X785Y22862D01*
X777Y22850D01*
X768Y22839D01*
X767Y22838D01*
X766Y22837D01*
X763Y22834D01*
X758Y22830D01*
X753Y22826D01*
X746Y22821D01*
X739Y22816D01*
X730Y22811D01*
X720Y22806D01*
X709Y22800D01*
X698Y22796D01*
X685Y22792D01*
X671Y22788D01*
X656Y22785D01*
X640Y22783D01*
X623Y22783D01*
X619Y22783D01*
X614Y22783D01*
X607Y22783D01*
X600Y22784D01*
X591Y22786D01*
X581Y22787D01*
X570Y22789D01*
X559Y22792D01*
X547Y22796D01*
X535Y22800D01*
X523Y22806D01*
X511Y22812D01*
X500Y22820D01*
X489Y22829D01*
X478Y22838D01*
X478Y22839D01*
X476Y22841D01*
X473Y22844D01*
X470Y22849D01*
X466Y22854D01*
X461Y22861D01*
X457Y22869D01*
X452Y22878D01*
X447Y22888D01*
X442Y22900D01*
X438Y22912D01*
X433Y22926D01*
X430Y22940D01*
X427Y22957D01*
X426Y22973D01*
X425Y22991D01*
X425Y22991D01*
X425Y22994D01*
X425Y22999D01*
X426Y23005D01*
X427Y23013D01*
X428Y23022D01*
X430Y23031D01*
X432Y23042D01*
X435Y23053D01*
X439Y23065D01*
X443Y23076D01*
X448Y23088D01*
X454Y23100D01*
X461Y23111D01*
X470Y23122D01*
X479Y23133D01*
X480Y23133D01*
X481Y23135D01*
X484Y23138D01*
X489Y23141D01*
X494Y23145D01*
X501Y23150D01*
X508Y23154D01*
X517Y23159D01*
X527Y23165D01*
X537Y23169D01*
X549Y23173D01*
X561Y23178D01*
X575Y23181D01*
X589Y23184D01*
X605Y23185D01*
X621Y23186D01*
X655Y23186D01*
X655Y22905D01*
X655Y22905D02*
G37*
G36*
X810Y24668D02*
X609Y24668D01*
X598Y24667D01*
X587Y24667D01*
X576Y24667D01*
X568Y24666D01*
X567Y24666D01*
X565Y24665D01*
X561Y24665D01*
X558Y24664D01*
X549Y24662D01*
X544Y24660D01*
X541Y24658D01*
X540Y24658D01*
X538Y24656D01*
X534Y24653D01*
X528Y24647D01*
X522Y24639D01*
X522Y24638D01*
X521Y24636D01*
X520Y24634D01*
X518Y24630D01*
X516Y24622D01*
X515Y24611D01*
X515Y24610D01*
X515Y24610D01*
X516Y24605D01*
X517Y24599D01*
X519Y24590D01*
X523Y24581D01*
X528Y24571D01*
X535Y24562D01*
X545Y24553D01*
X547Y24552D01*
X550Y24550D01*
X557Y24546D01*
X566Y24542D01*
X577Y24538D01*
X591Y24535D01*
X607Y24532D01*
X625Y24531D01*
X810Y24531D01*
X810Y24411D01*
X434Y24411D01*
X434Y24531D01*
X489Y24531D01*
X488Y24533D01*
X484Y24536D01*
X478Y24542D01*
X471Y24548D01*
X464Y24557D01*
X456Y24567D01*
X448Y24577D01*
X441Y24588D01*
X441Y24590D01*
X439Y24593D01*
X436Y24600D01*
X433Y24608D01*
X430Y24619D01*
X427Y24630D01*
X426Y24643D01*
X425Y24656D01*
X425Y24657D01*
X425Y24659D01*
X425Y24662D01*
X426Y24667D01*
X427Y24673D01*
X427Y24679D01*
X430Y24693D01*
X435Y24709D01*
X442Y24725D01*
X447Y24733D01*
X452Y24741D01*
X458Y24748D01*
X465Y24755D01*
X466Y24755D01*
X467Y24756D01*
X470Y24758D01*
X473Y24760D01*
X477Y24763D01*
X481Y24766D01*
X488Y24769D01*
X495Y24772D01*
X502Y24775D01*
X511Y24778D01*
X521Y24781D01*
X531Y24784D01*
X542Y24786D01*
X555Y24787D01*
X567Y24789D01*
X810Y24789D01*
X810Y24668D01*
X810Y24668D02*
G37*
G36*
X637Y20961D02*
X644Y20960D01*
X653Y20959D01*
X663Y20958D01*
X673Y20956D01*
X695Y20950D01*
X707Y20947D01*
X719Y20942D01*
X731Y20937D01*
X743Y20931D01*
X754Y20925D01*
X765Y20916D01*
X766Y20916D01*
X767Y20914D01*
X770Y20912D01*
X774Y20908D01*
X777Y20904D01*
X782Y20899D01*
X787Y20893D01*
X792Y20885D01*
X797Y20878D01*
X803Y20869D01*
X807Y20859D01*
X811Y20850D01*
X814Y20839D01*
X817Y20828D01*
X819Y20815D01*
X820Y20802D01*
X820Y20802D01*
X820Y20801D01*
X820Y20799D01*
X820Y20796D01*
X819Y20788D01*
X817Y20779D01*
X816Y20768D01*
X813Y20757D01*
X809Y20745D01*
X804Y20733D01*
X803Y20731D01*
X801Y20728D01*
X797Y20722D01*
X792Y20714D01*
X786Y20706D01*
X777Y20697D01*
X767Y20688D01*
X755Y20678D01*
X953Y20678D01*
X953Y20558D01*
X434Y20558D01*
X434Y20678D01*
X489Y20678D01*
X488Y20680D01*
X484Y20683D01*
X478Y20688D01*
X471Y20694D01*
X464Y20703D01*
X456Y20711D01*
X448Y20722D01*
X441Y20733D01*
X441Y20734D01*
X439Y20738D01*
X436Y20745D01*
X433Y20753D01*
X430Y20763D01*
X427Y20775D01*
X426Y20788D01*
X425Y20802D01*
X425Y20803D01*
X425Y20805D01*
X425Y20809D01*
X426Y20814D01*
X427Y20820D01*
X428Y20827D01*
X430Y20834D01*
X432Y20843D01*
X435Y20851D01*
X439Y20861D01*
X443Y20870D01*
X449Y20880D01*
X455Y20890D01*
X462Y20899D01*
X471Y20907D01*
X481Y20916D01*
X481Y20917D01*
X483Y20919D01*
X487Y20921D01*
X491Y20924D01*
X496Y20927D01*
X503Y20930D01*
X510Y20935D01*
X519Y20939D01*
X529Y20943D01*
X540Y20947D01*
X552Y20951D01*
X564Y20955D01*
X578Y20957D01*
X592Y20959D01*
X607Y20961D01*
X623Y20962D01*
X631Y20962D01*
X637Y20961D01*
X637Y20961D02*
G37*
G36*
X709Y20467D02*
X715Y20466D01*
X720Y20466D01*
X734Y20463D01*
X748Y20457D01*
X756Y20454D01*
X763Y20449D01*
X770Y20444D01*
X777Y20438D01*
X784Y20432D01*
X790Y20424D01*
X790Y20423D01*
X791Y20421D01*
X793Y20419D01*
X794Y20415D01*
X797Y20411D01*
X800Y20405D01*
X802Y20398D01*
X805Y20390D01*
X808Y20381D01*
X810Y20372D01*
X813Y20361D01*
X815Y20350D01*
X817Y20336D01*
X818Y20323D01*
X820Y20307D01*
X820Y20292D01*
X820Y20291D01*
X820Y20290D01*
X820Y20288D01*
X820Y20285D01*
X820Y20278D01*
X819Y20268D01*
X818Y20256D01*
X817Y20243D01*
X816Y20229D01*
X814Y20214D01*
X814Y20213D01*
X814Y20213D01*
X813Y20210D01*
X812Y20207D01*
X811Y20199D01*
X809Y20190D01*
X807Y20177D01*
X803Y20164D01*
X800Y20149D01*
X796Y20133D01*
X705Y20133D01*
X705Y20134D01*
X706Y20135D01*
X708Y20139D01*
X711Y20147D01*
X715Y20156D01*
X719Y20167D01*
X723Y20179D01*
X728Y20193D01*
X732Y20207D01*
X732Y20207D01*
X732Y20208D01*
X732Y20210D01*
X733Y20213D01*
X734Y20221D01*
X735Y20230D01*
X737Y20242D01*
X738Y20255D01*
X739Y20269D01*
X740Y20283D01*
X740Y20284D01*
X740Y20284D01*
X740Y20289D01*
X739Y20295D01*
X738Y20303D01*
X737Y20312D01*
X735Y20321D01*
X733Y20329D01*
X730Y20336D01*
X729Y20337D01*
X729Y20339D01*
X726Y20342D01*
X723Y20345D01*
X719Y20348D01*
X714Y20351D01*
X709Y20353D01*
X702Y20354D01*
X699Y20354D01*
X696Y20353D01*
X693Y20352D01*
X689Y20351D01*
X685Y20349D01*
X681Y20346D01*
X678Y20341D01*
X678Y20341D01*
X677Y20339D01*
X675Y20335D01*
X674Y20330D01*
X672Y20324D01*
X669Y20315D01*
X667Y20305D01*
X666Y20293D01*
X663Y20272D01*
X663Y20271D01*
X662Y20268D01*
X661Y20264D01*
X661Y20259D01*
X660Y20252D01*
X658Y20244D01*
X656Y20236D01*
X654Y20227D01*
X649Y20209D01*
X643Y20190D01*
X639Y20182D01*
X635Y20173D01*
X630Y20166D01*
X626Y20159D01*
X624Y20158D01*
X621Y20154D01*
X614Y20149D01*
X605Y20144D01*
X593Y20138D01*
X579Y20133D01*
X562Y20129D01*
X553Y20128D01*
X543Y20128D01*
X537Y20128D01*
X533Y20128D01*
X528Y20129D01*
X522Y20130D01*
X510Y20133D01*
X495Y20137D01*
X480Y20145D01*
X473Y20150D01*
X466Y20155D01*
X460Y20161D01*
X454Y20168D01*
X454Y20169D01*
X453Y20170D01*
X451Y20173D01*
X450Y20176D01*
X447Y20180D01*
X445Y20185D01*
X442Y20192D01*
X439Y20199D01*
X437Y20207D01*
X434Y20216D01*
X432Y20227D01*
X430Y20239D01*
X428Y20250D01*
X427Y20264D01*
X425Y20278D01*
X425Y20293D01*
X425Y20294D01*
X425Y20295D01*
X425Y20299D01*
X425Y20306D01*
X426Y20315D01*
X427Y20325D01*
X427Y20337D01*
X429Y20350D01*
X431Y20363D01*
X431Y20364D01*
X431Y20364D01*
X432Y20367D01*
X432Y20370D01*
X433Y20377D01*
X435Y20387D01*
X437Y20398D01*
X440Y20412D01*
X443Y20427D01*
X447Y20443D01*
X538Y20443D01*
X538Y20442D01*
X537Y20441D01*
X536Y20439D01*
X535Y20436D01*
X532Y20429D01*
X529Y20419D01*
X524Y20407D01*
X521Y20395D01*
X517Y20381D01*
X513Y20368D01*
X513Y20367D01*
X513Y20367D01*
X512Y20362D01*
X510Y20355D01*
X509Y20347D01*
X507Y20336D01*
X507Y20324D01*
X505Y20313D01*
X505Y20301D01*
X505Y20300D01*
X505Y20299D01*
X505Y20295D01*
X506Y20289D01*
X506Y20281D01*
X507Y20273D01*
X509Y20264D01*
X511Y20256D01*
X514Y20250D01*
X515Y20249D01*
X515Y20247D01*
X518Y20244D01*
X521Y20241D01*
X524Y20239D01*
X529Y20236D01*
X535Y20234D01*
X541Y20233D01*
X543Y20233D01*
X546Y20234D01*
X549Y20235D01*
X552Y20236D01*
X556Y20239D01*
X560Y20241D01*
X563Y20245D01*
X563Y20246D01*
X564Y20247D01*
X565Y20251D01*
X567Y20256D01*
X569Y20261D01*
X571Y20270D01*
X572Y20279D01*
X574Y20290D01*
X577Y20312D01*
X577Y20313D01*
X578Y20315D01*
X578Y20321D01*
X579Y20327D01*
X581Y20334D01*
X582Y20343D01*
X584Y20352D01*
X587Y20361D01*
X592Y20382D01*
X598Y20403D01*
X602Y20412D01*
X606Y20421D01*
X611Y20429D01*
X616Y20435D01*
X616Y20436D01*
X618Y20437D01*
X621Y20441D01*
X627Y20446D01*
X637Y20452D01*
X648Y20458D01*
X663Y20463D01*
X680Y20466D01*
X689Y20468D01*
X706Y20468D01*
X709Y20467D01*
X709Y20467D02*
G37*
G36*
X1784Y11142D02*
X1787Y11141D01*
X1793Y11133D01*
X1801Y11120D01*
X1811Y11105D01*
X1821Y11087D01*
X1829Y11069D01*
X1834Y11052D01*
X1837Y11037D01*
X1837Y11035D01*
X1836Y11034D01*
X1833Y11026D01*
X1828Y11015D01*
X1821Y11001D01*
X1812Y10987D01*
X1804Y10976D01*
X1794Y10967D01*
X1790Y10966D01*
X1784Y10965D01*
X1712Y10965D01*
X1710Y10966D01*
X1704Y10967D01*
X1697Y10972D01*
X1689Y10979D01*
X1679Y10987D01*
X1669Y11001D01*
X1660Y11019D01*
X1660Y11073D01*
X1660Y11074D01*
X1661Y11076D01*
X1665Y11084D01*
X1673Y11095D01*
X1686Y11109D01*
X1703Y11121D01*
X1725Y11133D01*
X1737Y11137D01*
X1751Y11141D01*
X1768Y11142D01*
X1784Y11144D01*
X1784Y11142D01*
X1784Y11142D02*
G37*
G36*
X787Y24296D02*
X794Y24295D01*
X803Y24294D01*
X813Y24292D01*
X823Y24289D01*
X834Y24286D01*
X846Y24283D01*
X857Y24278D01*
X868Y24272D01*
X880Y24266D01*
X891Y24258D01*
X900Y24249D01*
X910Y24239D01*
X911Y24238D01*
X912Y24236D01*
X914Y24233D01*
X917Y24229D01*
X921Y24223D01*
X925Y24215D01*
X929Y24206D01*
X934Y24197D01*
X939Y24186D01*
X942Y24174D01*
X947Y24160D01*
X951Y24145D01*
X954Y24129D01*
X956Y24112D01*
X957Y24093D01*
X958Y24073D01*
X958Y24072D01*
X958Y24072D01*
X958Y24067D01*
X958Y24060D01*
X957Y24051D01*
X957Y24041D01*
X956Y24030D01*
X952Y24004D01*
X952Y24003D01*
X951Y23998D01*
X950Y23993D01*
X948Y23984D01*
X946Y23974D01*
X943Y23963D01*
X940Y23951D01*
X937Y23939D01*
X843Y23939D01*
X844Y23941D01*
X846Y23944D01*
X849Y23950D01*
X853Y23959D01*
X857Y23968D01*
X862Y23979D01*
X866Y23990D01*
X870Y24001D01*
X870Y24002D01*
X871Y24006D01*
X873Y24012D01*
X874Y24020D01*
X876Y24029D01*
X877Y24039D01*
X878Y24050D01*
X879Y24061D01*
X879Y24062D01*
X879Y24064D01*
X879Y24067D01*
X878Y24071D01*
X878Y24076D01*
X877Y24081D01*
X876Y24095D01*
X872Y24109D01*
X868Y24123D01*
X862Y24136D01*
X857Y24143D01*
X853Y24148D01*
X851Y24149D01*
X848Y24152D01*
X842Y24157D01*
X833Y24162D01*
X822Y24167D01*
X808Y24172D01*
X791Y24175D01*
X772Y24176D01*
X746Y24176D01*
X748Y24175D01*
X752Y24172D01*
X757Y24166D01*
X765Y24160D01*
X773Y24152D01*
X781Y24142D01*
X789Y24132D01*
X795Y24121D01*
X796Y24119D01*
X797Y24115D01*
X800Y24109D01*
X803Y24101D01*
X806Y24091D01*
X808Y24079D01*
X809Y24066D01*
X810Y24052D01*
X810Y24051D01*
X810Y24049D01*
X809Y24045D01*
X809Y24041D01*
X809Y24035D01*
X807Y24027D01*
X806Y24020D01*
X803Y24012D01*
X800Y24003D01*
X797Y23994D01*
X792Y23984D01*
X787Y23975D01*
X781Y23965D01*
X774Y23956D01*
X766Y23947D01*
X756Y23938D01*
X755Y23937D01*
X754Y23936D01*
X750Y23933D01*
X746Y23931D01*
X741Y23927D01*
X735Y23924D01*
X727Y23920D01*
X718Y23916D01*
X709Y23911D01*
X698Y23907D01*
X687Y23904D01*
X675Y23900D01*
X662Y23898D01*
X648Y23896D01*
X634Y23894D01*
X618Y23893D01*
X610Y23893D01*
X604Y23894D01*
X597Y23895D01*
X589Y23896D01*
X579Y23897D01*
X569Y23899D01*
X547Y23905D01*
X536Y23908D01*
X524Y23912D01*
X513Y23917D01*
X501Y23923D01*
X490Y23930D01*
X480Y23938D01*
X479Y23939D01*
X478Y23940D01*
X475Y23942D01*
X472Y23946D01*
X467Y23950D01*
X463Y23956D01*
X458Y23962D01*
X453Y23969D01*
X448Y23977D01*
X443Y23985D01*
X439Y23995D01*
X434Y24005D01*
X431Y24016D01*
X428Y24027D01*
X427Y24039D01*
X426Y24052D01*
X426Y24053D01*
X426Y24053D01*
X426Y24055D01*
X426Y24058D01*
X427Y24066D01*
X428Y24075D01*
X430Y24086D01*
X433Y24098D01*
X436Y24109D01*
X441Y24121D01*
X442Y24122D01*
X444Y24126D01*
X448Y24132D01*
X453Y24139D01*
X460Y24147D01*
X469Y24157D01*
X478Y24166D01*
X490Y24176D01*
X434Y24176D01*
X434Y24297D01*
X781Y24297D01*
X787Y24296D01*
X787Y24296D02*
G37*
G36*
X2510Y10144D02*
X2526Y10143D01*
X2544Y10139D01*
X2563Y10133D01*
X2580Y10124D01*
X2595Y10111D01*
X2599Y10103D01*
X2603Y10093D01*
X2603Y10039D01*
X2603Y10037D01*
X2602Y10035D01*
X2599Y10028D01*
X2594Y10021D01*
X2585Y10010D01*
X2573Y9999D01*
X2565Y9992D01*
X2555Y9983D01*
X2544Y9976D01*
X2531Y9968D01*
X2495Y9968D01*
X2494Y9969D01*
X2485Y9974D01*
X2474Y9982D01*
X2460Y9994D01*
X2448Y10011D01*
X2437Y10033D01*
X2433Y10046D01*
X2429Y10060D01*
X2427Y10076D01*
X2426Y10093D01*
X2497Y10146D01*
X2505Y10146D01*
X2510Y10144D01*
X2510Y10144D02*
G37*
G36*
X810Y23685D02*
X434Y23685D01*
X434Y23805D01*
X810Y23805D01*
X810Y23685D01*
X810Y23685D02*
G37*
G36*
X810Y21280D02*
X755Y21280D01*
X756Y21279D01*
X760Y21275D01*
X766Y21270D01*
X774Y21263D01*
X782Y21255D01*
X790Y21246D01*
X798Y21236D01*
X805Y21225D01*
X806Y21223D01*
X807Y21220D01*
X809Y21213D01*
X812Y21205D01*
X815Y21194D01*
X817Y21181D01*
X819Y21167D01*
X820Y21152D01*
X820Y21151D01*
X820Y21149D01*
X820Y21147D01*
X819Y21142D01*
X819Y21137D01*
X818Y21132D01*
X815Y21118D01*
X811Y21104D01*
X806Y21088D01*
X797Y21073D01*
X792Y21065D01*
X786Y21058D01*
X786Y21057D01*
X785Y21056D01*
X783Y21055D01*
X780Y21052D01*
X773Y21047D01*
X763Y21040D01*
X749Y21033D01*
X735Y21027D01*
X717Y21023D01*
X708Y21022D01*
X698Y21021D01*
X691Y21021D01*
X686Y21022D01*
X681Y21023D01*
X675Y21024D01*
X661Y21027D01*
X645Y21033D01*
X637Y21036D01*
X629Y21041D01*
X621Y21046D01*
X614Y21052D01*
X606Y21058D01*
X601Y21067D01*
X600Y21067D01*
X599Y21069D01*
X598Y21072D01*
X595Y21075D01*
X593Y21080D01*
X591Y21086D01*
X588Y21093D01*
X585Y21101D01*
X582Y21111D01*
X579Y21121D01*
X577Y21133D01*
X575Y21146D01*
X572Y21160D01*
X571Y21175D01*
X569Y21192D01*
X569Y21209D01*
X569Y21280D01*
X556Y21280D01*
X551Y21278D01*
X544Y21277D01*
X538Y21274D01*
X530Y21270D01*
X524Y21264D01*
X518Y21257D01*
X518Y21256D01*
X516Y21252D01*
X514Y21247D01*
X512Y21240D01*
X510Y21230D01*
X507Y21218D01*
X506Y21203D01*
X505Y21187D01*
X505Y21186D01*
X505Y21186D01*
X505Y21184D01*
X505Y21181D01*
X506Y21173D01*
X506Y21164D01*
X507Y21152D01*
X509Y21141D01*
X510Y21128D01*
X513Y21115D01*
X513Y21114D01*
X515Y21110D01*
X516Y21104D01*
X519Y21095D01*
X522Y21086D01*
X526Y21075D01*
X531Y21065D01*
X536Y21054D01*
X444Y21054D01*
X444Y21055D01*
X444Y21056D01*
X444Y21058D01*
X443Y21061D01*
X441Y21068D01*
X439Y21078D01*
X437Y21090D01*
X435Y21103D01*
X433Y21117D01*
X430Y21131D01*
X430Y21132D01*
X430Y21132D01*
X430Y21135D01*
X430Y21138D01*
X429Y21146D01*
X427Y21155D01*
X427Y21167D01*
X426Y21181D01*
X425Y21195D01*
X425Y21209D01*
X425Y21211D01*
X425Y21214D01*
X425Y21219D01*
X426Y21226D01*
X427Y21235D01*
X427Y21244D01*
X429Y21255D01*
X430Y21266D01*
X435Y21290D01*
X442Y21314D01*
X447Y21326D01*
X453Y21337D01*
X459Y21347D01*
X466Y21356D01*
X467Y21357D01*
X468Y21358D01*
X470Y21360D01*
X473Y21363D01*
X478Y21366D01*
X483Y21370D01*
X490Y21374D01*
X497Y21379D01*
X506Y21383D01*
X515Y21387D01*
X526Y21391D01*
X538Y21394D01*
X550Y21397D01*
X564Y21399D01*
X580Y21400D01*
X596Y21401D01*
X810Y21401D01*
X810Y21280D01*
X810Y21280D02*
G37*
%LPC*%
G36*
X1288Y22963D02*
X1280Y22963D01*
X1276Y22962D01*
X1269Y22962D01*
X1263Y22961D01*
X1255Y22960D01*
X1246Y22958D01*
X1228Y22953D01*
X1218Y22950D01*
X1209Y22945D01*
X1200Y22940D01*
X1191Y22935D01*
X1182Y22928D01*
X1175Y22921D01*
X1174Y22920D01*
X1173Y22919D01*
X1171Y22917D01*
X1169Y22914D01*
X1166Y22909D01*
X1162Y22904D01*
X1158Y22897D01*
X1155Y22891D01*
X1152Y22883D01*
X1148Y22873D01*
X1144Y22863D01*
X1141Y22852D01*
X1139Y22840D01*
X1137Y22828D01*
X1136Y22814D01*
X1135Y22800D01*
X1135Y22754D01*
X1441Y22754D01*
X1441Y22800D01*
X1441Y22800D01*
X1441Y22803D01*
X1441Y22807D01*
X1440Y22813D01*
X1440Y22820D01*
X1439Y22827D01*
X1438Y22835D01*
X1436Y22845D01*
X1431Y22864D01*
X1425Y22884D01*
X1420Y22894D01*
X1414Y22904D01*
X1408Y22913D01*
X1402Y22921D01*
X1401Y22922D01*
X1400Y22923D01*
X1397Y22925D01*
X1394Y22928D01*
X1391Y22931D01*
X1385Y22934D01*
X1380Y22938D01*
X1373Y22943D01*
X1366Y22946D01*
X1357Y22950D01*
X1347Y22954D01*
X1337Y22957D01*
X1326Y22960D01*
X1314Y22962D01*
X1301Y22962D01*
X1288Y22963D01*
X1288Y22963D02*
G37*
G36*
X1303Y22394D02*
X1282Y22394D01*
X1276Y22393D01*
X1269Y22393D01*
X1262Y22393D01*
X1254Y22391D01*
X1244Y22390D01*
X1224Y22386D01*
X1204Y22380D01*
X1184Y22373D01*
X1175Y22368D01*
X1166Y22362D01*
X1166Y22362D01*
X1164Y22360D01*
X1162Y22358D01*
X1160Y22356D01*
X1152Y22348D01*
X1144Y22338D01*
X1136Y22325D01*
X1129Y22309D01*
X1126Y22300D01*
X1124Y22291D01*
X1123Y22280D01*
X1122Y22269D01*
X1122Y22268D01*
X1122Y22267D01*
X1122Y22263D01*
X1123Y22259D01*
X1124Y22254D01*
X1124Y22248D01*
X1127Y22236D01*
X1133Y22221D01*
X1136Y22213D01*
X1141Y22205D01*
X1146Y22198D01*
X1152Y22191D01*
X1158Y22184D01*
X1166Y22177D01*
X1167Y22177D01*
X1169Y22176D01*
X1171Y22174D01*
X1175Y22172D01*
X1179Y22170D01*
X1184Y22167D01*
X1191Y22165D01*
X1198Y22162D01*
X1206Y22159D01*
X1215Y22156D01*
X1226Y22153D01*
X1237Y22151D01*
X1249Y22148D01*
X1261Y22147D01*
X1274Y22146D01*
X1289Y22146D01*
X1297Y22146D01*
X1302Y22146D01*
X1309Y22146D01*
X1317Y22147D01*
X1325Y22148D01*
X1334Y22149D01*
X1354Y22154D01*
X1374Y22159D01*
X1394Y22167D01*
X1403Y22171D01*
X1411Y22177D01*
X1412Y22178D01*
X1414Y22179D01*
X1415Y22181D01*
X1418Y22183D01*
X1425Y22191D01*
X1433Y22201D01*
X1441Y22214D01*
X1448Y22230D01*
X1451Y22239D01*
X1453Y22248D01*
X1454Y22258D01*
X1455Y22269D01*
X1455Y22270D01*
X1455Y22272D01*
X1455Y22275D01*
X1454Y22279D01*
X1454Y22284D01*
X1453Y22290D01*
X1450Y22303D01*
X1445Y22318D01*
X1441Y22326D01*
X1437Y22333D01*
X1431Y22341D01*
X1425Y22348D01*
X1419Y22355D01*
X1411Y22362D01*
X1411Y22362D01*
X1409Y22363D01*
X1407Y22365D01*
X1403Y22367D01*
X1399Y22369D01*
X1394Y22372D01*
X1387Y22375D01*
X1380Y22378D01*
X1371Y22381D01*
X1363Y22384D01*
X1352Y22387D01*
X1341Y22389D01*
X1330Y22391D01*
X1317Y22393D01*
X1303Y22394D01*
X1303Y22394D02*
G37*
G36*
X1201Y21134D02*
X1196Y21134D01*
X1189Y21133D01*
X1182Y21132D01*
X1174Y21129D01*
X1165Y21125D01*
X1157Y21120D01*
X1149Y21113D01*
X1149Y21112D01*
X1146Y21110D01*
X1144Y21104D01*
X1140Y21098D01*
X1137Y21090D01*
X1134Y21080D01*
X1132Y21068D01*
X1131Y21055D01*
X1131Y20984D01*
X1272Y20984D01*
X1272Y21055D01*
X1272Y21056D01*
X1272Y21056D01*
X1272Y21061D01*
X1271Y21068D01*
X1269Y21076D01*
X1267Y21086D01*
X1264Y21095D01*
X1260Y21105D01*
X1254Y21113D01*
X1253Y21114D01*
X1250Y21116D01*
X1246Y21120D01*
X1240Y21124D01*
X1233Y21127D01*
X1223Y21131D01*
X1213Y21133D01*
X1201Y21134D01*
X1201Y21134D02*
G37*
G36*
X2042Y19926D02*
X2036Y19926D01*
X2030Y19925D01*
X2022Y19923D01*
X2014Y19920D01*
X2004Y19917D01*
X1995Y19911D01*
X1987Y19905D01*
X1987Y19904D01*
X1984Y19901D01*
X1981Y19897D01*
X1976Y19891D01*
X1972Y19883D01*
X1969Y19874D01*
X1967Y19864D01*
X1966Y19853D01*
X1966Y19852D01*
X1966Y19852D01*
X1966Y19847D01*
X1967Y19841D01*
X1968Y19833D01*
X1971Y19824D01*
X1974Y19815D01*
X1979Y19805D01*
X1986Y19796D01*
X1987Y19795D01*
X1989Y19792D01*
X1994Y19789D01*
X2001Y19785D01*
X2008Y19780D01*
X2018Y19775D01*
X2029Y19772D01*
X2042Y19769D01*
X2042Y19926D01*
X2042Y19926D02*
G37*
G36*
X1927Y19410D02*
X1921Y19410D01*
X1915Y19409D01*
X1908Y19408D01*
X1900Y19405D01*
X1892Y19402D01*
X1884Y19398D01*
X1878Y19392D01*
X1877Y19391D01*
X1876Y19388D01*
X1873Y19384D01*
X1870Y19378D01*
X1867Y19370D01*
X1865Y19359D01*
X1864Y19348D01*
X1863Y19333D01*
X1863Y19279D01*
X1992Y19279D01*
X1992Y19333D01*
X1992Y19334D01*
X1992Y19334D01*
X1992Y19336D01*
X1992Y19339D01*
X1991Y19347D01*
X1989Y19356D01*
X1988Y19365D01*
X1986Y19375D01*
X1982Y19385D01*
X1977Y19392D01*
X1976Y19393D01*
X1974Y19395D01*
X1970Y19398D01*
X1965Y19401D01*
X1958Y19404D01*
X1950Y19407D01*
X1939Y19409D01*
X1927Y19410D01*
X1927Y19410D02*
G37*
G36*
X2146Y21333D02*
X2141Y21333D01*
X2135Y21333D01*
X2128Y21331D01*
X2120Y21328D01*
X2112Y21325D01*
X2104Y21320D01*
X2097Y21313D01*
X2096Y21313D01*
X2095Y21310D01*
X2092Y21305D01*
X2089Y21299D01*
X2086Y21291D01*
X2083Y21280D01*
X2082Y21268D01*
X2081Y21254D01*
X2081Y21179D01*
X2212Y21179D01*
X2212Y21254D01*
X2212Y21255D01*
X2212Y21256D01*
X2212Y21258D01*
X2212Y21261D01*
X2211Y21268D01*
X2210Y21276D01*
X2208Y21286D01*
X2205Y21296D01*
X2201Y21305D01*
X2196Y21313D01*
X2195Y21314D01*
X2193Y21316D01*
X2189Y21320D01*
X2183Y21324D01*
X2176Y21327D01*
X2168Y21330D01*
X2158Y21333D01*
X2146Y21333D01*
X2146Y21333D02*
G37*
G36*
X1940Y21313D02*
X1936Y21313D01*
X1931Y21312D01*
X1926Y21310D01*
X1920Y21309D01*
X1913Y21306D01*
X1906Y21302D01*
X1901Y21296D01*
X1900Y21296D01*
X1899Y21293D01*
X1897Y21290D01*
X1894Y21285D01*
X1892Y21278D01*
X1889Y21271D01*
X1888Y21261D01*
X1887Y21250D01*
X1887Y21179D01*
X1993Y21179D01*
X1993Y21250D01*
X1993Y21251D01*
X1993Y21255D01*
X1992Y21260D01*
X1991Y21268D01*
X1990Y21275D01*
X1987Y21282D01*
X1984Y21290D01*
X1980Y21296D01*
X1979Y21297D01*
X1977Y21299D01*
X1974Y21302D01*
X1970Y21305D01*
X1964Y21308D01*
X1957Y21310D01*
X1949Y21312D01*
X1940Y21313D01*
X1940Y21313D02*
G37*
G36*
X623Y19937D02*
X614Y19937D01*
X609Y19937D01*
X604Y19937D01*
X592Y19934D01*
X579Y19932D01*
X565Y19928D01*
X552Y19923D01*
X540Y19916D01*
X538Y19915D01*
X535Y19912D01*
X531Y19907D01*
X525Y19900D01*
X520Y19892D01*
X515Y19882D01*
X513Y19870D01*
X511Y19856D01*
X511Y19855D01*
X511Y19854D01*
X511Y19852D01*
X512Y19849D01*
X513Y19842D01*
X515Y19834D01*
X518Y19823D01*
X523Y19814D01*
X530Y19804D01*
X540Y19795D01*
X541Y19795D01*
X545Y19792D01*
X552Y19789D01*
X561Y19785D01*
X572Y19781D01*
X587Y19778D01*
X604Y19775D01*
X623Y19775D01*
X632Y19775D01*
X636Y19775D01*
X641Y19776D01*
X653Y19778D01*
X666Y19780D01*
X680Y19783D01*
X694Y19789D01*
X706Y19795D01*
X707Y19796D01*
X710Y19799D01*
X715Y19804D01*
X720Y19811D01*
X725Y19819D01*
X729Y19829D01*
X732Y19842D01*
X734Y19856D01*
X734Y19857D01*
X734Y19857D01*
X734Y19860D01*
X733Y19863D01*
X732Y19869D01*
X730Y19878D01*
X727Y19888D01*
X722Y19898D01*
X715Y19908D01*
X706Y19916D01*
X704Y19917D01*
X700Y19920D01*
X694Y19923D01*
X684Y19927D01*
X672Y19931D01*
X658Y19934D01*
X642Y19937D01*
X623Y19937D01*
X623Y19937D02*
G37*
G36*
X559Y22584D02*
X552Y22584D01*
X547Y22584D01*
X541Y22583D01*
X534Y22582D01*
X526Y22581D01*
X517Y22579D01*
X499Y22574D01*
X490Y22571D01*
X480Y22567D01*
X471Y22561D01*
X462Y22556D01*
X453Y22550D01*
X446Y22542D01*
X445Y22541D01*
X444Y22540D01*
X442Y22538D01*
X440Y22535D01*
X437Y22530D01*
X433Y22525D01*
X430Y22518D01*
X426Y22512D01*
X423Y22504D01*
X419Y22494D01*
X416Y22484D01*
X413Y22473D01*
X410Y22462D01*
X408Y22449D01*
X407Y22436D01*
X407Y22421D01*
X407Y22375D01*
X712Y22375D01*
X712Y22421D01*
X712Y22422D01*
X712Y22424D01*
X712Y22428D01*
X712Y22434D01*
X711Y22441D01*
X710Y22448D01*
X709Y22456D01*
X707Y22466D01*
X703Y22485D01*
X696Y22505D01*
X692Y22516D01*
X686Y22525D01*
X680Y22534D01*
X673Y22542D01*
X672Y22543D01*
X671Y22544D01*
X669Y22546D01*
X666Y22549D01*
X662Y22552D01*
X657Y22555D01*
X651Y22559D01*
X644Y22564D01*
X637Y22567D01*
X628Y22571D01*
X618Y22575D01*
X609Y22578D01*
X598Y22581D01*
X586Y22583D01*
X572Y22584D01*
X559Y22584D01*
X559Y22584D02*
G37*
G36*
X581Y23062D02*
X575Y23062D01*
X569Y23062D01*
X561Y23060D01*
X553Y23057D01*
X544Y23054D01*
X535Y23048D01*
X527Y23042D01*
X526Y23041D01*
X523Y23038D01*
X520Y23034D01*
X515Y23028D01*
X512Y23020D01*
X508Y23011D01*
X506Y23001D01*
X505Y22990D01*
X505Y22989D01*
X505Y22988D01*
X505Y22984D01*
X506Y22978D01*
X507Y22970D01*
X510Y22961D01*
X513Y22951D01*
X518Y22942D01*
X525Y22933D01*
X526Y22932D01*
X529Y22929D01*
X533Y22925D01*
X540Y22922D01*
X547Y22917D01*
X557Y22912D01*
X569Y22908D01*
X581Y22905D01*
X581Y23062D01*
X581Y23062D02*
G37*
G36*
X623Y20837D02*
X614Y20837D01*
X609Y20836D01*
X604Y20836D01*
X592Y20835D01*
X579Y20832D01*
X566Y20828D01*
X553Y20823D01*
X541Y20816D01*
X540Y20816D01*
X537Y20813D01*
X532Y20808D01*
X527Y20802D01*
X521Y20794D01*
X517Y20783D01*
X514Y20771D01*
X513Y20757D01*
X513Y20757D01*
X513Y20756D01*
X513Y20751D01*
X514Y20744D01*
X516Y20736D01*
X519Y20726D01*
X524Y20716D01*
X532Y20707D01*
X541Y20698D01*
X543Y20697D01*
X547Y20695D01*
X553Y20691D01*
X562Y20688D01*
X574Y20685D01*
X587Y20681D01*
X604Y20679D01*
X623Y20678D01*
X632Y20678D01*
X636Y20679D01*
X641Y20679D01*
X653Y20680D01*
X666Y20683D01*
X680Y20686D01*
X692Y20691D01*
X704Y20698D01*
X706Y20699D01*
X709Y20702D01*
X713Y20707D01*
X718Y20714D01*
X723Y20722D01*
X728Y20732D01*
X731Y20744D01*
X732Y20757D01*
X732Y20758D01*
X732Y20759D01*
X732Y20761D01*
X732Y20764D01*
X731Y20771D01*
X729Y20779D01*
X726Y20789D01*
X720Y20799D01*
X714Y20808D01*
X704Y20816D01*
X703Y20817D01*
X699Y20819D01*
X692Y20823D01*
X683Y20827D01*
X672Y20831D01*
X658Y20834D01*
X641Y20836D01*
X623Y20837D01*
X623Y20837D02*
G37*
G36*
X618Y24176D02*
X610Y24176D01*
X606Y24175D01*
X601Y24175D01*
X589Y24173D01*
X577Y24171D01*
X564Y24167D01*
X552Y24162D01*
X541Y24155D01*
X539Y24154D01*
X536Y24151D01*
X532Y24146D01*
X527Y24140D01*
X521Y24131D01*
X517Y24121D01*
X514Y24109D01*
X513Y24096D01*
X513Y24095D01*
X513Y24095D01*
X513Y24090D01*
X514Y24084D01*
X516Y24075D01*
X519Y24066D01*
X524Y24056D01*
X531Y24047D01*
X541Y24038D01*
X542Y24038D01*
X546Y24035D01*
X552Y24032D01*
X561Y24028D01*
X572Y24024D01*
X585Y24021D01*
X601Y24018D01*
X618Y24018D01*
X626Y24018D01*
X631Y24018D01*
X636Y24018D01*
X647Y24020D01*
X660Y24023D01*
X672Y24026D01*
X685Y24031D01*
X696Y24038D01*
X698Y24038D01*
X700Y24041D01*
X704Y24046D01*
X709Y24053D01*
X715Y24061D01*
X718Y24071D01*
X721Y24083D01*
X723Y24096D01*
X723Y24097D01*
X723Y24098D01*
X722Y24102D01*
X721Y24109D01*
X719Y24118D01*
X716Y24127D01*
X711Y24137D01*
X704Y24146D01*
X695Y24155D01*
X694Y24155D01*
X690Y24158D01*
X684Y24161D01*
X675Y24166D01*
X664Y24169D01*
X651Y24173D01*
X636Y24175D01*
X618Y24176D01*
X618Y24176D02*
G37*
G36*
X655Y21280D02*
X641Y21280D01*
X641Y21218D01*
X641Y21217D01*
X641Y21216D01*
X641Y21212D01*
X642Y21205D01*
X643Y21196D01*
X644Y21187D01*
X647Y21178D01*
X650Y21169D01*
X655Y21161D01*
X655Y21161D01*
X657Y21158D01*
X660Y21155D01*
X664Y21152D01*
X669Y21149D01*
X675Y21146D01*
X683Y21144D01*
X692Y21143D01*
X695Y21143D01*
X700Y21144D01*
X705Y21145D01*
X710Y21147D01*
X716Y21149D01*
X722Y21152D01*
X727Y21158D01*
X728Y21158D01*
X729Y21161D01*
X731Y21164D01*
X733Y21169D01*
X736Y21175D01*
X737Y21182D01*
X739Y21190D01*
X740Y21200D01*
X740Y21201D01*
X740Y21201D01*
X739Y21206D01*
X738Y21212D01*
X737Y21219D01*
X734Y21228D01*
X729Y21238D01*
X724Y21247D01*
X716Y21256D01*
X715Y21257D01*
X712Y21260D01*
X706Y21263D01*
X699Y21268D01*
X690Y21272D01*
X680Y21276D01*
X669Y21279D01*
X655Y21280D01*
X655Y21280D02*
G37*
%LPD*%
D10*
X4070Y9170D02*
X3970Y9170D01*
X4020Y9170D01*
X4020Y8920D01*
X3970Y8870D01*
X3920Y8870D01*
X3870Y8920D01*
X4170Y8870D02*
X4270Y8870D01*
X4220Y8870D01*
X4220Y9170D01*
X4170Y9120D01*
X4040Y19010D02*
X3940Y19010D01*
X3990Y19010D01*
X3990Y18760D01*
X3940Y18710D01*
X3890Y18710D01*
X3840Y18760D01*
X4340Y18710D02*
X4140Y18710D01*
X4340Y18910D01*
X4340Y18960D01*
X4290Y19010D01*
X4190Y19010D01*
X4140Y18960D01*
D47*
X3543Y0D02*
X3543Y26772D01*
X837Y9319D02*
X3209Y9319D01*
X3071Y3600D02*
X3171Y3600D01*
X3209Y3029D02*
X3209Y9319D01*
X837Y3029D02*
X3209Y3029D01*
X837Y3029D02*
X837Y9319D01*
X837Y18319D02*
X3209Y18319D01*
X3071Y12600D02*
X3171Y12600D01*
X3209Y12029D02*
X3209Y18319D01*
X837Y12029D02*
X3209Y12029D01*
X837Y12029D02*
X837Y18319D01*
M02*
