M48
;Layer_Color=9474304
;FILE_FORMAT=2:4
INCH,LZ
;TYPE=PLATED
T1F00S00C0.0100
T2F00S00C0.0400
T3F00S00C0.1250
%
T01
X00923Y01071
X01048
X008Y012853
X0133Y0133
X01438Y01342
X01435Y01285
X01495Y01345
X01548Y01463
Y01501
X01375Y01164
X014395Y010415
X01735Y0099
X02532Y00961
X02724Y00932
X028507Y011055
X0284Y0133
X02785Y01295
X0289Y0138
X02935Y01425
X03253Y013978
X03294Y01438
X033401Y014724
X033417Y013622
X033Y01361
X034598Y013528
X035621Y013622
X036566
X037117Y013528
X037275Y012362
X036487
X0357
X034755
X033338Y011732
X033275Y011024
Y010472
Y01
Y00937
Y008189
Y007795
X033873Y007543
X034976
X034913Y006472
X03381
X03255Y0062
X03335Y005092
X03481Y004732
X036078Y00524
X03653Y005313
X037354Y00524
X038141Y005339
Y00651
X037826Y00639
X037653Y007543
X036393
X036529Y006462
X039196Y007606
X03961Y007387
X03954Y007953
X040568Y008362
X040999Y009616
X0394Y00945
X038062Y00937
Y010787
X039322Y010945
X040537
X04085Y011417
X039243Y012803
X038712Y012752
X039243Y014026
X04015Y014598
X038283Y014917
X036881Y015088
X036487Y014724
X036172Y015039
X035606Y014724
X034361Y015055
X031999Y01165
X03091Y011654
X030602Y010236
X030255Y00978
X030563Y0093
X03177Y009291
X03176Y00971
X032102Y009921
Y010551
X03184Y008031
X031918Y007612
X031452Y00716
X030713Y007953
X03013Y0066
X0318Y0048
Y00425
Y00365
Y00305
X041185Y005406
X041145Y005906
X041684
X042046Y005909
X042275Y005126
X042755Y005576
X043955Y006346
Y006746
X041165Y006656
X0428Y0137
X0425Y01415
Y01478
X0428Y0155
X04315Y01595
X0437Y0163
X04405Y0166
X04445Y01695
X04485Y0173
X0387Y0172
X03849Y01759
X0387Y01649
X0396Y01605
X03985Y0154
X036696Y01555
X037511Y018
X03383Y01827
X03025Y019
X029681Y021601
X03105Y022
X0323Y0224
X033417Y02283
X02799Y022425
X027
X026
X025
X0251Y02086
X024292Y02121
X0222Y02155
X02053Y02142
X018874Y0215
X018574Y022073
X01499Y02205
X01635Y023667
X02053Y02413
X02054Y02525
X023Y0234
X023111Y016775
X022717
X023505
X023898
X024292
X024686
X026041Y015749
X021592
X018164Y015859
X017481Y015448
X016497Y015846
X01548Y01577
Y01615
Y01539
X01786Y017485
X01816Y017735
X018574
X018874Y017485
X028545Y021305
X009407Y02044
X009558Y01958
X00792Y01871
X00792Y01736
X008865Y016515
X00755Y0156
X00652Y01654
X005558Y020037
Y020509
Y021139
Y021612
X011261Y017547
X01137Y015947
T02
X0015Y0036
X0025
Y0046
Y0056
Y0066
Y0076
Y0086
X0015
Y0076
Y0066
Y0056
Y0046
Y0126
X0025
Y0136
Y0146
X0015
Y0136
X014Y026
X015
X016
X017
X018
X023
X024
X025
X026
X027
X028
X013
X0025Y0176
Y0166
Y0156
X0015
Y0166
Y0176
T03
X00092Y00096
X046Y001
Y026
X001Y02601
M30
