M48
;Layer_Color=9474304
;FILE_FORMAT=2:5
INCH,LZ
;TYPE=PLATED
T1F00S00C0.01000
T2F00S00C0.04000
T3F00S00C0.04016
T4F00S00C0.12500
;TYPE=NON_PLATED
T5F00S00C0.06299
T6F00S00C0.07087
%
T01
X00071Y0034239
Y00554
X0037135Y00739
X00408Y00839
Y00932
X00375Y00967
X00408Y01041
X0040832Y0108069
X0043431Y0111831
X00413Y01239
X00556Y01186
X0057569Y0132269
X00613Y01459
X00454Y0148
X00313Y01473
X00262Y01409
X00313Y01092
X00228Y00941
Y00892
X00493Y00875
Y0079
X00552Y00699
X0068968Y00687
X0078158
X00906Y00654
X0097637Y00688
X00993Y0074
X01033Y00739
X01139Y00789
X01099Y0087532
X01072Y010168
Y0110869
X01055Y01213
X00991Y01279
Y01324
X00918Y01359
X0088Y01281
X0078811
X00781Y01338
X0091842Y0107258
X0091Y0102
X00843Y0092
X0074547Y00894
X0070279Y0089379
X00688Y00854
X00633Y00895
Y01033
X01188Y0107258
X01237
X01223Y0113
X01187Y01336
X01205Y01405
X01206Y01455
X01069Y01505
X010725Y006195
X01073Y00569
Y00525
X01133Y00404
X0115443Y0019061
X0127957Y0019139
X01333Y00144
X01343Y00234
X01253Y00278
X0102035Y00194
X00973
X00933Y00144
X00885Y00191
X0085843Y0027761
X00873Y00404
X00646
X00653Y00194
X0060716Y0019376
X00749Y00191
X01278Y0061665
X01403Y00749
X01413Y00837
X0138491Y0087691
X01413Y00911
X0138491Y00946
X0140209Y0101091
X01505Y0101
X0151691Y0094509
X01463Y01094
X01647Y0108332
Y0112269
Y0118175
X0164851Y01262
X0172725Y0125925
X0176662Y0125962
X01834Y01258
Y01215
X0188473Y01262
X01938Y01244
X0198325Y012612
X02028Y01234
X02067
X02111
X02156Y012449
X0223906
X02313Y01221
X02285Y01185
X02175Y01162
Y0110301
X02254Y01024
X02338Y00954
X0234001Y0080773
X02295Y0078
X02258Y00749
X0232Y0071
X02319Y00665
X02308Y0061857
X02259Y00574
X02219
X02121
X02123Y00613
X0208158Y00614
X02042Y00574
X02048Y00434
X0200284
X01958
X01914Y00413
X01958Y00335
X02003Y0033432
X02048Y00335
X0214064Y00385
X02185
Y00425
X022395Y0043991
X0229Y00415
X0233792Y0043991
X0233749Y00334
X0223906
X0250435Y00384
X02655Y00305
X02695Y00275
X0267077Y0014626
X0262142Y0014688
X02584Y00075
X02799Y00191
X02935
X0290843Y0027761
X0273468Y0050068
X02695Y005
X02583Y00564
Y00611
Y0067
X0246909Y0067037
X02588Y00843
Y0089268
Y0093269
X02698Y00987
X02822Y00986
X02867
Y01095
X02822
X028844Y0116621
X02884Y01262
X028844Y0135519
X027855Y0132369
Y012922
X02782Y0122921
Y0119771
X0265Y01112
X02593Y01163
X0248685Y0117848
Y0108659
X02383Y01409
X0228855Y0146268
X0224863
X0208158Y01498
X02043
X0200284Y0149604
X0196309
X0174694Y01498
X017465Y0139209
X01628Y01394
X0157765
X01516
X0146735Y01435
Y01474
X01407Y01486
X01399Y01355
X01388Y01254
X01647Y0104395
X01685Y01015
X0173Y00995
X016478Y008472
X01673Y00804
X016478Y0076836
X01647Y0072899
X01648Y0069
X0150916Y0074868
X01434Y00493
X01434Y00443
X01598Y00397
X0167776Y0036931
X0171768
X01724Y00279
X01763
X01683
X01853Y00299
X01893
X01885Y00574
X01873Y00623
Y0067
X01828Y00599
X02093Y00758
X0208115Y0139209
X0284084Y00789
X0302791Y0081976
Y0075676
Y0069377
Y0063078
X0308751Y0053498
X0295957
X0307Y00384
Y00192
X0319861Y0019039
X0333461
X0330804Y00277
X0349832Y0024763
X0358169Y00234
X0333218Y0059928
Y0066228
Y0069377
Y0072527
Y0075676
Y0078826
Y0081976
Y0088275
X03302Y00939
X03228
X03048Y00909
X0302791Y0104023
Y0110322
Y0119771
Y0122921
Y012922
Y0132369
X0299318Y0148412
X0312069Y0148461
X0333218Y0141818
Y0135519
Y0122921
X033317Y0119791
X0333218Y0110322
X0349309Y01095
X0353809
X0360831Y0109031
X0370831
X0358493Y0094
X0353809Y0098546
X0349309
X0345221Y0116621
X034523Y012607
X0277Y0167
Y0171
X0265Y01787
X0259Y01754
X02535
X02489
X02493Y01804
X02491Y01679
X02317
X02318Y01714
X02278
Y01679
X0229Y01581
X02335Y01555
X02384Y01554
X02192Y01599
X02138
X02063Y016
X01971Y01567
X01703Y01549
X01723Y01633
X02602Y01832
X01308Y01809
X0132152Y0160048
X01188Y0169335
X01012Y01698
Y0175
X00976Y01776
Y01724
X00943Y01675
Y016
X009
X0085
X00832Y01522
X00784Y01567
X00941Y0155
X01047Y01555
X00673Y01639
Y01685
X00705Y01759
X0044535
X000877Y0159639
X000877Y0151961
T02
X01508Y00104
X01608
X01708
X01808
X02008
X02108
X02208
X02308
X02408
X02508
Y02004
X02408
X02308
X02208
X02108
X02008
X01908
X01808
X01648
X01548
X01448
X01348
X01248
X01148
X01048
X00948
X00808
X00708
X00608
X00508
X00408
X00308
X00313Y01695
X00213
X00113
T03
X03608Y00354
Y00454
Y00554
Y00654
Y00754
Y00854
X03708
Y00754
Y00654
Y00554
Y00454
Y00354
Y01254
X03608
Y01354
Y01454
X03708
Y01354
Y01554
X03608
Y01654
Y01754
X03708
Y01654
T04
X001Y001
X04
Y02
X001
T05
X00071Y0045147
T06
X0024816Y0045147
M30
