%FSLAX25Y25*%
%MOIN*%
G70*
G01*
G75*
G04 Layer_Physical_Order=2*
G04 Layer_Color=16711680*
%ADD10R,0.02362X0.04724*%
%ADD11R,0.04724X0.02362*%
%ADD12R,0.02362X0.03543*%
%ADD13R,0.02559X0.02953*%
%ADD14R,0.02362X0.01969*%
%ADD15R,0.02953X0.02559*%
%ADD16R,0.04803X0.02362*%
%ADD17R,0.01969X0.02362*%
%ADD18R,0.01969X0.02756*%
%ADD19C,0.02000*%
%ADD20C,0.01000*%
%ADD21C,0.00600*%
%ADD22C,0.05906*%
%ADD23C,0.06000*%
%ADD24C,0.03000*%
%ADD25C,0.03000*%
G36*
X166960Y209855D02*
X168845Y209283D01*
X170583Y208355D01*
X172105Y207105D01*
X173355Y205583D01*
X174284Y203845D01*
X174855Y201960D01*
X175044Y200048D01*
X175000Y200000D01*
D01*
X175000Y200000D01*
X175048Y10000D01*
X174855Y8040D01*
X174284Y6155D01*
X173355Y4417D01*
X172105Y2895D01*
X170583Y1645D01*
X168845Y716D01*
X166960Y145D01*
X165048Y-44D01*
X165000Y0D01*
Y0D01*
X10000Y-48D01*
X8040Y145D01*
X6155Y716D01*
X4417Y1645D01*
X2895Y2895D01*
X1645Y4417D01*
X716Y6155D01*
X145Y8040D01*
X-44Y9952D01*
X0Y10000D01*
X0D01*
X-48Y200000D01*
X145Y201960D01*
X716Y203845D01*
X1645Y205583D01*
X2895Y207105D01*
X4417Y208355D01*
X6155Y209283D01*
X8040Y209855D01*
X9952Y210044D01*
X10000Y210000D01*
Y210000D01*
X165000Y210048D01*
X166960Y209855D01*
D02*
G37*
%LPC*%
G36*
X22000Y72449D02*
X21524Y72355D01*
X20698Y71802D01*
X20145Y70976D01*
X20051Y70500D01*
X22000D01*
Y72449D01*
D02*
G37*
G36*
X23000D02*
Y70500D01*
X24949D01*
X24855Y70976D01*
X24302Y71802D01*
X23475Y72355D01*
X23000Y72449D01*
D02*
G37*
G36*
X9000Y31083D02*
X8072Y30961D01*
X7208Y30603D01*
X6466Y30034D01*
X5897Y29292D01*
X5539Y28427D01*
X5417Y27500D01*
X5539Y26573D01*
X5897Y25708D01*
X6466Y24966D01*
X7208Y24397D01*
X8072Y24039D01*
X9000Y23917D01*
X9928Y24039D01*
X10792Y24397D01*
X11534Y24966D01*
X12103Y25708D01*
X12461Y26573D01*
X12583Y27500D01*
X12461Y28427D01*
X12103Y29292D01*
X11534Y30034D01*
X10792Y30603D01*
X9928Y30961D01*
X9000Y31083D01*
D02*
G37*
G36*
X24949Y69500D02*
X23000D01*
Y67550D01*
X23475Y67645D01*
X24302Y68198D01*
X24855Y69024D01*
X24949Y69500D01*
D02*
G37*
G36*
X39635Y26000D02*
X37685D01*
Y24050D01*
X38160Y24145D01*
X38987Y24698D01*
X39540Y25525D01*
X39635Y26000D01*
D02*
G37*
G36*
X36685D02*
X34736D01*
X34830Y25525D01*
X35383Y24698D01*
X36210Y24145D01*
X36685Y24050D01*
Y26000D01*
D02*
G37*
G36*
X95000Y13631D02*
X94060Y13507D01*
X93185Y13145D01*
X92432Y12567D01*
X91855Y11816D01*
X91493Y10940D01*
X91369Y10000D01*
X91493Y9060D01*
X91855Y8185D01*
X92432Y7433D01*
X93185Y6855D01*
X94060Y6493D01*
X95000Y6369D01*
X95940Y6493D01*
X96816Y6855D01*
X97568Y7433D01*
X98145Y8185D01*
X98507Y9060D01*
X98631Y10000D01*
X98507Y10940D01*
X98145Y11816D01*
X97568Y12567D01*
X96816Y13145D01*
X95940Y13507D01*
X95000Y13631D01*
D02*
G37*
G36*
X85000D02*
X84060Y13507D01*
X83184Y13145D01*
X82432Y12567D01*
X81855Y11816D01*
X81493Y10940D01*
X81369Y10000D01*
X81493Y9060D01*
X81855Y8185D01*
X82432Y7433D01*
X83184Y6855D01*
X84060Y6493D01*
X85000Y6369D01*
X85940Y6493D01*
X86816Y6855D01*
X87568Y7433D01*
X88145Y8185D01*
X88507Y9060D01*
X88631Y10000D01*
X88507Y10940D01*
X88145Y11816D01*
X87568Y12567D01*
X86816Y13145D01*
X85940Y13507D01*
X85000Y13631D01*
D02*
G37*
G36*
X165000Y203631D02*
X164060Y203507D01*
X163184Y203145D01*
X162432Y202568D01*
X161855Y201816D01*
X161493Y200940D01*
X161369Y200000D01*
X161493Y199060D01*
X161855Y198185D01*
X162432Y197432D01*
X163184Y196855D01*
X164060Y196493D01*
X165000Y196369D01*
X165940Y196493D01*
X166634Y196780D01*
X170248Y193165D01*
Y96803D01*
X167896Y94451D01*
X167433Y94543D01*
X166614Y94380D01*
X165919Y93916D01*
X165455Y93221D01*
X165292Y92402D01*
X165455Y91582D01*
X165919Y90888D01*
X166614Y90423D01*
X167433Y90260D01*
X168252Y90423D01*
X168947Y90888D01*
X169411Y91582D01*
X169574Y92402D01*
X169482Y92865D01*
X172163Y95546D01*
X172163Y95546D01*
X172406Y95909D01*
X172492Y96339D01*
Y193630D01*
X172406Y194059D01*
X172163Y194423D01*
X172163Y194423D01*
X168220Y198366D01*
X168507Y199060D01*
X168631Y200000D01*
X168507Y200940D01*
X168145Y201816D01*
X167568Y202568D01*
X166815Y203145D01*
X165940Y203507D01*
X165000Y203631D01*
D02*
G37*
G36*
Y13631D02*
X164060Y13507D01*
X163184Y13145D01*
X162432Y12567D01*
X161855Y11816D01*
X161493Y10940D01*
X161369Y10000D01*
X161493Y9060D01*
X161855Y8185D01*
X162432Y7433D01*
X163184Y6855D01*
X164060Y6493D01*
X165000Y6369D01*
X165940Y6493D01*
X166815Y6855D01*
X167568Y7433D01*
X168145Y8185D01*
X168507Y9060D01*
X168631Y10000D01*
X168507Y10940D01*
X168145Y11816D01*
X167568Y12567D01*
X166815Y13145D01*
X165940Y13507D01*
X165000Y13631D01*
D02*
G37*
G36*
X155000D02*
X154060Y13507D01*
X153184Y13145D01*
X152432Y12567D01*
X151855Y11816D01*
X151493Y10940D01*
X151369Y10000D01*
X151493Y9060D01*
X151855Y8185D01*
X152432Y7433D01*
X153184Y6855D01*
X154060Y6493D01*
X155000Y6369D01*
X155940Y6493D01*
X156816Y6855D01*
X157568Y7433D01*
X158145Y8185D01*
X158507Y9060D01*
X158631Y10000D01*
X158507Y10940D01*
X158145Y11816D01*
X157568Y12567D01*
X156816Y13145D01*
X155940Y13507D01*
X155000Y13631D01*
D02*
G37*
G36*
X115000D02*
X114060Y13507D01*
X113184Y13145D01*
X112432Y12567D01*
X111855Y11816D01*
X111493Y10940D01*
X111369Y10000D01*
X111493Y9060D01*
X111855Y8185D01*
X112432Y7433D01*
X113184Y6855D01*
X114060Y6493D01*
X115000Y6369D01*
X115940Y6493D01*
X116815Y6855D01*
X117568Y7433D01*
X118145Y8185D01*
X118507Y9060D01*
X118631Y10000D01*
X118507Y10940D01*
X118145Y11816D01*
X117568Y12567D01*
X116815Y13145D01*
X115940Y13507D01*
X115000Y13631D01*
D02*
G37*
G36*
X37685Y28949D02*
Y27000D01*
X39635D01*
X39540Y27476D01*
X38987Y28302D01*
X38160Y28855D01*
X37685Y28949D01*
D02*
G37*
G36*
X22000Y42450D02*
X21524Y42355D01*
X20698Y41802D01*
X20145Y40975D01*
X20051Y40500D01*
X22000D01*
Y42450D01*
D02*
G37*
G36*
X23000D02*
Y40500D01*
X24949D01*
X24855Y40975D01*
X24302Y41802D01*
X23475Y42355D01*
X23000Y42450D01*
D02*
G37*
G36*
X9000Y103631D02*
X8060Y103507D01*
X7185Y103145D01*
X6432Y102568D01*
X5855Y101815D01*
X5493Y100940D01*
X5369Y100000D01*
X5493Y99060D01*
X5855Y98185D01*
X6432Y97432D01*
X6859Y97105D01*
Y40335D01*
X6466Y40034D01*
X5897Y39292D01*
X5539Y38427D01*
X5417Y37500D01*
X5539Y36573D01*
X5897Y35708D01*
X6466Y34966D01*
X7208Y34397D01*
X8072Y34039D01*
X9000Y33917D01*
X9928Y34039D01*
X10792Y34397D01*
X11534Y34966D01*
X12103Y35708D01*
X12461Y36573D01*
X12583Y37500D01*
X12461Y38427D01*
X12103Y39292D01*
X11534Y40034D01*
X11141Y40335D01*
Y97105D01*
X11568Y97432D01*
X12145Y98185D01*
X12507Y99060D01*
X12631Y100000D01*
X12507Y100940D01*
X12145Y101815D01*
X11568Y102568D01*
X10815Y103145D01*
X9940Y103507D01*
X9000Y103631D01*
D02*
G37*
G36*
X22000Y39500D02*
X20051D01*
X20145Y39024D01*
X20698Y38198D01*
X21524Y37645D01*
X22000Y37551D01*
Y39500D01*
D02*
G37*
G36*
X24949D02*
X23000D01*
Y37551D01*
X23475Y37645D01*
X24302Y38198D01*
X24855Y39024D01*
X24949Y39500D01*
D02*
G37*
G36*
X37685Y58950D02*
Y57000D01*
X39635D01*
X39540Y57476D01*
X38987Y58302D01*
X38160Y58855D01*
X37685Y58950D01*
D02*
G37*
G36*
X36685Y28949D02*
X36210Y28855D01*
X35383Y28302D01*
X34830Y27476D01*
X34736Y27000D01*
X36685D01*
Y28949D01*
D02*
G37*
G36*
X22000Y69500D02*
X20051D01*
X20145Y69024D01*
X20698Y68198D01*
X21524Y67645D01*
X22000Y67550D01*
Y69500D01*
D02*
G37*
G36*
X36685Y56000D02*
X34736D01*
X34830Y55524D01*
X35383Y54698D01*
X36210Y54145D01*
X36685Y54050D01*
Y56000D01*
D02*
G37*
G36*
X39635D02*
X37685D01*
Y54050D01*
X38160Y54145D01*
X38987Y54698D01*
X39540Y55524D01*
X39635Y56000D01*
D02*
G37*
G36*
X36685Y58950D02*
X36210Y58855D01*
X35383Y58302D01*
X34830Y57476D01*
X34736Y57000D01*
X36685D01*
Y58950D01*
D02*
G37*
G36*
X72445Y139933D02*
X70495D01*
X70590Y139458D01*
X71143Y138631D01*
X71969Y138078D01*
X72445Y137984D01*
Y139933D01*
D02*
G37*
G36*
X75394D02*
X73445D01*
Y137984D01*
X73920Y138078D01*
X74747Y138631D01*
X75300Y139458D01*
X75394Y139933D01*
D02*
G37*
G36*
X115000Y203631D02*
X114060Y203507D01*
X113184Y203145D01*
X112432Y202568D01*
X111855Y201816D01*
X111493Y200940D01*
X111369Y200000D01*
X111493Y199060D01*
X111855Y198185D01*
X112432Y197432D01*
X113184Y196855D01*
X114060Y196493D01*
X115000Y196369D01*
X115940Y196493D01*
X116634Y196780D01*
X148989Y164425D01*
Y141886D01*
X148596Y141624D01*
X148132Y140930D01*
X147969Y140110D01*
X148132Y139291D01*
X148596Y138596D01*
X149291Y138132D01*
X150110Y137969D01*
X150930Y138132D01*
X151624Y138596D01*
X152088Y139291D01*
X152251Y140110D01*
X152088Y140930D01*
X151624Y141624D01*
X151232Y141886D01*
Y164890D01*
X151232Y164890D01*
X151146Y165319D01*
X150903Y165683D01*
X150903Y165683D01*
X118220Y198366D01*
X118507Y199060D01*
X118631Y200000D01*
X118507Y200940D01*
X118145Y201816D01*
X117568Y202568D01*
X116815Y203145D01*
X115940Y203507D01*
X115000Y203631D01*
D02*
G37*
G36*
X72445Y131072D02*
X71969Y130977D01*
X71143Y130424D01*
X70590Y129597D01*
X70495Y129122D01*
X72445D01*
Y131072D01*
D02*
G37*
G36*
X95000Y203631D02*
X94060Y203507D01*
X93185Y203145D01*
X92432Y202568D01*
X91855Y201816D01*
X91493Y200940D01*
X91369Y200000D01*
X91493Y199060D01*
X91855Y198185D01*
X92432Y197432D01*
X93185Y196855D01*
X94060Y196493D01*
X95000Y196369D01*
X95940Y196493D01*
X96634Y196780D01*
X138752Y154661D01*
Y138272D01*
X138360Y138010D01*
X137896Y137315D01*
X137733Y136496D01*
X137896Y135677D01*
X138360Y134982D01*
X139055Y134518D01*
X139874Y134355D01*
X140693Y134518D01*
X141388Y134982D01*
X141852Y135677D01*
X142015Y136496D01*
X141852Y137315D01*
X141388Y138010D01*
X140996Y138272D01*
Y155126D01*
X140996Y155126D01*
X140910Y155555D01*
X140667Y155919D01*
X140667Y155919D01*
X98220Y198366D01*
X98507Y199060D01*
X98631Y200000D01*
X98507Y200940D01*
X98145Y201816D01*
X97568Y202568D01*
X96816Y203145D01*
X95940Y203507D01*
X95000Y203631D01*
D02*
G37*
G36*
X79000D02*
X78060Y203507D01*
X77184Y203145D01*
X76432Y202568D01*
X75855Y201816D01*
X75493Y200940D01*
X75369Y200000D01*
X75493Y199060D01*
X75855Y198185D01*
X76432Y197432D01*
X77184Y196855D01*
X78060Y196493D01*
X79000Y196369D01*
X79940Y196493D01*
X80634Y196780D01*
X134770Y142644D01*
X134721Y142146D01*
X134423Y141947D01*
X133959Y141252D01*
X133796Y140433D01*
X133959Y139614D01*
X134423Y138919D01*
X135118Y138455D01*
X135937Y138292D01*
X136756Y138455D01*
X137451Y138919D01*
X137915Y139614D01*
X138078Y140433D01*
X137915Y141252D01*
X137451Y141947D01*
X137059Y142209D01*
Y143063D01*
X136973Y143492D01*
X136730Y143856D01*
X136730Y143856D01*
X82220Y198366D01*
X82507Y199060D01*
X82631Y200000D01*
X82507Y200940D01*
X82145Y201816D01*
X81568Y202568D01*
X80816Y203145D01*
X79940Y203507D01*
X79000Y203631D01*
D02*
G37*
G36*
X19000D02*
X18060Y203507D01*
X17185Y203145D01*
X16432Y202568D01*
X15855Y201816D01*
X15493Y200940D01*
X15369Y200000D01*
X15493Y199060D01*
X15855Y198185D01*
X16432Y197432D01*
X17185Y196855D01*
X18060Y196493D01*
X19000Y196369D01*
X19940Y196493D01*
X20816Y196855D01*
X21567Y197432D01*
X22145Y198185D01*
X22507Y199060D01*
X22631Y200000D01*
X22507Y200940D01*
X22145Y201816D01*
X21567Y202568D01*
X20816Y203145D01*
X19940Y203507D01*
X19000Y203631D01*
D02*
G37*
G36*
X29000D02*
X28060Y203507D01*
X27185Y203145D01*
X26432Y202568D01*
X25855Y201816D01*
X25493Y200940D01*
X25369Y200000D01*
X25493Y199060D01*
X25855Y198185D01*
X26432Y197432D01*
X27185Y196855D01*
X28060Y196493D01*
X29000Y196369D01*
X29940Y196493D01*
X30816Y196855D01*
X31567Y197432D01*
X32145Y198185D01*
X32507Y199060D01*
X32631Y200000D01*
X32507Y200940D01*
X32145Y201816D01*
X31567Y202568D01*
X30816Y203145D01*
X29940Y203507D01*
X29000Y203631D01*
D02*
G37*
G36*
X73445Y142883D02*
Y140933D01*
X75394D01*
X75300Y141409D01*
X74747Y142236D01*
X73920Y142788D01*
X73445Y142883D01*
D02*
G37*
G36*
X105000Y203631D02*
X104060Y203507D01*
X103184Y203145D01*
X102432Y202568D01*
X101855Y201816D01*
X101493Y200940D01*
X101369Y200000D01*
X101493Y199060D01*
X101855Y198185D01*
X102432Y197432D01*
X103184Y196855D01*
X104060Y196493D01*
X105000Y196369D01*
X105940Y196493D01*
X106634Y196780D01*
X142690Y160724D01*
Y142209D01*
X142297Y141947D01*
X141833Y141252D01*
X141670Y140433D01*
X141833Y139614D01*
X142297Y138919D01*
X142992Y138455D01*
X143811Y138292D01*
X144630Y138455D01*
X145325Y138919D01*
X145789Y139614D01*
X145952Y140433D01*
X145789Y141252D01*
X145325Y141947D01*
X144933Y142209D01*
Y161189D01*
X144933Y161189D01*
X144847Y161618D01*
X144604Y161982D01*
X108220Y198366D01*
X108507Y199060D01*
X108631Y200000D01*
X108507Y200940D01*
X108145Y201816D01*
X107568Y202568D01*
X106816Y203145D01*
X105940Y203507D01*
X105000Y203631D01*
D02*
G37*
G36*
X72445Y142883D02*
X71969Y142788D01*
X71143Y142236D01*
X70590Y141409D01*
X70495Y140933D01*
X72445D01*
Y142883D01*
D02*
G37*
G36*
X135000Y203631D02*
X134060Y203507D01*
X133185Y203145D01*
X132432Y202568D01*
X131855Y201816D01*
X131493Y200940D01*
X131369Y200000D01*
X131493Y199060D01*
X131855Y198185D01*
X132432Y197432D01*
X133185Y196855D01*
X134060Y196493D01*
X135000Y196369D01*
X135940Y196493D01*
X136634Y196780D01*
X158438Y174976D01*
Y119504D01*
X157976Y119313D01*
X157665Y119624D01*
X157545Y119673D01*
X157454Y119764D01*
X157325D01*
X157205Y119814D01*
X157159Y119795D01*
X156744Y120073D01*
Y169378D01*
X156744Y169378D01*
X156658Y169807D01*
X156415Y170171D01*
X156415Y170171D01*
X128220Y198366D01*
X128507Y199060D01*
X128631Y200000D01*
X128507Y200940D01*
X128145Y201816D01*
X127568Y202568D01*
X126815Y203145D01*
X125940Y203507D01*
X125000Y203631D01*
X124060Y203507D01*
X123185Y203145D01*
X122432Y202568D01*
X121855Y201816D01*
X121493Y200940D01*
X121369Y200000D01*
X121493Y199060D01*
X121855Y198185D01*
X122432Y197432D01*
X123185Y196855D01*
X124060Y196493D01*
X125000Y196369D01*
X125940Y196493D01*
X126634Y196780D01*
X154500Y168913D01*
Y123441D01*
X154039Y123250D01*
X144270Y133018D01*
X143811Y133209D01*
X134141D01*
X133997Y133286D01*
X133978Y133378D01*
X133514Y134073D01*
X133122Y134335D01*
Y137000D01*
X133036Y137429D01*
X132793Y137793D01*
X132793Y137793D01*
X72220Y198366D01*
X72507Y199060D01*
X72631Y200000D01*
X72507Y200940D01*
X72145Y201816D01*
X71568Y202568D01*
X70815Y203145D01*
X69940Y203507D01*
X69000Y203631D01*
X68060Y203507D01*
X67185Y203145D01*
X66432Y202568D01*
X65855Y201816D01*
X65493Y200940D01*
X65369Y200000D01*
X65493Y199060D01*
X65855Y198185D01*
X66432Y197432D01*
X67185Y196855D01*
X68060Y196493D01*
X69000Y196369D01*
X69940Y196493D01*
X70634Y196780D01*
X130878Y136535D01*
Y134335D01*
X130486Y134073D01*
X130022Y133378D01*
X130003Y133286D01*
X129859Y133209D01*
X128332D01*
X120648Y140892D01*
X120189Y141083D01*
X114224D01*
Y145898D01*
X114224Y145898D01*
X114138Y146327D01*
X113895Y146691D01*
X113895Y146691D01*
X62220Y198366D01*
X62507Y199060D01*
X62631Y200000D01*
X62507Y200940D01*
X62145Y201816D01*
X61568Y202568D01*
X60816Y203145D01*
X59940Y203507D01*
X59000Y203631D01*
X58060Y203507D01*
X57184Y203145D01*
X56432Y202568D01*
X55855Y201816D01*
X55493Y200940D01*
X55369Y200000D01*
X55493Y199060D01*
X55855Y198185D01*
X56432Y197432D01*
X57184Y196855D01*
X58060Y196493D01*
X59000Y196369D01*
X59940Y196493D01*
X60634Y196780D01*
X111981Y145433D01*
Y141083D01*
X101626D01*
Y148496D01*
X101626Y148496D01*
X101540Y148925D01*
X101297Y149289D01*
X52220Y198366D01*
X52507Y199060D01*
X52631Y200000D01*
X52507Y200940D01*
X52145Y201816D01*
X51568Y202568D01*
X50815Y203145D01*
X49940Y203507D01*
X49000Y203631D01*
X48060Y203507D01*
X47185Y203145D01*
X46433Y202568D01*
X45855Y201816D01*
X45493Y200940D01*
X45369Y200000D01*
X45493Y199060D01*
X45855Y198185D01*
X46433Y197432D01*
X47185Y196855D01*
X48060Y196493D01*
X49000Y196369D01*
X49940Y196493D01*
X50634Y196780D01*
X99382Y148031D01*
Y141083D01*
X94829D01*
X94798Y141070D01*
X94798Y141070D01*
X94798Y141070D01*
X94608Y141182D01*
X94144Y141876D01*
X93752Y142138D01*
Y146370D01*
X93752Y146370D01*
X93666Y146799D01*
X93423Y147163D01*
X42220Y198366D01*
X42507Y199060D01*
X42631Y200000D01*
X42507Y200940D01*
X42145Y201816D01*
X41568Y202568D01*
X40815Y203145D01*
X39940Y203507D01*
X39000Y203631D01*
X38060Y203507D01*
X37185Y203145D01*
X36432Y202568D01*
X35855Y201816D01*
X35493Y200940D01*
X35369Y200000D01*
X35493Y199060D01*
X35855Y198185D01*
X36432Y197432D01*
X37185Y196855D01*
X38060Y196493D01*
X39000Y196369D01*
X39940Y196493D01*
X40634Y196780D01*
X91508Y145905D01*
Y142138D01*
X91116Y141876D01*
X90652Y141182D01*
X90462Y141070D01*
Y141070D01*
X90462Y141070D01*
X90431Y141083D01*
X84756D01*
X84297Y140892D01*
X74197Y130792D01*
X73920Y130977D01*
X73445Y131072D01*
Y128622D01*
X72945D01*
Y128122D01*
X70495D01*
X70590Y127647D01*
X70775Y127370D01*
X52801Y109396D01*
X52610Y108937D01*
Y89252D01*
X52801Y88793D01*
X60484Y81109D01*
X60484Y73504D01*
X60484Y73504D01*
Y30197D01*
X60619Y29872D01*
X60675Y29738D01*
X64612Y25801D01*
X65071Y25610D01*
X112315D01*
X112774Y25801D01*
X121755Y34782D01*
X122217Y34590D01*
Y23110D01*
X122217Y23110D01*
X122302Y22681D01*
X122546Y22317D01*
X123878Y20984D01*
Y13432D01*
X123185Y13145D01*
X122432Y12567D01*
X121855Y11816D01*
X121493Y10940D01*
X121369Y10000D01*
X121493Y9060D01*
X121855Y8185D01*
X122432Y7433D01*
X123185Y6855D01*
X124060Y6493D01*
X125000Y6369D01*
X125940Y6493D01*
X126815Y6855D01*
X127568Y7433D01*
X128145Y8185D01*
X128507Y9060D01*
X128631Y10000D01*
X128507Y10940D01*
X128145Y11816D01*
X127568Y12567D01*
X126815Y13145D01*
X126122Y13432D01*
Y21449D01*
X126036Y21878D01*
X125793Y22242D01*
X125793Y22242D01*
X124460Y23575D01*
Y37959D01*
X124876Y38237D01*
X124922Y38217D01*
X125041Y38267D01*
X125171D01*
X125262Y38358D01*
X125381Y38408D01*
X125692Y38719D01*
X126154Y38527D01*
Y30984D01*
X126154Y30984D01*
X126239Y30555D01*
X126482Y30191D01*
X133878Y22795D01*
Y13432D01*
X133185Y13145D01*
X132432Y12567D01*
X131855Y11816D01*
X131493Y10940D01*
X131369Y10000D01*
X131493Y9060D01*
X131855Y8185D01*
X132432Y7433D01*
X133185Y6855D01*
X134060Y6493D01*
X135000Y6369D01*
X135940Y6493D01*
X136816Y6855D01*
X137568Y7433D01*
X138145Y8185D01*
X138507Y9060D01*
X138631Y10000D01*
X138507Y10940D01*
X138145Y11816D01*
X137568Y12567D01*
X136816Y13145D01*
X136122Y13432D01*
Y23260D01*
X136122Y23260D01*
X136036Y23689D01*
X135793Y24053D01*
X135793Y24053D01*
X128397Y31449D01*
Y41896D01*
X128813Y42174D01*
X128859Y42154D01*
X128978Y42204D01*
X129108D01*
X129199Y42295D01*
X129318Y42345D01*
X129629Y42656D01*
X130091Y42464D01*
Y34921D01*
X130091Y34921D01*
X130176Y34492D01*
X130420Y34128D01*
X143878Y20669D01*
Y13432D01*
X143184Y13145D01*
X142432Y12567D01*
X141855Y11816D01*
X141493Y10940D01*
X141369Y10000D01*
X141493Y9060D01*
X141855Y8185D01*
X142432Y7433D01*
X143184Y6855D01*
X144060Y6493D01*
X145000Y6369D01*
X145940Y6493D01*
X146816Y6855D01*
X147568Y7433D01*
X148145Y8185D01*
X148507Y9060D01*
X148631Y10000D01*
X148507Y10940D01*
X148145Y11816D01*
X147568Y12567D01*
X146816Y13145D01*
X146122Y13432D01*
Y21134D01*
X146122Y21134D01*
X146036Y21563D01*
X145793Y21927D01*
X145793Y21927D01*
X132334Y35386D01*
Y45833D01*
X132750Y46111D01*
X132796Y46091D01*
X132915Y46141D01*
X133045D01*
X133136Y46232D01*
X133255Y46282D01*
X160018Y73045D01*
X160208Y73504D01*
Y106009D01*
X160286Y106153D01*
X160378Y106172D01*
X161073Y106636D01*
X161537Y107330D01*
X161700Y108150D01*
X161537Y108969D01*
X161073Y109664D01*
X160681Y109926D01*
Y175441D01*
X160681Y175441D01*
X160595Y175870D01*
X160352Y176234D01*
X160352Y176234D01*
X138220Y198366D01*
X138507Y199060D01*
X138631Y200000D01*
X138507Y200940D01*
X138145Y201816D01*
X137568Y202568D01*
X136816Y203145D01*
X135940Y203507D01*
X135000Y203631D01*
D02*
G37*
G36*
X12969Y109500D02*
X9500D01*
Y106031D01*
X10044Y106103D01*
X11017Y106506D01*
X11853Y107147D01*
X12494Y107983D01*
X12897Y108956D01*
X12969Y109500D01*
D02*
G37*
G36*
X8500Y113969D02*
X7956Y113897D01*
X6983Y113494D01*
X6147Y112853D01*
X5506Y112017D01*
X5103Y111044D01*
X5031Y110500D01*
X8500D01*
Y113969D01*
D02*
G37*
G36*
X9500D02*
Y110500D01*
X12969D01*
X12897Y111044D01*
X12494Y112017D01*
X11853Y112853D01*
X11017Y113494D01*
X10044Y113897D01*
X9500Y113969D01*
D02*
G37*
G36*
X155000Y203631D02*
X154060Y203507D01*
X153184Y203145D01*
X152432Y202568D01*
X151855Y201816D01*
X151493Y200940D01*
X151369Y200000D01*
X151493Y199060D01*
X151855Y198185D01*
X152432Y197432D01*
X153184Y196855D01*
X154060Y196493D01*
X155000Y196369D01*
X155940Y196493D01*
X156634Y196780D01*
X166378Y187035D01*
Y102097D01*
X165919Y101790D01*
X165455Y101095D01*
X165292Y100276D01*
X165455Y99456D01*
X165919Y98762D01*
X166614Y98297D01*
X167433Y98134D01*
X168252Y98297D01*
X168947Y98762D01*
X169411Y99456D01*
X169574Y100276D01*
X169411Y101095D01*
X168947Y101790D01*
X168622Y102007D01*
Y187500D01*
X168622Y187500D01*
X168536Y187929D01*
X168293Y188293D01*
X158220Y198366D01*
X158507Y199060D01*
X158631Y200000D01*
X158507Y200940D01*
X158145Y201816D01*
X157568Y202568D01*
X156816Y203145D01*
X155940Y203507D01*
X155000Y203631D01*
D02*
G37*
G36*
X145000D02*
X144060Y203507D01*
X143184Y203145D01*
X142432Y202568D01*
X141855Y201816D01*
X141493Y200940D01*
X141369Y200000D01*
X141493Y199060D01*
X141855Y198185D01*
X142432Y197432D01*
X143184Y196855D01*
X144060Y196493D01*
X145000Y196369D01*
X145940Y196493D01*
X146634Y196780D01*
X162374Y181039D01*
Y105989D01*
X161982Y105727D01*
X161518Y105032D01*
X161355Y104213D01*
X161518Y103393D01*
X161982Y102699D01*
X162677Y102234D01*
X163496Y102071D01*
X164315Y102234D01*
X165010Y102699D01*
X165474Y103393D01*
X165637Y104213D01*
X165474Y105032D01*
X165010Y105727D01*
X164618Y105989D01*
Y181504D01*
X164618Y181504D01*
X164532Y181933D01*
X164289Y182297D01*
X164289Y182297D01*
X148220Y198366D01*
X148507Y199060D01*
X148631Y200000D01*
X148507Y200940D01*
X148145Y201816D01*
X147568Y202568D01*
X146816Y203145D01*
X145940Y203507D01*
X145000Y203631D01*
D02*
G37*
G36*
X8500Y109500D02*
X5031D01*
X5103Y108956D01*
X5506Y107983D01*
X6147Y107147D01*
X6983Y106506D01*
X7956Y106103D01*
X8500Y106031D01*
Y109500D01*
D02*
G37*
G36*
X55000Y13631D02*
X54060Y13507D01*
X53184Y13145D01*
X52432Y12567D01*
X51855Y11816D01*
X51493Y10940D01*
X51369Y10000D01*
X51493Y9060D01*
X51855Y8185D01*
X52432Y7433D01*
X53184Y6855D01*
X54060Y6493D01*
X55000Y6369D01*
X55940Y6493D01*
X56815Y6855D01*
X57568Y7433D01*
X58145Y8185D01*
X58507Y9060D01*
X58631Y10000D01*
X58507Y10940D01*
X58145Y11816D01*
X57568Y12567D01*
X56815Y13145D01*
X55940Y13507D01*
X55000Y13631D01*
D02*
G37*
G36*
X45000D02*
X44060Y13507D01*
X43185Y13145D01*
X42432Y12567D01*
X41855Y11816D01*
X41493Y10940D01*
X41369Y10000D01*
X41493Y9060D01*
X41855Y8185D01*
X42432Y7433D01*
X43185Y6855D01*
X44060Y6493D01*
X45000Y6369D01*
X45940Y6493D01*
X46815Y6855D01*
X47567Y7433D01*
X48145Y8185D01*
X48507Y9060D01*
X48631Y10000D01*
X48507Y10940D01*
X48145Y11816D01*
X47567Y12567D01*
X46815Y13145D01*
X45940Y13507D01*
X45000Y13631D01*
D02*
G37*
G36*
X9000Y203631D02*
X8060Y203507D01*
X7185Y203145D01*
X6432Y202568D01*
X5855Y201816D01*
X5493Y200940D01*
X5369Y200000D01*
X5493Y199060D01*
X5855Y198185D01*
X6432Y197432D01*
X6859Y197105D01*
Y122895D01*
X6432Y122568D01*
X5855Y121816D01*
X5493Y120940D01*
X5369Y120000D01*
X5493Y119060D01*
X5855Y118184D01*
X6432Y117432D01*
X7185Y116855D01*
X8060Y116493D01*
X9000Y116369D01*
X9940Y116493D01*
X10815Y116855D01*
X11568Y117432D01*
X12145Y118184D01*
X12507Y119060D01*
X12631Y120000D01*
X12507Y120940D01*
X12145Y121816D01*
X11568Y122568D01*
X11141Y122895D01*
Y197105D01*
X11568Y197432D01*
X12145Y198185D01*
X12507Y199060D01*
X12631Y200000D01*
X12507Y200940D01*
X12145Y201816D01*
X11568Y202568D01*
X10815Y203145D01*
X9940Y203507D01*
X9000Y203631D01*
D02*
G37*
G36*
X75000Y13631D02*
X74060Y13507D01*
X73185Y13145D01*
X72432Y12567D01*
X71855Y11816D01*
X71493Y10940D01*
X71369Y10000D01*
X71493Y9060D01*
X71855Y8185D01*
X72432Y7433D01*
X73185Y6855D01*
X74060Y6493D01*
X75000Y6369D01*
X75940Y6493D01*
X76815Y6855D01*
X77568Y7433D01*
X78145Y8185D01*
X78507Y9060D01*
X78631Y10000D01*
X78507Y10940D01*
X78145Y11816D01*
X77568Y12567D01*
X76815Y13145D01*
X75940Y13507D01*
X75000Y13631D01*
D02*
G37*
G36*
X65000D02*
X64060Y13507D01*
X63184Y13145D01*
X62432Y12567D01*
X61855Y11816D01*
X61493Y10940D01*
X61369Y10000D01*
X61493Y9060D01*
X61855Y8185D01*
X62432Y7433D01*
X63184Y6855D01*
X64060Y6493D01*
X65000Y6369D01*
X65940Y6493D01*
X66816Y6855D01*
X67568Y7433D01*
X68145Y8185D01*
X68507Y9060D01*
X68631Y10000D01*
X68507Y10940D01*
X68145Y11816D01*
X67568Y12567D01*
X66816Y13145D01*
X65940Y13507D01*
X65000Y13631D01*
D02*
G37*
%LPD*%
G36*
X128063Y132559D02*
X129859D01*
X130022Y131740D01*
X130486Y131045D01*
X131181Y130581D01*
X132000Y130418D01*
X132819Y130581D01*
X133514Y131045D01*
X133978Y131740D01*
X134141Y132559D01*
X143811D01*
X154500Y121870D01*
Y103587D01*
X147035Y96122D01*
X124552D01*
X124290Y96514D01*
X123595Y96978D01*
X122776Y97141D01*
X121956Y96978D01*
X121262Y96514D01*
X120797Y95819D01*
X120634Y95000D01*
X120797Y94181D01*
X121262Y93486D01*
X121956Y93022D01*
X122776Y92859D01*
X123595Y93022D01*
X124290Y93486D01*
X124552Y93878D01*
X147500D01*
X147500Y93878D01*
X147929Y93964D01*
X148293Y94207D01*
X156415Y102329D01*
X156415Y102329D01*
X156658Y102693D01*
X156744Y103122D01*
Y118973D01*
X157205Y119165D01*
X158438Y117933D01*
Y109926D01*
X158045Y109664D01*
X157581Y108969D01*
X157418Y108150D01*
X157581Y107330D01*
X158045Y106636D01*
X158740Y106172D01*
X159559Y106009D01*
Y73504D01*
X132796Y46741D01*
X132334Y46932D01*
Y75665D01*
X132727Y75927D01*
X133191Y76622D01*
X133354Y77441D01*
X133191Y78260D01*
X132727Y78955D01*
X132032Y79419D01*
X131213Y79582D01*
X130393Y79419D01*
X129699Y78955D01*
X129234Y78260D01*
X129071Y77441D01*
X129234Y76622D01*
X129699Y75927D01*
X130091Y75665D01*
Y44036D01*
X128859Y42804D01*
X128397Y42995D01*
Y70728D01*
X128790Y70990D01*
X129254Y71685D01*
X129417Y72504D01*
X129254Y73323D01*
X128790Y74018D01*
X128095Y74482D01*
X127276Y74645D01*
X126456Y74482D01*
X125762Y74018D01*
X125297Y73323D01*
X125134Y72504D01*
X125297Y71685D01*
X125762Y70990D01*
X126154Y70728D01*
Y40099D01*
X124922Y38867D01*
X124460Y39058D01*
Y75665D01*
X124853Y75927D01*
X125317Y76622D01*
X125480Y77441D01*
X125317Y78260D01*
X124853Y78955D01*
X124158Y79419D01*
X123339Y79582D01*
X122519Y79419D01*
X121825Y78955D01*
X121360Y78260D01*
X121197Y77441D01*
X121360Y76622D01*
X121825Y75927D01*
X122217Y75665D01*
Y36162D01*
X112315Y26260D01*
X65071D01*
X61134Y30197D01*
Y73504D01*
X61134D01*
X61134Y81378D01*
X53260Y89252D01*
Y108937D01*
X71431Y127108D01*
X72126Y126644D01*
X72945Y126481D01*
X73764Y126644D01*
X74459Y127108D01*
X74923Y127803D01*
X75086Y128622D01*
X74923Y129441D01*
X74459Y130136D01*
X84756Y140433D01*
X90431D01*
X90489Y140362D01*
X90652Y139543D01*
X91116Y138848D01*
X91508Y138586D01*
Y106776D01*
X91116Y106514D01*
X90652Y105819D01*
X90489Y105000D01*
X90652Y104181D01*
X91116Y103486D01*
X91811Y103022D01*
X92630Y102859D01*
X93449Y103022D01*
X94144Y103486D01*
X94608Y104181D01*
X94771Y105000D01*
X94608Y105819D01*
X94144Y106514D01*
X93752Y106776D01*
Y138586D01*
X94144Y138848D01*
X94608Y139543D01*
X94771Y140362D01*
X94829Y140433D01*
X99382D01*
Y130398D01*
X98990Y130136D01*
X98526Y129441D01*
X98363Y128622D01*
X98526Y127803D01*
X98990Y127108D01*
X99382Y126846D01*
Y114650D01*
X98990Y114388D01*
X98526Y113693D01*
X98363Y112874D01*
X98526Y112055D01*
X98990Y111360D01*
X99685Y110896D01*
X100504Y110733D01*
X101323Y110896D01*
X102018Y111360D01*
X102482Y112055D01*
X102645Y112874D01*
X102482Y113693D01*
X102018Y114388D01*
X101626Y114650D01*
Y126846D01*
X102018Y127108D01*
X102482Y127803D01*
X102645Y128622D01*
X102482Y129441D01*
X102018Y130136D01*
X101626Y130398D01*
Y140433D01*
X111981D01*
Y134335D01*
X111588Y134073D01*
X111124Y133378D01*
X110961Y132559D01*
X111124Y131740D01*
X111588Y131045D01*
X112283Y130581D01*
X113102Y130418D01*
X113922Y130581D01*
X114616Y131045D01*
X115080Y131740D01*
X115243Y132559D01*
X115080Y133378D01*
X114616Y134073D01*
X114224Y134335D01*
Y140433D01*
X120189D01*
X128063Y132559D01*
D02*
G37*
%LPC*%
G36*
X139587Y79891D02*
Y77941D01*
X141536D01*
X141442Y78416D01*
X140889Y79243D01*
X140062Y79796D01*
X139587Y79891D01*
D02*
G37*
G36*
X138587D02*
X138111Y79796D01*
X137284Y79243D01*
X136732Y78416D01*
X136637Y77941D01*
X138587D01*
Y79891D01*
D02*
G37*
G36*
X141536Y76941D02*
X139587D01*
Y74991D01*
X140062Y75086D01*
X140889Y75639D01*
X141442Y76465D01*
X141536Y76941D01*
D02*
G37*
G36*
X123626Y116311D02*
X121677D01*
X121771Y115836D01*
X122324Y115009D01*
X123151Y114456D01*
X123626Y114362D01*
Y116311D01*
D02*
G37*
G36*
X124626Y119261D02*
Y117311D01*
X126576D01*
X126481Y117787D01*
X125928Y118613D01*
X125101Y119166D01*
X124626Y119261D01*
D02*
G37*
G36*
X123626D02*
X123151Y119166D01*
X122324Y118613D01*
X121771Y117787D01*
X121677Y117311D01*
X123626D01*
Y119261D01*
D02*
G37*
G36*
X126576Y116311D02*
X124626D01*
Y114362D01*
X125101Y114456D01*
X125928Y115009D01*
X126481Y115836D01*
X126576Y116311D01*
D02*
G37*
G36*
X67000Y69500D02*
X65051D01*
X65145Y69024D01*
X65698Y68198D01*
X66524Y67645D01*
X67000Y67550D01*
Y69500D01*
D02*
G37*
G36*
X65000Y92141D02*
X64181Y91978D01*
X63486Y91514D01*
X63022Y90819D01*
X62859Y90000D01*
X63022Y89181D01*
X63486Y88486D01*
X64181Y88022D01*
X65000Y87859D01*
X65463Y87951D01*
X85451Y67963D01*
X85359Y67500D01*
X85522Y66681D01*
X85986Y65986D01*
X86681Y65522D01*
X87500Y65359D01*
X88319Y65522D01*
X89014Y65986D01*
X89478Y66681D01*
X89641Y67500D01*
X89478Y68319D01*
X89014Y69014D01*
X88319Y69478D01*
X87500Y69641D01*
X87037Y69549D01*
X67049Y89537D01*
X67141Y90000D01*
X66978Y90819D01*
X66514Y91514D01*
X65819Y91978D01*
X65000Y92141D01*
D02*
G37*
G36*
X113102Y70921D02*
X112283Y70758D01*
X111588Y70293D01*
X111232Y69760D01*
X83613Y42141D01*
X67500D01*
X66681Y41978D01*
X65986Y41514D01*
X65522Y40819D01*
X65359Y40000D01*
X65522Y39181D01*
X65986Y38486D01*
X66681Y38022D01*
X67500Y37859D01*
X84500D01*
X85319Y38022D01*
X86014Y38486D01*
X86014Y38486D01*
X86014Y38486D01*
X114616Y67088D01*
X115080Y67783D01*
X115243Y68602D01*
X115226Y68691D01*
X115243Y68779D01*
X115080Y69599D01*
X114616Y70293D01*
X113922Y70758D01*
X113102Y70921D01*
D02*
G37*
G36*
X69950Y69500D02*
X68000D01*
Y67550D01*
X68476Y67645D01*
X69302Y68198D01*
X69855Y69024D01*
X69950Y69500D01*
D02*
G37*
G36*
X138587Y76941D02*
X136637D01*
X136732Y76465D01*
X137284Y75639D01*
X138111Y75086D01*
X138587Y74991D01*
Y76941D01*
D02*
G37*
G36*
X68000Y72449D02*
Y70500D01*
X69950D01*
X69855Y70976D01*
X69302Y71802D01*
X68476Y72355D01*
X68000Y72449D01*
D02*
G37*
G36*
X67000D02*
X66524Y72355D01*
X65698Y71802D01*
X65145Y70976D01*
X65051Y70500D01*
X67000D01*
Y72449D01*
D02*
G37*
%LPD*%
D20*
X145000Y10000D02*
Y21134D01*
X131213Y34921D02*
X145000Y21134D01*
X131213Y34921D02*
Y77441D01*
X135000Y10000D02*
Y23260D01*
X127276Y30984D02*
X135000Y23260D01*
X127276Y30984D02*
Y72504D01*
X125000Y10000D02*
Y21449D01*
X123339Y23110D02*
X125000Y21449D01*
X123339Y23110D02*
Y77441D01*
X147500Y95000D02*
X155622Y103122D01*
X122776Y95000D02*
X147500D01*
X132000Y132559D02*
Y137000D01*
X69000Y200000D02*
X132000Y137000D01*
X79000Y200000D02*
X135937Y143063D01*
Y140433D02*
Y143063D01*
X95000Y200000D02*
X139874Y155126D01*
Y136496D02*
Y155126D01*
X105000Y200000D02*
X143811Y161189D01*
Y140433D02*
Y161189D01*
X163496Y104213D02*
Y181504D01*
X159559Y108150D02*
Y175441D01*
X171370Y96339D02*
Y193630D01*
X167433Y92402D02*
X171370Y96339D01*
X65000Y90000D02*
X87500Y67500D01*
X155000Y200000D02*
X167500Y187500D01*
X92630Y105000D02*
Y146370D01*
X39000Y200000D02*
X92630Y146370D01*
X100504Y112874D02*
Y148496D01*
X49000Y200000D02*
X100504Y148496D01*
X165000Y200000D02*
X171370Y193630D01*
X145000Y200000D02*
X163496Y181504D01*
X135000Y200000D02*
X159559Y175441D01*
X155622Y103122D02*
Y169378D01*
X125000Y200000D02*
X155622Y169378D01*
X150110Y140110D02*
Y164890D01*
X115000Y200000D02*
X150110Y164890D01*
X167500Y100276D02*
Y187500D01*
X113102Y132559D02*
Y145898D01*
X59000Y200000D02*
X113102Y145898D01*
D21*
X0Y10000D02*
G03*
X10000Y0I10000J0D01*
G01*
X175000Y200000D02*
G03*
X165000Y210000I-10000J0D01*
G01*
X165000Y0D02*
G03*
X175000Y10000I0J10000D01*
G01*
X10000Y210000D02*
G03*
X0Y200000I0J-10000D01*
G01*
Y10000D02*
Y200000D01*
X175000Y10000D02*
Y200000D01*
X10000Y210000D02*
X165000D01*
X10000Y0D02*
X165000D01*
D22*
X9000Y27500D02*
D03*
Y37500D02*
D03*
D23*
Y100000D02*
D03*
Y110000D02*
D03*
Y120000D02*
D03*
X165000Y10000D02*
D03*
X155000D02*
D03*
X145000D02*
D03*
X135000D02*
D03*
X125000D02*
D03*
X115000D02*
D03*
X95000Y200000D02*
D03*
X105000D02*
D03*
X115000D02*
D03*
X125000D02*
D03*
X135000D02*
D03*
X145000D02*
D03*
X155000D02*
D03*
X165000D02*
D03*
X9000D02*
D03*
X19000D02*
D03*
X29000D02*
D03*
X39000D02*
D03*
X49000D02*
D03*
X59000D02*
D03*
X69000D02*
D03*
X79000D02*
D03*
X95000Y10000D02*
D03*
X85000D02*
D03*
X75000D02*
D03*
X65000D02*
D03*
X55000D02*
D03*
X45000D02*
D03*
D24*
X124126Y116811D02*
D03*
X163496Y104213D02*
D03*
X159559Y108150D02*
D03*
X67500Y40000D02*
D03*
Y70000D02*
D03*
X87500Y67500D02*
D03*
X65000Y90000D02*
D03*
X37185Y26500D02*
D03*
X22500Y40000D02*
D03*
Y70000D02*
D03*
X37185Y56500D02*
D03*
X167433Y100276D02*
D03*
X122776Y95000D02*
D03*
X150110Y140110D02*
D03*
X123339Y77441D02*
D03*
X127276Y72504D02*
D03*
X131213Y77441D02*
D03*
X100504Y112874D02*
D03*
X167433Y92402D02*
D03*
X92630Y105000D02*
D03*
X143811Y140433D02*
D03*
X139874Y136496D02*
D03*
X135937Y140433D02*
D03*
X132000Y132559D02*
D03*
X139087Y77441D02*
D03*
X113102Y68779D02*
D03*
Y132559D02*
D03*
X72945Y128622D02*
D03*
Y140433D02*
D03*
X100504Y128622D02*
D03*
X92630Y140362D02*
D03*
D25*
X9000Y120000D02*
Y200000D01*
Y37500D02*
Y100000D01*
X67500Y40000D02*
X84500D01*
X113102Y68602D01*
M02*
