%FSLAX25Y25*%
%MOIN*%
G70*
G01*
G75*
G04 Layer_Color=65535*
%ADD10R,0.02362X0.04724*%
%ADD11R,0.04724X0.02362*%
%ADD12R,0.02362X0.03543*%
%ADD13R,0.02559X0.02953*%
%ADD14R,0.02362X0.01969*%
%ADD15R,0.02953X0.02559*%
%ADD16R,0.04803X0.02362*%
%ADD17R,0.01969X0.02362*%
%ADD18R,0.01969X0.02756*%
%ADD19C,0.02000*%
%ADD20C,0.01000*%
%ADD21C,0.00600*%
%ADD22C,0.05906*%
%ADD23C,0.06000*%
%ADD24C,0.03000*%
%ADD25C,0.03000*%
%ADD26C,0.00984*%
%ADD27C,0.00787*%
%ADD28C,0.00394*%
G36*
X69770Y188301D02*
X69854Y188292D01*
X69955Y188273D01*
X70057Y188254D01*
X70178Y188227D01*
X70298Y188190D01*
X70427Y188144D01*
X70566Y188097D01*
X70696Y188032D01*
X70825Y187949D01*
X70955Y187866D01*
X71084Y187764D01*
X71195Y187644D01*
X71204Y187635D01*
X71223Y187616D01*
X71250Y187579D01*
X71288Y187524D01*
X71334Y187459D01*
X71380Y187376D01*
X71435Y187274D01*
X71491Y187172D01*
X71547Y187043D01*
X71602Y186913D01*
X71648Y186765D01*
X71694Y186599D01*
X71732Y186432D01*
X71759Y186247D01*
X71778Y186044D01*
X71787Y185840D01*
Y185831D01*
Y185794D01*
Y185729D01*
X71778Y185655D01*
X71768Y185554D01*
X71759Y185442D01*
X71741Y185322D01*
X71713Y185193D01*
X71639Y184897D01*
X71593Y184749D01*
X71537Y184601D01*
X71473Y184453D01*
X71389Y184305D01*
X71297Y184166D01*
X71195Y184037D01*
X71186Y184027D01*
X71167Y184009D01*
X71130Y183972D01*
X71084Y183935D01*
X71029Y183888D01*
X70955Y183833D01*
X70871Y183768D01*
X70779Y183713D01*
X70668Y183648D01*
X70547Y183583D01*
X70418Y183528D01*
X70270Y183482D01*
X70122Y183444D01*
X69955Y183407D01*
X69789Y183389D01*
X69604Y183380D01*
X69511D01*
X69437Y183389D01*
X69354Y183398D01*
X69262Y183417D01*
X69151Y183435D01*
X69040Y183463D01*
X68910Y183500D01*
X68781Y183537D01*
X68651Y183592D01*
X68522Y183657D01*
X68392Y183731D01*
X68263Y183824D01*
X68133Y183925D01*
X68022Y184037D01*
X68013Y184046D01*
X67994Y184064D01*
X67967Y184101D01*
X67930Y184157D01*
X67883Y184221D01*
X67837Y184305D01*
X67782Y184406D01*
X67735Y184508D01*
X67680Y184638D01*
X67624Y184767D01*
X67578Y184915D01*
X67532Y185082D01*
X67495Y185248D01*
X67467Y185433D01*
X67449Y185637D01*
X67440Y185840D01*
Y185849D01*
Y185887D01*
Y185951D01*
X67449Y186025D01*
X67458Y186127D01*
X67467Y186238D01*
X67486Y186358D01*
X67514Y186497D01*
X67578Y186784D01*
X67634Y186932D01*
X67689Y187080D01*
X67754Y187228D01*
X67828Y187376D01*
X67921Y187514D01*
X68022Y187644D01*
X68032Y187653D01*
X68050Y187672D01*
X68087Y187709D01*
X68133Y187746D01*
X68189Y187801D01*
X68263Y187857D01*
X68346Y187912D01*
X68439Y187977D01*
X68550Y188042D01*
X68670Y188097D01*
X68799Y188153D01*
X68938Y188208D01*
X69095Y188245D01*
X69253Y188282D01*
X69419Y188301D01*
X69604Y188310D01*
X69696D01*
X69770Y188301D01*
D02*
G37*
G36*
X121025Y188310D02*
X121126Y188292D01*
X121238Y188273D01*
X121358Y188236D01*
X121478Y188190D01*
X121598Y188125D01*
X121617Y188116D01*
X121654Y188088D01*
X121709Y188051D01*
X121783Y187986D01*
X121857Y187912D01*
X121941Y187820D01*
X122024Y187709D01*
X122098Y187589D01*
Y188199D01*
X123328D01*
Y183842D01*
Y183833D01*
Y183796D01*
Y183740D01*
X123319Y183657D01*
X123310Y183574D01*
X123300Y183463D01*
X123282Y183352D01*
X123263Y183222D01*
X123198Y182964D01*
X123106Y182695D01*
X123050Y182566D01*
X122986Y182446D01*
X122903Y182334D01*
X122810Y182233D01*
X122801Y182223D01*
X122782Y182214D01*
X122755Y182186D01*
X122717Y182150D01*
X122662Y182113D01*
X122588Y182076D01*
X122505Y182029D01*
X122412Y181983D01*
X122310Y181928D01*
X122181Y181881D01*
X122052Y181844D01*
X121904Y181807D01*
X121737Y181770D01*
X121561Y181743D01*
X121367Y181733D01*
X121163Y181724D01*
X121025D01*
X120923Y181733D01*
X120803Y181743D01*
X120673Y181752D01*
X120396Y181789D01*
X120377D01*
X120331Y181798D01*
X120257Y181816D01*
X120165Y181835D01*
X120044Y181853D01*
X119924Y181881D01*
X119785Y181918D01*
X119637Y181955D01*
Y183084D01*
X119656Y183074D01*
X119693Y183056D01*
X119767Y183019D01*
X119850Y182982D01*
X119961Y182936D01*
X120081Y182889D01*
X120211Y182843D01*
X120340Y182806D01*
X120359D01*
X120405Y182788D01*
X120479Y182779D01*
X120571Y182760D01*
X120683Y182741D01*
X120803Y182723D01*
X120941Y182714D01*
X121080Y182704D01*
X121163D01*
X121256Y182714D01*
X121367Y182732D01*
X121496Y182769D01*
X121626Y182806D01*
X121746Y182871D01*
X121848Y182954D01*
X121857Y182964D01*
X121885Y183001D01*
X121931Y183056D01*
X121977Y183139D01*
X122014Y183241D01*
X122061Y183370D01*
X122089Y183528D01*
X122098Y183703D01*
Y184212D01*
X122089Y184194D01*
X122061Y184157D01*
X122024Y184101D01*
X121968Y184027D01*
X121904Y183944D01*
X121820Y183861D01*
X121719Y183787D01*
X121617Y183713D01*
X121607Y183703D01*
X121561Y183685D01*
X121496Y183667D01*
X121413Y183639D01*
X121311Y183602D01*
X121191Y183583D01*
X121053Y183565D01*
X120895Y183555D01*
X120821D01*
X120766Y183565D01*
X120692Y183574D01*
X120618Y183592D01*
X120433Y183639D01*
X120229Y183713D01*
X120127Y183759D01*
X120017Y183824D01*
X119915Y183898D01*
X119813Y183981D01*
X119711Y184073D01*
X119619Y184185D01*
X119609Y184194D01*
X119600Y184212D01*
X119572Y184249D01*
X119545Y184295D01*
X119508Y184360D01*
X119471Y184443D01*
X119424Y184527D01*
X119387Y184638D01*
X119341Y184749D01*
X119295Y184878D01*
X119258Y185017D01*
X119221Y185165D01*
X119193Y185331D01*
X119166Y185507D01*
X119156Y185692D01*
X119147Y185887D01*
Y185896D01*
Y185933D01*
Y185997D01*
X119156Y186072D01*
X119166Y186164D01*
X119175Y186275D01*
X119184Y186395D01*
X119202Y186525D01*
X119258Y186811D01*
X119351Y187108D01*
X119397Y187256D01*
X119462Y187394D01*
X119536Y187533D01*
X119619Y187662D01*
X119628Y187672D01*
X119637Y187690D01*
X119665Y187727D01*
X119702Y187764D01*
X119748Y187811D01*
X119813Y187866D01*
X119878Y187931D01*
X119952Y187996D01*
X120044Y188051D01*
X120137Y188116D01*
X120350Y188217D01*
X120470Y188254D01*
X120599Y188292D01*
X120738Y188310D01*
X120886Y188319D01*
X120951D01*
X121025Y188310D01*
D02*
G37*
G36*
X106021Y188301D02*
X106105Y188292D01*
X106206Y188273D01*
X106317Y188254D01*
X106438Y188236D01*
X106696Y188162D01*
X106835Y188107D01*
X106974Y188051D01*
X107104Y187977D01*
X107233Y187894D01*
X107353Y187801D01*
X107464Y187690D01*
X107474Y187681D01*
X107492Y187662D01*
X107520Y187626D01*
X107557Y187579D01*
X107603Y187514D01*
X107649Y187431D01*
X107705Y187348D01*
X107760Y187237D01*
X107807Y187126D01*
X107862Y186996D01*
X107908Y186848D01*
X107955Y186691D01*
X107992Y186525D01*
X108019Y186349D01*
X108038Y186155D01*
X108047Y185951D01*
Y185452D01*
X104865D01*
Y185442D01*
Y185424D01*
Y185396D01*
X104874Y185359D01*
X104884Y185257D01*
X104902Y185137D01*
X104948Y185008D01*
X105004Y184869D01*
X105078Y184739D01*
X105189Y184619D01*
X105207Y184610D01*
X105254Y184582D01*
X105327Y184536D01*
X105429Y184490D01*
X105568Y184434D01*
X105735Y184397D01*
X105929Y184360D01*
X106151Y184351D01*
X106225D01*
X106308Y184360D01*
X106419Y184370D01*
X106539Y184379D01*
X106678Y184406D01*
X106835Y184434D01*
X106983Y184471D01*
X106992D01*
X107002Y184481D01*
X107057Y184499D01*
X107141Y184527D01*
X107252Y184564D01*
X107381Y184619D01*
X107529Y184684D01*
X107686Y184767D01*
X107853Y184860D01*
Y183731D01*
X107843D01*
X107834Y183722D01*
X107779Y183703D01*
X107695Y183676D01*
X107585Y183630D01*
X107446Y183592D01*
X107298Y183546D01*
X107141Y183509D01*
X106974Y183472D01*
X106956D01*
X106900Y183454D01*
X106807Y183444D01*
X106687Y183426D01*
X106549Y183407D01*
X106391Y183398D01*
X106225Y183380D01*
X105929D01*
X105845Y183389D01*
X105744Y183398D01*
X105633Y183417D01*
X105503Y183435D01*
X105374Y183463D01*
X105078Y183537D01*
X104930Y183583D01*
X104782Y183648D01*
X104634Y183722D01*
X104495Y183805D01*
X104356Y183898D01*
X104236Y184009D01*
X104227Y184018D01*
X104208Y184037D01*
X104181Y184073D01*
X104144Y184129D01*
X104088Y184194D01*
X104042Y184268D01*
X103986Y184360D01*
X103931Y184471D01*
X103866Y184591D01*
X103811Y184730D01*
X103764Y184878D01*
X103718Y185036D01*
X103672Y185211D01*
X103644Y185406D01*
X103626Y185609D01*
X103616Y185822D01*
Y185831D01*
Y185877D01*
Y185933D01*
X103626Y186016D01*
X103635Y186109D01*
X103644Y186220D01*
X103663Y186340D01*
X103690Y186478D01*
X103764Y186765D01*
X103811Y186923D01*
X103866Y187071D01*
X103931Y187218D01*
X104014Y187366D01*
X104106Y187505D01*
X104208Y187635D01*
X104218Y187644D01*
X104236Y187662D01*
X104273Y187699D01*
X104319Y187736D01*
X104384Y187792D01*
X104458Y187847D01*
X104541Y187912D01*
X104643Y187977D01*
X104754Y188032D01*
X104874Y188097D01*
X105004Y188153D01*
X105152Y188208D01*
X105309Y188245D01*
X105475Y188282D01*
X105660Y188301D01*
X105845Y188310D01*
X105947D01*
X106021Y188301D01*
D02*
G37*
G36*
X100203Y189753D02*
X100332Y189744D01*
X100471Y189725D01*
X100638Y189698D01*
X100804Y189670D01*
X100989Y189633D01*
X101165Y189586D01*
X101350Y189522D01*
X101535Y189448D01*
X101711Y189365D01*
X101877Y189263D01*
X102025Y189152D01*
X102164Y189022D01*
X102173Y189013D01*
X102192Y188985D01*
X102229Y188948D01*
X102266Y188883D01*
X102321Y188800D01*
X102377Y188708D01*
X102442Y188587D01*
X102506Y188449D01*
X102562Y188292D01*
X102627Y188116D01*
X102682Y187922D01*
X102737Y187709D01*
X102775Y187468D01*
X102812Y187218D01*
X102830Y186932D01*
X102839Y186636D01*
Y186617D01*
Y186562D01*
Y186478D01*
X102830Y186367D01*
X102821Y186229D01*
X102802Y186072D01*
X102784Y185896D01*
X102756Y185711D01*
X102719Y185517D01*
X102673Y185313D01*
X102617Y185119D01*
X102552Y184915D01*
X102479Y184730D01*
X102386Y184545D01*
X102284Y184379D01*
X102164Y184231D01*
X102155Y184221D01*
X102136Y184203D01*
X102090Y184166D01*
X102034Y184120D01*
X101961Y184064D01*
X101868Y184000D01*
X101757Y183935D01*
X101637Y183870D01*
X101489Y183796D01*
X101331Y183731D01*
X101146Y183667D01*
X100943Y183611D01*
X100730Y183565D01*
X100490Y183528D01*
X100231Y183509D01*
X99953Y183500D01*
X98630D01*
Y189762D01*
X100101D01*
X100203Y189753D01*
D02*
G37*
G36*
X85301Y188301D02*
X85394Y188292D01*
X85505Y188282D01*
X85616Y188273D01*
X85745Y188254D01*
X86004Y188199D01*
X86273Y188116D01*
X86393Y188060D01*
X86513Y187996D01*
X86624Y187922D01*
X86717Y187838D01*
X86726Y187829D01*
X86735Y187820D01*
X86763Y187792D01*
X86791Y187746D01*
X86827Y187690D01*
X86865Y187626D01*
X86911Y187551D01*
X86957Y187459D01*
X86994Y187348D01*
X87040Y187228D01*
X87077Y187089D01*
X87114Y186941D01*
X87142Y186775D01*
X87170Y186590D01*
X87179Y186386D01*
X87188Y186173D01*
Y183500D01*
X85967D01*
Y184018D01*
X85958Y184009D01*
X85930Y183972D01*
X85875Y183916D01*
X85810Y183842D01*
X85727Y183768D01*
X85634Y183694D01*
X85523Y183611D01*
X85394Y183546D01*
X85375Y183537D01*
X85329Y183519D01*
X85264Y183491D01*
X85163Y183463D01*
X85052Y183435D01*
X84922Y183407D01*
X84783Y183389D01*
X84626Y183380D01*
X84552D01*
X84496Y183389D01*
X84432D01*
X84348Y183398D01*
X84173Y183435D01*
X83978Y183482D01*
X83766Y183555D01*
X83571Y183657D01*
X83470Y183722D01*
X83386Y183796D01*
X83377Y183805D01*
X83368Y183815D01*
X83350Y183842D01*
X83322Y183879D01*
X83285Y183916D01*
X83248Y183972D01*
X83165Y184101D01*
X83081Y184268D01*
X83017Y184471D01*
X82961Y184712D01*
X82952Y184841D01*
X82942Y184980D01*
Y184989D01*
Y185017D01*
Y185063D01*
X82952Y185119D01*
X82961Y185184D01*
X82970Y185257D01*
X83007Y185442D01*
X83072Y185637D01*
X83118Y185739D01*
X83165Y185840D01*
X83229Y185933D01*
X83294Y186025D01*
X83377Y186118D01*
X83470Y186192D01*
X83479Y186201D01*
X83498Y186210D01*
X83525Y186229D01*
X83571Y186257D01*
X83627Y186284D01*
X83692Y186321D01*
X83775Y186358D01*
X83877Y186395D01*
X83978Y186432D01*
X84108Y186460D01*
X84237Y186497D01*
X84386Y186525D01*
X84552Y186553D01*
X84728Y186571D01*
X84913Y186590D01*
X85967D01*
Y186793D01*
Y186802D01*
Y186839D01*
X85958Y186895D01*
X85940Y186960D01*
X85912Y187033D01*
X85875Y187108D01*
X85819Y187181D01*
X85745Y187246D01*
X85736Y187256D01*
X85708Y187274D01*
X85653Y187293D01*
X85588Y187329D01*
X85496Y187357D01*
X85394Y187376D01*
X85264Y187394D01*
X85116Y187404D01*
X85042D01*
X84950Y187394D01*
X84839D01*
X84709Y187376D01*
X84570Y187357D01*
X84413Y187329D01*
X84256Y187293D01*
X84237Y187283D01*
X84182Y187274D01*
X84108Y187246D01*
X83997Y187209D01*
X83868Y187154D01*
X83729Y187098D01*
X83571Y187024D01*
X83405Y186941D01*
Y187986D01*
X83414D01*
X83424Y187996D01*
X83470Y188014D01*
X83553Y188042D01*
X83655Y188079D01*
X83775Y188116D01*
X83914Y188153D01*
X84062Y188190D01*
X84219Y188227D01*
X84237D01*
X84293Y188236D01*
X84376Y188254D01*
X84487Y188273D01*
X84626Y188282D01*
X84774Y188301D01*
X84940Y188310D01*
X85227D01*
X85301Y188301D01*
D02*
G37*
G36*
X63595Y160179D02*
X63650D01*
X63720Y160169D01*
X63794Y160160D01*
X63867Y160151D01*
X63951Y160132D01*
X63960D01*
X63988Y160123D01*
X64029Y160109D01*
X64085Y160095D01*
X64149Y160077D01*
X64223Y160049D01*
X64302Y160021D01*
X64380Y159989D01*
Y159384D01*
X64371Y159388D01*
X64343Y159407D01*
X64306Y159430D01*
X64251Y159462D01*
X64191Y159495D01*
X64122Y159532D01*
X64048Y159564D01*
X63969Y159596D01*
X63960Y159601D01*
X63932Y159610D01*
X63895Y159619D01*
X63844Y159633D01*
X63780Y159647D01*
X63715Y159661D01*
X63641Y159666D01*
X63567Y159670D01*
X63530D01*
X63489Y159666D01*
X63438Y159661D01*
X63382Y159647D01*
X63327Y159633D01*
X63271Y159610D01*
X63221Y159578D01*
X63216Y159573D01*
X63202Y159560D01*
X63184Y159541D01*
X63165Y159513D01*
X63142Y159476D01*
X63124Y159430D01*
X63110Y159379D01*
X63105Y159319D01*
Y159315D01*
Y159296D01*
X63110Y159273D01*
X63115Y159245D01*
X63124Y159208D01*
X63142Y159176D01*
X63161Y159139D01*
X63188Y159107D01*
X63193Y159102D01*
X63207Y159093D01*
X63230Y159074D01*
X63267Y159051D01*
X63318Y159024D01*
X63378Y158996D01*
X63456Y158959D01*
X63553Y158922D01*
X63821Y158820D01*
X63826D01*
X63840Y158816D01*
X63858Y158806D01*
X63881Y158797D01*
X63914Y158783D01*
X63951Y158765D01*
X64034Y158723D01*
X64122Y158668D01*
X64214Y158608D01*
X64302Y158534D01*
X64339Y158492D01*
X64376Y158451D01*
Y158446D01*
X64385Y158441D01*
X64394Y158428D01*
X64403Y158409D01*
X64417Y158386D01*
X64431Y158363D01*
X64468Y158294D01*
X64500Y158210D01*
X64528Y158113D01*
X64547Y158002D01*
X64556Y157878D01*
Y157873D01*
Y157859D01*
Y157832D01*
X64551Y157799D01*
X64547Y157762D01*
X64542Y157716D01*
X64533Y157665D01*
X64519Y157615D01*
X64487Y157499D01*
X64464Y157439D01*
X64436Y157379D01*
X64403Y157323D01*
X64367Y157268D01*
X64325Y157217D01*
X64274Y157171D01*
X64270Y157166D01*
X64260Y157162D01*
X64246Y157148D01*
X64223Y157134D01*
X64191Y157115D01*
X64154Y157097D01*
X64112Y157079D01*
X64062Y157055D01*
X64006Y157032D01*
X63946Y157014D01*
X63877Y156995D01*
X63798Y156977D01*
X63715Y156963D01*
X63627Y156949D01*
X63530Y156945D01*
X63429Y156940D01*
X63387D01*
X63345Y156945D01*
X63285Y156949D01*
X63212Y156954D01*
X63133Y156963D01*
X63050Y156977D01*
X62962Y156995D01*
X62957D01*
X62953Y157000D01*
X62939D01*
X62920Y157005D01*
X62879Y157018D01*
X62819Y157037D01*
X62749Y157060D01*
X62676Y157088D01*
X62597Y157125D01*
X62514Y157162D01*
Y157799D01*
X62519D01*
X62523Y157790D01*
X62537Y157781D01*
X62555Y157772D01*
X62602Y157739D01*
X62666Y157702D01*
X62736Y157656D01*
X62819Y157615D01*
X62902Y157573D01*
X62990Y157536D01*
X62994D01*
X62999Y157531D01*
X63013Y157527D01*
X63031Y157522D01*
X63073Y157508D01*
X63133Y157494D01*
X63202Y157481D01*
X63281Y157467D01*
X63364Y157457D01*
X63452Y157453D01*
X63489D01*
X63530Y157457D01*
X63581Y157467D01*
X63636Y157476D01*
X63697Y157494D01*
X63752Y157522D01*
X63803Y157554D01*
X63807Y157559D01*
X63821Y157573D01*
X63844Y157596D01*
X63867Y157628D01*
X63891Y157670D01*
X63914Y157721D01*
X63928Y157781D01*
X63932Y157845D01*
Y157850D01*
Y157869D01*
X63928Y157896D01*
X63923Y157929D01*
X63909Y157966D01*
X63895Y158007D01*
X63872Y158044D01*
X63844Y158086D01*
X63840Y158090D01*
X63831Y158104D01*
X63807Y158123D01*
X63784Y158146D01*
X63747Y158174D01*
X63706Y158201D01*
X63655Y158229D01*
X63600Y158257D01*
X63295Y158368D01*
X63290D01*
X63276Y158377D01*
X63248Y158386D01*
X63221Y158400D01*
X63184Y158414D01*
X63138Y158437D01*
X63041Y158483D01*
X62934Y158538D01*
X62833Y158603D01*
X62782Y158635D01*
X62736Y158668D01*
X62699Y158705D01*
X62662Y158742D01*
Y158746D01*
X62657Y158751D01*
X62639Y158779D01*
X62611Y158820D01*
X62583Y158880D01*
X62551Y158959D01*
X62528Y159047D01*
X62509Y159153D01*
X62500Y159268D01*
Y159273D01*
Y159287D01*
Y159310D01*
X62505Y159338D01*
X62509Y159375D01*
X62514Y159416D01*
X62523Y159462D01*
X62532Y159513D01*
X62565Y159619D01*
X62588Y159675D01*
X62616Y159730D01*
X62643Y159786D01*
X62680Y159841D01*
X62722Y159892D01*
X62768Y159938D01*
X62773Y159943D01*
X62782Y159948D01*
X62796Y159961D01*
X62819Y159975D01*
X62846Y159994D01*
X62879Y160017D01*
X62920Y160040D01*
X62962Y160063D01*
X63013Y160082D01*
X63073Y160105D01*
X63133Y160128D01*
X63198Y160146D01*
X63271Y160160D01*
X63345Y160174D01*
X63429Y160179D01*
X63516Y160183D01*
X63553D01*
X63595Y160179D01*
D02*
G37*
G36*
X85475Y155988D02*
X69980D01*
Y156386D01*
X85475D01*
Y155988D01*
D02*
G37*
G36*
X87466Y167179D02*
X87507D01*
X87549Y167169D01*
X87600Y167165D01*
X87655Y167156D01*
X87770Y167128D01*
X87891Y167086D01*
X87955Y167058D01*
X88011Y167031D01*
X88071Y166994D01*
X88122Y166952D01*
X88126Y166948D01*
X88135Y166943D01*
X88149Y166929D01*
X88163Y166911D01*
X88186Y166887D01*
X88209Y166860D01*
X88232Y166827D01*
X88260Y166790D01*
X88311Y166703D01*
X88357Y166596D01*
X88371Y166541D01*
X88385Y166476D01*
X88394Y166412D01*
X88399Y166342D01*
Y166338D01*
Y166333D01*
Y166319D01*
Y166301D01*
X88390Y166250D01*
X88380Y166190D01*
X88362Y166125D01*
X88339Y166051D01*
X88302Y165982D01*
X88251Y165913D01*
X88246Y165903D01*
X88223Y165885D01*
X88191Y165853D01*
X88145Y165820D01*
X88085Y165779D01*
X88015Y165737D01*
X87932Y165700D01*
X87835Y165668D01*
X87840D01*
X87849Y165663D01*
X87863Y165659D01*
X87886Y165654D01*
X87941Y165631D01*
X88011Y165603D01*
X88085Y165562D01*
X88163Y165515D01*
X88242Y165455D01*
X88306Y165381D01*
X88316Y165372D01*
X88334Y165344D01*
X88357Y165298D01*
X88390Y165238D01*
X88422Y165164D01*
X88445Y165072D01*
X88463Y164970D01*
X88473Y164859D01*
Y164855D01*
Y164841D01*
Y164818D01*
X88468Y164790D01*
X88463Y164753D01*
X88459Y164711D01*
X88450Y164665D01*
X88436Y164614D01*
X88403Y164508D01*
X88380Y164448D01*
X88348Y164393D01*
X88316Y164337D01*
X88279Y164286D01*
X88232Y164231D01*
X88182Y164185D01*
X88177Y164180D01*
X88168Y164176D01*
X88149Y164162D01*
X88126Y164148D01*
X88099Y164129D01*
X88062Y164106D01*
X88020Y164083D01*
X87974Y164065D01*
X87918Y164042D01*
X87858Y164018D01*
X87794Y163995D01*
X87720Y163977D01*
X87641Y163963D01*
X87558Y163949D01*
X87470Y163945D01*
X87378Y163940D01*
X87341D01*
X87299Y163945D01*
X87239D01*
X87174Y163949D01*
X87101Y163958D01*
X87017Y163968D01*
X86934Y163981D01*
X86925D01*
X86897Y163991D01*
X86851Y163995D01*
X86796Y164009D01*
X86731Y164028D01*
X86657Y164046D01*
X86500Y164097D01*
Y164517D01*
X86505D01*
X86509Y164513D01*
X86537Y164499D01*
X86579Y164476D01*
X86634Y164453D01*
X86694Y164425D01*
X86763Y164397D01*
X86842Y164370D01*
X86916Y164347D01*
X86925D01*
X86953Y164337D01*
X86994Y164333D01*
X87045Y164323D01*
X87110Y164314D01*
X87179Y164305D01*
X87253Y164300D01*
X87332Y164296D01*
X87364D01*
X87387Y164300D01*
X87419D01*
X87452Y164305D01*
X87530Y164314D01*
X87613Y164333D01*
X87701Y164360D01*
X87789Y164397D01*
X87863Y164448D01*
X87872Y164457D01*
X87891Y164476D01*
X87923Y164513D01*
X87960Y164564D01*
X87992Y164628D01*
X88025Y164707D01*
X88043Y164795D01*
X88052Y164901D01*
Y164906D01*
Y164915D01*
Y164929D01*
X88048Y164947D01*
X88043Y164998D01*
X88029Y165058D01*
X88006Y165127D01*
X87974Y165201D01*
X87928Y165270D01*
X87863Y165335D01*
X87854Y165344D01*
X87831Y165363D01*
X87789Y165386D01*
X87729Y165418D01*
X87660Y165446D01*
X87572Y165474D01*
X87475Y165492D01*
X87359Y165497D01*
X87041D01*
Y165843D01*
X87406D01*
X87461Y165848D01*
X87526Y165857D01*
X87600Y165876D01*
X87673Y165894D01*
X87747Y165927D01*
X87812Y165968D01*
X87821Y165973D01*
X87840Y165991D01*
X87863Y166019D01*
X87895Y166060D01*
X87928Y166111D01*
X87951Y166171D01*
X87969Y166245D01*
X87978Y166324D01*
Y166329D01*
Y166333D01*
Y166347D01*
Y166365D01*
X87969Y166407D01*
X87960Y166463D01*
X87941Y166523D01*
X87914Y166587D01*
X87877Y166647D01*
X87826Y166698D01*
X87817Y166703D01*
X87798Y166717D01*
X87761Y166740D01*
X87715Y166763D01*
X87655Y166786D01*
X87577Y166809D01*
X87493Y166823D01*
X87392Y166827D01*
X87322D01*
X87276Y166823D01*
X87216Y166818D01*
X87151Y166809D01*
X87082Y166800D01*
X87008Y166786D01*
X86999D01*
X86976Y166777D01*
X86934Y166767D01*
X86883Y166753D01*
X86819Y166735D01*
X86750Y166717D01*
X86671Y166689D01*
X86592Y166661D01*
Y167049D01*
X86597D01*
X86602Y167054D01*
X86616D01*
X86634Y167058D01*
X86680Y167072D01*
X86740Y167086D01*
X86809Y167100D01*
X86888Y167119D01*
X86967Y167132D01*
X87041Y167146D01*
X87050D01*
X87073Y167151D01*
X87110Y167160D01*
X87161Y167165D01*
X87212Y167174D01*
X87271Y167179D01*
X87392Y167183D01*
X87438D01*
X87466Y167179D01*
D02*
G37*
G36*
X69033Y157000D02*
X68335D01*
Y157767D01*
X69033D01*
Y157000D01*
D02*
G37*
G36*
Y158465D02*
X68335D01*
Y159227D01*
X69033D01*
Y158465D01*
D02*
G37*
G36*
X67143Y157000D02*
X66482D01*
X65609Y159273D01*
Y157000D01*
X65064D01*
Y160128D01*
X65725D01*
X66598Y157855D01*
Y160128D01*
X67143D01*
Y157000D01*
D02*
G37*
G36*
X116927Y184443D02*
X118453D01*
Y183500D01*
X114171D01*
Y184443D01*
X115697D01*
Y187256D01*
X114494D01*
Y188199D01*
X116927D01*
Y184443D01*
D02*
G37*
G36*
X137719Y157971D02*
Y157943D01*
Y157888D01*
Y157804D01*
X137691Y157693D01*
X137663Y157388D01*
X137580Y157027D01*
X137469Y156638D01*
X137275Y156305D01*
X137025Y155999D01*
X136858Y155916D01*
X136664Y155833D01*
X135553D01*
X135497Y155860D01*
X135359Y155916D01*
X135220Y156027D01*
X134997Y156194D01*
X134775Y156444D01*
X134636Y156610D01*
X134470Y156805D01*
X134331Y157027D01*
X134164Y157277D01*
Y157971D01*
Y157999D01*
X134192Y158027D01*
X134275Y158193D01*
X134442Y158415D01*
X134692Y158693D01*
X135025Y158943D01*
X135470Y159165D01*
X135720Y159248D01*
X135997Y159332D01*
X136330Y159360D01*
X136664Y159387D01*
X137719Y157971D01*
D02*
G37*
G36*
X116927Y189041D02*
X115697D01*
Y190474D01*
X116927D01*
Y189041D01*
D02*
G37*
G36*
X157075Y183214D02*
X157241Y183131D01*
X157436Y182964D01*
X157574Y182853D01*
X157713Y182714D01*
X157880Y182547D01*
X158074Y182325D01*
X158269Y182075D01*
X158491Y181770D01*
X158741Y181437D01*
X158991Y181076D01*
X159268Y180631D01*
X159546Y180131D01*
X159879Y179604D01*
X160213Y178993D01*
X160546Y178326D01*
X160935Y177577D01*
X161323Y176771D01*
X161740Y175883D01*
X162184Y174938D01*
X162656Y173883D01*
X163128Y172772D01*
X163628Y171551D01*
X164156Y170273D01*
X164711Y168885D01*
X165295Y167385D01*
X165878Y165802D01*
X165517D01*
X165489Y165830D01*
X165433Y165941D01*
X165350Y166080D01*
X165239Y166274D01*
X165100Y166524D01*
X164906Y166830D01*
X164711Y167163D01*
X164489Y167524D01*
X164211Y167940D01*
X163962Y168357D01*
X163351Y169301D01*
X162656Y170301D01*
X161934Y171328D01*
X161185Y172356D01*
X160379Y173355D01*
X159574Y174300D01*
X159185Y174716D01*
X158769Y175133D01*
X158380Y175494D01*
X157991Y175827D01*
X157630Y176133D01*
X157241Y176383D01*
X156880Y176577D01*
X156547Y176743D01*
X156186Y176827D01*
X155880Y176855D01*
X155186D01*
X155131Y176827D01*
X154992Y176771D01*
X154770Y176660D01*
X154464Y176494D01*
X154103Y176244D01*
X153659Y175910D01*
X153131Y175466D01*
X152854Y175216D01*
X152576Y174938D01*
X152270Y174633D01*
X151965Y174272D01*
X151632Y173911D01*
X151298Y173494D01*
X150937Y173050D01*
X150576Y172578D01*
X150215Y172050D01*
X149854Y171495D01*
X149466Y170884D01*
X149077Y170245D01*
X148688Y169579D01*
X148272Y168857D01*
X147883Y168079D01*
X147466Y167246D01*
X147050Y166385D01*
X146633Y165469D01*
X146661Y165441D01*
X146716Y165302D01*
X146800Y165136D01*
X146939Y164886D01*
X147077Y164608D01*
X147244Y164303D01*
X147661Y163608D01*
X148105Y162914D01*
X148327Y162581D01*
X148577Y162275D01*
X148827Y161998D01*
X149049Y161776D01*
X149271Y161609D01*
X149493Y161525D01*
X150243D01*
X150327Y161581D01*
X150410Y161637D01*
X150493Y161692D01*
X150604Y161803D01*
X150743Y161942D01*
X150910Y162109D01*
X151104Y162303D01*
X151354Y162581D01*
X151604Y162886D01*
X151909Y163247D01*
X152243Y163692D01*
X152631Y164191D01*
X153048Y164747D01*
Y164386D01*
Y164358D01*
X153020Y164330D01*
X152992Y164247D01*
X152965Y164136D01*
X152854Y163858D01*
X152715Y163497D01*
X152548Y163053D01*
X152354Y162581D01*
X152132Y162081D01*
X151909Y161553D01*
X151632Y160998D01*
X151382Y160498D01*
X151104Y160026D01*
X150854Y159582D01*
X150576Y159221D01*
X150327Y158943D01*
X150188Y158832D01*
X150077Y158748D01*
X149938Y158721D01*
X149827Y158693D01*
X149771D01*
X149660Y158748D01*
X149549Y158804D01*
X149410Y158887D01*
X149243Y159026D01*
X149049Y159221D01*
X148799Y159498D01*
X148549Y159832D01*
X148299Y160248D01*
X147994Y160776D01*
X147855Y161081D01*
X147688Y161387D01*
X147522Y161748D01*
X147355Y162136D01*
X147188Y162553D01*
X146994Y162997D01*
X146827Y163469D01*
X146633Y163969D01*
X146467Y164525D01*
X146272Y165108D01*
X145911D01*
X145883Y165052D01*
X145828Y164913D01*
X145745Y164691D01*
X145606Y164386D01*
X145439Y163997D01*
X145245Y163525D01*
X145050Y163025D01*
X144800Y162442D01*
X144523Y161803D01*
X144217Y161137D01*
X143912Y160442D01*
X143578Y159693D01*
X142829Y158165D01*
X142051Y156582D01*
X141246Y154972D01*
X140385Y153445D01*
X139968Y152695D01*
X139524Y152000D01*
X139107Y151334D01*
X138663Y150695D01*
X138247Y150112D01*
X137830Y149612D01*
X137414Y149140D01*
X137025Y148751D01*
X136636Y148446D01*
X136275Y148224D01*
X135914Y148085D01*
X135581Y148029D01*
X135553D01*
X135442Y148057D01*
X135247Y148140D01*
X134997Y148307D01*
X134831Y148418D01*
X134664Y148557D01*
X134470Y148751D01*
X134248Y148946D01*
X134026Y149196D01*
X133776Y149501D01*
X133498Y149834D01*
X133220Y150223D01*
X132887Y150640D01*
X132581Y151140D01*
X132220Y151667D01*
X131860Y152278D01*
X131471Y152972D01*
X131082Y153694D01*
X130665Y154500D01*
X130221Y155388D01*
X129749Y156333D01*
X129277Y157388D01*
X128777Y158499D01*
X128249Y159721D01*
X127722Y160998D01*
X127166Y162386D01*
X126583Y163886D01*
X126000Y165469D01*
X126361D01*
X126417Y165441D01*
X126472Y165358D01*
X126583Y165275D01*
X126722Y165108D01*
X126916Y164886D01*
X127111Y164608D01*
X127389Y164247D01*
X127694Y163830D01*
X128055Y163275D01*
X128249Y162970D01*
X128444Y162636D01*
X128666Y162275D01*
X128916Y161887D01*
X129166Y161470D01*
X129444Y161026D01*
X129721Y160554D01*
X130027Y160026D01*
X130332Y159471D01*
X130665Y158887D01*
X130999Y158276D01*
X131360Y157610D01*
X131387Y157582D01*
X131471Y157499D01*
X131609Y157360D01*
X131776Y157166D01*
X131971Y156944D01*
X132220Y156721D01*
X132498Y156471D01*
X132804Y156194D01*
X133470Y155666D01*
X133803Y155444D01*
X134164Y155222D01*
X134525Y155027D01*
X134886Y154888D01*
X135247Y154805D01*
X135581Y154777D01*
X136358D01*
X136497Y154805D01*
X136719Y154861D01*
X137025Y154944D01*
X137414Y155138D01*
X137886Y155388D01*
X138136Y155555D01*
X138413Y155722D01*
X138719Y155944D01*
X139024Y156194D01*
X139330Y156499D01*
X139663Y156805D01*
X140024Y157166D01*
X140385Y157554D01*
X140774Y157999D01*
X141162Y158471D01*
X141551Y158999D01*
X141968Y159582D01*
X142384Y160220D01*
X142829Y160887D01*
X143245Y161609D01*
X143717Y162414D01*
X144162Y163247D01*
X144634Y164164D01*
X145106Y165136D01*
X145578Y166163D01*
X145550Y166191D01*
X145522Y166274D01*
X145439Y166413D01*
X145328Y166607D01*
X145189Y166830D01*
X145050Y167079D01*
X144689Y167607D01*
X144273Y168190D01*
X143856Y168718D01*
X143662Y168940D01*
X143467Y169134D01*
X143273Y169273D01*
X143078Y169384D01*
X141996D01*
X141912Y169329D01*
X141773Y169246D01*
X141662Y169134D01*
X141523Y169023D01*
X141385Y168885D01*
X141218Y168690D01*
X140996Y168468D01*
X140774Y168190D01*
X140496Y167857D01*
X140218Y167468D01*
X139885Y167024D01*
X139524Y166524D01*
Y166885D01*
Y166913D01*
X139552Y166941D01*
X139607Y167107D01*
X139691Y167385D01*
X139802Y167718D01*
X139968Y168135D01*
X140135Y168579D01*
X140329Y169051D01*
X140551Y169551D01*
X140801Y170051D01*
X141051Y170523D01*
X141301Y170995D01*
X141579Y171384D01*
X141857Y171717D01*
X142162Y171995D01*
X142440Y172161D01*
X142579Y172189D01*
X142718Y172217D01*
X143078D01*
X143106Y172189D01*
X143162Y172134D01*
X143245Y172050D01*
X143356Y171939D01*
X143495Y171745D01*
X143662Y171551D01*
X143856Y171273D01*
X144051Y170967D01*
X144273Y170606D01*
X144495Y170190D01*
X144717Y169718D01*
X144967Y169218D01*
X145217Y168635D01*
X145439Y167996D01*
X145689Y167302D01*
X145911Y166524D01*
X146272D01*
X146300Y166552D01*
X146328Y166663D01*
X146411Y166857D01*
X146494Y167107D01*
X146605Y167413D01*
X146772Y167774D01*
X146939Y168163D01*
X147133Y168635D01*
X147327Y169134D01*
X147549Y169690D01*
X147800Y170273D01*
X148077Y170856D01*
X148660Y172161D01*
X149299Y173550D01*
X149993Y174966D01*
X150743Y176383D01*
X151493Y177771D01*
X152298Y179132D01*
X152687Y179770D01*
X153103Y180381D01*
X153520Y180937D01*
X153909Y181492D01*
X154325Y181992D01*
X154742Y182464D01*
X155158Y182881D01*
X155547Y183242D01*
X156991D01*
X157075Y183214D01*
D02*
G37*
G36*
X51329Y98239D02*
X52680D01*
Y100654D01*
X53771D01*
Y98239D01*
X56500D01*
Y97000D01*
X50238D01*
Y100894D01*
X51329D01*
Y98239D01*
D02*
G37*
G36*
X156325Y174688D02*
X156491Y174605D01*
X156714Y174439D01*
X156991Y174189D01*
X157241Y173855D01*
X157463Y173411D01*
X157547Y173161D01*
X157630Y172883D01*
X157658Y172550D01*
X157686Y172217D01*
X157658D01*
X157630Y172161D01*
X157463Y172050D01*
X157213Y171884D01*
X156908Y171689D01*
X156547Y171495D01*
X156186Y171328D01*
X155853Y171217D01*
X155547Y171162D01*
X155519D01*
X155492Y171189D01*
X155325Y171245D01*
X155103Y171356D01*
X154825Y171495D01*
X154548Y171662D01*
X154325Y171828D01*
X154159Y172023D01*
X154131Y172106D01*
X154103Y172217D01*
Y173633D01*
Y173661D01*
X154131Y173717D01*
X154159Y173828D01*
X154242Y173967D01*
X154381Y174133D01*
X154548Y174328D01*
X154825Y174522D01*
X155186Y174716D01*
X156297D01*
X156325Y174688D01*
D02*
G37*
G36*
X65312Y189864D02*
X65414Y189855D01*
X65534Y189836D01*
X65775Y189790D01*
X65793D01*
X65830Y189781D01*
X65895Y189762D01*
X65978Y189734D01*
X66070Y189707D01*
X66172Y189670D01*
X66394Y189568D01*
Y188190D01*
X66376Y188199D01*
X66339Y188236D01*
X66274Y188292D01*
X66191Y188356D01*
X66098Y188430D01*
X65996Y188495D01*
X65876Y188569D01*
X65765Y188625D01*
X65756Y188634D01*
X65719Y188643D01*
X65654Y188671D01*
X65580Y188698D01*
X65488Y188717D01*
X65386Y188745D01*
X65275Y188754D01*
X65155Y188763D01*
X65090D01*
X65044Y188754D01*
X64988Y188745D01*
X64924Y188735D01*
X64766Y188698D01*
X64600Y188634D01*
X64517Y188587D01*
X64433Y188532D01*
X64350Y188467D01*
X64267Y188402D01*
X64193Y188310D01*
X64128Y188217D01*
Y188208D01*
X64109Y188190D01*
X64100Y188162D01*
X64073Y188116D01*
X64045Y188060D01*
X64017Y187996D01*
X63989Y187912D01*
X63961Y187820D01*
X63924Y187709D01*
X63897Y187589D01*
X63869Y187459D01*
X63841Y187320D01*
X63814Y187163D01*
X63804Y186987D01*
X63786Y186811D01*
Y186617D01*
Y186608D01*
Y186571D01*
Y186515D01*
X63795Y186442D01*
Y186358D01*
X63804Y186257D01*
X63814Y186145D01*
X63832Y186025D01*
X63869Y185766D01*
X63934Y185498D01*
X64017Y185248D01*
X64073Y185137D01*
X64128Y185026D01*
Y185017D01*
X64147Y185008D01*
X64165Y184980D01*
X64193Y184943D01*
X64276Y184860D01*
X64387Y184758D01*
X64526Y184656D01*
X64701Y184573D01*
X64803Y184536D01*
X64914Y184518D01*
X65035Y184499D01*
X65155Y184490D01*
X65210D01*
X65266Y184499D01*
X65349Y184508D01*
X65442Y184518D01*
X65543Y184545D01*
X65654Y184573D01*
X65765Y184619D01*
X65784Y184628D01*
X65821Y184647D01*
X65876Y184684D01*
X65960Y184730D01*
X66052Y184786D01*
X66163Y184869D01*
X66274Y184952D01*
X66394Y185063D01*
Y183685D01*
X66385Y183676D01*
X66339Y183657D01*
X66283Y183630D01*
X66209Y183602D01*
X66117Y183555D01*
X66006Y183519D01*
X65775Y183454D01*
X65756D01*
X65719Y183444D01*
X65654Y183435D01*
X65571Y183417D01*
X65469Y183407D01*
X65349Y183389D01*
X65219Y183380D01*
X65035D01*
X64970Y183389D01*
X64886D01*
X64776Y183407D01*
X64655Y183426D01*
X64526Y183454D01*
X64378Y183482D01*
X64230Y183528D01*
X64063Y183583D01*
X63906Y183648D01*
X63749Y183731D01*
X63591Y183824D01*
X63443Y183935D01*
X63296Y184064D01*
X63166Y184212D01*
X63157Y184221D01*
X63138Y184249D01*
X63101Y184295D01*
X63064Y184370D01*
X63009Y184453D01*
X62953Y184555D01*
X62898Y184684D01*
X62833Y184823D01*
X62768Y184989D01*
X62713Y185165D01*
X62657Y185359D01*
X62602Y185581D01*
X62565Y185812D01*
X62528Y186062D01*
X62509Y186330D01*
X62500Y186617D01*
Y186627D01*
Y186636D01*
Y186691D01*
X62509Y186765D01*
Y186876D01*
X62519Y187006D01*
X62537Y187163D01*
X62555Y187329D01*
X62583Y187514D01*
X62620Y187699D01*
X62666Y187903D01*
X62713Y188107D01*
X62778Y188301D01*
X62861Y188504D01*
X62944Y188689D01*
X63046Y188865D01*
X63166Y189032D01*
X63175Y189041D01*
X63194Y189068D01*
X63240Y189105D01*
X63286Y189161D01*
X63360Y189226D01*
X63443Y189300D01*
X63545Y189374D01*
X63656Y189457D01*
X63786Y189531D01*
X63924Y189605D01*
X64091Y189679D01*
X64258Y189744D01*
X64442Y189799D01*
X64646Y189836D01*
X64859Y189864D01*
X65090Y189873D01*
X65219D01*
X65312Y189864D01*
D02*
G37*
G36*
X111238Y188301D02*
X111358Y188292D01*
X111488Y188282D01*
X111636Y188264D01*
X111784Y188245D01*
X111802D01*
X111849Y188236D01*
X111932Y188217D01*
X112034Y188199D01*
X112145Y188171D01*
X112284Y188134D01*
X112561Y188051D01*
Y186978D01*
X112542Y186987D01*
X112505Y187015D01*
X112432Y187052D01*
X112348Y187098D01*
X112237Y187154D01*
X112117Y187209D01*
X111987Y187256D01*
X111849Y187302D01*
X111830Y187311D01*
X111784Y187320D01*
X111710Y187339D01*
X111618Y187357D01*
X111506Y187376D01*
X111377Y187394D01*
X111248Y187413D01*
X111044D01*
X110970Y187404D01*
X110878Y187394D01*
X110776Y187385D01*
X110674Y187366D01*
X110582Y187329D01*
X110489Y187293D01*
X110480Y187283D01*
X110461Y187274D01*
X110424Y187246D01*
X110387Y187200D01*
X110350Y187154D01*
X110313Y187098D01*
X110295Y187024D01*
X110285Y186941D01*
Y186923D01*
X110304Y186885D01*
X110332Y186821D01*
X110360Y186784D01*
X110397Y186747D01*
X110443Y186710D01*
X110498Y186663D01*
X110572Y186617D01*
X110665Y186571D01*
X110766Y186525D01*
X110878Y186478D01*
X111016Y186432D01*
X111173Y186395D01*
X111220Y186386D01*
X111581Y186303D01*
X111590D01*
X111608Y186293D01*
X111645Y186284D01*
X111691Y186275D01*
X111747Y186257D01*
X111812Y186229D01*
X111951Y186173D01*
X112117Y186099D01*
X112274Y186016D01*
X112432Y185905D01*
X112561Y185785D01*
X112570Y185766D01*
X112607Y185720D01*
X112663Y185646D01*
X112718Y185535D01*
X112774Y185396D01*
X112829Y185230D01*
X112866Y185036D01*
X112875Y184823D01*
Y184813D01*
Y184795D01*
Y184758D01*
X112866Y184703D01*
X112857Y184647D01*
X112848Y184573D01*
X112820Y184416D01*
X112755Y184240D01*
X112672Y184064D01*
X112617Y183972D01*
X112552Y183888D01*
X112478Y183815D01*
X112394Y183740D01*
X112385D01*
X112376Y183722D01*
X112348Y183703D01*
X112302Y183685D01*
X112256Y183657D01*
X112191Y183630D01*
X112117Y183592D01*
X112034Y183565D01*
X111941Y183528D01*
X111830Y183491D01*
X111719Y183463D01*
X111590Y183435D01*
X111451Y183417D01*
X111294Y183398D01*
X111136Y183380D01*
X110803D01*
X110693Y183389D01*
X110563Y183398D01*
X110415Y183407D01*
X110258Y183426D01*
X110091Y183454D01*
X110073D01*
X110017Y183472D01*
X109925Y183482D01*
X109814Y183509D01*
X109675Y183537D01*
X109527Y183583D01*
X109361Y183620D01*
X109194Y183676D01*
Y184749D01*
X109203D01*
X109213Y184739D01*
X109268Y184712D01*
X109342Y184666D01*
X109453Y184619D01*
X109573Y184564D01*
X109712Y184499D01*
X109860Y184443D01*
X110017Y184397D01*
X110027D01*
X110036Y184388D01*
X110091Y184379D01*
X110175Y184360D01*
X110276Y184342D01*
X110406Y184314D01*
X110545Y184295D01*
X110693Y184286D01*
X110840Y184277D01*
X110915D01*
X110988Y184286D01*
X111081Y184295D01*
X111183Y184305D01*
X111294Y184333D01*
X111396Y184360D01*
X111488Y184397D01*
X111497Y184406D01*
X111525Y184425D01*
X111562Y184453D01*
X111608Y184490D01*
X111645Y184545D01*
X111682Y184601D01*
X111710Y184675D01*
X111719Y184758D01*
Y184767D01*
Y184795D01*
X111710Y184841D01*
X111701Y184897D01*
X111682Y184952D01*
X111654Y185008D01*
X111618Y185073D01*
X111562Y185119D01*
X111553Y185128D01*
X111525Y185137D01*
X111479Y185165D01*
X111414Y185202D01*
X111312Y185239D01*
X111183Y185285D01*
X111100Y185313D01*
X111016Y185331D01*
X110915Y185359D01*
X110813Y185387D01*
X110470Y185461D01*
X110461D01*
X110443Y185470D01*
X110406Y185479D01*
X110360Y185489D01*
X110295Y185507D01*
X110230Y185535D01*
X110082Y185591D01*
X109915Y185655D01*
X109740Y185739D01*
X109582Y185840D01*
X109444Y185960D01*
X109434Y185979D01*
X109397Y186025D01*
X109342Y186099D01*
X109286Y186201D01*
X109222Y186330D01*
X109176Y186488D01*
X109139Y186673D01*
X109120Y186876D01*
Y186885D01*
Y186904D01*
Y186941D01*
X109129Y186987D01*
X109139Y187043D01*
X109148Y187108D01*
X109185Y187265D01*
X109240Y187431D01*
X109324Y187607D01*
X109379Y187690D01*
X109453Y187774D01*
X109527Y187857D01*
X109610Y187931D01*
X109619D01*
X109629Y187949D01*
X109666Y187968D01*
X109703Y187986D01*
X109749Y188023D01*
X109814Y188051D01*
X109888Y188088D01*
X109971Y188125D01*
X110064Y188153D01*
X110165Y188190D01*
X110276Y188227D01*
X110397Y188254D01*
X110535Y188273D01*
X110674Y188292D01*
X110831Y188310D01*
X111136D01*
X111238Y188301D01*
D02*
G37*
G36*
X75043D02*
X75163Y188292D01*
X75293Y188282D01*
X75441Y188264D01*
X75589Y188245D01*
X75607D01*
X75653Y188236D01*
X75737Y188217D01*
X75839Y188199D01*
X75950Y188171D01*
X76088Y188134D01*
X76366Y188051D01*
Y186978D01*
X76347Y186987D01*
X76310Y187015D01*
X76236Y187052D01*
X76153Y187098D01*
X76042Y187154D01*
X75922Y187209D01*
X75792Y187256D01*
X75653Y187302D01*
X75635Y187311D01*
X75589Y187320D01*
X75515Y187339D01*
X75422Y187357D01*
X75311Y187376D01*
X75182Y187394D01*
X75052Y187413D01*
X74849D01*
X74775Y187404D01*
X74682Y187394D01*
X74581Y187385D01*
X74479Y187366D01*
X74386Y187329D01*
X74294Y187293D01*
X74284Y187283D01*
X74266Y187274D01*
X74229Y187246D01*
X74192Y187200D01*
X74155Y187154D01*
X74118Y187098D01*
X74099Y187024D01*
X74090Y186941D01*
Y186923D01*
X74109Y186885D01*
X74137Y186821D01*
X74164Y186784D01*
X74201Y186747D01*
X74247Y186710D01*
X74303Y186663D01*
X74377Y186617D01*
X74470Y186571D01*
X74571Y186525D01*
X74682Y186478D01*
X74821Y186432D01*
X74978Y186395D01*
X75024Y186386D01*
X75385Y186303D01*
X75394D01*
X75413Y186293D01*
X75450Y186284D01*
X75496Y186275D01*
X75552Y186257D01*
X75617Y186229D01*
X75755Y186173D01*
X75922Y186099D01*
X76079Y186016D01*
X76236Y185905D01*
X76366Y185785D01*
X76375Y185766D01*
X76412Y185720D01*
X76468Y185646D01*
X76523Y185535D01*
X76578Y185396D01*
X76634Y185230D01*
X76671Y185036D01*
X76680Y184823D01*
Y184813D01*
Y184795D01*
Y184758D01*
X76671Y184703D01*
X76662Y184647D01*
X76652Y184573D01*
X76625Y184416D01*
X76560Y184240D01*
X76477Y184064D01*
X76421Y183972D01*
X76357Y183888D01*
X76283Y183815D01*
X76199Y183740D01*
X76190D01*
X76181Y183722D01*
X76153Y183703D01*
X76107Y183685D01*
X76060Y183657D01*
X75996Y183630D01*
X75922Y183592D01*
X75839Y183565D01*
X75746Y183528D01*
X75635Y183491D01*
X75524Y183463D01*
X75394Y183435D01*
X75256Y183417D01*
X75099Y183398D01*
X74941Y183380D01*
X74608D01*
X74497Y183389D01*
X74368Y183398D01*
X74220Y183407D01*
X74063Y183426D01*
X73896Y183454D01*
X73878D01*
X73822Y183472D01*
X73729Y183482D01*
X73619Y183509D01*
X73480Y183537D01*
X73332Y183583D01*
X73165Y183620D01*
X72999Y183676D01*
Y184749D01*
X73008D01*
X73017Y184739D01*
X73073Y184712D01*
X73147Y184666D01*
X73258Y184619D01*
X73378Y184564D01*
X73517Y184499D01*
X73665Y184443D01*
X73822Y184397D01*
X73831D01*
X73840Y184388D01*
X73896Y184379D01*
X73979Y184360D01*
X74081Y184342D01*
X74211Y184314D01*
X74349Y184295D01*
X74497Y184286D01*
X74645Y184277D01*
X74719D01*
X74793Y184286D01*
X74886Y184295D01*
X74988Y184305D01*
X75099Y184333D01*
X75200Y184360D01*
X75293Y184397D01*
X75302Y184406D01*
X75330Y184425D01*
X75367Y184453D01*
X75413Y184490D01*
X75450Y184545D01*
X75487Y184601D01*
X75515Y184675D01*
X75524Y184758D01*
Y184767D01*
Y184795D01*
X75515Y184841D01*
X75506Y184897D01*
X75487Y184952D01*
X75459Y185008D01*
X75422Y185073D01*
X75367Y185119D01*
X75358Y185128D01*
X75330Y185137D01*
X75283Y185165D01*
X75219Y185202D01*
X75117Y185239D01*
X74988Y185285D01*
X74904Y185313D01*
X74821Y185331D01*
X74719Y185359D01*
X74617Y185387D01*
X74275Y185461D01*
X74266D01*
X74247Y185470D01*
X74211Y185479D01*
X74164Y185489D01*
X74099Y185507D01*
X74035Y185535D01*
X73887Y185591D01*
X73720Y185655D01*
X73545Y185739D01*
X73387Y185840D01*
X73248Y185960D01*
X73239Y185979D01*
X73202Y186025D01*
X73147Y186099D01*
X73091Y186201D01*
X73027Y186330D01*
X72980Y186488D01*
X72943Y186673D01*
X72925Y186876D01*
Y186885D01*
Y186904D01*
Y186941D01*
X72934Y186987D01*
X72943Y187043D01*
X72953Y187108D01*
X72989Y187265D01*
X73045Y187431D01*
X73128Y187607D01*
X73184Y187690D01*
X73258Y187774D01*
X73332Y187857D01*
X73415Y187931D01*
X73424D01*
X73434Y187949D01*
X73470Y187968D01*
X73507Y187986D01*
X73554Y188023D01*
X73619Y188051D01*
X73693Y188088D01*
X73776Y188125D01*
X73868Y188153D01*
X73970Y188190D01*
X74081Y188227D01*
X74201Y188254D01*
X74340Y188273D01*
X74479Y188292D01*
X74636Y188310D01*
X74941D01*
X75043Y188301D01*
D02*
G37*
G36*
X90962D02*
X91018D01*
X91083Y188292D01*
X91230Y188254D01*
X91388Y188199D01*
X91554Y188125D01*
X91721Y188014D01*
X91795Y187940D01*
X91860Y187866D01*
Y187857D01*
X91878Y187847D01*
X91887Y187820D01*
X91915Y187783D01*
X91943Y187736D01*
X91970Y187681D01*
X91998Y187616D01*
X92035Y187533D01*
X92063Y187450D01*
X92091Y187348D01*
X92119Y187237D01*
X92146Y187117D01*
X92174Y186996D01*
X92183Y186848D01*
X92202Y186700D01*
Y186543D01*
Y183500D01*
X90981D01*
Y186358D01*
Y186367D01*
Y186377D01*
Y186405D01*
Y186442D01*
X90971Y186534D01*
X90962Y186645D01*
X90944Y186756D01*
X90916Y186885D01*
X90879Y186996D01*
X90833Y187089D01*
X90824Y187098D01*
X90805Y187126D01*
X90768Y187163D01*
X90722Y187200D01*
X90657Y187237D01*
X90574Y187274D01*
X90472Y187302D01*
X90361Y187311D01*
X90306D01*
X90250Y187293D01*
X90176Y187274D01*
X90093Y187237D01*
X90009Y187181D01*
X89917Y187108D01*
X89843Y187006D01*
X89834Y186996D01*
X89815Y186950D01*
X89788Y186885D01*
X89750Y186793D01*
X89714Y186673D01*
X89686Y186534D01*
X89667Y186367D01*
X89658Y186182D01*
Y183500D01*
X88437D01*
Y188199D01*
X89658D01*
Y187487D01*
X89667Y187505D01*
X89686Y187551D01*
X89714Y187626D01*
X89760Y187709D01*
X89824Y187801D01*
X89899Y187903D01*
X89991Y188005D01*
X90093Y188088D01*
X90111Y188097D01*
X90148Y188125D01*
X90213Y188162D01*
X90306Y188199D01*
X90417Y188236D01*
X90546Y188273D01*
X90694Y188301D01*
X90851Y188310D01*
X90916D01*
X90962Y188301D01*
D02*
G37*
G36*
X80593D02*
X80667Y188292D01*
X80741Y188273D01*
X80926Y188227D01*
X81019Y188199D01*
X81120Y188153D01*
X81222Y188097D01*
X81333Y188042D01*
X81435Y187959D01*
X81527Y187875D01*
X81629Y187774D01*
X81712Y187662D01*
X81722Y187653D01*
X81731Y187635D01*
X81758Y187598D01*
X81786Y187542D01*
X81814Y187478D01*
X81860Y187394D01*
X81897Y187302D01*
X81944Y187191D01*
X81981Y187071D01*
X82027Y186932D01*
X82064Y186784D01*
X82091Y186617D01*
X82129Y186442D01*
X82147Y186257D01*
X82156Y186053D01*
X82165Y185840D01*
Y185831D01*
Y185785D01*
Y185729D01*
X82156Y185646D01*
Y185544D01*
X82138Y185433D01*
X82129Y185304D01*
X82110Y185165D01*
X82055Y184869D01*
X81971Y184564D01*
X81925Y184416D01*
X81860Y184268D01*
X81796Y184138D01*
X81712Y184009D01*
X81703Y184000D01*
X81694Y183981D01*
X81666Y183953D01*
X81629Y183907D01*
X81583Y183861D01*
X81527Y183815D01*
X81463Y183750D01*
X81379Y183694D01*
X81296Y183639D01*
X81204Y183583D01*
X81093Y183528D01*
X80981Y183482D01*
X80852Y183435D01*
X80722Y183407D01*
X80575Y183389D01*
X80427Y183380D01*
X80362D01*
X80288Y183389D01*
X80195Y183407D01*
X80093Y183426D01*
X79983Y183463D01*
X79862Y183509D01*
X79742Y183574D01*
X79733Y183583D01*
X79696Y183611D01*
X79640Y183657D01*
X79566Y183722D01*
X79483Y183805D01*
X79400Y183907D01*
X79307Y184027D01*
X79224Y184166D01*
Y181715D01*
X78003D01*
Y188199D01*
X79224D01*
Y187496D01*
X79233Y187505D01*
X79261Y187551D01*
X79298Y187626D01*
X79353Y187718D01*
X79427Y187811D01*
X79511Y187912D01*
X79612Y188014D01*
X79724Y188097D01*
X79742Y188107D01*
X79779Y188134D01*
X79844Y188162D01*
X79936Y188208D01*
X80047Y188245D01*
X80168Y188273D01*
X80306Y188301D01*
X80463Y188310D01*
X80537D01*
X80593Y188301D01*
D02*
G37*
G36*
X127157D02*
X127213D01*
X127278Y188292D01*
X127426Y188254D01*
X127583Y188199D01*
X127750Y188125D01*
X127916Y188014D01*
X127990Y187940D01*
X128055Y187866D01*
Y187857D01*
X128073Y187847D01*
X128083Y187820D01*
X128110Y187783D01*
X128138Y187736D01*
X128166Y187681D01*
X128193Y187616D01*
X128231Y187533D01*
X128258Y187450D01*
X128286Y187348D01*
X128314Y187237D01*
X128341Y187117D01*
X128369Y186996D01*
X128378Y186848D01*
X128397Y186700D01*
Y186543D01*
Y183500D01*
X127176D01*
Y186358D01*
Y186367D01*
Y186377D01*
Y186405D01*
Y186442D01*
X127167Y186534D01*
X127157Y186645D01*
X127139Y186756D01*
X127111Y186885D01*
X127074Y186996D01*
X127028Y187089D01*
X127019Y187098D01*
X127000Y187126D01*
X126963Y187163D01*
X126917Y187200D01*
X126852Y187237D01*
X126769Y187274D01*
X126667Y187302D01*
X126556Y187311D01*
X126501D01*
X126445Y187293D01*
X126371Y187274D01*
X126288Y187237D01*
X126205Y187181D01*
X126112Y187108D01*
X126038Y187006D01*
X126029Y186996D01*
X126011Y186950D01*
X125983Y186885D01*
X125946Y186793D01*
X125909Y186673D01*
X125881Y186534D01*
X125863Y186367D01*
X125853Y186182D01*
Y183500D01*
X124632D01*
Y188199D01*
X125853D01*
Y187487D01*
X125863Y187505D01*
X125881Y187551D01*
X125909Y187626D01*
X125955Y187709D01*
X126020Y187801D01*
X126094Y187903D01*
X126186Y188005D01*
X126288Y188088D01*
X126306Y188097D01*
X126344Y188125D01*
X126408Y188162D01*
X126501Y188199D01*
X126612Y188236D01*
X126741Y188273D01*
X126889Y188301D01*
X127047Y188310D01*
X127111D01*
X127157Y188301D01*
D02*
G37*
G36*
X86578Y175801D02*
X86652Y175792D01*
X86735Y175782D01*
X86911Y175745D01*
X86920D01*
X86948Y175736D01*
X87003Y175717D01*
X87059Y175699D01*
X87133Y175671D01*
X87207Y175644D01*
X87373Y175569D01*
Y174404D01*
X87364Y174413D01*
X87336Y174432D01*
X87290Y174469D01*
X87234Y174506D01*
X87170Y174552D01*
X87086Y174598D01*
X86994Y174644D01*
X86892Y174681D01*
X86883D01*
X86846Y174700D01*
X86791Y174709D01*
X86717Y174728D01*
X86633Y174746D01*
X86532Y174756D01*
X86421Y174774D01*
X86235D01*
X86162Y174765D01*
X86069Y174756D01*
X85967Y174737D01*
X85847Y174718D01*
X85727Y174681D01*
X85616Y174635D01*
X85606Y174626D01*
X85570Y174608D01*
X85514Y174580D01*
X85449Y174533D01*
X85385Y174478D01*
X85311Y174413D01*
X85237Y174330D01*
X85172Y174238D01*
Y174228D01*
X85153Y174210D01*
X85135Y174173D01*
X85116Y174127D01*
X85098Y174071D01*
X85070Y174006D01*
X85033Y173849D01*
Y173840D01*
X85024Y173812D01*
Y173757D01*
X85014Y173682D01*
X85005Y173581D01*
Y173470D01*
X84996Y173331D01*
Y173164D01*
Y171000D01*
X83766D01*
Y175699D01*
X84996D01*
Y174978D01*
X85005Y174987D01*
X85033Y175033D01*
X85070Y175107D01*
X85135Y175199D01*
X85209Y175292D01*
X85301Y175394D01*
X85412Y175496D01*
X85542Y175588D01*
X85560Y175597D01*
X85606Y175625D01*
X85690Y175662D01*
X85791Y175699D01*
X85921Y175736D01*
X86069Y175773D01*
X86235Y175801D01*
X86421Y175810D01*
X86513D01*
X86578Y175801D01*
D02*
G37*
G36*
X121589Y172952D02*
Y172942D01*
Y172924D01*
Y172896D01*
Y172859D01*
X121598Y172767D01*
X121607Y172646D01*
X121626Y172517D01*
X121663Y172388D01*
X121700Y172267D01*
X121756Y172166D01*
X121765Y172156D01*
X121792Y172128D01*
X121829Y172091D01*
X121894Y172055D01*
X121977Y172018D01*
X122079Y171981D01*
X122199Y171953D01*
X122338Y171943D01*
X123328D01*
Y171000D01*
X121913D01*
X121857Y171009D01*
X121783D01*
X121700Y171028D01*
X121506Y171055D01*
X121302Y171111D01*
X121099Y171185D01*
X120905Y171296D01*
X120812Y171370D01*
X120738Y171444D01*
Y171453D01*
X120720Y171463D01*
X120701Y171490D01*
X120683Y171527D01*
X120655Y171583D01*
X120618Y171648D01*
X120581Y171721D01*
X120553Y171805D01*
X120516Y171897D01*
X120479Y172008D01*
X120451Y172138D01*
X120414Y172267D01*
X120396Y172424D01*
X120377Y172582D01*
X120359Y172757D01*
Y172952D01*
Y176578D01*
X119110D01*
Y177521D01*
X121589D01*
Y172952D01*
D02*
G37*
G36*
X128453Y171000D02*
X127232D01*
Y171694D01*
X127222Y171675D01*
X127194Y171629D01*
X127148Y171555D01*
X127093Y171463D01*
X127019Y171370D01*
X126926Y171268D01*
X126824Y171167D01*
X126714Y171083D01*
X126704Y171074D01*
X126658Y171055D01*
X126593Y171019D01*
X126510Y170982D01*
X126399Y170944D01*
X126279Y170907D01*
X126140Y170889D01*
X125983Y170880D01*
X125909D01*
X125853Y170889D01*
X125779Y170898D01*
X125705Y170917D01*
X125530Y170963D01*
X125428Y170991D01*
X125326Y171037D01*
X125224Y171083D01*
X125113Y171148D01*
X125012Y171222D01*
X124919Y171305D01*
X124817Y171407D01*
X124734Y171518D01*
X124725Y171527D01*
X124715Y171546D01*
X124697Y171583D01*
X124669Y171638D01*
X124632Y171703D01*
X124595Y171786D01*
X124558Y171879D01*
X124512Y171990D01*
X124475Y172110D01*
X124429Y172249D01*
X124392Y172397D01*
X124364Y172563D01*
X124327Y172739D01*
X124309Y172924D01*
X124299Y173127D01*
X124290Y173340D01*
Y173349D01*
Y173396D01*
Y173451D01*
X124299Y173535D01*
Y173636D01*
X124318Y173747D01*
X124327Y173877D01*
X124346Y174015D01*
X124401Y174311D01*
X124475Y174617D01*
X124586Y174913D01*
X124660Y175042D01*
X124734Y175172D01*
X124743Y175181D01*
X124752Y175199D01*
X124780Y175227D01*
X124817Y175274D01*
X124864Y175320D01*
X124919Y175375D01*
X124984Y175431D01*
X125067Y175496D01*
X125150Y175551D01*
X125252Y175607D01*
X125354Y175662D01*
X125465Y175708D01*
X125594Y175754D01*
X125724Y175782D01*
X125872Y175801D01*
X126020Y175810D01*
X126084D01*
X126158Y175801D01*
X126251Y175782D01*
X126353Y175764D01*
X126464Y175727D01*
X126584Y175671D01*
X126695Y175607D01*
X126704Y175597D01*
X126751Y175569D01*
X126806Y175523D01*
X126880Y175459D01*
X126963Y175375D01*
X127047Y175283D01*
X127139Y175162D01*
X127232Y175024D01*
Y177521D01*
X128453D01*
Y171000D01*
D02*
G37*
G36*
X65312Y177364D02*
X65414Y177355D01*
X65534Y177336D01*
X65775Y177290D01*
X65793D01*
X65830Y177281D01*
X65895Y177262D01*
X65978Y177234D01*
X66070Y177207D01*
X66172Y177170D01*
X66394Y177068D01*
Y175690D01*
X66376Y175699D01*
X66339Y175736D01*
X66274Y175792D01*
X66191Y175856D01*
X66098Y175930D01*
X65996Y175995D01*
X65876Y176069D01*
X65765Y176125D01*
X65756Y176134D01*
X65719Y176143D01*
X65654Y176171D01*
X65580Y176198D01*
X65488Y176217D01*
X65386Y176245D01*
X65275Y176254D01*
X65155Y176263D01*
X65090D01*
X65044Y176254D01*
X64988Y176245D01*
X64924Y176235D01*
X64766Y176198D01*
X64600Y176134D01*
X64517Y176087D01*
X64433Y176032D01*
X64350Y175967D01*
X64267Y175902D01*
X64193Y175810D01*
X64128Y175717D01*
Y175708D01*
X64109Y175690D01*
X64100Y175662D01*
X64073Y175616D01*
X64045Y175560D01*
X64017Y175496D01*
X63989Y175412D01*
X63961Y175320D01*
X63924Y175209D01*
X63897Y175089D01*
X63869Y174959D01*
X63841Y174820D01*
X63814Y174663D01*
X63804Y174487D01*
X63786Y174311D01*
Y174117D01*
Y174108D01*
Y174071D01*
Y174015D01*
X63795Y173942D01*
Y173858D01*
X63804Y173757D01*
X63814Y173645D01*
X63832Y173525D01*
X63869Y173266D01*
X63934Y172998D01*
X64017Y172748D01*
X64073Y172637D01*
X64128Y172526D01*
Y172517D01*
X64147Y172508D01*
X64165Y172480D01*
X64193Y172443D01*
X64276Y172360D01*
X64387Y172258D01*
X64526Y172156D01*
X64701Y172073D01*
X64803Y172036D01*
X64914Y172018D01*
X65035Y171999D01*
X65155Y171990D01*
X65210D01*
X65266Y171999D01*
X65349Y172008D01*
X65442Y172018D01*
X65543Y172045D01*
X65654Y172073D01*
X65765Y172119D01*
X65784Y172128D01*
X65821Y172147D01*
X65876Y172184D01*
X65960Y172230D01*
X66052Y172286D01*
X66163Y172369D01*
X66274Y172452D01*
X66394Y172563D01*
Y171185D01*
X66385Y171176D01*
X66339Y171157D01*
X66283Y171130D01*
X66209Y171102D01*
X66117Y171055D01*
X66006Y171019D01*
X65775Y170954D01*
X65756D01*
X65719Y170944D01*
X65654Y170935D01*
X65571Y170917D01*
X65469Y170907D01*
X65349Y170889D01*
X65219Y170880D01*
X65035D01*
X64970Y170889D01*
X64886D01*
X64776Y170907D01*
X64655Y170926D01*
X64526Y170954D01*
X64378Y170982D01*
X64230Y171028D01*
X64063Y171083D01*
X63906Y171148D01*
X63749Y171231D01*
X63591Y171324D01*
X63443Y171435D01*
X63296Y171564D01*
X63166Y171712D01*
X63157Y171721D01*
X63138Y171749D01*
X63101Y171795D01*
X63064Y171870D01*
X63009Y171953D01*
X62953Y172055D01*
X62898Y172184D01*
X62833Y172323D01*
X62768Y172489D01*
X62713Y172665D01*
X62657Y172859D01*
X62602Y173081D01*
X62565Y173312D01*
X62528Y173562D01*
X62509Y173830D01*
X62500Y174117D01*
Y174127D01*
Y174136D01*
Y174191D01*
X62509Y174265D01*
Y174376D01*
X62519Y174506D01*
X62537Y174663D01*
X62555Y174829D01*
X62583Y175014D01*
X62620Y175199D01*
X62666Y175403D01*
X62713Y175607D01*
X62778Y175801D01*
X62861Y176004D01*
X62944Y176189D01*
X63046Y176365D01*
X63166Y176532D01*
X63175Y176541D01*
X63194Y176568D01*
X63240Y176605D01*
X63286Y176661D01*
X63360Y176726D01*
X63443Y176800D01*
X63545Y176874D01*
X63656Y176957D01*
X63786Y177031D01*
X63924Y177105D01*
X64091Y177179D01*
X64258Y177244D01*
X64442Y177299D01*
X64646Y177336D01*
X64859Y177364D01*
X65090Y177373D01*
X65219D01*
X65312Y177364D01*
D02*
G37*
G36*
X76070Y175801D02*
X76171Y175792D01*
X76301Y175754D01*
X76440Y175708D01*
X76578Y175634D01*
X76708Y175523D01*
X76763Y175459D01*
X76810Y175384D01*
Y175375D01*
X76819Y175366D01*
X76828Y175338D01*
X76847Y175301D01*
X76865Y175246D01*
X76884Y175181D01*
X76911Y175107D01*
X76930Y175014D01*
X76948Y174904D01*
X76976Y174774D01*
X76995Y174635D01*
X77013Y174478D01*
X77032Y174293D01*
X77041Y174099D01*
X77050Y173886D01*
Y173645D01*
Y171000D01*
X76042D01*
Y174015D01*
Y174025D01*
Y174034D01*
Y174062D01*
Y174099D01*
Y174191D01*
X76033Y174293D01*
X76024Y174413D01*
X76005Y174524D01*
X75986Y174626D01*
X75959Y174709D01*
Y174718D01*
X75940Y174737D01*
X75922Y174765D01*
X75894Y174802D01*
X75848Y174839D01*
X75801Y174866D01*
X75737Y174885D01*
X75663Y174894D01*
X75626D01*
X75598Y174885D01*
X75552Y174876D01*
X75506Y174848D01*
X75459Y174820D01*
X75413Y174774D01*
X75376Y174709D01*
Y174700D01*
X75367Y174672D01*
X75348Y174626D01*
X75339Y174552D01*
X75321Y174460D01*
X75302Y174339D01*
X75293Y174191D01*
Y174015D01*
Y171000D01*
X74303D01*
Y174015D01*
Y174025D01*
Y174034D01*
Y174062D01*
Y174099D01*
Y174182D01*
X74294Y174293D01*
X74284Y174413D01*
X74266Y174524D01*
X74238Y174626D01*
X74211Y174709D01*
Y174718D01*
X74192Y174737D01*
X74173Y174765D01*
X74146Y174802D01*
X74109Y174839D01*
X74053Y174866D01*
X73998Y174885D01*
X73924Y174894D01*
X73887D01*
X73850Y174885D01*
X73804Y174876D01*
X73757Y174848D01*
X73711Y174820D01*
X73665Y174774D01*
X73628Y174709D01*
Y174700D01*
X73619Y174672D01*
X73609Y174626D01*
X73591Y174561D01*
X73581Y174460D01*
X73563Y174339D01*
X73554Y174191D01*
Y174015D01*
Y171000D01*
X72545D01*
Y175699D01*
X73443D01*
Y175209D01*
X73452Y175218D01*
X73461Y175255D01*
X73489Y175301D01*
X73526Y175366D01*
X73572Y175440D01*
X73628Y175514D01*
X73693Y175579D01*
X73776Y175644D01*
X73785Y175653D01*
X73813Y175671D01*
X73868Y175699D01*
X73924Y175727D01*
X73998Y175754D01*
X74090Y175782D01*
X74183Y175801D01*
X74284Y175810D01*
X74331D01*
X74386Y175801D01*
X74460Y175792D01*
X74534Y175764D01*
X74627Y175736D01*
X74710Y175690D01*
X74803Y175634D01*
X74812Y175625D01*
X74840Y175607D01*
X74886Y175569D01*
X74932Y175523D01*
X74978Y175459D01*
X75024Y175394D01*
X75062Y175311D01*
X75089Y175227D01*
X75099Y175236D01*
X75117Y175274D01*
X75145Y175329D01*
X75182Y175394D01*
X75237Y175468D01*
X75293Y175532D01*
X75367Y175607D01*
X75441Y175662D01*
X75450Y175671D01*
X75478Y175690D01*
X75524Y175708D01*
X75589Y175736D01*
X75663Y175764D01*
X75755Y175792D01*
X75857Y175801D01*
X75968Y175810D01*
X76024D01*
X76070Y175801D01*
D02*
G37*
G36*
X111756Y171943D02*
X113283D01*
Y171000D01*
X109000D01*
Y171943D01*
X110526D01*
Y174756D01*
X109324D01*
Y175699D01*
X111756D01*
Y171943D01*
D02*
G37*
G36*
X116363Y175801D02*
X116446Y175792D01*
X116548Y175773D01*
X116659Y175754D01*
X116779Y175736D01*
X117038Y175662D01*
X117177Y175607D01*
X117315Y175551D01*
X117445Y175477D01*
X117575Y175394D01*
X117695Y175301D01*
X117806Y175190D01*
X117815Y175181D01*
X117833Y175162D01*
X117861Y175126D01*
X117898Y175079D01*
X117945Y175014D01*
X117991Y174931D01*
X118046Y174848D01*
X118102Y174737D01*
X118148Y174626D01*
X118203Y174496D01*
X118250Y174348D01*
X118296Y174191D01*
X118333Y174025D01*
X118361Y173849D01*
X118379Y173655D01*
X118388Y173451D01*
Y172952D01*
X115207D01*
Y172942D01*
Y172924D01*
Y172896D01*
X115216Y172859D01*
X115225Y172757D01*
X115243Y172637D01*
X115290Y172508D01*
X115345Y172369D01*
X115419Y172239D01*
X115530Y172119D01*
X115549Y172110D01*
X115595Y172082D01*
X115669Y172036D01*
X115771Y171990D01*
X115910Y171934D01*
X116076Y171897D01*
X116270Y171860D01*
X116492Y171851D01*
X116566D01*
X116649Y171860D01*
X116761Y171870D01*
X116881Y171879D01*
X117019Y171906D01*
X117177Y171934D01*
X117325Y171971D01*
X117334D01*
X117343Y171981D01*
X117399Y171999D01*
X117482Y172027D01*
X117593Y172064D01*
X117722Y172119D01*
X117870Y172184D01*
X118028Y172267D01*
X118194Y172360D01*
Y171231D01*
X118185D01*
X118176Y171222D01*
X118120Y171203D01*
X118037Y171176D01*
X117926Y171130D01*
X117787Y171092D01*
X117639Y171046D01*
X117482Y171009D01*
X117315Y170972D01*
X117297D01*
X117242Y170954D01*
X117149Y170944D01*
X117029Y170926D01*
X116890Y170907D01*
X116733Y170898D01*
X116566Y170880D01*
X116270D01*
X116187Y170889D01*
X116085Y170898D01*
X115974Y170917D01*
X115845Y170935D01*
X115715Y170963D01*
X115419Y171037D01*
X115271Y171083D01*
X115123Y171148D01*
X114975Y171222D01*
X114837Y171305D01*
X114698Y171398D01*
X114577Y171509D01*
X114568Y171518D01*
X114550Y171537D01*
X114522Y171573D01*
X114485Y171629D01*
X114429Y171694D01*
X114383Y171768D01*
X114328Y171860D01*
X114272Y171971D01*
X114207Y172091D01*
X114152Y172230D01*
X114106Y172378D01*
X114059Y172536D01*
X114013Y172711D01*
X113986Y172906D01*
X113967Y173109D01*
X113958Y173322D01*
Y173331D01*
Y173377D01*
Y173433D01*
X113967Y173516D01*
X113976Y173609D01*
X113986Y173720D01*
X114004Y173840D01*
X114032Y173978D01*
X114106Y174265D01*
X114152Y174423D01*
X114207Y174571D01*
X114272Y174718D01*
X114356Y174866D01*
X114448Y175005D01*
X114550Y175135D01*
X114559Y175144D01*
X114577Y175162D01*
X114614Y175199D01*
X114661Y175236D01*
X114725Y175292D01*
X114799Y175347D01*
X114883Y175412D01*
X114985Y175477D01*
X115095Y175532D01*
X115216Y175597D01*
X115345Y175653D01*
X115493Y175708D01*
X115650Y175745D01*
X115817Y175782D01*
X116002Y175801D01*
X116187Y175810D01*
X116289D01*
X116363Y175801D01*
D02*
G37*
G36*
X80168D02*
X80251Y175792D01*
X80352Y175773D01*
X80463Y175754D01*
X80584Y175736D01*
X80843Y175662D01*
X80981Y175607D01*
X81120Y175551D01*
X81250Y175477D01*
X81379Y175394D01*
X81499Y175301D01*
X81611Y175190D01*
X81620Y175181D01*
X81638Y175162D01*
X81666Y175126D01*
X81703Y175079D01*
X81749Y175014D01*
X81796Y174931D01*
X81851Y174848D01*
X81906Y174737D01*
X81953Y174626D01*
X82008Y174496D01*
X82055Y174348D01*
X82101Y174191D01*
X82138Y174025D01*
X82165Y173849D01*
X82184Y173655D01*
X82193Y173451D01*
Y172952D01*
X79011D01*
Y172942D01*
Y172924D01*
Y172896D01*
X79021Y172859D01*
X79030Y172757D01*
X79048Y172637D01*
X79094Y172508D01*
X79150Y172369D01*
X79224Y172239D01*
X79335Y172119D01*
X79353Y172110D01*
X79400Y172082D01*
X79474Y172036D01*
X79576Y171990D01*
X79714Y171934D01*
X79881Y171897D01*
X80075Y171860D01*
X80297Y171851D01*
X80371D01*
X80454Y171860D01*
X80565Y171870D01*
X80686Y171879D01*
X80824Y171906D01*
X80981Y171934D01*
X81129Y171971D01*
X81139D01*
X81148Y171981D01*
X81204Y171999D01*
X81287Y172027D01*
X81398Y172064D01*
X81527Y172119D01*
X81675Y172184D01*
X81832Y172267D01*
X81999Y172360D01*
Y171231D01*
X81990D01*
X81981Y171222D01*
X81925Y171203D01*
X81842Y171176D01*
X81731Y171130D01*
X81592Y171092D01*
X81444Y171046D01*
X81287Y171009D01*
X81120Y170972D01*
X81102D01*
X81046Y170954D01*
X80954Y170944D01*
X80834Y170926D01*
X80695Y170907D01*
X80537Y170898D01*
X80371Y170880D01*
X80075D01*
X79992Y170889D01*
X79890Y170898D01*
X79779Y170917D01*
X79650Y170935D01*
X79520Y170963D01*
X79224Y171037D01*
X79076Y171083D01*
X78928Y171148D01*
X78780Y171222D01*
X78641Y171305D01*
X78503Y171398D01*
X78382Y171509D01*
X78373Y171518D01*
X78355Y171537D01*
X78327Y171573D01*
X78290Y171629D01*
X78234Y171694D01*
X78188Y171768D01*
X78132Y171860D01*
X78077Y171971D01*
X78012Y172091D01*
X77957Y172230D01*
X77911Y172378D01*
X77864Y172536D01*
X77818Y172711D01*
X77790Y172906D01*
X77772Y173109D01*
X77763Y173322D01*
Y173331D01*
Y173377D01*
Y173433D01*
X77772Y173516D01*
X77781Y173609D01*
X77790Y173720D01*
X77809Y173840D01*
X77837Y173978D01*
X77911Y174265D01*
X77957Y174423D01*
X78012Y174571D01*
X78077Y174718D01*
X78160Y174866D01*
X78253Y175005D01*
X78355Y175135D01*
X78364Y175144D01*
X78382Y175162D01*
X78419Y175199D01*
X78465Y175236D01*
X78530Y175292D01*
X78604Y175347D01*
X78688Y175412D01*
X78789Y175477D01*
X78900Y175532D01*
X79021Y175597D01*
X79150Y175653D01*
X79298Y175708D01*
X79455Y175745D01*
X79622Y175782D01*
X79807Y175801D01*
X79992Y175810D01*
X80093D01*
X80168Y175801D01*
D02*
G37*
G36*
X69789D02*
X69881Y175792D01*
X69993Y175782D01*
X70104Y175773D01*
X70233Y175754D01*
X70492Y175699D01*
X70760Y175616D01*
X70881Y175560D01*
X71001Y175496D01*
X71112Y175422D01*
X71204Y175338D01*
X71214Y175329D01*
X71223Y175320D01*
X71250Y175292D01*
X71278Y175246D01*
X71315Y175190D01*
X71352Y175126D01*
X71399Y175051D01*
X71445Y174959D01*
X71482Y174848D01*
X71528Y174728D01*
X71565Y174589D01*
X71602Y174441D01*
X71630Y174275D01*
X71658Y174090D01*
X71667Y173886D01*
X71676Y173673D01*
Y171000D01*
X70455D01*
Y171518D01*
X70446Y171509D01*
X70418Y171472D01*
X70363Y171416D01*
X70298Y171342D01*
X70214Y171268D01*
X70122Y171194D01*
X70011Y171111D01*
X69881Y171046D01*
X69863Y171037D01*
X69817Y171019D01*
X69752Y170991D01*
X69650Y170963D01*
X69539Y170935D01*
X69410Y170907D01*
X69271Y170889D01*
X69114Y170880D01*
X69040D01*
X68984Y170889D01*
X68919D01*
X68836Y170898D01*
X68660Y170935D01*
X68466Y170982D01*
X68253Y171055D01*
X68059Y171157D01*
X67958Y171222D01*
X67874Y171296D01*
X67865Y171305D01*
X67856Y171315D01*
X67837Y171342D01*
X67809Y171379D01*
X67773Y171416D01*
X67735Y171472D01*
X67652Y171601D01*
X67569Y171768D01*
X67504Y171971D01*
X67449Y172212D01*
X67440Y172341D01*
X67430Y172480D01*
Y172489D01*
Y172517D01*
Y172563D01*
X67440Y172619D01*
X67449Y172684D01*
X67458Y172757D01*
X67495Y172942D01*
X67560Y173137D01*
X67606Y173239D01*
X67652Y173340D01*
X67717Y173433D01*
X67782Y173525D01*
X67865Y173618D01*
X67958Y173692D01*
X67967Y173701D01*
X67985Y173710D01*
X68013Y173729D01*
X68059Y173757D01*
X68115Y173784D01*
X68180Y173821D01*
X68263Y173858D01*
X68365Y173895D01*
X68466Y173932D01*
X68596Y173960D01*
X68725Y173997D01*
X68873Y174025D01*
X69040Y174053D01*
X69216Y174071D01*
X69401Y174090D01*
X70455D01*
Y174293D01*
Y174302D01*
Y174339D01*
X70446Y174395D01*
X70427Y174460D01*
X70399Y174533D01*
X70363Y174608D01*
X70307Y174681D01*
X70233Y174746D01*
X70224Y174756D01*
X70196Y174774D01*
X70140Y174793D01*
X70076Y174829D01*
X69983Y174857D01*
X69881Y174876D01*
X69752Y174894D01*
X69604Y174904D01*
X69530D01*
X69437Y174894D01*
X69327D01*
X69197Y174876D01*
X69058Y174857D01*
X68901Y174829D01*
X68744Y174793D01*
X68725Y174783D01*
X68670Y174774D01*
X68596Y174746D01*
X68485Y174709D01*
X68355Y174654D01*
X68217Y174598D01*
X68059Y174524D01*
X67893Y174441D01*
Y175486D01*
X67902D01*
X67911Y175496D01*
X67958Y175514D01*
X68041Y175542D01*
X68142Y175579D01*
X68263Y175616D01*
X68401Y175653D01*
X68550Y175690D01*
X68707Y175727D01*
X68725D01*
X68781Y175736D01*
X68864Y175754D01*
X68975Y175773D01*
X69114Y175782D01*
X69262Y175801D01*
X69428Y175810D01*
X69715D01*
X69789Y175801D01*
D02*
G37*
G36*
X105170Y174987D02*
X105180Y175005D01*
X105198Y175051D01*
X105226Y175126D01*
X105272Y175209D01*
X105337Y175301D01*
X105411Y175403D01*
X105503Y175505D01*
X105605Y175588D01*
X105623Y175597D01*
X105660Y175625D01*
X105725Y175662D01*
X105818Y175699D01*
X105929Y175736D01*
X106058Y175773D01*
X106206Y175801D01*
X106363Y175810D01*
X106428D01*
X106474Y175801D01*
X106530D01*
X106595Y175792D01*
X106743Y175754D01*
X106900Y175699D01*
X107067Y175625D01*
X107233Y175514D01*
X107307Y175440D01*
X107372Y175366D01*
Y175357D01*
X107390Y175347D01*
X107399Y175320D01*
X107427Y175283D01*
X107455Y175236D01*
X107483Y175181D01*
X107510Y175116D01*
X107547Y175033D01*
X107575Y174950D01*
X107603Y174848D01*
X107631Y174737D01*
X107659Y174617D01*
X107686Y174496D01*
X107695Y174348D01*
X107714Y174200D01*
Y174043D01*
Y171000D01*
X106493D01*
Y173858D01*
Y173867D01*
Y173877D01*
Y173905D01*
Y173942D01*
X106484Y174025D01*
X106474Y174136D01*
X106456Y174256D01*
X106428Y174376D01*
X106391Y174487D01*
X106345Y174580D01*
X106336Y174589D01*
X106317Y174617D01*
X106280Y174654D01*
X106234Y174691D01*
X106169Y174728D01*
X106086Y174765D01*
X105984Y174793D01*
X105873Y174802D01*
X105818D01*
X105762Y174783D01*
X105688Y174765D01*
X105605Y174728D01*
X105512Y174681D01*
X105429Y174608D01*
X105355Y174506D01*
X105346Y174496D01*
X105327Y174450D01*
X105300Y174385D01*
X105263Y174293D01*
X105226Y174173D01*
X105198Y174034D01*
X105180Y173867D01*
X105170Y173682D01*
Y171000D01*
X103949D01*
Y177521D01*
X105170D01*
Y174987D01*
D02*
G37*
G36*
X90472Y175801D02*
X90565Y175792D01*
X90675Y175782D01*
X90786Y175773D01*
X90916Y175754D01*
X91175Y175699D01*
X91443Y175616D01*
X91563Y175560D01*
X91684Y175496D01*
X91795Y175422D01*
X91887Y175338D01*
X91896Y175329D01*
X91906Y175320D01*
X91934Y175292D01*
X91961Y175246D01*
X91998Y175190D01*
X92035Y175126D01*
X92081Y175051D01*
X92128Y174959D01*
X92165Y174848D01*
X92211Y174728D01*
X92248Y174589D01*
X92285Y174441D01*
X92313Y174275D01*
X92340Y174090D01*
X92350Y173886D01*
X92359Y173673D01*
Y171000D01*
X91138D01*
Y171518D01*
X91129Y171509D01*
X91101Y171472D01*
X91045Y171416D01*
X90981Y171342D01*
X90898Y171268D01*
X90805Y171194D01*
X90694Y171111D01*
X90565Y171046D01*
X90546Y171037D01*
X90500Y171019D01*
X90435Y170991D01*
X90333Y170963D01*
X90222Y170935D01*
X90093Y170907D01*
X89954Y170889D01*
X89797Y170880D01*
X89723D01*
X89667Y170889D01*
X89603D01*
X89519Y170898D01*
X89344Y170935D01*
X89149Y170982D01*
X88937Y171055D01*
X88742Y171157D01*
X88640Y171222D01*
X88557Y171296D01*
X88548Y171305D01*
X88539Y171315D01*
X88520Y171342D01*
X88493Y171379D01*
X88455Y171416D01*
X88419Y171472D01*
X88335Y171601D01*
X88252Y171768D01*
X88187Y171971D01*
X88132Y172212D01*
X88122Y172341D01*
X88113Y172480D01*
Y172489D01*
Y172517D01*
Y172563D01*
X88122Y172619D01*
X88132Y172684D01*
X88141Y172757D01*
X88178Y172942D01*
X88243Y173137D01*
X88289Y173239D01*
X88335Y173340D01*
X88400Y173433D01*
X88465Y173525D01*
X88548Y173618D01*
X88640Y173692D01*
X88650Y173701D01*
X88668Y173710D01*
X88696Y173729D01*
X88742Y173757D01*
X88798Y173784D01*
X88863Y173821D01*
X88946Y173858D01*
X89047Y173895D01*
X89149Y173932D01*
X89279Y173960D01*
X89408Y173997D01*
X89556Y174025D01*
X89723Y174053D01*
X89899Y174071D01*
X90083Y174090D01*
X91138D01*
Y174293D01*
Y174302D01*
Y174339D01*
X91129Y174395D01*
X91110Y174460D01*
X91083Y174533D01*
X91045Y174608D01*
X90990Y174681D01*
X90916Y174746D01*
X90907Y174756D01*
X90879Y174774D01*
X90824Y174793D01*
X90759Y174829D01*
X90666Y174857D01*
X90565Y174876D01*
X90435Y174894D01*
X90287Y174904D01*
X90213D01*
X90121Y174894D01*
X90009D01*
X89880Y174876D01*
X89741Y174857D01*
X89584Y174829D01*
X89427Y174793D01*
X89408Y174783D01*
X89353Y174774D01*
X89279Y174746D01*
X89168Y174709D01*
X89038Y174654D01*
X88899Y174598D01*
X88742Y174524D01*
X88576Y174441D01*
Y175486D01*
X88585D01*
X88594Y175496D01*
X88640Y175514D01*
X88724Y175542D01*
X88826Y175579D01*
X88946Y175616D01*
X89085Y175653D01*
X89232Y175690D01*
X89390Y175727D01*
X89408D01*
X89464Y175736D01*
X89547Y175754D01*
X89658Y175773D01*
X89797Y175782D01*
X89945Y175801D01*
X90111Y175810D01*
X90398D01*
X90472Y175801D01*
D02*
G37*
G36*
X100786Y177364D02*
X100897D01*
X101035Y177346D01*
X101183Y177327D01*
X101331Y177308D01*
X101498Y177271D01*
X101516D01*
X101572Y177253D01*
X101655Y177225D01*
X101766Y177198D01*
X101896Y177161D01*
X102044Y177105D01*
X102201Y177050D01*
X102358Y176985D01*
Y175773D01*
X102340Y175782D01*
X102284Y175819D01*
X102210Y175865D01*
X102099Y175930D01*
X101979Y175995D01*
X101840Y176069D01*
X101692Y176134D01*
X101535Y176198D01*
X101516Y176208D01*
X101461Y176226D01*
X101387Y176245D01*
X101285Y176272D01*
X101156Y176300D01*
X101026Y176328D01*
X100878Y176337D01*
X100730Y176347D01*
X100656D01*
X100573Y176337D01*
X100471Y176328D01*
X100360Y176300D01*
X100249Y176272D01*
X100138Y176226D01*
X100037Y176162D01*
X100027Y176152D01*
X99999Y176125D01*
X99963Y176087D01*
X99926Y176032D01*
X99879Y175958D01*
X99842Y175865D01*
X99814Y175764D01*
X99805Y175644D01*
Y175634D01*
Y175597D01*
X99814Y175551D01*
X99824Y175496D01*
X99842Y175422D01*
X99879Y175357D01*
X99916Y175283D01*
X99972Y175218D01*
X99981Y175209D01*
X100009Y175190D01*
X100055Y175153D01*
X100129Y175107D01*
X100231Y175051D01*
X100351Y174996D01*
X100508Y174922D01*
X100703Y174848D01*
X101239Y174644D01*
X101248D01*
X101276Y174635D01*
X101313Y174617D01*
X101359Y174598D01*
X101424Y174571D01*
X101498Y174533D01*
X101664Y174450D01*
X101840Y174339D01*
X102025Y174219D01*
X102201Y174071D01*
X102275Y173988D01*
X102349Y173905D01*
Y173895D01*
X102367Y173886D01*
X102386Y173858D01*
X102404Y173821D01*
X102432Y173775D01*
X102460Y173729D01*
X102534Y173590D01*
X102599Y173424D01*
X102654Y173229D01*
X102691Y173007D01*
X102710Y172757D01*
Y172748D01*
Y172721D01*
Y172665D01*
X102700Y172600D01*
X102691Y172526D01*
X102682Y172434D01*
X102664Y172332D01*
X102636Y172230D01*
X102571Y171999D01*
X102525Y171879D01*
X102469Y171758D01*
X102404Y171648D01*
X102331Y171537D01*
X102247Y171435D01*
X102146Y171342D01*
X102136Y171333D01*
X102118Y171324D01*
X102090Y171296D01*
X102044Y171268D01*
X101979Y171231D01*
X101905Y171194D01*
X101822Y171157D01*
X101720Y171111D01*
X101609Y171065D01*
X101489Y171028D01*
X101350Y170991D01*
X101193Y170954D01*
X101026Y170926D01*
X100850Y170898D01*
X100656Y170889D01*
X100453Y170880D01*
X100370D01*
X100286Y170889D01*
X100166Y170898D01*
X100018Y170907D01*
X99861Y170926D01*
X99694Y170954D01*
X99519Y170991D01*
X99509D01*
X99500Y171000D01*
X99472D01*
X99435Y171009D01*
X99352Y171037D01*
X99232Y171074D01*
X99093Y171120D01*
X98945Y171176D01*
X98788Y171250D01*
X98621Y171324D01*
Y172600D01*
X98630D01*
X98640Y172582D01*
X98668Y172563D01*
X98704Y172545D01*
X98797Y172480D01*
X98927Y172406D01*
X99065Y172313D01*
X99232Y172230D01*
X99398Y172147D01*
X99574Y172073D01*
X99583D01*
X99593Y172064D01*
X99620Y172055D01*
X99657Y172045D01*
X99740Y172018D01*
X99861Y171990D01*
X99999Y171962D01*
X100157Y171934D01*
X100323Y171916D01*
X100499Y171906D01*
X100573D01*
X100656Y171916D01*
X100758Y171934D01*
X100869Y171953D01*
X100989Y171990D01*
X101100Y172045D01*
X101202Y172110D01*
X101211Y172119D01*
X101239Y172147D01*
X101285Y172193D01*
X101331Y172258D01*
X101378Y172341D01*
X101424Y172443D01*
X101452Y172563D01*
X101461Y172693D01*
Y172702D01*
Y172739D01*
X101452Y172794D01*
X101443Y172859D01*
X101415Y172933D01*
X101387Y173017D01*
X101341Y173091D01*
X101285Y173174D01*
X101276Y173183D01*
X101258Y173211D01*
X101211Y173248D01*
X101165Y173294D01*
X101091Y173349D01*
X101008Y173405D01*
X100906Y173460D01*
X100795Y173516D01*
X100185Y173738D01*
X100175D01*
X100147Y173757D01*
X100092Y173775D01*
X100037Y173803D01*
X99963Y173830D01*
X99870Y173877D01*
X99676Y173969D01*
X99463Y174080D01*
X99260Y174210D01*
X99158Y174275D01*
X99065Y174339D01*
X98991Y174413D01*
X98917Y174487D01*
Y174496D01*
X98908Y174506D01*
X98871Y174561D01*
X98816Y174644D01*
X98760Y174765D01*
X98695Y174922D01*
X98649Y175098D01*
X98612Y175311D01*
X98593Y175542D01*
Y175551D01*
Y175579D01*
Y175625D01*
X98603Y175680D01*
X98612Y175754D01*
X98621Y175838D01*
X98640Y175930D01*
X98658Y176032D01*
X98723Y176245D01*
X98769Y176356D01*
X98825Y176467D01*
X98880Y176578D01*
X98954Y176689D01*
X99037Y176790D01*
X99130Y176883D01*
X99139Y176892D01*
X99158Y176901D01*
X99186Y176929D01*
X99232Y176957D01*
X99287Y176994D01*
X99352Y177040D01*
X99435Y177086D01*
X99519Y177133D01*
X99620Y177170D01*
X99740Y177216D01*
X99861Y177262D01*
X99990Y177299D01*
X100138Y177327D01*
X100286Y177355D01*
X100453Y177364D01*
X100628Y177373D01*
X100703D01*
X100786Y177364D01*
D02*
G37*
G36*
X73976Y166398D02*
X74027Y166393D01*
X74087Y166388D01*
X74216Y166365D01*
X74226D01*
X74249Y166361D01*
X74281Y166352D01*
X74327Y166342D01*
X74378Y166329D01*
X74438Y166310D01*
X74563Y166264D01*
Y165885D01*
X74554Y165890D01*
X74535Y165899D01*
X74503Y165917D01*
X74457Y165940D01*
X74406Y165963D01*
X74350Y165987D01*
X74290Y166010D01*
X74226Y166028D01*
X74216Y166033D01*
X74198Y166037D01*
X74165Y166047D01*
X74119Y166056D01*
X74068Y166065D01*
X74013Y166070D01*
X73953Y166079D01*
X73847D01*
X73800Y166074D01*
X73741Y166070D01*
X73676Y166056D01*
X73611Y166042D01*
X73551Y166019D01*
X73496Y165991D01*
X73491Y165987D01*
X73477Y165977D01*
X73454Y165954D01*
X73435Y165927D01*
X73412Y165890D01*
X73389Y165848D01*
X73375Y165793D01*
X73371Y165733D01*
Y165728D01*
Y165705D01*
X73375Y165677D01*
X73385Y165645D01*
X73394Y165608D01*
X73408Y165566D01*
X73431Y165529D01*
X73463Y165497D01*
X73468Y165492D01*
X73486Y165483D01*
X73514Y165469D01*
X73560Y165451D01*
X73588Y165441D01*
X73625Y165428D01*
X73662Y165418D01*
X73708Y165404D01*
X73759Y165391D01*
X73814Y165377D01*
X73874Y165363D01*
X73944Y165349D01*
X74101Y165317D01*
X74105D01*
X74115Y165312D01*
X74129D01*
X74147Y165307D01*
X74198Y165294D01*
X74262Y165270D01*
X74332Y165243D01*
X74406Y165206D01*
X74475Y165155D01*
X74535Y165100D01*
X74540Y165090D01*
X74558Y165072D01*
X74581Y165035D01*
X74609Y164984D01*
X74637Y164924D01*
X74660Y164850D01*
X74678Y164767D01*
X74683Y164674D01*
Y164670D01*
Y164661D01*
Y164642D01*
X74678Y164619D01*
X74674Y164587D01*
X74669Y164554D01*
X74651Y164476D01*
X74623Y164393D01*
X74577Y164300D01*
X74549Y164254D01*
X74517Y164213D01*
X74480Y164171D01*
X74433Y164134D01*
X74429D01*
X74424Y164125D01*
X74410Y164116D01*
X74387Y164102D01*
X74364Y164088D01*
X74332Y164074D01*
X74300Y164055D01*
X74258Y164037D01*
X74212Y164018D01*
X74161Y164000D01*
X74101Y163986D01*
X74041Y163972D01*
X73976Y163958D01*
X73907Y163949D01*
X73828Y163945D01*
X73750Y163940D01*
X73685D01*
X73639Y163945D01*
X73583Y163949D01*
X73523Y163954D01*
X73454Y163963D01*
X73385Y163977D01*
X73375D01*
X73352Y163986D01*
X73315Y163991D01*
X73265Y164005D01*
X73200Y164018D01*
X73131Y164042D01*
X73057Y164060D01*
X72974Y164088D01*
Y164485D01*
X72978D01*
X72983Y164480D01*
X73010Y164467D01*
X73052Y164448D01*
X73103Y164425D01*
X73168Y164397D01*
X73237Y164370D01*
X73306Y164342D01*
X73380Y164319D01*
X73389D01*
X73412Y164310D01*
X73454Y164300D01*
X73500Y164291D01*
X73560Y164282D01*
X73620Y164273D01*
X73690Y164268D01*
X73754Y164263D01*
X73796D01*
X73842Y164268D01*
X73902Y164277D01*
X73967Y164286D01*
X74032Y164305D01*
X74096Y164333D01*
X74152Y164365D01*
X74156Y164370D01*
X74175Y164383D01*
X74198Y164407D01*
X74226Y164439D01*
X74249Y164480D01*
X74272Y164531D01*
X74290Y164591D01*
X74295Y164656D01*
Y164661D01*
Y164670D01*
X74290Y164679D01*
X74286Y164698D01*
X74267Y164744D01*
X74253Y164771D01*
X74230Y164799D01*
X74203Y164832D01*
X74170Y164864D01*
X74129Y164892D01*
X74078Y164924D01*
X74018Y164952D01*
X73948Y164979D01*
X73870Y165003D01*
X73777Y165026D01*
X73764Y165030D01*
X73616Y165058D01*
X73611D01*
X73602Y165063D01*
X73583Y165067D01*
X73560Y165072D01*
X73537Y165076D01*
X73505Y165086D01*
X73431Y165109D01*
X73352Y165141D01*
X73274Y165178D01*
X73200Y165224D01*
X73135Y165275D01*
X73131Y165284D01*
X73112Y165303D01*
X73089Y165340D01*
X73061Y165386D01*
X73029Y165446D01*
X73006Y165520D01*
X72987Y165603D01*
X72983Y165696D01*
Y165700D01*
Y165709D01*
Y165728D01*
X72987Y165751D01*
X72992Y165779D01*
X72997Y165811D01*
X73010Y165890D01*
X73038Y165973D01*
X73080Y166060D01*
X73103Y166102D01*
X73135Y166144D01*
X73168Y166181D01*
X73209Y166218D01*
X73214D01*
X73218Y166227D01*
X73232Y166236D01*
X73251Y166245D01*
X73274Y166259D01*
X73302Y166278D01*
X73339Y166291D01*
X73375Y166310D01*
X73417Y166329D01*
X73468Y166342D01*
X73523Y166361D01*
X73579Y166375D01*
X73643Y166384D01*
X73713Y166393D01*
X73782Y166402D01*
X73930D01*
X73976Y166398D01*
D02*
G37*
G36*
X68899Y164000D02*
X68404D01*
X67573Y166347D01*
X67970D01*
X68649Y164374D01*
X69333Y166347D01*
X69735D01*
X68899Y164000D01*
D02*
G37*
G36*
X81821Y166398D02*
X81849Y166393D01*
X81885Y166388D01*
X81964Y166375D01*
X82052Y166342D01*
X82140Y166301D01*
X82181Y166273D01*
X82223Y166241D01*
X82260Y166204D01*
X82297Y166162D01*
Y166157D01*
X82306Y166153D01*
X82315Y166139D01*
X82324Y166116D01*
X82338Y166093D01*
X82352Y166060D01*
X82371Y166028D01*
X82389Y165987D01*
X82403Y165936D01*
X82421Y165885D01*
X82435Y165825D01*
X82449Y165765D01*
X82458Y165691D01*
X82468Y165617D01*
X82477Y165539D01*
Y165451D01*
Y164000D01*
X82089D01*
Y165451D01*
Y165455D01*
Y165464D01*
Y165483D01*
Y165501D01*
X82084Y165557D01*
X82075Y165626D01*
X82061Y165700D01*
X82038Y165779D01*
X82010Y165853D01*
X81973Y165913D01*
X81969Y165917D01*
X81950Y165936D01*
X81927Y165959D01*
X81890Y165991D01*
X81839Y166019D01*
X81779Y166042D01*
X81710Y166060D01*
X81627Y166065D01*
X81599D01*
X81581Y166060D01*
X81534Y166056D01*
X81474Y166042D01*
X81410Y166019D01*
X81340Y165982D01*
X81271Y165936D01*
X81211Y165871D01*
X81206Y165862D01*
X81188Y165834D01*
X81165Y165793D01*
X81142Y165733D01*
X81114Y165654D01*
X81091Y165562D01*
X81072Y165451D01*
X81068Y165321D01*
Y164000D01*
X80684D01*
Y166347D01*
X81068D01*
Y165996D01*
X81072Y166000D01*
X81086Y166024D01*
X81109Y166060D01*
X81142Y166102D01*
X81179Y166153D01*
X81230Y166204D01*
X81285Y166255D01*
X81345Y166296D01*
X81354Y166301D01*
X81377Y166315D01*
X81414Y166329D01*
X81465Y166352D01*
X81525Y166370D01*
X81595Y166384D01*
X81673Y166398D01*
X81761Y166402D01*
X81793D01*
X81821Y166398D01*
D02*
G37*
G36*
X76633Y166767D02*
X76249D01*
Y167257D01*
X76633D01*
Y166767D01*
D02*
G37*
G36*
X71467D02*
X71084D01*
Y167257D01*
X71467D01*
Y166767D01*
D02*
G37*
G36*
X76633Y164300D02*
X77395D01*
Y164000D01*
X75487D01*
Y164300D01*
X76249D01*
Y166047D01*
X75648D01*
Y166347D01*
X76633D01*
Y164300D01*
D02*
G37*
G36*
X66219Y166398D02*
X66256Y166393D01*
X66302Y166388D01*
X66348Y166379D01*
X66404Y166365D01*
X66515Y166329D01*
X66575Y166305D01*
X66635Y166273D01*
X66690Y166241D01*
X66746Y166199D01*
X66801Y166153D01*
X66852Y166097D01*
X66857Y166093D01*
X66861Y166084D01*
X66875Y166065D01*
X66894Y166042D01*
X66912Y166010D01*
X66935Y165973D01*
X66958Y165931D01*
X66981Y165880D01*
X67005Y165825D01*
X67028Y165760D01*
X67051Y165691D01*
X67069Y165617D01*
X67088Y165539D01*
X67102Y165451D01*
X67106Y165363D01*
X67111Y165266D01*
Y165081D01*
X65438D01*
Y165067D01*
Y165063D01*
Y165049D01*
Y165030D01*
X65443Y165003D01*
Y164970D01*
X65448Y164933D01*
X65461Y164850D01*
X65489Y164753D01*
X65522Y164656D01*
X65572Y164559D01*
X65600Y164517D01*
X65637Y164476D01*
X65642D01*
X65646Y164467D01*
X65660Y164457D01*
X65674Y164444D01*
X65720Y164411D01*
X65785Y164374D01*
X65863Y164333D01*
X65960Y164300D01*
X66076Y164277D01*
X66141Y164273D01*
X66205Y164268D01*
X66238D01*
X66274Y164273D01*
X66321Y164277D01*
X66381Y164282D01*
X66445Y164291D01*
X66515Y164305D01*
X66589Y164323D01*
X66593D01*
X66598Y164328D01*
X66626Y164333D01*
X66667Y164351D01*
X66718Y164370D01*
X66783Y164393D01*
X66857Y164425D01*
X66940Y164462D01*
X67023Y164504D01*
Y164120D01*
X67018D01*
X67014Y164116D01*
X66986Y164106D01*
X66940Y164088D01*
X66884Y164069D01*
X66820Y164046D01*
X66750Y164023D01*
X66672Y164005D01*
X66593Y163986D01*
X66584D01*
X66561Y163977D01*
X66519Y163972D01*
X66469Y163963D01*
X66408Y163954D01*
X66344Y163949D01*
X66201Y163940D01*
X66150D01*
X66113Y163945D01*
X66067Y163949D01*
X66011Y163958D01*
X65951Y163968D01*
X65891Y163981D01*
X65822Y163995D01*
X65753Y164018D01*
X65683Y164046D01*
X65609Y164078D01*
X65540Y164116D01*
X65471Y164157D01*
X65406Y164208D01*
X65346Y164263D01*
X65341Y164268D01*
X65332Y164277D01*
X65318Y164296D01*
X65300Y164323D01*
X65277Y164356D01*
X65249Y164397D01*
X65221Y164444D01*
X65193Y164499D01*
X65166Y164559D01*
X65138Y164628D01*
X65110Y164702D01*
X65087Y164785D01*
X65069Y164873D01*
X65055Y164966D01*
X65046Y165063D01*
X65041Y165169D01*
Y165173D01*
Y165192D01*
Y165224D01*
X65046Y165261D01*
X65050Y165307D01*
X65055Y165363D01*
X65064Y165423D01*
X65078Y165492D01*
X65115Y165636D01*
X65138Y165709D01*
X65166Y165783D01*
X65203Y165857D01*
X65244Y165931D01*
X65290Y166000D01*
X65341Y166065D01*
X65346Y166070D01*
X65355Y166079D01*
X65374Y166097D01*
X65397Y166116D01*
X65425Y166144D01*
X65461Y166171D01*
X65508Y166204D01*
X65554Y166236D01*
X65609Y166264D01*
X65669Y166296D01*
X65734Y166324D01*
X65808Y166352D01*
X65882Y166370D01*
X65965Y166388D01*
X66053Y166398D01*
X66145Y166402D01*
X66187D01*
X66219Y166398D01*
D02*
G37*
G36*
X111756Y176541D02*
X110526D01*
Y177974D01*
X111756D01*
Y176541D01*
D02*
G37*
G36*
X79063Y166398D02*
X79104Y166393D01*
X79150Y166384D01*
X79201Y166375D01*
X79261Y166361D01*
X79317Y166347D01*
X79377Y166324D01*
X79441Y166301D01*
X79502Y166268D01*
X79562Y166232D01*
X79622Y166190D01*
X79677Y166139D01*
X79728Y166084D01*
X79733Y166079D01*
X79737Y166070D01*
X79751Y166051D01*
X79770Y166024D01*
X79788Y165991D01*
X79811Y165954D01*
X79834Y165903D01*
X79862Y165853D01*
X79885Y165793D01*
X79908Y165723D01*
X79931Y165649D01*
X79950Y165566D01*
X79968Y165478D01*
X79982Y165381D01*
X79987Y165280D01*
X79991Y165169D01*
Y165164D01*
Y165141D01*
Y165113D01*
X79987Y165072D01*
X79982Y165021D01*
X79978Y164961D01*
X79968Y164896D01*
X79959Y164832D01*
X79927Y164684D01*
X79880Y164531D01*
X79853Y164457D01*
X79820Y164383D01*
X79779Y164314D01*
X79733Y164254D01*
X79728Y164250D01*
X79719Y164240D01*
X79705Y164226D01*
X79686Y164203D01*
X79659Y164180D01*
X79626Y164157D01*
X79585Y164125D01*
X79543Y164097D01*
X79492Y164069D01*
X79437Y164042D01*
X79377Y164014D01*
X79308Y163991D01*
X79234Y163968D01*
X79155Y163954D01*
X79072Y163945D01*
X78984Y163940D01*
X78938D01*
X78906Y163945D01*
X78864Y163949D01*
X78818Y163958D01*
X78762Y163968D01*
X78707Y163981D01*
X78587Y164018D01*
X78522Y164042D01*
X78462Y164074D01*
X78402Y164111D01*
X78342Y164153D01*
X78286Y164199D01*
X78236Y164254D01*
X78231Y164259D01*
X78227Y164268D01*
X78213Y164286D01*
X78194Y164314D01*
X78176Y164347D01*
X78157Y164383D01*
X78134Y164434D01*
X78111Y164485D01*
X78083Y164550D01*
X78060Y164614D01*
X78042Y164693D01*
X78023Y164771D01*
X78005Y164859D01*
X77991Y164956D01*
X77986Y165058D01*
X77982Y165169D01*
Y165178D01*
Y165197D01*
Y165224D01*
X77986Y165266D01*
X77991Y165317D01*
X77996Y165377D01*
X78005Y165441D01*
X78014Y165511D01*
X78042Y165659D01*
X78088Y165806D01*
X78120Y165885D01*
X78153Y165954D01*
X78189Y166024D01*
X78236Y166084D01*
X78240Y166088D01*
X78250Y166097D01*
X78263Y166111D01*
X78282Y166134D01*
X78310Y166157D01*
X78342Y166185D01*
X78384Y166213D01*
X78425Y166245D01*
X78476Y166273D01*
X78531Y166301D01*
X78592Y166329D01*
X78661Y166352D01*
X78735Y166375D01*
X78813Y166388D01*
X78896Y166398D01*
X78984Y166402D01*
X79030D01*
X79063Y166398D01*
D02*
G37*
G36*
X71467Y164300D02*
X72230D01*
Y164000D01*
X70322D01*
Y164300D01*
X71084D01*
Y166047D01*
X70483D01*
Y166347D01*
X71467D01*
Y164300D01*
D02*
G37*
G36*
X63452Y167123D02*
X63498Y167119D01*
X63549Y167114D01*
X63604Y167109D01*
X63660Y167100D01*
X63789Y167072D01*
X63918Y167031D01*
X63983Y167003D01*
X64048Y166971D01*
X64103Y166934D01*
X64159Y166892D01*
X64163Y166887D01*
X64172Y166883D01*
X64186Y166869D01*
X64200Y166850D01*
X64223Y166827D01*
X64246Y166795D01*
X64270Y166763D01*
X64297Y166721D01*
X64325Y166675D01*
X64348Y166624D01*
X64371Y166569D01*
X64394Y166509D01*
X64408Y166444D01*
X64422Y166375D01*
X64431Y166296D01*
X64436Y166218D01*
Y166213D01*
Y166204D01*
Y166190D01*
X64431Y166167D01*
Y166139D01*
X64426Y166111D01*
X64413Y166037D01*
X64394Y165959D01*
X64362Y165871D01*
X64320Y165788D01*
X64265Y165709D01*
X64256Y165700D01*
X64232Y165677D01*
X64196Y165645D01*
X64140Y165608D01*
X64075Y165566D01*
X63992Y165529D01*
X63895Y165497D01*
X63789Y165474D01*
X63798D01*
X63817Y165464D01*
X63844Y165455D01*
X63886Y165437D01*
X63928Y165418D01*
X63974Y165391D01*
X64020Y165358D01*
X64066Y165317D01*
X64071Y165312D01*
X64089Y165294D01*
X64112Y165261D01*
X64145Y165215D01*
X64186Y165150D01*
X64214Y165113D01*
X64237Y165072D01*
X64265Y165026D01*
X64293Y164970D01*
X64325Y164915D01*
X64357Y164850D01*
X64782Y164000D01*
X64325D01*
X63951Y164785D01*
Y164790D01*
X63941Y164799D01*
X63937Y164818D01*
X63923Y164841D01*
X63891Y164896D01*
X63854Y164966D01*
X63807Y165040D01*
X63761Y165109D01*
X63710Y165173D01*
X63683Y165201D01*
X63660Y165220D01*
X63655Y165224D01*
X63636Y165234D01*
X63609Y165252D01*
X63572Y165270D01*
X63526Y165289D01*
X63466Y165307D01*
X63401Y165317D01*
X63327Y165321D01*
X62925D01*
Y164000D01*
X62500D01*
Y167128D01*
X63419D01*
X63452Y167123D01*
D02*
G37*
G36*
X56500Y104668D02*
Y104659D01*
Y104631D01*
Y104585D01*
X56491Y104530D01*
Y104455D01*
X56472Y104372D01*
X56445Y104178D01*
X56389Y103974D01*
X56315Y103771D01*
X56204Y103577D01*
X56130Y103484D01*
X56056Y103410D01*
X56047D01*
X56037Y103392D01*
X56010Y103373D01*
X55973Y103355D01*
X55917Y103327D01*
X55853Y103290D01*
X55778Y103253D01*
X55695Y103225D01*
X55603Y103188D01*
X55492Y103151D01*
X55362Y103123D01*
X55233Y103086D01*
X55076Y103068D01*
X54918Y103050D01*
X54742Y103031D01*
X50922D01*
Y101782D01*
X49979D01*
Y104261D01*
X54641D01*
X54733Y104271D01*
X54853Y104280D01*
X54983Y104298D01*
X55112Y104335D01*
X55233Y104372D01*
X55335Y104428D01*
X55344Y104437D01*
X55371Y104465D01*
X55409Y104502D01*
X55445Y104567D01*
X55483Y104650D01*
X55519Y104752D01*
X55547Y104872D01*
X55556Y105010D01*
Y106000D01*
X56500D01*
Y104668D01*
D02*
G37*
G36*
X8705Y141703D02*
X8742Y141698D01*
X8788Y141693D01*
X8835Y141684D01*
X8885Y141670D01*
X9001Y141633D01*
X9057Y141610D01*
X9116Y141583D01*
X9172Y141550D01*
X9227Y141508D01*
X9278Y141462D01*
X9324Y141411D01*
X9329Y141407D01*
X9334Y141398D01*
X9347Y141379D01*
X9361Y141356D01*
X9380Y141328D01*
X9398Y141291D01*
X9421Y141245D01*
X9440Y141199D01*
X9463Y141139D01*
X9486Y141079D01*
X9505Y141010D01*
X9523Y140931D01*
X9537Y140848D01*
X9551Y140760D01*
X9555Y140668D01*
X9560Y140566D01*
Y140561D01*
Y140557D01*
Y140543D01*
Y140524D01*
X9555Y140478D01*
Y140418D01*
X9551Y140349D01*
X9542Y140270D01*
X9532Y140187D01*
X9518Y140099D01*
Y140095D01*
Y140090D01*
X9509Y140062D01*
X9505Y140016D01*
X9491Y139961D01*
X9472Y139896D01*
X9454Y139822D01*
X9403Y139665D01*
X8830D01*
X8835Y139674D01*
X8849Y139698D01*
X8867Y139739D01*
X8885Y139790D01*
X8913Y139855D01*
X8936Y139924D01*
X8959Y140002D01*
X8983Y140086D01*
Y140090D01*
Y140095D01*
X8987Y140109D01*
X8992Y140127D01*
X8996Y140173D01*
X9006Y140233D01*
X9015Y140307D01*
X9024Y140386D01*
X9029Y140478D01*
X9033Y140571D01*
Y140575D01*
Y140580D01*
Y140594D01*
Y140612D01*
X9029Y140658D01*
X9020Y140714D01*
X9006Y140779D01*
X8983Y140843D01*
X8955Y140908D01*
X8918Y140968D01*
X8913Y140973D01*
X8895Y140991D01*
X8872Y141014D01*
X8835Y141042D01*
X8788Y141070D01*
X8738Y141093D01*
X8673Y141111D01*
X8604Y141116D01*
X8562D01*
X8521Y141107D01*
X8465Y141097D01*
X8410Y141079D01*
X8345Y141056D01*
X8285Y141019D01*
X8234Y140968D01*
X8230Y140963D01*
X8211Y140940D01*
X8192Y140908D01*
X8165Y140862D01*
X8142Y140802D01*
X8119Y140732D01*
X8105Y140649D01*
X8100Y140552D01*
Y140224D01*
X7555D01*
Y140552D01*
Y140557D01*
Y140561D01*
Y140589D01*
X7550Y140631D01*
X7546Y140682D01*
X7532Y140742D01*
X7518Y140802D01*
X7495Y140857D01*
X7467Y140908D01*
X7463Y140913D01*
X7449Y140926D01*
X7430Y140949D01*
X7398Y140973D01*
X7366Y140996D01*
X7319Y141019D01*
X7269Y141033D01*
X7209Y141037D01*
X7181D01*
X7148Y141033D01*
X7112Y141023D01*
X7070Y141005D01*
X7024Y140982D01*
X6978Y140949D01*
X6940Y140908D01*
X6936Y140903D01*
X6927Y140885D01*
X6908Y140857D01*
X6890Y140815D01*
X6871Y140765D01*
X6853Y140705D01*
X6843Y140635D01*
X6839Y140552D01*
Y140543D01*
Y140520D01*
Y140488D01*
X6843Y140441D01*
X6848Y140381D01*
X6857Y140317D01*
X6871Y140247D01*
X6885Y140173D01*
Y140164D01*
X6894Y140136D01*
X6904Y140099D01*
X6917Y140044D01*
X6936Y139984D01*
X6954Y139915D01*
X6982Y139836D01*
X7010Y139758D01*
X6451D01*
Y139762D01*
X6446Y139767D01*
X6442Y139795D01*
X6428Y139836D01*
X6414Y139892D01*
X6400Y139952D01*
X6381Y140025D01*
X6368Y140099D01*
X6354Y140178D01*
Y140183D01*
Y140187D01*
X6349Y140215D01*
X6340Y140257D01*
X6335Y140307D01*
X6326Y140372D01*
X6321Y140441D01*
X6317Y140585D01*
Y140589D01*
Y140608D01*
Y140631D01*
X6321Y140668D01*
Y140709D01*
X6326Y140755D01*
X6335Y140811D01*
X6345Y140866D01*
X6368Y140991D01*
X6409Y141121D01*
X6460Y141245D01*
X6497Y141301D01*
X6534Y141356D01*
X6539Y141361D01*
X6543Y141370D01*
X6557Y141384D01*
X6576Y141398D01*
X6594Y141421D01*
X6622Y141444D01*
X6691Y141495D01*
X6774Y141545D01*
X6876Y141592D01*
X6936Y141606D01*
X6996Y141619D01*
X7061Y141629D01*
X7130Y141633D01*
X7158D01*
X7176Y141629D01*
X7227Y141624D01*
X7292Y141615D01*
X7366Y141592D01*
X7440Y141564D01*
X7518Y141527D01*
X7587Y141472D01*
X7597Y141462D01*
X7615Y141444D01*
X7647Y141407D01*
X7680Y141356D01*
X7721Y141291D01*
X7758Y141213D01*
X7791Y141125D01*
X7814Y141019D01*
Y141023D01*
X7818Y141033D01*
Y141051D01*
X7828Y141074D01*
X7832Y141102D01*
X7841Y141134D01*
X7869Y141208D01*
X7906Y141291D01*
X7952Y141375D01*
X8012Y141453D01*
X8082Y141527D01*
X8091Y141536D01*
X8105Y141545D01*
X8119Y141555D01*
X8165Y141583D01*
X8230Y141619D01*
X8308Y141652D01*
X8400Y141680D01*
X8511Y141698D01*
X8631Y141707D01*
X8673D01*
X8705Y141703D01*
D02*
G37*
G36*
X9500Y137757D02*
X8733D01*
Y138455D01*
X9500D01*
Y137757D01*
D02*
G37*
G36*
Y143703D02*
Y142844D01*
X6372Y142104D01*
Y142724D01*
X8987Y143273D01*
X6372Y143823D01*
Y144447D01*
X9500Y143703D01*
D02*
G37*
G36*
Y150083D02*
X6372D01*
Y152028D01*
X6917D01*
Y150702D01*
X7592D01*
Y151903D01*
X8137D01*
Y150702D01*
X8955D01*
Y152028D01*
X9500D01*
Y150083D01*
D02*
G37*
G36*
X8701Y149469D02*
X8738Y149464D01*
X8784Y149460D01*
X8835Y149450D01*
X8885Y149436D01*
X9001Y149404D01*
X9061Y149381D01*
X9121Y149353D01*
X9177Y149321D01*
X9232Y149284D01*
X9283Y149242D01*
X9329Y149192D01*
X9334Y149187D01*
X9338Y149178D01*
X9352Y149164D01*
X9366Y149141D01*
X9385Y149108D01*
X9403Y149072D01*
X9421Y149030D01*
X9445Y148979D01*
X9468Y148924D01*
X9486Y148864D01*
X9505Y148794D01*
X9523Y148716D01*
X9537Y148633D01*
X9551Y148545D01*
X9555Y148448D01*
X9560Y148346D01*
Y148342D01*
Y148337D01*
Y148323D01*
Y148305D01*
X9555Y148263D01*
X9551Y148203D01*
X9546Y148129D01*
X9537Y148050D01*
X9523Y147967D01*
X9505Y147880D01*
Y147875D01*
X9500Y147870D01*
Y147856D01*
X9495Y147838D01*
X9482Y147796D01*
X9463Y147736D01*
X9440Y147667D01*
X9412Y147593D01*
X9375Y147514D01*
X9338Y147431D01*
X8701D01*
Y147436D01*
X8710Y147441D01*
X8719Y147455D01*
X8728Y147473D01*
X8761Y147519D01*
X8798Y147584D01*
X8844Y147653D01*
X8885Y147736D01*
X8927Y147819D01*
X8964Y147907D01*
Y147912D01*
X8969Y147916D01*
X8973Y147930D01*
X8978Y147949D01*
X8992Y147990D01*
X9006Y148050D01*
X9020Y148120D01*
X9033Y148198D01*
X9043Y148282D01*
X9047Y148369D01*
Y148374D01*
Y148379D01*
Y148406D01*
X9043Y148448D01*
X9033Y148499D01*
X9024Y148554D01*
X9006Y148614D01*
X8978Y148670D01*
X8946Y148720D01*
X8941Y148725D01*
X8927Y148739D01*
X8904Y148762D01*
X8872Y148785D01*
X8830Y148808D01*
X8779Y148831D01*
X8719Y148845D01*
X8654Y148850D01*
X8631D01*
X8604Y148845D01*
X8571Y148840D01*
X8534Y148827D01*
X8493Y148813D01*
X8456Y148790D01*
X8414Y148762D01*
X8410Y148757D01*
X8396Y148748D01*
X8377Y148725D01*
X8354Y148702D01*
X8326Y148665D01*
X8299Y148623D01*
X8271Y148573D01*
X8243Y148517D01*
X8133Y148212D01*
Y148207D01*
X8123Y148194D01*
X8114Y148166D01*
X8100Y148138D01*
X8086Y148101D01*
X8063Y148055D01*
X8017Y147958D01*
X7961Y147852D01*
X7897Y147750D01*
X7864Y147699D01*
X7832Y147653D01*
X7795Y147616D01*
X7758Y147579D01*
X7754D01*
X7749Y147575D01*
X7721Y147556D01*
X7680Y147528D01*
X7620Y147501D01*
X7541Y147468D01*
X7453Y147445D01*
X7347Y147427D01*
X7232Y147417D01*
X7190D01*
X7162Y147422D01*
X7125Y147427D01*
X7084Y147431D01*
X7038Y147441D01*
X6987Y147450D01*
X6881Y147482D01*
X6825Y147505D01*
X6770Y147533D01*
X6714Y147561D01*
X6659Y147598D01*
X6608Y147639D01*
X6562Y147686D01*
X6557Y147690D01*
X6552Y147699D01*
X6539Y147713D01*
X6525Y147736D01*
X6506Y147764D01*
X6483Y147796D01*
X6460Y147838D01*
X6437Y147880D01*
X6419Y147930D01*
X6395Y147990D01*
X6372Y148050D01*
X6354Y148115D01*
X6340Y148189D01*
X6326Y148263D01*
X6321Y148346D01*
X6317Y148434D01*
Y148439D01*
Y148443D01*
Y148471D01*
X6321Y148512D01*
Y148568D01*
X6331Y148637D01*
X6340Y148711D01*
X6349Y148785D01*
X6368Y148868D01*
Y148873D01*
Y148877D01*
X6377Y148905D01*
X6391Y148947D01*
X6405Y149002D01*
X6423Y149067D01*
X6451Y149141D01*
X6479Y149219D01*
X6511Y149298D01*
X7116D01*
X7112Y149289D01*
X7093Y149261D01*
X7070Y149224D01*
X7038Y149169D01*
X7005Y149108D01*
X6968Y149039D01*
X6936Y148965D01*
X6904Y148887D01*
X6899Y148877D01*
X6890Y148850D01*
X6881Y148813D01*
X6867Y148762D01*
X6853Y148697D01*
X6839Y148633D01*
X6834Y148559D01*
X6830Y148485D01*
Y148480D01*
Y148476D01*
Y148448D01*
X6834Y148406D01*
X6839Y148355D01*
X6853Y148300D01*
X6867Y148245D01*
X6890Y148189D01*
X6922Y148138D01*
X6927Y148134D01*
X6940Y148120D01*
X6959Y148101D01*
X6987Y148083D01*
X7024Y148060D01*
X7070Y148041D01*
X7121Y148027D01*
X7181Y148023D01*
X7204D01*
X7227Y148027D01*
X7255Y148032D01*
X7292Y148041D01*
X7324Y148060D01*
X7361Y148078D01*
X7393Y148106D01*
X7398Y148110D01*
X7407Y148124D01*
X7426Y148147D01*
X7449Y148184D01*
X7476Y148235D01*
X7504Y148295D01*
X7541Y148374D01*
X7578Y148471D01*
X7680Y148739D01*
Y148743D01*
X7684Y148757D01*
X7694Y148776D01*
X7703Y148799D01*
X7717Y148831D01*
X7735Y148868D01*
X7777Y148951D01*
X7832Y149039D01*
X7892Y149132D01*
X7966Y149219D01*
X8008Y149256D01*
X8049Y149293D01*
X8054D01*
X8059Y149302D01*
X8072Y149312D01*
X8091Y149321D01*
X8114Y149335D01*
X8137Y149349D01*
X8206Y149386D01*
X8290Y149418D01*
X8387Y149446D01*
X8497Y149464D01*
X8622Y149473D01*
X8668D01*
X8701Y149469D01*
D02*
G37*
G36*
X8705Y136537D02*
X8742Y136533D01*
X8788Y136528D01*
X8835Y136519D01*
X8885Y136505D01*
X9001Y136468D01*
X9057Y136445D01*
X9116Y136417D01*
X9172Y136385D01*
X9227Y136343D01*
X9278Y136297D01*
X9324Y136246D01*
X9329Y136242D01*
X9334Y136232D01*
X9347Y136214D01*
X9361Y136191D01*
X9380Y136163D01*
X9398Y136126D01*
X9421Y136080D01*
X9440Y136034D01*
X9463Y135974D01*
X9486Y135914D01*
X9505Y135844D01*
X9523Y135766D01*
X9537Y135683D01*
X9551Y135595D01*
X9555Y135503D01*
X9560Y135401D01*
Y135396D01*
Y135392D01*
Y135378D01*
Y135359D01*
X9555Y135313D01*
Y135253D01*
X9551Y135184D01*
X9542Y135105D01*
X9532Y135022D01*
X9518Y134934D01*
Y134930D01*
Y134925D01*
X9509Y134897D01*
X9505Y134851D01*
X9491Y134796D01*
X9472Y134731D01*
X9454Y134657D01*
X9403Y134500D01*
X8830D01*
X8835Y134509D01*
X8849Y134532D01*
X8867Y134574D01*
X8885Y134625D01*
X8913Y134689D01*
X8936Y134759D01*
X8959Y134837D01*
X8983Y134920D01*
Y134925D01*
Y134930D01*
X8987Y134943D01*
X8992Y134962D01*
X8996Y135008D01*
X9006Y135068D01*
X9015Y135142D01*
X9024Y135221D01*
X9029Y135313D01*
X9033Y135406D01*
Y135410D01*
Y135415D01*
Y135429D01*
Y135447D01*
X9029Y135493D01*
X9020Y135549D01*
X9006Y135613D01*
X8983Y135678D01*
X8955Y135743D01*
X8918Y135803D01*
X8913Y135808D01*
X8895Y135826D01*
X8872Y135849D01*
X8835Y135877D01*
X8788Y135905D01*
X8738Y135928D01*
X8673Y135946D01*
X8604Y135951D01*
X8562D01*
X8521Y135941D01*
X8465Y135932D01*
X8410Y135914D01*
X8345Y135891D01*
X8285Y135854D01*
X8234Y135803D01*
X8230Y135798D01*
X8211Y135775D01*
X8192Y135743D01*
X8165Y135697D01*
X8142Y135636D01*
X8119Y135567D01*
X8105Y135484D01*
X8100Y135387D01*
Y135059D01*
X7555D01*
Y135387D01*
Y135392D01*
Y135396D01*
Y135424D01*
X7550Y135466D01*
X7546Y135516D01*
X7532Y135576D01*
X7518Y135636D01*
X7495Y135692D01*
X7467Y135743D01*
X7463Y135747D01*
X7449Y135761D01*
X7430Y135784D01*
X7398Y135808D01*
X7366Y135831D01*
X7319Y135854D01*
X7269Y135868D01*
X7209Y135872D01*
X7181D01*
X7148Y135868D01*
X7112Y135858D01*
X7070Y135840D01*
X7024Y135817D01*
X6978Y135784D01*
X6940Y135743D01*
X6936Y135738D01*
X6927Y135720D01*
X6908Y135692D01*
X6890Y135650D01*
X6871Y135600D01*
X6853Y135539D01*
X6843Y135470D01*
X6839Y135387D01*
Y135378D01*
Y135355D01*
Y135322D01*
X6843Y135276D01*
X6848Y135216D01*
X6857Y135151D01*
X6871Y135082D01*
X6885Y135008D01*
Y134999D01*
X6894Y134971D01*
X6904Y134934D01*
X6917Y134879D01*
X6936Y134819D01*
X6954Y134749D01*
X6982Y134671D01*
X7010Y134592D01*
X6451D01*
Y134597D01*
X6446Y134602D01*
X6442Y134629D01*
X6428Y134671D01*
X6414Y134726D01*
X6400Y134786D01*
X6381Y134860D01*
X6368Y134934D01*
X6354Y135013D01*
Y135017D01*
Y135022D01*
X6349Y135050D01*
X6340Y135091D01*
X6335Y135142D01*
X6326Y135207D01*
X6321Y135276D01*
X6317Y135419D01*
Y135424D01*
Y135442D01*
Y135466D01*
X6321Y135503D01*
Y135544D01*
X6326Y135590D01*
X6335Y135646D01*
X6345Y135701D01*
X6368Y135826D01*
X6409Y135955D01*
X6460Y136080D01*
X6497Y136135D01*
X6534Y136191D01*
X6539Y136196D01*
X6543Y136205D01*
X6557Y136219D01*
X6576Y136232D01*
X6594Y136256D01*
X6622Y136279D01*
X6691Y136329D01*
X6774Y136380D01*
X6876Y136426D01*
X6936Y136440D01*
X6996Y136454D01*
X7061Y136463D01*
X7130Y136468D01*
X7158D01*
X7176Y136463D01*
X7227Y136459D01*
X7292Y136450D01*
X7366Y136426D01*
X7440Y136399D01*
X7518Y136362D01*
X7587Y136306D01*
X7597Y136297D01*
X7615Y136279D01*
X7647Y136242D01*
X7680Y136191D01*
X7721Y136126D01*
X7758Y136048D01*
X7791Y135960D01*
X7814Y135854D01*
Y135858D01*
X7818Y135868D01*
Y135886D01*
X7828Y135909D01*
X7832Y135937D01*
X7841Y135969D01*
X7869Y136043D01*
X7906Y136126D01*
X7952Y136209D01*
X8012Y136288D01*
X8082Y136362D01*
X8091Y136371D01*
X8105Y136380D01*
X8119Y136390D01*
X8165Y136417D01*
X8230Y136454D01*
X8308Y136487D01*
X8400Y136514D01*
X8511Y136533D01*
X8631Y136542D01*
X8673D01*
X8705Y136537D01*
D02*
G37*
G36*
X4205Y58280D02*
X4242Y58275D01*
X4289Y58271D01*
X4335Y58262D01*
X4386Y58248D01*
X4501Y58211D01*
X4557Y58188D01*
X4617Y58160D01*
X4672Y58127D01*
X4727Y58086D01*
X4778Y58040D01*
X4824Y57989D01*
X4829Y57984D01*
X4834Y57975D01*
X4848Y57957D01*
X4861Y57933D01*
X4880Y57906D01*
X4898Y57869D01*
X4922Y57823D01*
X4940Y57776D01*
X4963Y57716D01*
X4986Y57656D01*
X5005Y57587D01*
X5023Y57508D01*
X5037Y57425D01*
X5051Y57337D01*
X5055Y57245D01*
X5060Y57143D01*
Y57139D01*
Y57134D01*
Y57120D01*
Y57102D01*
X5055Y57056D01*
Y56996D01*
X5051Y56926D01*
X5042Y56848D01*
X5032Y56765D01*
X5018Y56677D01*
Y56672D01*
Y56668D01*
X5009Y56640D01*
X5005Y56594D01*
X4991Y56538D01*
X4972Y56473D01*
X4954Y56400D01*
X4903Y56243D01*
X4330D01*
X4335Y56252D01*
X4349Y56275D01*
X4367Y56317D01*
X4386Y56367D01*
X4413Y56432D01*
X4436Y56501D01*
X4459Y56580D01*
X4483Y56663D01*
Y56668D01*
Y56672D01*
X4487Y56686D01*
X4492Y56704D01*
X4496Y56751D01*
X4506Y56811D01*
X4515Y56885D01*
X4524Y56963D01*
X4529Y57056D01*
X4533Y57148D01*
Y57153D01*
Y57157D01*
Y57171D01*
Y57190D01*
X4529Y57236D01*
X4519Y57291D01*
X4506Y57356D01*
X4483Y57421D01*
X4455Y57485D01*
X4418Y57545D01*
X4413Y57550D01*
X4395Y57569D01*
X4372Y57592D01*
X4335Y57619D01*
X4289Y57647D01*
X4238Y57670D01*
X4173Y57689D01*
X4104Y57693D01*
X4062D01*
X4021Y57684D01*
X3965Y57675D01*
X3910Y57656D01*
X3845Y57633D01*
X3785Y57596D01*
X3734Y57545D01*
X3729Y57541D01*
X3711Y57518D01*
X3692Y57485D01*
X3665Y57439D01*
X3642Y57379D01*
X3619Y57310D01*
X3605Y57227D01*
X3600Y57130D01*
Y56802D01*
X3055D01*
Y57130D01*
Y57134D01*
Y57139D01*
Y57166D01*
X3050Y57208D01*
X3046Y57259D01*
X3032Y57319D01*
X3018Y57379D01*
X2995Y57434D01*
X2967Y57485D01*
X2963Y57490D01*
X2949Y57504D01*
X2930Y57527D01*
X2898Y57550D01*
X2866Y57573D01*
X2819Y57596D01*
X2768Y57610D01*
X2709Y57615D01*
X2681D01*
X2648Y57610D01*
X2612Y57601D01*
X2570Y57582D01*
X2524Y57559D01*
X2478Y57527D01*
X2441Y57485D01*
X2436Y57481D01*
X2427Y57462D01*
X2408Y57434D01*
X2390Y57393D01*
X2371Y57342D01*
X2353Y57282D01*
X2344Y57213D01*
X2339Y57130D01*
Y57120D01*
Y57097D01*
Y57065D01*
X2344Y57019D01*
X2348Y56959D01*
X2357Y56894D01*
X2371Y56825D01*
X2385Y56751D01*
Y56741D01*
X2394Y56714D01*
X2404Y56677D01*
X2417Y56621D01*
X2436Y56561D01*
X2454Y56492D01*
X2482Y56414D01*
X2510Y56335D01*
X1951D01*
Y56340D01*
X1946Y56344D01*
X1942Y56372D01*
X1928Y56414D01*
X1914Y56469D01*
X1900Y56529D01*
X1881Y56603D01*
X1868Y56677D01*
X1854Y56755D01*
Y56760D01*
Y56765D01*
X1849Y56792D01*
X1840Y56834D01*
X1835Y56885D01*
X1826Y56949D01*
X1821Y57019D01*
X1817Y57162D01*
Y57166D01*
Y57185D01*
Y57208D01*
X1821Y57245D01*
Y57287D01*
X1826Y57333D01*
X1835Y57388D01*
X1845Y57444D01*
X1868Y57569D01*
X1909Y57698D01*
X1960Y57823D01*
X1997Y57878D01*
X2034Y57933D01*
X2039Y57938D01*
X2043Y57947D01*
X2057Y57961D01*
X2076Y57975D01*
X2094Y57998D01*
X2122Y58021D01*
X2191Y58072D01*
X2274Y58123D01*
X2376Y58169D01*
X2436Y58183D01*
X2496Y58197D01*
X2561Y58206D01*
X2630Y58211D01*
X2658D01*
X2676Y58206D01*
X2727Y58201D01*
X2792Y58192D01*
X2866Y58169D01*
X2939Y58141D01*
X3018Y58104D01*
X3087Y58049D01*
X3097Y58040D01*
X3115Y58021D01*
X3147Y57984D01*
X3180Y57933D01*
X3221Y57869D01*
X3258Y57790D01*
X3291Y57702D01*
X3314Y57596D01*
Y57601D01*
X3318Y57610D01*
Y57629D01*
X3328Y57652D01*
X3332Y57679D01*
X3341Y57712D01*
X3369Y57786D01*
X3406Y57869D01*
X3452Y57952D01*
X3512Y58030D01*
X3582Y58104D01*
X3591Y58114D01*
X3605Y58123D01*
X3619Y58132D01*
X3665Y58160D01*
X3729Y58197D01*
X3808Y58229D01*
X3900Y58257D01*
X4011Y58275D01*
X4131Y58285D01*
X4173D01*
X4205Y58280D01*
D02*
G37*
G36*
X2413Y52417D02*
X5000D01*
Y51798D01*
X2413D01*
Y51003D01*
X1872D01*
Y53212D01*
X2413D01*
Y52417D01*
D02*
G37*
G36*
X5000Y59500D02*
X4233D01*
Y60197D01*
X5000D01*
Y59500D01*
D02*
G37*
G36*
Y65446D02*
Y64586D01*
X1872Y63847D01*
Y64466D01*
X4487Y65016D01*
X1872Y65566D01*
Y66189D01*
X5000Y65446D01*
D02*
G37*
G36*
X4205Y63445D02*
X4242Y63441D01*
X4289Y63436D01*
X4335Y63427D01*
X4386Y63413D01*
X4501Y63376D01*
X4557Y63353D01*
X4617Y63325D01*
X4672Y63293D01*
X4727Y63251D01*
X4778Y63205D01*
X4824Y63154D01*
X4829Y63149D01*
X4834Y63140D01*
X4848Y63122D01*
X4861Y63099D01*
X4880Y63071D01*
X4898Y63034D01*
X4922Y62988D01*
X4940Y62941D01*
X4963Y62881D01*
X4986Y62821D01*
X5005Y62752D01*
X5023Y62674D01*
X5037Y62590D01*
X5051Y62503D01*
X5055Y62410D01*
X5060Y62309D01*
Y62304D01*
Y62299D01*
Y62286D01*
Y62267D01*
X5055Y62221D01*
Y62161D01*
X5051Y62091D01*
X5042Y62013D01*
X5032Y61930D01*
X5018Y61842D01*
Y61837D01*
Y61833D01*
X5009Y61805D01*
X5005Y61759D01*
X4991Y61703D01*
X4972Y61639D01*
X4954Y61565D01*
X4903Y61408D01*
X4330D01*
X4335Y61417D01*
X4349Y61440D01*
X4367Y61482D01*
X4386Y61532D01*
X4413Y61597D01*
X4436Y61666D01*
X4459Y61745D01*
X4483Y61828D01*
Y61833D01*
Y61837D01*
X4487Y61851D01*
X4492Y61870D01*
X4496Y61916D01*
X4506Y61976D01*
X4515Y62050D01*
X4524Y62128D01*
X4529Y62221D01*
X4533Y62313D01*
Y62318D01*
Y62322D01*
Y62336D01*
Y62355D01*
X4529Y62401D01*
X4519Y62456D01*
X4506Y62521D01*
X4483Y62586D01*
X4455Y62651D01*
X4418Y62710D01*
X4413Y62715D01*
X4395Y62734D01*
X4372Y62757D01*
X4335Y62784D01*
X4289Y62812D01*
X4238Y62835D01*
X4173Y62854D01*
X4104Y62858D01*
X4062D01*
X4021Y62849D01*
X3965Y62840D01*
X3910Y62821D01*
X3845Y62798D01*
X3785Y62761D01*
X3734Y62710D01*
X3729Y62706D01*
X3711Y62683D01*
X3692Y62651D01*
X3665Y62604D01*
X3642Y62544D01*
X3619Y62475D01*
X3605Y62392D01*
X3600Y62295D01*
Y61967D01*
X3055D01*
Y62295D01*
Y62299D01*
Y62304D01*
Y62332D01*
X3050Y62373D01*
X3046Y62424D01*
X3032Y62484D01*
X3018Y62544D01*
X2995Y62600D01*
X2967Y62651D01*
X2963Y62655D01*
X2949Y62669D01*
X2930Y62692D01*
X2898Y62715D01*
X2866Y62738D01*
X2819Y62761D01*
X2768Y62775D01*
X2709Y62780D01*
X2681D01*
X2648Y62775D01*
X2612Y62766D01*
X2570Y62748D01*
X2524Y62724D01*
X2478Y62692D01*
X2441Y62651D01*
X2436Y62646D01*
X2427Y62627D01*
X2408Y62600D01*
X2390Y62558D01*
X2371Y62507D01*
X2353Y62447D01*
X2344Y62378D01*
X2339Y62295D01*
Y62286D01*
Y62262D01*
Y62230D01*
X2344Y62184D01*
X2348Y62124D01*
X2357Y62059D01*
X2371Y61990D01*
X2385Y61916D01*
Y61907D01*
X2394Y61879D01*
X2404Y61842D01*
X2417Y61787D01*
X2436Y61726D01*
X2454Y61657D01*
X2482Y61579D01*
X2510Y61500D01*
X1951D01*
Y61505D01*
X1946Y61509D01*
X1942Y61537D01*
X1928Y61579D01*
X1914Y61634D01*
X1900Y61694D01*
X1881Y61768D01*
X1868Y61842D01*
X1854Y61920D01*
Y61925D01*
Y61930D01*
X1849Y61958D01*
X1840Y61999D01*
X1835Y62050D01*
X1826Y62115D01*
X1821Y62184D01*
X1817Y62327D01*
Y62332D01*
Y62350D01*
Y62373D01*
X1821Y62410D01*
Y62452D01*
X1826Y62498D01*
X1835Y62554D01*
X1845Y62609D01*
X1868Y62734D01*
X1909Y62863D01*
X1960Y62988D01*
X1997Y63043D01*
X2034Y63099D01*
X2039Y63103D01*
X2043Y63112D01*
X2057Y63126D01*
X2076Y63140D01*
X2094Y63163D01*
X2122Y63186D01*
X2191Y63237D01*
X2274Y63288D01*
X2376Y63334D01*
X2436Y63348D01*
X2496Y63362D01*
X2561Y63371D01*
X2630Y63376D01*
X2658D01*
X2676Y63371D01*
X2727Y63367D01*
X2792Y63357D01*
X2866Y63334D01*
X2939Y63306D01*
X3018Y63270D01*
X3087Y63214D01*
X3097Y63205D01*
X3115Y63186D01*
X3147Y63149D01*
X3180Y63099D01*
X3221Y63034D01*
X3258Y62955D01*
X3291Y62868D01*
X3314Y62761D01*
Y62766D01*
X3318Y62775D01*
Y62794D01*
X3328Y62817D01*
X3332Y62845D01*
X3341Y62877D01*
X3369Y62951D01*
X3406Y63034D01*
X3452Y63117D01*
X3512Y63196D01*
X3582Y63270D01*
X3591Y63279D01*
X3605Y63288D01*
X3619Y63297D01*
X3665Y63325D01*
X3729Y63362D01*
X3808Y63394D01*
X3900Y63422D01*
X4011Y63441D01*
X4131Y63450D01*
X4173D01*
X4205Y63445D01*
D02*
G37*
G36*
X9500Y152786D02*
X6372D01*
Y153405D01*
X8955D01*
Y154726D01*
X9500D01*
Y152786D01*
D02*
G37*
G36*
X19568Y130951D02*
X19637Y130946D01*
X19716Y130937D01*
X19803Y130928D01*
X19896Y130914D01*
X19993Y130895D01*
X20095Y130872D01*
X20191Y130845D01*
X20293Y130812D01*
X20385Y130775D01*
X20478Y130729D01*
X20561Y130678D01*
X20635Y130618D01*
X20640Y130614D01*
X20649Y130604D01*
X20667Y130581D01*
X20691Y130554D01*
X20718Y130517D01*
X20751Y130470D01*
X20783Y130415D01*
X20815Y130355D01*
X20852Y130281D01*
X20885Y130202D01*
X20917Y130110D01*
X20945Y130008D01*
X20968Y129902D01*
X20986Y129782D01*
X20995Y129653D01*
X21000Y129514D01*
Y128853D01*
X17872D01*
Y129514D01*
Y129523D01*
Y129546D01*
Y129588D01*
X17877Y129639D01*
X17882Y129703D01*
X17891Y129773D01*
X17905Y129856D01*
X17919Y129939D01*
X17937Y130032D01*
X17960Y130119D01*
X17992Y130212D01*
X18029Y130304D01*
X18071Y130392D01*
X18122Y130475D01*
X18177Y130549D01*
X18242Y130618D01*
X18247Y130623D01*
X18260Y130632D01*
X18279Y130651D01*
X18311Y130669D01*
X18353Y130697D01*
X18399Y130725D01*
X18459Y130757D01*
X18528Y130789D01*
X18607Y130817D01*
X18695Y130849D01*
X18792Y130877D01*
X18898Y130905D01*
X19018Y130923D01*
X19143Y130942D01*
X19286Y130951D01*
X19434Y130956D01*
X19512D01*
X19568Y130951D01*
D02*
G37*
G36*
X21000Y127883D02*
X20210Y127509D01*
X20205Y127504D01*
X20187Y127495D01*
X20159Y127481D01*
X20118Y127463D01*
X20113D01*
X20104Y127454D01*
X20085Y127444D01*
X20062Y127435D01*
X20007Y127398D01*
X19937Y127352D01*
X19873Y127296D01*
X19817Y127227D01*
X19794Y127195D01*
X19776Y127153D01*
X19767Y127116D01*
X19762Y127075D01*
Y126881D01*
X21000D01*
Y126262D01*
X17872D01*
Y127153D01*
Y127163D01*
Y127181D01*
Y127209D01*
X17877Y127250D01*
Y127301D01*
X17882Y127357D01*
X17891Y127421D01*
X17900Y127486D01*
X17923Y127629D01*
X17965Y127772D01*
X17988Y127842D01*
X18015Y127906D01*
X18052Y127966D01*
X18089Y128017D01*
X18094Y128022D01*
X18099Y128026D01*
X18113Y128040D01*
X18131Y128059D01*
X18154Y128077D01*
X18182Y128100D01*
X18214Y128123D01*
X18256Y128151D01*
X18302Y128174D01*
X18353Y128197D01*
X18408Y128220D01*
X18473Y128239D01*
X18542Y128257D01*
X18616Y128271D01*
X18695Y128276D01*
X18782Y128280D01*
X18838D01*
X18861Y128276D01*
X18893Y128271D01*
X18967Y128262D01*
X19050Y128244D01*
X19133Y128216D01*
X19217Y128174D01*
X19295Y128123D01*
X19305Y128114D01*
X19328Y128096D01*
X19355Y128059D01*
X19397Y128008D01*
X19434Y127943D01*
X19471Y127865D01*
X19503Y127777D01*
X19526Y127671D01*
Y127675D01*
X19531Y127685D01*
X19535Y127703D01*
X19545Y127726D01*
X19572Y127777D01*
X19591Y127805D01*
X19614Y127828D01*
X19619Y127832D01*
X19628Y127842D01*
X19646Y127856D01*
X19669Y127874D01*
X19706Y127897D01*
X19753Y127929D01*
X19808Y127957D01*
X19877Y127994D01*
X21000Y128562D01*
Y127883D01*
D02*
G37*
G36*
X21500Y96500D02*
X18372D01*
Y98445D01*
X18917D01*
Y97119D01*
X19592D01*
Y98320D01*
X20137D01*
Y97119D01*
X20955D01*
Y98445D01*
X21500D01*
Y96500D01*
D02*
G37*
G36*
X18913Y102917D02*
X21500D01*
Y102298D01*
X18913D01*
Y101504D01*
X18372D01*
Y103712D01*
X18913D01*
Y102917D01*
D02*
G37*
G36*
X21500Y100616D02*
X20465Y100016D01*
X21500Y99420D01*
Y98787D01*
X19915Y99702D01*
X18372Y98810D01*
Y99448D01*
X19370Y100016D01*
X18372Y100589D01*
Y101231D01*
X19915Y100339D01*
X21500Y101254D01*
Y100616D01*
D02*
G37*
G36*
X21000Y125296D02*
X20229Y125102D01*
Y124275D01*
X21000Y124086D01*
Y123471D01*
X17872Y124312D01*
Y125070D01*
X21000Y125915D01*
Y125296D01*
D02*
G37*
G36*
X9412Y159739D02*
X9421Y159716D01*
X9435Y159688D01*
X9449Y159651D01*
X9472Y159605D01*
X9491Y159550D01*
X9523Y159434D01*
Y159425D01*
X9528Y159406D01*
X9532Y159374D01*
X9542Y159333D01*
X9546Y159282D01*
X9555Y159222D01*
X9560Y159157D01*
Y159092D01*
Y159083D01*
Y159064D01*
X9555Y159032D01*
Y158991D01*
X9546Y158935D01*
X9537Y158875D01*
X9523Y158810D01*
X9509Y158737D01*
X9486Y158663D01*
X9458Y158579D01*
X9426Y158501D01*
X9385Y158422D01*
X9338Y158344D01*
X9283Y158270D01*
X9218Y158196D01*
X9144Y158131D01*
X9140Y158127D01*
X9126Y158117D01*
X9103Y158099D01*
X9066Y158080D01*
X9024Y158053D01*
X8973Y158025D01*
X8909Y157997D01*
X8839Y157965D01*
X8756Y157933D01*
X8668Y157905D01*
X8571Y157877D01*
X8461Y157850D01*
X8345Y157831D01*
X8220Y157812D01*
X8086Y157803D01*
X7943Y157799D01*
X7906D01*
X7869Y157803D01*
X7814D01*
X7749Y157808D01*
X7671Y157817D01*
X7587Y157826D01*
X7495Y157840D01*
X7402Y157859D01*
X7301Y157882D01*
X7199Y157905D01*
X7102Y157937D01*
X7001Y157979D01*
X6908Y158020D01*
X6820Y158071D01*
X6737Y158131D01*
X6733Y158136D01*
X6719Y158145D01*
X6700Y158168D01*
X6673Y158191D01*
X6640Y158228D01*
X6603Y158270D01*
X6566Y158321D01*
X6525Y158376D01*
X6488Y158441D01*
X6451Y158510D01*
X6414Y158593D01*
X6381Y158677D01*
X6354Y158769D01*
X6335Y158870D01*
X6321Y158977D01*
X6317Y159092D01*
Y159101D01*
Y159125D01*
Y159157D01*
X6321Y159203D01*
X6326Y159254D01*
X6335Y159314D01*
X6358Y159434D01*
Y159443D01*
X6363Y159462D01*
X6372Y159494D01*
X6386Y159536D01*
X6400Y159582D01*
X6419Y159633D01*
X6469Y159744D01*
X7158D01*
X7153Y159734D01*
X7135Y159716D01*
X7107Y159684D01*
X7074Y159642D01*
X7038Y159596D01*
X7005Y159545D01*
X6968Y159485D01*
X6940Y159430D01*
X6936Y159425D01*
X6931Y159406D01*
X6917Y159374D01*
X6904Y159337D01*
X6894Y159291D01*
X6881Y159240D01*
X6876Y159185D01*
X6871Y159125D01*
Y159120D01*
Y159111D01*
Y159092D01*
X6876Y159069D01*
X6881Y159041D01*
X6885Y159009D01*
X6904Y158931D01*
X6936Y158847D01*
X6959Y158806D01*
X6987Y158764D01*
X7019Y158723D01*
X7051Y158681D01*
X7098Y158644D01*
X7144Y158612D01*
X7148D01*
X7158Y158602D01*
X7171Y158598D01*
X7195Y158584D01*
X7222Y158570D01*
X7255Y158556D01*
X7296Y158543D01*
X7343Y158529D01*
X7398Y158510D01*
X7458Y158496D01*
X7523Y158482D01*
X7592Y158469D01*
X7671Y158455D01*
X7758Y158450D01*
X7846Y158441D01*
X7994D01*
X8031Y158446D01*
X8072D01*
X8123Y158450D01*
X8179Y158455D01*
X8239Y158464D01*
X8368Y158482D01*
X8502Y158515D01*
X8627Y158556D01*
X8682Y158584D01*
X8738Y158612D01*
X8742D01*
X8747Y158621D01*
X8761Y158630D01*
X8779Y158644D01*
X8821Y158686D01*
X8872Y158741D01*
X8923Y158810D01*
X8964Y158898D01*
X8983Y158949D01*
X8992Y159004D01*
X9001Y159064D01*
X9006Y159125D01*
Y159134D01*
Y159152D01*
X9001Y159180D01*
X8996Y159222D01*
X8992Y159268D01*
X8978Y159319D01*
X8964Y159374D01*
X8941Y159430D01*
X8936Y159439D01*
X8927Y159457D01*
X8909Y159485D01*
X8885Y159527D01*
X8858Y159573D01*
X8816Y159628D01*
X8775Y159684D01*
X8719Y159744D01*
X9408D01*
X9412Y159739D01*
D02*
G37*
G36*
X9500Y155248D02*
X6372D01*
Y157193D01*
X6917D01*
Y155868D01*
X7592D01*
Y157069D01*
X8137D01*
Y155868D01*
X8955D01*
Y157193D01*
X9500D01*
Y155248D01*
D02*
G37*
G36*
X6913Y161666D02*
X9500D01*
Y161047D01*
X6913D01*
Y160252D01*
X6372D01*
Y162460D01*
X6913D01*
Y161666D01*
D02*
G37*
G36*
X19572Y123203D02*
X19642Y123198D01*
X19716Y123194D01*
X19803Y123185D01*
X19896Y123175D01*
X19988Y123157D01*
X20090Y123138D01*
X20191Y123120D01*
X20289Y123092D01*
X20390Y123060D01*
X20483Y123023D01*
X20570Y122981D01*
X20653Y122931D01*
X20658Y122926D01*
X20672Y122917D01*
X20691Y122903D01*
X20718Y122880D01*
X20746Y122852D01*
X20783Y122815D01*
X20820Y122774D01*
X20857Y122723D01*
X20894Y122667D01*
X20931Y122607D01*
X20968Y122543D01*
X20995Y122469D01*
X21023Y122385D01*
X21042Y122302D01*
X21055Y122205D01*
X21060Y122108D01*
Y122104D01*
Y122085D01*
X21055Y122057D01*
Y122020D01*
X21046Y121974D01*
X21037Y121923D01*
X21028Y121863D01*
X21009Y121803D01*
X20986Y121739D01*
X20958Y121669D01*
X20926Y121605D01*
X20889Y121535D01*
X20843Y121471D01*
X20787Y121406D01*
X20723Y121346D01*
X20653Y121291D01*
X20649Y121286D01*
X20635Y121277D01*
X20612Y121263D01*
X20575Y121249D01*
X20533Y121226D01*
X20483Y121203D01*
X20418Y121180D01*
X20349Y121152D01*
X20265Y121124D01*
X20178Y121101D01*
X20076Y121078D01*
X19970Y121055D01*
X19850Y121041D01*
X19725Y121027D01*
X19586Y121018D01*
X19443Y121013D01*
X19365D01*
X19309Y121018D01*
X19244Y121022D01*
X19166Y121027D01*
X19083Y121036D01*
X18990Y121050D01*
X18893Y121064D01*
X18792Y121083D01*
X18690Y121106D01*
X18593Y121129D01*
X18491Y121161D01*
X18399Y121198D01*
X18311Y121240D01*
X18228Y121291D01*
X18223Y121295D01*
X18210Y121304D01*
X18191Y121318D01*
X18163Y121341D01*
X18131Y121374D01*
X18099Y121406D01*
X18062Y121448D01*
X18020Y121498D01*
X17983Y121549D01*
X17946Y121614D01*
X17914Y121679D01*
X17882Y121753D01*
X17854Y121831D01*
X17835Y121919D01*
X17821Y122011D01*
X17817Y122108D01*
Y122113D01*
Y122131D01*
X17821Y122159D01*
Y122196D01*
X17831Y122242D01*
X17840Y122298D01*
X17849Y122353D01*
X17868Y122418D01*
X17891Y122482D01*
X17919Y122547D01*
X17951Y122616D01*
X17992Y122686D01*
X18039Y122750D01*
X18094Y122815D01*
X18154Y122875D01*
X18228Y122931D01*
X18233Y122935D01*
X18247Y122944D01*
X18270Y122958D01*
X18306Y122972D01*
X18348Y122995D01*
X18399Y123018D01*
X18464Y123041D01*
X18533Y123069D01*
X18616Y123097D01*
X18704Y123120D01*
X18805Y123143D01*
X18912Y123166D01*
X19032Y123180D01*
X19161Y123194D01*
X19295Y123203D01*
X19443Y123208D01*
X19522D01*
X19572Y123203D01*
D02*
G37*
G36*
X20215Y120662D02*
X20252Y120658D01*
X20293Y120653D01*
X20390Y120634D01*
X20501Y120598D01*
X20557Y120579D01*
X20607Y120551D01*
X20663Y120519D01*
X20709Y120482D01*
X20755Y120440D01*
X20797Y120390D01*
Y120385D01*
X20806Y120376D01*
X20815Y120362D01*
X20829Y120339D01*
X20843Y120306D01*
X20861Y120270D01*
X20880Y120228D01*
X20898Y120177D01*
X20917Y120122D01*
X20935Y120052D01*
X20954Y119983D01*
X20968Y119904D01*
X20981Y119817D01*
X20991Y119720D01*
X20995Y119618D01*
X21000Y119507D01*
Y118500D01*
X17872D01*
Y119507D01*
Y119512D01*
Y119530D01*
Y119558D01*
X17877Y119595D01*
Y119636D01*
X17882Y119687D01*
X17891Y119743D01*
X17895Y119803D01*
X17919Y119928D01*
X17955Y120057D01*
X18006Y120182D01*
X18034Y120242D01*
X18071Y120293D01*
Y120297D01*
X18080Y120302D01*
X18089Y120316D01*
X18108Y120334D01*
X18131Y120353D01*
X18154Y120376D01*
X18219Y120426D01*
X18302Y120473D01*
X18404Y120514D01*
X18464Y120533D01*
X18524Y120547D01*
X18593Y120551D01*
X18662Y120556D01*
X18713D01*
X18764Y120547D01*
X18833Y120537D01*
X18907Y120519D01*
X18986Y120491D01*
X19064Y120450D01*
X19133Y120399D01*
X19143Y120390D01*
X19161Y120371D01*
X19189Y120334D01*
X19221Y120283D01*
X19254Y120219D01*
X19286Y120140D01*
X19309Y120048D01*
X19328Y119941D01*
Y119946D01*
Y119955D01*
X19332Y119974D01*
X19337Y120001D01*
X19341Y120029D01*
X19351Y120066D01*
X19374Y120145D01*
X19401Y120232D01*
X19448Y120320D01*
X19503Y120408D01*
X19572Y120482D01*
X19582Y120491D01*
X19595Y120501D01*
X19609Y120510D01*
X19656Y120542D01*
X19720Y120574D01*
X19799Y120607D01*
X19896Y120639D01*
X20011Y120658D01*
X20141Y120667D01*
X20182D01*
X20215Y120662D01*
D02*
G37*
G36*
X79509Y62000D02*
X78455D01*
X77742Y62666D01*
X77724Y62675D01*
X77687Y62722D01*
X77622Y62777D01*
X77539Y62860D01*
X77437Y62953D01*
X77326Y63064D01*
X77206Y63175D01*
X77067Y63295D01*
X76808Y63545D01*
X76670Y63674D01*
X76549Y63785D01*
X76429Y63896D01*
X76327Y63989D01*
X76244Y64063D01*
X76179Y64118D01*
X76161Y64137D01*
X76114Y64174D01*
X76050Y64229D01*
X75967Y64294D01*
X75865Y64377D01*
X75754Y64451D01*
X75652Y64525D01*
X75541Y64581D01*
X75532Y64590D01*
X75495Y64599D01*
X75439Y64627D01*
X75365Y64655D01*
X75282Y64673D01*
X75190Y64701D01*
X75088Y64710D01*
X74986Y64719D01*
X74921D01*
X74838Y64710D01*
X74746Y64692D01*
X74644Y64655D01*
X74533Y64609D01*
X74431Y64544D01*
X74339Y64460D01*
X74329Y64451D01*
X74301Y64414D01*
X74265Y64359D01*
X74218Y64275D01*
X74181Y64174D01*
X74144Y64053D01*
X74116Y63906D01*
X74107Y63739D01*
Y63721D01*
Y63683D01*
X74116Y63609D01*
X74126Y63517D01*
X74144Y63406D01*
X74163Y63286D01*
X74200Y63138D01*
X74246Y62990D01*
X74255Y62971D01*
X74274Y62916D01*
X74301Y62842D01*
X74339Y62731D01*
X74394Y62601D01*
X74459Y62463D01*
X74533Y62305D01*
X74625Y62139D01*
X73469D01*
Y62148D01*
X73460Y62157D01*
X73441Y62213D01*
X73413Y62305D01*
X73377Y62416D01*
X73339Y62546D01*
X73303Y62694D01*
X73229Y63008D01*
Y63017D01*
Y63027D01*
X73210Y63082D01*
X73201Y63165D01*
X73182Y63276D01*
X73164Y63397D01*
X73154Y63535D01*
X73136Y63832D01*
Y63841D01*
Y63878D01*
Y63924D01*
X73145Y63998D01*
X73154Y64081D01*
X73164Y64174D01*
X73173Y64285D01*
X73191Y64405D01*
X73247Y64655D01*
X73330Y64914D01*
X73386Y65043D01*
X73450Y65163D01*
X73524Y65284D01*
X73608Y65395D01*
X73617Y65404D01*
X73626Y65422D01*
X73654Y65450D01*
X73691Y65487D01*
X73737Y65524D01*
X73793Y65580D01*
X73867Y65626D01*
X73941Y65681D01*
X74024Y65737D01*
X74116Y65783D01*
X74329Y65876D01*
X74449Y65913D01*
X74579Y65940D01*
X74718Y65959D01*
X74866Y65968D01*
X74931D01*
X74995Y65959D01*
X75088Y65950D01*
X75199Y65940D01*
X75310Y65913D01*
X75439Y65885D01*
X75560Y65839D01*
X75578Y65829D01*
X75615Y65811D01*
X75680Y65783D01*
X75772Y65737D01*
X75874Y65681D01*
X75994Y65608D01*
X76133Y65515D01*
X76272Y65413D01*
X76290Y65404D01*
X76327Y65367D01*
X76364Y65330D01*
X76411Y65293D01*
X76475Y65237D01*
X76540Y65182D01*
X76623Y65108D01*
X76716Y65016D01*
X76818Y64923D01*
X76938Y64803D01*
X77067Y64673D01*
X77215Y64534D01*
X77382Y64368D01*
X77557Y64192D01*
X77567Y64183D01*
X77585Y64165D01*
X77613Y64137D01*
X77650Y64100D01*
X77742Y64007D01*
X77872Y63887D01*
X78011Y63748D01*
X78149Y63609D01*
X78288Y63471D01*
X78418Y63341D01*
Y65968D01*
X79509D01*
Y62000D01*
D02*
G37*
G36*
X56500Y120190D02*
X53558D01*
X53475Y120180D01*
X53364Y120171D01*
X53244Y120153D01*
X53124Y120125D01*
X53013Y120088D01*
X52920Y120042D01*
X52911Y120033D01*
X52883Y120014D01*
X52846Y119977D01*
X52809Y119931D01*
X52772Y119866D01*
X52735Y119783D01*
X52707Y119681D01*
X52698Y119570D01*
Y119552D01*
Y119515D01*
X52717Y119459D01*
X52735Y119385D01*
X52772Y119302D01*
X52819Y119209D01*
X52893Y119126D01*
X52994Y119052D01*
X53004Y119043D01*
X53050Y119024D01*
X53114Y118997D01*
X53207Y118959D01*
X53327Y118922D01*
X53466Y118895D01*
X53632Y118876D01*
X53817Y118867D01*
X56500D01*
Y117646D01*
X49979D01*
Y118867D01*
X52513D01*
X52495Y118876D01*
X52448Y118895D01*
X52375Y118922D01*
X52291Y118969D01*
X52199Y119034D01*
X52097Y119107D01*
X51995Y119200D01*
X51912Y119302D01*
X51903Y119320D01*
X51875Y119357D01*
X51838Y119422D01*
X51801Y119515D01*
X51764Y119625D01*
X51727Y119755D01*
X51699Y119903D01*
X51690Y120060D01*
Y120070D01*
Y120088D01*
Y120125D01*
X51699Y120171D01*
Y120227D01*
X51709Y120291D01*
X51745Y120440D01*
X51801Y120597D01*
X51875Y120763D01*
X51986Y120930D01*
X52060Y121004D01*
X52134Y121069D01*
X52143D01*
X52153Y121087D01*
X52180Y121096D01*
X52217Y121124D01*
X52263Y121152D01*
X52319Y121179D01*
X52384Y121207D01*
X52467Y121244D01*
X52550Y121272D01*
X52652Y121300D01*
X52763Y121327D01*
X52883Y121355D01*
X53004Y121383D01*
X53152Y121392D01*
X53299Y121411D01*
X56500D01*
Y120190D01*
D02*
G37*
G36*
X55297Y116221D02*
X55353Y116212D01*
X55427Y116203D01*
X55584Y116175D01*
X55760Y116111D01*
X55936Y116027D01*
X56028Y115972D01*
X56112Y115907D01*
X56186Y115833D01*
X56260Y115750D01*
Y115741D01*
X56278Y115731D01*
X56296Y115703D01*
X56315Y115657D01*
X56343Y115611D01*
X56371Y115546D01*
X56407Y115472D01*
X56435Y115389D01*
X56472Y115296D01*
X56509Y115185D01*
X56537Y115075D01*
X56565Y114945D01*
X56583Y114806D01*
X56602Y114649D01*
X56620Y114492D01*
Y114316D01*
Y114297D01*
Y114242D01*
Y114159D01*
X56611Y114048D01*
X56602Y113918D01*
X56593Y113770D01*
X56574Y113613D01*
X56546Y113446D01*
Y113437D01*
Y113428D01*
X56528Y113373D01*
X56519Y113280D01*
X56491Y113169D01*
X56463Y113030D01*
X56417Y112882D01*
X56380Y112716D01*
X56324Y112549D01*
X55251D01*
Y112558D01*
X55260Y112568D01*
X55288Y112623D01*
X55335Y112697D01*
X55381Y112808D01*
X55436Y112928D01*
X55501Y113067D01*
X55556Y113215D01*
X55603Y113373D01*
Y113382D01*
X55612Y113391D01*
X55621Y113446D01*
X55640Y113530D01*
X55658Y113631D01*
X55686Y113761D01*
X55704Y113900D01*
X55714Y114048D01*
X55723Y114196D01*
Y114205D01*
Y114214D01*
Y114270D01*
X55714Y114344D01*
X55704Y114436D01*
X55695Y114538D01*
X55668Y114649D01*
X55640Y114751D01*
X55603Y114843D01*
X55594Y114852D01*
X55575Y114880D01*
X55547Y114917D01*
X55510Y114963D01*
X55455Y115000D01*
X55399Y115038D01*
X55325Y115065D01*
X55242Y115075D01*
X55205D01*
X55159Y115065D01*
X55103Y115056D01*
X55048Y115038D01*
X54992Y115010D01*
X54927Y114973D01*
X54881Y114917D01*
X54872Y114908D01*
X54863Y114880D01*
X54835Y114834D01*
X54798Y114769D01*
X54761Y114667D01*
X54715Y114538D01*
X54687Y114455D01*
X54668Y114372D01*
X54641Y114270D01*
X54613Y114168D01*
X54539Y113826D01*
Y113816D01*
X54530Y113798D01*
X54520Y113761D01*
X54511Y113715D01*
X54493Y113650D01*
X54465Y113585D01*
X54409Y113437D01*
X54345Y113271D01*
X54261Y113095D01*
X54160Y112938D01*
X54040Y112799D01*
X54021Y112790D01*
X53975Y112753D01*
X53901Y112697D01*
X53799Y112642D01*
X53670Y112577D01*
X53512Y112531D01*
X53327Y112494D01*
X53124Y112475D01*
X53059D01*
X53013Y112485D01*
X52957Y112494D01*
X52893Y112503D01*
X52735Y112540D01*
X52569Y112595D01*
X52393Y112679D01*
X52310Y112734D01*
X52227Y112808D01*
X52143Y112882D01*
X52069Y112966D01*
Y112975D01*
X52051Y112984D01*
X52032Y113021D01*
X52014Y113058D01*
X51977Y113104D01*
X51949Y113169D01*
X51912Y113243D01*
X51875Y113326D01*
X51847Y113419D01*
X51810Y113521D01*
X51773Y113631D01*
X51745Y113752D01*
X51727Y113891D01*
X51709Y114029D01*
X51690Y114187D01*
Y114344D01*
Y114353D01*
Y114362D01*
Y114409D01*
Y114492D01*
X51699Y114594D01*
X51709Y114714D01*
X51718Y114843D01*
X51736Y114991D01*
X51755Y115139D01*
Y115148D01*
Y115158D01*
X51764Y115204D01*
X51783Y115287D01*
X51801Y115389D01*
X51829Y115500D01*
X51866Y115639D01*
X51949Y115916D01*
X53022D01*
X53013Y115898D01*
X52985Y115861D01*
X52948Y115787D01*
X52902Y115703D01*
X52846Y115593D01*
X52791Y115472D01*
X52745Y115343D01*
X52698Y115204D01*
X52689Y115185D01*
X52680Y115139D01*
X52661Y115065D01*
X52643Y114973D01*
X52624Y114862D01*
X52606Y114732D01*
X52587Y114603D01*
Y114464D01*
Y114445D01*
Y114399D01*
X52596Y114325D01*
X52606Y114233D01*
X52615Y114131D01*
X52634Y114029D01*
X52671Y113937D01*
X52707Y113844D01*
X52717Y113835D01*
X52726Y113816D01*
X52754Y113779D01*
X52800Y113742D01*
X52846Y113706D01*
X52902Y113669D01*
X52976Y113650D01*
X53059Y113641D01*
X53078D01*
X53114Y113659D01*
X53179Y113687D01*
X53216Y113715D01*
X53253Y113752D01*
X53290Y113798D01*
X53337Y113854D01*
X53383Y113927D01*
X53429Y114020D01*
X53475Y114122D01*
X53522Y114233D01*
X53568Y114372D01*
X53605Y114529D01*
X53614Y114575D01*
X53697Y114936D01*
Y114945D01*
X53707Y114963D01*
X53716Y115000D01*
X53725Y115047D01*
X53743Y115102D01*
X53771Y115167D01*
X53827Y115306D01*
X53901Y115472D01*
X53984Y115629D01*
X54095Y115787D01*
X54215Y115916D01*
X54234Y115926D01*
X54280Y115963D01*
X54354Y116018D01*
X54465Y116074D01*
X54604Y116129D01*
X54770Y116184D01*
X54965Y116221D01*
X55177Y116231D01*
X55242D01*
X55297Y116221D01*
D02*
G37*
G36*
X79500Y29000D02*
X78408D01*
Y30387D01*
X74348D01*
X74672Y29102D01*
X73552D01*
X73238Y30387D01*
Y31590D01*
X78408D01*
Y32978D01*
X79500D01*
Y29000D01*
D02*
G37*
G36*
X79509Y68568D02*
X77974D01*
Y69964D01*
X79509D01*
Y68568D01*
D02*
G37*
G36*
X77900Y76476D02*
X77974Y76467D01*
X78057Y76458D01*
X78159Y76439D01*
X78260Y76421D01*
X78483Y76356D01*
X78603Y76310D01*
X78714Y76263D01*
X78825Y76199D01*
X78936Y76125D01*
X79047Y76042D01*
X79139Y75949D01*
X79149Y75940D01*
X79158Y75921D01*
X79185Y75893D01*
X79213Y75847D01*
X79250Y75792D01*
X79296Y75727D01*
X79343Y75653D01*
X79380Y75560D01*
X79426Y75459D01*
X79472Y75348D01*
X79519Y75218D01*
X79555Y75080D01*
X79583Y74941D01*
X79611Y74783D01*
X79620Y74608D01*
X79629Y74432D01*
Y74423D01*
Y74386D01*
Y74339D01*
X79620Y74275D01*
X79611Y74191D01*
X79602Y74099D01*
X79593Y73988D01*
X79565Y73877D01*
X79509Y73637D01*
X79426Y73387D01*
X79370Y73267D01*
X79296Y73146D01*
X79223Y73026D01*
X79139Y72924D01*
X79130Y72915D01*
X79121Y72906D01*
X79084Y72878D01*
X79047Y72841D01*
X79001Y72804D01*
X78936Y72758D01*
X78862Y72711D01*
X78778Y72665D01*
X78686Y72610D01*
X78584Y72563D01*
X78473Y72517D01*
X78344Y72480D01*
X78214Y72443D01*
X78066Y72416D01*
X77918Y72406D01*
X77752Y72397D01*
X77696D01*
X77659Y72406D01*
X77548Y72416D01*
X77409Y72434D01*
X77262Y72471D01*
X77095Y72527D01*
X76929Y72591D01*
X76771Y72693D01*
X76762D01*
X76753Y72711D01*
X76706Y72749D01*
X76632Y72813D01*
X76540Y72906D01*
X76447Y73026D01*
X76355Y73165D01*
X76272Y73331D01*
X76198Y73516D01*
Y73507D01*
X76188Y73498D01*
X76170Y73442D01*
X76124Y73350D01*
X76068Y73248D01*
X76003Y73137D01*
X75911Y73017D01*
X75809Y72896D01*
X75689Y72795D01*
X75670Y72786D01*
X75624Y72758D01*
X75550Y72721D01*
X75449Y72675D01*
X75328Y72628D01*
X75180Y72591D01*
X75014Y72563D01*
X74829Y72554D01*
X74755D01*
X74699Y72563D01*
X74634Y72573D01*
X74551Y72582D01*
X74375Y72619D01*
X74181Y72675D01*
X73978Y72767D01*
X73876Y72822D01*
X73774Y72887D01*
X73682Y72970D01*
X73589Y73054D01*
X73580Y73063D01*
X73571Y73081D01*
X73543Y73109D01*
X73515Y73146D01*
X73488Y73202D01*
X73441Y73257D01*
X73404Y73331D01*
X73358Y73414D01*
X73321Y73507D01*
X73275Y73618D01*
X73238Y73729D01*
X73210Y73849D01*
X73173Y73979D01*
X73154Y74127D01*
X73145Y74275D01*
X73136Y74432D01*
Y74441D01*
Y74469D01*
Y74515D01*
X73145Y74580D01*
Y74654D01*
X73164Y74737D01*
X73173Y74830D01*
X73191Y74932D01*
X73247Y75153D01*
X73330Y75385D01*
X73377Y75505D01*
X73441Y75616D01*
X73506Y75718D01*
X73589Y75819D01*
X73598Y75829D01*
X73608Y75838D01*
X73636Y75866D01*
X73672Y75903D01*
X73719Y75940D01*
X73774Y75977D01*
X73839Y76023D01*
X73913Y76078D01*
X74089Y76171D01*
X74301Y76245D01*
X74551Y76310D01*
X74681Y76319D01*
X74829Y76328D01*
X74912D01*
X75005Y76319D01*
X75125Y76301D01*
X75254Y76263D01*
X75402Y76227D01*
X75541Y76162D01*
X75680Y76078D01*
X75698Y76069D01*
X75735Y76032D01*
X75800Y75977D01*
X75874Y75903D01*
X75957Y75801D01*
X76050Y75681D01*
X76124Y75533D01*
X76198Y75366D01*
Y75375D01*
X76207Y75394D01*
X76216Y75422D01*
X76226Y75450D01*
X76272Y75551D01*
X76327Y75671D01*
X76411Y75801D01*
X76503Y75940D01*
X76623Y76069D01*
X76771Y76190D01*
X76790Y76199D01*
X76845Y76236D01*
X76929Y76282D01*
X77049Y76337D01*
X77188Y76393D01*
X77354Y76439D01*
X77548Y76476D01*
X77752Y76486D01*
X77835D01*
X77900Y76476D01*
D02*
G37*
G36*
X79509Y80472D02*
Y78752D01*
X73247Y77272D01*
Y78511D01*
X78483Y79612D01*
X73247Y80713D01*
Y81962D01*
X79509Y80472D01*
D02*
G37*
G36*
X77604Y43245D02*
X77687Y43236D01*
X77789Y43227D01*
X77909Y43208D01*
X78029Y43189D01*
X78288Y43125D01*
X78557Y43032D01*
X78695Y42977D01*
X78825Y42912D01*
X78945Y42829D01*
X79056Y42736D01*
X79065Y42727D01*
X79084Y42709D01*
X79111Y42681D01*
X79149Y42644D01*
X79185Y42588D01*
X79241Y42524D01*
X79287Y42450D01*
X79343Y42357D01*
X79398Y42265D01*
X79444Y42153D01*
X79500Y42033D01*
X79537Y41904D01*
X79574Y41756D01*
X79602Y41608D01*
X79620Y41451D01*
X79629Y41275D01*
Y41265D01*
Y41229D01*
X79620Y41164D01*
Y41090D01*
X79602Y40997D01*
X79593Y40886D01*
X79565Y40766D01*
X79537Y40637D01*
X79491Y40507D01*
X79444Y40368D01*
X79380Y40229D01*
X79306Y40091D01*
X79223Y39952D01*
X79121Y39832D01*
X79001Y39711D01*
X78871Y39610D01*
X78862Y39601D01*
X78834Y39591D01*
X78788Y39564D01*
X78723Y39527D01*
X78640Y39489D01*
X78538Y39452D01*
X78418Y39406D01*
X78270Y39360D01*
X78113Y39305D01*
X77928Y39258D01*
X77724Y39221D01*
X77502Y39184D01*
X77252Y39147D01*
X76993Y39119D01*
X76697Y39110D01*
X76392Y39101D01*
X76235D01*
X76124Y39110D01*
X75985Y39119D01*
X75837Y39138D01*
X75661Y39156D01*
X75476Y39184D01*
X75282Y39212D01*
X75078Y39258D01*
X74875Y39305D01*
X74672Y39369D01*
X74477Y39443D01*
X74292Y39527D01*
X74107Y39619D01*
X73950Y39730D01*
X73941Y39739D01*
X73913Y39758D01*
X73876Y39795D01*
X73821Y39850D01*
X73765Y39915D01*
X73691Y39998D01*
X73617Y40091D01*
X73543Y40202D01*
X73469Y40331D01*
X73395Y40470D01*
X73321Y40627D01*
X73265Y40794D01*
X73210Y40979D01*
X73173Y41182D01*
X73145Y41395D01*
X73136Y41626D01*
Y41636D01*
Y41682D01*
Y41737D01*
X73145Y41811D01*
X73154Y41904D01*
X73164Y42006D01*
X73201Y42228D01*
Y42246D01*
X73210Y42283D01*
X73229Y42348D01*
X73247Y42422D01*
X73275Y42524D01*
X73303Y42625D01*
X73386Y42866D01*
X74505D01*
X74496Y42847D01*
X74477Y42810D01*
X74440Y42746D01*
X74403Y42662D01*
X74357Y42560D01*
X74311Y42459D01*
X74227Y42228D01*
Y42218D01*
X74209Y42172D01*
X74200Y42116D01*
X74181Y42042D01*
X74163Y41950D01*
X74154Y41857D01*
X74135Y41645D01*
Y41636D01*
Y41617D01*
Y41580D01*
X74144Y41534D01*
Y41478D01*
X74163Y41414D01*
X74190Y41265D01*
X74246Y41108D01*
X74329Y40933D01*
X74375Y40849D01*
X74440Y40775D01*
X74505Y40701D01*
X74588Y40627D01*
X74598D01*
X74607Y40609D01*
X74634Y40600D01*
X74672Y40572D01*
X74718Y40544D01*
X74773Y40516D01*
X74847Y40479D01*
X74921Y40451D01*
X75014Y40415D01*
X75116Y40387D01*
X75217Y40359D01*
X75337Y40331D01*
X75467Y40304D01*
X75615Y40285D01*
X75763Y40276D01*
X75920Y40266D01*
X75911Y40276D01*
X75874Y40304D01*
X75828Y40341D01*
X75772Y40405D01*
X75698Y40470D01*
X75634Y40562D01*
X75569Y40655D01*
X75513Y40766D01*
X75504Y40784D01*
X75495Y40821D01*
X75467Y40886D01*
X75439Y40969D01*
X75421Y41080D01*
X75393Y41201D01*
X75384Y41339D01*
X75375Y41488D01*
Y41497D01*
Y41524D01*
Y41571D01*
X75384Y41626D01*
X75393Y41700D01*
X75402Y41774D01*
X75439Y41969D01*
X75504Y42172D01*
X75550Y42283D01*
X75596Y42394D01*
X75661Y42496D01*
X75735Y42607D01*
X75819Y42699D01*
X75911Y42792D01*
X75920Y42801D01*
X75939Y42810D01*
X75967Y42838D01*
X76013Y42866D01*
X76068Y42903D01*
X76133Y42940D01*
X76207Y42977D01*
X76300Y43023D01*
X76401Y43069D01*
X76512Y43106D01*
X76642Y43143D01*
X76780Y43180D01*
X76919Y43208D01*
X77077Y43236D01*
X77252Y43245D01*
X77428Y43254D01*
X77530D01*
X77604Y43245D01*
D02*
G37*
G36*
X79500Y47167D02*
Y45447D01*
X73238Y43966D01*
Y45206D01*
X78473Y46307D01*
X73238Y47407D01*
Y48656D01*
X79500Y47167D01*
D02*
G37*
G36*
X5000Y46000D02*
X1872D01*
Y47945D01*
X2417D01*
Y46619D01*
X3092D01*
Y47820D01*
X3637D01*
Y46619D01*
X4455D01*
Y47945D01*
X5000D01*
Y46000D01*
D02*
G37*
G36*
Y50116D02*
X3965Y49516D01*
X5000Y48920D01*
Y48287D01*
X3415Y49202D01*
X1872Y48310D01*
Y48948D01*
X2870Y49516D01*
X1872Y50089D01*
Y50731D01*
X3415Y49839D01*
X5000Y50754D01*
Y50116D01*
D02*
G37*
G36*
X56500Y110005D02*
X55982D01*
X55991Y109996D01*
X56028Y109968D01*
X56084Y109913D01*
X56158Y109848D01*
X56232Y109765D01*
X56306Y109672D01*
X56389Y109562D01*
X56454Y109432D01*
X56463Y109414D01*
X56481Y109367D01*
X56509Y109302D01*
X56537Y109201D01*
X56565Y109090D01*
X56593Y108960D01*
X56611Y108821D01*
X56620Y108664D01*
Y108655D01*
Y108627D01*
Y108590D01*
X56611Y108535D01*
Y108470D01*
X56602Y108387D01*
X56565Y108211D01*
X56519Y108017D01*
X56445Y107804D01*
X56343Y107610D01*
X56278Y107508D01*
X56204Y107425D01*
X56195Y107415D01*
X56186Y107406D01*
X56158Y107388D01*
X56121Y107360D01*
X56084Y107323D01*
X56028Y107286D01*
X55899Y107203D01*
X55732Y107120D01*
X55529Y107055D01*
X55288Y106999D01*
X55159Y106990D01*
X55020Y106981D01*
X54937D01*
X54881Y106990D01*
X54817Y106999D01*
X54742Y107009D01*
X54558Y107045D01*
X54363Y107110D01*
X54261Y107157D01*
X54160Y107203D01*
X54067Y107267D01*
X53975Y107332D01*
X53882Y107415D01*
X53808Y107508D01*
X53799Y107517D01*
X53790Y107536D01*
X53771Y107563D01*
X53743Y107610D01*
X53716Y107665D01*
X53679Y107730D01*
X53642Y107813D01*
X53605Y107915D01*
X53568Y108017D01*
X53540Y108146D01*
X53503Y108276D01*
X53475Y108424D01*
X53448Y108590D01*
X53429Y108766D01*
X53411Y108951D01*
Y109154D01*
Y110005D01*
X53161D01*
X53105Y109996D01*
X53040Y109978D01*
X52966Y109950D01*
X52893Y109913D01*
X52819Y109857D01*
X52754Y109783D01*
X52745Y109774D01*
X52726Y109747D01*
X52707Y109691D01*
X52671Y109626D01*
X52643Y109534D01*
X52624Y109432D01*
X52606Y109302D01*
X52596Y109154D01*
Y109145D01*
Y109136D01*
Y109081D01*
X52606Y108988D01*
Y108877D01*
X52624Y108747D01*
X52643Y108609D01*
X52671Y108451D01*
X52707Y108294D01*
X52717Y108276D01*
X52726Y108220D01*
X52754Y108146D01*
X52791Y108035D01*
X52846Y107906D01*
X52902Y107767D01*
X52976Y107610D01*
X53059Y107443D01*
X52014D01*
Y107452D01*
X52004Y107462D01*
X51986Y107508D01*
X51958Y107591D01*
X51921Y107693D01*
X51884Y107813D01*
X51847Y107952D01*
X51810Y108100D01*
X51773Y108257D01*
Y108266D01*
Y108276D01*
X51764Y108331D01*
X51745Y108414D01*
X51727Y108526D01*
X51718Y108664D01*
X51699Y108812D01*
X51690Y108979D01*
Y109154D01*
Y109164D01*
Y109201D01*
Y109265D01*
X51699Y109339D01*
X51709Y109432D01*
X51718Y109543D01*
X51727Y109654D01*
X51745Y109783D01*
X51801Y110043D01*
X51884Y110311D01*
X51940Y110431D01*
X52004Y110551D01*
X52078Y110662D01*
X52162Y110755D01*
X52171Y110764D01*
X52180Y110773D01*
X52208Y110801D01*
X52254Y110829D01*
X52310Y110866D01*
X52375Y110903D01*
X52448Y110949D01*
X52541Y110995D01*
X52652Y111032D01*
X52772Y111079D01*
X52911Y111116D01*
X53059Y111153D01*
X53225Y111180D01*
X53411Y111208D01*
X53614Y111217D01*
X53827Y111226D01*
X56500D01*
Y110005D01*
D02*
G37*
G36*
X79500Y35262D02*
X77965D01*
Y36659D01*
X79500D01*
Y35262D01*
D02*
G37*
%LPC*%
G36*
X19720Y124982D02*
X18440Y124691D01*
X19720Y124400D01*
Y124982D01*
D02*
G37*
G36*
X116187Y174857D02*
X116113D01*
X116039Y174848D01*
X115946Y174829D01*
X115835Y174793D01*
X115715Y174746D01*
X115604Y174681D01*
X115503Y174598D01*
X115493Y174589D01*
X115465Y174552D01*
X115419Y174487D01*
X115373Y174413D01*
X115327Y174302D01*
X115280Y174182D01*
X115243Y174034D01*
X115216Y173867D01*
X117149Y173877D01*
Y173886D01*
Y173895D01*
X117140Y173960D01*
X117130Y174043D01*
X117112Y174145D01*
X117084Y174265D01*
X117038Y174385D01*
X116973Y174506D01*
X116890Y174608D01*
X116881Y174617D01*
X116844Y174644D01*
X116788Y174691D01*
X116714Y174737D01*
X116613Y174774D01*
X116492Y174820D01*
X116353Y174848D01*
X116187Y174857D01*
D02*
G37*
G36*
X79992D02*
X79918D01*
X79844Y174848D01*
X79751Y174829D01*
X79640Y174793D01*
X79520Y174746D01*
X79409Y174681D01*
X79307Y174598D01*
X79298Y174589D01*
X79270Y174552D01*
X79224Y174487D01*
X79178Y174413D01*
X79132Y174302D01*
X79085Y174182D01*
X79048Y174034D01*
X79021Y173867D01*
X80954Y173877D01*
Y173886D01*
Y173895D01*
X80945Y173960D01*
X80935Y174043D01*
X80917Y174145D01*
X80889Y174265D01*
X80843Y174385D01*
X80778Y174506D01*
X80695Y174608D01*
X80686Y174617D01*
X80648Y174644D01*
X80593Y174691D01*
X80519Y174737D01*
X80417Y174774D01*
X80297Y174820D01*
X80158Y174848D01*
X79992Y174857D01*
D02*
G37*
G36*
X18819Y127643D02*
X18782D01*
X18741Y127638D01*
X18690Y127629D01*
X18639Y127615D01*
X18584Y127597D01*
X18533Y127569D01*
X18491Y127532D01*
X18487Y127527D01*
X18477Y127509D01*
X18459Y127486D01*
X18440Y127444D01*
X18422Y127393D01*
X18404Y127333D01*
X18394Y127255D01*
X18390Y127167D01*
Y126881D01*
X19244D01*
Y127167D01*
Y127172D01*
Y127176D01*
Y127190D01*
Y127209D01*
X19240Y127255D01*
X19230Y127310D01*
X19221Y127366D01*
X19203Y127430D01*
X19180Y127486D01*
X19147Y127532D01*
X19143Y127537D01*
X19129Y127551D01*
X19101Y127569D01*
X19069Y127587D01*
X19023Y127606D01*
X18967Y127624D01*
X18898Y127638D01*
X18819Y127643D01*
D02*
G37*
G36*
X19531Y130313D02*
X19346D01*
X19300Y130309D01*
X19249Y130304D01*
X19194Y130299D01*
X19133Y130295D01*
X19004Y130276D01*
X18879Y130249D01*
X18819Y130230D01*
X18759Y130207D01*
X18709Y130184D01*
X18662Y130156D01*
X18658D01*
X18653Y130147D01*
X18625Y130129D01*
X18588Y130087D01*
X18547Y130036D01*
X18505Y129962D01*
X18487Y129921D01*
X18468Y129874D01*
X18454Y129824D01*
X18440Y129768D01*
X18436Y129703D01*
X18431Y129639D01*
Y129472D01*
X20441D01*
Y129639D01*
Y129643D01*
Y129653D01*
Y129676D01*
X20436Y129699D01*
X20432Y129727D01*
X20427Y129764D01*
X20413Y129842D01*
X20385Y129925D01*
X20344Y130013D01*
X20321Y130050D01*
X20289Y130092D01*
X20256Y130124D01*
X20215Y130156D01*
X20210D01*
X20205Y130161D01*
X20191Y130170D01*
X20168Y130179D01*
X20145Y130193D01*
X20113Y130207D01*
X20076Y130221D01*
X20030Y130235D01*
X19979Y130249D01*
X19924Y130262D01*
X19859Y130276D01*
X19790Y130290D01*
X19711Y130299D01*
X19623Y130309D01*
X19531Y130313D01*
D02*
G37*
G36*
X54391Y110005D02*
X54299D01*
Y109515D01*
Y109506D01*
Y109487D01*
Y109450D01*
Y109404D01*
X54308Y109349D01*
Y109284D01*
X54317Y109136D01*
X54345Y108979D01*
X54373Y108821D01*
X54419Y108674D01*
X54447Y108609D01*
X54474Y108553D01*
X54483Y108544D01*
X54511Y108516D01*
X54548Y108470D01*
X54613Y108424D01*
X54696Y108368D01*
X54807Y108331D01*
X54937Y108294D01*
X55085Y108285D01*
X55140D01*
X55196Y108294D01*
X55260Y108313D01*
X55344Y108331D01*
X55427Y108359D01*
X55510Y108405D01*
X55584Y108470D01*
X55594Y108479D01*
X55612Y108507D01*
X55640Y108544D01*
X55677Y108599D01*
X55714Y108674D01*
X55742Y108766D01*
X55760Y108868D01*
X55769Y108979D01*
Y108988D01*
Y108997D01*
Y109025D01*
X55760Y109062D01*
X55751Y109145D01*
X55723Y109256D01*
X55677Y109377D01*
X55621Y109506D01*
X55529Y109626D01*
X55409Y109737D01*
X55390Y109747D01*
X55344Y109783D01*
X55260Y109820D01*
X55140Y109876D01*
X55001Y109922D01*
X54826Y109968D01*
X54622Y109996D01*
X54391Y110005D01*
D02*
G37*
G36*
X126371Y174783D02*
X126353D01*
X126306Y174774D01*
X126233Y174765D01*
X126140Y174737D01*
X126038Y174691D01*
X125936Y174617D01*
X125835Y174524D01*
X125742Y174395D01*
X125733Y174376D01*
X125705Y174321D01*
X125668Y174238D01*
X125631Y174117D01*
X125594Y173960D01*
X125557Y173784D01*
X125530Y173572D01*
X125520Y173331D01*
Y173322D01*
Y173303D01*
Y173266D01*
Y173220D01*
X125530Y173164D01*
Y173100D01*
X125548Y172942D01*
X125576Y172776D01*
X125613Y172600D01*
X125668Y172424D01*
X125742Y172267D01*
X125751Y172249D01*
X125779Y172212D01*
X125835Y172147D01*
X125909Y172082D01*
X125992Y172008D01*
X126103Y171943D01*
X126223Y171906D01*
X126371Y171888D01*
X126390D01*
X126436Y171897D01*
X126510Y171906D01*
X126602Y171934D01*
X126704Y171981D01*
X126806Y172045D01*
X126908Y172138D01*
X127000Y172267D01*
X127009Y172286D01*
X127037Y172341D01*
X127074Y172424D01*
X127120Y172545D01*
X127157Y172702D01*
X127194Y172878D01*
X127222Y173091D01*
X127232Y173331D01*
Y173340D01*
Y173359D01*
Y173396D01*
Y173442D01*
X127222Y173497D01*
Y173562D01*
X127204Y173720D01*
X127176Y173886D01*
X127130Y174062D01*
X127074Y174238D01*
X127000Y174395D01*
X126991Y174413D01*
X126954Y174460D01*
X126908Y174515D01*
X126834Y174589D01*
X126741Y174663D01*
X126639Y174718D01*
X126510Y174765D01*
X126371Y174783D01*
D02*
G37*
G36*
X91138Y173202D02*
X90537D01*
X90481Y173192D01*
X90417D01*
X90268Y173183D01*
X90111Y173155D01*
X89954Y173127D01*
X89806Y173081D01*
X89741Y173054D01*
X89686Y173026D01*
X89676Y173017D01*
X89649Y172989D01*
X89603Y172952D01*
X89556Y172887D01*
X89501Y172804D01*
X89464Y172693D01*
X89427Y172563D01*
X89417Y172415D01*
Y172406D01*
Y172360D01*
X89427Y172304D01*
X89445Y172239D01*
X89464Y172156D01*
X89491Y172073D01*
X89538Y171990D01*
X89603Y171916D01*
X89612Y171906D01*
X89640Y171888D01*
X89676Y171860D01*
X89732Y171823D01*
X89806Y171786D01*
X89899Y171758D01*
X90000Y171740D01*
X90111Y171731D01*
X90158D01*
X90194Y171740D01*
X90278Y171749D01*
X90389Y171777D01*
X90509Y171823D01*
X90639Y171879D01*
X90759Y171971D01*
X90870Y172091D01*
X90879Y172110D01*
X90916Y172156D01*
X90953Y172239D01*
X91009Y172360D01*
X91055Y172499D01*
X91101Y172674D01*
X91129Y172878D01*
X91138Y173109D01*
Y173202D01*
D02*
G37*
G36*
X70455D02*
X69854D01*
X69798Y173192D01*
X69734D01*
X69586Y173183D01*
X69428Y173155D01*
X69271Y173127D01*
X69123Y173081D01*
X69058Y173054D01*
X69003Y173026D01*
X68994Y173017D01*
X68966Y172989D01*
X68919Y172952D01*
X68873Y172887D01*
X68818Y172804D01*
X68781Y172693D01*
X68744Y172563D01*
X68735Y172415D01*
Y172406D01*
Y172360D01*
X68744Y172304D01*
X68762Y172239D01*
X68781Y172156D01*
X68809Y172073D01*
X68855Y171990D01*
X68919Y171916D01*
X68929Y171906D01*
X68957Y171888D01*
X68994Y171860D01*
X69049Y171823D01*
X69123Y171786D01*
X69216Y171758D01*
X69317Y171740D01*
X69428Y171731D01*
X69475D01*
X69511Y171740D01*
X69595Y171749D01*
X69706Y171777D01*
X69826Y171823D01*
X69955Y171879D01*
X70076Y171971D01*
X70187Y172091D01*
X70196Y172110D01*
X70233Y172156D01*
X70270Y172239D01*
X70325Y172360D01*
X70372Y172499D01*
X70418Y172674D01*
X70446Y172878D01*
X70455Y173109D01*
Y173202D01*
D02*
G37*
G36*
X19545Y122566D02*
X19351D01*
X19305Y122561D01*
X19249D01*
X19194Y122556D01*
X19129Y122552D01*
X18995Y122538D01*
X18861Y122519D01*
X18796Y122505D01*
X18732Y122492D01*
X18676Y122473D01*
X18625Y122455D01*
X18621D01*
X18616Y122450D01*
X18584Y122432D01*
X18547Y122408D01*
X18496Y122372D01*
X18450Y122321D01*
X18413Y122261D01*
X18381Y122191D01*
X18376Y122150D01*
X18371Y122108D01*
Y122104D01*
Y122099D01*
X18376Y122071D01*
X18385Y122030D01*
X18404Y121979D01*
X18431Y121919D01*
X18477Y121863D01*
X18505Y121836D01*
X18542Y121808D01*
X18579Y121785D01*
X18625Y121762D01*
X18630D01*
X18639Y121757D01*
X18653Y121753D01*
X18672Y121743D01*
X18699Y121739D01*
X18736Y121729D01*
X18778Y121720D01*
X18824Y121711D01*
X18875Y121697D01*
X18935Y121688D01*
X19004Y121679D01*
X19078Y121674D01*
X19157Y121665D01*
X19244Y121660D01*
X19341Y121655D01*
X19535D01*
X19582Y121660D01*
X19633D01*
X19692Y121665D01*
X19753Y121669D01*
X19887Y121683D01*
X20021Y121702D01*
X20150Y121725D01*
X20205Y121743D01*
X20256Y121762D01*
X20261D01*
X20265Y121766D01*
X20293Y121785D01*
X20335Y121808D01*
X20381Y121845D01*
X20427Y121896D01*
X20469Y121956D01*
X20496Y122025D01*
X20501Y122067D01*
X20506Y122108D01*
Y122113D01*
Y122117D01*
X20501Y122145D01*
X20492Y122187D01*
X20473Y122242D01*
X20446Y122298D01*
X20399Y122353D01*
X20372Y122381D01*
X20339Y122408D01*
X20298Y122432D01*
X20256Y122455D01*
X20252D01*
X20242Y122459D01*
X20229Y122464D01*
X20205Y122473D01*
X20182Y122482D01*
X20145Y122492D01*
X20104Y122501D01*
X20057Y122510D01*
X20007Y122519D01*
X19947Y122529D01*
X19877Y122538D01*
X19808Y122547D01*
X19725Y122556D01*
X19637Y122561D01*
X19545Y122566D01*
D02*
G37*
G36*
X121228Y187311D02*
X121210D01*
X121163Y187302D01*
X121099Y187293D01*
X121006Y187265D01*
X120914Y187218D01*
X120803Y187154D01*
X120701Y187061D01*
X120608Y186932D01*
X120599Y186913D01*
X120571Y186867D01*
X120535Y186775D01*
X120498Y186663D01*
X120451Y186515D01*
X120414Y186340D01*
X120387Y186145D01*
X120377Y185914D01*
Y185905D01*
Y185887D01*
Y185849D01*
Y185812D01*
X120387Y185757D01*
Y185692D01*
X120405Y185544D01*
X120433Y185387D01*
X120479Y185221D01*
X120535Y185054D01*
X120608Y184897D01*
X120618Y184878D01*
X120655Y184841D01*
X120701Y184776D01*
X120775Y184712D01*
X120868Y184647D01*
X120969Y184582D01*
X121089Y184545D01*
X121228Y184527D01*
X121247D01*
X121293Y184536D01*
X121367Y184545D01*
X121450Y184573D01*
X121552Y184619D01*
X121654Y184684D01*
X121765Y184776D01*
X121857Y184906D01*
X121867Y184924D01*
X121894Y184980D01*
X121931Y185063D01*
X121977Y185174D01*
X122024Y185322D01*
X122061Y185489D01*
X122089Y185692D01*
X122098Y185914D01*
Y185924D01*
Y185942D01*
Y185979D01*
Y186016D01*
X122089Y186072D01*
Y186136D01*
X122070Y186275D01*
X122042Y186442D01*
X121996Y186608D01*
X121941Y186775D01*
X121857Y186923D01*
X121848Y186941D01*
X121811Y186987D01*
X121765Y187043D01*
X121691Y187117D01*
X121598Y187191D01*
X121487Y187246D01*
X121367Y187293D01*
X121228Y187311D01*
D02*
G37*
G36*
X63369Y166781D02*
X62925D01*
Y165668D01*
X63438D01*
X63489Y165677D01*
X63558Y165686D01*
X63627Y165700D01*
X63701Y165723D01*
X63775Y165756D01*
X63835Y165802D01*
X63840Y165806D01*
X63858Y165830D01*
X63881Y165862D01*
X63914Y165908D01*
X63941Y165963D01*
X63964Y166037D01*
X63983Y166125D01*
X63988Y166222D01*
Y166227D01*
Y166236D01*
Y166250D01*
X63983Y166268D01*
X63978Y166315D01*
X63969Y166375D01*
X63946Y166439D01*
X63918Y166509D01*
X63881Y166573D01*
X63826Y166633D01*
X63817Y166638D01*
X63798Y166656D01*
X63761Y166680D01*
X63710Y166707D01*
X63646Y166735D01*
X63567Y166758D01*
X63475Y166777D01*
X63369Y166781D01*
D02*
G37*
G36*
X66127Y166074D02*
X66099D01*
X66080Y166070D01*
X66030Y166065D01*
X65965Y166051D01*
X65891Y166028D01*
X65817Y165996D01*
X65739Y165950D01*
X65669Y165890D01*
X65660Y165880D01*
X65642Y165857D01*
X65609Y165816D01*
X65577Y165756D01*
X65540Y165682D01*
X65503Y165594D01*
X65475Y165492D01*
X65457Y165377D01*
X66727Y165381D01*
Y165386D01*
Y165395D01*
Y165414D01*
X66723Y165437D01*
Y165464D01*
X66718Y165497D01*
X66704Y165571D01*
X66686Y165654D01*
X66653Y165742D01*
X66616Y165820D01*
X66566Y165894D01*
X66556Y165903D01*
X66538Y165922D01*
X66501Y165950D01*
X66455Y165987D01*
X66390Y166019D01*
X66316Y166047D01*
X66228Y166065D01*
X66127Y166074D01*
D02*
G37*
G36*
X80075Y187302D02*
X80057D01*
X80010Y187293D01*
X79936Y187283D01*
X79844Y187256D01*
X79751Y187209D01*
X79640Y187135D01*
X79539Y187043D01*
X79446Y186913D01*
X79437Y186895D01*
X79409Y186839D01*
X79372Y186756D01*
X79335Y186636D01*
X79298Y186478D01*
X79261Y186303D01*
X79233Y186090D01*
X79224Y185849D01*
Y185840D01*
Y185822D01*
Y185785D01*
Y185739D01*
X79233Y185683D01*
Y185618D01*
X79252Y185461D01*
X79280Y185294D01*
X79317Y185119D01*
X79372Y184943D01*
X79446Y184786D01*
X79455Y184767D01*
X79492Y184730D01*
X79539Y184666D01*
X79612Y184601D01*
X79705Y184527D01*
X79807Y184462D01*
X79936Y184425D01*
X80075Y184406D01*
X80093D01*
X80140Y184416D01*
X80214Y184425D01*
X80306Y184453D01*
X80408Y184499D01*
X80510Y184564D01*
X80611Y184656D01*
X80704Y184786D01*
X80713Y184804D01*
X80741Y184860D01*
X80778Y184943D01*
X80824Y185063D01*
X80861Y185221D01*
X80898Y185396D01*
X80926Y185609D01*
X80935Y185849D01*
Y185859D01*
Y185877D01*
Y185914D01*
Y185960D01*
X80926Y186016D01*
Y186081D01*
X80907Y186238D01*
X80880Y186405D01*
X80834Y186580D01*
X80778Y186756D01*
X80704Y186913D01*
X80695Y186932D01*
X80667Y186978D01*
X80611Y187033D01*
X80547Y187108D01*
X80454Y187181D01*
X80343Y187237D01*
X80223Y187283D01*
X80075Y187302D01*
D02*
G37*
G36*
X77502Y42079D02*
X77409D01*
X77317Y42070D01*
X77188Y42052D01*
X77058Y42024D01*
X76919Y41987D01*
X76780Y41932D01*
X76660Y41857D01*
X76651Y41848D01*
X76614Y41820D01*
X76568Y41765D01*
X76512Y41700D01*
X76457Y41617D01*
X76411Y41506D01*
X76373Y41386D01*
X76364Y41247D01*
Y41229D01*
Y41182D01*
X76383Y41108D01*
X76401Y41016D01*
X76438Y40914D01*
X76485Y40812D01*
X76559Y40720D01*
X76660Y40627D01*
X76670Y40618D01*
X76716Y40600D01*
X76780Y40562D01*
X76873Y40525D01*
X76993Y40488D01*
X77132Y40451D01*
X77308Y40433D01*
X77502Y40424D01*
X77595D01*
X77696Y40433D01*
X77816Y40451D01*
X77955Y40470D01*
X78094Y40507D01*
X78224Y40562D01*
X78344Y40627D01*
X78353Y40637D01*
X78390Y40664D01*
X78436Y40720D01*
X78483Y40784D01*
X78538Y40868D01*
X78584Y40979D01*
X78621Y41108D01*
X78631Y41247D01*
Y41256D01*
Y41265D01*
X78621Y41312D01*
X78612Y41386D01*
X78593Y41469D01*
X78557Y41571D01*
X78510Y41673D01*
X78436Y41774D01*
X78344Y41857D01*
X78334Y41867D01*
X78288Y41895D01*
X78224Y41932D01*
X78131Y41969D01*
X78011Y42006D01*
X77863Y42042D01*
X77696Y42070D01*
X77502Y42079D01*
D02*
G37*
G36*
X85967Y185702D02*
X85366D01*
X85311Y185692D01*
X85246D01*
X85098Y185683D01*
X84940Y185655D01*
X84783Y185627D01*
X84635Y185581D01*
X84570Y185554D01*
X84515Y185526D01*
X84506Y185517D01*
X84478Y185489D01*
X84432Y185452D01*
X84386Y185387D01*
X84330Y185304D01*
X84293Y185193D01*
X84256Y185063D01*
X84247Y184915D01*
Y184906D01*
Y184860D01*
X84256Y184804D01*
X84275Y184739D01*
X84293Y184656D01*
X84321Y184573D01*
X84367Y184490D01*
X84432Y184416D01*
X84441Y184406D01*
X84469Y184388D01*
X84506Y184360D01*
X84561Y184323D01*
X84635Y184286D01*
X84728Y184258D01*
X84829Y184240D01*
X84940Y184231D01*
X84987D01*
X85024Y184240D01*
X85107Y184249D01*
X85218Y184277D01*
X85338Y184323D01*
X85468Y184379D01*
X85588Y184471D01*
X85699Y184591D01*
X85708Y184610D01*
X85745Y184656D01*
X85782Y184739D01*
X85838Y184860D01*
X85884Y184999D01*
X85930Y185174D01*
X85958Y185378D01*
X85967Y185609D01*
Y185702D01*
D02*
G37*
G36*
X69604Y187311D02*
X69586D01*
X69530Y187302D01*
X69456Y187293D01*
X69354Y187265D01*
X69243Y187218D01*
X69132Y187144D01*
X69021Y187052D01*
X68919Y186923D01*
X68910Y186904D01*
X68883Y186848D01*
X68836Y186765D01*
X68799Y186645D01*
X68753Y186488D01*
X68707Y186303D01*
X68679Y186090D01*
X68670Y185840D01*
Y185831D01*
Y185812D01*
Y185775D01*
Y185729D01*
X68679Y185664D01*
Y185600D01*
X68698Y185442D01*
X68735Y185276D01*
X68771Y185091D01*
X68836Y184915D01*
X68919Y184758D01*
X68929Y184739D01*
X68966Y184703D01*
X69021Y184638D01*
X69095Y184573D01*
X69197Y184499D01*
X69317Y184434D01*
X69447Y184397D01*
X69604Y184379D01*
X69622D01*
X69678Y184388D01*
X69761Y184397D01*
X69854Y184425D01*
X69965Y184471D01*
X70085Y184536D01*
X70196Y184628D01*
X70298Y184758D01*
X70307Y184776D01*
X70335Y184832D01*
X70381Y184915D01*
X70427Y185036D01*
X70473Y185193D01*
X70520Y185378D01*
X70547Y185591D01*
X70557Y185840D01*
Y185849D01*
Y185868D01*
Y185905D01*
Y185951D01*
X70547Y186016D01*
Y186081D01*
X70529Y186238D01*
X70492Y186414D01*
X70446Y186590D01*
X70381Y186765D01*
X70298Y186923D01*
X70288Y186941D01*
X70252Y186987D01*
X70196Y187043D01*
X70122Y187117D01*
X70020Y187191D01*
X69900Y187246D01*
X69761Y187293D01*
X69604Y187311D01*
D02*
G37*
G36*
X20057Y120043D02*
X20016D01*
X19970Y120038D01*
X19914Y120029D01*
X19859Y120011D01*
X19794Y119992D01*
X19739Y119960D01*
X19692Y119918D01*
X19688Y119914D01*
X19674Y119895D01*
X19656Y119863D01*
X19633Y119821D01*
X19614Y119761D01*
X19595Y119692D01*
X19582Y119609D01*
X19577Y119507D01*
Y119096D01*
X20506D01*
Y119507D01*
Y119512D01*
Y119521D01*
Y119535D01*
Y119553D01*
X20501Y119609D01*
X20492Y119669D01*
X20483Y119738D01*
X20464Y119808D01*
X20441Y119872D01*
X20409Y119923D01*
X20404Y119928D01*
X20390Y119941D01*
X20362Y119960D01*
X20325Y119983D01*
X20279Y120006D01*
X20219Y120025D01*
X20145Y120038D01*
X20057Y120043D01*
D02*
G37*
G36*
X74931Y75227D02*
X74866D01*
X74801Y75218D01*
X74718Y75200D01*
X74625Y75172D01*
X74533Y75135D01*
X74431Y75089D01*
X74348Y75015D01*
X74339Y75006D01*
X74311Y74978D01*
X74283Y74932D01*
X74237Y74867D01*
X74200Y74783D01*
X74172Y74682D01*
X74144Y74562D01*
X74135Y74432D01*
Y74414D01*
Y74376D01*
X74144Y74312D01*
X74163Y74229D01*
X74190Y74136D01*
X74227Y74044D01*
X74283Y73951D01*
X74357Y73868D01*
X74366Y73858D01*
X74394Y73831D01*
X74440Y73803D01*
X74505Y73766D01*
X74588Y73720D01*
X74690Y73692D01*
X74801Y73664D01*
X74931Y73655D01*
X74995D01*
X75060Y73664D01*
X75143Y73683D01*
X75236Y73701D01*
X75328Y73738D01*
X75430Y73794D01*
X75513Y73858D01*
X75523Y73868D01*
X75550Y73896D01*
X75578Y73942D01*
X75615Y74006D01*
X75661Y74090D01*
X75689Y74191D01*
X75717Y74303D01*
X75726Y74432D01*
Y74450D01*
Y74497D01*
X75717Y74562D01*
X75698Y74645D01*
X75670Y74737D01*
X75634Y74830D01*
X75587Y74932D01*
X75513Y75015D01*
X75504Y75024D01*
X75476Y75052D01*
X75430Y75080D01*
X75356Y75126D01*
X75273Y75163D01*
X75180Y75191D01*
X75060Y75218D01*
X74931Y75227D01*
D02*
G37*
G36*
X77678Y75366D02*
X77604D01*
X77530Y75357D01*
X77428Y75339D01*
X77317Y75301D01*
X77197Y75255D01*
X77086Y75191D01*
X76984Y75107D01*
X76975Y75098D01*
X76938Y75061D01*
X76901Y75006D01*
X76845Y74922D01*
X76799Y74830D01*
X76753Y74709D01*
X76725Y74580D01*
X76716Y74432D01*
Y74414D01*
Y74367D01*
X76725Y74293D01*
X76753Y74201D01*
X76780Y74090D01*
X76827Y73979D01*
X76891Y73868D01*
X76984Y73766D01*
X76993Y73757D01*
X77030Y73729D01*
X77086Y73683D01*
X77169Y73646D01*
X77271Y73599D01*
X77382Y73553D01*
X77521Y73526D01*
X77678Y73516D01*
X77752D01*
X77826Y73526D01*
X77928Y73544D01*
X78029Y73581D01*
X78149Y73618D01*
X78260Y73683D01*
X78372Y73766D01*
X78381Y73775D01*
X78408Y73812D01*
X78455Y73868D01*
X78501Y73951D01*
X78547Y74044D01*
X78593Y74155D01*
X78621Y74284D01*
X78631Y74432D01*
Y74441D01*
Y74450D01*
Y74506D01*
X78612Y74580D01*
X78593Y74673D01*
X78566Y74783D01*
X78519Y74894D01*
X78455Y75006D01*
X78372Y75107D01*
X78362Y75116D01*
X78325Y75144D01*
X78260Y75191D01*
X78187Y75237D01*
X78085Y75283D01*
X77965Y75329D01*
X77826Y75357D01*
X77678Y75366D01*
D02*
G37*
G36*
X18732Y119941D02*
X18699D01*
X18667Y119937D01*
X18625Y119928D01*
X18579Y119914D01*
X18533Y119895D01*
X18487Y119872D01*
X18450Y119835D01*
X18445Y119831D01*
X18436Y119817D01*
X18422Y119789D01*
X18404Y119757D01*
X18390Y119710D01*
X18376Y119655D01*
X18367Y119586D01*
X18362Y119507D01*
Y119096D01*
X19087D01*
Y119507D01*
Y119512D01*
Y119516D01*
Y119544D01*
X19083Y119586D01*
X19078Y119636D01*
X19069Y119692D01*
X19050Y119747D01*
X19032Y119798D01*
X19004Y119840D01*
X19000Y119844D01*
X18990Y119854D01*
X18967Y119872D01*
X18939Y119891D01*
X18902Y119909D01*
X18852Y119928D01*
X18796Y119937D01*
X18732Y119941D01*
D02*
G37*
G36*
X100203Y188643D02*
X99870D01*
Y184619D01*
X100277D01*
X100323Y184628D01*
X100379Y184638D01*
X100453Y184647D01*
X100610Y184675D01*
X100777Y184730D01*
X100952Y184813D01*
X101026Y184860D01*
X101110Y184924D01*
X101174Y184989D01*
X101239Y185073D01*
Y185082D01*
X101248Y185091D01*
X101267Y185119D01*
X101285Y185165D01*
X101313Y185211D01*
X101341Y185276D01*
X101368Y185350D01*
X101396Y185442D01*
X101424Y185544D01*
X101452Y185655D01*
X101479Y185785D01*
X101507Y185924D01*
X101526Y186081D01*
X101544Y186257D01*
X101553Y186442D01*
Y186636D01*
Y186645D01*
Y186682D01*
Y186738D01*
Y186811D01*
X101544Y186904D01*
X101535Y187006D01*
X101526Y187117D01*
X101516Y187237D01*
X101479Y187496D01*
X101424Y187746D01*
X101387Y187866D01*
X101341Y187986D01*
X101295Y188088D01*
X101239Y188180D01*
Y188190D01*
X101221Y188199D01*
X101183Y188254D01*
X101100Y188329D01*
X100998Y188412D01*
X100850Y188495D01*
X100767Y188532D01*
X100675Y188569D01*
X100573Y188597D01*
X100462Y188625D01*
X100332Y188634D01*
X100203Y188643D01*
D02*
G37*
G36*
X78984Y166074D02*
X78956D01*
X78938Y166070D01*
X78882Y166060D01*
X78818Y166047D01*
X78744Y166019D01*
X78670Y165977D01*
X78633Y165950D01*
X78601Y165922D01*
X78568Y165885D01*
X78536Y165843D01*
Y165839D01*
X78531Y165834D01*
X78522Y165820D01*
X78513Y165802D01*
X78504Y165779D01*
X78490Y165746D01*
X78476Y165714D01*
X78462Y165672D01*
X78448Y165631D01*
X78434Y165580D01*
X78421Y165525D01*
X78411Y165464D01*
X78402Y165400D01*
X78393Y165326D01*
X78388Y165252D01*
Y165169D01*
Y165164D01*
Y165150D01*
Y165127D01*
X78393Y165095D01*
Y165058D01*
X78397Y165016D01*
X78402Y164970D01*
X78407Y164919D01*
X78425Y164808D01*
X78453Y164698D01*
X78485Y164591D01*
X78508Y164541D01*
X78536Y164494D01*
Y164490D01*
X78545Y164485D01*
X78564Y164457D01*
X78601Y164425D01*
X78651Y164383D01*
X78712Y164342D01*
X78790Y164305D01*
X78878Y164277D01*
X78929Y164273D01*
X78984Y164268D01*
X79012D01*
X79035Y164273D01*
X79086Y164282D01*
X79150Y164296D01*
X79224Y164323D01*
X79298Y164365D01*
X79335Y164388D01*
X79368Y164420D01*
X79405Y164453D01*
X79432Y164494D01*
Y164499D01*
X79437Y164504D01*
X79446Y164517D01*
X79455Y164536D01*
X79469Y164564D01*
X79479Y164591D01*
X79492Y164624D01*
X79511Y164665D01*
X79525Y164711D01*
X79539Y164762D01*
X79548Y164818D01*
X79562Y164878D01*
X79571Y164943D01*
X79580Y165012D01*
X79585Y165090D01*
Y165169D01*
Y165173D01*
Y165187D01*
Y165210D01*
Y165243D01*
X79580Y165280D01*
X79576Y165321D01*
X79566Y165423D01*
X79548Y165529D01*
X79520Y165645D01*
X79483Y165751D01*
X79460Y165797D01*
X79432Y165843D01*
Y165848D01*
X79423Y165853D01*
X79405Y165880D01*
X79368Y165917D01*
X79321Y165959D01*
X79257Y166000D01*
X79178Y166037D01*
X79090Y166065D01*
X79040Y166070D01*
X78984Y166074D01*
D02*
G37*
G36*
X105845Y187357D02*
X105772D01*
X105698Y187348D01*
X105605Y187329D01*
X105494Y187293D01*
X105374Y187246D01*
X105263Y187181D01*
X105161Y187098D01*
X105152Y187089D01*
X105124Y187052D01*
X105078Y186987D01*
X105032Y186913D01*
X104985Y186802D01*
X104939Y186682D01*
X104902Y186534D01*
X104874Y186367D01*
X106807Y186377D01*
Y186386D01*
Y186395D01*
X106798Y186460D01*
X106789Y186543D01*
X106771Y186645D01*
X106743Y186765D01*
X106696Y186885D01*
X106632Y187006D01*
X106549Y187108D01*
X106539Y187117D01*
X106502Y187144D01*
X106447Y187191D01*
X106373Y187237D01*
X106271Y187274D01*
X106151Y187320D01*
X106012Y187348D01*
X105845Y187357D01*
D02*
G37*
%LPD*%
D20*
X14709Y27500D02*
X15709D01*
X1913Y43740D02*
X16087D01*
Y21791D02*
Y43740D01*
X1913Y21791D02*
X16087D01*
X1913D02*
Y43740D01*
X2307Y27500D02*
X3307D01*
X14000Y94606D02*
Y125000D01*
X4000D02*
X14000D01*
X4000Y94606D02*
Y125000D01*
Y94606D02*
X14000D01*
X4000Y120000D02*
X4472D01*
X13626D02*
X14000D01*
D21*
X28819Y38032D02*
X31181D01*
X28819Y67500D02*
X31181D01*
X44213Y30354D02*
Y42165D01*
X40472Y30354D02*
Y42165D01*
Y30354D02*
X44213D01*
X40472Y42165D02*
X44213D01*
X45531Y46319D02*
Y48681D01*
X61319Y38032D02*
X63681D01*
X44213Y60354D02*
Y72165D01*
X40472Y60354D02*
Y72165D01*
Y60354D02*
X44213D01*
X40472Y72165D02*
X44213D01*
X45531Y76319D02*
Y78681D01*
X61319Y68032D02*
X63681D01*
X100504Y34921D02*
Y35921D01*
Y35421D01*
X97505D01*
X98005Y34921D01*
X100504Y37420D02*
X100004D01*
Y37920D01*
X100504D01*
Y37420D01*
X98005Y39920D02*
X97505Y40420D01*
Y41419D01*
X98005Y41919D01*
X98505D01*
X99004Y41419D01*
Y40919D01*
Y41419D01*
X99504Y41919D01*
X100004D01*
X100504Y41419D01*
Y40420D01*
X100004Y39920D01*
X100504Y42919D02*
X97505D01*
X98505Y43918D01*
X97505Y44918D01*
X100504D01*
Y45918D02*
X97505D01*
Y47417D01*
X98005Y47917D01*
X99004D01*
X99504Y47417D01*
Y45918D01*
X100504Y48917D02*
Y49916D01*
Y49417D01*
X98505D01*
Y48917D01*
Y51416D02*
X100504Y53415D01*
X99504Y52416D01*
X98505Y53415D01*
X100504Y51416D01*
Y55914D02*
Y54915D01*
X100004Y54415D01*
X99004D01*
X98505Y54915D01*
Y55914D01*
X99004Y56414D01*
X99504D01*
Y54415D01*
X100504Y57414D02*
Y58414D01*
Y57914D01*
X97505D01*
Y57414D01*
X98005Y64912D02*
X97505Y64412D01*
Y63412D01*
X98005Y62912D01*
X98505D01*
X99004Y63412D01*
Y64412D01*
X99504Y64912D01*
X100004D01*
X100504Y64412D01*
Y63412D01*
X100004Y62912D01*
X101504Y65911D02*
X98505D01*
Y67411D01*
X99004Y67911D01*
X100004D01*
X100504Y67411D01*
Y65911D01*
X98505Y69410D02*
Y70410D01*
X99004Y70910D01*
X100504D01*
Y69410D01*
X100004Y68910D01*
X99504Y69410D01*
Y70910D01*
X98505Y71909D02*
X100504D01*
X99504D01*
X99004Y72409D01*
X98505Y72909D01*
Y73409D01*
X100504Y74908D02*
X97505D01*
X99504D02*
X98505Y76408D01*
X99504Y74908D02*
X100504Y76408D01*
Y78407D02*
X98005D01*
X99004D01*
Y77907D01*
Y78907D01*
Y78407D01*
X98005D01*
X97505Y78907D01*
X98505Y80406D02*
X100004D01*
X100504Y80906D01*
Y82406D01*
X98505D01*
X100504Y83406D02*
X98505D01*
Y84905D01*
X99004Y85405D01*
X100504D01*
X98005Y91403D02*
X97505Y90903D01*
Y89903D01*
X98005Y89404D01*
X100004D01*
X100504Y89903D01*
Y90903D01*
X100004Y91403D01*
X98505Y92902D02*
Y93902D01*
X99004Y94402D01*
X100504D01*
Y92902D01*
X100004Y92403D01*
X99504Y92902D01*
Y94402D01*
X100504Y95402D02*
X98505D01*
Y95902D01*
X99004Y96401D01*
X100504D01*
X99004D01*
X98505Y96901D01*
X99004Y97401D01*
X100504D01*
Y99900D02*
Y98901D01*
X100004Y98401D01*
X99004D01*
X98505Y98901D01*
Y99900D01*
X99004Y100400D01*
X99504D01*
Y98401D01*
X98505Y101400D02*
X100504D01*
X99504D01*
X99004Y101900D01*
X98505Y102399D01*
Y102899D01*
Y104899D02*
Y105898D01*
X99004Y106398D01*
X100504D01*
Y104899D01*
X100004Y104399D01*
X99504Y104899D01*
Y106398D01*
X156560Y85315D02*
X159059D01*
X159559Y85815D01*
Y86814D01*
X159059Y87314D01*
X156560D01*
X159559Y88314D02*
Y89314D01*
Y88814D01*
X156560D01*
X157060Y88314D01*
X73000Y115500D02*
X70001D01*
Y116999D01*
X70501Y117499D01*
X71500D01*
X72000Y116999D01*
Y115500D01*
Y116500D02*
X73000Y117499D01*
X70001Y118499D02*
Y120498D01*
X70501D01*
X72500Y118499D01*
X73000D01*
X70001Y98000D02*
X73000D01*
Y99999D01*
X70001Y102998D02*
Y100999D01*
X73000D01*
Y102998D01*
X71500Y100999D02*
Y101999D01*
X70001Y103998D02*
X73000D01*
Y105498D01*
X72500Y105997D01*
X70501D01*
X70001Y105498D01*
Y103998D01*
X73000Y108996D02*
Y106997D01*
X71001Y108996D01*
X70501D01*
X70001Y108497D01*
Y107497D01*
X70501Y106997D01*
X34843Y79959D02*
Y77460D01*
X35342Y76960D01*
X36342D01*
X36842Y77460D01*
Y79959D01*
X37842Y79459D02*
X38341Y79959D01*
X39341D01*
X39841Y79459D01*
Y78959D01*
X39341Y78459D01*
X38841D01*
X39341D01*
X39841Y77960D01*
Y77460D01*
X39341Y76960D01*
X38341D01*
X37842Y77460D01*
X34892Y49909D02*
Y47410D01*
X35392Y46910D01*
X36392D01*
X36892Y47410D01*
Y49909D01*
X39891Y46910D02*
X37892D01*
X39891Y48909D01*
Y49409D01*
X39391Y49909D01*
X38391D01*
X37892Y49409D01*
X62000Y54000D02*
X59001D01*
Y55500D01*
X59501Y55999D01*
X60501D01*
X61000Y55500D01*
Y54000D01*
Y55000D02*
X62000Y55999D01*
X59001Y58998D02*
X59501Y57999D01*
X60501Y56999D01*
X61500D01*
X62000Y57499D01*
Y58499D01*
X61500Y58998D01*
X61000D01*
X60501Y58499D01*
Y56999D01*
X53900Y74500D02*
Y77499D01*
X55400D01*
X55899Y76999D01*
Y75999D01*
X55400Y75500D01*
X53900D01*
X54900D02*
X55899Y74500D01*
X58898Y77499D02*
X56899D01*
Y75999D01*
X57899Y76499D01*
X58399D01*
X58898Y75999D01*
Y75000D01*
X58399Y74500D01*
X57399D01*
X56899Y75000D01*
X61000Y30000D02*
X63999D01*
Y28501D01*
X63499Y28001D01*
X62499D01*
X62000Y28501D01*
Y30000D01*
Y29000D02*
X61000Y28001D01*
Y25501D02*
X63999D01*
X62499Y27001D01*
Y25002D01*
X84059Y125622D02*
Y122623D01*
X82560D01*
X82060Y123123D01*
Y124123D01*
X82560Y124622D01*
X84059D01*
X83059D02*
X82060Y125622D01*
X81060Y123123D02*
X80560Y122623D01*
X79561D01*
X79061Y123123D01*
Y123623D01*
X79561Y124123D01*
X80060D01*
X79561D01*
X79061Y124622D01*
Y125122D01*
X79561Y125622D01*
X80560D01*
X81060Y125122D01*
X84059Y136933D02*
Y133934D01*
X82560D01*
X82060Y134434D01*
Y135433D01*
X82560Y135933D01*
X84059D01*
X83059D02*
X82060Y136933D01*
X79061D02*
X81060D01*
X79061Y134934D01*
Y134434D01*
X79561Y133934D01*
X80560D01*
X81060Y134434D01*
X53900Y44500D02*
Y47499D01*
X55400D01*
X55899Y46999D01*
Y46000D01*
X55400Y45500D01*
X53900D01*
X54900D02*
X55899Y44500D01*
X56899D02*
X57899D01*
X57399D01*
Y47499D01*
X56899Y46999D01*
X44799Y84199D02*
X44300Y84699D01*
X43300D01*
X42800Y84199D01*
Y82200D01*
X43300Y81700D01*
X44300D01*
X44799Y82200D01*
X47798Y84699D02*
X46799Y84199D01*
X45799Y83200D01*
Y82200D01*
X46299Y81700D01*
X47299D01*
X47798Y82200D01*
Y82700D01*
X47299Y83200D01*
X45799D01*
X28501Y74968D02*
X28001Y74468D01*
Y73468D01*
X28501Y72969D01*
X30500D01*
X31000Y73468D01*
Y74468D01*
X30500Y74968D01*
X28001Y77967D02*
Y75968D01*
X29500D01*
X29001Y76967D01*
Y77467D01*
X29500Y77967D01*
X30500D01*
X31000Y77467D01*
Y76467D01*
X30500Y75968D01*
X63499Y76499D02*
X62999Y76999D01*
X62000D01*
X61500Y76499D01*
Y74500D01*
X62000Y74000D01*
X62999D01*
X63499Y74500D01*
X65999Y74000D02*
Y76999D01*
X64499Y75499D01*
X66498D01*
X44799Y54199D02*
X44300Y54699D01*
X43300D01*
X42800Y54199D01*
Y52200D01*
X43300Y51700D01*
X44300D01*
X44799Y52200D01*
X45799Y54199D02*
X46299Y54699D01*
X47299D01*
X47798Y54199D01*
Y53699D01*
X47299Y53199D01*
X46799D01*
X47299D01*
X47798Y52700D01*
Y52200D01*
X47299Y51700D01*
X46299D01*
X45799Y52200D01*
X28501Y46499D02*
X28001Y46000D01*
Y45000D01*
X28501Y44500D01*
X30500D01*
X31000Y45000D01*
Y46000D01*
X30500Y46499D01*
X31000Y49498D02*
Y47499D01*
X29001Y49498D01*
X28501D01*
X28001Y48999D01*
Y47999D01*
X28501Y47499D01*
X63499Y46499D02*
X62999Y46999D01*
X62000D01*
X61500Y46499D01*
Y44500D01*
X62000Y44000D01*
X62999D01*
X63499Y44500D01*
X64499Y44000D02*
X65499D01*
X64999D01*
Y46999D01*
X64499Y46499D01*
X50000Y168500D02*
Y171499D01*
X51499D01*
X51999Y170999D01*
Y170000D01*
X51499Y169500D01*
X50000D01*
X51000D02*
X51999Y168500D01*
X52999Y170999D02*
X53499Y171499D01*
X54499D01*
X54998Y170999D01*
Y170499D01*
X54499Y170000D01*
X54998Y169500D01*
Y169000D01*
X54499Y168500D01*
X53499D01*
X52999Y169000D01*
Y169500D01*
X53499Y170000D01*
X52999Y170499D01*
Y170999D01*
X53499Y170000D02*
X54499D01*
X35999Y189000D02*
X33000D01*
Y187001D01*
X35999Y184002D02*
Y186001D01*
X33000D01*
Y184002D01*
X34499Y186001D02*
Y185001D01*
X35999Y183002D02*
X33000D01*
Y181502D01*
X33500Y181003D01*
X35499D01*
X35999Y181502D01*
Y183002D01*
X33000Y180003D02*
Y179003D01*
Y179503D01*
X35999D01*
X35499Y180003D01*
X501Y12499D02*
Y11500D01*
Y11999D01*
X3000D01*
X3500Y11500D01*
Y11000D01*
X3000Y10500D01*
X501Y13499D02*
Y15498D01*
X1001D01*
X3000Y13499D01*
X3500D01*
X6099Y131099D02*
X5100D01*
X5599D01*
Y128600D01*
X5100Y128100D01*
X4600D01*
X4100Y128600D01*
X9098Y131099D02*
X8099Y130599D01*
X7099Y129599D01*
Y128600D01*
X7599Y128100D01*
X8599D01*
X9098Y128600D01*
Y129100D01*
X8599Y129599D01*
X7099D01*
X0Y10000D02*
G03*
X10000Y0I10000J0D01*
G01*
X175000Y200000D02*
G03*
X165000Y210000I-10000J0D01*
G01*
X165000Y0D02*
G03*
X175000Y10000I0J10000D01*
G01*
X10000Y210000D02*
G03*
X0Y200000I0J-10000D01*
G01*
Y10000D02*
Y200000D01*
X175000Y10000D02*
Y200000D01*
X10000Y210000D02*
X165000D01*
X10000Y0D02*
X165000D01*
D26*
X147295Y128445D02*
G03*
X147295Y128445I-492J0D01*
G01*
X37677Y43347D02*
G03*
X37677Y43347I-492J0D01*
G01*
Y73347D02*
G03*
X37677Y73347I-492J0D01*
G01*
D27*
X146567Y124685D02*
X151685D01*
Y116102D02*
Y124685D01*
Y84528D02*
Y89252D01*
X143890Y84528D02*
X151685D01*
X111528D02*
X116528D01*
X111528D02*
Y92480D01*
Y119961D02*
Y124685D01*
X119323D01*
X64213Y98110D02*
X65787D01*
D28*
X27228Y179882D02*
Y185787D01*
X30772Y179882D02*
Y185787D01*
X28409Y178307D02*
X29591D01*
M02*
