%FSLAX25Y25*%
%MOIN*%
G70*
G01*
G75*
G04 Layer_Color=8388736*
%ADD10R,0.02362X0.04724*%
%ADD11R,0.04724X0.02362*%
%ADD12R,0.02362X0.03543*%
%ADD13R,0.02559X0.02953*%
%ADD14R,0.02362X0.01969*%
%ADD15R,0.02953X0.02559*%
%ADD16R,0.04803X0.02362*%
%ADD17R,0.01969X0.02362*%
%ADD18R,0.01969X0.02756*%
%ADD19C,0.02000*%
%ADD20C,0.01000*%
%ADD21C,0.00600*%
%ADD22C,0.05906*%
%ADD23C,0.06000*%
%ADD24C,0.03000*%
%ADD25C,0.03000*%
%ADD26C,0.00984*%
%ADD27C,0.00787*%
%ADD28C,0.00394*%
%ADD29R,0.03162X0.05524*%
%ADD30R,0.05524X0.03162*%
%ADD31R,0.03162X0.04343*%
%ADD32R,0.03359X0.03753*%
%ADD33R,0.03162X0.02769*%
%ADD34R,0.03753X0.03359*%
%ADD35R,0.05603X0.03162*%
%ADD36R,0.02769X0.03162*%
%ADD37R,0.02769X0.03556*%
%ADD38C,0.06706*%
%ADD39C,0.06800*%
%ADD40C,0.03800*%
D21*
X0Y10000D02*
G03*
X10000Y0I10000J0D01*
G01*
X175000Y200000D02*
G03*
X165000Y210000I-10000J0D01*
G01*
X165000Y0D02*
G03*
X175000Y10000I0J10000D01*
G01*
X10000Y210000D02*
G03*
X0Y200000I0J-10000D01*
G01*
Y10000D02*
Y200000D01*
X175000Y10000D02*
Y200000D01*
X10000Y210000D02*
X165000D01*
X10000Y0D02*
X165000D01*
D29*
X143811Y123110D02*
D03*
X139874D02*
D03*
X135937D02*
D03*
X132000D02*
D03*
X128063D02*
D03*
X124126D02*
D03*
X119402Y86102D02*
D03*
X123339D02*
D03*
X127276D02*
D03*
X131213D02*
D03*
X135150D02*
D03*
X139087D02*
D03*
D30*
X113142Y116811D02*
D03*
Y112874D02*
D03*
Y108937D02*
D03*
Y105000D02*
D03*
Y101063D02*
D03*
Y97126D02*
D03*
X150110Y92402D02*
D03*
Y96339D02*
D03*
Y100276D02*
D03*
Y104213D02*
D03*
Y108150D02*
D03*
Y112087D02*
D03*
D31*
X65000Y101063D02*
D03*
Y108937D02*
D03*
D32*
Y120831D02*
D03*
Y116500D02*
D03*
X55000Y25669D02*
D03*
Y30000D02*
D03*
Y54669D02*
D03*
Y59000D02*
D03*
Y35669D02*
D03*
Y40000D02*
D03*
Y65669D02*
D03*
Y70000D02*
D03*
D33*
X30000Y36063D02*
D03*
Y40000D02*
D03*
Y65531D02*
D03*
Y69468D02*
D03*
X62500Y36063D02*
D03*
Y40000D02*
D03*
Y66063D02*
D03*
Y70000D02*
D03*
D34*
X84559Y140433D02*
D03*
X80228D02*
D03*
X84559Y128622D02*
D03*
X80228D02*
D03*
X41831Y170000D02*
D03*
X37500D02*
D03*
D35*
X47500Y40000D02*
D03*
Y32520D02*
D03*
X37185D02*
D03*
Y36260D02*
D03*
Y40000D02*
D03*
X47500Y70000D02*
D03*
Y62520D02*
D03*
X37185D02*
D03*
Y66260D02*
D03*
Y70000D02*
D03*
D36*
X43563Y47500D02*
D03*
X47500D02*
D03*
X43563Y77500D02*
D03*
X47500D02*
D03*
D37*
X29000Y180669D02*
D03*
Y185000D02*
D03*
D38*
X9000Y27500D02*
D03*
Y37500D02*
D03*
D39*
Y100000D02*
D03*
Y110000D02*
D03*
Y120000D02*
D03*
X165000Y10000D02*
D03*
X155000D02*
D03*
X145000D02*
D03*
X135000D02*
D03*
X125000D02*
D03*
X115000D02*
D03*
X95000Y200000D02*
D03*
X105000D02*
D03*
X115000D02*
D03*
X125000D02*
D03*
X135000D02*
D03*
X145000D02*
D03*
X155000D02*
D03*
X165000D02*
D03*
X9000D02*
D03*
X19000D02*
D03*
X29000D02*
D03*
X39000D02*
D03*
X49000D02*
D03*
X59000D02*
D03*
X69000D02*
D03*
X79000D02*
D03*
X95000Y10000D02*
D03*
X85000D02*
D03*
X75000D02*
D03*
X65000D02*
D03*
X55000D02*
D03*
X45000D02*
D03*
D40*
X124126Y116811D02*
D03*
X163496Y104213D02*
D03*
X159559Y108150D02*
D03*
X67500Y40000D02*
D03*
Y70000D02*
D03*
X87500Y67500D02*
D03*
X65000Y90000D02*
D03*
X37185Y26500D02*
D03*
X22500Y40000D02*
D03*
Y70000D02*
D03*
X37185Y56500D02*
D03*
X167433Y100276D02*
D03*
X122776Y95000D02*
D03*
X150110Y140110D02*
D03*
X123339Y77441D02*
D03*
X127276Y72504D02*
D03*
X131213Y77441D02*
D03*
X100504Y112874D02*
D03*
X167433Y92402D02*
D03*
X92630Y105000D02*
D03*
X143811Y140433D02*
D03*
X139874Y136496D02*
D03*
X135937Y140433D02*
D03*
X132000Y132559D02*
D03*
X139087Y77441D02*
D03*
X113102Y68779D02*
D03*
Y132559D02*
D03*
X72945Y128622D02*
D03*
Y140433D02*
D03*
X100504Y128622D02*
D03*
X92630Y140362D02*
D03*
M02*
