%FSLAX25Y25*%
%MOIN*%
G70*
G01*
G75*
G04 Layer_Color=16711935*
%ADD10O,0.06102X0.02165*%
%ADD11R,0.04921X0.01378*%
%ADD12O,0.07087X0.01181*%
%ADD13O,0.01181X0.07087*%
%ADD14R,0.02362X0.03937*%
%ADD15R,0.01772X0.03937*%
%ADD16R,0.07480X0.02835*%
%ADD17R,0.04921X0.07284*%
%ADD18R,0.09843X0.03543*%
%ADD19R,0.00984X0.03150*%
%ADD20R,0.07087X0.11811*%
%ADD21R,0.05118X0.09055*%
%ADD22R,0.07087X0.07480*%
%ADD23R,0.05512X0.06299*%
%ADD24R,0.05315X0.01575*%
%ADD25R,0.07874X0.04724*%
%ADD26R,0.04331X0.12598*%
%ADD27R,0.02953X0.02559*%
%ADD28R,0.02756X0.01969*%
%ADD29R,0.01969X0.02756*%
%ADD30R,0.05906X0.05118*%
%ADD31R,0.02362X0.01969*%
%ADD32R,0.02559X0.02953*%
%ADD33R,0.01969X0.02362*%
%ADD34C,0.00600*%
%ADD35C,0.01000*%
%ADD36C,0.01500*%
%ADD37C,0.02000*%
%ADD38C,0.03000*%
%ADD39C,0.06000*%
%ADD40C,0.05906*%
%ADD41C,0.03937*%
%ADD42C,0.02400*%
%ADD43C,0.04000*%
%ADD44C,0.06400*%
G04:AMPARAMS|DCode=45|XSize=80mil|YSize=80mil|CornerRadius=0mil|HoleSize=0mil|Usage=FLASHONLY|Rotation=0.000|XOffset=0mil|YOffset=0mil|HoleType=Round|Shape=Relief|Width=8mil|Gap=10mil|Entries=4|*
%AMTHD45*
7,0,0,0.08000,0.06000,0.00800,45*
%
%ADD45THD45*%
%ADD46C,0.09400*%
%ADD47C,0.14900*%
G04:AMPARAMS|DCode=48|XSize=50mil|YSize=50mil|CornerRadius=0mil|HoleSize=0mil|Usage=FLASHONLY|Rotation=0.000|XOffset=0mil|YOffset=0mil|HoleType=Round|Shape=Relief|Width=8mil|Gap=10mil|Entries=4|*
%AMTHD48*
7,0,0,0.05000,0.03000,0.00800,45*
%
%ADD48THD48*%
%ADD49C,0.03400*%
%ADD50C,0.00984*%
%ADD51C,0.02362*%
%ADD52C,0.00787*%
%ADD53C,0.00394*%
%ADD54O,0.06702X0.02765*%
%ADD55R,0.05521X0.01978*%
%ADD56O,0.07687X0.01781*%
%ADD57O,0.01781X0.07687*%
%ADD58R,0.02962X0.04537*%
%ADD59R,0.02372X0.04537*%
%ADD60R,0.08080X0.03435*%
%ADD61R,0.05521X0.07883*%
%ADD62R,0.10394X0.04095*%
%ADD63R,0.01535X0.03701*%
%ADD64R,0.07687X0.12411*%
%ADD65R,0.05718X0.09655*%
%ADD66R,0.07687X0.08080*%
%ADD67R,0.06112X0.06899*%
%ADD68R,0.05915X0.02175*%
%ADD69R,0.08474X0.05324*%
%ADD70R,0.04931X0.13198*%
%ADD71R,0.03553X0.03159*%
%ADD72R,0.03356X0.02569*%
%ADD73R,0.02569X0.03356*%
%ADD74R,0.06506X0.05718*%
%ADD75R,0.02962X0.02569*%
%ADD76R,0.03159X0.03553*%
%ADD77R,0.02569X0.02962*%
%ADD78C,0.06600*%
%ADD79C,0.06506*%
%ADD80C,0.04537*%
%ADD81C,0.00300*%
%ADD82C,0.03000*%
D34*
X800Y10400D02*
G03*
X10800Y400I10000J0D01*
G01*
Y210400D02*
G03*
X800Y200400I0J-10000D01*
G01*
X410800D02*
G03*
X400800Y210400I-10000J0D01*
G01*
Y400D02*
G03*
X410800Y10400I0J10000D01*
G01*
X800D02*
Y200400D01*
X10800Y400D02*
X400800D01*
X410800Y10400D02*
Y200400D01*
X10800Y210400D02*
X400800D01*
D78*
X130800Y10400D02*
D03*
X140800D02*
D03*
X150800D02*
D03*
X160800D02*
D03*
X170800D02*
D03*
X180800D02*
D03*
Y200400D02*
D03*
X190800D02*
D03*
X200800D02*
D03*
X210800D02*
D03*
X220800D02*
D03*
X230800D02*
D03*
X240800D02*
D03*
X250800D02*
D03*
Y10400D02*
D03*
X240800D02*
D03*
X230800D02*
D03*
X220800D02*
D03*
X210800D02*
D03*
X200800D02*
D03*
X30800Y200400D02*
D03*
X40800D02*
D03*
X50800D02*
D03*
X60800D02*
D03*
X70800D02*
D03*
X80800D02*
D03*
X31300Y169500D02*
D03*
X21300D02*
D03*
X11300D02*
D03*
X94800Y200400D02*
D03*
X104800D02*
D03*
X114800D02*
D03*
X124800D02*
D03*
X134800D02*
D03*
X144800D02*
D03*
X154800D02*
D03*
X164800D02*
D03*
D79*
X360800Y175400D02*
D03*
Y165400D02*
D03*
Y155400D02*
D03*
Y125400D02*
D03*
Y135400D02*
D03*
Y145400D02*
D03*
X370800D02*
D03*
Y135400D02*
D03*
Y125400D02*
D03*
Y155400D02*
D03*
Y165400D02*
D03*
Y175400D02*
D03*
Y85400D02*
D03*
Y75400D02*
D03*
Y65400D02*
D03*
Y35400D02*
D03*
Y45400D02*
D03*
Y55400D02*
D03*
X360800D02*
D03*
Y45400D02*
D03*
Y35400D02*
D03*
Y65400D02*
D03*
Y75400D02*
D03*
Y85400D02*
D03*
D80*
X7100Y45147D02*
D03*
X24816D02*
D03*
D81*
X400000Y10000D02*
D03*
X10000D02*
D03*
X400000Y200000D02*
D03*
X10000D02*
D03*
D82*
X253500Y175400D02*
D03*
X259000D02*
D03*
X90000Y160000D02*
D03*
X85000D02*
D03*
X94300D02*
D03*
X248900Y175400D02*
D03*
X258800Y89268D02*
D03*
Y93269D02*
D03*
X22800Y89200D02*
D03*
X146735Y147400D02*
D03*
X138800Y125400D02*
D03*
X22800Y94100D02*
D03*
X183400Y125800D02*
D03*
Y121500D02*
D03*
X231700Y167900D02*
D03*
X231800Y171400D02*
D03*
X227800D02*
D03*
Y167900D02*
D03*
X67300Y168500D02*
D03*
Y163900D02*
D03*
X78400Y156700D02*
D03*
X83200Y152200D02*
D03*
X94300Y167500D02*
D03*
X94100Y155000D02*
D03*
X97600Y177600D02*
D03*
Y172400D02*
D03*
X101200Y169800D02*
D03*
Y175000D02*
D03*
X249300Y180400D02*
D03*
X249100Y167900D02*
D03*
X260200Y183200D02*
D03*
X265000Y178700D02*
D03*
X277000Y171000D02*
D03*
Y167000D02*
D03*
X172300Y163300D02*
D03*
X109900Y87532D02*
D03*
X122300Y113000D02*
D03*
X55200Y69900D02*
D03*
X43431Y111831D02*
D03*
X225400Y102400D02*
D03*
X228500Y118500D02*
D03*
X209300Y75800D02*
D03*
X182800Y59900D02*
D03*
X217500Y110301D02*
D03*
X258800Y84300D02*
D03*
X229500Y78000D02*
D03*
X225800Y74900D02*
D03*
X269800Y98700D02*
D03*
X302791Y104023D02*
D03*
X185300Y29900D02*
D03*
X63700Y19100D02*
D03*
X74642Y27761D02*
D03*
X77300Y19100D02*
D03*
X114100Y27800D02*
D03*
X49516Y19376D02*
D03*
X76200Y40400D02*
D03*
X102700D02*
D03*
X286700Y109500D02*
D03*
X282200D02*
D03*
Y98600D02*
D03*
X312069Y148461D02*
D03*
X308751Y53498D02*
D03*
X349309Y98546D02*
D03*
X353809D02*
D03*
Y109500D02*
D03*
X349309D02*
D03*
X345221Y116621D02*
D03*
X345230Y126070D02*
D03*
X333218Y141818D02*
D03*
Y135519D02*
D03*
Y59928D02*
D03*
X40800Y93200D02*
D03*
X49300Y87500D02*
D03*
X63300Y89500D02*
D03*
X40800Y104100D02*
D03*
X40832Y108069D02*
D03*
X55600Y118600D02*
D03*
X63300Y103300D02*
D03*
X57569Y132269D02*
D03*
X26200Y140900D02*
D03*
X8770Y159639D02*
D03*
X8770Y151961D02*
D03*
X90600Y65400D02*
D03*
X88000Y128100D02*
D03*
X78811D02*
D03*
X107200Y101680D02*
D03*
Y110869D02*
D03*
X68968Y68700D02*
D03*
X78158D02*
D03*
X99100Y132400D02*
D03*
Y127900D02*
D03*
X105500Y121300D02*
D03*
X45400Y148000D02*
D03*
X61300Y145900D02*
D03*
X78100Y133800D02*
D03*
X269500Y50000D02*
D03*
X273468Y50068D02*
D03*
X284084Y78900D02*
D03*
X140700Y148600D02*
D03*
X120600Y145500D02*
D03*
X120500Y140500D02*
D03*
X358169Y23400D02*
D03*
X349832Y24763D02*
D03*
X360831Y109031D02*
D03*
X370831D02*
D03*
X171768Y36931D02*
D03*
X167776D02*
D03*
X141300Y83700D02*
D03*
X138491Y87691D02*
D03*
X196309Y149604D02*
D03*
X248685Y117848D02*
D03*
Y108659D02*
D03*
X164780Y84720D02*
D03*
X150500Y101000D02*
D03*
X151691Y94509D02*
D03*
X198325Y126120D02*
D03*
X223950Y43991D02*
D03*
X233792D02*
D03*
X246909Y67037D02*
D03*
X208115Y139209D02*
D03*
X174650D02*
D03*
X138491Y94600D02*
D03*
X140209Y101091D02*
D03*
X174694Y149800D02*
D03*
X208158D02*
D03*
X233749Y33400D02*
D03*
X164700Y118175D02*
D03*
X164851Y126200D02*
D03*
X188473D02*
D03*
X234001Y80773D02*
D03*
X258300Y56400D02*
D03*
X333461Y19039D02*
D03*
X330804Y27700D02*
D03*
X319861Y19039D02*
D03*
X267077Y14626D02*
D03*
X230800Y61857D02*
D03*
X265000Y111200D02*
D03*
X91842Y107258D02*
D03*
X91000Y102000D02*
D03*
X68800Y85400D02*
D03*
X70279Y89379D02*
D03*
X74547Y89400D02*
D03*
X164800Y69000D02*
D03*
X172725Y125925D02*
D03*
X176662Y125962D02*
D03*
X170300Y154900D02*
D03*
X193800Y124400D02*
D03*
X197100Y156700D02*
D03*
X211100Y123400D02*
D03*
X164700Y112269D02*
D03*
X104700Y155500D02*
D03*
X106900Y150500D02*
D03*
X139900Y135500D02*
D03*
X118700Y133600D02*
D03*
X219200Y159900D02*
D03*
X229000Y158100D02*
D03*
X215600Y124490D02*
D03*
X223906D02*
D03*
X358493Y94000D02*
D03*
X224863Y146268D02*
D03*
X258400Y7500D02*
D03*
X265500Y30500D02*
D03*
X269500Y27500D02*
D03*
X164700Y108332D02*
D03*
X146300Y109400D02*
D03*
X99300Y74000D02*
D03*
X164700Y104395D02*
D03*
X113900Y78900D02*
D03*
X103300Y73900D02*
D03*
X167300Y80400D02*
D03*
X164780Y76836D02*
D03*
X159800Y39700D02*
D03*
X168300Y27900D02*
D03*
X172400D02*
D03*
X189300Y29900D02*
D03*
X228855Y146268D02*
D03*
X299318Y148412D02*
D03*
X217500Y116200D02*
D03*
X238300Y140900D02*
D03*
X223906Y33400D02*
D03*
X250435Y38400D02*
D03*
X231900Y66500D02*
D03*
X187300Y62300D02*
D03*
Y67000D02*
D03*
X218500Y42500D02*
D03*
X229000Y41500D02*
D03*
X218500Y38500D02*
D03*
X214064D02*
D03*
X204200Y57400D02*
D03*
X232000Y71000D02*
D03*
X333218Y122921D02*
D03*
X333170Y119791D02*
D03*
X302791Y129220D02*
D03*
X278550D02*
D03*
X302791Y119771D02*
D03*
X278200D02*
D03*
X302791Y110322D02*
D03*
X295957Y53498D02*
D03*
X302791Y81976D02*
D03*
Y75676D02*
D03*
Y69377D02*
D03*
Y63078D02*
D03*
X333218Y110322D02*
D03*
Y88275D02*
D03*
Y81976D02*
D03*
Y78826D02*
D03*
Y75676D02*
D03*
Y72527D02*
D03*
Y69377D02*
D03*
Y66228D02*
D03*
X225900Y57400D02*
D03*
X233800Y95400D02*
D03*
X322800Y93900D02*
D03*
X304800Y90900D02*
D03*
X330200Y93900D02*
D03*
X238400Y155400D02*
D03*
X233500Y155500D02*
D03*
X288440Y135519D02*
D03*
X278550Y132369D02*
D03*
X302791D02*
D03*
X288400Y126200D02*
D03*
X278200Y122921D02*
D03*
X302791D02*
D03*
X288440Y116621D02*
D03*
X307000Y38400D02*
D03*
X70500Y175900D02*
D03*
X44535D02*
D03*
X7100Y34239D02*
D03*
X31300Y109200D02*
D03*
Y147300D02*
D03*
X258300Y67000D02*
D03*
Y61100D02*
D03*
X116758Y19139D02*
D03*
X104243Y19061D02*
D03*
X279900Y19100D02*
D03*
X290843Y27761D02*
D03*
X293500Y19100D02*
D03*
X132152Y160048D02*
D03*
X91800Y135900D02*
D03*
X188500Y57400D02*
D03*
X40800Y83900D02*
D03*
X204800Y43400D02*
D03*
X206700Y123400D02*
D03*
X97637Y68800D02*
D03*
X37500Y96700D02*
D03*
X286700Y98600D02*
D03*
X231300Y122100D02*
D03*
X54100Y19400D02*
D03*
X259300Y116300D02*
D03*
X262142Y14688D02*
D03*
X307000Y19200D02*
D03*
X202800Y123400D02*
D03*
X200284Y149604D02*
D03*
X204300Y149800D02*
D03*
X206300Y160000D02*
D03*
X213800Y159900D02*
D03*
X164700Y72899D02*
D03*
X150916Y74868D02*
D03*
X141300Y91100D02*
D03*
X168500Y101500D02*
D03*
X173000Y99500D02*
D03*
X107300Y52500D02*
D03*
Y56900D02*
D03*
X107250Y61950D02*
D03*
X191400Y41300D02*
D03*
X195800Y43400D02*
D03*
X212300Y61300D02*
D03*
X208158Y61400D02*
D03*
X200284Y43400D02*
D03*
X195800Y33500D02*
D03*
X200300Y33432D02*
D03*
X204800Y33500D02*
D03*
X176300Y27900D02*
D03*
X41300Y123900D02*
D03*
X140300Y74900D02*
D03*
X221900Y57400D02*
D03*
X212100D02*
D03*
X7100Y55400D02*
D03*
X122100Y14400D02*
D03*
X90835Y19400D02*
D03*
X86100D02*
D03*
X123100Y23400D02*
D03*
X82100Y14400D02*
D03*
X146735Y143500D02*
D03*
X151600Y139400D02*
D03*
X157765D02*
D03*
X162800D02*
D03*
X118800Y169335D02*
D03*
X130800Y180900D02*
D03*
X148500Y54500D02*
D03*
X53500Y40400D02*
D03*
X127800Y61665D02*
D03*
M02*
