%FSLAX25Y25*%
%MOIN*%
G70*
G01*
G75*
G04 Layer_Physical_Order=4*
G04 Layer_Color=16711680*
%ADD10O,0.06102X0.02165*%
%ADD11R,0.04921X0.01378*%
%ADD12O,0.07087X0.01181*%
%ADD13O,0.01181X0.07087*%
%ADD14R,0.02362X0.03937*%
%ADD15R,0.01772X0.03937*%
%ADD16R,0.07480X0.02835*%
%ADD17R,0.04921X0.07284*%
%ADD18R,0.09843X0.03543*%
%ADD19R,0.00984X0.03150*%
%ADD20R,0.07087X0.11811*%
%ADD21R,0.05118X0.09055*%
%ADD22R,0.07087X0.07480*%
%ADD23R,0.05512X0.06299*%
%ADD24R,0.05315X0.01575*%
%ADD25R,0.07874X0.04724*%
%ADD26R,0.04331X0.12598*%
%ADD27R,0.02953X0.02559*%
%ADD28R,0.02756X0.01969*%
%ADD29R,0.01969X0.02756*%
%ADD30R,0.05906X0.05118*%
%ADD31R,0.02362X0.01969*%
%ADD32R,0.02559X0.02953*%
%ADD33R,0.01969X0.02362*%
%ADD34C,0.00600*%
%ADD35C,0.01000*%
%ADD36C,0.01500*%
%ADD37C,0.02000*%
%ADD38C,0.03000*%
%ADD39C,0.06000*%
%ADD40C,0.05906*%
%ADD41C,0.03937*%
%ADD42C,0.02400*%
%ADD43C,0.04000*%
%ADD44C,0.06400*%
G04:AMPARAMS|DCode=45|XSize=80mil|YSize=80mil|CornerRadius=0mil|HoleSize=0mil|Usage=FLASHONLY|Rotation=0.000|XOffset=0mil|YOffset=0mil|HoleType=Round|Shape=Relief|Width=8mil|Gap=10mil|Entries=4|*
%AMTHD45*
7,0,0,0.08000,0.06000,0.00800,45*
%
%ADD45THD45*%
%ADD46C,0.09400*%
%ADD47C,0.14900*%
G04:AMPARAMS|DCode=48|XSize=50mil|YSize=50mil|CornerRadius=0mil|HoleSize=0mil|Usage=FLASHONLY|Rotation=0.000|XOffset=0mil|YOffset=0mil|HoleType=Round|Shape=Relief|Width=8mil|Gap=10mil|Entries=4|*
%AMTHD48*
7,0,0,0.05000,0.03000,0.00800,45*
%
%ADD48THD48*%
%ADD49C,0.03400*%
G36*
X234800Y166500D02*
X200300D01*
X186300Y152500D01*
Y119900D01*
X180300D01*
Y160900D01*
X192000Y172600D01*
X234800D01*
Y166500D01*
D02*
G37*
G36*
X86400Y162400D02*
X43600D01*
X23300Y142100D01*
Y130100D01*
X17200D01*
Y146100D01*
X41200Y170100D01*
X86400D01*
Y162400D01*
D02*
G37*
D34*
X85300Y49500D02*
X137444D01*
X76200Y40400D02*
X85300Y49500D01*
X137400Y17000D02*
X199375D01*
X130839Y10439D02*
X137400Y17000D01*
X78961Y10439D02*
X130839D01*
X46100Y43300D02*
X78961Y10439D01*
X199475Y16900D02*
X241800D01*
X199375Y17000D02*
X199475Y16900D01*
X46100Y43300D02*
Y65500D01*
X123100Y23400D02*
X134300D01*
X78000Y102000D02*
X91000D01*
X65900Y89900D02*
X78000Y102000D01*
X126700Y80400D02*
Y91700D01*
X108250Y61950D02*
X126700Y80400D01*
X107250Y61950D02*
X108250D01*
X155800Y76300D02*
Y82300D01*
X136400Y56900D02*
X155800Y76300D01*
X107300Y56900D02*
X136400D01*
X155800Y82300D02*
X173000Y99500D01*
X102000Y92900D02*
X124500D01*
X99300Y90200D02*
X102000Y92900D01*
X99300Y74000D02*
Y90200D01*
X101400Y95000D02*
X123700D01*
X91800Y85400D02*
X101400Y95000D01*
X68800Y85400D02*
X91800D01*
X99700Y97000D02*
X121900D01*
X89900Y87200D02*
X99700Y97000D01*
X76747Y87200D02*
X89900D01*
X97500Y99000D02*
X120300D01*
X87500Y89000D02*
X97500Y99000D01*
X79400Y89000D02*
X87500D01*
X124500Y92900D02*
X137900Y106300D01*
X123700Y95000D02*
X138100Y109400D01*
X243900Y46900D02*
X294200D01*
X238500Y41500D02*
X243900Y46900D01*
X229000Y41500D02*
X238500D01*
X239600Y38900D02*
X245600Y44900D01*
X225060Y38900D02*
X239600D01*
X221460Y42500D02*
X225060Y38900D01*
X223400Y37000D02*
X241500D01*
X221900Y38500D02*
X223400Y37000D01*
X218500Y38500D02*
X221900D01*
X218500Y42500D02*
X221460D01*
X245600Y44900D02*
X296600D01*
X247400Y42900D02*
X303591D01*
X241500Y37000D02*
X247400Y42900D01*
X248500Y41000D02*
X304841D01*
X243100Y35600D02*
X248500Y41000D01*
X216964Y35600D02*
X243100D01*
X265500Y26800D02*
Y30500D01*
X267600Y24700D02*
X306500D01*
X265500Y26800D02*
X267600Y24700D01*
X269500Y27500D02*
X272400Y30400D01*
X214064Y38500D02*
X216964Y35600D01*
X231900Y66500D02*
X235137D01*
X233900Y72900D02*
X272600D01*
X232000Y71000D02*
X233900Y72900D01*
X162700Y101500D02*
X168500D01*
X214201Y113600D02*
X217500Y110301D01*
X238500Y78000D02*
X261600Y101100D01*
X229500Y78000D02*
X238500D01*
X255323Y104023D02*
X302791D01*
X246700Y95400D02*
X255323Y104023D01*
X233800Y95400D02*
X246700D01*
X225400Y150900D02*
X366300D01*
X220800Y146300D02*
X225400Y150900D01*
X220800Y129690D02*
Y146300D01*
X229000Y158100D02*
X230700Y159800D01*
X233500Y155500D02*
X235500Y157500D01*
X238400Y155400D02*
X360800D01*
X55200Y69900D02*
X65900Y80600D01*
Y89900D01*
X40800Y200400D02*
X45900Y205500D01*
X341300Y15300D02*
Y28800D01*
X263500Y5400D02*
X331400D01*
X341300Y15300D01*
X327800Y7900D02*
X338400Y18500D01*
X263300Y7900D02*
X327800D01*
X320700Y10200D02*
X335100Y24600D01*
X263200Y10200D02*
X320700D01*
X318300Y12600D02*
X325700Y20000D01*
X273400Y12600D02*
X318300D01*
X275300Y14800D02*
X306600D01*
X272400Y30400D02*
X307800D01*
X193800Y153400D02*
X197100Y156700D01*
X206300Y160000D02*
X211600Y154700D01*
X216300Y162100D02*
X219000Y164800D01*
X219200Y159900D02*
X221500Y162200D01*
X243990Y124490D02*
X261700Y142200D01*
X325800D01*
X223906Y124490D02*
X243990D01*
X178000Y127300D02*
Y157600D01*
X172300Y163300D02*
X178000Y157600D01*
X76400Y92000D02*
X79400Y89000D01*
X72900Y92000D02*
X76400D01*
X70279Y89379D02*
X72900Y92000D01*
X74547Y89400D02*
X76747Y87200D01*
X214600Y91700D02*
X225350Y102450D01*
X214600Y77100D02*
Y91700D01*
X183000Y75800D02*
X209300D01*
X176400Y82400D02*
X183000Y75800D01*
X209100Y71600D02*
X214600Y77100D01*
X182500Y71600D02*
X209100D01*
X211200Y69400D02*
X217300Y75500D01*
X202700Y69400D02*
X211200D01*
X217300Y75500D02*
Y90500D01*
X200300Y67000D02*
X202700Y69400D01*
X187300Y67000D02*
X200300D01*
X217300Y90500D02*
X264800Y138000D01*
X203200Y66600D02*
X211600D01*
X198900Y62300D02*
X203200Y66600D01*
X187300Y62300D02*
X198900D01*
X204700Y64300D02*
X212500D01*
X200300Y59900D02*
X204700Y64300D01*
X182800Y59900D02*
X200300D01*
X211600Y66600D02*
X219400Y74400D01*
Y90100D01*
X232200Y102900D01*
X238900D01*
X233900Y100000D02*
X247700D01*
X222600Y88700D02*
X233900Y100000D01*
X222600Y74400D02*
Y88700D01*
X212500Y64300D02*
X222600Y74400D01*
X172500Y113600D02*
X214201D01*
X211000Y50900D02*
X262700D01*
X208200Y53700D02*
X211000Y50900D01*
X208200Y53700D02*
Y61358D01*
X208000Y48900D02*
X264100D01*
X204221Y52679D02*
X208000Y48900D01*
X204221Y52679D02*
Y57238D01*
X208158Y61400D02*
X208200Y61358D01*
X212300Y60895D02*
X214800Y58394D01*
Y55400D02*
Y58394D01*
Y55400D02*
X217300Y52900D01*
X260800D01*
X212300Y60895D02*
Y61300D01*
X271000Y74900D02*
X290000Y93900D01*
X225800Y74900D02*
X271000D01*
X272600Y72900D02*
X290600Y90900D01*
X280000Y70900D02*
X297500Y88400D01*
X239537Y70900D02*
X280000D01*
X235137Y66500D02*
X239537Y70900D01*
X281300Y69200D02*
X298300Y86200D01*
X241900Y69200D02*
X281300D01*
X234557Y61857D02*
X241900Y69200D01*
X269800Y98700D02*
X272054Y96446D01*
X345054D01*
X261600Y101100D02*
X304400D01*
X271600Y116100D02*
X275400Y112300D01*
X263800Y116100D02*
X271600D01*
X247700Y100000D02*
X263800Y116100D01*
X275400Y112300D02*
X300813D01*
X302791Y110322D01*
X277800Y114500D02*
X327879D01*
X272600Y119700D02*
X277800Y114500D01*
X255700Y119700D02*
X272600D01*
X238900Y102900D02*
X255700Y119700D01*
X264800Y138000D02*
X318000D01*
X290000Y93900D02*
X322800D01*
X290600Y90900D02*
X304800D01*
X297500Y88400D02*
X324700D01*
X298300Y86200D02*
X331143D01*
X240250Y64150D02*
X280050D01*
X281400Y58800D02*
X302200Y79600D01*
X297876Y81976D02*
X302791D01*
X280050Y64150D02*
X297876Y81976D01*
X323776D02*
X333218D01*
X321400Y79600D02*
X323776Y81976D01*
X302200Y79600D02*
X321400D01*
X242300Y58800D02*
X281400D01*
X238400Y54900D02*
X242300Y58800D01*
X284015Y56900D02*
X302791Y75676D01*
X264800Y56900D02*
X284015D01*
X260800Y52900D02*
X264800Y56900D01*
X299678Y63078D02*
X302791D01*
X289200Y52600D02*
X299678Y63078D01*
X267800Y52600D02*
X289200D01*
X288169Y54800D02*
X302768Y69400D01*
X266600Y54800D02*
X288169D01*
X262700Y50900D02*
X266600Y54800D01*
X264100Y48900D02*
X267800Y52600D01*
X241800Y16900D02*
X245500Y13200D01*
X250200Y18700D02*
X263500Y5400D01*
X170900Y18700D02*
X250200D01*
X159800Y29800D02*
X170900Y18700D01*
X250900Y20300D02*
X263300Y7900D01*
X175900Y20300D02*
X250900D01*
X168300Y27900D02*
X175900Y20300D01*
X251500Y21900D02*
X263200Y10200D01*
X178400Y21900D02*
X251500D01*
X172400Y27900D02*
X178400Y21900D01*
X252600Y23800D02*
X258800Y17600D01*
X180400Y23800D02*
X252600D01*
X176300Y27900D02*
X180400Y23800D01*
X253800Y25500D02*
X259600Y19700D01*
X189700Y25500D02*
X253800D01*
X185300Y29900D02*
X189700Y25500D01*
X191600Y27600D02*
X254700D01*
X189300Y29900D02*
X191600Y27600D01*
X250800Y29400D02*
X256800Y35400D01*
X193800Y29400D02*
X250800D01*
X191400Y31800D02*
X193800Y29400D01*
X191400Y31800D02*
Y41300D01*
X176662Y125962D02*
X176794Y126094D01*
X57200Y90900D02*
X79300Y113000D01*
X165100Y115400D02*
X176400Y104100D01*
X245500Y8100D02*
X247500Y6100D01*
X245500Y8100D02*
Y13200D01*
X258800Y17600D02*
X268400D01*
X247500Y6100D02*
X257000D01*
X258400Y7500D01*
X159800Y29800D02*
Y39700D01*
X170300Y128350D02*
X172725Y125925D01*
X170300Y128350D02*
Y154900D01*
X304400Y101100D02*
X313622Y110322D01*
X333218D01*
X324700Y88400D02*
X330200Y93900D01*
X331143Y86200D02*
X333218Y88275D01*
X230800Y61857D02*
X234557D01*
X328900Y61910D02*
X333218Y66228D01*
X304841Y41000D02*
X333218Y69377D01*
X303591Y42900D02*
X333218Y72527D01*
X296600Y44900D02*
X327376Y75676D01*
X333218D01*
X294200Y46900D02*
X326126Y78826D01*
X333218D01*
X302768Y69400D02*
X302791Y69377D01*
X166500Y123100D02*
X173400Y116200D01*
X217500D01*
X165700Y120400D02*
X172500Y113600D01*
X278550Y132369D02*
X302791D01*
X278550Y129220D02*
X302791D01*
X278200Y122921D02*
X302791D01*
X278200Y119771D02*
X302791D01*
X327879Y114500D02*
X333170Y119791D01*
X250435Y38400D02*
X307000D01*
X328900Y55700D02*
Y61910D01*
X256800Y35400D02*
X308600D01*
X328900Y55700D01*
X259600Y19700D02*
X270400D01*
X57200Y76600D02*
Y90900D01*
X46100Y65500D02*
X57200Y76600D01*
X270400Y19700D02*
X275300Y14800D01*
X268400Y17600D02*
X273400Y12600D01*
X176662Y125962D02*
X178000Y127300D01*
X139900Y135500D02*
X159500D01*
X176200Y118800D01*
X214500D01*
X345054Y96446D02*
X347500Y94000D01*
X318000Y138000D02*
X332900Y123100D01*
X214500Y118800D02*
X217800Y122100D01*
X231300D01*
X176400Y82400D02*
Y104100D01*
X215600Y124490D02*
X220800Y129690D01*
X211100Y123400D02*
X216300Y128600D01*
Y162100D01*
X206700Y123400D02*
X213800Y130500D01*
Y159700D01*
X214000Y159900D01*
X202800Y123400D02*
X211600Y132200D01*
Y154700D01*
X193800Y124400D02*
Y153400D01*
X137444Y49500D02*
X164780Y76836D01*
X135200Y52500D02*
X163100Y80400D01*
X167300D01*
X107300Y52500D02*
X135200D01*
X103300Y73900D02*
X108900D01*
X113900Y78900D01*
X118700Y133600D02*
X122000Y130300D01*
X104700Y142600D02*
Y155500D01*
X162900Y123100D02*
X166500D01*
X122000Y130300D02*
X151600D01*
X161500Y120400D01*
X165700D01*
X104700Y142600D02*
X119200Y128100D01*
X106900Y150500D02*
X125000Y132400D01*
X153600D01*
X162900Y123100D01*
X119200Y128100D02*
X150100D01*
X162800Y115400D01*
X165100D01*
X155600Y117700D02*
X161031Y112269D01*
X164700D01*
X155500Y113900D02*
X161068Y108332D01*
X164700D01*
X162795Y106300D02*
X164700Y104395D01*
X120300Y99000D02*
X139000Y117700D01*
X155600D01*
X160200Y104000D02*
X162700Y101500D01*
X121900Y97000D02*
X138800Y113900D01*
X155500D01*
X138100Y109400D02*
X146300D01*
X137900Y106300D02*
X162795D01*
X126700Y91700D02*
X139000Y104000D01*
X160200D01*
X221900Y57400D02*
X224400Y54900D01*
X238400D01*
X233500Y57400D02*
X240250Y64150D01*
X225900Y57400D02*
X233500D01*
X329000Y145400D02*
X360800D01*
X325800Y142200D02*
X329000Y145400D01*
X366300Y150900D02*
X370800Y155400D01*
X365600Y160200D02*
X370800Y165400D01*
X235500Y157500D02*
X351600D01*
X354300Y160200D01*
X365600D01*
X230700Y159800D02*
X347800D01*
X353400Y165400D01*
X360800D01*
X365700Y170300D02*
X370800Y175400D01*
X221500Y162200D02*
X344300D01*
X352400Y170300D01*
X365700D01*
X219000Y164800D02*
X340600D01*
X351200Y175400D01*
X360800D01*
X341300Y28800D02*
X353100Y40600D01*
X363900D01*
X307800Y30400D02*
X342700Y65300D01*
X366000Y80600D02*
X370800Y85400D01*
X254700Y27600D02*
X260000Y22300D01*
X307700D01*
X360800Y75400D01*
X306500Y24700D02*
X347400Y65600D01*
X359000Y70600D02*
X366000D01*
X370800Y75400D01*
X306600Y14800D02*
X315600Y23800D01*
Y27200D01*
X359000Y70600D01*
X325700Y20000D02*
Y30300D01*
X360800Y65400D01*
X342700Y65300D02*
Y80900D01*
X347200Y85400D01*
X360800D01*
X347400Y65600D02*
Y77900D01*
X350100Y80600D01*
X366000D01*
X358700Y60200D02*
X365600D01*
X370800Y65400D01*
X335100Y24600D02*
Y36600D01*
X358700Y60200D01*
X338400Y18500D02*
Y33000D01*
X360800Y55400D01*
X363900Y40600D02*
X366000Y42700D01*
Y50600D01*
X370800Y55400D01*
X347500Y94000D02*
X358493D01*
X134300Y23400D02*
X182500Y71600D01*
X164800Y59300D02*
Y69000D01*
X102700Y40400D02*
X145900D01*
X164800Y59300D01*
X60800Y200400D02*
X75300Y185900D01*
X70800Y200400D02*
X82200Y189000D01*
X118800D01*
X157765Y150035D01*
Y139400D02*
Y150035D01*
X45900Y205500D02*
X84700D01*
X87300Y202900D01*
Y197500D02*
Y202900D01*
Y197500D02*
X92500Y192300D01*
X75300Y185900D02*
X117800D01*
X151600Y152100D01*
Y139400D02*
Y152100D01*
X92500Y192300D02*
X128000D01*
X162800Y157500D01*
Y139400D02*
Y157500D01*
X79300Y113000D02*
X122300D01*
X122400D01*
X91842Y107258D02*
X119558D01*
X122300Y110000D01*
Y113000D01*
X800Y10400D02*
G03*
X10800Y400I10000J0D01*
G01*
Y210400D02*
G03*
X800Y200400I0J-10000D01*
G01*
X410800D02*
G03*
X400800Y210400I-10000J0D01*
G01*
Y400D02*
G03*
X410800Y10400I0J10000D01*
G01*
X800D02*
Y200400D01*
X10800Y400D02*
X400800D01*
X410800Y10400D02*
Y200400D01*
X10800Y210400D02*
X400800D01*
D35*
X94300Y167500D02*
X97000Y164800D01*
Y157900D02*
Y164800D01*
X94100Y155000D02*
X97000Y157900D01*
X246300Y177400D02*
X249300Y180400D01*
X246300Y170700D02*
Y177400D01*
Y170700D02*
X249100Y167900D01*
X67300Y155300D02*
Y164600D01*
Y155300D02*
X70400Y152200D01*
X83200D01*
X43431Y111831D02*
X51961Y103300D01*
X62757D01*
D36*
X47500Y4900D02*
X145300D01*
X37800Y14600D02*
X47500Y4900D01*
X37800Y14600D02*
Y50800D01*
X145300Y4900D02*
X150800Y10400D01*
X20600Y113900D02*
Y131200D01*
Y113900D02*
X27100Y107400D01*
Y61500D02*
Y107400D01*
Y61500D02*
X37800Y50800D01*
D37*
X31300Y109200D02*
Y146900D01*
D38*
X21300Y163400D02*
Y169500D01*
Y163400D02*
X30400Y154300D01*
X11300Y169500D02*
X15500Y165300D01*
Y151600D02*
Y165300D01*
X7092Y143192D02*
X15500Y151600D01*
X7092Y55400D02*
Y143192D01*
D39*
X130800Y10400D02*
D03*
X140800D02*
D03*
X150800D02*
D03*
X160800D02*
D03*
X170800D02*
D03*
X180800D02*
D03*
Y200400D02*
D03*
X190800D02*
D03*
X200800D02*
D03*
X210800D02*
D03*
X220800D02*
D03*
X230800D02*
D03*
X240800D02*
D03*
X250800D02*
D03*
Y10400D02*
D03*
X240800D02*
D03*
X230800D02*
D03*
X220800D02*
D03*
X210800D02*
D03*
X200800D02*
D03*
X30800Y200400D02*
D03*
X40800D02*
D03*
X50800D02*
D03*
X60800D02*
D03*
X70800D02*
D03*
X80800D02*
D03*
X31300Y169500D02*
D03*
X21300D02*
D03*
X11300D02*
D03*
X94800Y200400D02*
D03*
X104800D02*
D03*
X114800D02*
D03*
X124800D02*
D03*
X134800D02*
D03*
X144800D02*
D03*
X154800D02*
D03*
X164800D02*
D03*
D40*
X360800Y175400D02*
D03*
Y165400D02*
D03*
Y155400D02*
D03*
Y125400D02*
D03*
Y135400D02*
D03*
Y145400D02*
D03*
X370800D02*
D03*
Y135400D02*
D03*
Y125400D02*
D03*
Y155400D02*
D03*
Y165400D02*
D03*
Y175400D02*
D03*
Y85400D02*
D03*
Y75400D02*
D03*
Y65400D02*
D03*
Y35400D02*
D03*
Y45400D02*
D03*
Y55400D02*
D03*
X360800D02*
D03*
Y45400D02*
D03*
Y35400D02*
D03*
Y65400D02*
D03*
Y75400D02*
D03*
Y85400D02*
D03*
D41*
X7100Y45147D02*
D03*
X24816D02*
D03*
D42*
X253500Y175400D02*
D03*
X259000D02*
D03*
X90000Y160000D02*
D03*
X85000D02*
D03*
X94300D02*
D03*
X248900Y175400D02*
D03*
X258800Y89268D02*
D03*
Y93269D02*
D03*
X22800Y89200D02*
D03*
X146735Y147400D02*
D03*
X138800Y125400D02*
D03*
X22800Y94100D02*
D03*
X183400Y125800D02*
D03*
Y121500D02*
D03*
X231700Y167900D02*
D03*
X231800Y171400D02*
D03*
X227800D02*
D03*
Y167900D02*
D03*
X67300Y168500D02*
D03*
Y163900D02*
D03*
X78400Y156700D02*
D03*
X83200Y152200D02*
D03*
X94300Y167500D02*
D03*
X94100Y155000D02*
D03*
X97600Y177600D02*
D03*
Y172400D02*
D03*
X101200Y169800D02*
D03*
Y175000D02*
D03*
X249300Y180400D02*
D03*
X249100Y167900D02*
D03*
X260200Y183200D02*
D03*
X265000Y178700D02*
D03*
X277000Y171000D02*
D03*
Y167000D02*
D03*
X172300Y163300D02*
D03*
X109900Y87532D02*
D03*
X122300Y113000D02*
D03*
X55200Y69900D02*
D03*
X43431Y111831D02*
D03*
X225400Y102400D02*
D03*
X228500Y118500D02*
D03*
X209300Y75800D02*
D03*
X182800Y59900D02*
D03*
X217500Y110301D02*
D03*
X258800Y84300D02*
D03*
X229500Y78000D02*
D03*
X225800Y74900D02*
D03*
X269800Y98700D02*
D03*
X302791Y104023D02*
D03*
X185300Y29900D02*
D03*
X63700Y19100D02*
D03*
X74642Y27761D02*
D03*
X77300Y19100D02*
D03*
X114100Y27800D02*
D03*
X49516Y19376D02*
D03*
X76200Y40400D02*
D03*
X102700D02*
D03*
X286700Y109500D02*
D03*
X282200D02*
D03*
Y98600D02*
D03*
X312069Y148461D02*
D03*
X308751Y53498D02*
D03*
X349309Y98546D02*
D03*
X353809D02*
D03*
Y109500D02*
D03*
X349309D02*
D03*
X345221Y116621D02*
D03*
X345230Y126070D02*
D03*
X333218Y141818D02*
D03*
Y135519D02*
D03*
Y59928D02*
D03*
X40800Y93200D02*
D03*
X49300Y87500D02*
D03*
X63300Y89500D02*
D03*
X40800Y104100D02*
D03*
X40832Y108069D02*
D03*
X55600Y118600D02*
D03*
X63300Y103300D02*
D03*
X57569Y132269D02*
D03*
X26200Y140900D02*
D03*
X8770Y159639D02*
D03*
X8770Y151961D02*
D03*
X90600Y65400D02*
D03*
X88000Y128100D02*
D03*
X78811D02*
D03*
X107200Y101680D02*
D03*
Y110869D02*
D03*
X68968Y68700D02*
D03*
X78158D02*
D03*
X99100Y132400D02*
D03*
Y127900D02*
D03*
X105500Y121300D02*
D03*
X45400Y148000D02*
D03*
X61300Y145900D02*
D03*
X78100Y133800D02*
D03*
X269500Y50000D02*
D03*
X273468Y50068D02*
D03*
X284084Y78900D02*
D03*
X140700Y148600D02*
D03*
X120600Y145500D02*
D03*
X120500Y140500D02*
D03*
X358169Y23400D02*
D03*
X349832Y24763D02*
D03*
X360831Y109031D02*
D03*
X370831D02*
D03*
X171768Y36931D02*
D03*
X167776D02*
D03*
X141300Y83700D02*
D03*
X138491Y87691D02*
D03*
X196309Y149604D02*
D03*
X248685Y117848D02*
D03*
Y108659D02*
D03*
X164780Y84720D02*
D03*
X150500Y101000D02*
D03*
X151691Y94509D02*
D03*
X198325Y126120D02*
D03*
X223950Y43991D02*
D03*
X233792D02*
D03*
X246909Y67037D02*
D03*
X208115Y139209D02*
D03*
X174650D02*
D03*
X138491Y94600D02*
D03*
X140209Y101091D02*
D03*
X174694Y149800D02*
D03*
X208158D02*
D03*
X233749Y33400D02*
D03*
X164700Y118175D02*
D03*
X164851Y126200D02*
D03*
X188473D02*
D03*
X234001Y80773D02*
D03*
X258300Y56400D02*
D03*
X333461Y19039D02*
D03*
X330804Y27700D02*
D03*
X319861Y19039D02*
D03*
X267077Y14626D02*
D03*
X230800Y61857D02*
D03*
X265000Y111200D02*
D03*
X91842Y107258D02*
D03*
X91000Y102000D02*
D03*
X68800Y85400D02*
D03*
X70279Y89379D02*
D03*
X74547Y89400D02*
D03*
X164800Y69000D02*
D03*
X172725Y125925D02*
D03*
X176662Y125962D02*
D03*
X170300Y154900D02*
D03*
X193800Y124400D02*
D03*
X197100Y156700D02*
D03*
X211100Y123400D02*
D03*
X164700Y112269D02*
D03*
X104700Y155500D02*
D03*
X106900Y150500D02*
D03*
X139900Y135500D02*
D03*
X118700Y133600D02*
D03*
X219200Y159900D02*
D03*
X229000Y158100D02*
D03*
X215600Y124490D02*
D03*
X223906D02*
D03*
X358493Y94000D02*
D03*
X224863Y146268D02*
D03*
X258400Y7500D02*
D03*
X265500Y30500D02*
D03*
X269500Y27500D02*
D03*
X164700Y108332D02*
D03*
X146300Y109400D02*
D03*
X99300Y74000D02*
D03*
X164700Y104395D02*
D03*
X113900Y78900D02*
D03*
X103300Y73900D02*
D03*
X167300Y80400D02*
D03*
X164780Y76836D02*
D03*
X159800Y39700D02*
D03*
X168300Y27900D02*
D03*
X172400D02*
D03*
X189300Y29900D02*
D03*
X228855Y146268D02*
D03*
X299318Y148412D02*
D03*
X217500Y116200D02*
D03*
X238300Y140900D02*
D03*
X223906Y33400D02*
D03*
X250435Y38400D02*
D03*
X231900Y66500D02*
D03*
X187300Y62300D02*
D03*
Y67000D02*
D03*
X218500Y42500D02*
D03*
X229000Y41500D02*
D03*
X218500Y38500D02*
D03*
X214064D02*
D03*
X204200Y57400D02*
D03*
X232000Y71000D02*
D03*
X333218Y122921D02*
D03*
X333170Y119791D02*
D03*
X302791Y129220D02*
D03*
X278550D02*
D03*
X302791Y119771D02*
D03*
X278200D02*
D03*
X302791Y110322D02*
D03*
X295957Y53498D02*
D03*
X302791Y81976D02*
D03*
Y75676D02*
D03*
Y69377D02*
D03*
Y63078D02*
D03*
X333218Y110322D02*
D03*
Y88275D02*
D03*
Y81976D02*
D03*
Y78826D02*
D03*
Y75676D02*
D03*
Y72527D02*
D03*
Y69377D02*
D03*
Y66228D02*
D03*
X225900Y57400D02*
D03*
X233800Y95400D02*
D03*
X322800Y93900D02*
D03*
X304800Y90900D02*
D03*
X330200Y93900D02*
D03*
X238400Y155400D02*
D03*
X233500Y155500D02*
D03*
X288440Y135519D02*
D03*
X278550Y132369D02*
D03*
X302791D02*
D03*
X288400Y126200D02*
D03*
X278200Y122921D02*
D03*
X302791D02*
D03*
X288440Y116621D02*
D03*
X307000Y38400D02*
D03*
X70500Y175900D02*
D03*
X44535D02*
D03*
X7100Y34239D02*
D03*
X31300Y109200D02*
D03*
Y147300D02*
D03*
X258300Y67000D02*
D03*
Y61100D02*
D03*
X116758Y19139D02*
D03*
X104243Y19061D02*
D03*
X279900Y19100D02*
D03*
X290843Y27761D02*
D03*
X293500Y19100D02*
D03*
X132152Y160048D02*
D03*
X91800Y135900D02*
D03*
X188500Y57400D02*
D03*
X40800Y83900D02*
D03*
X204800Y43400D02*
D03*
X206700Y123400D02*
D03*
X97637Y68800D02*
D03*
X37500Y96700D02*
D03*
X286700Y98600D02*
D03*
X231300Y122100D02*
D03*
X54100Y19400D02*
D03*
X259300Y116300D02*
D03*
X262142Y14688D02*
D03*
X307000Y19200D02*
D03*
X202800Y123400D02*
D03*
X200284Y149604D02*
D03*
X204300Y149800D02*
D03*
X206300Y160000D02*
D03*
X213800Y159900D02*
D03*
X164700Y72899D02*
D03*
X150916Y74868D02*
D03*
X141300Y91100D02*
D03*
X168500Y101500D02*
D03*
X173000Y99500D02*
D03*
X107300Y52500D02*
D03*
Y56900D02*
D03*
X107250Y61950D02*
D03*
X191400Y41300D02*
D03*
X195800Y43400D02*
D03*
X212300Y61300D02*
D03*
X208158Y61400D02*
D03*
X200284Y43400D02*
D03*
X195800Y33500D02*
D03*
X200300Y33432D02*
D03*
X204800Y33500D02*
D03*
X176300Y27900D02*
D03*
X41300Y123900D02*
D03*
X140300Y74900D02*
D03*
X221900Y57400D02*
D03*
X212100D02*
D03*
X7100Y55400D02*
D03*
X122100Y14400D02*
D03*
X90835Y19400D02*
D03*
X86100D02*
D03*
X123100Y23400D02*
D03*
X82100Y14400D02*
D03*
X146735Y143500D02*
D03*
X151600Y139400D02*
D03*
X157765D02*
D03*
X162800D02*
D03*
X118800Y169335D02*
D03*
X130800Y180900D02*
D03*
X148500Y54500D02*
D03*
X53500Y40400D02*
D03*
X127800Y61665D02*
D03*
M02*
