%FSLAX25Y25*%
%MOIN*%
G70*
G01*
G75*
G04 Layer_Physical_Order=4*
G04 Layer_Color=16711680*
%ADD10R,0.02953X0.02559*%
%ADD11R,0.09843X0.03543*%
%ADD12R,0.00984X0.03150*%
%ADD13R,0.02559X0.02953*%
%ADD14R,0.04331X0.12598*%
%ADD15R,0.05906X0.05118*%
%ADD16R,0.02362X0.01969*%
%ADD17R,0.01969X0.02362*%
%ADD18R,0.01772X0.03937*%
%ADD19R,0.02362X0.03937*%
%ADD20R,0.02756X0.01969*%
%ADD21R,0.01969X0.02756*%
%ADD22R,0.07874X0.04724*%
%ADD23O,0.07087X0.01181*%
%ADD24O,0.01181X0.07087*%
%ADD25R,0.05315X0.01575*%
%ADD26R,0.05512X0.06299*%
%ADD27R,0.07087X0.07480*%
%ADD28R,0.05118X0.09055*%
%ADD29R,0.07087X0.11811*%
%ADD30R,0.04921X0.07284*%
%ADD31R,0.07480X0.02835*%
%ADD32R,0.04921X0.01378*%
%ADD33O,0.06102X0.02165*%
%ADD34C,0.00600*%
%ADD35C,0.01000*%
%ADD36C,0.02000*%
%ADD37C,0.03000*%
%ADD38C,0.01500*%
%ADD39C,0.00400*%
%ADD40C,0.00200*%
%ADD41C,0.01400*%
%ADD42C,0.06000*%
%ADD43C,0.03937*%
%ADD44C,0.05906*%
%ADD45C,0.02400*%
%ADD46C,0.04000*%
%ADD47C,0.14900*%
%ADD48C,0.06400*%
G04:AMPARAMS|DCode=49|XSize=80mil|YSize=80mil|CornerRadius=0mil|HoleSize=0mil|Usage=FLASHONLY|Rotation=0.000|XOffset=0mil|YOffset=0mil|HoleType=Round|Shape=Relief|Width=8mil|Gap=10mil|Entries=4|*
%AMTHD49*
7,0,0,0.08000,0.06000,0.00800,45*
%
%ADD49THD49*%
%ADD50C,0.09400*%
%ADD51C,0.03400*%
G04:AMPARAMS|DCode=52|XSize=50mil|YSize=50mil|CornerRadius=0mil|HoleSize=0mil|Usage=FLASHONLY|Rotation=0.000|XOffset=0mil|YOffset=0mil|HoleType=Round|Shape=Relief|Width=8mil|Gap=10mil|Entries=4|*
%AMTHD52*
7,0,0,0.05000,0.03000,0.00800,45*
%
%ADD52THD52*%
G36*
X234800Y166500D02*
X200300D01*
X186300Y152500D01*
Y119900D01*
X180300D01*
Y160900D01*
X192000Y172600D01*
X234800D01*
Y166500D01*
D02*
G37*
G36*
X86400Y162400D02*
X43600D01*
X23300Y142100D01*
Y130100D01*
X17200D01*
Y146100D01*
X41200Y170100D01*
X86400D01*
Y162400D01*
D02*
G37*
D34*
X162800Y139400D02*
Y157500D01*
X128000Y192300D02*
X162800Y157500D01*
X92500Y192300D02*
X128000D01*
X151600Y139400D02*
Y152100D01*
X117800Y185900D02*
X151600Y152100D01*
X75300Y185900D02*
X117800D01*
X87300Y197500D02*
X92500Y192300D01*
X87300Y197500D02*
Y202900D01*
X84700Y205500D02*
X87300Y202900D01*
X45900Y205500D02*
X84700D01*
X157765Y139400D02*
Y150035D01*
X118800Y189000D02*
X157765Y150035D01*
X82200Y189000D02*
X118800D01*
X70800Y200400D02*
X82200Y189000D01*
X60800Y200400D02*
X75300Y185900D01*
X145900Y40400D02*
X164800Y59300D01*
X102700Y40400D02*
X145900D01*
X164800Y59300D02*
Y69000D01*
X134300Y23400D02*
X182500Y71600D01*
X347500Y94000D02*
X358493D01*
X366000Y50600D02*
X370800Y55400D01*
X366000Y42700D02*
Y50600D01*
X363900Y40600D02*
X366000Y42700D01*
X338400Y33000D02*
X360800Y55400D01*
X338400Y18500D02*
Y33000D01*
X335100Y36600D02*
X358700Y60200D01*
X335100Y24600D02*
Y36600D01*
X365600Y60200D02*
X370800Y65400D01*
X358700Y60200D02*
X365600D01*
X350100Y80600D02*
X366000D01*
X347400Y77900D02*
X350100Y80600D01*
X347400Y65600D02*
Y77900D01*
X347200Y85400D02*
X360800D01*
X342700Y80900D02*
X347200Y85400D01*
X342700Y65300D02*
Y80900D01*
X325700Y30300D02*
X360800Y65400D01*
X325700Y20000D02*
Y30300D01*
X315600Y27200D02*
X359000Y70600D01*
X315600Y23800D02*
Y27200D01*
X306600Y14800D02*
X315600Y23800D01*
X366000Y70600D02*
X370800Y75400D01*
X359000Y70600D02*
X366000D01*
X306500Y24700D02*
X347400Y65600D01*
X307700Y22300D02*
X360800Y75400D01*
X260000Y22300D02*
X307700D01*
X254700Y27600D02*
X260000Y22300D01*
X366000Y80600D02*
X370800Y85400D01*
X307800Y30400D02*
X342700Y65300D01*
X353100Y40600D02*
X363900D01*
X341300Y28800D02*
X353100Y40600D01*
X351200Y175400D02*
X360800D01*
X340600Y164800D02*
X351200Y175400D01*
X219000Y164800D02*
X340600D01*
X352400Y170300D02*
X365700D01*
X344300Y162200D02*
X352400Y170300D01*
X221500Y162200D02*
X344300D01*
X365700Y170300D02*
X370800Y175400D01*
X353400Y165400D02*
X360800D01*
X347800Y159800D02*
X353400Y165400D01*
X230700Y159800D02*
X347800D01*
X354300Y160200D02*
X365600D01*
X351600Y157500D02*
X354300Y160200D01*
X235500Y157500D02*
X351600D01*
X365600Y160200D02*
X370800Y165400D01*
X366300Y150900D02*
X370800Y155400D01*
X325800Y142200D02*
X329000Y145400D01*
X360800D01*
X225900Y57400D02*
X233500D01*
X240250Y64150D01*
X224400Y54900D02*
X238400D01*
X221900Y57400D02*
X224400Y54900D01*
X139000Y104000D02*
X160200D01*
X126700Y91700D02*
X139000Y104000D01*
X137900Y106300D02*
X162795D01*
X138100Y109400D02*
X146300D01*
X138800Y113900D02*
X155500D01*
X121900Y97000D02*
X138800Y113900D01*
X160200Y104000D02*
X162700Y101500D01*
X139000Y117700D02*
X155600D01*
X120300Y99000D02*
X139000Y117700D01*
X98721Y103779D02*
X120221D01*
X162795Y106300D02*
X164700Y104395D01*
X161068Y108332D02*
X164700D01*
X155500Y113900D02*
X161068Y108332D01*
X161031Y112269D02*
X164700D01*
X155600Y117700D02*
X161031Y112269D01*
X162800Y115400D02*
X165100D01*
X150100Y128100D02*
X162800Y115400D01*
X119200Y128100D02*
X150100D01*
X153600Y132400D02*
X162900Y123100D01*
X125000Y132400D02*
X153600D01*
X106900Y150500D02*
X125000Y132400D01*
X104700Y142600D02*
X119200Y128100D01*
X161500Y120400D02*
X165700D01*
X151600Y130300D02*
X161500Y120400D01*
X122000Y130300D02*
X151600D01*
X162900Y123100D02*
X166500D01*
X104700Y142600D02*
Y155500D01*
X118700Y133600D02*
X122000Y130300D01*
X108900Y73900D02*
X113900Y78900D01*
X103300Y73900D02*
X108900D01*
X107300Y52500D02*
X135200D01*
X163100Y80400D02*
X167300D01*
X135200Y52500D02*
X163100Y80400D01*
X137444Y49500D02*
X164780Y76836D01*
X193800Y124400D02*
Y153400D01*
X211600Y132200D02*
Y154700D01*
X202800Y123400D02*
X211600Y132200D01*
X213800Y159700D02*
X214000Y159900D01*
X213800Y130500D02*
Y159700D01*
X206700Y123400D02*
X213800Y130500D01*
X216300Y128600D02*
Y162100D01*
X211100Y123400D02*
X216300Y128600D01*
X215600Y124490D02*
X220800Y129690D01*
X176400Y82400D02*
Y104100D01*
X217800Y122100D02*
X231300D01*
X214500Y118800D02*
X217800Y122100D01*
X318000Y138000D02*
X332900Y123100D01*
X345054Y96446D02*
X347500Y94000D01*
X176200Y118800D02*
X214500D01*
X159500Y135500D02*
X176200Y118800D01*
X139900Y135500D02*
X159500D01*
X176662Y125962D02*
X178000Y127300D01*
X268400Y17600D02*
X273400Y12600D01*
X270400Y19700D02*
X275300Y14800D01*
X46100Y65500D02*
X57200Y76600D01*
Y90900D01*
X259600Y19700D02*
X270400D01*
X308600Y35400D02*
X328900Y55700D01*
X256800Y35400D02*
X308600D01*
X328900Y55700D02*
Y61910D01*
X250435Y38400D02*
X307000D01*
X327879Y114500D02*
X333170Y119791D01*
X278200Y119771D02*
X302791D01*
X278200Y122921D02*
X302791D01*
X278550Y129220D02*
X302791D01*
X278550Y132369D02*
X302791D01*
X165700Y120400D02*
X172500Y113600D01*
X173400Y116200D02*
X217500D01*
X166500Y123100D02*
X173400Y116200D01*
X302768Y69400D02*
X302791Y69377D01*
X326126Y78826D02*
X333218D01*
X294200Y46900D02*
X326126Y78826D01*
X327376Y75676D02*
X333218D01*
X296600Y44900D02*
X327376Y75676D01*
X303591Y42900D02*
X333218Y72527D01*
X304841Y41000D02*
X333218Y69377D01*
X328900Y61910D02*
X333218Y66228D01*
X230800Y61857D02*
X234557D01*
X331143Y86200D02*
X333218Y88275D01*
X324700Y88400D02*
X330200Y93900D01*
X313622Y110322D02*
X333218D01*
X304400Y101100D02*
X313622Y110322D01*
X170300Y128350D02*
Y154900D01*
Y128350D02*
X172725Y125925D01*
X159800Y29800D02*
Y39700D01*
X257000Y6100D02*
X258400Y7500D01*
X247500Y6100D02*
X257000D01*
X258800Y17600D02*
X268400D01*
X245500Y8100D02*
Y13200D01*
Y8100D02*
X247500Y6100D01*
X165100Y115400D02*
X176400Y104100D01*
X57200Y90900D02*
X79300Y113000D01*
X122400D01*
X91842Y107258D02*
X118800D01*
X176662Y125962D02*
X176794Y126094D01*
X49300Y79000D02*
Y87500D01*
X191400Y31800D02*
Y41300D01*
Y31800D02*
X193800Y29400D01*
X250800D01*
X256800Y35400D01*
X189300Y29900D02*
X191600Y27600D01*
X254700D01*
X185300Y29900D02*
X189700Y25500D01*
X253800D01*
X259600Y19700D01*
X176300Y27900D02*
X180400Y23800D01*
X252600D01*
X258800Y17600D01*
X172400Y27900D02*
X178400Y21900D01*
X251500D01*
X263200Y10200D01*
X168300Y27900D02*
X175900Y20300D01*
X250900D01*
X263300Y7900D01*
X159800Y29800D02*
X170900Y18700D01*
X250200D01*
X263500Y5400D01*
X241800Y16900D02*
X245500Y13200D01*
X264100Y48900D02*
X267800Y52600D01*
X262700Y50900D02*
X266600Y54800D01*
X288169D01*
X302768Y69400D01*
X267800Y52600D02*
X289200D01*
X299678Y63078D01*
X302791D01*
X260800Y52900D02*
X264800Y56900D01*
X284015D01*
X302791Y75676D01*
X238400Y54900D02*
X242300Y58800D01*
X281400D01*
X302200Y79600D02*
X321400D01*
X323776Y81976D01*
X333218D01*
X280050Y64150D02*
X297876Y81976D01*
X302791D01*
X281400Y58800D02*
X302200Y79600D01*
X240250Y64150D02*
X280050D01*
X298300Y86200D02*
X331143D01*
X297500Y88400D02*
X324700D01*
X290600Y90900D02*
X304800D01*
X290000Y93900D02*
X322800D01*
X264800Y138000D02*
X318000D01*
X238900Y102900D02*
X255700Y119700D01*
X272600D01*
X277800Y114500D01*
X327879D01*
X300813Y112300D02*
X302791Y110322D01*
X275400Y112300D02*
X300813D01*
X247700Y100000D02*
X263800Y116100D01*
X271600D01*
X275400Y112300D01*
X261600Y101100D02*
X304400D01*
X272054Y96446D02*
X345054D01*
X269800Y98700D02*
X272054Y96446D01*
X234557Y61857D02*
X241900Y69200D01*
X281300D01*
X298300Y86200D01*
X235137Y66500D02*
X239537Y70900D01*
X280000D01*
X297500Y88400D01*
X272600Y72900D02*
X290600Y90900D01*
X225800Y74900D02*
X271000D01*
X290000Y93900D01*
X212300Y60895D02*
Y61300D01*
X217300Y52900D02*
X260800D01*
X214800Y55400D02*
X217300Y52900D01*
X214800Y55400D02*
Y58394D01*
X212300Y60895D02*
X214800Y58394D01*
X208158Y61400D02*
X208200Y61358D01*
X204221Y52679D02*
Y57238D01*
Y52679D02*
X208000Y48900D01*
X264100D01*
X208200Y53700D02*
Y61358D01*
Y53700D02*
X211000Y50900D01*
X262700D01*
X172500Y113600D02*
X214201D01*
X212500Y64300D02*
X222600Y74400D01*
Y88700D01*
X233900Y100000D01*
X247700D01*
X232200Y102900D02*
X238900D01*
X219400Y90100D02*
X232200Y102900D01*
X219400Y74400D02*
Y90100D01*
X211600Y66600D02*
X219400Y74400D01*
X182800Y59900D02*
X200300D01*
X204700Y64300D01*
X212500D01*
X187300Y62300D02*
X198900D01*
X203200Y66600D01*
X211600D01*
X217300Y90500D02*
X264800Y138000D01*
X187300Y67000D02*
X200300D01*
X202700Y69400D01*
X217300Y75500D02*
Y90500D01*
X202700Y69400D02*
X211200D01*
X217300Y75500D01*
X182500Y71600D02*
X209100D01*
X214600Y77100D01*
X176400Y82400D02*
X183000Y75800D01*
X209300D01*
X214600Y77100D02*
Y91700D01*
X225350Y102450D01*
X86942Y92000D02*
X98721Y103779D01*
X74547Y89400D02*
X76747Y87200D01*
X70279Y89379D02*
X72900Y92000D01*
X76400D01*
X79400Y89000D01*
X84300Y92000D02*
X86942D01*
X172300Y163300D02*
X178000Y157600D01*
Y127300D02*
Y157600D01*
X223906Y124490D02*
X243990D01*
X261700Y142200D02*
X325800D01*
X243990Y124490D02*
X261700Y142200D01*
X219200Y159900D02*
X221500Y162200D01*
X216300Y162100D02*
X219000Y164800D01*
X206300Y160000D02*
X211600Y154700D01*
X193800Y153400D02*
X197100Y156700D01*
X272400Y30400D02*
X307800D01*
X275300Y14800D02*
X306600D01*
X273400Y12600D02*
X318300D01*
X325700Y20000D01*
X263200Y10200D02*
X320700D01*
X335100Y24600D01*
X263300Y7900D02*
X327800D01*
X338400Y18500D01*
X331400Y5400D02*
X341300Y15300D01*
X263500Y5400D02*
X331400D01*
X341300Y15300D02*
Y28800D01*
X40800Y200400D02*
X45900Y205500D01*
X65900Y80600D02*
Y89900D01*
X55200Y69900D02*
X65900Y80600D01*
X238400Y155400D02*
X360800D01*
X233500Y155500D02*
X235500Y157500D01*
X229000Y158100D02*
X230700Y159800D01*
X220800Y129690D02*
Y146300D01*
X225400Y150900D01*
X366300D01*
X233800Y95400D02*
X246700D01*
X255323Y104023D01*
X302791D01*
X229500Y78000D02*
X238500D01*
X261600Y101100D01*
X214201Y113600D02*
X217500Y110301D01*
X162700Y101500D02*
X168500D01*
X232000Y71000D02*
X233900Y72900D01*
X272600D01*
X231900Y66500D02*
X235137D01*
X214064Y38500D02*
X216964Y35600D01*
X269500Y27500D02*
X272400Y30400D01*
X265500Y26800D02*
X267600Y24700D01*
X306500D01*
X265500Y26800D02*
Y30500D01*
X216964Y35600D02*
X243100D01*
X248500Y41000D01*
X304841D01*
X241500Y37000D02*
X247400Y42900D01*
X303591D01*
X245600Y44900D02*
X296600D01*
X218500Y42500D02*
X221460D01*
X218500Y38500D02*
X221900D01*
X223400Y37000D01*
X241500D01*
X221460Y42500D02*
X225060Y38900D01*
X239600D01*
X245600Y44900D01*
X229000Y41500D02*
X238500D01*
X243900Y46900D01*
X294200D01*
X120221Y103779D02*
X123700Y107258D01*
Y95000D02*
X138100Y109400D01*
X124500Y92900D02*
X137900Y106300D01*
X79400Y89000D02*
X87500D01*
X97500Y99000D01*
X120300D01*
X76747Y87200D02*
X89900D01*
X99700Y97000D01*
X121900D01*
X68800Y85400D02*
X91800D01*
X101400Y95000D01*
X123700D01*
X99300Y74000D02*
Y90200D01*
X102000Y92900D01*
X124500D01*
X155800Y82300D02*
X173000Y99500D01*
X107300Y56900D02*
X136400D01*
X155800Y76300D01*
Y82300D01*
X107250Y61950D02*
X108250D01*
X126700Y80400D01*
Y91700D01*
X65900Y89900D02*
X78000Y102000D01*
X91000D01*
X123100Y23400D02*
X134300D01*
X46100Y43300D02*
Y65500D01*
X199375Y17000D02*
X199475Y16900D01*
X241800D01*
X46100Y43300D02*
X78961Y10439D01*
X130839D01*
X137400Y17000D01*
X199375D01*
X76200Y40400D02*
X85300Y49500D01*
X137444D01*
X400800Y400D02*
G03*
X410800Y10400I0J10000D01*
G01*
Y200400D02*
G03*
X400800Y210400I-10000J0D01*
G01*
X10800D02*
G03*
X800Y200400I0J-10000D01*
G01*
Y10400D02*
G03*
X10800Y400I10000J0D01*
G01*
X-270000Y320000D02*
G03*
X-270000Y320000I-30000J0D01*
G01*
X-280000D02*
G03*
X-280000Y320000I-20000J0D01*
G01*
X-290000D02*
G03*
X-290000Y320000I-10000J0D01*
G01*
X630000D02*
G03*
X630000Y320000I-30000J0D01*
G01*
X620000D02*
G03*
X620000Y320000I-20000J0D01*
G01*
X610000D02*
G03*
X610000Y320000I-10000J0D01*
G01*
X630000Y-160000D02*
G03*
X630000Y-160000I-30000J0D01*
G01*
X620000D02*
G03*
X620000Y-160000I-20000J0D01*
G01*
X610000D02*
G03*
X610000Y-160000I-10000J0D01*
G01*
X10800Y210400D02*
X400800D01*
X410800Y10400D02*
Y200400D01*
X10800Y400D02*
X400800D01*
X800Y10400D02*
Y200400D01*
D35*
X51961Y103300D02*
X62757D01*
X43431Y111831D02*
X51961Y103300D01*
X70400Y152200D02*
X83200D01*
X67300Y155300D02*
X70400Y152200D01*
X67300Y155300D02*
Y164600D01*
X246300Y170700D02*
X249100Y167900D01*
X246300Y170700D02*
Y177400D01*
X249300Y180400D01*
X94100Y155000D02*
X97000Y157900D01*
Y164800D01*
X94300Y167500D02*
X97000Y164800D01*
X-38940Y-407615D02*
X-39226Y-407043D01*
X-39797Y-406472D01*
X-40369Y-406186D01*
X-41511D01*
X-42083Y-406472D01*
X-42654Y-407043D01*
X-42940Y-407615D01*
X-43225Y-408472D01*
Y-409900D01*
X-42940Y-410757D01*
X-42654Y-411328D01*
X-42083Y-411900D01*
X-41511Y-412185D01*
X-40369D01*
X-39797Y-411900D01*
X-39226Y-411328D01*
X-38940Y-410757D01*
Y-409900D01*
X-40369D02*
X-38940D01*
X-37569Y-406186D02*
Y-412185D01*
Y-406186D02*
X-34998D01*
X-34141Y-406472D01*
X-33856Y-406758D01*
X-33570Y-407329D01*
Y-407900D01*
X-33856Y-408472D01*
X-34141Y-408757D01*
X-34998Y-409043D01*
X-37569D02*
X-34998D01*
X-34141Y-409329D01*
X-33856Y-409614D01*
X-33570Y-410186D01*
Y-411043D01*
X-33856Y-411614D01*
X-34141Y-411900D01*
X-34998Y-412185D01*
X-37569D01*
X-32228Y-406186D02*
Y-412185D01*
X-28800D01*
X-23429Y-409614D02*
X-18288D01*
X-11803Y-406186D02*
Y-412185D01*
Y-406186D02*
X-9233D01*
X-8376Y-406472D01*
X-8090Y-406758D01*
X-7804Y-407329D01*
Y-407900D01*
X-8090Y-408472D01*
X-8376Y-408757D01*
X-9233Y-409043D01*
X-11803D02*
X-9233D01*
X-8376Y-409329D01*
X-8090Y-409614D01*
X-7804Y-410186D01*
Y-411043D01*
X-8090Y-411614D01*
X-8376Y-411900D01*
X-9233Y-412185D01*
X-11803D01*
X-4748Y-406186D02*
X-5319Y-406472D01*
X-5890Y-407043D01*
X-6176Y-407615D01*
X-6462Y-408472D01*
Y-409900D01*
X-6176Y-410757D01*
X-5890Y-411328D01*
X-5319Y-411900D01*
X-4748Y-412185D01*
X-3605D01*
X-3034Y-411900D01*
X-2462Y-411328D01*
X-2177Y-410757D01*
X-1891Y-409900D01*
Y-408472D01*
X-2177Y-407615D01*
X-2462Y-407043D01*
X-3034Y-406472D01*
X-3605Y-406186D01*
X-4748D01*
X1508D02*
Y-412185D01*
X-491Y-406186D02*
X3508D01*
X6221D02*
Y-412185D01*
X4222Y-406186D02*
X8221D01*
X10649D02*
X10078Y-406472D01*
X9506Y-407043D01*
X9221Y-407615D01*
X8935Y-408472D01*
Y-409900D01*
X9221Y-410757D01*
X9506Y-411328D01*
X10078Y-411900D01*
X10649Y-412185D01*
X11792D01*
X12363Y-411900D01*
X12934Y-411328D01*
X13220Y-410757D01*
X13506Y-409900D01*
Y-408472D01*
X13220Y-407615D01*
X12934Y-407043D01*
X12363Y-406472D01*
X11792Y-406186D01*
X10649D01*
X14905D02*
Y-412185D01*
Y-406186D02*
X17190Y-412185D01*
X19476Y-406186D02*
X17190Y-412185D01*
X19476Y-406186D02*
Y-412185D01*
X25903Y-406186D02*
Y-412185D01*
X29331D01*
X34558D02*
X32273Y-406186D01*
X29988Y-412185D01*
X30845Y-410186D02*
X33701D01*
X35958Y-406186D02*
X38243Y-409043D01*
Y-412185D01*
X40528Y-406186D02*
X38243Y-409043D01*
X45013Y-406186D02*
X41300D01*
Y-412185D01*
X45013D01*
X41300Y-409043D02*
X43585D01*
X46013Y-406186D02*
Y-412185D01*
Y-406186D02*
X48584D01*
X49441Y-406472D01*
X49726Y-406758D01*
X50012Y-407329D01*
Y-407900D01*
X49726Y-408472D01*
X49441Y-408757D01*
X48584Y-409043D01*
X46013D01*
X48012D02*
X50012Y-412185D01*
X255214Y-310501D02*
X254357Y-310787D01*
X253786Y-311644D01*
X253500Y-313072D01*
Y-313929D01*
X253786Y-315357D01*
X254357Y-316214D01*
X255214Y-316500D01*
X255785D01*
X256642Y-316214D01*
X257213Y-315357D01*
X257499Y-313929D01*
Y-313072D01*
X257213Y-311644D01*
X256642Y-310787D01*
X255785Y-310501D01*
X255214D01*
X259127Y-311930D02*
Y-311644D01*
X259413Y-311073D01*
X259699Y-310787D01*
X260270Y-310501D01*
X261413D01*
X261984Y-310787D01*
X262269Y-311073D01*
X262555Y-311644D01*
Y-312215D01*
X262269Y-312787D01*
X261698Y-313644D01*
X258842Y-316500D01*
X262841D01*
X268897Y-313644D02*
X271468D01*
X272324Y-313358D01*
X272610Y-313072D01*
X272896Y-312501D01*
Y-311644D01*
X272610Y-311073D01*
X272324Y-310787D01*
X271468Y-310501D01*
X268897D01*
Y-316500D01*
X278523Y-311930D02*
X278238Y-311358D01*
X277666Y-310787D01*
X277095Y-310501D01*
X275952D01*
X275381Y-310787D01*
X274810Y-311358D01*
X274524Y-311930D01*
X274238Y-312787D01*
Y-314215D01*
X274524Y-315072D01*
X274810Y-315643D01*
X275381Y-316214D01*
X275952Y-316500D01*
X277095D01*
X277666Y-316214D01*
X278238Y-315643D01*
X278523Y-315072D01*
X280209Y-310501D02*
Y-316500D01*
Y-310501D02*
X282779D01*
X283636Y-310787D01*
X283922Y-311073D01*
X284208Y-311644D01*
Y-312215D01*
X283922Y-312787D01*
X283636Y-313072D01*
X282779Y-313358D01*
X280209D02*
X282779D01*
X283636Y-313644D01*
X283922Y-313929D01*
X284208Y-314500D01*
Y-315357D01*
X283922Y-315929D01*
X283636Y-316214D01*
X282779Y-316500D01*
X280209D01*
X290264Y-310501D02*
Y-316500D01*
Y-310501D02*
X292834D01*
X293691Y-310787D01*
X293977Y-311073D01*
X294263Y-311644D01*
Y-312215D01*
X293977Y-312787D01*
X293691Y-313072D01*
X292834Y-313358D01*
X290264D02*
X292834D01*
X293691Y-313644D01*
X293977Y-313929D01*
X294263Y-314500D01*
Y-315357D01*
X293977Y-315929D01*
X293691Y-316214D01*
X292834Y-316500D01*
X290264D01*
X297034Y-312501D02*
X296462Y-312787D01*
X295891Y-313358D01*
X295605Y-314215D01*
Y-314786D01*
X295891Y-315643D01*
X296462Y-316214D01*
X297034Y-316500D01*
X297890D01*
X298462Y-316214D01*
X299033Y-315643D01*
X299319Y-314786D01*
Y-314215D01*
X299033Y-313358D01*
X298462Y-312787D01*
X297890Y-312501D01*
X297034D01*
X300633D02*
Y-315357D01*
X300918Y-316214D01*
X301490Y-316500D01*
X302347D01*
X302918Y-316214D01*
X303775Y-315357D01*
Y-312501D02*
Y-316500D01*
X305346Y-312501D02*
Y-316500D01*
Y-313644D02*
X306203Y-312787D01*
X306774Y-312501D01*
X307631D01*
X308203Y-312787D01*
X308488Y-313644D01*
Y-316500D01*
X313487Y-310501D02*
Y-316500D01*
Y-313358D02*
X312916Y-312787D01*
X312345Y-312501D01*
X311488D01*
X310916Y-312787D01*
X310345Y-313358D01*
X310059Y-314215D01*
Y-314786D01*
X310345Y-315643D01*
X310916Y-316214D01*
X311488Y-316500D01*
X312345D01*
X312916Y-316214D01*
X313487Y-315643D01*
X318515Y-312501D02*
Y-316500D01*
Y-313358D02*
X317943Y-312787D01*
X317372Y-312501D01*
X316515D01*
X315944Y-312787D01*
X315372Y-313358D01*
X315087Y-314215D01*
Y-314786D01*
X315372Y-315643D01*
X315944Y-316214D01*
X316515Y-316500D01*
X317372D01*
X317943Y-316214D01*
X318515Y-315643D01*
X320114Y-312501D02*
Y-316500D01*
Y-314215D02*
X320400Y-313358D01*
X320971Y-312787D01*
X321543Y-312501D01*
X322399D01*
X323228D02*
X324942Y-316500D01*
X326656Y-312501D02*
X324942Y-316500D01*
X324371Y-317643D01*
X323799Y-318214D01*
X323228Y-318500D01*
X322942D01*
X253500Y-451644D02*
X254071Y-451358D01*
X254928Y-450501D01*
Y-456500D01*
X261327Y-451358D02*
X261041Y-450787D01*
X260184Y-450501D01*
X259613D01*
X258756Y-450787D01*
X258185Y-451644D01*
X257899Y-453072D01*
Y-454500D01*
X258185Y-455643D01*
X258756Y-456214D01*
X259613Y-456500D01*
X259899D01*
X260756Y-456214D01*
X261327Y-455643D01*
X261613Y-454786D01*
Y-454500D01*
X261327Y-453644D01*
X260756Y-453072D01*
X259899Y-452786D01*
X259613D01*
X258756Y-453072D01*
X258185Y-453644D01*
X257899Y-454500D01*
X271639Y-451358D02*
X271068Y-450787D01*
X270211Y-450501D01*
X269068D01*
X268211Y-450787D01*
X267640Y-451358D01*
Y-451930D01*
X267926Y-452501D01*
X268211Y-452786D01*
X268782Y-453072D01*
X270496Y-453644D01*
X271068Y-453929D01*
X271353Y-454215D01*
X271639Y-454786D01*
Y-455643D01*
X271068Y-456214D01*
X270211Y-456500D01*
X269068D01*
X268211Y-456214D01*
X267640Y-455643D01*
X272982Y-450501D02*
Y-456500D01*
Y-453644D02*
X273838Y-452786D01*
X274410Y-452501D01*
X275267D01*
X275838Y-452786D01*
X276124Y-453644D01*
Y-456500D01*
X277695Y-454215D02*
X281123D01*
Y-453644D01*
X280837Y-453072D01*
X280551Y-452786D01*
X279980Y-452501D01*
X279123D01*
X278552Y-452786D01*
X277980Y-453358D01*
X277695Y-454215D01*
Y-454786D01*
X277980Y-455643D01*
X278552Y-456214D01*
X279123Y-456500D01*
X279980D01*
X280551Y-456214D01*
X281123Y-455643D01*
X282408Y-454215D02*
X285836D01*
Y-453644D01*
X285550Y-453072D01*
X285265Y-452786D01*
X284693Y-452501D01*
X283836D01*
X283265Y-452786D01*
X282694Y-453358D01*
X282408Y-454215D01*
Y-454786D01*
X282694Y-455643D01*
X283265Y-456214D01*
X283836Y-456500D01*
X284693D01*
X285265Y-456214D01*
X285836Y-455643D01*
X287978Y-450501D02*
Y-455357D01*
X288264Y-456214D01*
X288835Y-456500D01*
X289407D01*
X287121Y-452501D02*
X289121D01*
X880091Y-480724D02*
X880947Y-480295D01*
X882233Y-479010D01*
Y-488008D01*
X826500Y-444503D02*
Y-453500D01*
X830999D01*
X832498Y-452001D01*
Y-446002D01*
X830999Y-444503D01*
X826500D01*
X833142Y-481708D02*
X833999Y-481280D01*
X835284Y-479994D01*
Y-488992D01*
X-530500Y461284D02*
X-529643Y461713D01*
X-528358Y462998D01*
Y454000D01*
X924500Y357998D02*
Y349000D01*
Y357998D02*
X927499D01*
X928785Y357570D01*
X929642Y356713D01*
X930070Y355856D01*
X930499Y354570D01*
Y352428D01*
X930070Y351142D01*
X929642Y350285D01*
X928785Y349429D01*
X927499Y349000D01*
X924500D01*
X529549Y-387581D02*
X529121Y-386724D01*
X528264Y-385867D01*
X527407Y-385439D01*
X525693D01*
X524836Y-385867D01*
X523979Y-386724D01*
X523551Y-387581D01*
X523122Y-388867D01*
Y-391009D01*
X523551Y-392295D01*
X523979Y-393152D01*
X524836Y-394008D01*
X525693Y-394437D01*
X527407D01*
X528264Y-394008D01*
X529121Y-393152D01*
X529549Y-392295D01*
X534220Y-388438D02*
X533363Y-388867D01*
X532506Y-389724D01*
X532077Y-391009D01*
Y-391866D01*
X532506Y-393152D01*
X533363Y-394008D01*
X534220Y-394437D01*
X535505D01*
X536362Y-394008D01*
X537219Y-393152D01*
X537647Y-391866D01*
Y-391009D01*
X537219Y-389724D01*
X536362Y-388867D01*
X535505Y-388438D01*
X534220D01*
X544332Y-389724D02*
X543903Y-388867D01*
X542618Y-388438D01*
X541332D01*
X540047Y-388867D01*
X539618Y-389724D01*
X540047Y-390581D01*
X540904Y-391009D01*
X543046Y-391438D01*
X543903Y-391866D01*
X544332Y-392723D01*
Y-393152D01*
X543903Y-394008D01*
X542618Y-394437D01*
X541332D01*
X540047Y-394008D01*
X539618Y-393152D01*
X546217Y-388438D02*
Y-397436D01*
Y-389724D02*
X547074Y-388867D01*
X547931Y-388438D01*
X549217D01*
X550073Y-388867D01*
X550930Y-389724D01*
X551359Y-391009D01*
Y-391866D01*
X550930Y-393152D01*
X550073Y-394008D01*
X549217Y-394437D01*
X547931D01*
X547074Y-394008D01*
X546217Y-393152D01*
X558429Y-388438D02*
Y-394437D01*
Y-389724D02*
X557572Y-388867D01*
X556715Y-388438D01*
X555429D01*
X554572Y-388867D01*
X553716Y-389724D01*
X553287Y-391009D01*
Y-391866D01*
X553716Y-393152D01*
X554572Y-394008D01*
X555429Y-394437D01*
X556715D01*
X557572Y-394008D01*
X558429Y-393152D01*
X560828Y-388438D02*
Y-394437D01*
Y-390152D02*
X562114Y-388867D01*
X562971Y-388438D01*
X564256D01*
X565113Y-388867D01*
X565542Y-390152D01*
Y-394437D01*
X574968Y-385439D02*
Y-394437D01*
Y-385439D02*
X577967D01*
X579253Y-385867D01*
X580110Y-386724D01*
X580538Y-387581D01*
X580967Y-388867D01*
Y-391009D01*
X580538Y-392295D01*
X580110Y-393152D01*
X579253Y-394008D01*
X577967Y-394437D01*
X574968D01*
X582981Y-391009D02*
X588122D01*
Y-390152D01*
X587694Y-389295D01*
X587265Y-388867D01*
X586409Y-388438D01*
X585123D01*
X584266Y-388867D01*
X583409Y-389724D01*
X582981Y-391009D01*
Y-391866D01*
X583409Y-393152D01*
X584266Y-394008D01*
X585123Y-394437D01*
X586409D01*
X587265Y-394008D01*
X588122Y-393152D01*
X594764Y-389724D02*
X594335Y-388867D01*
X593050Y-388438D01*
X591764D01*
X590479Y-388867D01*
X590051Y-389724D01*
X590479Y-390581D01*
X591336Y-391009D01*
X593478Y-391438D01*
X594335Y-391866D01*
X594764Y-392723D01*
Y-393152D01*
X594335Y-394008D01*
X593050Y-394437D01*
X591764D01*
X590479Y-394008D01*
X590051Y-393152D01*
X597506Y-385439D02*
X597935Y-385867D01*
X598363Y-385439D01*
X597935Y-385011D01*
X597506Y-385439D01*
X597935Y-388438D02*
Y-394437D01*
X605090Y-388438D02*
Y-395294D01*
X604662Y-396579D01*
X604233Y-397008D01*
X603376Y-397436D01*
X602091D01*
X601234Y-397008D01*
X605090Y-389724D02*
X604233Y-388867D01*
X603376Y-388438D01*
X602091D01*
X601234Y-388867D01*
X600377Y-389724D01*
X599948Y-391009D01*
Y-391866D01*
X600377Y-393152D01*
X601234Y-394008D01*
X602091Y-394437D01*
X603376D01*
X604233Y-394008D01*
X605090Y-393152D01*
X607490Y-388438D02*
Y-394437D01*
Y-390152D02*
X608775Y-388867D01*
X609632Y-388438D01*
X610918D01*
X611774Y-388867D01*
X612203Y-390152D01*
Y-394437D01*
X931356Y-401000D02*
X927928Y-392002D01*
X924500Y-401000D01*
X925785Y-398001D02*
X930070D01*
X-262572Y460856D02*
Y461284D01*
X-262143Y462141D01*
X-261715Y462570D01*
X-260858Y462998D01*
X-259144D01*
X-258287Y462570D01*
X-257858Y462141D01*
X-257430Y461284D01*
Y460427D01*
X-257858Y459570D01*
X-258715Y458285D01*
X-263000Y454000D01*
X-257001D01*
X7857Y462998D02*
X12570D01*
X9999Y459570D01*
X11285D01*
X12142Y459142D01*
X12570Y458713D01*
X12999Y457428D01*
Y456571D01*
X12570Y455285D01*
X11713Y454428D01*
X10428Y454000D01*
X9142D01*
X7857Y454428D01*
X7429Y454857D01*
X7000Y455714D01*
X276285Y462998D02*
X272000Y456999D01*
X278427D01*
X276285Y462998D02*
Y454000D01*
X545142Y462998D02*
X540857D01*
X540428Y459142D01*
X540857Y459570D01*
X542142Y459999D01*
X543428D01*
X544713Y459570D01*
X545570Y458713D01*
X545999Y457428D01*
Y456571D01*
X545570Y455285D01*
X544713Y454428D01*
X543428Y454000D01*
X542142D01*
X540857Y454428D01*
X540428Y454857D01*
X540000Y455714D01*
X-530500Y-508716D02*
X-529643Y-508287D01*
X-528358Y-507002D01*
Y-516000D01*
X-262572Y-509144D02*
Y-508716D01*
X-262143Y-507859D01*
X-261715Y-507430D01*
X-260858Y-507002D01*
X-259144D01*
X-258287Y-507430D01*
X-257858Y-507859D01*
X-257430Y-508716D01*
Y-509573D01*
X-257858Y-510430D01*
X-258715Y-511715D01*
X-263000Y-516000D01*
X-257001D01*
X7857Y-507002D02*
X12570D01*
X9999Y-510430D01*
X11285D01*
X12142Y-510858D01*
X12570Y-511287D01*
X12999Y-512572D01*
Y-513429D01*
X12570Y-514715D01*
X11713Y-515571D01*
X10428Y-516000D01*
X9142D01*
X7857Y-515571D01*
X7429Y-515143D01*
X7000Y-514286D01*
X276285Y-507002D02*
X272000Y-513001D01*
X278427D01*
X276285Y-507002D02*
Y-516000D01*
X544642Y-507002D02*
X540357D01*
X539928Y-510858D01*
X540357Y-510430D01*
X541642Y-510001D01*
X542928D01*
X544213Y-510430D01*
X545070Y-511287D01*
X545499Y-512572D01*
Y-513429D01*
X545070Y-514715D01*
X544213Y-515571D01*
X542928Y-516000D01*
X541642D01*
X540357Y-515571D01*
X539928Y-515143D01*
X539500Y-514286D01*
X728000Y-451501D02*
X729499Y-453000D01*
X732499D01*
X733998Y-451501D01*
Y-445502D01*
X732499Y-444003D01*
X729499D01*
X728000Y-445502D01*
Y-447002D01*
X729499Y-448501D01*
X733998D01*
X736997Y-453000D02*
X742995Y-447002D01*
X745994Y-453000D02*
X748993D01*
X747494D01*
Y-444003D01*
X745994Y-445502D01*
X753492Y-453000D02*
X756491D01*
X754991D01*
Y-444003D01*
X753492Y-445502D01*
X760989Y-453000D02*
X766987Y-447002D01*
X775984Y-453000D02*
X769986D01*
X775984Y-447002D01*
Y-445502D01*
X774485Y-444003D01*
X771486D01*
X769986Y-445502D01*
X778983D02*
X780483Y-444003D01*
X783482D01*
X784982Y-445502D01*
Y-451501D01*
X783482Y-453000D01*
X780483D01*
X778983Y-451501D01*
Y-445502D01*
X787981Y-453000D02*
X790980D01*
X789480D01*
Y-444003D01*
X787981Y-445502D01*
X801476Y-453000D02*
X795478D01*
X801476Y-447002D01*
Y-445502D01*
X799977Y-444003D01*
X796978D01*
X795478Y-445502D01*
X524500Y-444002D02*
Y-453000D01*
Y-444002D02*
X527499D01*
X528785Y-444430D01*
X529642Y-445287D01*
X530070Y-446144D01*
X530499Y-447430D01*
Y-449572D01*
X530070Y-450858D01*
X529642Y-451715D01*
X528785Y-452571D01*
X527499Y-453000D01*
X524500D01*
X800499Y-481287D02*
X799642Y-480430D01*
X798356Y-480002D01*
X796642D01*
X795357Y-480430D01*
X794500Y-481287D01*
Y-482144D01*
X794929Y-483001D01*
X795357Y-483430D01*
X796214Y-483858D01*
X798785Y-484715D01*
X799642Y-485144D01*
X800070Y-485572D01*
X800499Y-486429D01*
Y-487715D01*
X799642Y-488572D01*
X798356Y-489000D01*
X796642D01*
X795357Y-488572D01*
X794500Y-487715D01*
X802513Y-480002D02*
Y-489000D01*
Y-484715D02*
X803798Y-483430D01*
X804655Y-483001D01*
X805940D01*
X806797Y-483430D01*
X807226Y-484715D01*
Y-489000D01*
X809583Y-485572D02*
X814724D01*
Y-484715D01*
X814296Y-483858D01*
X813867Y-483430D01*
X813010Y-483001D01*
X811725D01*
X810868Y-483430D01*
X810011Y-484287D01*
X809583Y-485572D01*
Y-486429D01*
X810011Y-487715D01*
X810868Y-488572D01*
X811725Y-489000D01*
X813010D01*
X813867Y-488572D01*
X814724Y-487715D01*
X816652Y-485572D02*
X821794D01*
Y-484715D01*
X821366Y-483858D01*
X820937Y-483430D01*
X820080Y-483001D01*
X818795D01*
X817938Y-483430D01*
X817081Y-484287D01*
X816652Y-485572D01*
Y-486429D01*
X817081Y-487715D01*
X817938Y-488572D01*
X818795Y-489000D01*
X820080D01*
X820937Y-488572D01*
X821794Y-487715D01*
X825008Y-480002D02*
Y-487286D01*
X825436Y-488572D01*
X826293Y-489000D01*
X827150D01*
X823722Y-483001D02*
X826722D01*
X866642Y-482501D02*
X865785Y-482930D01*
X864929Y-483787D01*
X864500Y-485072D01*
Y-485929D01*
X864929Y-487215D01*
X865785Y-488071D01*
X866642Y-488500D01*
X867928D01*
X868785Y-488071D01*
X869642Y-487215D01*
X870070Y-485929D01*
Y-485072D01*
X869642Y-483787D01*
X868785Y-482930D01*
X867928Y-482501D01*
X866642D01*
X875469Y-479502D02*
X874612D01*
X873755Y-479930D01*
X873327Y-481216D01*
Y-488500D01*
X872041Y-482501D02*
X875041D01*
X434500Y-384502D02*
Y-393500D01*
Y-384502D02*
X437499D01*
X438785Y-384930D01*
X439642Y-385787D01*
X440070Y-386644D01*
X440499Y-387930D01*
Y-390072D01*
X440070Y-391358D01*
X439642Y-392215D01*
X438785Y-393072D01*
X437499Y-393500D01*
X434500D01*
X447654Y-387501D02*
Y-393500D01*
Y-388787D02*
X446797Y-387930D01*
X445940Y-387501D01*
X444655D01*
X443798Y-387930D01*
X442941Y-388787D01*
X442513Y-390072D01*
Y-390929D01*
X442941Y-392215D01*
X443798Y-393072D01*
X444655Y-393500D01*
X445940D01*
X446797Y-393072D01*
X447654Y-392215D01*
X450054Y-387501D02*
X452625Y-393500D01*
X455196Y-387501D02*
X452625Y-393500D01*
X456652Y-390072D02*
X461794D01*
Y-389215D01*
X461366Y-388358D01*
X460937Y-387930D01*
X460080Y-387501D01*
X458795D01*
X457938Y-387930D01*
X457081Y-388787D01*
X456652Y-390072D01*
Y-390929D01*
X457081Y-392215D01*
X457938Y-393072D01*
X458795Y-393500D01*
X460080D01*
X460937Y-393072D01*
X461794Y-392215D01*
X470792Y-384502D02*
Y-393500D01*
Y-384502D02*
X474220Y-393500D01*
X477648Y-384502D02*
X474220Y-393500D01*
X477648Y-384502D02*
Y-393500D01*
X485360Y-388787D02*
X484504Y-387930D01*
X483647Y-387501D01*
X482361D01*
X481504Y-387930D01*
X480647Y-388787D01*
X480219Y-390072D01*
Y-390929D01*
X480647Y-392215D01*
X481504Y-393072D01*
X482361Y-393500D01*
X483647D01*
X484504Y-393072D01*
X485360Y-392215D01*
X493716Y-386644D02*
X493287Y-385787D01*
X492430Y-384930D01*
X491573Y-384502D01*
X489860D01*
X489003Y-384930D01*
X488146Y-385787D01*
X487717Y-386644D01*
X487289Y-387930D01*
Y-390072D01*
X487717Y-391358D01*
X488146Y-392215D01*
X489003Y-393072D01*
X489860Y-393500D01*
X491573D01*
X492430Y-393072D01*
X493287Y-392215D01*
X493716Y-391358D01*
X498386Y-387501D02*
X497529Y-387930D01*
X496672Y-388787D01*
X496244Y-390072D01*
Y-390929D01*
X496672Y-392215D01*
X497529Y-393072D01*
X498386Y-393500D01*
X499672D01*
X500529Y-393072D01*
X501386Y-392215D01*
X501814Y-390929D01*
Y-390072D01*
X501386Y-388787D01*
X500529Y-387930D01*
X499672Y-387501D01*
X498386D01*
X504214D02*
X506784Y-393500D01*
X509355Y-387501D02*
X506784Y-393500D01*
X505928Y-395214D01*
X505071Y-396071D01*
X504214Y-396499D01*
X503785D01*
X434500Y-414502D02*
Y-423500D01*
Y-414502D02*
X437499D01*
X438785Y-414930D01*
X439642Y-415787D01*
X440070Y-416644D01*
X440499Y-417930D01*
Y-420072D01*
X440070Y-421358D01*
X439642Y-422215D01*
X438785Y-423071D01*
X437499Y-423500D01*
X434500D01*
X447654Y-417501D02*
Y-423500D01*
Y-418787D02*
X446797Y-417930D01*
X445940Y-417501D01*
X444655D01*
X443798Y-417930D01*
X442941Y-418787D01*
X442513Y-420072D01*
Y-420929D01*
X442941Y-422215D01*
X443798Y-423071D01*
X444655Y-423500D01*
X445940D01*
X446797Y-423071D01*
X447654Y-422215D01*
X450054Y-417501D02*
X452625Y-423500D01*
X455196Y-417501D02*
X452625Y-423500D01*
X456652Y-420072D02*
X461794D01*
Y-419215D01*
X461366Y-418358D01*
X460937Y-417930D01*
X460080Y-417501D01*
X458795D01*
X457938Y-417930D01*
X457081Y-418787D01*
X456652Y-420072D01*
Y-420929D01*
X457081Y-422215D01*
X457938Y-423071D01*
X458795Y-423500D01*
X460080D01*
X460937Y-423071D01*
X461794Y-422215D01*
X470792Y-414502D02*
Y-423500D01*
Y-414502D02*
X474220Y-423500D01*
X477648Y-414502D02*
X474220Y-423500D01*
X477648Y-414502D02*
Y-423500D01*
X485360Y-418787D02*
X484504Y-417930D01*
X483647Y-417501D01*
X482361D01*
X481504Y-417930D01*
X480647Y-418787D01*
X480219Y-420072D01*
Y-420929D01*
X480647Y-422215D01*
X481504Y-423071D01*
X482361Y-423500D01*
X483647D01*
X484504Y-423071D01*
X485360Y-422215D01*
X493716Y-416644D02*
X493287Y-415787D01*
X492430Y-414930D01*
X491573Y-414502D01*
X489860D01*
X489003Y-414930D01*
X488146Y-415787D01*
X487717Y-416644D01*
X487289Y-417930D01*
Y-420072D01*
X487717Y-421358D01*
X488146Y-422215D01*
X489003Y-423071D01*
X489860Y-423500D01*
X491573D01*
X492430Y-423071D01*
X493287Y-422215D01*
X493716Y-421358D01*
X498386Y-417501D02*
X497529Y-417930D01*
X496672Y-418787D01*
X496244Y-420072D01*
Y-420929D01*
X496672Y-422215D01*
X497529Y-423071D01*
X498386Y-423500D01*
X499672D01*
X500529Y-423071D01*
X501386Y-422215D01*
X501814Y-420929D01*
Y-420072D01*
X501386Y-418787D01*
X500529Y-417930D01*
X499672Y-417501D01*
X498386D01*
X504214D02*
X506784Y-423500D01*
X509355Y-417501D02*
X506784Y-423500D01*
X505928Y-425214D01*
X505071Y-426071D01*
X504214Y-426499D01*
X503785D01*
X440070Y-447501D02*
X439642Y-448787D01*
X438785Y-449644D01*
X437499Y-450072D01*
X437071D01*
X435785Y-449644D01*
X434929Y-448787D01*
X434500Y-447501D01*
Y-447073D01*
X434929Y-445787D01*
X435785Y-444930D01*
X437071Y-444502D01*
X437499D01*
X438785Y-444930D01*
X439642Y-445787D01*
X440070Y-447501D01*
Y-449644D01*
X439642Y-451786D01*
X438785Y-453071D01*
X437499Y-453500D01*
X436642D01*
X435357Y-453071D01*
X434929Y-452215D01*
X442513Y-454785D02*
X448511Y-444502D01*
X449111Y-446216D02*
X449968Y-445787D01*
X451254Y-444502D01*
Y-453500D01*
X455710Y-446216D02*
X456567Y-445787D01*
X457852Y-444502D01*
Y-453500D01*
X462308Y-454785D02*
X468307Y-444502D01*
X469335Y-446644D02*
Y-446216D01*
X469764Y-445359D01*
X470192Y-444930D01*
X471049Y-444502D01*
X472763D01*
X473620Y-444930D01*
X474049Y-445359D01*
X474477Y-446216D01*
Y-447073D01*
X474049Y-447930D01*
X473192Y-449215D01*
X468907Y-453500D01*
X474906D01*
X479490Y-444502D02*
X478205Y-444930D01*
X477348Y-446216D01*
X476920Y-448358D01*
Y-449644D01*
X477348Y-451786D01*
X478205Y-453071D01*
X479490Y-453500D01*
X480347D01*
X481633Y-453071D01*
X482490Y-451786D01*
X482918Y-449644D01*
Y-448358D01*
X482490Y-446216D01*
X481633Y-444930D01*
X480347Y-444502D01*
X479490D01*
X484932Y-446216D02*
X485789Y-445787D01*
X487075Y-444502D01*
Y-453500D01*
X491959Y-446644D02*
Y-446216D01*
X492388Y-445359D01*
X492816Y-444930D01*
X493673Y-444502D01*
X495387D01*
X496244Y-444930D01*
X496672Y-445359D01*
X497101Y-446216D01*
Y-447073D01*
X496672Y-447930D01*
X495816Y-449215D01*
X491531Y-453500D01*
X497529D01*
X402999Y-483287D02*
X402142Y-482430D01*
X400856Y-482002D01*
X399142D01*
X397857Y-482430D01*
X397000Y-483287D01*
Y-484144D01*
X397428Y-485001D01*
X397857Y-485430D01*
X398714Y-485858D01*
X401285Y-486715D01*
X402142Y-487144D01*
X402570Y-487572D01*
X402999Y-488429D01*
Y-489715D01*
X402142Y-490571D01*
X400856Y-491000D01*
X399142D01*
X397857Y-490571D01*
X397000Y-489715D01*
X405869Y-482002D02*
X406298Y-482430D01*
X406727Y-482002D01*
X406298Y-481573D01*
X405869Y-482002D01*
X406298Y-485001D02*
Y-491000D01*
X413025Y-485001D02*
X408312Y-491000D01*
Y-485001D02*
X413025D01*
X408312Y-491000D02*
X413025D01*
X414911Y-487572D02*
X420052D01*
Y-486715D01*
X419624Y-485858D01*
X419195Y-485430D01*
X418338Y-485001D01*
X417053D01*
X416196Y-485430D01*
X415339Y-486287D01*
X414911Y-487572D01*
Y-488429D01*
X415339Y-489715D01*
X416196Y-490571D01*
X417053Y-491000D01*
X418338D01*
X419195Y-490571D01*
X420052Y-489715D01*
X435000Y-476216D02*
X435857Y-475787D01*
X437142Y-474502D01*
Y-483500D01*
X442027Y-477501D02*
X441599Y-477930D01*
X442027Y-478358D01*
X442456Y-477930D01*
X442027Y-477501D01*
Y-482643D02*
X441599Y-483072D01*
X442027Y-483500D01*
X442456Y-483072D01*
X442027Y-482643D01*
X444427Y-476216D02*
X445284Y-475787D01*
X446569Y-474502D01*
Y-483500D01*
X524000Y-474502D02*
Y-483500D01*
Y-474502D02*
X526999D01*
X528285Y-474930D01*
X529142Y-475787D01*
X529570Y-476644D01*
X529999Y-477930D01*
Y-480072D01*
X529570Y-481358D01*
X529142Y-482215D01*
X528285Y-483072D01*
X526999Y-483500D01*
X524000D01*
X532869Y-474502D02*
X533298Y-474930D01*
X533727Y-474502D01*
X533298Y-474073D01*
X532869Y-474502D01*
X533298Y-477501D02*
Y-483500D01*
X537454Y-477501D02*
X536597Y-477930D01*
X535740Y-478787D01*
X535312Y-480072D01*
Y-480929D01*
X535740Y-482215D01*
X536597Y-483072D01*
X537454Y-483500D01*
X538740D01*
X539597Y-483072D01*
X540454Y-482215D01*
X540882Y-480929D01*
Y-480072D01*
X540454Y-478787D01*
X539597Y-477930D01*
X538740Y-477501D01*
X537454D01*
X542853D02*
Y-483500D01*
Y-479215D02*
X544138Y-477930D01*
X544995Y-477501D01*
X546281D01*
X547138Y-477930D01*
X547566Y-479215D01*
Y-483500D01*
X550351Y-477501D02*
X552922Y-483500D01*
X555493Y-477501D02*
X552922Y-483500D01*
X552065Y-485214D01*
X551208Y-486071D01*
X550351Y-486499D01*
X549923D01*
X561706Y-478787D02*
X561278Y-477930D01*
X559992Y-477501D01*
X558707D01*
X557421Y-477930D01*
X556993Y-478787D01*
X557421Y-479644D01*
X558278Y-480072D01*
X560421Y-480501D01*
X561278Y-480929D01*
X561706Y-481786D01*
Y-482215D01*
X561278Y-483072D01*
X559992Y-483500D01*
X558707D01*
X557421Y-483072D01*
X556993Y-482215D01*
X563591Y-477501D02*
Y-481786D01*
X564020Y-483072D01*
X564877Y-483500D01*
X566162D01*
X567019Y-483072D01*
X568305Y-481786D01*
Y-477501D02*
Y-483500D01*
X575375Y-478787D02*
X574946Y-477930D01*
X573661Y-477501D01*
X572375D01*
X571090Y-477930D01*
X570661Y-478787D01*
X571090Y-479644D01*
X571947Y-480072D01*
X574089Y-480501D01*
X574946Y-480929D01*
X575375Y-481786D01*
Y-482215D01*
X574946Y-483072D01*
X573661Y-483500D01*
X572375D01*
X571090Y-483072D01*
X570661Y-482215D01*
X577689Y-482643D02*
X577260Y-483072D01*
X577689Y-483500D01*
X578117Y-483072D01*
X577689Y-482643D01*
X580088Y-479215D02*
X583944D01*
X585230Y-478787D01*
X585658Y-478358D01*
X586087Y-477501D01*
Y-476216D01*
X585658Y-475359D01*
X585230Y-474930D01*
X583944Y-474502D01*
X580088D01*
Y-483500D01*
X593242Y-478787D02*
X592385Y-477930D01*
X591528Y-477501D01*
X590243D01*
X589386Y-477930D01*
X588529Y-478787D01*
X588101Y-480072D01*
Y-480929D01*
X588529Y-482215D01*
X589386Y-483072D01*
X590243Y-483500D01*
X591528D01*
X592385Y-483072D01*
X593242Y-482215D01*
X595170Y-474502D02*
Y-483500D01*
Y-478787D02*
X596027Y-477930D01*
X596884Y-477501D01*
X598170D01*
X599027Y-477930D01*
X599884Y-478787D01*
X600312Y-480072D01*
Y-480929D01*
X599884Y-482215D01*
X599027Y-483072D01*
X598170Y-483500D01*
X596884D01*
X596027Y-483072D01*
X595170Y-482215D01*
X602240Y-474502D02*
Y-483500D01*
Y-474502D02*
X605240D01*
X606525Y-474930D01*
X607382Y-475787D01*
X607811Y-476644D01*
X608239Y-477930D01*
Y-480072D01*
X607811Y-481358D01*
X607382Y-482215D01*
X606525Y-483072D01*
X605240Y-483500D01*
X602240D01*
X612395Y-477501D02*
X611538Y-477930D01*
X610681Y-478787D01*
X610253Y-480072D01*
Y-480929D01*
X610681Y-482215D01*
X611538Y-483072D01*
X612395Y-483500D01*
X613681D01*
X614538Y-483072D01*
X615395Y-482215D01*
X615823Y-480929D01*
Y-480072D01*
X615395Y-478787D01*
X614538Y-477930D01*
X613681Y-477501D01*
X612395D01*
X622936Y-478787D02*
X622079Y-477930D01*
X621222Y-477501D01*
X619937D01*
X619080Y-477930D01*
X618223Y-478787D01*
X617794Y-480072D01*
Y-480929D01*
X618223Y-482215D01*
X619080Y-483072D01*
X619937Y-483500D01*
X621222D01*
X622079Y-483072D01*
X622936Y-482215D01*
X812142Y-508287D02*
X811713Y-507430D01*
X810428Y-507002D01*
X809571D01*
X808285Y-507430D01*
X807428Y-508716D01*
X807000Y-510858D01*
Y-513001D01*
X807428Y-514715D01*
X808285Y-515571D01*
X809571Y-516000D01*
X809999D01*
X811285Y-515571D01*
X812142Y-514715D01*
X812570Y-513429D01*
Y-513001D01*
X812142Y-511715D01*
X811285Y-510858D01*
X809999Y-510430D01*
X809571D01*
X808285Y-510858D01*
X807428Y-511715D01*
X807000Y-513001D01*
X-645000Y355498D02*
Y346500D01*
Y355498D02*
X-642001D01*
X-640715Y355070D01*
X-639858Y354213D01*
X-639430Y353356D01*
X-639001Y352070D01*
Y349928D01*
X-639430Y348642D01*
X-639858Y347785D01*
X-640715Y346929D01*
X-642001Y346500D01*
X-645000D01*
X-639073Y103356D02*
X-639501Y104213D01*
X-640358Y105070D01*
X-641215Y105498D01*
X-642929D01*
X-643786Y105070D01*
X-644643Y104213D01*
X-645072Y103356D01*
X-645500Y102070D01*
Y99928D01*
X-645072Y98642D01*
X-644643Y97785D01*
X-643786Y96929D01*
X-642929Y96500D01*
X-641215D01*
X-640358Y96929D01*
X-639501Y97785D01*
X-639073Y98642D01*
X-645500Y-144502D02*
Y-153500D01*
Y-144502D02*
X-641644D01*
X-640358Y-144930D01*
X-639930Y-145359D01*
X-639501Y-146216D01*
Y-147073D01*
X-639930Y-147930D01*
X-640358Y-148358D01*
X-641644Y-148787D01*
X-645500D02*
X-641644D01*
X-640358Y-149215D01*
X-639930Y-149644D01*
X-639501Y-150501D01*
Y-151786D01*
X-639930Y-152643D01*
X-640358Y-153071D01*
X-641644Y-153500D01*
X-645500D01*
X-638144Y-408500D02*
X-641572Y-399502D01*
X-645000Y-408500D01*
X-643715Y-405501D02*
X-639430D01*
X924500Y-142002D02*
Y-151000D01*
Y-142002D02*
X928356D01*
X929642Y-142430D01*
X930070Y-142859D01*
X930499Y-143716D01*
Y-144573D01*
X930070Y-145430D01*
X929642Y-145858D01*
X928356Y-146287D01*
X924500D02*
X928356D01*
X929642Y-146715D01*
X930070Y-147144D01*
X930499Y-148001D01*
Y-149286D01*
X930070Y-150143D01*
X929642Y-150572D01*
X928356Y-151000D01*
X924500D01*
X253500Y-480401D02*
Y-486400D01*
Y-480401D02*
X255785Y-486400D01*
X258070Y-480401D02*
X255785Y-486400D01*
X258070Y-480401D02*
Y-486400D01*
X259784Y-482401D02*
Y-485257D01*
X260070Y-486114D01*
X260641Y-486400D01*
X261498D01*
X262070Y-486114D01*
X262927Y-485257D01*
Y-482401D02*
Y-486400D01*
X264498Y-480401D02*
Y-486400D01*
X266612Y-480401D02*
Y-485257D01*
X266897Y-486114D01*
X267468Y-486400D01*
X268040D01*
X265755Y-482401D02*
X267754D01*
X269468Y-480401D02*
X269754Y-480687D01*
X270039Y-480401D01*
X269754Y-480116D01*
X269468Y-480401D01*
X269754Y-482401D02*
Y-486400D01*
X271096Y-483829D02*
X276238D01*
X278009Y-480401D02*
Y-486400D01*
X281437D01*
X285522Y-482401D02*
Y-486400D01*
Y-483258D02*
X284950Y-482687D01*
X284379Y-482401D01*
X283522D01*
X282951Y-482687D01*
X282380Y-483258D01*
X282094Y-484115D01*
Y-484686D01*
X282380Y-485543D01*
X282951Y-486114D01*
X283522Y-486400D01*
X284379D01*
X284950Y-486114D01*
X285522Y-485543D01*
X287407Y-482401D02*
X289121Y-486400D01*
X290835Y-482401D02*
X289121Y-486400D01*
X288550Y-487543D01*
X287978Y-488114D01*
X287407Y-488400D01*
X287121D01*
X291835Y-484115D02*
X295263D01*
Y-483543D01*
X294977Y-482972D01*
X294691Y-482687D01*
X294120Y-482401D01*
X293263D01*
X292692Y-482687D01*
X292120Y-483258D01*
X291835Y-484115D01*
Y-484686D01*
X292120Y-485543D01*
X292692Y-486114D01*
X293263Y-486400D01*
X294120D01*
X294691Y-486114D01*
X295263Y-485543D01*
X296548Y-482401D02*
Y-486400D01*
Y-484115D02*
X296834Y-483258D01*
X297405Y-482687D01*
X297976Y-482401D01*
X298833D01*
D36*
X31300Y109200D02*
Y146900D01*
D37*
X7092Y55400D02*
Y143192D01*
X15500Y151600D01*
Y165300D01*
X11300Y169500D02*
X15500Y165300D01*
X21300Y163400D02*
X30400Y154300D01*
X21300Y163400D02*
Y169500D01*
D38*
X27100Y61500D02*
X37800Y50800D01*
X27100Y61500D02*
Y107400D01*
X20600Y113900D02*
X27100Y107400D01*
X20600Y113900D02*
Y131200D01*
X145300Y4900D02*
X150800Y10400D01*
X37800Y14600D02*
Y50800D01*
Y14600D02*
X47500Y4900D01*
X145300D01*
D39*
X-300000Y320000D02*
X-250000D01*
X-350000D02*
X-300000D01*
Y370000D01*
Y270000D02*
Y320000D01*
X600000D02*
X650000D01*
X550000D02*
X600000D01*
Y370000D01*
Y270000D02*
Y320000D01*
Y-160000D02*
Y-110000D01*
Y-210000D02*
Y-160000D01*
X650000D01*
X550000D02*
X600000D01*
D40*
X-628000Y444000D02*
X912000D01*
X517000Y-381000D02*
X912000D01*
X392000Y-496000D02*
Y-451000D01*
X427000D01*
Y-496000D02*
Y-381000D01*
X517000Y-496000D02*
Y-381000D01*
X717000Y-471000D02*
Y-441000D01*
X822000Y-471000D02*
Y-441000D01*
X427000Y-381000D02*
X517000D01*
X427000Y-441000D02*
X912000D01*
X427000Y-471000D02*
X912000D01*
X427000Y-411000D02*
X517000D01*
X674500Y-526000D02*
Y-496000D01*
X409500Y-526000D02*
Y-496000D01*
X-125500Y-526000D02*
Y-496000D01*
X142000Y-526000D02*
Y-496000D01*
X-393000Y-526000D02*
Y-496000D01*
X409500Y444000D02*
Y474000D01*
X-125500Y444000D02*
Y474000D01*
X142000Y444000D02*
Y474000D01*
X912000Y224000D02*
X942000D01*
X912000Y-276000D02*
X942000D01*
X-393000Y444000D02*
Y474000D01*
X-658000Y224000D02*
X-628000D01*
X-658000Y-276000D02*
X-628000D01*
X912000Y-496000D02*
Y444000D01*
X-658000Y-26000D02*
X-628000D01*
Y-496000D02*
X912000D01*
X-628000D02*
Y444000D01*
X-658000Y-526000D02*
X942000D01*
Y474000D01*
X-658000D02*
X942000D01*
X-658000Y-526000D02*
Y474000D01*
D41*
X403000Y-458504D02*
Y-476500D01*
Y-458504D02*
X410713D01*
X413283Y-459361D01*
X414141Y-460218D01*
X414997Y-461932D01*
Y-463646D01*
X414141Y-465359D01*
X413283Y-466217D01*
X410713Y-467073D01*
X403000D02*
X410713D01*
X413283Y-467930D01*
X414141Y-468787D01*
X414997Y-470501D01*
Y-473072D01*
X414141Y-474786D01*
X413283Y-475643D01*
X410713Y-476500D01*
X403000D01*
D42*
X164800Y200400D02*
D03*
X154800D02*
D03*
X144800D02*
D03*
X134800D02*
D03*
X124800D02*
D03*
X114800D02*
D03*
X104800D02*
D03*
X94800D02*
D03*
X11300Y169500D02*
D03*
X21300D02*
D03*
X31300D02*
D03*
X80800Y200400D02*
D03*
X70800D02*
D03*
X60800D02*
D03*
X50800D02*
D03*
X40800D02*
D03*
X30800D02*
D03*
X200800Y10400D02*
D03*
X210800D02*
D03*
X220800D02*
D03*
X230800D02*
D03*
X240800D02*
D03*
X250800D02*
D03*
Y200400D02*
D03*
X240800D02*
D03*
X230800D02*
D03*
X220800D02*
D03*
X210800D02*
D03*
X200800D02*
D03*
X190800D02*
D03*
X180800D02*
D03*
Y10400D02*
D03*
X170800D02*
D03*
X160800D02*
D03*
X150800D02*
D03*
X140800D02*
D03*
X130800D02*
D03*
D43*
X24816Y45147D02*
D03*
X7100D02*
D03*
D44*
X360800Y85400D02*
D03*
Y75400D02*
D03*
Y65400D02*
D03*
Y35400D02*
D03*
Y45400D02*
D03*
Y55400D02*
D03*
X370800D02*
D03*
Y45400D02*
D03*
Y35400D02*
D03*
Y65400D02*
D03*
Y75400D02*
D03*
Y85400D02*
D03*
Y175400D02*
D03*
Y165400D02*
D03*
Y155400D02*
D03*
Y125400D02*
D03*
Y135400D02*
D03*
Y145400D02*
D03*
X360800D02*
D03*
Y135400D02*
D03*
Y125400D02*
D03*
Y155400D02*
D03*
Y165400D02*
D03*
Y175400D02*
D03*
D45*
X130800Y180900D02*
D03*
X118800Y169335D02*
D03*
X162800Y139400D02*
D03*
X157765D02*
D03*
X151600D02*
D03*
X146735Y143500D02*
D03*
X82100Y14400D02*
D03*
X123100Y23400D02*
D03*
X86100Y19400D02*
D03*
X90835D02*
D03*
X122100Y14400D02*
D03*
X7100Y55400D02*
D03*
X212100Y57400D02*
D03*
X221900D02*
D03*
X140300Y74900D02*
D03*
X41300Y123900D02*
D03*
X176300Y27900D02*
D03*
X204800Y33500D02*
D03*
X200300Y33432D02*
D03*
X195800Y33500D02*
D03*
X200284Y43400D02*
D03*
X208158Y61400D02*
D03*
X212300Y61300D02*
D03*
X195800Y43400D02*
D03*
X191400Y41300D02*
D03*
X107250Y61950D02*
D03*
X107300Y56900D02*
D03*
Y52500D02*
D03*
X173000Y99500D02*
D03*
X168500Y101500D02*
D03*
X141300Y91100D02*
D03*
X150916Y74868D02*
D03*
X164700Y72899D02*
D03*
X213800Y159900D02*
D03*
X206300Y160000D02*
D03*
X204300Y149800D02*
D03*
X200284Y149604D02*
D03*
X202800Y123400D02*
D03*
X307000Y19200D02*
D03*
X262142Y14688D02*
D03*
X259300Y116300D02*
D03*
X54100Y19400D02*
D03*
X231300Y122100D02*
D03*
X286700Y98600D02*
D03*
X37500Y96700D02*
D03*
X97637Y68800D02*
D03*
X206700Y123400D02*
D03*
X204800Y43400D02*
D03*
X40800Y83900D02*
D03*
X188500Y57400D02*
D03*
X91800Y135900D02*
D03*
X132152Y160048D02*
D03*
X293500Y19100D02*
D03*
X290843Y27761D02*
D03*
X279900Y19100D02*
D03*
X104243Y19061D02*
D03*
X116758Y19139D02*
D03*
X258300Y61100D02*
D03*
Y67000D02*
D03*
X31300Y147300D02*
D03*
Y109200D02*
D03*
X7100Y34239D02*
D03*
X44535Y175900D02*
D03*
X70500D02*
D03*
X307000Y38400D02*
D03*
X288440Y116621D02*
D03*
X302791Y122921D02*
D03*
X278200D02*
D03*
X288400Y126200D02*
D03*
X302791Y132369D02*
D03*
X278550D02*
D03*
X288440Y135519D02*
D03*
X233500Y155500D02*
D03*
X238400Y155400D02*
D03*
X330200Y93900D02*
D03*
X304800Y90900D02*
D03*
X322800Y93900D02*
D03*
X233800Y95400D02*
D03*
X225900Y57400D02*
D03*
X333218Y66228D02*
D03*
Y69377D02*
D03*
Y72527D02*
D03*
Y75676D02*
D03*
Y78826D02*
D03*
Y81976D02*
D03*
Y88275D02*
D03*
Y110322D02*
D03*
X302791Y63078D02*
D03*
Y69377D02*
D03*
Y75676D02*
D03*
Y81976D02*
D03*
X295957Y53498D02*
D03*
X302791Y110322D02*
D03*
X278200Y119771D02*
D03*
X302791D02*
D03*
X278550Y129220D02*
D03*
X302791D02*
D03*
X333170Y119791D02*
D03*
X333218Y122921D02*
D03*
X232000Y71000D02*
D03*
X204200Y57400D02*
D03*
X214064Y38500D02*
D03*
X218500D02*
D03*
X229000Y41500D02*
D03*
X218500Y42500D02*
D03*
X187300Y67000D02*
D03*
Y62300D02*
D03*
X231900Y66500D02*
D03*
X250435Y38400D02*
D03*
X223906Y33400D02*
D03*
X238300Y140900D02*
D03*
X217500Y116200D02*
D03*
X299318Y148412D02*
D03*
X228855Y146268D02*
D03*
X189300Y29900D02*
D03*
X172400Y27900D02*
D03*
X168300D02*
D03*
X159800Y39700D02*
D03*
X164780Y76836D02*
D03*
X167300Y80400D02*
D03*
X103300Y73900D02*
D03*
X113900Y78900D02*
D03*
X164700Y104395D02*
D03*
X99300Y74000D02*
D03*
X146300Y109400D02*
D03*
X164700Y108332D02*
D03*
X84300Y92000D02*
D03*
X123700Y107258D02*
D03*
X269500Y27500D02*
D03*
X265500Y30500D02*
D03*
X258400Y7500D02*
D03*
X224863Y146268D02*
D03*
X358493Y94000D02*
D03*
X223906Y124490D02*
D03*
X215600D02*
D03*
X229000Y158100D02*
D03*
X219200Y159900D02*
D03*
X118700Y133600D02*
D03*
X139900Y135500D02*
D03*
X106900Y150500D02*
D03*
X104700Y155500D02*
D03*
X164700Y112269D02*
D03*
X211100Y123400D02*
D03*
X197100Y156700D02*
D03*
X193800Y124400D02*
D03*
X170300Y154900D02*
D03*
X176662Y125962D02*
D03*
X172725Y125925D02*
D03*
X164800Y69000D02*
D03*
X74547Y89400D02*
D03*
X70279Y89379D02*
D03*
X68800Y85400D02*
D03*
X91000Y102000D02*
D03*
X91842Y107258D02*
D03*
X143400Y49300D02*
D03*
X143400Y44300D02*
D03*
X265000Y111200D02*
D03*
X230800Y61857D02*
D03*
X267077Y14626D02*
D03*
X319861Y19039D02*
D03*
X330804Y27700D02*
D03*
X333461Y19039D02*
D03*
X258300Y56400D02*
D03*
X234001Y80773D02*
D03*
X188473Y126200D02*
D03*
X164851D02*
D03*
X164700Y118175D02*
D03*
X233749Y33400D02*
D03*
X208158Y149800D02*
D03*
X174694D02*
D03*
X140209Y101091D02*
D03*
X138491Y94600D02*
D03*
X174650Y139209D02*
D03*
X208115D02*
D03*
X246909Y67037D02*
D03*
X233792Y43991D02*
D03*
X223950D02*
D03*
X198325Y126120D02*
D03*
X151691Y94509D02*
D03*
X150500Y101000D02*
D03*
X164780Y84720D02*
D03*
X248685Y108659D02*
D03*
Y117848D02*
D03*
X196309Y149604D02*
D03*
X138491Y87691D02*
D03*
X141300Y83700D02*
D03*
X167776Y36931D02*
D03*
X171768D02*
D03*
X370831Y109031D02*
D03*
X360831D02*
D03*
X349832Y24763D02*
D03*
X358169Y23400D02*
D03*
X120500Y140500D02*
D03*
X120600Y145500D02*
D03*
X140700Y148600D02*
D03*
X284084Y78900D02*
D03*
X273468Y50068D02*
D03*
X269500Y50000D02*
D03*
X78100Y133800D02*
D03*
X61300Y145900D02*
D03*
X45400Y148000D02*
D03*
X105500Y121300D02*
D03*
X99100Y127900D02*
D03*
Y132400D02*
D03*
X78158Y68700D02*
D03*
X68968D02*
D03*
X107200Y110869D02*
D03*
Y101680D02*
D03*
X78811Y128100D02*
D03*
X88000D02*
D03*
X90600Y65400D02*
D03*
X8770Y151961D02*
D03*
X8770Y159639D02*
D03*
X26200Y140900D02*
D03*
X57569Y132269D02*
D03*
X63300Y103300D02*
D03*
X55600Y118600D02*
D03*
X40832Y108069D02*
D03*
X40800Y104100D02*
D03*
X63300Y89500D02*
D03*
X49300Y87500D02*
D03*
X40800Y93200D02*
D03*
X333218Y59928D02*
D03*
Y135519D02*
D03*
Y141818D02*
D03*
X345230Y126070D02*
D03*
X345221Y116621D02*
D03*
X349309Y109500D02*
D03*
X353809D02*
D03*
Y98546D02*
D03*
X349309D02*
D03*
X308751Y53498D02*
D03*
X312069Y148461D02*
D03*
X282200Y98600D02*
D03*
Y109500D02*
D03*
X286700D02*
D03*
X53500Y40400D02*
D03*
X127800Y61665D02*
D03*
X102700Y40400D02*
D03*
X76200D02*
D03*
X49516Y19376D02*
D03*
X114100Y27800D02*
D03*
X77300Y19100D02*
D03*
X74642Y27761D02*
D03*
X63700Y19100D02*
D03*
X185300Y29900D02*
D03*
X302791Y104023D02*
D03*
X269800Y98700D02*
D03*
X225800Y74900D02*
D03*
X229500Y78000D02*
D03*
X258800Y84300D02*
D03*
X217500Y110301D02*
D03*
X182800Y59900D02*
D03*
X209300Y75800D02*
D03*
X228500Y118500D02*
D03*
X225400Y102400D02*
D03*
X43431Y111831D02*
D03*
X55200Y69900D02*
D03*
X118800Y107258D02*
D03*
X122300Y113000D02*
D03*
X49300Y79000D02*
D03*
X109900Y87532D02*
D03*
X172300Y163300D02*
D03*
X277000Y167000D02*
D03*
Y171000D02*
D03*
X265000Y178700D02*
D03*
X260200Y183200D02*
D03*
X249100Y167900D02*
D03*
X249300Y180400D02*
D03*
X101200Y175000D02*
D03*
Y169800D02*
D03*
X97600Y172400D02*
D03*
Y177600D02*
D03*
X94100Y155000D02*
D03*
X94300Y167500D02*
D03*
X83200Y152200D02*
D03*
X78400Y156700D02*
D03*
X67300Y163900D02*
D03*
Y168500D02*
D03*
X227800Y167900D02*
D03*
Y171400D02*
D03*
X231800D02*
D03*
X231700Y167900D02*
D03*
X183400Y121500D02*
D03*
Y125800D02*
D03*
X37135Y73900D02*
D03*
X22800Y94100D02*
D03*
X138800Y125400D02*
D03*
X146735Y147400D02*
D03*
X22800Y89200D02*
D03*
X258800Y93269D02*
D03*
Y89268D02*
D03*
X248900Y175400D02*
D03*
X94300Y160000D02*
D03*
X85000D02*
D03*
X90000D02*
D03*
X259000Y175400D02*
D03*
X253500D02*
D03*
M02*
